<?xml version="1.0" standalone="no"?>
<!DOCTYPE svg PUBLIC "-//W3C//DTD SVG 1.1//EN" "http://www.w3.org/Graphics/SVG/1.1/DTD/svg11.dtd" >
<svg xmlns="http://www.w3.org/2000/svg">
<metadata></metadata>
<defs>
<font id="distro_lightregular" horiz-adv-x="1052" >
<font-face units-per-em="2048" ascent="1638" descent="-410" />
<missing-glyph horiz-adv-x="460" />
<glyph horiz-adv-x="0" />
<glyph horiz-adv-x="682" />
<glyph horiz-adv-x="751" d="M156 1337q0 -20 18.5 -43.5t50 -44t72.5 -34t86 -13.5t82 13.5t63.5 33t42 42.5t15.5 46q0 16 -9.5 23.5t-46.5 7.5q-23 0 -28.5 -5t-9.5 -11l-35 -35q-16 -16 -31.5 -27.5t-42.5 -11.5q-37 0 -64.5 17.5t-46.5 39.5q-4 4 -5 7.5t-3 5.5l-2 2q0 2 -2 4l-4 4q-4 4 -14.5 7 t-42.5 3q-29 0 -36 -5t-7 -26z" />
<glyph horiz-adv-x="679" d="M270 1237q0 -23 17.5 -40t40.5 -17t42 17t19 40q0 25 -19.5 44t-41.5 19q-27 0 -42.5 -19t-15.5 -44z" />
<glyph horiz-adv-x="327" d="M18 1343q0 -45 26 -75.5t62 -40.5q13 -10 25 -10q6 0 13.5 2t17.5 10q35 12 62.5 44t27.5 66q0 23 -14 56h-2q-8 18 -21 28q-18 16 -39.5 27.5t-44.5 11.5q-18 0 -37.5 -10t-36 -26.5t-28 -38t-11.5 -44.5zM68 1362q0 25 17 40t46 15q37 0 62 -18q6 -8 9 -13.5t7 -9.5v-2 q0 -2 1 -3t1 -3q0 -23 -18.5 -53.5t-38.5 -52.5q-10 -4 -23 -5q-8 0 -16 3q-20 20 -33.5 49.5t-13.5 52.5z" />
<glyph unicode="&#xa;" horiz-adv-x="927" d="M119 1145q0 -14 16.5 -16.5t52.5 -2.5q61 0 74 19l2 4l-2 -2q10 12 38 41t56 57v2q12 12 20.5 19.5t15.5 14.5t16.5 15.5t23.5 22.5l4 12q0 16 -14 24.5t-33 8.5q-10 0 -28.5 -1t-36.5 -3q-16 -2 -33 -3t-27 -1q-16 0 -25.5 -10.5t-19.5 -24.5l-6 -6v-6q-4 -8 -11 -19.5 t-16 -25.5q-23 -35 -45 -68t-22 -51zM496 1145q0 -14 16 -16.5t51 -2.5q53 0 70 15h2q14 18 42 47t56 57v2q12 12 20.5 19.5t15.5 14.5t16.5 15.5t23.5 22.5l4 12q0 16 -15.5 24.5t-31.5 8.5q-10 0 -28.5 -1t-37.5 -3q-16 -2 -32.5 -3t-26.5 -1q-16 0 -25.5 -10.5 t-19.5 -24.5l2 2q-8 -12 -25.5 -39t-34 -55.5t-29.5 -52t-13 -31.5z" />
<glyph horiz-adv-x="792" d="M176 1384q16 -4 30.5 -15t31.5 -23q31 -37 72.5 -69t84.5 -32q31 0 60.5 21.5t56.5 50.5l2 -2l29 28q16 16 29.5 27.5t27.5 15.5l-2 31q-10 2 -17.5 7.5t-7.5 11.5h-32q-2 -16 -13.5 -44t-31.5 -51l-2 2q-23 -23 -46.5 -39t-52.5 -16q-35 0 -61.5 20.5t-54.5 47.5 q-4 2 -9 6l-8 4v2h-2v2q-27 39 -31 62h-32q-4 -12 -19 -15z" />
<glyph unicode="&#xd;" horiz-adv-x="1024" />
<glyph horiz-adv-x="1085" d="M25 102q0 -70 60 -87t189 -17h435q145 0 216.5 8t71.5 39q0 37 -57 46t-137 9h-197q-59 0 -113.5 5.5t-95.5 21.5t-64.5 45t-23.5 78q0 63 36 123.5t99 138.5l455 573q53 68 85 122.5t32 103.5q0 35 -15.5 55t-50.5 31.5t-90 14.5t-135 3l-334 -2q-86 0 -146.5 -1t-98 -6 t-54 -16.5t-16.5 -31.5q0 -16 15 -25.5t39 -14.5t49.5 -7t45.5 -2h191q68 0 125 -5.5t99 -21.5t65.5 -50t23.5 -89q0 -41 -31.5 -100.5t-91.5 -135.5l-450 -569q-57 -72 -93 -133.5t-38 -102.5zM328 1712q16 -4 30.5 -15t30.5 -24q31 -37 73 -68.5t85 -31.5q31 0 60.5 21.5 t56.5 50.5l2 -3l28 29q16 16 29.5 27.5t28.5 15.5l-2 31q-10 2 -17.5 7t-7.5 11h-33q-2 -16 -13 -43.5t-32 -50.5l-2 2q-23 -23 -46.5 -39t-51.5 -16q-35 0 -61.5 20.5t-55.5 46.5q-4 2 -8 7q-2 2 -4 3t-4 3q-16 20 -23.5 36.5t-9.5 26.5h-33q-4 -12 -18 -14z" />
<glyph horiz-adv-x="804" d="M37 102q0 -47 32.5 -71.5t86.5 -24.5h24l420 12h80v33q-8 0 -35 1t-61 5q-47 2 -95.5 7.5t-87.5 21.5t-64.5 48t-25.5 89q0 39 18.5 78t49.5 79t70.5 81t80.5 82q39 37 76 74.5t65.5 74.5t47 73t18.5 71q0 45 -39 66.5t-88 21.5h-6l-274 -6q-35 -2 -64.5 -3.5t-52.5 -1.5 q-20 0 -34.5 -1t-24.5 -1h-13q-2 0 -8 -4l14 -30l7 2q4 0 8 -1t12 -1q10 -2 22.5 -3.5t24.5 -3.5q41 -4 84 -11t78 -24.5t56.5 -48t21.5 -81.5q0 -39 -19.5 -79t-51.5 -82t-73 -84t-81 -83q-37 -37 -73 -74t-63.5 -71.5t-45 -67.5t-17.5 -62zM215 1241q16 -4 30.5 -15.5 t30.5 -23.5q31 -37 73 -68.5t85 -31.5q31 0 60.5 21.5t56.5 50.5l2 -3l29 29q16 16 29.5 27.5t27.5 15.5l-2 31q-10 2 -17.5 7t-7.5 11h-32q-2 -16 -13.5 -43.5t-31.5 -50.5l-3 2q-23 -23 -46 -39t-52 -16q-35 0 -61.5 20.5t-55.5 46.5q-4 2 -8 7q-2 2 -5 4t-5 4 q-27 39 -31 61h-32q-4 -12 -19 -14z" />
<glyph unicode=" "  horiz-adv-x="460" />
<glyph unicode="&#x09;" horiz-adv-x="460" />
<glyph unicode="&#xa0;" horiz-adv-x="460" />
<glyph unicode="!" horiz-adv-x="473" d="M172 53q0 -23 17 -38t40 -15q25 0 43.5 14.5t18.5 38.5q0 25 -18.5 43.5t-43.5 18.5q-23 0 -40 -18.5t-17 -43.5zM176 643q0 -29 2 -58.5t8.5 -53t16.5 -39t26 -15.5t26.5 15.5t17 40t9.5 53t3 57.5v617q0 23 -3 48t-9.5 47.5t-16.5 38t-27 15.5q-18 0 -29.5 -15.5 t-16.5 -39t-6 -49t-1 -45.5v-617z" />
<glyph unicode="&#x22;" horiz-adv-x="665" d="M111 1284q0 -25 1 -52.5t4 -50t8 -38t15 -15.5t16.5 14.5t10.5 37t6 50t2 54.5q0 59 -7 95t-24 36q-18 0 -25 -36t-7 -95zM440 1284q0 -25 1 -52.5t4.5 -50t8.5 -38t15 -15.5t16.5 14.5t10.5 37t6 50t2 54.5q0 59 -7.5 95t-23.5 36q-18 0 -25.5 -36t-7.5 -95z" />
<glyph unicode="#" horiz-adv-x="1216" d="M154 440q0 -8 15 -29.5t34 -50.5v2q4 -8 10 -14t10 -14l16.5 -27.5t20.5 -34.5q-16 -25 -24.5 -43t-14.5 -30l10 -23l103 -22q0 29 -9.5 59.5t-25.5 58.5q35 47 83 91.5t112 72.5q74 -37 116 -37q10 0 35 6.5t57 20.5q51 -35 86 -74t56 -78q-16 -23 -24.5 -41t-18.5 -36 l10 -25l100 -22q0 39 -32 120q16 29 33.5 48.5t33.5 35.5h2q16 16 21 19l1 1q1 1 3 1q6 4 14 12h-2q23 16 45.5 32.5t22.5 31.5q0 16 -13.5 35t-31.5 42v2l-4 2q-23 23 -41.5 51.5t-26.5 69.5q6 25 6 52q0 14 -2 24q16 49 50 85t69 65q25 23 41 39t16 22q0 14 -15.5 35.5 t-37.5 46.5l-1 1t-1 -1q-14 16 -29.5 37.5t-32.5 50.5q14 23 31 50.5t29 51.5l-119 33q0 -41 5 -72.5t16 -54.5q-35 -47 -82.5 -93t-100.5 -79q-33 18 -63.5 29.5t-59.5 11.5q-14 0 -37.5 -8t-56.5 -23q-49 33 -85 75t-58 87q14 25 30.5 60.5t30.5 64.5l-121 27 q0 -86 25 -150q-16 -27 -31.5 -49t-27.5 -33q-25 -25 -50 -43q-23 -20 -40 -36.5t-17 -30.5q0 -12 10.5 -28.5t26.5 -33.5l2 -2q2 -2 3 -4t3 -4v2q18 -27 36.5 -55.5t29.5 -69.5q-2 -10 -2 -18v-23v-16t2 -21q-12 -45 -43 -74.5t-62 -58.5l-14 -14v-2l-2 -2h2 q-25 -20 -40 -33.5t-15 -30.5zM360 649q6 27 7 49q0 6 -5 27q18 55 76 106.5t121 88.5q62 -31 117 -31q43 0 98 20q49 -39 85 -86t46 -90q-4 -12 -4 -24v-25v-29q-20 -61 -76.5 -110t-115.5 -82q-63 29 -115 29q-41 0 -96 -19q-47 35 -86 80t-52 96zM1063 1022l1 -1 q1 -1 -1 3v-2z" />
<glyph unicode="$" horiz-adv-x="1071" d="M109 1016q0 -68 23.5 -117t60 -85t79.5 -60.5t82 -42.5h2q10 -6 20 -11l11 -6l12 -6q37 -23 63.5 -49.5t49.5 -52.5h2q33 -47 55 -47q23 0 29 1t10 3q2 0 3 1t3 1q10 4 24.5 8t45.5 4q55 0 94 -19.5t61.5 -50t33 -70.5t10.5 -81q0 -45 -18.5 -79t-47.5 -57.5t-63.5 -34.5 t-67.5 -11q-47 0 -67.5 10t-34.5 20h2q-2 2 -5 4t-6 5h-4q-12 8 -22 8t-17.5 -5.5t-13.5 -11.5q-18 -18 -46 -36.5t-91 -18.5q-47 0 -74.5 7t-48.5 18q-23 12 -39 12q-29 0 -46 -11.5t-17 -31.5q0 -23 22.5 -43.5t55 -35.5t68.5 -26.5t60 -17.5q66 -12 93.5 -31.5 t44.5 -40.5q10 -10 19 -16t30 -6q12 0 23.5 9t25.5 24q23 23 51.5 46t69.5 38q166 59 236.5 151t70.5 191q0 90 -29.5 150t-72.5 98t-89.5 58.5t-78.5 33.5q-33 10 -43 16l-4 2q-25 16 -42.5 36.5t-33.5 43.5q-4 4 -6 8t-6 8v-2q-18 27 -37 46.5t-37 19.5l-2 -2l-7 -1 q-8 -1 -12 -3h2l-26 -7q-14 -4 -28.5 -8t-24.5 -4q-35 0 -70 7t-63.5 30t-47 62.5t-18.5 107.5q0 45 16.5 74.5t42 48t57 27t60.5 8.5q37 0 60.5 -11.5t41.5 -25.5q16 -16 35 -17q12 0 29 17l22 22h-2q23 20 47.5 38t61.5 18q8 0 18.5 -1t20.5 -3q4 0 13 -1.5t20 -1.5 q10 -2 20 -2t16 -4q20 4 34 16.5t14 35.5q0 25 -27 36t-66 21q-4 2 -10 3t-10 3q-20 6 -32 10l-36 13q-33 14 -57.5 35.5t-42.5 39.5l-4 4l-2 2v-2l-2 2q-14 10 -26 20l-11 9l-21 -24h-2q-6 0 -20 -15q-20 -23 -48 -48.5t-67 -47.5h2q-63 -29 -115.5 -57.5t-90 -67.5 t-59 -93t-21.5 -130zM561 195l6 -2h-2h-2q0 2 -2 2z" />
<glyph unicode="%" horiz-adv-x="1798" d="M119 1067q0 -61 25.5 -113.5t67.5 -92.5t97.5 -62.5t114.5 -22.5q63 0 120.5 21.5t100.5 59.5t68.5 91t25.5 119q0 68 -23.5 128t-66.5 105.5t-100 72t-125 26.5q-66 0 -122 -26.5t-97 -73t-63.5 -106.5t-22.5 -126zM170 1067q0 55 19.5 105.5t53 89t80 61.5t101.5 23 q51 0 99 -23t84 -60.5t57.5 -89t21.5 -106.5q0 -49 -20.5 -93t-56.5 -77t-83 -51.5t-102 -18.5q-51 0 -97 18.5t-81 51.5t-55.5 77t-20.5 93zM522 51l19 -18h32q0 8 8.5 25.5t19.5 38t23.5 41t22.5 36.5l2 4q2 4 5 10.5t3 10.5t-4 4l-4 2l15 -2l538 956l10 21q20 37 41 83 t21 68q0 8 -4 12l6 -2q-16 16 -16 19l-33 2q-2 -14 -16.5 -43t-34.5 -64q-6 -12 -13.5 -25.5t-13.5 -25.5l-557 -997q-4 -8 -15.5 -28.5t-22.5 -43t-19.5 -44t-8.5 -34.5q0 -6 2 -8zM1057 287q0 -59 24.5 -113.5t66.5 -96.5t97 -67.5t119 -25.5q63 0 119.5 22.5t99.5 63.5 t67.5 97t24.5 124q0 47 -19.5 102.5t-58 102.5t-96 78.5t-131.5 31.5q-70 0 -127 -23.5t-99 -66.5t-64.5 -101.5t-22.5 -127.5zM1108 274q0 119 67.5 199t186.5 80q55 0 103 -19.5t84 -54.5t55.5 -83t19.5 -103q0 -111 -66.5 -184.5t-195.5 -73.5q-57 0 -104.5 21.5t-80 56 t-51 76.5t-18.5 85z" />
<glyph unicode="&#x26;" horiz-adv-x="1183" d="M2 305q0 -70 32 -132t88 -110.5t136 -77t176 -28.5q115 0 180.5 25.5t114.5 54.5q39 23 74 38t82 15q53 0 82.5 -13.5t56.5 -27.5q23 -14 46.5 -24.5t53.5 -10.5v11h33q0 14 -10 30.5t-25 34.5v2q-27 35 -50 80t-23 115q0 86 28.5 140t57.5 93v-2q14 20 22 34.5t8 18.5 q0 14 -6 29.5t-14 15.5q-29 0 -51.5 -16t-44.5 -39q-33 -31 -72 -57.5t-100 -26.5q-51 0 -92.5 22.5t-70 57.5t-44 77t-15.5 83q0 72 31 117t72 88q39 41 72.5 91t33.5 128q0 74 -27.5 127t-75.5 87t-109.5 50t-129.5 16q-70 0 -135 -17.5t-115.5 -53t-81 -92t-30.5 -132.5 q0 -66 11 -99.5t28 -61.5q18 -33 30.5 -70t12.5 -96q0 -68 -31 -111t-74 -84q-25 -23 -48 -49.5t-42.5 -60t-32 -79.5t-12.5 -110zM154 336q0 76 24.5 130t59 89t75.5 50.5t72 15.5q53 0 114.5 -33t114 -84t86 -110.5t33.5 -114.5q0 -43 -19.5 -85t-55 -75t-86 -53.5 t-113.5 -20.5q-80 0 -137.5 27.5t-94.5 70.5t-55 94.5t-18 98.5zM293 1098q0 55 19.5 97t51 69.5t70.5 42t80 14.5q63 0 104 -18.5t66 -49t35 -69.5t10 -78q0 -57 -17.5 -100t-47 -73t-68.5 -45.5t-82 -15.5q-49 0 -90 19.5t-70.5 51.5t-45 73t-15.5 82z" />
<glyph unicode="'" horiz-adv-x="399" d="M168 1178q0 -23 7 -40.5t18 -17.5q14 0 21 17.5t7 40.5v174q0 31 -7 47t-17 16q-29 0 -29 -63v-174z" />
<glyph unicode="(" horiz-adv-x="604" d="M164 649q0 -123 19.5 -245.5t49 -228t66.5 -188.5t74 -128h-11q29 -29 50 -35q4 -4 8 -6v26q0 12 -10.5 39t-26.5 64q-23 49 -50.5 114.5t-51 153.5t-40 198.5t-16.5 250.5q0 92 17.5 184t42 175t53.5 152.5t51 120.5q12 25 19.5 44.5t11.5 29.5h-4v2h-2v33q-10 0 -13 -4 q-35 -12 -76.5 -90t-77.5 -188.5t-59.5 -236.5t-23.5 -237zM422 1374l2 2v2l-1 -1t-1 -3z" />
<glyph unicode=")" horiz-adv-x="655" d="M133 -164q27 2 59.5 37t65.5 94.5t62.5 136t53 159.5t38 169t14.5 162q0 147 -24.5 292.5t-61.5 261.5t-80 190.5t-80 82.5q-4 2 -8 2l-16 -16q0 -12 2 -15t12 -3q4 -23 29 -74h-2v-2h2v2q2 0 2 -2q23 -49 51.5 -117t53 -158t42 -203.5t17.5 -254.5q0 -94 -17.5 -186.5 t-44.5 -175.5t-55.5 -152.5t-50.5 -120.5q-16 -35 -24.5 -57.5t-8.5 -24.5q0 2 -10.5 -7.5t-20.5 -19.5z" />
<glyph unicode="*" horiz-adv-x="815" d="M156 1130q0 -27 7 -39t17 -22l2 -2q2 -2 3 -4t3 -4l-2 2q10 -16 20.5 -32.5t20.5 -45.5l2 -6q2 -10 3 -23.5t1 -29.5q0 -14 -5 -30.5t-40 -39.5q35 0 53.5 1t28.5 5q4 0 5 1t6 1q16 4 40.5 9.5t55.5 5.5q29 0 52.5 -5.5t43.5 -11.5h-2l18 -6h3v-2h2t2 2q6 -4 17 -6t46 -2 q-23 23 -26 35t-3 22v17q0 4 1 7t1 7q2 14 3 27q0 14 6 32l-2 -4l-2 -2q12 31 34 62q6 6 9 10l4 4q8 10 15 25.5t11 37.5l-28 9q-4 0 -7.5 2t-9.5 6q-4 2 -6 2l-4 2q-6 4 -12 7t-11 5v-2q-39 14 -59 35q-10 10 -19.5 20.5t-19.5 20.5q-16 16 -20 22.5t-19 22.5l-12 6 q-8 0 -23.5 -17.5t-31.5 -37.5v-4q-31 -37 -56 -51q-8 -4 -20 -9.5t-29 -9.5q-23 -12 -41 -12q6 -4 6 -13h-32z" />
<glyph unicode="+" horiz-adv-x="1150" d="M127 612q0 -23 20 -22q20 0 54 -4q2 0 6 -1t8 -1q57 -4 122.5 -17.5t123.5 -70.5q47 -47 60.5 -109.5t17.5 -122.5q4 -43 10 -72.5t33 -29.5q4 29 5 47t5 55q4 59 17.5 120.5t58.5 107.5q57 57 124.5 71.5t127.5 18.5q31 4 47 4t41 2q0 33 -33 40t-80 11 q-55 4 -111.5 14.5t-97.5 51.5q-57 57 -72.5 125.5t-21.5 130.5q-4 37 -8 63.5t-21 34.5l-20 -25q2 -2 2 -6q0 -8 -1 -22.5t-3 -32.5q-6 -63 -22.5 -135t-76.5 -131q-49 -49 -110.5 -59.5t-114.5 -12.5q-8 0 -16 -1t-15 -1q-27 -2 -43 -11z" />
<glyph unicode="," horiz-adv-x="374" d="M100 -147q0 -33 23 -33q27 0 49.5 38t37.5 86t24.5 93t9.5 61q0 53 -31 54q-29 0 -50.5 -37t-34.5 -86t-20.5 -99.5t-7.5 -76.5z" />
<glyph unicode="-" horiz-adv-x="1130" d="M133 606q0 -18 35 -25.5t76 -7.5h651q43 0 79 8.5t36 24.5q0 23 -36 33t-79 10h-651q-43 0 -77 -11t-34 -32z" />
<glyph unicode="." horiz-adv-x="370" d="M106 53q0 -23 17.5 -40t40.5 -17t42 17t19 40q0 25 -19.5 44.5t-41.5 19.5q-27 0 -42.5 -19.5t-15.5 -44.5z" />
<glyph unicode="/" horiz-adv-x="571" d="M-2 59q0 -20 10 -22q8 -6 19 -6q16 0 18 7t2 17v19l2 4l475 1175q16 39 23.5 63.5t7.5 31.5q0 18 -12 18q-16 8 -21 8q-14 0 -16 -2t-2 -18q-1 -33 -19 -82l-469 -1149q-18 -43 -18 -64z" />
<glyph unicode="0" horiz-adv-x="1198" d="M84 684q0 -186 37 -319.5t102.5 -219.5t156.5 -125.5t202 -39.5q109 0 202 38.5t161.5 123.5t107.5 218.5t39 323.5q0 154 -27 290t-86 238.5t-156.5 162t-240.5 59.5q-135 0 -229.5 -57.5t-154 -158t-87 -237.5t-27.5 -297zM197 684q0 109 16 222.5t59 206.5t118 152.5 t192 59.5q113 0 188.5 -59.5t122.5 -152.5t67.5 -206.5t20.5 -222.5q0 -111 -20.5 -218.5t-67.5 -191.5t-123 -136t-188 -52q-106 0 -179 48t-119 130t-66.5 190.5t-20.5 229.5z" />
<glyph unicode="1" horiz-adv-x="763" d="M27 1108l32 -2q0 -12 -4 -12q10 0 29.5 7t48.5 17v-2q31 10 64.5 20.5t62.5 10.5q96 0 127 -76t31 -229v-668q0 -31 2 -61.5t8 -55t18.5 -41t32.5 -16.5q18 0 29.5 17.5t17.5 43t9.5 56t3.5 57.5v1081q0 66 -23.5 113t-71.5 47q-33 0 -76.5 -18.5t-90 -47t-90.5 -64.5 t-78.5 -69.5t-57 -63.5t-24.5 -44z" />
<glyph unicode="2" horiz-adv-x="1013" d="M72 104q0 -57 39 -80.5t82 -23.5h534q66 0 114 7t48 36q0 25 -45 32t-107 7h-73q-55 0 -107.5 4t-94.5 19.5t-66.5 43t-24.5 74.5q0 43 19.5 83t52 80t75.5 81t90 84q57 51 115.5 108.5t107 120t79 132t30.5 149.5q0 180 -114.5 276.5t-307.5 96.5q-98 0 -168.5 -26 t-117 -61.5t-68 -72.5t-21.5 -62q0 -23 9.5 -35t35.5 -12q23 0 46.5 15.5t50.5 33.5l-2 -2q4 2 4 5q0 2 4 4q41 33 93 65.5t140 32.5q70 0 123 -24.5t88 -62.5t52.5 -83t17.5 -88q0 -74 -45 -154t-108.5 -155.5t-133 -141t-119.5 -108.5v-2q-29 -23 -39 -31l-10 -8 q-16 -16 -31.5 -32.5t-33.5 -33.5q-37 -35 -75 -71.5t-68.5 -73.5t-50 -75t-19.5 -71z" />
<glyph unicode="3" horiz-adv-x="968" d="M61 164q0 -31 29 -63.5t80 -59.5t120.5 -43t151.5 -16t161 25.5t138.5 73.5t96 114.5t36.5 148.5q0 98 -28.5 151.5t-61.5 90.5q-29 35 -49 68.5t-20 90.5q0 55 18.5 95.5t42.5 79.5q23 35 42.5 78.5t19.5 121.5q0 57 -28 113.5t-80 99.5t-125 70t-165 27 q-78 0 -141 -14.5t-108.5 -37t-70 -50.5t-24.5 -56q0 -18 9.5 -29.5t35.5 -11.5q39 0 63.5 12t49.5 29q35 23 77 43t113 20q53 0 102.5 -18.5t87.5 -53t60.5 -84t22.5 -108.5q0 -72 -19.5 -118t-49.5 -74.5t-66.5 -45t-73.5 -28.5h-2q-35 -12 -61.5 -26.5t-26.5 -43.5 q0 -18 26.5 -32.5t67.5 -29t84 -33.5t78 -51t57.5 -83t22.5 -129q0 -49 -18.5 -101.5t-56.5 -95.5t-95.5 -71.5t-134.5 -28.5q-47 0 -83 8t-64 20.5t-49.5 28t-39.5 29.5q-25 18 -48.5 32.5t-55.5 14.5q-23 0 -35.5 -10t-12.5 -39z" />
<glyph unicode="4" horiz-adv-x="1075" d="M47 420q0 -53 59.5 -65.5t153.5 -12.5h121q86 0 140 -19.5t104 -68.5q33 -33 45 -72t22 -76v-2q10 -37 20.5 -64.5t39.5 -27.5t40 31t21 70l-2 -2q2 4 3 8t3 8q8 35 18.5 66.5t30.5 48.5q16 16 28.5 27.5t27.5 21.5l2 2q2 0 4 2h-2q31 25 54.5 49.5t23.5 42.5 q0 25 -15.5 40t-36.5 28q-25 14 -49 34.5t-45.5 54.5t-35 85t-13.5 129v452q0 98 -16.5 145.5t-77.5 47.5q-59 0 -96 -28.5t-72 -86.5l-406 -655l-10 -15q0 -4 -12 -20v2q-23 -31 -47.5 -75t-24.5 -105zM260 600q0 51 32 122t77 134.5t94 107.5t82 44q86 0 116.5 -74 t30.5 -203q0 -57 -10 -108.5t-35.5 -91t-68.5 -63.5t-111 -24q-53 0 -92 13.5t-64.5 36t-38 50t-12.5 56.5z" />
<glyph unicode="5" horiz-adv-x="980" d="M78 150q0 -18 21.5 -49t63.5 -59t106.5 -48.5t150.5 -20.5q119 0 209 38t150.5 102.5t91 151.5t30.5 186q0 66 -24.5 139.5t-76.5 135.5t-134 103t-197 41q-31 0 -70 10.5t-73.5 38t-58 72.5t-23.5 117q0 25 9 62.5t42 71.5t97.5 58.5t176.5 24.5h39q102 0 144.5 7 t42.5 30q0 12 -18.5 20.5t-47.5 13.5t-67.5 7t-77.5 2h-166q-113 0 -175.5 -6t-92.5 -37q-23 -23 -29 -70t-6 -127v-254q0 -86 28.5 -110.5t81.5 -24.5h113q227 0 333.5 -101.5t106.5 -281.5q0 -57 -23.5 -113.5t-68.5 -100.5t-107.5 -70.5t-140.5 -26.5q-72 0 -119 21.5 t-83 43.5v3q-2 2 -5.5 3t-5.5 3q-27 16 -49 28.5t-47 12.5t-38 -9.5t-13 -37.5z" />
<glyph unicode="6" horiz-adv-x="1062" d="M74 426q0 -102 31.5 -184t92 -139.5t147.5 -89t196 -31.5q104 0 189 33.5t145.5 93t94.5 139.5t34 174q0 68 -11.5 119t-30 89t-40 65.5t-41.5 47.5q-45 45 -99.5 65.5t-101.5 37.5q-37 10 -67.5 21.5t-53 29.5t-35 47t-12.5 74q0 66 28.5 120t63.5 101q23 35 40.5 63.5 t17.5 55.5q0 33 -27 33q-45 0 -88 -42t-84 -106l-166 -264v-2l-10 -14q-4 -4 -5 -9.5t-6 -9.5q-39 -61 -74.5 -121.5t-64 -124t-46 -131t-17.5 -141.5zM203 442q0 55 25.5 115.5t71.5 111t109.5 82t141.5 31.5q39 0 96.5 -18.5t110.5 -59t90 -108.5t37 -168q0 -68 -27 -130 t-73 -108.5t-107.5 -74t-132.5 -27.5q-72 0 -134.5 28.5t-108.5 77t-72.5 112.5t-26.5 136z" />
<glyph unicode="7" horiz-adv-x="925" d="M37 1360q0 -18 13 -27.5t33.5 -14.5t45.5 -6t49 -1h246q51 0 96 -10.5t78 -34t51.5 -60.5t18.5 -90q0 -47 -25 -106.5t-49 -108.5l-365 -749l-10 -15l2 2q0 -2 -2 -2v-2v2q-8 -8 -8 -12q0 -2 2 -2l6 12l19 -16q-20 0 -25 2q-20 -37 -20 -62q0 -23 5 -41t27 -18 q41 0 67.5 26.5t59.5 94.5l418 880q41 90 75 169t34 145q0 57 -49.5 78.5t-110.5 21.5h-504q-20 0 -50 -2t-58.5 -7t-49 -16.5t-20.5 -29.5z" />
<glyph unicode="8" horiz-adv-x="1024" d="M57 350q0 -76 29 -143.5t84 -117.5t136 -79.5t188 -29.5q113 0 195.5 33.5t136 88t79 120t25.5 128.5q0 94 -31 150.5t-65 97.5q-29 35 -48.5 67.5t-19.5 77.5q0 53 14.5 92t36.5 76q20 39 40 85t20 124v4q0 90 -40 148.5t-98.5 93.5t-126 49.5t-120.5 14.5 q-61 0 -131 -16.5t-127.5 -55.5t-95.5 -104.5t-38 -166.5q0 -53 14.5 -83.5t32.5 -59.5q23 -37 43.5 -81t20.5 -128q0 -45 -19.5 -81t-48.5 -72q-31 -43 -58.5 -96.5t-27.5 -135.5zM176 403q0 72 24.5 129.5t67.5 97.5t101.5 61.5t124.5 21.5q76 0 135 -24.5t99 -65.5 t60.5 -97.5t20.5 -119.5q0 -49 -18.5 -104.5t-56.5 -102.5t-95 -78t-135 -31q-82 0 -143.5 25.5t-102.5 69.5t-61.5 100.5t-20.5 117.5zM219 1075q0 49 20.5 98.5t56.5 89.5t84 65.5t105 25.5q63 0 113.5 -23.5t85.5 -62.5t54.5 -91.5t19.5 -107.5q0 -68 -26.5 -118 t-66.5 -82.5t-87.5 -49t-85.5 -16.5q-45 0 -93.5 17.5t-88.5 51t-65.5 84.5t-25.5 119z" />
<glyph unicode="9" horiz-adv-x="1028" d="M45 985q0 -98 30.5 -175t71.5 -118q31 -31 58.5 -50t51.5 -30.5t44.5 -17.5t40.5 -10q37 -8 73 -22.5t83 -61.5q20 -16 32.5 -44t12.5 -55q0 -53 -29 -108t-61 -107q-27 -41 -45.5 -75.5t-18.5 -57.5q0 -31 31 -30q31 0 64.5 29.5t67.5 72.5t63.5 92t52.5 88q4 4 6 10.5 t6 10.5l10 20q8 12 16.5 25.5t18.5 27.5q6 10 12 17.5t13 17.5q37 53 76.5 116.5t74.5 132.5t57.5 143.5t22.5 150.5q0 98 -31.5 181t-92 144.5t-146.5 96.5t-193 35q-74 0 -156.5 -22.5t-153.5 -75t-117 -138.5t-46 -213zM162 987q0 61 26.5 121.5t71.5 110t106.5 79 t133.5 29.5q74 0 136 -30.5t108.5 -79t72 -108.5t25.5 -122q0 -59 -23.5 -121.5t-68.5 -114t-111 -85t-147 -33.5q-63 0 -123 26.5t-106 74.5t-73.5 112.5t-27.5 140.5z" />
<glyph unicode=":" horiz-adv-x="509" d="M188 121q0 -18 16.5 -33.5t43.5 -15.5q29 0 43 17.5t14 31.5q0 18 -13 41.5t-44 23.5q-29 0 -44.5 -20.5t-15.5 -44.5zM188 821q0 -18 16.5 -33.5t43.5 -15.5q29 0 43 17.5t14 31.5q0 18 -13 42t-44 24q-29 0 -44.5 -20.5t-15.5 -45.5z" />
<glyph unicode=";" horiz-adv-x="528" d="M96 -213q37 2 68 39t52.5 84t33.5 90t12 59q0 35 -6 44.5t-16 9.5q-29 0 -50.5 -35t-35 -83t-20.5 -96.5t-7 -72.5q0 -4 -4 -10t-27 -29zM170 813q0 -16 17.5 -32.5t39.5 -16.5q29 0 44.5 15.5t15.5 33.5q0 23 -13.5 44.5t-46.5 21.5q-29 0 -43 -20.5t-14 -45.5z" />
<glyph unicode="&#x3c;" horiz-adv-x="1067" d="M102 575q0 -20 24 -40.5t59.5 -39t79.5 -37t85 -32.5h-2q6 -4 16.5 -7t16.5 -7q23 -8 43 -15.5t37 -13.5q115 -55 190.5 -91t124.5 -57.5t79 -31.5t52 -15q0 -4 4 -4q-2 0 -2 4q12 -2 25 -2h27l-9.5 9.5l-9.5 9.5v14h-16q-14 10 -30.5 22.5t-37.5 24.5h-2 q-18 10 -47 22.5t-68 28.5q-53 20 -111.5 46t-107.5 58t-80.5 71.5t-31.5 91.5q0 51 23.5 88t63.5 66.5t93 55t112 50.5q41 16 83 34.5t73 34.5q18 10 31.5 19.5t28.5 21.5h22l6 27h-2q4 4 6 8h-10v4l-31 4q-2 -4 -2 -6t-4 -6q-29 -4 -61.5 -14t-82.5 -33t-128 -61.5 t-199 -98.5q-23 -10 -47.5 -18t-46.5 -17q-45 -16 -88 -33.5t-76 -37t-52.5 -43t-19.5 -54.5z" />
<glyph unicode="=" horiz-adv-x="1058" d="M109 340q0 -16 34.5 -24.5t75.5 -8.5h627q43 0 79 8.5t36 24.5q0 23 -37 34t-78 11h-627q-43 0 -76.5 -11.5t-33.5 -33.5zM109 780q0 -18 34.5 -25t75.5 -7h627q43 0 79 8t36 24q0 23 -37 34t-78 11h-627q-43 0 -76.5 -11t-33.5 -34z" />
<glyph unicode="&#x3e;" horiz-adv-x="1064" d="M94 190q29 0 54.5 4.5t73.5 24t133 59t233 111.5q20 6 43 17q8 4 19.5 7t21.5 7q43 14 90 32.5t88 39t67.5 43t26.5 45.5q0 31 -19.5 54t-52 42.5t-75.5 37t-88 34.5q-23 6 -46.5 14t-44.5 18q-121 59 -198.5 98.5t-129.5 63t-85 33.5t-62 14q-2 2 -2 6l-32 4 q-2 -2 -3 -4q0 -2 3 -2h-11q8 -12 15 -18v-17h16q12 -12 27.5 -21t31.5 -19q31 -16 73 -35t83 -35q59 -25 112.5 -50.5t93.5 -55t63.5 -66.5t23.5 -88q0 -49 -32 -89t-81 -72t-107.5 -57.5t-113.5 -47.5h-2q-8 -4 -16.5 -7.5t-16.5 -7.5q-23 -10 -45 -20.5t-37 -16.5 q-18 -10 -32.5 -22t-28.5 -25h-21v-22q-4 -4 -6 -5t-4 -6z" />
<glyph unicode="?" horiz-adv-x="966" d="M59 1200q0 -29 11.5 -39t25.5 -10q35 0 60.5 18.5t50.5 40.5q37 35 84 66t123 31q74 0 123 -26t78.5 -64.5t42 -81.5t12.5 -80q0 -49 -14.5 -91t-38 -81t-53 -74t-60.5 -68q-47 -51 -84 -100t-37 -100q0 -27 7 -47.5t28 -20.5q27 0 44 27.5t38 68.5q16 35 38.5 74 t61.5 76l6 6q2 2 6 5t9 7v2q25 23 57.5 57.5t62 80t50 101.5t20.5 124q0 72 -30.5 131t-83 101t-124 65.5t-151.5 23.5q-90 0 -157.5 -26.5t-113 -63.5t-69 -74.5t-23.5 -58.5zM352 61q0 -23 12.5 -39t41.5 -16t46 16.5t17 38.5q0 23 -16.5 41.5t-46.5 18.5 q-27 0 -40.5 -18.5t-13.5 -41.5z" />
<glyph unicode="@" horiz-adv-x="1843" d="M176 674q0 -172 52.5 -320.5t150.5 -258t239.5 -172t317.5 -62.5q33 -2 53 -2h37q25 0 35 2t10 18l-2 4l-4 8q-2 27 -19.5 41.5t-37.5 14.5h-47q-152 0 -264.5 34.5t-194.5 93t-135.5 134.5t-84 156.5t-43 162.5t-12.5 152q0 53 11.5 127t41 154.5t82 159.5t134.5 142.5 t197.5 102.5t271.5 39q76 0 123 -7t74.5 -17.5t43 -22.5t25.5 -25q6 -10 33 -26l4 -2l24 -7q27 0 84.5 -23.5t114.5 -78.5t100 -147.5t43 -229.5v-4q-2 -113 -12 -188.5t-20 -79.5l6 -27q10 0 12 -2t4 -6l33 2q0 2 4 23q0 4 4 12v2q10 41 21.5 106.5t11.5 153.5 q0 125 -38 223.5t-100.5 173t-141.5 126.5t-160.5 85t-160.5 47.5t-141 14.5q-117 0 -219 -11.5t-188 -58.5q-100 -55 -171 -138t-116 -180.5t-65.5 -205t-20.5 -213.5zM526 567q0 -39 9.5 -91t35 -98t71.5 -79t122 -33h33q16 0 32 4q29 -8 60 -10t65 -2q35 0 103 61 q31 -6 55.5 -13t44.5 -13q2 0 4 -1t4 -1t3 -1t3 -1h-6q29 -10 64 -19.5t86 -9.5h43q23 0 39 -2l4 33q-102 10 -137 88t-35 205q0 59 9 107t22 93q10 37 17 75t7 87q0 47 -27.5 60.5t-74.5 13.5h-64h-45q-19 0 -35 4q-55 33 -114 33q-63 0 -115 -25v2q-70 -18 -122 -61 t-88 -105.5t-54.5 -139.5t-18.5 -161zM608 641q0 145 61.5 235.5t147.5 124.5q41 10 78 11q31 0 57.5 -4t53.5 -9h-5q4 -2 21 -6q41 -25 73.5 -62.5t55.5 -83.5t35 -95.5t12 -96.5q0 -31 -13.5 -67.5t-35 -76.5t-50 -80t-57.5 -75q-10 0 -19 1t-17 1h-2q-37 0 -64 -10 t-51 -20q-2 -2 -4 -2h-2l-9 -4q-8 -4 -15 -8.5t-25 -8.5q-66 18 -109 54t-68.5 82t-37 97.5t-11.5 102.5zM1401 258h24v33h-24v-33z" />
<glyph unicode="A" horiz-adv-x="1280" d="M-4 49q0 -47 53 -47q29 0 57.5 45t55.5 94q14 29 30.5 55.5t32.5 43.5l2 2q33 33 65 52t68.5 28.5t82.5 11.5t110 2h139q55 0 98.5 -3t80 -12.5t67.5 -27t61 -47.5q29 -29 48.5 -60.5t35.5 -62.5q25 -47 52.5 -85t76.5 -38q27 0 34 15.5t7 23.5v2q0 23 -14 66t-34.5 95 t-44 106t-44.5 102q-2 4 -2 6t-2 6v-2l-20 41v4l-246 563q-8 16 -13.5 30.5t-11.5 31.5q-4 6 -7 18t-7 18v-2q-23 55 -42.5 99.5t-41 77t-46 50t-56.5 17.5q-57 0 -94.5 -64.5t-77.5 -164.5l-13 -31q-4 -12 -10 -25.5t-10 -25.5l-250 -570v2q-2 -4 -4 -9t-4 -9l2 2l-13 -27 q-18 -43 -44.5 -100t-50 -113.5t-40 -106.5t-16.5 -77zM365 618q0 16 8 54.5t24.5 86.5t39 100t50 95t59.5 71t66 28q37 0 71 -28t61.5 -70t50 -92t38 -97t23.5 -85t8 -52q0 -96 -55 -154.5t-193 -58.5q-119 0 -185 48t-66 154z" />
<glyph unicode="B" horiz-adv-x="1140" d="M92 238q0 -82 11.5 -129.5t32 -71t51 -29.5t69.5 -6h209q78 0 155.5 6t145.5 20.5t121 36t84 52.5l10 10h-2l29.5 29.5t33 45t25.5 66.5t10 94q0 47 -10 84t-26.5 67t-36 52.5t-37.5 42.5q-33 35 -56.5 67t-23.5 79q0 72 19.5 108.5t45.5 69.5q23 29 41.5 65.5 t18.5 108.5q0 94 -38 154.5t-103.5 94.5t-151.5 46t-180 12h-281q-90 0 -128 -40t-38 -124v-1011zM227 399q0 86 19.5 141.5t58.5 89.5t97.5 47t136.5 13q127 0 205.5 -29.5t122.5 -74.5t59.5 -95.5t15.5 -93.5q0 -90 -39 -150.5t-99.5 -96t-136 -50t-149.5 -14.5 q-82 0 -137 19.5t-89 57.5t-49.5 97t-15.5 139zM227 1053v6q0 78 22.5 129t60.5 81.5t87 43t103 12.5q113 0 185.5 -27.5t114.5 -68.5t57 -89t15 -89q0 -57 -20.5 -107.5t-65.5 -87.5t-116.5 -58.5t-171.5 -21.5q-59 0 -108.5 14.5t-85.5 46t-56.5 85t-20.5 131.5z" />
<glyph unicode="C" horiz-adv-x="1239" d="M53 686q0 -111 39 -236.5t126 -232t226.5 -176.5t339.5 -70q106 0 184.5 17.5t128.5 41t74.5 50t24.5 45.5q0 23 -10 40t-39 17t-51.5 -9t-46.5 -23q-4 -2 -7.5 -3.5t-7.5 -3.5q-45 -23 -103.5 -46t-152.5 -23q-135 0 -242.5 55t-183.5 146.5t-116.5 205t-40.5 230.5 q0 143 50 261t132 199.5t188.5 126.5t218.5 45q82 0 133.5 -17t92.5 -34q25 -12 47 -20t45 -8q51 0 51 47q0 23 -26.5 46t-76 43t-118 32t-150.5 12q-158 0 -291 -50.5t-230 -147.5t-152.5 -238.5t-55.5 -321.5z" />
<glyph unicode="D" horiz-adv-x="1366" d="M76 207q0 -96 27.5 -151.5t123.5 -55.5h248q94 0 182 9t170 35t160 72t152 120q33 33 63.5 76.5t55 102t40 133.5t15.5 167q0 168 -44 284.5t-134 206.5q-63 63 -137 104.5t-154 64t-163 31.5t-167 9h-270q-55 0 -88 -14.5t-51.5 -38t-23.5 -55t-5 -66.5v-1034zM203 422 v541q0 84 11 148.5t42 108.5t86 66.5t145 22.5h7q143 0 268 -33t217 -104.5t144.5 -185.5t52.5 -275q0 -154 -56.5 -268.5t-149.5 -189.5t-217 -112t-259 -37q-88 0 -144.5 19.5t-89.5 59.5t-45 99.5t-12 139.5z" />
<glyph unicode="E" horiz-adv-x="999" d="M84 213q0 -74 6 -114t28.5 -62.5t70 -27.5t133.5 -5h413q104 0 161.5 7t57.5 34q0 35 -56 47t-148 12h-232q-61 0 -116.5 10.5t-95.5 40t-63.5 82t-23.5 136.5q0 104 20.5 163.5t59.5 89t94.5 37t122.5 7.5h170q76 0 132 7t56 38q0 35 -50 44t-138 9h-154q-59 0 -114.5 6 t-98.5 30.5t-69.5 74t-26.5 133.5q0 94 23.5 147t64.5 81t99.5 35t130.5 7h133q104 0 174 8t70 43q0 29 -39 40t-121 11h-475q-63 0 -102.5 -6t-59.5 -24q-27 -27 -32 -81t-5 -136v-924z" />
<glyph unicode="F" horiz-adv-x="940" d="M115 154q0 -82 16 -117t45 -35q37 0 52.5 38t15.5 116v123q0 111 19.5 175t60.5 105q45 45 128 55.5t205 10.5h54q25 0 53.5 2t52 7t38.5 15t15 27q0 31 -51 39t-112 8h-125q-106 0 -167 19.5t-104 62.5q-47 47 -56 104.5t-9 108.5q0 92 28.5 145.5t73.5 80t101.5 33.5 t109.5 7h178q33 0 65 2t56.5 7t39.5 14.5t15 25.5q0 33 -48 42t-136 9h-438q-45 0 -78 -6t-54.5 -24.5t-32.5 -52t-11 -87.5v-1060z" />
<glyph unicode="G" horiz-adv-x="1404" d="M25 709q0 -150 35.5 -263.5t96 -196.5t137.5 -138.5t160 -88t164.5 -47t149.5 -14.5q70 0 146.5 7t148.5 22.5t131 39t90 54.5v4q51 53 51 188v285q0 68 -15 108t-40 59.5t-55.5 25.5t-63.5 6q-39 0 -80 -2t-73.5 -7.5t-54 -13.5t-21.5 -20q0 -25 21.5 -37t52.5 -23 q33 -10 66.5 -25.5t61 -45t45 -78.5t17.5 -127v-6q0 -47 -14.5 -101.5t-59.5 -101.5t-126 -78t-214 -31t-245.5 49.5t-195.5 136.5t-129 203.5t-46 252.5q0 152 50 269.5t133 199t190.5 123.5t222.5 42q53 0 93 -4t70.5 -11t53 -16.5t43.5 -17.5q23 -10 46.5 -17t55.5 -7h4 q25 0 44.5 7t19.5 30q0 43 -41 70.5t-103.5 45t-136 24.5t-137.5 7q-164 0 -301 -54.5t-237.5 -152.5t-155.5 -234.5t-55 -299.5z" />
<glyph unicode="H" horiz-adv-x="1318" d="M90 195q0 -39 2 -73t9.5 -59.5t19.5 -41t33 -15.5q37 0 51 58.5t14 150.5v100q0 82 10.5 148.5t41 114t87 74t150.5 26.5h305q86 0 140.5 -22.5t85 -64.5t41 -103.5t10.5 -139.5v-133q0 -125 15 -168t50 -43t49.5 51t14.5 156v1022q0 68 -12.5 117t-53.5 49 q-23 0 -36 -19.5t-19 -50.5t-7 -70.5t-1 -82.5q0 -76 -6.5 -147t-33 -126t-77.5 -88t-139 -33h-336q-92 0 -146.5 32t-84 85t-39 122.5t-9.5 145.5q0 35 -2 75t-9 74t-20.5 56.5t-33.5 22.5q-41 0 -52.5 -55.5t-11.5 -143.5v-1001z" />
<glyph unicode="I" horiz-adv-x="462" d="M152 174q0 -78 11 -126t54 -48q23 0 35 14.5t18 38t7.5 55t1.5 66.5v1081q0 23 -2.5 48.5t-8.5 47t-19 36t-34 14.5q-23 0 -36 -14.5t-19 -37t-7 -48t-1 -46.5v-1081z" />
<glyph unicode="J" horiz-adv-x="847" d="M43 133q0 -35 27.5 -64.5t70.5 -51t94.5 -33t98.5 -11.5q92 0 165.5 29t126 81t81 128t28.5 168v864q0 18 -3 42t-10 45.5t-18.5 36.5t-27.5 15q-25 0 -38 -15t-19.5 -36.5t-7.5 -46t-1 -41.5v-749q0 -18 -2 -55.5t-10 -82.5t-24.5 -91t-46 -84t-74.5 -62.5t-109 -24.5 q-74 0 -110.5 16.5t-65.5 36.5q-16 10 -34.5 20.5t-55.5 10.5h-6q-10 0 -19.5 -11t-9.5 -34z" />
<glyph unicode="K" horiz-adv-x="1153" d="M100 133q0 -59 15.5 -96t46.5 -37q35 0 47 41t12 84q0 137 6 228t22.5 146.5t44.5 78t71 22.5t78.5 -16.5t67.5 -42t60.5 -60.5t59.5 -71l-2 2q4 -4 7 -10.5t7 -10.5q37 -47 68 -78q29 -29 51 -53t41 -47q35 -41 70.5 -81t71.5 -73.5t70 -54t62 -20.5q20 0 36.5 2 t16.5 16q0 29 -26.5 63.5t-54.5 69.5l-2 2q0 2 -3 4h-4q-47 55 -93 107.5t-93 99.5v-2q-53 57 -101 108.5t-84 97.5t-56.5 87t-20.5 78q0 78 41 137t90 111l-4 -2l12 8l29 28v2q35 33 87 83.5t100 99.5t82 87t34 50q0 20 -10.5 25.5t-14.5 5.5q-31 0 -65.5 -19.5 t-71.5 -50.5t-75 -71t-76 -81q-23 -25 -47.5 -48t-47.5 -46l-69.5 -69.5t-70.5 -63.5t-70.5 -47t-67.5 -18q-53 0 -84 28.5t-46.5 73.5t-18.5 100.5t-3 108.5q0 80 -11.5 136t-61.5 56q-16 0 -26.5 -14t-16 -35.5t-7.5 -46t-2 -43.5v-1069z" />
<glyph unicode="L" horiz-adv-x="864" d="M127 180q0 -35 7 -66.5t23.5 -57t46 -41t77.5 -15.5h419q72 0 113 11.5t41 41.5q0 31 -41 43.5t-113 12.5h-129q-59 0 -115.5 10t-102.5 42t-73.5 93t-27.5 164v829q0 72 -19.5 99.5t-42.5 27.5q-29 0 -46 -31.5t-17 -103.5v-1059z" />
<glyph unicode="M" horiz-adv-x="1703" d="M82 174q0 -27 2 -55.5t8 -52t18.5 -39t30.5 -15.5q25 0 40.5 33t15.5 70v477q0 190 28.5 293.5t93.5 103.5q41 0 75 -30.5t62.5 -80t52 -110.5t46.5 -123l98 -272q2 -14 17 -49l-2 2q4 -10 8 -22.5t10 -27.5l-2 3q16 -53 33.5 -101.5t36 -86.5t41 -60.5t49.5 -22.5 q23 0 42 20.5t36.5 56.5t35 84t35.5 101q10 37 12.5 42t2.5 3q4 10 9 25.5t9 28.5v-4l94 262q27 76 54.5 142.5t56.5 115.5t59.5 77.5t63.5 28.5q72 0 100.5 -90t28.5 -297v-465q0 -12 2 -33.5t8 -42t18.5 -36t30.5 -15.5t28.5 13.5t15.5 32t7 36t2 23.5v1044q0 70 -8 113 t-24.5 66.5t-43 31.5t-65.5 8q-53 0 -89 -15t-62.5 -46t-47 -79t-43.5 -112l-137 -370q-23 -63 -46 -119.5t-51 -99.5t-60.5 -69t-73.5 -26q-43 0 -80 30t-65.5 76t-53.5 102.5t-43 109.5l-127 356q-31 84 -54.5 137.5t-49.5 79.5q-23 23 -57.5 34t-92.5 11 q-49 0 -76.5 -19.5t-41 -47t-17.5 -56t-4 -47.5v-1036z" />
<glyph unicode="N" horiz-adv-x="1441" d="M76 150q0 -63 15 -102.5t46 -39.5q20 0 33.5 16.5t21 40t9.5 50t2 49.5v536q0 164 33.5 230.5t97.5 66.5q51 0 105.5 -48t109.5 -134l422 -661q33 -49 58.5 -83t52 -53.5t54 -27.5t64.5 -8q74 0 98.5 48t24.5 109v1002q0 94 -14.5 154.5t-51.5 60.5t-50 -46t-13 -104 l2 -348q0 -121 -4 -206t-18.5 -139t-41 -79.5t-69.5 -25.5q-59 0 -111.5 46t-109.5 132v2l-363 565q-55 88 -92 135t-68 70q-27 20 -55 23t-69 3q-45 0 -69 -21.5t-35 -56t-13 -77.5t-2 -86v-993z" />
<glyph unicode="O" horiz-adv-x="1554" d="M33 678q0 -143 51 -273.5t145.5 -228.5t229.5 -155.5t301 -57.5q162 0 299 50t238.5 144.5t158.5 225.5t57 295q0 203 -61 347t-165.5 237.5t-241 136.5t-285.5 43q-174 0 -309.5 -59.5t-228.5 -162t-141 -242.5t-48 -300zM176 678q0 160 49 283.5t131 207.5t187.5 127 t216.5 43q129 0 240.5 -44t194.5 -129t130 -207.5t47 -280.5q0 -123 -45 -234.5t-126 -195.5t-193.5 -133t-247.5 -49q-141 0 -250 56t-182.5 145t-112.5 198t-39 213z" />
<glyph unicode="P" d="M86 233q0 -121 12.5 -171t46.5 -50q20 0 34 16.5t20 41t8 55.5t2 61v133q0 76 15.5 135.5t55 99.5t105.5 60.5t168 20.5q94 0 179 20.5t148.5 64.5t100.5 116t37 176v4q0 123 -53.5 196.5t-137.5 112.5t-188 51.5t-207 12.5h-67q-90 0 -144.5 -6.5t-84.5 -29t-40 -67.5 t-10 -125v-928zM213 1022q0 90 26.5 145.5t67.5 85t89 38.5t91 9t107.5 -11t125 -43t102.5 -88t42 -144q0 -86 -35.5 -144.5t-91 -93.5t-122 -49t-130.5 -14q-61 0 -112 16t-86 53t-54.5 96.5t-19.5 143.5z" />
<glyph unicode="Q" horiz-adv-x="1531" d="M20 700q0 -139 50.5 -267t147.5 -226t239.5 -157.5t328.5 -59.5q27 0 52.5 2t50.5 6q43 6 88 6q63 0 123 -27h-2q41 -23 76 -53q18 -16 37.5 -28.5t54.5 -12.5q27 0 26 45q0 14 -2 40t-4 50q-2 12 -2 23v20v13l-2 12q0 49 20.5 93t53.5 91q20 37 43.5 78t44 93.5t33 118 t12.5 147.5q0 158 -56.5 289.5t-155.5 227t-235.5 148.5t-296.5 53q-166 0 -299 -59t-228 -159.5t-146.5 -231.5t-51.5 -275zM166 698q0 150 46 266.5t126 196.5t185.5 121t226.5 41q137 0 247.5 -49t187.5 -131t119 -189.5t42 -224.5q0 -72 -11.5 -144.5t-38 -131 t-68.5 -94t-104 -35.5q-66 0 -95.5 16t-51.5 37h2l-6 4q-12 10 -27.5 19.5t-46.5 9.5q-10 0 -16 -10.5t-6 -22.5q0 -23 1 -30t3 -15v-2q0 -16 6 -25l-2 2q2 -6 2 -16q0 -39 -6.5 -74t-25.5 -62.5t-57 -44t-100 -16.5q-70 0 -161 36t-173.5 109.5t-140 187t-57.5 271.5z" />
<glyph unicode="R" horiz-adv-x="1124" d="M94 160q0 -76 19.5 -114t48.5 -38t44 39t15 143v99q0 51 6 109.5t30 107.5t67 80.5t116 31.5h2q57 0 102.5 -24.5t82.5 -63t65.5 -86t52.5 -90.5l105 -200v-2q39 -76 77 -117t83 -41q39 0 39 31q0 25 -12.5 54.5t-24.5 49.5v2l-99 154q-41 59 -67.5 125.5t-26.5 126.5 q0 63 31 106t72 86q23 25 47 52.5t43.5 61.5t32 78t12.5 99q0 127 -61.5 199.5t-151.5 109.5t-196.5 46t-196.5 9h-179q-45 0 -77.5 -6t-55 -28.5t-34 -69.5t-11.5 -127v-993zM225 993q0 86 17.5 144.5t54.5 94.5t95.5 51t139.5 15q10 0 70 -5t127.5 -31.5t121.5 -86 t54 -165.5q0 -68 -24.5 -116t-63.5 -80t-86 -50.5t-91 -27.5t-79 -12t-51 -3q-147 0 -216 74.5t-69 197.5z" />
<glyph unicode="S" horiz-adv-x="987" d="M47 1051q0 -90 32 -150.5t83 -102.5t114.5 -70t129.5 -52q63 -25 124.5 -50.5t107.5 -62.5t74.5 -89t28.5 -128q0 -57 -23.5 -106.5t-65.5 -86t-101 -57t-129 -20.5h-10q-66 0 -108 13t-75 30l-14 6q-20 8 -38.5 14t-41.5 6q-12 0 -30.5 -9t-18.5 -36q0 -33 32 -57.5 t80 -40.5t105 -24.5t111 -8.5q100 0 189 28t155.5 80t104.5 127t38 171q0 94 -35 159.5t-88 109.5t-119.5 75t-134.5 55q-61 25 -119.5 48.5t-102.5 57t-70.5 81t-26.5 114.5q0 63 23.5 112.5t63.5 83.5t94 50t118 16q39 0 65.5 -2t44 -5t29.5 -7t23 -8q12 -6 28.5 -10.5 t53.5 -4.5q18 0 32.5 13.5t14.5 29.5q0 51 -78 76t-193 25q-59 0 -140 -17.5t-155.5 -61.5t-128 -120t-53.5 -194z" />
<glyph unicode="T" horiz-adv-x="1011" d="M8 1354q0 -25 38 -39.5t104 -14.5q39 0 86 -7t89 -32.5t70.5 -74.5t28.5 -135v-891q0 -23 3 -49.5t11 -50t22.5 -39t35.5 -15.5q39 0 53 49t14 105v891q0 84 21.5 133t58.5 74.5t87 32.5t108 7q20 0 44.5 2.5t46 7.5t36 16.5t14.5 29.5q0 25 -55.5 34t-169.5 9h-531 q-68 0 -109.5 -2t-65 -7.5t-32 -13.5t-8.5 -20z" />
<glyph unicode="U" horiz-adv-x="1273" d="M76 586q0 -182 50 -300t129 -186.5t176 -95.5t190 -27q88 0 186 26t180 94.5t136.5 192.5t54.5 320v547q0 41 -2 83t-9.5 75t-20.5 53.5t-36 20.5q-20 0 -32.5 -23t-19.5 -56.5t-9 -74.5t-2 -78v-577q0 -123 -31 -213.5t-86.5 -149.5t-133 -88t-171.5 -29h-4 q-121 0 -200 41t-127 113t-67.5 172t-19.5 217v514q0 37 -2 78t-9.5 76t-19.5 57.5t-31 22.5q-23 0 -36 -19.5t-21 -52.5t-10 -75t-2 -87v-571z" />
<glyph unicode="V" horiz-adv-x="1161" d="M-14 1339q0 -20 6 -48.5t22 -69.5l398 -1043q0 -14 6 -22l-2 2q2 -4 3 -8.5t3 -8.5l-2 2q8 -25 19.5 -50t27.5 -46.5t40.5 -35t59.5 -13.5q47 0 78 49t60 119l393 1008q18 47 29.5 86.5t11.5 72.5q0 47 -33 47q-20 0 -37.5 -17t-34 -45t-31 -64.5t-28.5 -73.5l-211 -580 q-10 -27 -27.5 -63.5t-42 -70.5t-54.5 -57.5t-62 -23.5q-43 0 -76 26.5t-57.5 64.5t-41 79t-26.5 72l-191 542q-27 74 -49 117t-40.5 64.5t-33 27.5t-24.5 6q-53 0 -53 -45zM412 178l4 -10l-2 2z" />
<glyph unicode="W" horiz-adv-x="1857" d="M-27 1321q0 -18 9.5 -65.5t27.5 -112.5l205 -690v-2q2 -8 4 -14.5t4 -14.5l13 -43q14 -49 29.5 -99.5t31.5 -96.5t34.5 -84t39.5 -64q31 -35 57 -35q47 0 77 57.5t64 169.5l172 555q33 109 70 157t102 48q66 0 109 -52t70 -144l157 -574q16 -59 31.5 -103t38.5 -73v-4 q27 -39 76 -39q29 0 46 10t34 31q25 37 43 96.5t41 143.5q10 35 20 72.5t23 78.5l208 717v2q16 57 24.5 99t8.5 63q0 51 -45 51q-27 0 -47 -35t-47 -127q-33 -123 -51.5 -191.5t-30.5 -113.5t-22.5 -83t-26.5 -97q-33 -127 -74 -193.5t-106 -66.5q-66 0 -111 68t-78 179 l-106 367q-18 63 -37 120.5t-39.5 100.5t-46 68.5t-57.5 25.5q-37 0 -63 -24.5t-46.5 -65.5t-36.5 -95t-33 -114l-106 -376q-33 -111 -79 -179.5t-114 -68.5q-70 0 -108.5 59.5t-67.5 175.5l-114 439q-18 70 -34 115.5t-30 72.5t-31.5 37t-38.5 10q-23 0 -33 -10t-10 -39z " />
<glyph unicode="X" horiz-adv-x="1159" d="M23 45q0 -16 5 -24.5t27 -8.5q43 0 82 36t74 95l90 154q27 47 54.5 90t57 77t63.5 53.5t73 19.5q43 0 79 -18.5t67.5 -50.5t59 -73t54.5 -86l100 -170q37 -59 77 -98t87 -39q23 0 31 11.5t8 27.5q0 27 -21.5 71t-60.5 97l-180 256q-51 74 -85 146.5t-34 127.5 q0 51 23.5 110.5t64.5 119.5l146 211q37 55 63.5 98t26.5 70q0 23 -5.5 35t-25.5 12q-29 0 -53.5 -16.5t-47 -43t-45 -62.5t-42.5 -73v-2l-56 -94q-41 -72 -94 -121t-127 -49q-66 0 -116 53t-93 127l-49 82q-23 39 -46.5 75t-49 63.5t-54 45t-59.5 17.5q-16 0 -24.5 -7.5 t-8.5 -17.5q0 -29 25 -76t66 -102l157 -225q41 -59 65.5 -117.5t24.5 -112.5q0 -49 -25.5 -112.5t-70.5 -128.5l-182 -271q-41 -61 -68.5 -108t-27.5 -74z" />
<glyph unicode="Y" horiz-adv-x="1050" d="M-8 1333q0 -29 27.5 -78t72.5 -112h-2l170 -246q76 -111 130 -227.5t54 -220.5v-328q0 -51 17.5 -83t46.5 -32q33 0 49 37t16 84v338q0 47 15.5 100t41 110.5t60.5 116t74 113.5l176 258h-2q41 57 66.5 103.5t25.5 72.5q0 25 -11 31t-22 6q-47 0 -92 -50t-86 -118 l-55 -94q-27 -45 -54.5 -86t-56 -71.5t-61.5 -49t-70 -18.5q-43 0 -77.5 18.5t-65.5 49t-56.5 71.5t-50.5 86l-49 84v2q-41 74 -88 129t-106 55q-23 0 -30 -16t-7 -35z" />
<glyph unicode="Z" horiz-adv-x="1085" d="M25 102q0 -70 60 -87t189 -17h435q145 0 216.5 8t71.5 39q0 37 -57 46t-137 9h-197q-59 0 -113.5 5.5t-95.5 21.5t-64.5 45t-23.5 78q0 63 36 123.5t99 138.5l455 573q53 68 85 122.5t32 103.5q0 35 -15.5 55t-50.5 31.5t-90 14.5t-135 3l-334 -2q-86 0 -146.5 -1t-98 -6 t-54 -16.5t-16.5 -31.5q0 -16 15 -25.5t39 -14.5t49.5 -7t45.5 -2h191q68 0 125 -5.5t99 -21.5t65.5 -50t23.5 -89q0 -41 -31.5 -100.5t-91.5 -135.5l-450 -569q-57 -72 -93 -133.5t-38 -102.5z" />
<glyph unicode="[" horiz-adv-x="638" d="M227 -82q0 -123 16.5 -178t82.5 -55q63 0 63 26q0 8 -6 17.5t-16 19.5q-25 31 -54.5 84t-29.5 152v1157q0 102 27.5 159.5t49.5 92.5q19 27 19 39q0 8 -12.5 17t-47.5 9t-53 -16.5t-26.5 -45t-10.5 -66.5t-2 -79v-1333z" />
<glyph unicode="\" horiz-adv-x="688" d="M53 1343q0 -16 31 -90l475 -1179v-21q0 -25 21 -24q12 0 20 12t8 20q0 18 -18 62l-467 1151q-20 47 -21 80q0 10 -2 16t-16 6q-12 0 -21 -12q-10 -6 -10 -21z" />
<glyph unicode="]" horiz-adv-x="616" d="M195 -285q0 -27 63 -26q66 0 82 55t16 178v1335q0 41 -2 79t-10 66t-27.5 44t-52.5 16q-35 0 -47 -9t-12 -17q0 -12 20 -39v-2h2l2 -2q23 -35 45.5 -92.5t22.5 -155.5v-1157q0 -100 -27.5 -151.5t-52.5 -84.5q-10 -10 -16 -19t-6 -18zM227 1393v2l2 -2h-2z" />
<glyph unicode="^" horiz-adv-x="1083" d="M154 825q12 8 14 11l33 4q0 16 2 22q18 14 22 19.5t11 13.5v2v-2h2v2q4 10 10 19.5t14 19.5l76 117q18 27 36.5 52t43 45.5t54.5 33t69 12.5q37 0 64.5 -10t49 -28.5t38 -42t34.5 -48.5q4 -4 5 -8t5 -8l80 -123q10 -16 22.5 -31.5t28.5 -32.5q6 -12 9.5 -20t5.5 -10l18 2 q8 -8 21 -15q-2 4 -4.5 8.5t-4.5 8.5h2l9 4l-2 32q-6 0 -27 11q-12 25 -19.5 38t-11.5 23q-6 4 -8 15v2l-129 229q-4 6 -12 22q-4 6 -6 11.5t-7 11.5q-16 31 -33.5 59.5t-37 52t-42 37t-48.5 13.5q-27 0 -48.5 -15.5t-41 -39t-37 -53t-31.5 -58.5q-4 -10 -10 -18.5 t-10.5 -18.5t-7.5 -15t-7 -10v-2l-125 -204q-10 -14 -20 -36t-25 -48v2q-6 -6 -12 -6l-4 -33q-4 -6 -8 -19z" />
<glyph unicode="_" horiz-adv-x="911" d="M-102 -197q0 -31 22.5 -40t38.5 -9h969q16 0 36.5 9.5t20.5 39.5q0 35 -18.5 44.5t-38.5 9.5h-969q-16 0 -38.5 -9.5t-22.5 -44.5z" />
<glyph unicode="`" horiz-adv-x="485" d="M180 1368q0 -25 12.5 -72t29 -93t35.5 -79.5t36 -33.5q18 0 23.5 13t5.5 50q0 23 -7.5 66t-20.5 85t-32.5 73.5t-46.5 31.5q-35 0 -35 -41z" />
<glyph unicode="a" horiz-adv-x="923" d="M35 231q0 -76 31.5 -122t72.5 -71.5t83 -33.5t61 -8q29 0 54 -3t25 -9q0 2 -38 -37q106 16 143 32.5t37 30.5h-29q-49 0 -102.5 14.5t-97.5 43t-71.5 71.5t-27.5 103q0 61 33 108t80 82q76 12 137 12q35 0 70.5 6.5t70.5 22.5q53 -33 95.5 -79t42.5 -103q0 -51 -13.5 -92 t-32 -71t-36 -49.5t-23.5 -25.5q8 -8 27.5 -12t43 -6t46.5 -2h37h2q47 0 65.5 31.5t18.5 72.5v412q0 186 -87 281.5t-245 95.5h-6q-43 12 -80 12q-68 0 -119 -9t-90 -20h2q-4 -2 -10 -2q-2 0 -5 -1t-5 -1q-31 -8 -52 -8l-4 -33q14 -4 15 -26l26 -7q4 10 89 35t227 27 q35 -10 70.5 -29.5t64 -45t47 -59.5t18.5 -73q0 -55 -36.5 -100t-92.5 -76q-55 25 -100 25q-27 0 -80 -17.5t-108 -52.5q-49 -10 -93.5 -27.5t-78 -46.5t-53 -67.5t-19.5 -92.5z" />
<glyph unicode="b" horiz-adv-x="1142" d="M104 119q0 -14 2.5 -35t10.5 -39t23.5 -30.5t39.5 -12.5q35 0 47.5 3t20.5 7h-4q14 4 34.5 9.5t67.5 5.5q59 0 89 -10.5t59 -22.5q31 -14 72.5 -27.5t129.5 -13.5q47 0 114 26.5t128 82t104 142.5t43 210q0 119 -33.5 210t-92 154.5t-134 96t-161.5 32.5q-51 0 -89 -10 t-69 -20q-29 -10 -53.5 -17.5t-51.5 -7.5q-55 0 -92 22.5t-58.5 62.5t-29.5 94t-8 120v201q0 59 -18.5 85.5t-40.5 26.5q-23 0 -36.5 -32.5t-13.5 -90.5v-1222zM221 422q0 88 30 161.5t80 126t113.5 82t130.5 29.5q78 0 148 -28.5t123 -81t84 -123t31 -152.5v-4 q0 -78 -29 -147.5t-79 -122.5t-122 -85t-158 -32q-76 0 -140 33t-111.5 86t-74 120.5t-26.5 137.5z" />
<glyph unicode="c" horiz-adv-x="837" d="M47 453q0 -78 19.5 -139.5t46 -105.5t52 -70.5t36.5 -35.5h-2l2 -2q14 -16 42.5 -36.5t70.5 -40t95.5 -33t116.5 -13.5q27 0 62 4.5t66.5 13.5t54 24.5t22.5 37.5q0 16 -15.5 21.5t-37.5 5.5q-18 0 -40 -2t-42 -6q-4 0 -8 -1t-8 -1q-14 -2 -26.5 -3t-14.5 -1 q-72 0 -139.5 28.5t-119 79.5t-82 120t-30.5 148q0 88 28.5 160t78 123t116 80t141.5 29q27 0 46.5 -2t37.5 -7q4 0 9.5 -1t9.5 -1q33 -6 57 -6q51 0 51 35q0 20 -24.5 35.5t-58 25t-67.5 13.5t-52 4h-4q-88 0 -176.5 -31t-158 -90t-112.5 -150.5t-43 -209.5z" />
<glyph unicode="d" horiz-adv-x="1140" d="M47 430q0 -104 31 -191t87 -149.5t135 -98.5t173 -36q59 0 97 11t69 24q2 2 6 2q29 14 60.5 24.5t78.5 10.5q55 0 76 -5.5t37 -11.5h-2q8 -4 19.5 -7t37.5 -3q41 0 61.5 42t20.5 120v1138q0 53 -6 85t-15 49.5t-20.5 22.5t-23.5 5q-51 0 -51 -133v-139q0 -68 -5.5 -128.5 t-24 -105.5t-55 -71.5t-98.5 -26.5q-47 0 -74.5 6t-52.5 17q-29 10 -59.5 18t-81.5 8q-63 0 -137 -26.5t-136.5 -83t-104.5 -147.5t-42 -220zM168 422q0 92 32.5 164.5t86 125t122 81t142.5 28.5q92 0 159.5 -40t112.5 -100t67.5 -128t22.5 -123q0 -74 -27.5 -143.5 t-74.5 -122.5t-112.5 -85t-141.5 -32q-78 0 -148.5 28.5t-124 79t-85 119t-31.5 148.5z" />
<glyph unicode="e" horiz-adv-x="968" d="M41 438q0 -90 40 -170t106.5 -140t152.5 -95t178 -35h4q72 0 122 10t82 23.5t46 28t14 24.5q0 12 -2 19.5t-16 8.5q-25 0 -49.5 -9t-48.5 -19q-35 -12 -72 -24.5t-86 -12.5q-47 0 -98.5 15.5t-94.5 44t-71.5 71.5t-28.5 101q0 68 47 110.5t115 65.5q78 -15 125 -15 q41 0 82 4.5t76 16.5q12 -2 24 -2t23 -2q2 0 6 -1t8 -1q43 -6 76 -6q66 0 102.5 27.5t36.5 74.5q0 76 -26.5 139.5t-72.5 111.5t-107.5 78.5t-131.5 41.5q-59 20 -121 20q-57 0 -109.5 -21.5t-92.5 -56.5q-113 -59 -175.5 -165.5t-62.5 -256.5v-4zM215 670q0 96 78 164 q115 59 264 59q4 0 10 -1t11 -1h14q78 -25 134 -82t56 -143q0 -66 -34.5 -107t-90.5 -63q-35 4 -74.5 7t-86.5 3q-49 0 -119 -14q-68 29 -115 70.5t-47 107.5z" />
<glyph unicode="f" horiz-adv-x="722" d="M100 815q0 -25 41 -55q20 -18 42 -40t40.5 -54.5t30.5 -79.5t12 -113v-358q0 -51 15.5 -82t42.5 -31q29 0 42 38t13 85v387q0 70 17.5 116t43 76.5t56 48t57.5 31.5q10 4 19 10l10 5h20q-4 33 -17.5 44t-31.5 21q-4 2 -6 2t-6 2q-27 12 -53.5 26.5t-49 39t-37 64.5 t-14.5 104q0 74 18.5 124t46 82.5t61.5 52t65 36.5h-3q27 10 43.5 21.5t16.5 25.5q0 20 -18.5 27.5t-65.5 7.5q-74 0 -128 -30t-90 -77t-53.5 -108.5t-17.5 -124.5t-10 -105.5t-26.5 -70t-37 -45t-41 -32t-34 -28.5t-13.5 -43z" />
<glyph unicode="g" horiz-adv-x="1112" d="M33 479q0 -70 14 -128t33.5 -102t41 -76t38.5 -46q16 -16 41.5 -37.5t62.5 -41t84 -33t107 -13.5q59 0 95 7t62 18h9q23 8 41 12t43 4q80 0 122.5 -48t42.5 -118q0 -72 -31.5 -127t-84 -94t-119 -58.5t-133.5 -19.5q-90 0 -141.5 13.5t-86.5 27.5q-55 23 -81 23 q-29 0 -41.5 -6.5t-12.5 -28.5q0 -29 32 -51.5t83 -38t116.5 -22.5t131.5 -7q133 0 231 41t163 116.5t95.5 182t30.5 238.5v686q0 18 -2 43.5t-11.5 49t-26.5 39t-48 15.5q-25 0 -39 -3t-25 -7l7 2q-2 0 -3 -2h-2h-8q-16 -6 -35.5 -10.5t-66.5 -4.5q-49 0 -81 10.5t-60 24.5 h-3q-2 0 -3 1t-3 1q-27 12 -61.5 23.5t-87.5 11.5q-119 0 -201 -48t-133 -118.5t-73.5 -151.5t-22.5 -149zM158 477q0 94 32.5 166t90 121t131 73.5t157.5 24.5q78 0 140.5 -37t106.5 -93t67.5 -124.5t23.5 -132.5q0 -66 -27.5 -135.5t-74.5 -126.5t-111.5 -93t-140.5 -36 q-88 0 -161 33t-125 87t-80.5 124.5t-28.5 148.5z" />
<glyph unicode="h" horiz-adv-x="1138" d="M123 133q0 -63 14.5 -98t42.5 -35q35 0 46.5 45t11.5 100v293q0 63 24.5 140t81.5 137l14 18q25 27 64 52.5t125 25.5q100 0 169.5 -31.5t112.5 -88t62.5 -134.5t19.5 -170v-248q0 -76 16.5 -107.5t45.5 -31.5q27 0 40 40t13 105v367q0 57 -11 125t-46 127t-100.5 99 t-174.5 40q-57 0 -92 -10t-63 -21q-2 0 -3 -1t-4 -1q-25 -10 -49 -16t-59 -6q-78 0 -132 58.5t-54 160.5v233q0 84 -17 119t-45 35q-29 0 -41 -46t-12 -99v-1176z" />
<glyph unicode="i" horiz-adv-x="415" d="M143 135q0 -16 2 -38.5t8.5 -42t16.5 -34t27 -14.5q18 0 29.5 13.5t17.5 34t9 42t3 39.5v631q0 20 -2 47t-8 50.5t-18.5 40t-30.5 16.5q-16 0 -26.5 -16.5t-17 -40t-8.5 -50.5t-2 -47v-631zM150 1323q0 -16 10 -29.5t37 -13.5q20 0 34.5 13.5t14.5 29.5t-13.5 30.5 t-35.5 14.5q-23 0 -35 -14.5t-12 -30.5z" />
<glyph unicode="j" horiz-adv-x="450" d="M-57 -444q0 -29 27.5 -36t66.5 -7q51 0 98 23.5t81 67.5t54.5 109.5t20.5 151.5v921q0 70 -13.5 101t-41.5 31q-33 0 -45.5 -38t-12.5 -98v-790q0 -39 -2 -80t-10 -82t-25.5 -80t-48.5 -69q-23 -23 -43 -37.5t-39 -24.5q-4 -2 -6 -4t-6 -4q-23 -14 -39 -26.5t-16 -28.5z M190 1352q0 -16 11.5 -29.5t31.5 -13.5q25 0 37.5 13t12.5 30q0 18 -12.5 33.5t-37.5 15.5q-20 0 -31.5 -16.5t-11.5 -32.5z" />
<glyph unicode="k" horiz-adv-x="882" d="M141 119q0 -51 13.5 -87t40.5 -36q16 0 26 14.5t15.5 32.5t7.5 36.5t2 29.5q0 117 42 171t101 54q61 0 111.5 -42t97.5 -102l59 -77q41 -53 83 -93t94 -40q10 0 16 2t6 16q0 29 -27.5 66.5t-68.5 82.5h-2l-62 76q-43 51 -72.5 108.5t-29.5 119.5q0 53 29.5 105t70.5 95 l56 66v-2q4 4 2 4l4 4q20 27 33.5 44t23.5 44h-35q-23 0 -52.5 -20.5t-59.5 -51.5v-2l-60 -57q-51 -51 -103 -91t-106 -40q-78 0 -116.5 75.5t-38.5 209.5v350q0 66 -9.5 102.5t-42.5 36.5q-35 0 -42 -40t-7 -93v-1071z" />
<glyph unicode="l" horiz-adv-x="417" d="M147 160q0 -74 12.5 -117t47.5 -43q31 0 43 44t12 116v1079q0 86 -13 132t-42 46q-35 0 -47.5 -44t-12.5 -134v-1079z" />
<glyph unicode="m" horiz-adv-x="1636" d="M72 113q0 -113 55 -113q29 0 42 35t13 82v284q0 86 17.5 164t53.5 138.5t88 95.5t122 35q57 0 109.5 -18.5t93.5 -63.5t65.5 -124t24.5 -198v-307q0 -55 14 -89t41 -34q33 0 46 36t13 87v303q0 49 8.5 103.5t25 104.5t44 92t66.5 69q14 6 27.5 12t27.5 14q2 0 4 2 q14 4 29.5 6t32.5 2q90 0 149 -33.5t95 -92t51.5 -134t15.5 -161.5l2 -304q0 -41 12.5 -73.5t34.5 -32.5q35 0 48 38t13 83v418q0 74 -17 143.5t-53 122.5t-92 85t-132 32q-68 0 -107 -16.5t-68 -35.5h-4q-10 -10 -11 -9t-3 -1q-4 -2 -5 -3t-5 -3q-29 -10 -58 -27 q-27 -8 -59 -8q-51 0 -91 15.5t-81 33.5q-41 20 -85 37t-93 17q-55 0 -93 -13.5t-69 -27.5q-25 -10 -49.5 -19.5t-58.5 -9.5q-23 0 -43.5 4t-38.5 8h2q-4 2 -11 2q-4 0 -8 2q-8 0 -12 2q-10 4 -24.5 6.5t-34.5 2.5q-47 0 -63.5 -37t-16.5 -103v-626z" />
<glyph unicode="n" horiz-adv-x="1093" d="M82 117q0 -51 15.5 -82t35.5 -31q35 0 50.5 40t15.5 106v317q0 80 19.5 149.5t58 120.5t93 81t126.5 30t140.5 -15.5t121.5 -65.5t86 -143.5t33 -248.5v-252q0 -119 53 -119q16 0 27.5 15.5t17.5 40t9 54t3 60.5v367q0 115 -26.5 191.5t-72.5 121.5t-105.5 63.5 t-125.5 18.5q-82 0 -122.5 -13.5t-69.5 -27.5h2q-29 -14 -58.5 -24.5t-84.5 -10.5q-33 0 -49.5 3t-26.5 7h2l-6 2q-16 6 -38 10.5t-61 4.5q-35 0 -49 -49.5t-14 -114.5v-606z" />
<glyph unicode="o" d="M16 457q0 -111 40 -199t107.5 -149.5t157 -94t187.5 -32.5q115 0 206 39.5t155.5 105.5t99.5 152t35 178q0 115 -41 205t-111 151t-159 93t-185 32q-94 0 -182 -33t-157 -94t-111 -151.5t-42 -202.5zM139 457q0 80 29 151.5t78 123.5t116.5 83t145.5 31q76 0 142.5 -29 t117.5 -80t81 -122.5t30 -157.5q0 -84 -31 -154t-83 -120t-118.5 -77.5t-138.5 -27.5q-84 0 -152.5 32.5t-117 87t-74 122t-25.5 137.5z" />
<glyph unicode="p" horiz-adv-x="1144" d="M96 -311q0 -23 2 -46.5t8.5 -43t17.5 -31.5t32 -12q18 0 29.5 15t17.5 39.5t8 55.5t2 60v84q0 47 10 92t31.5 78.5t55.5 54t81 20.5q33 0 59.5 -6t53.5 -14h-2q4 -2 8 -3t8 -3h6q29 -10 59.5 -17.5t71.5 -7.5q88 0 166 34t136.5 97.5t92 150.5t33.5 195q0 123 -38.5 213 t-100 148.5t-135.5 86t-143 27.5q-66 0 -113 -14t-84 -31l-2 -2q-31 -14 -59.5 -21t-61.5 -7q-35 0 -55.5 4t-38.5 12q-16 4 -31.5 9t-42.5 5q-33 0 -57.5 -27.5t-24.5 -84.5v-1110zM217 483q0 72 27.5 141.5t75 124t110.5 88t135 33.5q76 0 146.5 -25.5t126 -75.5t88 -124 t32.5 -168q0 -80 -28.5 -150.5t-80.5 -121.5t-125 -81t-159 -30q-74 0 -137 33t-110.5 88t-74 125t-26.5 143z" />
<glyph unicode="q" horiz-adv-x="1116" d="M37 498q0 -129 40 -222.5t101.5 -153t134 -87t138.5 -27.5t104.5 9.5t69.5 21.5q20 6 41.5 12t54.5 6q61 0 97 -23.5t56.5 -61.5t26.5 -85t6 -92v-92q0 -66 12.5 -105.5t47.5 -39.5q18 0 30.5 13t19.5 33.5t9 47t2 51.5v1040q0 72 -18.5 122t-63.5 50q-29 0 -47 -4 t-35 -8h-4q-23 -6 -43 -10t-39 -4q-45 0 -76.5 10t-62.5 25q-35 14 -72.5 26.5t-103.5 12.5q-90 0 -168 -36t-135.5 -98.5t-90 -147.5t-32.5 -183zM162 504q0 68 28.5 133t80 117.5t123 85t155.5 32.5q92 0 159.5 -39.5t110.5 -98t63.5 -124t20.5 -116.5q0 -68 -22.5 -137.5 t-67.5 -126t-109.5 -92.5t-150.5 -36q-115 0 -189.5 41t-119.5 101.5t-63.5 130t-18.5 129.5z" />
<glyph unicode="r" horiz-adv-x="679" d="M121 129q0 -43 15.5 -83t45.5 -40q31 0 44.5 45t13.5 99v251q0 70 9 122t24.5 90t34 63.5t36.5 44.5q23 23 44.5 39t44 28.5t50 21.5t62.5 15q41 10 71.5 19.5t30.5 42.5q0 10 -15 19t-46 8q-25 0 -43.5 -4.5t-36.5 -14.5q-25 -12 -52.5 -21.5t-80.5 -9.5q-25 0 -45.5 4 t-42.5 11q-4 0 -8.5 1t-8.5 1h4q-12 4 -26.5 6t-32.5 2q-33 0 -51.5 -14.5t-27.5 -37t-11 -48t-2 -48.5v-612z" />
<glyph unicode="s" horiz-adv-x="751" d="M41 690q0 -59 22.5 -99t57.5 -67.5t80 -46t90 -35.5q49 -16 94 -34.5t81 -44t57.5 -63.5t21.5 -95q0 -29 -12.5 -61.5t-38 -60.5t-66.5 -47.5t-96 -19.5q-37 0 -73 8.5t-66 20.5q-8 2 -12.5 3t-10.5 3l2 -2q-10 4 -18.5 6t-12.5 2h-30q0 -20 22.5 -35.5t55 -24.5 t68.5 -14.5t65 -5.5q94 0 164.5 19.5t116.5 51.5t69.5 73t23.5 84q0 72 -23.5 120t-60.5 78.5t-83 49t-91 34.5h-2q-45 16 -87 33t-74.5 41.5t-52 61t-19.5 92.5q0 47 22.5 77.5t53 49t60.5 25.5t44 7q39 0 68 -6v-2q27 -6 65 -6h45q0 20 -20.5 35.5t-49 26t-59.5 15.5 t-49 5q-57 0 -117.5 -14.5t-111 -44t-82 -77.5t-31.5 -116z" />
<glyph unicode="t" horiz-adv-x="614" d="M27 889q0 -12 10 -24.5t26 -28.5l11 -11l37.5 -37.5t37 -46t27.5 -61.5t10 -82v-264q0 -68 10.5 -131.5t38 -112.5t76.5 -78.5t127 -29.5q33 0 60.5 7t27.5 27q0 14 -14 24.5t-37 25.5q-16 10 -34.5 22t-34.5 29q-53 53 -75 105t-22 112v266q0 57 15.5 96t40 67t53 45 t55.5 34q8 4 13.5 7t11.5 7q14 8 23 14.5t9 16.5q0 12 -7 18t-21 13v2q-23 10 -52.5 28.5t-68.5 57.5q-29 29 -40 51t-22 45q-2 4 -3 8t-3 8v-2q-12 33 -25.5 55.5t-39.5 22.5q-27 0 -39 -23.5t-23 -54.5q-10 -29 -24.5 -57.5t-38.5 -52.5l-12 -13q-4 -4 -8.5 -7t-8.5 -7 l-8 -8h2q-23 -20 -42 -42t-19 -40z" />
<glyph unicode="u" horiz-adv-x="1013" d="M84 338q0 -188 81 -280.5t220 -92.5q63 0 99 11.5t65 27.5q27 12 53.5 22.5t69.5 10.5q27 0 46 -3t38 -7q4 -4 12 -4q14 -4 32.5 -7.5t53.5 -3.5q39 0 53.5 49.5t14.5 139.5v530q0 74 -9.5 127t-50.5 53q-18 0 -30.5 -14t-19.5 -36.5t-9 -49.5t-2 -49v-303 q0 -68 -16.5 -139.5t-50.5 -130t-86 -96.5t-122 -38q-100 0 -164.5 33t-102.5 99.5t-52 167t-14 233.5v198q0 59 -13.5 92t-42.5 33q-23 0 -38 -25.5t-15 -82.5v-465z" />
<glyph unicode="v" horiz-adv-x="843" d="M-8 858q0 -23 12 -64.5t35 -95.5l174 -446l10 -25q18 -47 35.5 -88t37 -70.5t45.5 -47t62 -17.5q39 0 66 16.5t48.5 48t39.5 78t41 105.5l160 428h2q49 123 49 170q0 39 -25 39q-18 0 -34.5 -14.5t-30.5 -38t-25.5 -52t-23.5 -57.5l-6 -18l-64 -158q-16 -43 -33.5 -85 t-40 -75t-50 -53.5t-64.5 -20.5q-39 0 -69 20.5t-53.5 54.5t-42 77t-34.5 90l-57 160q-12 33 -25.5 65.5t-29 59t-33.5 42t-41 15.5q-16 0 -25.5 -9t-9.5 -34z" />
<glyph unicode="w" horiz-adv-x="1449" d="M-14 860q0 -39 17 -96t42 -131q0 -6 6 -12q0 -4 3 -11.5t5 -13.5v2l95 -289q4 -12 4 -14v-6q0 -2 2 -4l4 -9q18 -61 35.5 -111t38 -87t45 -57.5t57.5 -20.5q39 0 64.5 19.5t43 51t28.5 72.5t22 84q2 4 2 11q0 6 2 12v-2q2 4 3 11t3 13q16 63 33.5 116.5t40 91.5 t54.5 58.5t75 20.5t76.5 -27.5t58 -69.5t42 -89t27.5 -84l7 -25l4 -12l4 -12q12 -41 25.5 -83t32 -76t45 -55.5t63.5 -21.5q29 0 50 17.5t38.5 48t33 74.5t31.5 98v2q4 10 6 20t7 21q4 16 5 19t3 7l94 279q2 4 3 10t3 10t4 10.5t4 12.5q23 66 39.5 123t16.5 96v29 q-33 0 -54.5 -17.5t-35 -43t-22.5 -57.5t-15 -61q-6 -25 -10.5 -42t-8.5 -27l-2 -6l2 2q-6 -10 -9 -22.5t-7 -24.5q-10 -35 -23.5 -75t-35 -74t-51 -57.5t-72.5 -23.5t-76 32t-55.5 75t-37 90t-22.5 78q-4 10 -8 26q-2 6 -4 13.5t-4 15.5v2q-12 41 -24.5 83t-30 76t-42 54.5 t-61.5 20.5q-43 0 -69.5 -20.5t-45 -53.5t-30 -75t-21.5 -87l-12 -55v-2q-10 -37 -22.5 -84t-34 -88t-53 -70t-81.5 -29h-2q-37 0 -63.5 22.5t-48 59.5t-39 84t-35.5 98q-6 8 -6 19v-2h2l-1 4t-3 8l-6 12l2 -2q-4 14 -9.5 27.5t-9.5 30.5q-10 33 -21.5 65.5t-24.5 58 t-30.5 41t-40.5 15.5q-35 0 -34 -35z" />
<glyph unicode="x" horiz-adv-x="874" d="M45 57q0 -23 5 -30t22 -7q33 0 65.5 33t65.5 74q23 27 45 53.5t48 48t55.5 34.5t66.5 13q35 0 65.5 -13t57 -33.5t50 -47t46.5 -53.5q33 -41 64.5 -75t60.5 -34q16 0 27.5 2.5t11.5 16.5q0 27 -28 70t-64 96h2q-51 70 -95.5 143.5t-44.5 143.5q0 78 34 142t71 122 q4 4 5 8t5 8q18 29 31.5 56.5t17.5 60.5h-20q-29 0 -54.5 -23.5t-50.5 -54.5q-35 -41 -76.5 -79t-109.5 -38t-112 41t-83 88q-27 29 -50 49.5t-48 22.5q0 -2 1 -4t1 -8h-33q0 -29 20.5 -60.5t45.5 -68.5q41 -55 75.5 -122t34.5 -145q0 -35 -13 -71.5t-34.5 -75.5t-48 -77 t-51.5 -73q-35 -47 -59.5 -83.5t-24.5 -49.5zM229 823q0 -1 1 -1l-1 3v-2z" />
<glyph unicode="y" horiz-adv-x="909" d="M27 860q0 -29 18 -75t41 -99l2 -2l-2 6l18 -49l209 -500q29 -66 39 -118t10 -103q0 -47 -11 -84t-28.5 -66.5t-36 -52t-30.5 -36.5h-2q-39 -39 -75 -56.5t-70 -34.5q-2 -2 -5 -2h-2q-29 -14 -49 -25.5t-20 -23.5q0 -16 21.5 -28.5t60.5 -12.5q72 0 124 23.5t94 71t79 121 t75 175.5l310 807q27 66 38 107t11 61q0 10 -5 20.5t-22 10.5q-23 0 -41 -15.5t-31.5 -40t-24.5 -53t-20 -53.5v-2l-61 -174q-31 -88 -74 -147.5t-114 -59.5q-35 0 -64 17.5t-52.5 45t-42 63.5t-32.5 73l-67 172v2q-14 35 -28.5 68.5t-31 59.5t-36 42t-44.5 16 q-18 0 -23 -15t-5 -34zM104 -410l2 2l-2 -2h2h3h-3h-2z" />
<glyph unicode="z" horiz-adv-x="804" d="M37 102q0 -47 32.5 -71.5t86.5 -24.5h24l420 12h80v33q-8 0 -35 1t-61 5q-47 2 -95.5 7.5t-87.5 21.5t-64.5 48t-25.5 89q0 39 18.5 78t49.5 79t70.5 81t80.5 82q39 37 76 74.5t65.5 74.5t47 73t18.5 71q0 45 -39 66.5t-88 21.5h-6l-274 -6q-35 -2 -64.5 -3.5t-52.5 -1.5 q-20 0 -34.5 -1t-24.5 -1h-13q-2 0 -8 -4l14 -30l7 2q4 0 8 -1t12 -1q10 -2 22.5 -3.5t24.5 -3.5q41 -4 84 -11t78 -24.5t56.5 -48t21.5 -81.5q0 -39 -19.5 -79t-51.5 -82t-73 -84t-81 -83q-37 -37 -73 -74t-63.5 -71.5t-45 -67.5t-17.5 -62z" />
<glyph unicode="{" horiz-adv-x="747" d="M168 592q0 -23 13.5 -41.5t31.5 -36.5h2q18 -20 39.5 -46t38 -64.5t28 -94t11.5 -133.5v-160q0 -72 15 -135t75 -123q18 -18 78 -28q12 -16 12 -17l33 4v7q4 0 6 -1.5t6 -1.5l-12 13v22h-25q-10 10 -12 11.5t-8 5.5q-4 2 -4 4l-2 2l-5 4h-4l-30 31v-2q-33 37 -47.5 91 t-14.5 113v156q0 74 -5 124t-12 84t-17.5 54.5t-18.5 36.5l-2 2q-2 2 -2 4t-2 4l2 -6q-10 23 -17.5 44.5t-7.5 66.5q0 53 9.5 81.5t21.5 57.5q8 18 16.5 38.5t15.5 52.5t12 77t5 111v129q0 66 14.5 133t53.5 106l47 47v2q6 6 10 8.5t6 2.5l17 16v4l18 18q-4 -2 -10 -2 q-4 0 -8 -2v23q-27 -16 -33 -21.5t-14 -13.5q-35 -12 -64 -26.5t-43 -28.5q-35 -37 -46 -105.5t-11 -138.5v-151q0 -84 -11.5 -140.5t-28 -93.5t-38 -59.5t-39.5 -40.5l-4 -4q-16 -16 -27.5 -32t-11.5 -42z" />
<glyph unicode="|" horiz-adv-x="532" d="M215 203q0 -96 7 -150.5t24 -54.5q25 0 31 55.5t6 149.5v973q0 109 -6 173t-31 64q-16 0 -23.5 -64.5t-7.5 -172.5v-973z" />
<glyph unicode="}" horiz-adv-x="743" d="M141 -276q20 4 35 8v-2q-4 0 -8 -13.5t-4 -35.5q25 37 30 44t9 11l-2 2q76 23 116 59q20 20 31.5 52t17 71t6.5 80t1 80v115q0 86 11 143t27.5 94t38 58.5t39.5 37.5l9 7h-2q16 16 27.5 31.5t11.5 37.5q0 23 -11.5 37t-27.5 31l-4 4q-20 20 -42 44.5t-40.5 62.5 t-29.5 91.5t-11 131.5v127q0 43 -1 83.5t-10.5 78.5t-28 73t-50.5 70q-10 10 -33 17t-51 13q-6 6 -7 11h-32v-4h-9q6 -8 11.5 -15.5t11.5 -11.5v-8h6q12 -12 25 -21q4 -4 7 -5t7 -5q12 -8 31 -29q43 -45 52 -113.5t9 -164.5v-96q0 -68 4 -114t11.5 -77t16.5 -51.5t17 -34.5 q14 -25 23.5 -49.5t9.5 -69.5q0 -53 -10 -81.5t-23 -57.5q-8 -16 -16 -36.5t-15.5 -50.5t-12.5 -72t-5 -103v-107q0 -102 -12 -169.5t-47 -106.5h-2l-41 -41l-10 -10q-5 -1 -13 -13h-6v-6q-10 -10 -21.5 -19t-13.5 -13z" />
<glyph unicode="~" horiz-adv-x="757" d="M84 1112q0 -16 13.5 -21.5t35.5 -5.5q27 0 41 6.5t25 16.5q16 10 34.5 20.5t49.5 10.5q16 0 33.5 -8.5t37.5 -18.5q23 -10 48.5 -21.5t60.5 -11.5q41 0 74.5 16.5t58.5 39t38 49t13 49.5q0 16 -15.5 21.5t-31.5 5.5q-18 0 -36.5 -8.5t-35.5 -16.5h-6q-2 -2 -5 -4t-5 -4 l6 2q-16 -8 -31.5 -13.5t-37.5 -5.5q-20 0 -38 6.5t-34 16.5h-2q-20 10 -46 20.5t-63 10.5q-53 0 -88 -21.5t-55.5 -49.5t-29.5 -52.5t-9 -28.5z" />
<glyph unicode="&#xa1;" horiz-adv-x="473" d="M172 1096q0 -25 18.5 -43.5t42.5 -18.5q23 0 40.5 18.5t17.5 43.5q0 23 -17.5 38t-40.5 15q-25 0 -43 -14.5t-18 -38.5zM178 -111q0 -23 3 -48t9.5 -47.5t16.5 -38t26 -15.5q18 0 29.5 15.5t17 39t6.5 49t1 45.5v617q0 29 -3 58.5t-9.5 53t-16.5 39t-25 15.5 q-16 0 -26 -15.5t-16.5 -40t-9.5 -54.5t-3 -56v-617z" />
<glyph unicode="&#xa2;" horiz-adv-x="819" d="M45 598q0 -117 36 -196.5t83 -131t93 -77t65 -33.5h-3l15 -6q33 -20 57.5 -42t40.5 -38q4 -2 7 -5t7 -8h5q18 -18 33.5 -25t37.5 -7q29 0 39 9t21 23q12 18 29.5 37t52.5 39q29 12 53 28.5t24 45.5q0 10 -10 16t-26 11q-2 0 -5.5 1t-5.5 1q-16 4 -33.5 10t-37.5 18h2 q-31 23 -42.5 39.5t-19.5 30.5q-4 10 -10 16t-27 6q-23 0 -34 -18v2q-14 -20 -40 -39.5t-100 -19.5q-18 0 -53 14t-69.5 49t-60.5 95.5t-28 150.5q0 59 16.5 118.5t44 106.5t63.5 76t77 29q61 0 84 -18.5t39 -43.5q8 -12 24.5 -21.5t57.5 -9.5v17q0 -2 3 5t7 15 q12 29 28.5 53.5t51.5 32.5q4 0 7 1t7 1q16 4 27 7q25 6 44 13t19 28q0 27 -23.5 40t-41.5 21h2q-10 6 -12 7t-7 3l3 -2q-12 6 -24.5 16.5t-27.5 22.5q-23 18 -49 36.5t-55 18.5q-16 0 -40 -18.5t-50 -40.5l-2 -2v2l-2 -2h2q-20 -18 -41 -33.5t-39 -21.5q-31 -12 -79 -39 t-95 -79t-81 -133t-34 -202z" />
<glyph unicode="&#xa3;" horiz-adv-x="1138" d="M207 37q0 -16 15.5 -25.5t39 -14.5t51 -7t49.5 -2h93q35 0 79 2t109.5 5t183.5 9q8 0 15.5 1t17.5 1h12q16 0 33 -1t33 -1q23 0 35 4t12 21h-33q0 10 -36.5 12t-69.5 2q-84 0 -153.5 15.5t-119 53.5t-77 102.5t-27.5 164.5v6q0 63 17.5 112.5t46 85t65.5 60.5t76 43 q20 -8 29.5 -10t17.5 -4q4 -2 10 -3t10 -3h2q8 -4 17 -4q12 0 19 9t7 34q0 27 -7 33.5t-19 6.5q-8 0 -17 -4q-8 -2 -14 -4t-16 -4l-41 -10q-39 14 -75 36.5t-63.5 52.5t-45 70t-17.5 93q0 45 18.5 107.5t58.5 117.5t104.5 94t156.5 39q16 0 39.5 -3t48.5 -7h-2q8 -2 14 -2 t15 -2q10 -2 22 -4t23.5 -3t17.5 -2t4 -1q20 0 34.5 7t14.5 25t-25.5 35t-64.5 27t-82 16t-77 6q-72 0 -123.5 -12t-89 -30.5t-62 -39t-41.5 -36.5q-43 -43 -79 -117t-36 -160q0 -55 -9 -95t-23.5 -69.5t-31.5 -52t-33.5 -41t-29 -35t-12.5 -39.5q0 -16 8.5 -26t18.5 -21 q14 -14 32.5 -33.5t34 -51t25.5 -79t10 -114.5q0 -76 -10 -125t-27.5 -82t-37 -51.5t-37.5 -32.5v2q-14 -10 -22.5 -19.5t-8.5 -27.5zM743 666h5q2 0 2 -2h2z" />
<glyph unicode="&#xa4;" horiz-adv-x="1349" d="M-12 453q0 -16 34.5 -24.5t75.5 -8.5h86l37 -25q35 -84 91.5 -160.5t139.5 -135t192.5 -93.5t250.5 -35q106 0 184 17.5t128 41t75 50t25 45.5q0 23 -10.5 40t-39.5 17t-51 -9t-47 -23l-7 -3.5l-7 -3.5q-45 -23 -103.5 -46t-152.5 -23q-168 0 -293 82t-199 211l31 53h297 q43 0 79 8t36 25q0 23 -37 34t-78 11h-358l-35 24q-16 47 -21.5 94.5t-5.5 94.5q0 33 2 61.5t6 56.5l37 31h434q43 0 79 8.5t36 24.5q0 23 -37 34t-78 11h-389l-33 51q37 82 94.5 148.5t127 111.5t148.5 69.5t163 24.5q82 0 133 -17t92 -34q25 -12 47.5 -20t44.5 -8 q51 0 52 47q0 23 -27 46t-76 42.5t-117.5 32t-150.5 12.5q-125 0 -234.5 -32t-199.5 -92t-155.5 -150.5t-102.5 -206.5l-35 -25h-8q-43 0 -77 -11.5t-34 -33.5q0 -18 26.5 -24.5t61.5 -8.5l35 -41q-6 -68 -6 -133q0 -39 2 -76t10 -69l-35 -43h-43q-43 0 -76.5 -11.5 t-33.5 -33.5z" />
<glyph unicode="&#xa5;" horiz-adv-x="1050" d="M-8 1333q0 -29 27.5 -78t72.5 -112h-2l170 -246v2q29 -41 54.5 -85t50.5 -89l-33 -53h-135q-43 0 -77 -11.5t-34 -33.5q0 -18 35 -25.5t76 -7.5h194l35 -27q18 -68 18 -118v-25l-38 -39h-213q-43 0 -77 -11.5t-34 -33.5q0 -16 35 -24.5t76 -8.5h213l38 -39v-147 q0 -51 17.5 -83t46.5 -32q33 0 49 37t16 84v141l39 39h207q43 0 79 8.5t36 24.5q0 23 -37 34t-78 11h-207l-39 39v41q0 23 2.5 47.5t12.5 52.5l35 29h200q43 0 79 8t36 25q0 23 -37 34t-78 11h-141l-31 53q25 49 53.5 94t57.5 86l178 258h-2q41 57 66.5 103.5t25.5 72.5 q0 25 -11 31t-22 6q-47 0 -92 -50t-86 -118l-55 -94q-27 -45 -54.5 -86t-56 -71.5t-61.5 -49t-70 -18.5q-43 0 -77.5 18.5t-65.5 49t-56.5 71.5t-50.5 86l-49 84v2q-41 74 -88 129t-106 55q-23 0 -30 -16t-7 -35z" />
<glyph unicode="&#xa6;" horiz-adv-x="411" d="M66 205q0 -57 8 -109.5t23.5 -92.5t38 -63.5t50.5 -23.5q37 0 60.5 23.5t38 63.5t19.5 92.5t5 109.5t-4 109.5t-17.5 92t-38 64.5t-63.5 25q-35 0 -58.5 -25t-37.5 -64.5t-19 -92t-5 -109.5zM66 1124q0 -55 8 -107t23.5 -92t38 -64.5t50.5 -24.5q37 0 60.5 24.5t38 64.5 t19.5 92t5 107q0 57 -4 109.5t-17.5 92.5t-38 64.5t-63.5 24.5q-35 0 -58.5 -24.5t-37.5 -64.5t-19 -92t-5 -110z" />
<glyph unicode="&#xa7;" horiz-adv-x="884" d="M41 690q0 -59 22.5 -99t57.5 -67.5t80 -46t90 -35.5q49 -16 94 -34.5t81 -44t57.5 -63.5t21.5 -95q0 -29 -12.5 -61.5t-38 -60.5t-66.5 -47.5t-96 -19.5q-37 0 -73 8.5t-66 20.5q-8 2 -12.5 3t-10.5 3l2 -2q-10 4 -18.5 6t-12.5 2h-30q0 -20 22.5 -35.5t55 -24.5 t68.5 -14.5t65 -5.5q94 0 164.5 19.5t116.5 51.5t69.5 73t23.5 84q0 66 -18.5 109.5t-48.5 72.5l14 62q86 33 130 86t44 114q0 72 -23.5 120t-60.5 79t-83 49t-91 35h-2q-45 16 -87 32.5t-75 41t-52 61.5t-19 92q0 47 22.5 78t53 49.5t60 25.5t44.5 7q39 0 67 -6v-2 q27 -6 66 -6h45q0 20 -20.5 35.5t-49 25.5t-59.5 15t-49 5q-57 0 -117.5 -14t-111 -44t-82 -78t-31.5 -115q0 -59 17.5 -97.5t47.5 -62.5l-8 -62q-74 -27 -126 -82t-52 -141zM203 715q0 47 22.5 77.5t53 49t60.5 25.5t44 7q25 0 53 -6h-2q12 -4 23 -4q6 -2 16 -2q2 0 5 -1 t7 -1q76 -31 128.5 -77t52.5 -134q0 -25 -9.5 -52.5t-29 -54t-49 -47t-70.5 -28.5h-16q-16 2 -17 4q-8 4 -17 7t-22 9q-45 16 -87 33t-74.5 41.5t-52 60.5t-19.5 93z" />
<glyph unicode="&#xa8;" horiz-adv-x="1005" d="M250 1366q0 -20 13 -35.5t36 -15.5q27 0 41 15.5t14 35.5q0 16 -13 29.5t-42 13.5q-27 0 -38 -13.5t-11 -29.5zM698 1366q0 -20 13.5 -35.5t36.5 -15.5q29 0 43 15.5t14 35.5q0 16 -13 29.5t-44 13.5q-27 0 -38.5 -13.5t-11.5 -29.5z" />
<glyph unicode="&#xa9;" horiz-adv-x="1761" d="M127 688q0 -139 56.5 -273t153.5 -239.5t227 -171t276 -65.5q156 0 289 66.5t231 174t153.5 242.5t55.5 272q0 131 -48 268.5t-141.5 249t-229.5 183t-312 71.5h-4q-127 0 -236 -41t-196 -113.5t-148 -172t-94 -213.5q-16 -47 -24.5 -102.5t-8.5 -114.5v-21zM160 698 q0 57 8 111.5t25 108.5q37 117 110.5 203.5t163.5 145t186.5 87t180.5 28.5q111 0 231.5 -41t223 -123.5t169 -205.5t66.5 -287q0 -158 -55.5 -287t-149.5 -220t-218 -141t-261 -50q-150 0 -274 56t-214 150.5t-140 215t-52 249.5zM530 725q0 -78 19.5 -147.5t60.5 -120.5 q45 -66 114 -107t153 -41q70 0 110.5 18.5t67.5 34.5q10 4 17 9.5t7 15.5q0 14 -2 16.5t-16 2.5q-8 0 -8 6l-33 4q-2 -4 -16.5 -10.5t-38 -11.5t-52 -9t-59.5 -4q-76 0 -129 25.5t-88 70.5q-70 94 -70 225q0 72 20.5 138.5t57.5 120.5q33 33 82 53t117 20q82 0 134 -11 t56 -22l33 5q0 4 1 5l1 1v32q-2 0 -7 4.5t-15 8.5q-35 16 -82 32.5t-111 16.5q-72 0 -129 -32t-100 -85q-55 -55 -75 -130t-20 -134z" />
<glyph unicode="&#xaa;" horiz-adv-x="733" d="M63 918q0 -43 15.5 -73t39 -48.5t49.5 -27.5t44 -11q31 -18 49 -23l-16 -16h14h31q16 0 31.5 -1t23.5 -1l2 16v-16h25v33h-23q-8 0 -16 1t-25 5q-4 16 -27.5 25.5t-46.5 9.5h-12q-31 23 -52.5 56.5t-21.5 78.5q0 59 39 104q35 12 74 17.5t76 5.5q29 0 64.5 7t66.5 23 q33 -25 55.5 -56.5t22.5 -65.5q0 -31 -9.5 -61t-22.5 -55.5t-28.5 -46t-25.5 -32.5q6 2 13 3t13 3h4h11l8 2q2 0 6 4q39 6 57 6h2q29 0 40.5 20.5t11.5 45.5v297q0 102 -38 165.5t-110 86.5q-37 23 -77 34t-66 11q-43 0 -77 -6t-62 -13q-6 -2 -15 -2q-6 0 -10 -2h2 q-23 -6 -35 -6l-2 -33q14 0 15 -22h32q0 2 57.5 9t155.5 7q31 0 68 -10q33 -23 55.5 -53.5t22.5 -67.5q0 -35 -20.5 -65.5t-53.5 -55.5q-27 14 -53.5 21.5t-46.5 7.5q-27 0 -84.5 -22.5t-108.5 -69.5q-47 -18 -79 -53t-32 -90z" />
<glyph unicode="&#xab;" horiz-adv-x="917" d="M55 543q0 -35 40 -62.5t81 -50.5l4 -2q4 -2 6 -2q10 -4 16.5 -8t10.5 -8l-4 10l16 6l-12 -16q20 -16 37 -29t33 -23l86 -57l-4 2q2 -2 4 -3t4 -3l3 -3t5 -3l2 -2v2v2l2 -2q12 -10 20.5 -17.5t10.5 -13.5l33 4q0 10 14 12v33q-12 2 -31.5 11.5t-42.5 23.5l-151 88 q-23 23 -36.5 48.5t-13.5 62.5q0 45 19.5 73.5t50.5 51.5l2 2q2 0 4 2l119 65h2q27 16 49.5 28.5t34.5 16.5l-4 31q-10 0 -14 16l-31 2q-4 -16 -17.5 -27t-29.5 -22l-92 -59q-10 -8 -18.5 -14.5t-18.5 -12.5v-2l-41 -20l-29 -17q-47 -25 -83 -49t-36 -65zM449 541 q0 -35 39.5 -62.5t80.5 -50.5l5 -2q4 -2 6 -2q10 -4 16 -8t10 -8l-4 10l16 6l-12 -16q20 -16 37 -29t33 -23l86 -57l-4 2q2 -2 4 -3t4 -3l3 -3t5 -3v-2h2v2h2q12 -10 20.5 -17.5t10.5 -13.5l33 4q0 10 14 12v33q-12 2 -31.5 11.5t-42.5 23.5l-151 88q-23 23 -36 48.5 t-13 62.5q0 45 19.5 73.5t49.5 51.5l6 4l119 65h2q27 16 49.5 28.5t34.5 16.5l-4 31q-10 0 -14 16l-31 2q-4 -16 -17.5 -27t-29.5 -22l-92 -59q-10 -8 -18.5 -14.5t-18.5 -12.5v-2l-41 -20l-29 -17q-47 -25 -82.5 -49t-35.5 -65z" />
<glyph unicode="&#xad;" horiz-adv-x="1130" d="M133 606q0 -18 35 -25.5t76 -7.5h651q43 0 79 8.5t36 24.5q0 23 -36 33t-79 10h-651q-43 0 -77 -11t-34 -32z" />
<glyph unicode="&#xae;" horiz-adv-x="950" d="M33 1012q0 -82 28.5 -155t82 -128t129 -88t169.5 -33q90 0 168 29t135.5 81t90 127t32.5 167q0 111 -33.5 191.5t-90 133t-130 78t-155.5 27.5v-33q74 -4 138.5 -31.5t112.5 -79t74.5 -124t26.5 -162.5q0 -76 -26.5 -143.5t-76 -118t-117 -79t-149.5 -28.5 q-84 0 -149.5 34t-110.5 87t-68.5 119t-23.5 129q0 92 28.5 164.5t76 124t107.5 78t126 30.5v33q-94 -4 -168 -38t-124 -92.5t-76.5 -135t-26.5 -164.5zM338 823q0 -23 6 -41t14 -18q10 0 16.5 21.5t6.5 50.5v145q0 88 19.5 131t41.5 62q4 4 13.5 12t21.5 18q33 0 52.5 5 t35.5 16h-2q2 0 10 4q13 4 21 4q10 0 16 13.5t6 33.5h-18q-10 0 -51 -10v-2q-39 -8 -80 -31q-41 2 -51 8l-2 2q-6 2 -14.5 3t-22.5 1q-27 0 -33 -25.5t-6 -47.5v-355z" />
<glyph unicode="&#xb1;" horiz-adv-x="1042" d="M72 815q0 -23 20 -22q20 0 53 -5q2 0 6.5 -1t8.5 -1q57 -4 122.5 -17t123.5 -71q47 -47 60 -109.5t17 -121.5q4 -43 10.5 -72.5t32.5 -29.5q4 29 5 47t6 55q4 59 17 120.5t58 106.5q57 57 125 71.5t127 18.5q31 4 47 4t41 3q0 33 -32.5 40t-79.5 11q-55 4 -111.5 14 t-97.5 51q-57 57 -72.5 126t-21.5 130q-4 37 -8.5 63.5t-20.5 35.5l-21 -25q2 -2 2 -6q0 -8 -1 -22.5t-3 -32.5q-6 -63 -22.5 -135t-75.5 -132q-49 -49 -110.5 -59t-114.5 -12q-8 0 -16.5 -1t-14.5 -1q-27 -2 -43 -12zM76 190q0 -18 34.5 -25t75.5 -7h652q43 0 78.5 8 t35.5 24q0 23 -35.5 33t-78.5 10h-652q-43 0 -76.5 -11t-33.5 -32z" />
<glyph unicode="&#xb4;" horiz-adv-x="454" d="M182 1153q0 -37 5.5 -50t23.5 -13q14 0 34.5 33.5t37 79.5t29 93t12.5 72q0 41 -35 41q-27 0 -46.5 -31.5t-32.5 -73.5t-20.5 -85t-7.5 -66z" />
<glyph unicode="&#xb6;" horiz-adv-x="1150" d="M111 799q0 -82 26.5 -136.5t69.5 -86t94 -45t100 -13.5q41 0 60.5 -37t19.5 -86v-626q0 -31 14.5 -61t41.5 -30t36 30t9 61v1028q0 33 10 66.5t28.5 60t42 43t50.5 16.5q20 0 41.5 -14.5t39 -40t27.5 -59t10 -72.5v-1028q0 -33 14.5 -62t37.5 -29q29 0 38 28t9 63v1271 q0 41 -26.5 58.5t-63.5 17.5h-342q-115 0 -190 -16.5t-119 -54t-61 -98t-17 -148.5zM219 803q0 25 9.5 55.5t27.5 56t43 43t55 17.5q33 0 56.5 -17.5t40 -44t24.5 -56t8 -54.5q0 -27 -8 -54.5t-25.5 -50t-42 -37t-55.5 -14.5q-33 0 -57.5 14.5t-41.5 37t-25.5 50t-8.5 54.5z " />
<glyph unicode="&#xb7;" horiz-adv-x="370" d="M119 631q0 -23 17.5 -40.5t39.5 -17.5q23 0 42.5 17.5t19.5 40.5q0 25 -19.5 44t-42.5 19q-27 0 -42 -19.5t-15 -43.5z" />
<glyph unicode="&#xba;" horiz-adv-x="692" d="M80 1075q0 -51 18.5 -96t51 -79t79.5 -54.5t105 -20.5q115 0 190.5 67.5t75.5 182.5q0 72 -21.5 123t-58.5 83t-85 47t-101 15q-61 0 -108.5 -20t-79 -57t-49 -86.5t-17.5 -104.5zM88 485q0 -18 35 -25t76 -7h282q43 0 79 8t36 24q0 23 -36 33t-79 10h-282q-43 0 -77 -11 t-34 -32zM160 1081q0 98 54 150.5t126 52.5q80 0 135 -52t55 -151q0 -78 -53 -133t-137 -55q-43 0 -77 17.5t-57.5 45t-34.5 61t-11 64.5z" />
<glyph unicode="&#xbb;" horiz-adv-x="917" d="M37 780q12 -4 35.5 -16t50.5 -29h2l123 -71q31 -23 51 -49.5t20 -73.5q0 -35 -11 -59.5t-29 -43.5q-12 0 -13 -8l-147 -88q-23 -14 -42.5 -23.5t-31.5 -11.5v-33q12 -2 14 -16l31 -2q2 6 11.5 14.5t21.5 18.5l2 2v-2v-2l2 2q2 2 4 3t4 3l4 4l86 57q4 4 9.5 7.5t9.5 7.5 q10 8 24.5 18t22.5 17q12 8 22 14q6 4 23 12q4 2 7 4t7 4q37 23 70 47.5t33 53.5q0 41 -36 65.5t-83 48.5q-10 4 -19 9q-4 2 -8 6l-41 20q-10 6 -18 14l-8 7l4 -2q-4 4 -6 4t-7 4l-96 61q-2 0 -2 2q-16 10 -28.5 21.5t-14.5 23.5h-33q-4 -14 -16 -14zM430 782 q12 -4 35.5 -16t50.5 -29h2l123 -71q31 -23 51.5 -49.5t20.5 -73.5q0 -35 -11.5 -59.5t-29.5 -43.5q-12 0 -13 -8l-147 -88q-23 -14 -42 -23.5t-32 -11.5v-33q12 -2 15 -16l30 -2q2 6 11.5 14.5t21.5 18.5l2 2v-2v-2l2 2q2 2 4 3t4 3l4 4l86 57q4 4 9.5 7.5t9.5 7.5 q10 8 24.5 18t22.5 17q12 8 23 14q6 4 22 12q4 2 7 4t7 4q37 23 70 47.5t33 53.5q0 41 -36 65.5t-83 48.5q-10 4 -18 9q-4 2 -9 6l-41 20q-10 6 -18 14l-8 7l4 -2q-4 4 -6 4t-6 4l-97 61q-2 0 -2 2q-16 10 -28.5 21.5t-14.5 23.5h-32q-4 -14 -17 -14z" />
<glyph unicode="&#xbf;" horiz-adv-x="894" d="M57 113q0 -72 31 -131.5t83 -101.5t124 -65.5t151 -23.5q88 0 157 26.5t114 63.5t68.5 74t23.5 59q0 29 -11.5 39t-25.5 10q-35 0 -60.5 -18t-49.5 -41q-37 -35 -84.5 -65.5t-122.5 -30.5q-74 0 -123 25.5t-79 64.5t-42 82t-12 80q0 49 14 91t37.5 81t53.5 73.5t61 67.5 q47 51 83.5 100.5t36.5 100.5q0 25 -7 46t-27 21q-25 0 -43.5 -28.5t-38.5 -69.5q-16 -35 -39 -74t-62 -75q-2 -2 -4 -2l-2 -2q-2 -3 -6 -6t-8 -7v-4q-25 -23 -57.5 -57.5t-62.5 -79.5t-50.5 -101t-20.5 -122zM399 1153q0 -23 14.5 -41t49.5 -18q27 0 40 18t13 41 q0 20 -12 37.5t-41 17.5t-46.5 -17t-17.5 -38z" />
<glyph unicode="&#xc0;" horiz-adv-x="1280" d="M-4 49q0 -47 53 -47q29 0 57.5 45t55.5 94q14 29 30.5 55.5t32.5 43.5l2 2q33 33 65 52t68.5 28.5t82.5 11.5t110 2h139q55 0 98.5 -3t80 -12.5t67.5 -27t61 -47.5q29 -29 48.5 -60.5t35.5 -62.5q25 -47 52.5 -85t76.5 -38q27 0 34 15.5t7 23.5v2q0 23 -14 66t-34.5 95 t-44 106t-44.5 102q-2 4 -2 6t-2 6v-2l-20 41v4l-246 563q-8 16 -13.5 30.5t-11.5 31.5q-4 6 -7 18t-7 18v-2q-23 55 -42.5 99.5t-41 77t-46 50t-56.5 17.5q-57 0 -94.5 -64.5t-77.5 -164.5l-13 -31q-4 -12 -10 -25.5t-10 -25.5l-250 -570v2q-2 -4 -4 -9t-4 -9l2 2l-13 -27 q-18 -43 -44.5 -100t-50 -113.5t-40 -106.5t-16.5 -77zM365 618q0 16 8 54.5t24.5 86.5t39 100t50 95t59.5 71t66 28q37 0 71 -28t61.5 -70t50 -92t38 -97t23.5 -85t8 -52q0 -96 -55 -154.5t-193 -58.5q-119 0 -185 48t-66 154zM547 1798q0 -25 12 -72t28.5 -93t36 -79.5 t35.5 -33.5q18 0 23.5 13t5.5 50q0 23 -7 66t-20.5 85t-33 73.5t-45.5 31.5q-35 0 -35 -41z" />
<glyph unicode="&#xc1;" horiz-adv-x="1280" d="M-4 49q0 -47 53 -47q29 0 57.5 45t55.5 94q14 29 30.5 55.5t32.5 43.5l2 2q33 33 65 52t68.5 28.5t82.5 11.5t110 2h139q55 0 98.5 -3t80 -12.5t67.5 -27t61 -47.5q29 -29 48.5 -60.5t35.5 -62.5q25 -47 52.5 -85t76.5 -38q27 0 34 15.5t7 23.5v2q0 23 -14 66t-34.5 95 t-44 106t-44.5 102q-2 4 -2 6t-2 6v-2l-20 41v4l-246 563q-8 16 -13.5 30.5t-11.5 31.5q-4 6 -7 18t-7 18v-2q-23 55 -42.5 99.5t-41 77t-46 50t-56.5 17.5q-57 0 -94.5 -64.5t-77.5 -164.5l-13 -31q-4 -12 -10 -25.5t-10 -25.5l-250 -570v2q-2 -4 -4 -9t-4 -9l2 2l-13 -27 q-18 -43 -44.5 -100t-50 -113.5t-40 -106.5t-16.5 -77zM365 618q0 16 8 54.5t24.5 86.5t39 100t50 95t59.5 71t66 28q37 0 71 -28t61.5 -70t50 -92t38 -97t23.5 -85t8 -52q0 -96 -55 -154.5t-193 -58.5q-119 0 -185 48t-66 154zM547 1587q0 -37 5 -50t23 -13q14 0 35 33.5 t37.5 79.5t28.5 93t12 72q0 41 -35 41q-27 0 -46 -31.5t-32.5 -73.5t-20.5 -85t-7 -66z" />
<glyph unicode="&#xc2;" horiz-adv-x="1280" d="M-4 49q0 -47 53 -47q29 0 57.5 45t55.5 94q14 29 30.5 55.5t32.5 43.5l2 2q33 33 65 52t68.5 28.5t82.5 11.5t110 2h139q55 0 98.5 -3t80 -12.5t67.5 -27t61 -47.5q29 -29 48.5 -60.5t35.5 -62.5q25 -47 52.5 -85t76.5 -38q27 0 34 15.5t7 23.5v2q0 23 -14 66t-34.5 95 t-44 106t-44.5 102q-2 4 -2 6t-2 6v-2l-20 41v4l-246 563q-8 16 -13.5 30.5t-11.5 31.5q-4 6 -7 18t-7 18v-2q-23 55 -42.5 99.5t-41 77t-46 50t-56.5 17.5q-57 0 -94.5 -64.5t-77.5 -164.5l-13 -31q-4 -12 -10 -25.5t-10 -25.5l-250 -570v2q-2 -4 -4 -9t-4 -9l2 2l-13 -27 q-18 -43 -44.5 -100t-50 -113.5t-40 -106.5t-16.5 -77zM365 618q0 16 8 54.5t24.5 86.5t39 100t50 95t59.5 71t66 28q37 0 71 -28t61.5 -70t50 -92t38 -97t23.5 -85t8 -52q0 -96 -55 -154.5t-193 -58.5q-119 0 -185 48t-66 154zM403 1518q10 -2 19.5 -8.5t9.5 -10.5h33 q0 14 13.5 41t35.5 53h-2q23 20 46.5 36t51.5 16q33 0 59.5 -20.5t55.5 -47.5v2q4 -6 20 -18q27 -37 31 -60l33 2q0 8 12 13v32q-10 2 -24.5 12.5t-28.5 22.5q-31 37 -75 71t-83 34q-33 0 -64.5 -23t-58.5 -51l-26 -27q-14 -14 -27.5 -25.5t-27.5 -13.5z" />
<glyph unicode="&#xc3;" horiz-adv-x="1280" d="M-4 49q0 -47 53 -47q29 0 57.5 45t55.5 94q14 29 30.5 55.5t32.5 43.5l2 2q33 33 65 52t68.5 28.5t82.5 11.5t110 2h139q55 0 98.5 -3t80 -12.5t67.5 -27t61 -47.5q29 -29 48.5 -60.5t35.5 -62.5q25 -47 52.5 -85t76.5 -38q27 0 34 15.5t7 23.5v2q0 23 -14 66t-34.5 95 t-44 106t-44.5 102q-2 4 -2 6t-2 6v-2l-20 41v4l-246 563q-8 16 -13.5 30.5t-11.5 31.5q-4 6 -7 18t-7 18v-2q-23 55 -42.5 99.5t-41 77t-46 50t-56.5 17.5q-57 0 -94.5 -64.5t-77.5 -164.5l-13 -31q-4 -12 -10 -25.5t-10 -25.5l-250 -570v2q-2 -4 -4 -9t-4 -9l2 2l-13 -27 q-18 -43 -44.5 -100t-50 -113.5t-40 -106.5t-16.5 -77zM365 618q0 16 8 54.5t24.5 86.5t39 100t50 95t59.5 71t66 28q37 0 71 -28t61.5 -70t50 -92t38 -97t23.5 -85t8 -52q0 -96 -55 -154.5t-193 -58.5q-119 0 -185 48t-66 154zM371 1585l12 12q-6 -16 -6 -30q39 6 47 10h-2 q20 6 49 12h-2q10 2 21.5 3t23.5 1q29 0 59 -10v-2h2q4 -4 17 -4q10 -8 22 -10q14 -8 22.5 -11.5t14.5 -5.5v2q23 -12 47.5 -21t57.5 -9h10q8 0 18 2h2q23 0 43 37h5q10 0 16 6l-8 16q4 10 6 20.5t6 22.5l-29 -29l-12 -2v-10q0 2 -1 1l-1 -1v-2q-25 -6 -47 -10v-2h-27 q-37 0 -73 12v-2q-18 10 -38 18.5t-46 16.5q-49 27 -105 26h-12q-6 0 -17 -2h-2q-41 -8 -59 -36q-10 0 -12 -3.5t-2 -15.5zM383 1569l2 2v-2h-2zM651 1552l11 19l-5 -21z" />
<glyph unicode="&#xc4;" horiz-adv-x="1280" d="M-4 49q0 -47 53 -47q29 0 57.5 45t55.5 94q14 29 30.5 55.5t32.5 43.5l2 2q33 33 65 52t68.5 28.5t82.5 11.5t110 2h139q55 0 98.5 -3t80 -12.5t67.5 -27t61 -47.5q29 -29 48.5 -60.5t35.5 -62.5q25 -47 52.5 -85t76.5 -38q27 0 34 15.5t7 23.5v2q0 23 -14 66t-34.5 95 t-44 106t-44.5 102q-2 4 -2 6t-2 6v-2l-20 41v4l-246 563q-8 16 -13.5 30.5t-11.5 31.5q-4 6 -7 18t-7 18v-2q-23 55 -42.5 99.5t-41 77t-46 50t-56.5 17.5q-57 0 -94.5 -64.5t-77.5 -164.5l-13 -31q-4 -12 -10 -25.5t-10 -25.5l-250 -570v2q-2 -4 -4 -9t-4 -9l2 2l-13 -27 q-18 -43 -44.5 -100t-50 -113.5t-40 -106.5t-16.5 -77zM340 1581q0 -20 13.5 -35.5t35.5 -15.5q27 0 41 15.5t14 35.5q0 16 -13 29.5t-42 13.5q-27 0 -38 -13.5t-11 -29.5zM365 618q0 16 8 54.5t24.5 86.5t39 100t50 95t59.5 71t66 28q37 0 71 -28t61.5 -70t50 -92t38 -97 t23.5 -85t8 -52q0 -96 -55 -154.5t-193 -58.5q-119 0 -185 48t-66 154zM788 1581q0 -20 13.5 -35.5t36.5 -15.5q29 0 43 15.5t14 35.5q0 16 -13 29.5t-44 13.5q-27 0 -38.5 -13.5t-11.5 -29.5z" />
<glyph unicode="&#xc5;" horiz-adv-x="1280" d="M-4 49q0 -47 53 -47q29 0 57.5 45t55.5 94q14 29 30.5 55.5t32.5 43.5l2 2q33 33 65 52t68.5 28.5t82.5 11.5t110 2h139q55 0 98.5 -3t80 -12.5t67.5 -27t61 -47.5q29 -29 48.5 -60.5t35.5 -62.5q25 -47 52.5 -85t76.5 -38q27 0 34 15.5t7 23.5v2q0 23 -14 66t-34.5 95 t-44 106t-44.5 102q-2 4 -2 6t-2 6v-2l-20 41v4l-246 563q-8 16 -13.5 30.5t-11.5 31.5q-4 6 -7 18t-7 18v-2q-23 55 -42.5 99.5t-41 77t-46 50t-56.5 17.5q-57 0 -94.5 -64.5t-77.5 -164.5l-13 -31q-4 -12 -10 -25.5t-10 -25.5l-250 -570v2q-2 -4 -4 -9t-4 -9l2 2l-13 -27 q-18 -43 -44.5 -100t-50 -113.5t-40 -106.5t-16.5 -77zM365 618q0 16 8 54.5t24.5 86.5t39 100t50 95t59.5 71t66 28q37 0 71 -28t61.5 -70t50 -92t38 -97t23.5 -85t8 -52q0 -96 -55 -154.5t-193 -58.5q-119 0 -185 48t-66 154zM494 1612q0 -45 25.5 -76t62.5 -41 q12 -10 24 -10q6 0 13.5 2t17.5 10q35 12 62.5 44t27.5 67q0 23 -14 55h-2q-8 18 -21 29q-18 16 -39.5 27.5t-44.5 11.5q-18 0 -37.5 -10.5t-36 -27t-27.5 -38t-11 -43.5zM543 1630q0 25 17.5 40.5t45.5 15.5q37 -1 62 -19q6 -8 9 -13t7 -9v-3q0 -2 1 -3t1 -3 q0 -23 -18.5 -53.5t-38.5 -52.5q-10 -4 -23 -4q-8 0 -16 2q-20 20 -33.5 50t-13.5 52z" />
<glyph unicode="&#xc6;" horiz-adv-x="2152" d="M143 59q0 -20 23 -20h2q20 0 42.5 14.5t45.5 36t43 46t39 46.5q2 4 4 4t4 4l-2 -2q6 8 14.5 17.5t22.5 23.5q45 47 89 75t87 42t86 18.5t88 4.5h107q104 0 165.5 -22.5t96.5 -57.5t49 -78t25 -84q6 -25 13 -47.5t21.5 -39.5t37 -27.5t59.5 -10.5h491q37 0 72 1t60.5 5 t42 15.5t16.5 29.5t-20.5 28.5t-52.5 15.5t-70 6t-75 1h-149q-59 0 -116.5 7.5t-102.5 38t-71.5 90t-26.5 163.5q0 94 32.5 148.5t78.5 83.5t97.5 37t90.5 8h81q102 0 164 7t62 38q0 18 -21.5 28.5t-55.5 15.5t-79 7t-90 2h-107q-111 0 -180 68.5t-69 189.5q0 145 67.5 210 t214.5 65h131q43 0 85 2t74 6t51.5 13t19.5 24q0 20 -13.5 31.5t-36 16.5t-51 6t-57.5 1h-526q-63 0 -105.5 -18.5t-81.5 -65.5h-2l-745 -987v-2q-4 -4 -7 -6t-6 -6l3 2q-4 -6 -10.5 -13.5t-10.5 -13.5q-27 -35 -54.5 -70.5t-51 -69.5t-38 -60.5t-14.5 -41.5zM717 612 q0 33 32.5 94.5t80 123t102.5 107.5t100 46q49 0 78 -25.5t42 -64.5t17.5 -87t4.5 -91v-4q0 -76 -24 -126t-59.5 -81t-79.5 -43t-85 -12q-14 0 -49 2t-70 17t-62.5 49t-27.5 95z" />
<glyph unicode="&#xc7;" horiz-adv-x="1239" d="M53 686q0 -96 29 -202.5t90 -203t158.5 -172t236.5 -110.5l25 -25q8 -23 10 -42t2 -35q0 -47 -16.5 -79t-32.5 -59q-12 -18 -12 -26q-1 -33 22 -33q20 0 42 18.5t38.5 48t27.5 67.5t11 77q0 14 -2 22l39 43q16 -2 31.5 -3t31.5 -1q106 0 184.5 17.5t128.5 41t74.5 50 t24.5 45.5q0 23 -10 40t-39 17t-51.5 -9t-46.5 -23q-4 -2 -7.5 -3.5t-7.5 -3.5q-45 -23 -103.5 -46t-152.5 -23q-135 0 -242.5 55t-183.5 146.5t-116.5 205t-40.5 230.5q0 143 50 261t132 199.5t188.5 126.5t218.5 45q82 0 133.5 -17t92.5 -34q25 -12 47 -20t45 -8 q51 0 51 47q0 23 -26.5 46t-76 42.5t-118 32t-150.5 12.5q-158 0 -291 -50.5t-230 -147.5t-152.5 -238.5t-55.5 -321.5z" />
<glyph unicode="&#xc8;" horiz-adv-x="999" d="M84 213q0 -74 6 -114t28.5 -62.5t70 -27.5t133.5 -5h413q104 0 161.5 7t57.5 34q0 35 -56 47t-148 12h-232q-61 0 -116.5 10.5t-95.5 40t-63.5 82t-23.5 136.5q0 104 20.5 163.5t59.5 89t94.5 37t122.5 7.5h170q76 0 132 7t56 38q0 35 -50 44t-138 9h-154q-59 0 -114.5 6 t-98.5 30.5t-69.5 74t-26.5 133.5q0 94 23.5 147t64.5 81t99.5 35t130.5 7h133q104 0 174 8t70 43q0 29 -39 40t-121 11h-475q-63 0 -102.5 -6t-59.5 -24q-27 -27 -32 -81t-5 -136v-924zM440 1853q0 -25 12.5 -71.5t29 -93t36 -80t35.5 -33.5q18 0 23.5 13.5t5.5 49.5 q0 23 -7.5 66t-20.5 85t-32.5 73.5t-46.5 31.5q-35 0 -35 -41z" />
<glyph unicode="&#xc9;" horiz-adv-x="999" d="M84 213q0 -74 6 -114t28.5 -62.5t70 -27.5t133.5 -5h413q104 0 161.5 7t57.5 34q0 35 -56 47t-148 12h-232q-61 0 -116.5 10.5t-95.5 40t-63.5 82t-23.5 136.5q0 104 20.5 163.5t59.5 89t94.5 37t122.5 7.5h170q76 0 132 7t56 38q0 35 -50 44t-138 9h-154q-59 0 -114.5 6 t-98.5 30.5t-69.5 74t-26.5 133.5q0 94 23.5 147t64.5 81t99.5 35t130.5 7h133q104 0 174 8t70 43q0 29 -39 40t-121 11h-475q-63 0 -102.5 -6t-59.5 -24q-27 -27 -32 -81t-5 -136v-924zM459 1634q0 -37 5 -50t23 -13q14 0 35 33.5t37 80t28.5 93t12.5 71.5q0 41 -35 41 q-27 0 -46 -31.5t-32.5 -73.5t-20.5 -85t-7 -66z" />
<glyph unicode="&#xca;" horiz-adv-x="999" d="M84 213q0 -74 6 -114t28.5 -62.5t70 -27.5t133.5 -5h413q104 0 161.5 7t57.5 34q0 35 -56 47t-148 12h-232q-61 0 -116.5 10.5t-95.5 40t-63.5 82t-23.5 136.5q0 104 20.5 163.5t59.5 89t94.5 37t122.5 7.5h170q76 0 132 7t56 38q0 35 -50 44t-138 9h-154q-59 0 -114.5 6 t-98.5 30.5t-69.5 74t-26.5 133.5q0 94 23.5 147t64.5 81t99.5 35t130.5 7h133q104 0 174 8t70 43q0 29 -39 40t-121 11h-475q-63 0 -102.5 -6t-59.5 -24q-27 -27 -32 -81t-5 -136v-924zM309 1552q25 -6 29 -22h33q2 18 14 46t35 52h-2q23 20 46 35.5t52 15.5 q33 0 59.5 -20.5t55.5 -46.5v2q4 -6 20 -19q31 -41 31 -57h33q0 8 12 12v33q-10 2 -24.5 12.5t-28.5 22.5q-31 37 -75 70.5t-83 33.5q-33 0 -64.5 -22.5t-58.5 -50.5l-26 -27q-14 -14 -27.5 -25.5t-28.5 -13.5z" />
<glyph unicode="&#xcb;" horiz-adv-x="999" d="M84 213q0 -74 6 -114t28.5 -62.5t70 -27.5t133.5 -5h413q104 0 161.5 7t57.5 34q0 35 -56 47t-148 12h-232q-61 0 -116.5 10.5t-95.5 40t-63.5 82t-23.5 136.5q0 104 20.5 163.5t59.5 89t94.5 37t122.5 7.5h170q76 0 132 7t56 38q0 35 -50 44t-138 9h-154q-59 0 -114.5 6 t-98.5 30.5t-69.5 74t-26.5 133.5q0 94 23.5 147t64.5 81t99.5 35t130.5 7h133q104 0 174 8t70 43q0 29 -39 40t-121 11h-475q-63 0 -102.5 -6t-59.5 -24q-27 -27 -32 -81t-5 -136v-924zM246 1628q0 -20 13 -35.5t36 -15.5q27 0 41 15.5t14 35.5q0 16 -13 29.5t-42 13.5 q-27 0 -38 -13t-11 -30zM694 1628q0 -20 13.5 -35.5t35.5 -15.5q29 0 43.5 15.5t14.5 35.5q0 16 -13.5 29.5t-44.5 13.5q-27 0 -38 -13t-11 -30z" />
<glyph unicode="&#xcc;" horiz-adv-x="462" d="M129 1847q0 -25 12.5 -71.5t28.5 -93t35.5 -80t36.5 -33.5q18 0 23 13t5 50q0 23 -7 66t-20.5 85t-33 73.5t-45.5 31.5q-35 0 -35 -41zM152 174q0 -78 11 -126t54 -48q23 0 35 14.5t18 38t7.5 55t1.5 66.5v1081q0 23 -2.5 48.5t-8.5 47t-19 36t-34 14.5q-23 0 -36 -14.5 t-19 -37t-7 -48t-1 -46.5v-1081z" />
<glyph unicode="&#xcd;" horiz-adv-x="462" d="M152 174q0 -78 11 -126t54 -48q23 0 35 14.5t18 38t7.5 55t1.5 66.5v1081q0 23 -2.5 48.5t-8.5 47t-19 36t-34 14.5q-23 0 -36 -14.5t-19 -37t-7 -48t-1 -46.5v-1081zM162 1642q0 -37 5 -50t23 -13q14 0 35 34t37.5 80t28.5 93t12 72q0 41 -35 40q-27 0 -46 -31.5 t-32.5 -73.5t-20.5 -85t-7 -66z" />
<glyph unicode="&#xce;" horiz-adv-x="462" d="M-20 1589q25 -6 28 -22h33q2 18 14.5 45.5t34.5 52.5h-2q23 20 46.5 35.5t51.5 15.5q33 0 59.5 -20.5t55.5 -46.5v2q4 -6 21 -19q27 -37 30 -59l33 2q0 8 12 12v33q-10 2 -24.5 12t-28.5 23q-31 37 -75 70.5t-83 33.5q-33 0 -64.5 -22.5t-58.5 -50.5l-26 -27 q-14 -14 -27.5 -25.5t-27.5 -13.5zM152 174q0 -78 11 -126t54 -48q23 0 35 14.5t18 38t7.5 55t1.5 66.5v1081q0 23 -2.5 48.5t-8.5 47t-19 36t-34 14.5q-23 0 -36 -14.5t-19 -37t-7 -48t-1 -46.5v-1081z" />
<glyph unicode="&#xcf;" horiz-adv-x="462" d="M33 1655q0 -20 13 -35.5t36 -15.5q27 0 41 15t14 36q0 16 -13 29.5t-42 13.5q-27 0 -38 -13.5t-11 -29.5zM152 174q0 -78 11 -126t54 -48q23 0 35 14.5t18 38t7.5 55t1.5 66.5v1081q0 23 -2.5 48.5t-8.5 47t-19 36t-34 14.5q-23 0 -36 -14.5t-19 -37t-7 -48t-1 -46.5 v-1081zM295 1653q0 -20 13.5 -35.5t35.5 -15.5q29 0 43 15t14 36q0 16 -13 29.5t-44 13.5q-27 0 -38 -13.5t-11 -29.5z" />
<glyph unicode="&#xd0;" horiz-adv-x="1513" d="M-16 725q0 -18 34.5 -25.5t75.5 -7.5h90l39 -39v-446q0 -96 28 -151.5t124 -55.5h248q94 0 182 9t170 35t159.5 72t151.5 120q33 33 63.5 76.5t55.5 102t40 133.5t15 167q0 168 -44 284.5t-134 206.5q-63 63 -137 104.5t-154 64t-163 31.5t-166 9h-271q-55 0 -88 -14.5 t-51.5 -38t-23.5 -55t-5 -66.5v-434l-39 -39h-90q-43 0 -76.5 -11.5t-33.5 -31.5zM350 422v231l39 39h356q43 0 79 8.5t36 24.5q0 23 -36 33t-79 10h-356l-39 39v156q0 84 11.5 148.5t42 108.5t86 66.5t145.5 22.5h6q143 0 268 -33t217.5 -104.5t144.5 -185.5t52 -275 q0 -154 -56.5 -268.5t-149.5 -189.5t-217 -112t-259 -37q-88 0 -144.5 19.5t-89 59.5t-45 99.5t-12.5 139.5z" />
<glyph unicode="&#xd1;" horiz-adv-x="1441" d="M76 150q0 -63 15 -102.5t46 -39.5q20 0 33.5 16.5t21 40t9.5 50t2 49.5v536q0 164 33.5 230.5t97.5 66.5q51 0 105.5 -48t109.5 -134l422 -661q33 -49 58.5 -83t52 -53.5t54 -27.5t64.5 -8q74 0 98.5 48t24.5 109v1002q0 94 -14.5 154.5t-51.5 60.5t-50 -46t-13 -104 l2 -348q0 -121 -4 -206t-18.5 -139t-41 -79.5t-69.5 -25.5q-59 0 -111.5 46t-109.5 132v2l-363 565q-55 88 -92 135t-68 70q-27 20 -55 23t-69 3q-45 0 -69 -21.5t-35 -56t-13 -77.5t-2 -86v-993zM510 1616l12 12q-6 -16 -6 -31q39 6 47 11h-2q20 6 49 12h-2q10 2 21.5 3 t23.5 1q29 0 60 -10v-2h2q4 -4 16 -4q10 -8 23 -11q14 -8 22 -11t15 -5v2q23 -12 47 -21.5t57 -9.5h10q8 0 19 2h2q23 0 43 37h4q10 0 16 6l-8 17q4 10 6 20.5t6 22.5l-28 -29l-13 -2v-10q0 2 -1 1l-1 -1v-2q-25 -6 -47 -10v-2h-26q-37 0 -74 12v-2q-18 10 -38 18t-46 17 q-49 27 -105 26h-12q-6 0 -16 -2h-2q-41 -8 -60 -37q-10 0 -12 -3t-2 -15zM522 1599l2 3v-3h-2zM791 1583l10 19l-4 -21z" />
<glyph unicode="&#xd2;" horiz-adv-x="1554" d="M33 678q0 -143 51 -273.5t145.5 -228.5t229.5 -155.5t301 -57.5q162 0 299 50t238.5 144.5t158.5 225.5t57 295q0 203 -61 347t-165.5 237.5t-241 136.5t-285.5 43q-174 0 -309.5 -59.5t-228.5 -162t-141 -242.5t-48 -300zM176 678q0 160 49 283.5t131 207.5t187.5 127 t216.5 43q129 0 240.5 -44t194.5 -129t130 -207.5t47 -280.5q0 -123 -45 -234.5t-126 -195.5t-193.5 -133t-247.5 -49q-141 0 -250 56t-182.5 145t-112.5 198t-39 213zM707 1921q0 -25 12 -72t28.5 -93t36 -80t35.5 -34q18 0 23.5 13.5t5.5 50.5q0 23 -7 66t-20.5 84.5 t-33 73.5t-46.5 32q-34 0 -34 -41z" />
<glyph unicode="&#xd3;" horiz-adv-x="1554" d="M33 678q0 -143 51 -273.5t145.5 -228.5t229.5 -155.5t301 -57.5q162 0 299 50t238.5 144.5t158.5 225.5t57 295q0 203 -61 347t-165.5 237.5t-241 136.5t-285.5 43q-174 0 -309.5 -59.5t-228.5 -162t-141 -242.5t-48 -300zM176 678q0 160 49 283.5t131 207.5t187.5 127 t216.5 43q129 0 240.5 -44t194.5 -129t130 -207.5t47 -280.5q0 -123 -45 -234.5t-126 -195.5t-193.5 -133t-247.5 -49q-141 0 -250 56t-182.5 145t-112.5 198t-39 213zM717 1700q0 -37 5 -50.5t23 -13.5q14 0 35 34t37.5 80t28.5 93t12 72q0 41 -35 41q-27 0 -46 -32 t-32.5 -74t-20.5 -85t-7 -65z" />
<glyph unicode="&#xd4;" horiz-adv-x="1554" d="M33 678q0 -143 51 -273.5t145.5 -228.5t229.5 -155.5t301 -57.5q162 0 299 50t238.5 144.5t158.5 225.5t57 295q0 203 -61 347t-165.5 237.5t-241 136.5t-285.5 43q-174 0 -309.5 -59.5t-228.5 -162t-141 -242.5t-48 -300zM176 678q0 160 49 283.5t131 207.5t187.5 127 t216.5 43q129 0 240.5 -44t194.5 -129t130 -207.5t47 -280.5q0 -123 -45 -234.5t-126 -195.5t-193.5 -133t-247.5 -49q-141 0 -250 56t-182.5 145t-112.5 198t-39 213zM559 1632q10 -2 19.5 -8t9.5 -10h33q0 14 13 40.5t36 53.5h-2q23 20 46 35.5t52 15.5q33 0 59.5 -20.5 t55.5 -46.5v2q8 -12 22 -21q12 -18 20.5 -32.5t8.5 -22.5h33q0 8 12 12v33q-10 2 -24.5 12.5t-28.5 22.5q-31 37 -75 70.5t-83 33.5q-33 0 -64.5 -22.5t-58.5 -50.5l-27 -27q-14 -14 -27.5 -25.5t-27.5 -13.5z" />
<glyph unicode="&#xd5;" horiz-adv-x="1554" d="M33 678q0 -143 51 -273.5t145.5 -228.5t229.5 -155.5t301 -57.5q162 0 299 50t238.5 144.5t158.5 225.5t57 295q0 203 -61 347t-165.5 237.5t-241 136.5t-285.5 43q-174 0 -309.5 -59.5t-228.5 -162t-141 -242.5t-48 -300zM176 678q0 160 49 283.5t131 207.5t187.5 127 t216.5 43q129 0 240.5 -44t194.5 -129t130 -207.5t47 -280.5q0 -123 -45 -234.5t-126 -195.5t-193.5 -133t-247.5 -49q-141 0 -250 56t-182.5 145t-112.5 198t-39 213zM530 1706l13 12q-6 -16 -6 -30q39 6 47 10h-2q20 6 49 12h-2q10 2 21.5 3t23.5 1q29 0 59 -10v-2h2 q4 -4 17 -4q10 -8 22 -10q14 -8 22.5 -11.5t14.5 -5.5v2q23 -12 47.5 -21.5t56.5 -9.5h11q8 0 18 3h2q23 0 43 36h4q10 0 17 7l-9 16q4 10 6.5 20.5t6.5 22.5l-29 -29l-12 -2v-10q0 2 -1 1l-1 -1v-2q-25 -6 -47 -10v-2h-27q-37 0 -74 12v-2q-18 10 -37.5 18.5t-46.5 16.5 q-49 27 -104 26h-12q-6 0 -17 -2h-2q-41 -8 -59 -37q-10 0 -12.5 -3t-2.5 -15zM543 1690l2 2v-2h-2zM811 1673l10 19l-4 -21z" />
<glyph unicode="&#xd6;" horiz-adv-x="1554" d="M33 678q0 -143 51 -273.5t145.5 -228.5t229.5 -155.5t301 -57.5q162 0 299 50t238.5 144.5t158.5 225.5t57 295q0 203 -61 347t-165.5 237.5t-241 136.5t-285.5 43q-174 0 -309.5 -59.5t-228.5 -162t-141 -242.5t-48 -300zM176 678q0 160 49 283.5t131 207.5t187.5 127 t216.5 43q129 0 240.5 -44t194.5 -129t130 -207.5t47 -280.5q0 -123 -45 -234.5t-126 -195.5t-193.5 -133t-247.5 -49q-141 0 -250 56t-182.5 145t-112.5 198t-39 213zM477 1690q0 -20 13.5 -36t35.5 -16q27 0 41.5 15.5t14.5 36.5q0 16 -13.5 29.5t-42.5 13.5 q-27 0 -38 -13.5t-11 -29.5zM926 1690q0 -20 13 -36t36 -16q29 0 43 15.5t14 36.5q0 16 -13 29.5t-44 13.5q-27 0 -38 -13.5t-11 -29.5z" />
<glyph unicode="&#xd7;" horiz-adv-x="743" d="M-6 344q14 -14 26.5 -25.5t20.5 -11.5l-14 15h10l10 -11q2 2 10 6l-4 5h4v-5q6 4 15.5 10.5t23.5 16.5l25 18q45 33 96 65t111 32h14q39 -4 71.5 -17.5t61.5 -32t53.5 -40t46.5 -41.5h-2q10 -10 21.5 -20.5t28.5 -24.5v-11h14q4 -4 10 -7t12 -7q-2 10 -3 17.5t-3 15.5h-8 v14h4q-8 18 -17 32.5t-20 29.5q-2 4 -6 10t-6 10h-4q-31 41 -57.5 87t-26.5 99v9q6 82 48 140t83 101v-2l23.5 23.5t21.5 23.5q4 -4 7 -6t7 -6v27l3 2l-3 4v18l-36 37q0 -20 4 -41q-10 -6 -22.5 -15t-24.5 -18q-47 -35 -110.5 -69.5t-141.5 -34.5h-17q-68 6 -116 45t-86 80 l-21.5 21.5t-28.5 21.5v39l-22 -23l-8 4t-9 7q0 -10 5 -23q0 -27 8 -27q6 -16 15 -27.5t20 -23.5l2 -2h-2l2 -2v2q33 -45 64.5 -100.5t31.5 -126.5v-17q-4 -66 -43 -115.5t-80 -92.5q-16 -16 -29.5 -33t-23.5 -29h-39zM649 305q2 -4 2 -8q0 -2 2 -6h2q0 12 -6 14z" />
<glyph unicode="&#xd8;" horiz-adv-x="1554" d="M33 678q0 -106 28.5 -205.5t82 -184.5t130 -152.5t172.5 -108.5l11 -27l-25 -59q-18 -43 -18 -64q0 -18 10 -20q12 -8 18 -9q16 0 18.5 7.5t2.5 17.5v18l2 5l35 81l-2 7l26 14q111 -35 236 -35q162 0 299 50t238.5 144.5t158.5 225.5t57 295q0 133 -27.5 241.5 t-78.5 192.5t-120.5 145.5t-151.5 102.5l-13 33l19 45q16 39 23 63.5t7 30.5q0 18 -12 18q-16 8 -20 9q-14 0 -16.5 -2.5t-2.5 -18.5q0 -33 -18 -82l-21 -45v-2l-26 -12q-70 23 -143.5 34t-151.5 11q-174 0 -309.5 -59.5t-228.5 -162t-141 -242.5t-48 -300zM176 678 q0 160 49 283.5t131 207.5t187.5 127t216.5 43q66 0 127 -12t114 -33l19 -49l-479 -1095l-54 -17q-76 41 -134 102.5t-97 134t-59.5 151.5t-20.5 157zM555 143l479 1086l8 4h-2l50 16q129 -82 205.5 -225t76.5 -346q0 -123 -45 -234.5t-126 -195.5t-193.5 -133t-247.5 -49 q-51 0 -95 7t-87 21l-21 45z" />
<glyph unicode="&#xd9;" horiz-adv-x="1273" d="M76 586q0 -182 50 -300t129 -186.5t176 -95.5t190 -27q88 0 186 26t180 94.5t136.5 192.5t54.5 320v547q0 41 -2 83t-9.5 75t-20.5 53.5t-36 20.5q-20 0 -32.5 -23t-19.5 -56.5t-9 -74.5t-2 -78v-577q0 -123 -31 -213.5t-86.5 -149.5t-133 -88t-171.5 -29h-4 q-121 0 -200 41t-127 113t-67.5 172t-19.5 217v514q0 37 -2 78t-9.5 76t-19.5 57.5t-31 22.5q-23 0 -36 -19.5t-21 -52.5t-10 -75t-2 -87v-571zM559 1802q0 -25 12.5 -72t28.5 -93t35.5 -79.5t36.5 -33.5q18 0 23 13t5 50q0 23 -7 66t-20.5 85t-32.5 73.5t-46 31.5 q-35 0 -35 -41z" />
<glyph unicode="&#xda;" horiz-adv-x="1273" d="M76 586q0 -182 50 -300t129 -186.5t176 -95.5t190 -27q88 0 186 26t180 94.5t136.5 192.5t54.5 320v547q0 41 -2 83t-9.5 75t-20.5 53.5t-36 20.5q-20 0 -32.5 -23t-19.5 -56.5t-9 -74.5t-2 -78v-577q0 -123 -31 -213.5t-86.5 -149.5t-133 -88t-171.5 -29h-4 q-121 0 -200 41t-127 113t-67.5 172t-19.5 217v514q0 37 -2 78t-9.5 76t-19.5 57.5t-31 22.5q-23 0 -36 -19.5t-21 -52.5t-10 -75t-2 -87v-571zM604 1552q0 -37 5 -50t24 -13q14 0 34.5 33.5t37 80t28.5 93t12 71.5q0 41 -34 41q-27 0 -46.5 -31.5t-33 -73.5t-20.5 -85 t-7 -66z" />
<glyph unicode="&#xdb;" horiz-adv-x="1273" d="M76 586q0 -182 50 -300t129 -186.5t176 -95.5t190 -27q88 0 186 26t180 94.5t136.5 192.5t54.5 320v547q0 41 -2 83t-9.5 75t-20.5 53.5t-36 20.5q-20 0 -32.5 -23t-19.5 -56.5t-9 -74.5t-2 -78v-577q0 -123 -31 -213.5t-86.5 -149.5t-133 -88t-171.5 -29h-4 q-121 0 -200 41t-127 113t-67.5 172t-19.5 217v514q0 37 -2 78t-9.5 76t-19.5 57.5t-31 22.5q-23 0 -36 -19.5t-21 -52.5t-10 -75t-2 -87v-571zM401 1507q25 -6 29 -22h33q2 18 14 46t35 52h-2q23 20 46.5 35.5t51.5 15.5q33 0 59.5 -20.5t55.5 -46.5v2q4 -6 20 -19 q27 -37 31 -59l33 2q0 8 12 12v33q-10 2 -24.5 12.5t-28.5 22.5q-31 37 -75 70.5t-83 33.5q-33 0 -63.5 -21t-57.5 -50l-28 -29q-14 -14 -27.5 -25.5t-28.5 -13.5z" />
<glyph unicode="&#xdc;" horiz-adv-x="1273" d="M76 586q0 -182 50 -300t129 -186.5t176 -95.5t190 -27q88 0 186 26t180 94.5t136.5 192.5t54.5 320v547q0 41 -2 83t-9.5 75t-20.5 53.5t-36 20.5q-20 0 -32.5 -23t-19.5 -56.5t-9 -74.5t-2 -78v-577q0 -123 -31 -213.5t-86.5 -149.5t-133 -88t-171.5 -29h-4 q-121 0 -200 41t-127 113t-67.5 172t-19.5 217v514q0 37 -2 78t-9.5 76t-19.5 57.5t-31 22.5q-23 0 -36 -19.5t-21 -52.5t-10 -75t-2 -87v-571zM356 1571q0 -20 13.5 -35.5t36.5 -15.5q27 0 41 15t14 36q0 16 -13 29.5t-42 13.5q-27 0 -38.5 -13.5t-11.5 -29.5zM805 1571 q0 -20 13 -35.5t36 -15.5q29 0 43 15t14 36q0 16 -13 29.5t-44 13.5q-27 0 -38 -13.5t-11 -29.5z" />
<glyph unicode="&#xdd;" horiz-adv-x="1050" d="M-8 1333q0 -29 27.5 -78t72.5 -112h-2l170 -246q76 -111 130 -227.5t54 -220.5v-328q0 -51 17.5 -83t46.5 -32q33 0 49 37t16 84v338q0 47 15.5 100t41 110.5t60.5 116t74 113.5l176 258h-2q41 57 66.5 103.5t25.5 72.5q0 25 -11 31t-22 6q-47 0 -92 -50t-86 -118 l-55 -94q-27 -45 -54.5 -86t-56 -71.5t-61.5 -49t-70 -18.5q-43 0 -77.5 18.5t-65.5 49t-56.5 71.5t-50.5 86l-49 84v2q-41 74 -88 129t-106 55q-23 0 -30 -16t-7 -35zM487 1503q0 -37 5.5 -50t23.5 -13q14 0 34.5 33.5t37 79.5t29 93t12.5 72q0 41 -35 41 q-27 0 -46.5 -31.5t-32.5 -73.5t-20.5 -85t-7.5 -66z" />
<glyph unicode="&#xde;" d="M86 180q0 -57 3 -90t9 -50t17.5 -22.5t29.5 -5.5q20 0 34 16.5t20 41t8 55.5t2 61q0 96 26.5 127t96.5 31q14 0 29.5 -1t35.5 -3h11q8 0 14 -1t14 -1q25 -2 53.5 -3t63.5 -1q94 0 179 20.5t148.5 64.5t100.5 115.5t37 176.5v4q0 123 -53.5 196.5t-137.5 112.5t-188 51 t-207 12q-10 0 -18 -1t-17 -1h-30q-6 0 -12.5 -1t-12.5 -1h-20q-53 0 -83 16.5t-34 74.5v94q0 20 -2 46.5t-8.5 50.5t-18.5 40t-31 16q-16 0 -27.5 -16t-17.5 -40t-9 -50.5t-3 -46.5zM213 721q0 90 26.5 145.5t67.5 85t89 38.5t91 9t107.5 -11t125 -43t102.5 -88t42 -144 q0 -86 -35.5 -144.5t-91 -93.5t-122 -49t-130.5 -14q-61 0 -112 16t-86 53t-54.5 96.5t-19.5 143.5z" />
<glyph unicode="&#xe0;" horiz-adv-x="950" d="M35 242q0 -59 23.5 -102.5t63.5 -71t92 -41t108 -13.5h43q10 0 18 -4t23 -4q4 0 6 -1t4 -1l28 -8v27h2v43q-37 -16 -75 -19q-20 6 -39 13.5t-35 19.5q-37 23 -70.5 72t-33.5 118v19q0 10 2 18q10 47 57 93t113 75h20t21 2q39 2 77.5 4t73.5 13q68 -23 108 -78.5 t40 -126.5q0 -29 -7.5 -55.5t-17.5 -53.5v2q-4 -10 -15.5 -21t-25.5 -26l-10 -10h-13l-2 2v-2h-22l-2 -33l10 -2q8 -6 16 -6q0 -2 1 -3l1 -1v-6q0 -10 2.5 -19.5t18.5 -9.5q10 0 37 21q16 -4 39 -7h2q2 -2 6 -2q6 -6 20 -6q10 -4 21.5 -6t23.5 -2q18 0 23 2q16 6 26.5 38 t16.5 78t8 103.5t2 114.5q0 90 -5 170t-9 121q-4 39 -22.5 87t-36.5 74v-2q-20 29 -56.5 53.5t-80.5 42t-91 27t-88 9.5h-10q-37 -2 -83 -11.5t-81 -21.5v-2h-6q-14 -2 -29 -15h-2q-4 -4 -10 -5t-25 -1q14 -23 16.5 -30t2.5 -11q0 -14 2 -21t16 -7t70 55h8l2 8h12q18 2 35 3 t33 1q86 0 153.5 -28.5t102.5 -116.5v-2q0 -2 1 -3t1 -3q4 -16 9 -33t5 -33q0 -35 -22 -72q-39 -59 -115 -82h-10q-10 2 -23.5 3.5t-29.5 1.5q-35 0 -71 -8.5t-71 -20.5l-49 -4q-20 -4 -48 -13.5t-56.5 -21.5t-53 -25.5t-38.5 -25.5h-2q-10 -10 -29 -33t-23 -39v2 q-4 -6 -8 -22q-4 -12 -7 -26.5t-3 -16.5v-7q-2 -10 -3 -18t-1 -14zM379 1389q0 -25 12 -72t28.5 -93t36 -80t36.5 -34q18 0 23 13.5t5 50.5q0 23 -7 65.5t-20.5 84.5t-33 74t-45.5 32q-35 0 -35 -41zM618 113l9 8l6 2l12 -10h-27z" />
<glyph unicode="&#xe1;" horiz-adv-x="946" d="M35 248q0 -59 23.5 -102.5t63.5 -72t92 -42t108 -13.5h57q10 -4 18.5 -6t14.5 -4v-6h20v8l2 2v-10h4v14l6 4v7h2v43q-16 -4 -34.5 -8.5t-34.5 -8.5q-18 6 -35.5 13.5t-30.5 15.5l4 -2l-2 2q-45 23 -82.5 74t-37.5 118q0 20 3 41t11 37q14 41 54 72t89 51h23q12 0 22 2 q37 2 73 4t71 11q35 -10 67.5 -28t57.5 -46v-15h6q0 -2 2 -2l2 2q10 -6 17 -13t11 -19l3 -6v4q2 -10 3 -19.5t1 -25.5q0 -59 -23.5 -113.5t-40.5 -83.5l2 4l-14 -14h-2v2l-2 -2h-13v6l-2 -2v-8h-24l14 -15q-16 -12 -24 -16h38v-4q0 -14 2.5 -22.5t18.5 -8.5q10 0 33 21 q27 -10 52.5 -17.5t47.5 -7.5h8q29 2 44.5 21.5t25.5 46.5q6 -4 33 -5q45 0 53 25t8 55l-92 2v7q4 59 7 115.5t3 115.5q0 111 -15.5 209t-56 171t-113.5 116t-185 43h-15q-35 -2 -79 -11.5t-85 -19.5h-6q-4 -2 -10 -2h-33l12 -12q-4 -2 -7 -4l-3 -1h4l-8 -2q-4 -2 -8 -3 t-25 -1q12 -23 15.5 -31t3.5 -12l-15 -32l25 -17l82 82l-4 -2v4q6 0 11 1t11 1q18 2 35 3t33 1q86 0 152.5 -26.5t101.5 -114.5q6 -18 12 -36.5t6 -41.5q0 -35 -22 -72q-23 -41 -59.5 -61t-79.5 -31q-29 6 -62 6q-63 0 -131 -22q-27 -2 -49.5 -5t-38.5 -7h-2 q-43 -10 -85 -42t-71 -67v2l-4 -4q-23 -23 -22 -27q0 -2 2 -2q-12 -18 -22.5 -36.5t-12.5 -38.5v-9zM467 1194q0 -37 5 -50.5t24 -13.5q14 0 34.5 34t37 80t28.5 93t12 72q0 41 -35 41q-27 0 -46 -32t-32.5 -73.5t-20.5 -84.5t-7 -66z" />
<glyph unicode="&#xe2;" horiz-adv-x="970" d="M61 264q0 -43 14.5 -83t38 -72.5t54.5 -56t61 -34.5q31 -8 76 -8q31 0 58.5 4t52.5 9q6 -2 14 -3l6 7h2q2 0 3 1t3 1l2 2h17v57l-8 -8q-8 4 -13 4q-16 0 -24 -29h-2q-43 6 -71 20.5t-69 55.5l-2 2v-2q-31 35 -44 64.5t-13 62.5t10.5 65.5t26.5 67.5l6 2l12 -2l11 17 l61 38h-31q8 4 15.5 7.5t11.5 7.5q2 0 1 -2t1 -2t12 10q6 0 12.5 1t10.5 1h18t17 2q45 2 86 5t80 16q59 -16 102 -54.5t51 -93.5q2 -10 2 -33q0 -59 -21.5 -103t-43.5 -77l2 4q-2 -2 -5 -7t-6 -9l3 4q-4 -4 -9 -12l-28 -29q8 -8 10 -8q0 -14 2 -21.5t18 -7.5q14 0 39 25h8 q0 -4 23 -4q-2 0 -3 1l-1 1q-10 0 -16 2h-3q0 4 19 22l10 2v-31l12 -2h-2q35 -10 70 -10q39 0 51 21q14 23 19.5 95.5t5.5 170.5q0 63 -2 127.5t-6.5 120t-9.5 97.5t-11 60v2q-10 33 -38.5 75t-53.5 65v4q-45 35 -120 52t-157 17q-45 0 -90 -6q-4 0 -16 -4h-10l-4 -2h-9 l-6 -6q-12 -4 -24.5 -8t-24.5 -8q-4 6 -11 13t-18 19v-49l-2 -16q2 0 2 -8h5v-6l10 6h18v8h10v2h15q0 2 -8 2l49 16l-2 2h4q12 4 14 5q8 2 31 2q63 0 134 -27t116 -76l6 -6v2q16 -20 29.5 -44t13.5 -64v-17q0 -10 -12.5 -27.5t-22.5 -23.5l-70 70v-156q-16 -14 -41 -25 q-41 10 -81 11q-53 0 -109 -21q-12 -4 -24.5 -9l-22.5 -9h-14q-47 -4 -72 -13q-18 -6 -42 -17t-46.5 -26.5t-41 -32t-28.5 -32.5l2 4q-35 -57 -35 -117zM307 1167q25 -6 29 -22h33q2 18 14 46t35 52h-2q23 20 46 35.5t52 15.5q33 0 59.5 -20.5t55.5 -46.5v2q4 -6 20 -19 q27 -37 31 -59l33 2q0 8 12 12v33q-10 2 -24.5 12.5t-28.5 22.5q-31 37 -75 70.5t-83 33.5q-33 0 -63.5 -21t-57.5 -50l-28 -29q-14 -14 -27.5 -25.5t-28.5 -13.5zM371 922l2 -2v-2l6 -3l-2 -2l-4 5zM666 109v2l1 -1t3 -1v-3q-4 1 -4 3z" />
<glyph unicode="&#xe3;" horiz-adv-x="989" d="M82 262q0 -41 11 -78t31.5 -67.5t46.5 -53t56 -34.5h2q20 -10 46 -13.5t55 -3.5q41 0 88 6q10 -4 16 -5t12 -3l-2 2q4 -2 7.5 -3t7.5 -3q12 -4 27 -8l16 -4q47 0 47 6q0 4 -16.5 13.5t-45.5 19.5v30q-2 0 -15 -1t-17 -1q-8 -4 -16.5 -6t-18.5 -4q-35 10 -63.5 21.5 t-43.5 27.5q-10 4 -22 17l12 16l-18 17q-2 8 -7.5 14t-27.5 29v-19q-8 6 -10 16q-6 10 -8.5 26.5t-2.5 37.5q0 35 13.5 66.5t33 57t43 45t41.5 30.5q12 8 22.5 13t20.5 9h19q8 0 14 2q37 2 73 5t71 12q41 -12 86 -45q43 -31 60 -69t17 -77q0 -47 -17 -93t-42 -85l2 4l-6 -6 q-2 -2 -6 -5t-8 -7h-11l-4 -5l-4 -8v-2l-14 -45l26 17q0 -20 21 -21q12 0 33 16q12 -4 22 -6t17 -4q12 -2 25.5 -3t23.5 -1q29 0 50 7t32 24q12 23 17 98.5t5 173.5q0 57 -2 115.5t-5 110t-7 90.5t-8 57q-6 20 -18.5 46t-30 50.5t-36 46t-36.5 35.5q-39 25 -104.5 39 t-137.5 14h-39q-16 0 -37 -4h-2q-29 -4 -57 -10t-55 -16h-17q-14 23 -37 22v-22q-8 0 -23 1t-20 1q39 -39 45.5 -47.5t6.5 -10.5h30l-2 -10q6 6 6 17v8q2 0 5 2l-5 -2q4 4 15 8q12 0 16 2q10 2 22.5 3t24.5 3q25 4 51.5 6t55.5 2q51 0 94 -12q0 -2 4 -2q18 -10 42 -27.5 t45.5 -40t36.5 -46t19 -42.5v-20q0 -25 -6 -40t-14 -28l-4 -8q-27 -53 -62.5 -77.5t-80.5 -39.5q-29 6 -56 6q-33 0 -64.5 -7t-60.5 -17q-39 -4 -71.5 -8t-59.5 -15q-16 -6 -40.5 -20t-48 -32.5t-44 -37t-27.5 -30.5v-3q-16 -23 -20 -49t-4 -51zM315 1257l13 13 q-6 -16 -6 -31q39 6 47 10h-2q20 6 49 13h-2q10 2 21 3t24 1q29 0 59 -11v-2h2q4 -4 17 -4q10 -8 22 -10q14 -8 22.5 -11t14.5 -5v2q23 -12 47.5 -21.5t56.5 -9.5h11q8 0 18 2h2q23 0 43 37h4q10 0 17 6l-9 16q4 10 6.5 20.5t6.5 22.5l-29 -28l-12 -2v-11q0 2 -1 1l-1 -1v-2 q-25 -6 -47 -10v-2h-27q-37 0 -74 12v-2q-18 10 -37.5 18.5t-46.5 16.5q-49 27 -104 27h-12q-6 0 -17 -2h-2q-41 -8 -59 -37q-10 0 -12.5 -3t-2.5 -16zM328 1241l2 2v-2h-2zM596 1225l10 18l-4 -20z" />
<glyph unicode="&#xe4;" horiz-adv-x="1005" d="M98 236q0 -27 7.5 -54.5t23.5 -54.5q29 -47 95.5 -84t150.5 -37q18 0 38.5 2t43.5 8q10 -2 18 -3t14 -3h-2q4 -2 19 -2l-14 23v35q-23 0 -28 -3.5t-11 -11.5h-4q-41 10 -72 27.5t-66 52.5q-31 31 -44 63.5t-13 67.5q0 66 42 123t103 92q20 2 40 3t36 3q35 2 65.5 4 t59.5 9q72 -20 120 -71.5t48 -125.5q0 -10 -2 -18q-8 -43 -24.5 -77t-32.5 -61l2 4q-2 -2 -3 -4t-3 -4q-6 -6 -13 -20v2l-28 -8l2 -25l-7 -6q8 -8 11 -8q0 -14 2 -21.5t18 -7.5q12 0 35 21q2 -2 8 -3q20 -6 46 -10t50 -4q45 0 68 25q12 20 17.5 91t5.5 163q0 63 -2.5 127.5 t-6.5 120t-9 98.5t-9 61q-4 16 -14.5 38t-22.5 42.5t-26.5 38.5t-26.5 31q-18 16 -51 30.5t-73 23.5t-84 14t-87 5q-39 0 -72 -6h-4q-16 -4 -29.5 -8t-29.5 -8v2q-6 -2 -15 -2q-10 0 -12 -1t-4 -1h-6t-29 -4v-56q10 4 32.5 13.5t39.5 17.5q10 0 19.5 1t15.5 1q16 2 30.5 3 t28.5 1q45 0 87 -11t89 -40q0 -61 12.5 -72.5t53.5 -11.5q2 0 9 -7t14 -16.5t12.5 -18.5t5.5 -13v-14q0 -47 -19.5 -77t-48.5 -52q-41 -35 -88 -48q-16 4 -34.5 6.5t-37.5 2.5q-16 0 -32.5 -1t-36.5 -6h2q-16 -4 -35.5 -10t-38.5 -16h-18q-45 -6 -94.5 -30.5t-81.5 -47.5 q-41 -33 -68 -83t-27 -109zM250 1366q0 -20 13 -35.5t36 -15.5q27 0 41 15.5t14 35.5q0 16 -13 29.5t-42 13.5q-27 0 -38 -13.5t-11 -29.5zM457 51l6 4v-2h2q-2 0 -3 -1t-3 -1h-2zM651 856v2v-2zM696 109v2h4l-2 -2h-2zM698 1366q0 -20 13.5 -35.5t36.5 -15.5q29 0 43 15.5 t14 35.5q0 16 -13 29.5t-44 13.5q-27 0 -38.5 -13.5t-11.5 -29.5zM700 106v5l2 -1q1 -1 3 -1z" />
<glyph unicode="&#xe5;" horiz-adv-x="923" d="M35 231q0 -76 31.5 -122t72.5 -71.5t83 -33.5t61 -8q29 0 54 -3t25 -9q0 2 -38 -37q106 16 143 32.5t37 30.5h-29q-49 0 -102.5 14.5t-97.5 43t-71.5 71.5t-27.5 103q0 61 33 108t80 82q76 12 137 12q35 0 70.5 6.5t70.5 22.5q53 -33 95.5 -79t42.5 -103q0 -51 -13.5 -92 t-32 -71t-36 -49.5t-23.5 -25.5q8 -8 27.5 -12t43 -6t46.5 -2h37h2q47 0 65.5 31.5t18.5 72.5v412q0 186 -87 281.5t-245 95.5h-6q-43 12 -80 12q-68 0 -119 -9t-90 -20h2q-4 -2 -10 -2q-2 0 -5 -1t-5 -1q-31 -8 -52 -8l-4 -33q14 -4 15 -26l26 -7q4 10 89 35t227 27 q35 -10 70.5 -29.5t64 -45t47 -59.5t18.5 -73q0 -55 -36.5 -100t-92.5 -76q-55 25 -100 25q-27 0 -80 -17.5t-108 -52.5q-49 -10 -93.5 -27.5t-78 -46.5t-53 -67.5t-19.5 -92.5zM373 1194q0 -45 25.5 -76t62.5 -41q12 -10 24 -10q6 0 13.5 2t17.5 10q35 12 62.5 44t27.5 67 q0 23 -14 55h-2q-8 18 -21 29q-18 16 -39.5 27.5t-44.5 11.5q-18 0 -37.5 -10.5t-36 -26.5t-27.5 -37.5t-11 -44.5zM422 1212q0 25 17.5 40.5t45.5 15.5q37 -1 62 -19q6 -8 9 -13t7 -9v-2q0 -2 1 -3t1 -3q0 -23 -18.5 -53.5t-38.5 -53.5q-10 -4 -23 -4q-8 0 -16 2 q-20 20 -33.5 50t-13.5 52z" />
<glyph unicode="&#xe6;" horiz-adv-x="2138" d="M258 211q0 -41 22.5 -79t59.5 -66.5t84 -47t96 -18.5h35q16 0 31 2q51 -10 90 -10q66 0 119 29.5t94 76.5q37 6 65 6q70 0 115 -15t88 -34q29 -14 63.5 -26.5t82.5 -18.5v-2q43 -12 100 -12q47 0 81 6t60 16q31 10 53.5 18.5t32.5 20.5q10 0 17 6l-9 17h2q0 12 -6 12 l4 -12h-16l-6 8q-18 -4 -41 -16l-25 -13v2l-10 -5t-12 -7q-35 -8 -71 -10t-71 -2h-38q-16 0 -33 2v2q-88 25 -148.5 89.5t-60.5 150.5q0 115 117 182q47 -18 91 -25.5t85 -7.5q98 0 180 45q16 -6 37.5 -10t60.5 -4q35 0 58.5 9t37 23.5t19.5 32t6 31.5q0 61 -25.5 122.5 t-71.5 114t-110.5 87t-140.5 43.5v2q-20 4 -40.5 6t-39.5 2q-51 0 -95 -14.5t-81 -38.5q-29 -10 -62.5 -16.5t-80.5 -6.5q-53 0 -90 9.5t-72 21.5h-8l4 -2l-1 -1t-1 1q-29 10 -53.5 18t-51.5 13q-37 16 -74.5 23t-66.5 7t-54.5 -5t-47.5 -11q-20 -4 -29 -6q-31 -10 -45 -11 l-4 -32q4 -2 8 -19l31 -2q4 12 64.5 19.5t152.5 7.5q16 0 31.5 -1t29.5 -3q57 -27 102.5 -80t45.5 -139q0 -55 -17.5 -79t-40.5 -42l2 2l-8 -4l-10 -11q-18 -18 -57 -36q-37 10 -61.5 15t-33.5 5q-33 0 -74.5 -13.5t-84.5 -35.5q-152 -16 -215.5 -82t-63.5 -174zM408 246 q0 57 42 106t97 84q20 2 42.5 3t45.5 1h4h20q27 0 58 3t71 16q53 -27 94.5 -69.5t41.5 -108.5q0 -27 -14.5 -67t-43.5 -87q-41 -10 -68.5 -21.5t-52.5 -21.5q-31 -16 -68.5 -28.5t-94.5 -20.5q-88 29 -131 89t-43 122zM1116 680q0 47 24.5 90t65.5 78q10 4 20.5 9t20.5 9 q25 10 58.5 19.5t105.5 9.5h12q8 0 17 -2q39 -6 75.5 -22.5t65.5 -44t47.5 -67.5t18.5 -91q0 -94 -74 -156q-31 8 -70 13t-94 5q-45 0 -90 -8t-92 -24q-49 31 -80 75t-31 107z" />
<glyph unicode="&#xe7;" horiz-adv-x="831" d="M47 469q0 -92 20.5 -157.5t53.5 -111.5t71.5 -79t75.5 -60q16 -14 35 -28.5t47 -42.5l19 -19q4 -4 8 -7t8 -7q16 -16 33.5 -30.5t40.5 -49.5q-6 -25 -6 -39q0 -66 24.5 -102.5t52.5 -67.5q14 -14 24.5 -26.5t10.5 -22.5v-16q0 -10 8.5 -17.5t40.5 -7.5v53q0 51 -19.5 91 t-47.5 81l-41 62l-6 12v2l-2 2q25 43 61.5 66.5t73.5 42.5q39 20 68.5 38.5t29.5 39.5q0 27 -43 26q-10 0 -26.5 -1t-32.5 -3q-23 -2 -46.5 -3t-50.5 -1q-88 0 -156.5 33t-114.5 87t-70.5 124.5t-24.5 148.5q0 94 36 164t89 116t114.5 68.5t112.5 22.5q18 0 49 -6 q23 -4 52.5 -8.5t52.5 -4.5q29 0 48 5.5t19 23.5q0 8 -6 21.5t-27.5 27t-64.5 23.5t-119 10q-74 0 -156.5 -26.5t-153.5 -83t-118 -146.5t-47 -217z" />
<glyph unicode="&#xe8;" horiz-adv-x="968" d="M41 438q0 -90 40 -170t106.5 -140t152.5 -95t178 -35h4q72 0 122 10t82 23.5t46 28t14 24.5q0 12 -2 19.5t-16 7.5q-25 0 -49.5 -8.5t-48.5 -18.5q-35 -12 -72 -24.5t-86 -12.5q-47 0 -98.5 15.5t-94.5 44t-71.5 71.5t-28.5 101q0 68 47 110.5t115 65.5q78 -15 125 -15 q41 0 82 4.5t76 16.5q12 -2 24 -2t23 -2q2 0 6 -1t8 -1q43 -6 76 -6q66 0 102.5 27.5t36.5 74.5q0 76 -26.5 139.5t-72.5 111.5t-107.5 78.5t-131.5 41.5q-59 20 -121 20q-57 0 -109.5 -21.5t-92.5 -56.5q-113 -59 -175.5 -165.5t-62.5 -256.5v-4zM215 670q0 96 78 164 q115 59 264 59q4 0 10 -1t11 -1h14q78 -25 134 -82t56 -143q0 -66 -34.5 -107t-90.5 -63q-35 4 -74.5 7t-86.5 3q-49 0 -119 -14q-68 29 -115 70.5t-47 107.5zM416 1356q0 -25 12 -72t28.5 -93t36 -80t35.5 -34q18 0 23.5 13.5t5.5 50.5q0 23 -7 65.5t-20.5 84.5t-33 74 t-45.5 32q-35 0 -35 -41z" />
<glyph unicode="&#xe9;" horiz-adv-x="968" d="M41 438q0 -90 40 -170t106.5 -140t152.5 -95t178 -35h4q72 0 122 10t82 23.5t46 28t14 24.5q0 12 -2 19.5t-16 7.5q-25 0 -49.5 -8.5t-48.5 -18.5q-35 -12 -72 -24.5t-86 -12.5q-47 0 -98.5 15.5t-94.5 44t-71.5 71.5t-28.5 101q0 68 47 110.5t115 65.5q78 -15 125 -15 q41 0 82 4.5t76 16.5q12 -2 24 -2t23 -2q2 0 6 -1t8 -1q43 -6 76 -6q66 0 102.5 27.5t36.5 74.5q0 76 -26.5 139.5t-72.5 111.5t-107.5 78.5t-131.5 41.5q-59 20 -121 20q-57 0 -109.5 -21.5t-92.5 -56.5q-113 -59 -175.5 -165.5t-62.5 -256.5v-4zM215 670q0 96 78 164 q115 59 264 59q4 0 10 -1t11 -1h14q78 -25 134 -82t56 -143q0 -66 -34.5 -107t-90.5 -63q-35 4 -74.5 7t-86.5 3q-49 0 -119 -14q-68 29 -115 70.5t-47 107.5zM440 1143q0 -37 5.5 -50.5t23.5 -13.5q14 0 34.5 34t37 80t29 93t12.5 72q0 41 -35 41q-27 0 -46.5 -32 t-32.5 -74t-20.5 -85t-7.5 -65z" />
<glyph unicode="&#xea;" horiz-adv-x="968" d="M41 438q0 -90 40 -170t106.5 -140t152.5 -95t178 -35h4q72 0 122 10t82 23.5t46 28t14 24.5q0 12 -2 19.5t-16 7.5q-25 0 -49.5 -8.5t-48.5 -18.5q-35 -12 -72 -24.5t-86 -12.5q-47 0 -98.5 15.5t-94.5 44t-71.5 71.5t-28.5 101q0 68 47 110.5t115 65.5q78 -15 125 -15 q41 0 82 4.5t76 16.5q12 -2 24 -2t23 -2q2 0 6 -1t8 -1q43 -6 76 -6q66 0 102.5 27.5t36.5 74.5q0 76 -26.5 139.5t-72.5 111.5t-107.5 78.5t-131.5 41.5q-59 20 -121 20q-57 0 -109.5 -21.5t-92.5 -56.5q-113 -59 -175.5 -165.5t-62.5 -256.5v-4zM215 670q0 96 78 164 q115 59 264 59q4 0 10 -1t11 -1h14q78 -25 134 -82t56 -143q0 -66 -34.5 -107t-90.5 -63q-35 4 -74.5 7t-86.5 3q-49 0 -119 -14q-68 29 -115 70.5t-47 107.5zM297 1110q10 -2 19.5 -8t9.5 -10h32q0 14 13.5 40.5t36.5 53.5h-2q23 20 46 35.5t52 15.5q33 0 59.5 -20.5 t54.5 -47.5v2q4 -6 21 -18q31 -41 31 -57h32q0 8 13 12v33q-10 2 -24.5 12t-28.5 23q-31 37 -75 70.5t-83 33.5q-33 0 -63.5 -21.5t-57.5 -50.5l-29 -28q-14 -14 -27.5 -25.5t-27.5 -13.5z" />
<glyph unicode="&#xeb;" horiz-adv-x="968" d="M41 438q0 -90 40 -170t106.5 -140t152.5 -95t178 -35h4q72 0 122 10t82 23.5t46 28t14 24.5q0 12 -2 19.5t-16 7.5q-25 0 -49.5 -8.5t-48.5 -18.5q-35 -12 -72 -24.5t-86 -12.5q-47 0 -98.5 15.5t-94.5 44t-71.5 71.5t-28.5 101q0 68 47 110.5t115 65.5q78 -15 125 -15 q41 0 82 4.5t76 16.5q12 -2 24 -2t23 -2q2 0 6 -1t8 -1q43 -6 76 -6q66 0 102.5 27.5t36.5 74.5q0 76 -26.5 139.5t-72.5 111.5t-107.5 78.5t-131.5 41.5q-59 20 -121 20q-57 0 -109.5 -21.5t-92.5 -56.5q-113 -59 -175.5 -165.5t-62.5 -256.5v-4zM215 670q0 96 78 164 q115 59 264 59q4 0 10 -1t11 -1h14q78 -25 134 -82t56 -143q0 -66 -34.5 -107t-90.5 -63q-35 4 -74.5 7t-86.5 3q-49 0 -119 -14q-68 29 -115 70.5t-47 107.5zM244 1165q0 -20 13 -35.5t36 -15.5q27 0 41 15.5t14 35.5q0 16 -13 29.5t-42 13.5q-27 0 -38 -13t-11 -30z M692 1165q0 -20 13.5 -35.5t35.5 -15.5q29 0 43.5 15.5t14.5 35.5q0 16 -13.5 29.5t-44.5 13.5q-27 0 -38 -13t-11 -30z" />
<glyph unicode="&#xec;" horiz-adv-x="415" d="M111 1368q0 -25 12 -72t28.5 -93t36 -79.5t35.5 -33.5q18 0 23.5 13t5.5 50q0 23 -7 66t-20.5 85t-33 73.5t-46.5 31.5q-34 0 -34 -41zM143 135q0 -16 2 -38.5t8.5 -42t16.5 -34t27 -14.5q18 0 29.5 13.5t17.5 34t9 42t3 39.5v631q0 20 -2 47t-8 50.5t-18.5 40 t-30.5 16.5q-16 0 -26.5 -16.5t-17 -40t-8.5 -50.5t-2 -47v-631z" />
<glyph unicode="&#xed;" horiz-adv-x="415" d="M133 1153q0 -37 5 -50t24 -13q14 0 34.5 33.5t37 79.5t28.5 93t12 72q0 41 -34 41q-27 0 -46.5 -31.5t-33 -73.5t-20.5 -85t-7 -66zM143 135q0 -16 2 -38.5t8.5 -42t16.5 -34t27 -14.5q18 0 29.5 13.5t17.5 34t9 42t3 39.5v631q0 20 -2 47t-8 50.5t-18.5 40t-30.5 16.5 q-16 0 -26.5 -16.5t-17 -40t-8.5 -50.5t-2 -47v-631z" />
<glyph unicode="&#xee;" horiz-adv-x="415" d="M-23 1126q10 -2 19.5 -8t9.5 -10h33q0 14 13.5 41t35.5 53h-2q23 20 46.5 35.5t51.5 15.5q33 0 59.5 -20.5t55.5 -46.5v2q4 -6 20 -19q27 -37 31 -59l33 2q0 8 12 12v33q-10 2 -24.5 12.5t-28.5 22.5q-31 37 -75 70.5t-83 33.5q-33 0 -64.5 -22.5t-58.5 -50.5l-26 -27 q-14 -14 -27.5 -25.5t-27.5 -13.5zM143 135q0 -16 2 -38.5t8.5 -42t16.5 -34t27 -14.5q18 0 29.5 13.5t17.5 34t9 42t3 39.5v631q0 20 -2 47t-8 50.5t-18.5 40t-30.5 16.5q-16 0 -26.5 -16.5t-17 -40t-8.5 -50.5t-2 -47v-631z" />
<glyph unicode="&#xef;" horiz-adv-x="415" d="M10 1147q0 -20 13.5 -35.5t35.5 -15.5q27 0 41.5 15t14.5 36q0 16 -13.5 29.5t-42.5 13.5q-27 0 -38 -13.5t-11 -29.5zM143 135q0 -16 2 -38.5t8.5 -42t16.5 -34t27 -14.5q18 0 29.5 13.5t17.5 34t9 42t3 39.5v631q0 20 -2 47t-8 50.5t-18.5 40t-30.5 16.5 q-16 0 -26.5 -16.5t-17 -40t-8.5 -50.5t-2 -47v-631zM285 1147q0 -20 13 -35.5t36 -15.5q29 0 43 15t14 36q0 16 -13 29.5t-44 13.5q-27 0 -38 -13.5t-11 -29.5z" />
<glyph unicode="&#xf0;" horiz-adv-x="1062" d="M74 422q0 -94 33.5 -174t94 -139.5t145.5 -93t190 -33.5q109 0 195.5 31.5t147 89t92.5 139.5t32 184q0 74 -17.5 141.5t-46.5 131t-65.5 124t-73.5 121.5l-13 19q-6 4 -8 14v2l-114 182l4 43q6 6 12 12.5t12 16.5q11 0 11 12v4q8 16 8 23h-33v26h-6q-2 10 -12 21v-23 q-8 -2 -16.5 -6t-18.5 -8l-49 10q-35 45 -69 72t-67 27q-27 0 -26 -33q0 -23 16.5 -52.5t38.5 -64.5l9 -15t7 -14l-2 -45q-8 -10 -14 -17t-10 -11q-23 -31 -23 -72q20 4 37 10t33 15l51 -21q6 -31 6 -53q0 -45 -12 -74t-35.5 -47t-54.5 -29.5t-68 -21.5q-47 -14 -99 -34.5 t-99 -68.5q-20 -20 -42 -47.5t-40.5 -65.5t-29.5 -89.5t-11 -118.5zM193 428q0 100 36.5 168t90 108.5t109.5 59t97 18.5q78 0 141.5 -31.5t109.5 -82t71.5 -111t25.5 -115.5q0 -72 -26.5 -136t-72.5 -112.5t-108.5 -77t-134.5 -28.5t-133 27.5t-107 74t-72.5 108.5 t-26.5 130zM676 1247h24l-6 -6z" />
<glyph unicode="&#xf1;" horiz-adv-x="1093" d="M82 117q0 -51 15.5 -82t35.5 -31q35 0 50.5 40t15.5 106v317q0 80 19.5 149.5t58 120.5t93 81t126.5 30t140.5 -15.5t121.5 -65.5t86 -143.5t33 -248.5v-252q0 -119 53 -119q16 0 27.5 15.5t17.5 40t9 54t3 60.5v367q0 115 -26.5 191.5t-72.5 121.5t-105.5 63.5 t-125.5 18.5q-82 0 -122.5 -13.5t-69.5 -27.5h2q-29 -14 -58.5 -24.5t-84.5 -10.5q-33 0 -49.5 3t-26.5 7h2l-6 2q-16 6 -38 10.5t-61 4.5q-35 0 -49 -49.5t-14 -114.5v-606zM287 1221l12 12q-6 -16 -6 -31q39 6 47 10h-2q20 6 49 13h-2q10 2 21.5 3t23.5 1q29 0 59 -10v-2 h3q4 -4 16 -5q10 -8 22 -10q14 -8 22.5 -11t14.5 -5v2q23 -12 47.5 -21.5t57.5 -9.5h10q8 0 18 2h2q23 0 43 37h5q10 0 16 6l-8 17q4 10 6 20t6 23l-29 -29l-12 -2v-10q0 2 -1 1l-1 -1v-2q-25 -6 -47 -11v-2h-27q-37 0 -73 13v-2q-18 10 -38 18t-46 16q-49 27 -105 27h-12 q-6 0 -17 -2h-2q-41 -8 -59 -37q-10 0 -12 -3t-2 -15zM299 1204l2 2v-2h-2zM567 1188l11 18l-5 -20z" />
<glyph unicode="&#xf2;" d="M16 457q0 -111 40 -199t107.5 -149.5t157 -94t187.5 -32.5q115 0 206 39.5t155.5 105.5t99.5 152t35 178q0 115 -41 205t-111 151t-159 93t-185 32q-94 0 -182 -33t-157 -94t-111 -151.5t-42 -202.5zM139 457q0 80 29 151.5t78 123.5t116.5 83t145.5 31q76 0 142.5 -29 t117.5 -80t81 -122.5t30 -157.5q0 -84 -31 -154t-83 -120t-118.5 -77.5t-138.5 -27.5q-84 0 -152.5 32.5t-117 87t-74 122t-25.5 137.5zM428 1384q0 -25 12.5 -71.5t28.5 -92.5t35.5 -80t36.5 -34q18 0 23 13.5t5 49.5q0 23 -7 66t-20.5 85t-33 73.5t-45.5 31.5 q-35 0 -35 -41z" />
<glyph unicode="&#xf3;" d="M16 457q0 -111 40 -199t107.5 -149.5t157 -94t187.5 -32.5q115 0 206 39.5t155.5 105.5t99.5 152t35 178q0 115 -41 205t-111 151t-159 93t-185 32q-94 0 -182 -33t-157 -94t-111 -151.5t-42 -202.5zM139 457q0 80 29 151.5t78 123.5t116.5 83t145.5 31q76 0 142.5 -29 t117.5 -80t81 -122.5t30 -157.5q0 -84 -31 -154t-83 -120t-118.5 -77.5t-138.5 -27.5q-84 0 -152.5 32.5t-117 87t-74 122t-25.5 137.5zM430 1161q0 -37 5 -50t24 -13q14 0 34.5 33.5t37 79.5t28.5 93t12 72q0 41 -34 41q-27 0 -46.5 -31.5t-33 -73.5t-20.5 -85t-7 -66z" />
<glyph unicode="&#xf4;" d="M16 457q0 -111 40 -199t107.5 -149.5t157 -94t187.5 -32.5q115 0 206 39.5t155.5 105.5t99.5 152t35 178q0 115 -41 205t-111 151t-159 93t-185 32q-94 0 -182 -33t-157 -94t-111 -151.5t-42 -202.5zM139 457q0 80 29 151.5t78 123.5t116.5 83t145.5 31q76 0 142.5 -29 t117.5 -80t81 -122.5t30 -157.5q0 -84 -31 -154t-83 -120t-118.5 -77.5t-138.5 -27.5q-84 0 -152.5 32.5t-117 87t-74 122t-25.5 137.5zM283 1120q10 -2 19 -8t9 -10h33q0 14 13.5 40.5t35.5 53.5h-2q23 20 46.5 35.5t51.5 15.5q33 0 59.5 -20.5t55.5 -46.5v2q8 -12 23 -21 q10 -16 18 -31.5t10 -25.5l33 2q0 8 12 12v33q-10 2 -24 12.5t-29 22.5q-31 37 -75 70.5t-83 33.5q-33 0 -63 -21t-57 -50l-29 -29q-14 -14 -27.5 -25.5t-27.5 -13.5z" />
<glyph unicode="&#xf5;" d="M16 457q0 -111 40 -199t107.5 -149.5t157 -94t187.5 -32.5q115 0 206 39.5t155.5 105.5t99.5 152t35 178q0 115 -41 205t-111 151t-159 93t-185 32q-94 0 -182 -33t-157 -94t-111 -151.5t-42 -202.5zM139 457q0 80 29 151.5t78 123.5t116.5 83t145.5 31q76 0 142.5 -29 t117.5 -80t81 -122.5t30 -157.5q0 -84 -31 -154t-83 -120t-118.5 -77.5t-138.5 -27.5q-84 0 -152.5 32.5t-117 87t-74 122t-25.5 137.5zM258 1198l12 12q-6 -16 -6 -30q39 6 47 10h-2q20 6 49 12h-2q10 2 21.5 3t23.5 1q29 0 60 -10v-2h2q4 -4 16 -4q10 -8 23 -10 q14 -8 22 -11.5t15 -5.5v2q23 -12 47 -21t57 -9h10q8 0 19 2h2q23 0 43 37h4q10 0 16 6l-8 16q4 10 6 20.5t6 22.5l-28 -29l-13 -2v-10q0 2 -1 1l-1 -1v-2q-25 -6 -47 -10v-2h-26q-37 0 -74 12v-2q-18 10 -37.5 18.5t-46.5 16.5q-49 27 -105 26h-12q-6 0 -16 -2h-2 q-41 -8 -60 -36q-10 0 -12 -3.5t-2 -15.5zM270 1182l2 2v-2h-2zM539 1165l10 19l-4 -21z" />
<glyph unicode="&#xf6;" d="M16 457q0 -111 40 -199t107.5 -149.5t157 -94t187.5 -32.5q115 0 206 39.5t155.5 105.5t99.5 152t35 178q0 115 -41 205t-111 151t-159 93t-185 32q-94 0 -182 -33t-157 -94t-111 -151.5t-42 -202.5zM139 457q0 80 29 151.5t78 123.5t116.5 83t145.5 31q76 0 142.5 -29 t117.5 -80t81 -122.5t30 -157.5q0 -84 -31 -154t-83 -120t-118.5 -77.5t-138.5 -27.5q-84 0 -152.5 32.5t-117 87t-74 122t-25.5 137.5zM236 1169q0 -20 13 -35.5t36 -15.5q27 0 41 15.5t14 35.5q0 16 -13 29.5t-42 13.5q-27 0 -38 -13t-11 -30zM684 1169q0 -20 13.5 -35.5 t35.5 -15.5q29 0 43.5 15.5t14.5 35.5q0 16 -13.5 29.5t-44.5 13.5q-27 0 -38 -13t-11 -30z" />
<glyph unicode="&#xf7;" horiz-adv-x="1130" d="M133 475q0 -18 35 -25.5t76 -7.5h651q43 0 79 8.5t36 24.5q0 23 -36 33t-79 10h-651q-43 0 -77 -11t-34 -32zM510 197q0 -23 17.5 -40.5t39.5 -17.5q23 0 42.5 17.5t19.5 40.5q0 25 -19.5 44t-42.5 19q-27 0 -42 -19.5t-15 -43.5zM518 737q0 -23 17.5 -40t39.5 -17 q23 0 42.5 17t19.5 40q0 25 -19.5 44.5t-42.5 19.5q-27 0 -42 -19.5t-15 -44.5z" />
<glyph unicode="&#xf8;" d="M16 457q0 -158 76 -268.5t199 -163.5l12 -29l-49 -123q-18 -43 -18 -63q0 -18 10 -21q12 -8 18 -8q16 0 18.5 7t2.5 17v23l2 4l59 148l-2 4l27 14q33 -8 66.5 -12t70.5 -4q115 0 206 39.5t155.5 105.5t99.5 152t35 178q0 158 -75 266t-192 162l-12 30l37 89 q16 39 23.5 63.5t7.5 30.5q0 18 -13 18q-16 8 -20 8q-14 0 -16.5 -2t-2.5 -18q0 -33 -18 -82l-39 -88v-4l-27 -12q-35 10 -72.5 15t-76.5 5q-94 0 -182 -33t-157 -94t-111 -151.5t-42 -202.5zM139 457q0 80 29 151.5t78 123.5t116.5 83t145.5 31q47 0 106 -17l21 -51 l-256 -635l-53 -16q-92 51 -139.5 142.5t-47.5 187.5zM395 137l256 629l4 2l52 18q78 -49 125 -133.5t47 -195.5q0 -84 -31 -154t-83 -120t-118.5 -77.5t-138.5 -27.5q-23 0 -43.5 2t-42.5 8z" />
<glyph unicode="&#xf9;" horiz-adv-x="1013" d="M84 338q0 -188 81 -280.5t220 -92.5q63 0 99 11.5t65 27.5q27 12 53.5 22.5t69.5 10.5q27 0 46 -3t38 -7q4 -4 12 -4q14 -4 32.5 -7.5t53.5 -3.5q39 0 53.5 49.5t14.5 139.5v530q0 74 -9.5 127t-50.5 53q-18 0 -30.5 -14t-19.5 -36.5t-9 -49.5t-2 -49v-303 q0 -68 -16.5 -139.5t-50.5 -130t-86 -96.5t-122 -38q-100 0 -164.5 33t-102.5 99.5t-52 167t-14 233.5v198q0 59 -13.5 92t-42.5 33q-23 0 -38 -25.5t-15 -82.5v-465zM403 1362q0 -25 12.5 -72t29 -93t36 -80t35.5 -34q18 0 23.5 13.5t5.5 50.5q0 23 -7.5 65.5t-20.5 84.5 t-32.5 74t-46.5 32q-35 0 -35 -41z" />
<glyph unicode="&#xfa;" horiz-adv-x="1013" d="M84 338q0 -188 81 -280.5t220 -92.5q63 0 99 11.5t65 27.5q27 12 53.5 22.5t69.5 10.5q27 0 46 -3t38 -7q4 -4 12 -4q14 -4 32.5 -7.5t53.5 -3.5q39 0 53.5 49.5t14.5 139.5v530q0 74 -9.5 127t-50.5 53q-18 0 -30.5 -14t-19.5 -36.5t-9 -49.5t-2 -49v-303 q0 -68 -16.5 -139.5t-50.5 -130t-86 -96.5t-122 -38q-100 0 -164.5 33t-102.5 99.5t-52 167t-14 233.5v198q0 59 -13.5 92t-42.5 33q-23 0 -38 -25.5t-15 -82.5v-465zM426 1161q0 -37 5 -50t24 -13q14 0 34.5 33.5t37 79.5t28.5 93t12 72q0 41 -35 41q-27 0 -46 -31.5 t-32.5 -73.5t-20.5 -85t-7 -66z" />
<glyph unicode="&#xfb;" horiz-adv-x="1013" d="M84 338q0 -188 81 -280.5t220 -92.5q63 0 99 11.5t65 27.5q27 12 53.5 22.5t69.5 10.5q27 0 46 -3t38 -7q4 -4 12 -4q14 -4 32.5 -7.5t53.5 -3.5q39 0 53.5 49.5t14.5 139.5v530q0 74 -9.5 127t-50.5 53q-18 0 -30.5 -14t-19.5 -36.5t-9 -49.5t-2 -49v-303 q0 -68 -16.5 -139.5t-50.5 -130t-86 -96.5t-122 -38q-100 0 -164.5 33t-102.5 99.5t-52 167t-14 233.5v198q0 59 -13.5 92t-42.5 33q-23 0 -38 -25.5t-15 -82.5v-465zM279 1118q25 -6 28 -22h33q2 18 14.5 45.5t34.5 52.5h-2q23 20 46.5 35.5t51.5 15.5q33 0 59.5 -20.5 t55.5 -46.5v2q4 -6 21 -19q27 -37 30 -59l33 2q0 8 12 12v33q-10 2 -24.5 12t-28.5 23q-31 37 -75 70.5t-83 33.5q-33 0 -63 -21t-57 -50l-29 -29q-14 -14 -27.5 -25.5t-27.5 -13.5z" />
<glyph unicode="&#xfc;" horiz-adv-x="1013" d="M84 338q0 -188 81 -280.5t220 -92.5q63 0 99 11.5t65 27.5q27 12 53.5 22.5t69.5 10.5q27 0 46 -3t38 -7q4 -4 12 -4q14 -4 32.5 -7.5t53.5 -3.5q39 0 53.5 49.5t14.5 139.5v530q0 74 -9.5 127t-50.5 53q-18 0 -30.5 -14t-19.5 -36.5t-9 -49.5t-2 -49v-303 q0 -68 -16.5 -139.5t-50.5 -130t-86 -96.5t-122 -38q-100 0 -164.5 33t-102.5 99.5t-52 167t-14 233.5v198q0 59 -13.5 92t-42.5 33q-23 0 -38 -25.5t-15 -82.5v-465zM215 1180q0 -20 13.5 -36t35.5 -16q27 0 41 15.5t14 36.5q0 16 -13 29.5t-42 13.5q-27 0 -38 -13.5 t-11 -29.5zM664 1180q0 -20 13 -36t36 -16q29 0 43 15.5t14 36.5q0 16 -13 29.5t-44 13.5q-27 0 -38 -13.5t-11 -29.5z" />
<glyph unicode="&#xfd;" horiz-adv-x="909" d="M27 860q0 -29 18 -75t41 -99l2 -2l-2 6l18 -49l209 -500q29 -66 39 -118t10 -103q0 -47 -11 -84t-28.5 -66.5t-36 -52t-30.5 -36.5h-2q-39 -39 -75 -56.5t-70 -34.5q-2 -2 -5 -2h-2q-29 -14 -49 -25.5t-20 -23.5q0 -16 21.5 -28.5t60.5 -12.5q72 0 124 23.5t94 71t79 121 t75 175.5l310 807q27 66 38 107t11 61q0 10 -5 20.5t-22 10.5q-23 0 -41 -15.5t-31.5 -40t-24.5 -53t-20 -53.5v-2l-61 -174q-31 -88 -74 -147.5t-114 -59.5q-35 0 -64 17.5t-52.5 45t-42 63.5t-32.5 73l-67 172v2q-14 35 -28.5 68.5t-31 59.5t-36 42t-44.5 16 q-18 0 -23 -15t-5 -34zM104 -410l2 2l-2 -2h2h3h-3h-2zM406 1143q0 -37 5 -50.5t23 -13.5q14 0 34.5 34t37 80t29 93t12.5 72q0 41 -35 41q-27 0 -46.5 -32t-32.5 -74t-20 -85t-7 -65z" />
<glyph unicode="&#xfe;" horiz-adv-x="1144" d="M100 -311q0 -23 1 -46.5t6.5 -43t16.5 -31.5t32 -12q18 0 29.5 15t17.5 39.5t8 55.5t2 60v84q0 47 10 92t31.5 78.5t55.5 54t81 20.5q33 0 59.5 -6t53.5 -14h-2q4 -2 8 -3t8 -3h6q29 -10 59.5 -17.5t71.5 -7.5q88 0 166 34t136.5 97.5t92 150.5t33.5 195q0 123 -38.5 213 t-100 148.5t-135 86t-143.5 27.5h-15q-80 0 -139 -28.5t-106 -57.5l-3 -2q-29 -16 -52 -27.5t-48 -11.5t-47 15q-23 12 -28 54t-5 101v60q0 33 2 65q2 35 3 70t1 70q0 80 -7 138t-34 58q-33 0 -56 -27.5t-23 -84.5zM217 483q0 72 27.5 141.5t75 124t110.5 88t135 33.5 q76 0 146.5 -25.5t126 -75.5t88 -124t32.5 -168q0 -80 -28.5 -150.5t-80.5 -121.5t-125 -81t-159 -30q-74 0 -137 33t-110.5 88t-74 125t-26.5 143z" />
<glyph unicode="&#xff;" horiz-adv-x="909" d="M27 860q0 -29 18 -75t41 -99l2 -2l-2 6l18 -49l209 -500q29 -66 39 -118t10 -103q0 -47 -11 -84t-28.5 -66.5t-36 -52t-30.5 -36.5h-2q-39 -39 -75 -56.5t-70 -34.5q-2 -2 -5 -2h-2q-29 -14 -49 -25.5t-20 -23.5q0 -16 21.5 -28.5t60.5 -12.5q72 0 124 23.5t94 71t79 121 t75 175.5l310 807q27 66 38 107t11 61q0 10 -5 20.5t-22 10.5q-23 0 -41 -15.5t-31.5 -40t-24.5 -53t-20 -53.5v-2l-61 -174q-31 -88 -74 -147.5t-114 -59.5q-35 0 -64 17.5t-52.5 45t-42 63.5t-32.5 73l-67 172v2q-14 35 -28.5 68.5t-31 59.5t-36 42t-44.5 16 q-18 0 -23 -15t-5 -34zM104 -410l2 2l-2 -2h2h3h-3h-2zM162 1165q0 -20 13 -35.5t36 -15.5q27 0 41 15.5t14 35.5q0 16 -13 29.5t-42 13.5q-27 0 -38 -13t-11 -30zM610 1165q0 -20 13.5 -35.5t35.5 -15.5q29 0 43.5 15.5t14.5 35.5q0 16 -13.5 29.5t-44.5 13.5 q-27 0 -38 -13t-11 -30z" />
<glyph unicode="&#x152;" horiz-adv-x="1970" d="M33 678q0 -143 51 -273.5t145.5 -228.5t229.5 -155.5t301 -57.5q86 0 167 15.5t152 41.5h25q29 -10 68.5 -12t99.5 -2h414q104 0 161.5 7t57.5 34q0 35 -56.5 47t-148.5 12h-232q-61 0 -116.5 10.5t-95 40t-63.5 82t-24 136.5q0 104 20.5 163.5t59.5 89t94.5 37 t122.5 7.5h170q76 0 132.5 7t56.5 38q0 35 -50.5 44t-138.5 9h-153q-59 0 -114.5 6t-98.5 30.5t-69.5 74t-26.5 133.5q0 94 23.5 147t64.5 81t99 35t130 7h133q104 0 174 8t70 43q0 29 -39 40t-121 11h-475q-63 0 -115 -10l-24 4l4 -2q-78 33 -163 48.5t-175 15.5 q-174 0 -309.5 -59.5t-228.5 -162t-141 -242.5t-48 -300zM176 678q0 160 49 283.5t131 207.5t187.5 127t216.5 43q68 0 132 -14t122 -37l24 -37q-2 -266 -3 -449.5t-1 -303.5v-250q0 -47 1 -66.5t1 -27.5v-2l-24 -37q-57 -23 -121 -36t-131 -13q-141 0 -250 56t-182.5 145 t-112.5 198t-39 213z" />
<glyph unicode="&#x153;" horiz-adv-x="1781" d="M16 457q0 -111 40 -199t107.5 -149.5t157 -94t187.5 -32.5q137 0 240.5 54t169.5 144l57 -2q51 -74 130 -118t181 -44h6q72 0 122 10.5t82 23.5t46 27.5t14 24.5q0 12 -2 19.5t-16 7.5q-25 0 -49.5 -8t-48.5 -19q-35 -12 -72 -24t-86 -12q-47 0 -98 15t-94 44t-72 72 t-29 100q0 68 47 111t115 65q78 -14 125 -14q41 0 82 4t76 16q12 -2 24 -2t23 -2q2 0 6 -1t8 -1q43 -6 76 -6q66 0 102.5 27.5t36.5 74.5q0 76 -26.5 139.5t-72.5 111.5t-107.5 79t-131.5 41q-59 20 -121 21q-66 0 -123 -27t-100 -70q-45 -37 -76 -88l-61 -6 q-72 82 -172.5 125t-210.5 43q-94 0 -182 -33t-157 -94t-111 -151.5t-42 -202.5zM139 457q0 80 29 151.5t78 123.5t116.5 83t145.5 31q76 0 142.5 -29t117.5 -80t81 -122.5t30 -157.5q0 -84 -31 -154t-83 -120t-118.5 -77.5t-138.5 -27.5q-84 0 -152.5 32.5t-117 87t-74 122 t-25.5 137.5zM985 688q0 41 19.5 81t52.5 75q47 33 114.5 50t155.5 17q4 0 10 -1t11 -1h14q78 -25 134 -82t56 -143q0 -66 -34.5 -106.5t-90.5 -63.5q-35 4 -74.5 7t-86.5 3q-49 0 -119 -14q-68 29 -115 70.5t-47 107.5z" />
<glyph unicode="&#x178;" horiz-adv-x="1050" d="M-8 1333q0 -29 27.5 -78t72.5 -112h-2l170 -246q76 -111 130 -227.5t54 -220.5v-328q0 -51 17.5 -83t46.5 -32q33 0 49 37t16 84v338q0 47 15.5 100t41 110.5t60.5 116t74 113.5l176 258h-2q41 57 66.5 103.5t25.5 72.5q0 25 -11 31t-22 6q-47 0 -92 -50t-86 -118 l-55 -94q-27 -45 -54.5 -86t-56 -71.5t-61.5 -49t-70 -18.5q-43 0 -77.5 18.5t-65.5 49t-56.5 71.5t-50.5 86l-49 84v2q-41 74 -88 129t-106 55q-23 0 -30 -16t-7 -35zM260 1686q0 -20 13.5 -36t35.5 -16q27 0 41.5 15.5t14.5 36.5q0 16 -13.5 29.5t-42.5 13.5 q-27 0 -38 -13.5t-11 -29.5zM709 1686q0 -20 13 -36t36 -16q29 0 43 15.5t14 36.5q0 16 -13 29.5t-44 13.5q-27 0 -38 -13.5t-11 -29.5z" />
<glyph unicode="&#x2c6;" horiz-adv-x="792" d="M168 1247q25 -6 29 -22h32q2 18 14.5 45.5t35.5 52.5h-3q23 20 46.5 35.5t52.5 15.5q33 0 59.5 -20.5t54.5 -46.5v2q6 -10 21 -21q31 -41 31 -55h32q0 8 13 12v33q-10 2 -24.5 12t-29.5 23q-31 37 -74.5 70.5t-82.5 33.5q-33 0 -64.5 -22.5t-58.5 -51.5l-27 -26 q-14 -14 -27.5 -25.5t-27.5 -13.5z" />
<glyph unicode="&#x2dc;" horiz-adv-x="663" d="M82 1210l12 13q-6 -16 -6 -31q39 6 47 10h-2q20 6 49 12h-2q10 2 21.5 3.5t23.5 1.5q29 0 60 -11v-2h2q4 -4 16 -4q10 -8 23 -10q14 -8 22 -11t14 -5v2q23 -12 47.5 -21.5t57.5 -9.5h10q8 0 19 2h2q23 0 43 37h4q10 0 16 6l-8 16q4 10 6 20.5t6 22.5l-28 -28l-13 -2v-11 q0 2 -1 1l-1 -1v-2q-25 -6 -47 -10v-2h-26q-37 0 -74 12v-2q-18 10 -38 18.5t-46 16.5q-49 27 -105 27h-12q-6 0 -16 -2h-2q-41 -8 -60 -37q-10 0 -12 -3t-2 -16zM94 1194l2 2v-2h-2zM362 1178l11 18l-4 -20z" />
<glyph unicode="&#x2000;" horiz-adv-x="981" />
<glyph unicode="&#x2001;" horiz-adv-x="1962" />
<glyph unicode="&#x2002;" horiz-adv-x="981" />
<glyph unicode="&#x2003;" horiz-adv-x="1962" />
<glyph unicode="&#x2004;" horiz-adv-x="654" />
<glyph unicode="&#x2005;" horiz-adv-x="490" />
<glyph unicode="&#x2006;" horiz-adv-x="327" />
<glyph unicode="&#x2007;" horiz-adv-x="327" />
<glyph unicode="&#x2008;" horiz-adv-x="245" />
<glyph unicode="&#x2009;" horiz-adv-x="392" />
<glyph unicode="&#x200a;" horiz-adv-x="109" />
<glyph unicode="&#x2010;" horiz-adv-x="1130" d="M133 606q0 -18 35 -25.5t76 -7.5h651q43 0 79 8.5t36 24.5q0 23 -36 33t-79 10h-651q-43 0 -77 -11t-34 -32z" />
<glyph unicode="&#x2011;" horiz-adv-x="1130" d="M133 606q0 -18 35 -25.5t76 -7.5h651q43 0 79 8.5t36 24.5q0 23 -36 33t-79 10h-651q-43 0 -77 -11t-34 -32z" />
<glyph unicode="&#x2012;" horiz-adv-x="1130" d="M133 606q0 -18 35 -25.5t76 -7.5h651q43 0 79 8.5t36 24.5q0 23 -36 33t-79 10h-651q-43 0 -77 -11t-34 -32z" />
<glyph unicode="&#x2013;" horiz-adv-x="1232" d="M133 561q0 -14 35 -16t76 -2h717q43 0 78.5 2t35.5 16q0 18 -37 23.5t-77 5.5h-717q-43 0 -77 -5t-34 -24z" />
<glyph unicode="&#x2014;" horiz-adv-x="1363" d="M53 561q0 -14 35 -16t76 -2h1016q43 0 78.5 2t35.5 16q0 18 -35.5 23.5t-78.5 5.5h-1016q-43 0 -77 -5t-34 -24z" />
<glyph unicode="&#x2018;" horiz-adv-x="468" d="M162 1137q0 -25 9 -34t26 -9q27 0 47 31.5t33.5 74.5t19.5 86t6 66q0 63 -29 63q-16 0 -35.5 -34.5t-36 -81t-28.5 -92t-12 -70.5z" />
<glyph unicode="&#x2019;" horiz-adv-x="454" d="M182 1153q0 -37 5.5 -50t23.5 -13q14 0 34.5 33.5t37 79.5t29 93t12.5 72q0 41 -35 41q-27 0 -46.5 -31.5t-32.5 -73.5t-20.5 -85t-7.5 -66z" />
<glyph unicode="&#x201a;" horiz-adv-x="454" d="M182 -111q0 -37 5.5 -50t23.5 -13q14 0 34.5 34t37 80t29 92.5t12.5 71.5q0 41 -35 41q-27 0 -46.5 -31.5t-32.5 -73.5t-20.5 -85t-7.5 -66z" />
<glyph unicode="&#x201c;" horiz-adv-x="829" d="M121 1137q0 -25 9 -34t26 -9q27 0 46 31.5t32.5 74.5t19.5 86t6 66q0 63 -27 63q-16 0 -35.5 -34.5t-36 -81t-28.5 -92t-12 -70.5zM539 1137q0 -25 9 -34t25 -9q27 0 46.5 31.5t33 74.5t20.5 86t7 66q0 63 -29 63q-16 0 -35.5 -34.5t-36 -81t-28.5 -92t-12 -70.5z" />
<glyph unicode="&#x201d;" horiz-adv-x="856" d="M137 1157q0 -63 29 -63q14 0 34.5 34.5t37 80.5t29 93t12.5 72q0 41 -35 41q-27 0 -47.5 -31.5t-33.5 -74.5t-19.5 -86t-6.5 -66zM557 1157q0 -63 27 -63q14 0 34.5 34.5t37 80.5t28.5 92t12 71t-9 34t-25 9q-27 0 -46.5 -31.5t-33 -74.5t-19.5 -86t-6 -66z" />
<glyph unicode="&#x201e;" horiz-adv-x="856" d="M137 -115q0 -63 29 -63q14 0 34.5 34.5t37 81t29 93t12.5 71.5q0 41 -35 41q-27 0 -47.5 -31.5t-33.5 -74.5t-19.5 -86t-6.5 -66zM557 -115q0 -63 27 -63q14 0 34.5 34.5t37 81t28.5 92t12 70.5t-9 34t-25 9q-27 0 -46.5 -31.5t-33 -74.5t-19.5 -86t-6 -66z" />
<glyph unicode="&#x2022;" horiz-adv-x="538" d="M66 651q0 -84 54 -139t140 -55q84 0 139.5 54t55.5 140q0 39 -14.5 74t-40 61.5t-61.5 42t-79 15.5q-88 0 -141 -56.5t-53 -136.5zM188 651q0 29 20.5 49.5t49.5 20.5t49.5 -20.5t20.5 -49.5q0 -31 -20.5 -51t-49.5 -20t-49.5 20.5t-20.5 50.5z" />
<glyph unicode="&#x2026;" horiz-adv-x="925" d="M106 51q0 -23 17.5 -40t40.5 -17t42 17t19 40q0 25 -19.5 44.5t-41.5 19.5q-27 0 -42.5 -19.5t-15.5 -44.5zM391 51q0 -23 17.5 -40t40.5 -17t42 17t19 40q0 25 -19.5 44.5t-41.5 19.5q-27 0 -42.5 -19.5t-15.5 -44.5zM678 51q0 -23 17.5 -40t39.5 -17q23 0 42.5 17 t19.5 40q0 25 -19.5 44.5t-42.5 19.5q-27 0 -42 -19.5t-15 -44.5z" />
<glyph unicode="&#x202f;" horiz-adv-x="392" />
<glyph unicode="&#x2039;" horiz-adv-x="544" d="M59 541q0 -35 40 -62.5t81 -50.5l4 -2t6 -2q10 -4 16.5 -8t10.5 -8l-4 10l16 6l-12 -16q20 -16 37 -29t33 -23l86 -57l-4 2q2 -2 4 -3t4 -3l3 -3t5 -3v-2h2v2h2q12 -10 20.5 -17.5t10.5 -13.5l33 4q0 10 14 12v33q-12 2 -31.5 11.5t-42.5 23.5l-151 88q-23 23 -36 48.5 t-13 62.5q0 47 21.5 76.5t53.5 52.5l119 65h2q27 16 49.5 28.5t34.5 16.5l-4 31q-10 0 -14 16l-31 2q-4 -16 -17.5 -27t-29.5 -22l-92 -59q-10 -8 -18.5 -14.5t-18.5 -12.5v-2l-41 -20l-29 -17q-47 -25 -83 -49t-36 -65z" />
<glyph unicode="&#x203a;" horiz-adv-x="544" d="M37 780q12 -4 35.5 -16t50.5 -29h2l123 -71q31 -23 51 -49.5t20 -73.5q0 -35 -11 -59.5t-29 -43.5q-12 0 -13 -8l-147 -88q-23 -14 -42.5 -23.5t-31.5 -11.5v-33q12 -2 14 -16l31 -2q2 6 11.5 14.5t21.5 18.5l2 2v-2v-2l2 2q2 2 4 3t4 3l4 4l86 57q4 4 9.5 7.5t9.5 7.5 q10 8 24.5 18t22.5 17q12 8 22 14q6 4 23 12q4 2 7 4t7 4q37 23 70 47.5t33 53.5q0 41 -36 65.5t-83 48.5q-10 4 -19 9q-4 2 -8 6l-41 20q-10 6 -18 14l-8 7l4 -2q-4 4 -6 4t-7 4l-96 61q-2 0 -2 2q-16 10 -28.5 21.5t-14.5 23.5h-33q-4 -14 -16 -14z" />
<glyph unicode="&#x205f;" horiz-adv-x="490" />
<glyph unicode="&#x2122;" horiz-adv-x="2031" d="M168 1378h33q16 0 18 -2q4 -2 8 -5t9 -5l-3 2q20 -16 47 -37.5t49.5 -53.5t38 -77t15.5 -106v-256q0 -29 7 -62t26 -33q16 0 21 31t5 60v262q0 59 14.5 102t36 75t47 54.5t48.5 38.5l2 2h-2q-2 0 -2 -2q-4 0 -4 27h32q0 10 -18 16t-48 9t-65.5 4t-70.5 1h-9 q-41 0 -80.5 -2t-74.5 -10q-27 -2 -35 -6t-10 -8q-10 -4 -18.5 -9.5t-16.5 -9.5zM918 1298q0 -23 1 -71.5t5 -108.5q2 -47 4 -96t4 -92t3 -77t1 -52q0 -35 8 -47.5t23 -12.5q10 0 17 23.5t13 56.5h4q6 33 14.5 65t22 57.5t34 40.5t52.5 15q66 0 95.5 -46t52.5 -101 q18 -43 39.5 -82t62.5 -39q33 0 53.5 36t38.5 81q12 29 24.5 55.5t29 48t38 34.5t52.5 13q33 0 54.5 -15t35.5 -39.5t23.5 -56.5t15.5 -65h2q6 -33 14 -55.5t25 -22.5q18 0 23 32t5 57v55q0 37 2 82q0 20 1 39.5t1 42.5q2 49 3.5 98t1.5 92v19q0 20 -2.5 45.5t-11.5 49 t-27.5 39t-53.5 15.5h-4q-39 0 -64.5 -17.5t-43 -45t-29.5 -64.5t-22 -74q-12 -43 -25.5 -83t-34 -70.5t-51.5 -49t-76 -18.5q-51 0 -84 19.5t-54.5 50.5t-34.5 71.5t-23 83.5q-10 39 -21.5 75t-30 63.5t-46 45t-70.5 17.5q-35 0 -62.5 -38t-27.5 -79z" />
<glyph unicode="&#x25fc;" horiz-adv-x="890" d="M0 0v891h891v-891h-891z" />
</font>
</defs>
</svg>
