<?xml version="1.0" standalone="no"?>
<!DOCTYPE svg PUBLIC "-//W3C//DTD SVG 1.1//EN" "http://www.w3.org/Graphics/SVG/1.1/DTD/svg11.dtd" >
<svg xmlns="http://www.w3.org/2000/svg">
<metadata></metadata>
<defs>
<font id="stencil_gothicregular" horiz-adv-x="770" >
<font-face units-per-em="2048" ascent="1638" descent="-410" />
<missing-glyph horiz-adv-x="878" />
<glyph horiz-adv-x="0" />
<glyph unicode="&#xd;" horiz-adv-x="878" />
<glyph unicode=" "  horiz-adv-x="878" />
<glyph unicode="&#x09;" horiz-adv-x="878" />
<glyph unicode="&#xa0;" horiz-adv-x="878" />
<glyph unicode="!" horiz-adv-x="372" d="M68 123q0 59 43 99t100 40q59 0 101 -40t42 -99t-42 -99t-101 -40q-57 0 -100 39.5t-43 99.5zM76 1485h270l-61 -1102h-148z" />
<glyph unicode="&#x22;" horiz-adv-x="741" d="M76 1485h270q-8 -131 -15 -261t-14 -259h-213q-6 129 -14 259t-14 261zM438 1477h269q-8 -131 -15.5 -260.5t-13.5 -260.5h-213z" />
<glyph unicode="#" horiz-adv-x="1501" d="M68 901v166h249l-6 412h269l-9 -412h320l-6 410h268l-8 -410h285v-166h-287l-8 -358h295v-176h-297l-9 -361h-213l-6 361h-348l-6 -361h-213l-6 361h-262v176h258l-6 358h-254zM561 543h340q-2 90 -3 178t-3 180h-326z" />
<glyph unicode="$" horiz-adv-x="700" d="M72 588q0 4 1 6t1 6h172q0 -6 0 -5t4 -3v-4q0 -27 26.5 -42.5t49.5 -19.5l2 2l-2 -139q-63 0 -124 23.5t-98 76.5q-4 10 -8 18.5t-8 18.5q-6 10 -11 29.5t-5 32.5zM113 913q0 45 17 80t47 59.5t68 37t81 12.5v-137q-10 -8 -25.5 -20.5t-15.5 -26.5q0 -29 28.5 -51.5 t70.5 -42t92 -41t92 -51.5t71 -70.5t29 -98.5q0 -33 -17.5 -64.5t-45 -56t-61.5 -40t-67 -13.5l-55 2v137q25 8 53 23q4 4 9 13t8 14q0 4 -1 7t3 5q-12 31 -45 51.5t-76 37.5t-88 35.5t-84 44t-63.5 62.5t-24.5 92zM295 0v295h115v-295h-115zM295 1174v292h117v-292h-117z M422 967v135l2 2q41 0 83 -16.5t73.5 -45t52 -66.5t18.5 -83h-129q-10 0 -10 20.5t-23 34.5q-14 8 -32.5 13.5t-34.5 5.5z" />
<glyph unicode="%" horiz-adv-x="1630" d="M90 948v289q0 47 17.5 89t47 74t70.5 50t88 18h33v-141q-47 -10 -73.5 -51t-26.5 -86v-172q0 -47 24.5 -89t75.5 -50v-160h-33q-47 0 -88 18.5t-70.5 49t-47 72.5t-17.5 89zM270 86l973 1421l123 -84l-973 -1419zM428 719v162q23 2 40 15t29.5 33.5t18.5 44t6 44.5v172 q0 47 -23.5 87t-70.5 50v141h31q47 0 87 -18t69.5 -51t47 -74t17.5 -88v-289q0 -45 -16.5 -87t-46 -73.5t-70.5 -50t-88 -18.5h-31zM963 225q0 -47 17 -89t47 -72.5t71 -49t88 -18.5h33v160q-51 6 -75 48t-24 89v174q0 43 25.5 86t73.5 51v141h-33q-47 0 -88 -18t-71 -50 t-47 -74t-17 -89v-289zM1300 -4h31q47 0 88 18.5t71 50t46 73.5t16 87v289q0 45 -17 87t-47 74t-70 51t-87 19h-31v-141q47 -10 71 -51t24 -86v-174q0 -41 -23.5 -86t-71.5 -49v-162z" />
<glyph unicode="&#x26;" horiz-adv-x="1402" d="M80 446q0 129 70.5 238t187.5 164l362 -815q-80 -31 -170 -31q-92 0 -174 34t-143 94t-97 141t-36 175zM383 1206q0 55 21.5 104.5t59.5 85.5t87 56.5t104 20.5t104.5 -20.5t86.5 -57.5t59.5 -85t22.5 -104q0 -119 -90 -198l190 -385l160 -45l92 -172l-90 -111l145 -293 h-413q-29 63 -79 160.5t-110.5 212t-122 238.5t-113 237t-83 207t-31.5 149z" />
<glyph unicode="'" horiz-adv-x="522" d="M74 1270q0 43 17.5 81t46 65.5t66.5 44t81 16.5t82 -16.5t67.5 -44t46 -65.5t17.5 -81q0 -27 -5.5 -45.5t-13.5 -33.5t-19 -29.5t-24 -35.5l-186 -278l-117 84l86 145q-66 18 -105.5 71.5t-39.5 121.5z" />
<glyph unicode="(" horiz-adv-x="348" d="M78 195v1089q0 111 71.5 182.5t182.5 71.5v-162q-59 -23 -94 -75t-35 -115v-893q0 -61 34.5 -114.5t94.5 -76.5v-159h-10q-51 0 -96.5 20.5t-78 55t-51 79.5t-18.5 97z" />
<glyph unicode=")" horiz-adv-x="348" d="M78 -57v159q59 23 94 76t35 115v893q0 63 -36 115.5t-93 74.5v162h8q53 0 97 -20.5t78 -55.5t52.5 -81t18.5 -97v-1089q0 -53 -19.5 -99.5t-53.5 -80t-81 -53t-100 -19.5z" />
<glyph unicode="*" horiz-adv-x="772" d="M76 1108v90h221l-156 156l64 65l155 -155v221h93v-221l155 155l64 -65l-156 -156h221v-90h-221l156 -156l-64 -65l-155 157v-221h-93v221l-155 -157l-64 65l156 156h-221z" />
<glyph unicode="+" horiz-adv-x="1173" d="M68 686v178h436v436h178v-436h436v-178h-436v-436h-178v436h-436z" />
<glyph unicode="," horiz-adv-x="518" d="M70 211q0 43 16 81t46 65.5t68 43t81 15.5t81.5 -15.5t67.5 -43t46.5 -65.5t17.5 -81q0 -27 -5.5 -45.5t-13.5 -33.5t-19.5 -30.5t-23.5 -35.5l-188 -277l-115 82l84 145q-63 18 -103 72.5t-40 122.5z" />
<glyph unicode="-" d="M74 690v266h661v-266h-661z" />
<glyph unicode="." horiz-adv-x="524" d="M74 207q0 43 17.5 81t46 65.5t67.5 43t82 15.5t82 -15.5t67.5 -43t46 -65.5t17.5 -81t-17.5 -81t-47 -65.5t-67.5 -43t-81 -15.5t-82 15.5t-67.5 43t-46 65.5t-17.5 81z" />
<glyph unicode="/" horiz-adv-x="1523" d="M90 6l1141 1467h221l-1141 -1467h-221z" />
<glyph unicode="0" horiz-adv-x="1261" d="M68 475v529q0 98 37.5 182t101 147.5t149.5 101.5t181 42v-263q-84 -18 -134.5 -86.5t-50.5 -152.5v-469q0 -84 50.5 -153.5t134.5 -88.5v-262q-96 4 -181.5 42t-150 101.5t-101 147.5t-36.5 182zM762 4v268q72 27 115 92.5t43 141.5v469q0 76 -43 140.5t-115 90.5v271 q92 -8 172 -49.5t139.5 -103.5t94 -145t34.5 -175v-529q0 -92 -34.5 -174t-94 -145.5t-139.5 -103.5t-172 -48z" />
<glyph unicode="1" horiz-adv-x="614" d="M66 1053l200 420h320v-1467h-320v983z" />
<glyph unicode="2" horiz-adv-x="1259" d="M68 6q2 135 38.5 241.5t95 190.5t133.5 150.5t152.5 120t151.5 97.5t132 85t93 81t35 87q0 55 -39 91t-86 56v267q74 0 149.5 -31t137 -83t100.5 -122t39 -150v7q0 -104 -41 -184.5t-106.5 -146t-147.5 -121.5t-164 -112.5t-155.5 -119t-122.5 -140.5q-39 -63 -47 -128.5 t-21 -135.5h-327zM80 1077q0 84 46 158t116.5 129t154.5 86t160 29h14v-248q-35 -4 -74.5 -17.5t-72.5 -35t-52.5 -52t-17.5 -73.5q-20 -4 -39.5 -4h-42.5h-188q-2 8 -3 14t-1 14zM616 6v70q0 66 27 118t86 82q4 4 15.5 9.5t23.5 9.5t22.5 8t16.5 4h358v-301h-549z" />
<glyph unicode="3" horiz-adv-x="1290" d="M37 446h317q0 -49 10.5 -82.5t32 -54t56 -31t84.5 -14.5v-258h-33q-92 0 -175 34t-145.5 93.5t-101.5 140t-45 172.5zM39 1079q16 100 61 175t113 125.5t154 75t180 24.5v-273q-27 -2 -60.5 -9t-62.5 -22.5t-49.5 -38t-20.5 -57.5h-315zM618 639v188q29 0 79.5 2 t97.5 13.5t81.5 36t34.5 69.5v137q0 45 -36.5 70t-73.5 35v287q225 -20 327.5 -149.5t102.5 -336.5q0 -41 -19.5 -81t-49 -73.5t-66.5 -55t-72 -25.5q49 -16 88 -50t65.5 -79t40 -96.5t13.5 -104.5q0 -92 -34 -167t-92 -128t-138 -85t-172 -38v268q55 16 79.5 37t32.5 49.5 t6 67.5t-2 90q0 45 -34.5 68.5t-81.5 35t-97.5 13.5t-79.5 2z" />
<glyph unicode="4" horiz-adv-x="1333" d="M74 412v288h4l553 656v-510l-137 -146h124v-288h-544zM762 2v1471h330v-756h178v-322h-178v-393h-330z" />
<glyph unicode="5" horiz-adv-x="1341" d="M74 446h329q0 -102 47.5 -138t143.5 -36v-266h-55q-92 0 -175 34t-145.5 94.5t-100.5 140t-44 171.5zM80 717v762h1134v-262h-804v-500h-330zM598 721v262h215q98 0 183 -37t147.5 -100.5t98.5 -149.5t36 -182l-2 -123h2q-18 -100 -65.5 -173t-115 -120t-152.5 -69.5 t-181 -22.5v266q27 0 59.5 5.5t61 17.5t48 34.5t19.5 59.5q0 131 -7 198.5t-41 97.5t-105.5 33t-200.5 3z" />
<glyph unicode="6" horiz-adv-x="1343" d="M74 473v533q0 96 36.5 181t99 148.5t147.5 100.5t182 37h55v-265q-37 0 -71 -6t-60.5 -21.5t-43 -44t-16.5 -71.5v-649q0 -45 16.5 -73t43 -44t60.5 -22.5t71 -6.5v-264h-55q-96 0 -181.5 37t-148 100.5t-99 148.5t-36.5 181zM598 715v264h215q96 0 181 -37t148.5 -100.5 t99.5 -148.5t36 -181v-23.5v-41v-39.5v-19q-18 -100 -65.5 -172t-115 -119t-152.5 -69.5t-181 -22.5v264q29 0 61.5 5.5t60 18.5t47 36.5t19.5 60.5q0 129 -7 195.5t-42 95.5t-105.5 31t-199.5 2zM764 1208v265h55q86 0 164 -30t139.5 -82t102.5 -125t55 -157h-326 q-4 41 -21.5 66.5t-44 39t-58 18.5t-66.5 5z" />
<glyph unicode="7" horiz-adv-x="1239" d="M68 1153v315h540v-2l-129 -313h-411zM260 4l524 1469h398l-514 -1469h-408z" />
<glyph unicode="8" horiz-adv-x="1298" d="M68 993h2q0 256 127 371t381 115v-215q-29 0 -62 -5.5t-60.5 -18.5t-45 -37.5t-17.5 -61.5v-148q0 -37 20.5 -53t49.5 -21.5t61.5 -3t57.5 2.5v-246q-33 0 -67 -6.5t-60.5 -21.5t-43 -42t-16.5 -67v-168q0 -35 19.5 -57.5t48.5 -35t61.5 -16.5t57.5 -4v-248h-54 q-80 0 -156.5 25.5t-138 73t-104.5 114t-59 148.5h2q0 68 1 123t13 104t39 96t78 96q-51 39 -86 91.5t-49 115.5zM723 6v248q63 0 116.5 19.5t67.5 91.5v2q0 66 1 121t-13 96t-53 64.5t-119 23.5v246q23 0 55.5 -2.5t61 3t49 21.5t20.5 51v116t-15 85t-53 53.5t-116 18.5 v215h47q238 0 350.5 -130t112.5 -356h2q-14 -63 -50 -115.5t-87 -91.5q51 -49 78.5 -96t40 -97t13.5 -105.5t1 -120.5q-14 -82 -58.5 -148.5t-105.5 -114t-138 -73t-157 -25.5h-51zM1233 993h2h-2z" />
<glyph unicode="9" horiz-adv-x="1343" d="M74 401h325q4 -41 20.5 -66.5t43 -39.5t58.5 -19.5t67 -5.5v-264h-53q-86 0 -164 30t-139.5 83t-103.5 124.5t-54 157.5zM74 1090q18 100 65 171.5t115 118.5t154 70t180 23v-265q-27 0 -59.5 -5t-60.5 -17t-47.5 -34.5t-19.5 -59.5q0 -131 7.5 -199t41 -96.5 t105.5 -30.5t201 -2v-264h-217q-96 0 -181.5 36.5t-148 100t-98 148.5t-35.5 182v123h-2zM760 6v264q37 0 70.5 6.5t59 22.5t42 44t16.5 73v649q0 43 -16.5 71.5t-43 44t-60 21.5t-68.5 6v265h53q96 0 181 -37t148.5 -100.5t100.5 -148.5t37 -181v-533q0 -96 -37 -181 t-100.5 -148.5t-148.5 -100.5t-181 -37h-53z" />
<glyph unicode=":" horiz-adv-x="518" d="M70 211q0 43 16 81t46 65.5t68 43t81 15.5t81.5 -15.5t67.5 -43t46.5 -65.5t17.5 -81t-17.5 -81t-46.5 -65.5t-67.5 -43t-81.5 -15.5t-81 15.5t-68 43t-46 65.5t-16 81zM70 1038q0 43 16 81t46 65.5t68 44t81 16.5t81.5 -15.5t67.5 -43t46.5 -65.5t17.5 -83 q0 -43 -17.5 -80.5t-46.5 -65.5t-67.5 -43t-81.5 -15t-81 16t-68 44t-46 64.5t-16 79.5z" />
<glyph unicode=";" horiz-adv-x="518" d="M70 211q0 43 16 81t46 65.5t68 43t81 15.5t81.5 -15.5t67.5 -43t46.5 -65.5t17.5 -81q0 -27 -5.5 -45.5t-13.5 -33.5t-19.5 -30.5t-23.5 -35.5l-188 -277l-115 82l84 145q-63 18 -103 72.5t-40 122.5zM70 1038q0 43 16 81t46 65.5t68 44t81 16.5t81.5 -15.5t67.5 -43 t46.5 -65.5t17.5 -83q0 -43 -17.5 -80.5t-46.5 -65.5t-67.5 -43t-81.5 -15t-81 16t-68 44t-46 64.5t-16 79.5z" />
<glyph unicode="=" horiz-adv-x="1181" d="M74 500v176h1052v-176h-1052zM74 862v176h1052v-176h-1052z" />
<glyph unicode="?" horiz-adv-x="1079" d="M68 1075q0 84 34.5 154.5t91 124t130 87.5t153.5 44v-271q-33 -8 -62.5 -25.5t-51 -42t-31.5 -56t-2 -68.5h-258q-2 14 -3 27.5t-1 25.5zM416 119q0 59 42 98t101 39q57 0 100 -39t43 -98t-43 -99t-100 -40q-59 0 -101 39.5t-42 99.5zM418 537q0 68 24.5 118t61.5 91.5 t81 78.5t80.5 77t61.5 84t25 104q0 16 -10.5 31.5t-26 30.5t-30.5 26.5t-28 17.5v283q74 -14 140.5 -55.5t117 -100.5t81 -131t30.5 -148q0 -74 -24.5 -122t-61.5 -87.5t-81 -76.5t-81 -88.5t-61.5 -125t-24.5 -182.5h-272q6 45 2 87.5t-4 87.5z" />
<glyph unicode="@" horiz-adv-x="1626" d="M8 700q0 160 60.5 302.5t165 248t244.5 167t300 61.5q162 0 302.5 -61.5t245 -167t164.5 -248t60 -302.5q0 -115 -31.5 -222t-95.5 -204v-2h-153v2l-367 -2v775l39 18q55 -8 90 -30.5t54.5 -56.5t29.5 -77t17 -96l4 4l-2 -2l-2 -2v-404h223q72 139 71 299q0 135 -51 254 t-138 208t-206 140.5t-254 51.5t-252.5 -51.5t-205 -140.5t-138.5 -207.5t-51 -254.5q0 -135 51 -253.5t138.5 -207.5t205 -140.5t252.5 -51.5q117 0 223.5 40t194.5 114h172q-111 -131 -264.5 -204t-325.5 -73q-162 0 -302 61.5t-244.5 167t-164 247t-59.5 300.5zM442 492 q0 55 26 97t66.5 70.5t91 43t99.5 14.5q43 0 82 -12v-183q-10 0 -27.5 -1t-35 -6t-30 -13t-12.5 -23q0 -12 12.5 -22.5t29 -16.5t34 -7t25.5 3v-162q-18 -4 -38 -6t-40 -2q-47 0 -97 15.5t-91 44t-68 70.5t-27 96zM459 965q27 31 68.5 51t88 30.5t94.5 14.5t87 4h6v-221 q-57 0 -115.5 -11.5t-105.5 -46.5h4z" />
<glyph unicode="A" horiz-adv-x="1642" d="M66 2l466 1081l345 -890h-273l-96 -191h-442zM649 1305l60 168h260l596 -1471h-400z" />
<glyph unicode="B" horiz-adv-x="1220" d="M68 0v1477h366v-1477h-366zM606 8v303l56 -4h9q29 1 55 11q30 12 53.5 34.5t37.5 53t14 63.5q0 49 -20 80t-53 48t-73 23.5t-79 6.5v217q6 -2 13.5 -4t13.5 -2q37 0 72.5 11t63.5 32.5t45 53.5t17 71q0 47 -19 79.5t-52 52t-73 25.5q-15 2 -30 2q-25 0 -51 -6l4 4l-4 301 q41 4 81 4h81q80 0 151.5 -27.5t126 -77.5t86 -119.5t31.5 -151.5q0 -59 -16.5 -113.5t-46 -101t-69.5 -80t-89 -52.5q100 -51 160.5 -149t60.5 -213q0 -84 -31.5 -154.5t-87 -121t-129 -79t-155.5 -28.5h-78q-18 0 -37.5 2t-38.5 6z" />
<glyph unicode="C" horiz-adv-x="1275" d="M61 455v569q0 92 34 174t92.5 144.5t139.5 99.5t173 37h65v-318q-47 -6 -83 -32.5t-60.5 -64.5t-36.5 -83t-12 -88v-342q0 -43 12 -89t36.5 -84t60.5 -64.5t83 -32.5v-279h-65q-92 0 -173 37t-139.5 98.5t-92.5 143t-34 174.5zM786 2v291q70 27 103 84t43 129h285v-51 q0 -90 -33 -171t-90.5 -143.5t-136 -99.5t-171.5 -39zM786 1151v328q102 -2 182.5 -43t135.5 -108.5t84 -155t29 -183.5h-295q-16 53 -49 96t-87 66z" />
<glyph unicode="D" horiz-adv-x="1173" d="M74 4v1469h319v-1469h-319zM618 4v315q47 6 83 33t59.5 66t36 84t12.5 88v338q0 43 -12.5 88t-36 83t-59 64.5t-83.5 32.5v277h66q92 0 172 -37t138.5 -98.5t91 -143.5t32.5 -172v-565q0 -90 -32.5 -172t-91 -144.5t-138.5 -99.5t-172 -37h-66z" />
<glyph unicode="E" horiz-adv-x="1116" d="M74 6v1469h309v-598h473v-273h-473v-598h-309zM563 6v273h500v-273h-500zM563 1204v269h500v-269h-500z" />
<glyph unicode="F" horiz-adv-x="1116" d="M74 6v1469h309v-598h473v-273h-473v-598h-309zM563 1204v269h500v-269h-500z" />
<glyph unicode="G" horiz-adv-x="1267" d="M61 457v565q0 90 34 172t92.5 143.5t138.5 98.5t172 37h63v-314q-47 -6 -83 -32.5t-59.5 -64.5t-35.5 -83t-12 -88v-340q0 -43 12 -87t35.5 -83t59.5 -65.5t83 -32.5v-277h-63q-92 0 -172 37t-138.5 98.5t-92.5 143.5t-34 172zM678 817h528v-360q0 -90 -31.5 -171 t-89 -142.5t-135.5 -98.5t-168 -39v289q59 25 101.5 84t42.5 125q0 10 -2 24.5t-4 24.5h-238zM782 1147v326q102 -2 181 -43t132.5 -108t82 -153t28.5 -182h-293q-16 53 -46.5 95t-84.5 65z" />
<glyph unicode="H" horiz-adv-x="1198" d="M74 6v1469h309v-598h143v-273h-143v-598h-309zM688 604v273h143v598h310v-1469h-310v598h-143z" />
<glyph unicode="I" horiz-adv-x="450" d="M74 6v1469h303v-1469h-303z" />
<glyph unicode="J" horiz-adv-x="1234" d="M68 414q0 37 10 78h309q-4 -8 -4 -16.5v-18.5q0 -61 44 -102.5t99 -59.5v-297q-80 10 -161.5 43t-148 85t-107.5 125t-41 163zM739 2v299q63 25 99 73q27 36 27 84q0 16 -3 34h4v981h310v-1020h-2l2 -39v-17q0 -78 -34 -142q-38 -71 -101.5 -123t-143.5 -85t-158 -45z " />
<glyph unicode="K" horiz-adv-x="1261" d="M74 6v1464h309l-4 -1464h-305zM514 692v262l303 516h336l-385 -626l434 -842h-325z" />
<glyph unicode="L" horiz-adv-x="1077" d="M74 6v1467h303v-1467h-303zM535 4v318h491v-318h-491z" />
<glyph unicode="M" horiz-adv-x="1495" d="M74 2v866l329 -460v-406h-329zM80 1122v348h162l680 -870l-170 -321zM889 956q4 12 20.5 53.5t39 97.5t46 118.5t44 116t32.5 90t10 41.5h342v-1471h-342v727z" />
<glyph unicode="N" horiz-adv-x="1419" d="M68 4v905l346 -460v-445h-346zM72 1184l2 291l278 -5l1002 -1468h-424zM975 836v637h346l-2 -1172z" />
<glyph unicode="O" horiz-adv-x="1290" d="M74 457v565q0 90 33.5 172t92 143.5t138.5 98.5t172 37h63v-277q-47 -6 -82.5 -32.5t-59 -64.5t-36 -83t-12.5 -88v-340q0 -43 12.5 -87t36 -83t59 -65.5t82.5 -33.5v-313h-63q-92 0 -172 37t-138.5 98.5t-92 143.5t-33.5 172zM731 6v316q47 6 83 31.5t59.5 64.5t36 83 t12.5 87v340q0 43 -12.5 88t-36 83t-59.5 64.5t-83 32.5v277h66q92 0 172 -37t138 -98.5t91 -143.5t33 -172v-565q0 -90 -33 -172t-91 -143.5t-138 -98.5t-172 -37h-66z" />
<glyph unicode="P" horiz-adv-x="1101" d="M74 2v1471h309v-1471h-309zM569 518v270q29 2 56.5 4.5t50 11.5t36 28.5t13.5 56.5v225q0 37 -13.5 56.5t-36 28.5t-50 12t-56.5 6v251h62q61 0 135 -13t137.5 -46t104.5 -90t41 -143v-367q0 -76 -42 -130t-104.5 -90t-136.5 -53.5t-135 -17.5h-62z" />
<glyph unicode="Q" horiz-adv-x="1394" d="M74 457v565q0 90 33.5 172t92 143.5t138.5 98.5t172 37h63v-277q-47 -6 -82.5 -32.5t-59 -64.5t-36 -83t-12.5 -88v-340q0 -43 12.5 -87t36 -83t59 -65.5t82.5 -33.5v-313h-63q-92 0 -172 37t-138.5 98.5t-92 143.5t-33.5 172zM731 6v316q47 6 83 31.5t59.5 64.5t36 83 t12.5 87v340q0 43 -12.5 88t-36 83t-59.5 64.5t-83 32.5v277h66q92 0 172 -37t138 -98.5t91 -143.5t33 -172v-565q0 -119 -60 -226l158 -118l-170 -215l-215 137q-74 -29 -147 -29h-66z" />
<glyph unicode="R" horiz-adv-x="1101" d="M74 4v1469h309v-1469h-309zM569 520v271q29 2 56.5 4t50 11t36 28.5t13.5 56.5v223q0 37 -13.5 56.5t-36 28.5t-50 12t-56.5 6v251h62q61 0 135 -17t136.5 -53t104.5 -91.5t42 -130.5v-365q0 -43 -15.5 -80t-42 -67.5t-59.5 -54t-70 -40.5l180 -565h-323z" />
<glyph unicode="S" horiz-adv-x="1368" d="M74 416q0 12 6 24h348h6l2 -28q-2 -27 14.5 -48.5t41 -37t53 -24.5t51.5 -13v-287q-66 2 -136.5 16.5t-135 43t-117.5 74.5t-82 112q-18 41 -34.5 81t-16.5 87zM152 1085q0 94 36.5 167t98 123t142.5 77t169 27v-285q-12 -8 -26.5 -18.5t-29 -22.5t-23.5 -26.5t-9 -30.5 q0 -61 58.5 -106.5t147.5 -86.5t191.5 -86t191.5 -106.5t147.5 -144.5t58.5 -201q0 -70 -36 -134.5t-93.5 -114.5t-127 -81t-135.5 -33l-118 -2v293q31 6 57.5 19.5t54.5 23.5q4 6 18.5 28.5t14.5 28.5q0 66 -58.5 110t-146.5 83t-189.5 79t-189.5 95t-146 132.5t-58 192.5z M795 1198v281l8 2q96 0 177 -33t141.5 -91.5t98 -138t50.5 -174.5h-266q-10 0 -14.5 17.5t-4.5 23.5q0 27 -15.5 45.5t-37.5 30.5q-31 18 -67 25.5t-70 11.5z" />
<glyph unicode="T" horiz-adv-x="1169" d="M80 1141v332h1034v-332h-336v-1139h-346v1139h-352z" />
<glyph unicode="U" horiz-adv-x="1228" d="M74 379v1091h325v-1091q23 -33 56.5 -55.5t72.5 -34.5v-299q-80 10 -154.5 40.5t-136 81t-104.5 118t-59 149.5zM715 -8v295q82 25 129 94h2h-2l2 1089h323v-1087v-2h2q-14 -82 -58 -148.5t-106.5 -116.5t-138 -81t-153.5 -43z" />
<glyph unicode="V" horiz-adv-x="1394" d="M55 1470h353l464 -1468h-346zM807 895l168 575h354l-358 -1058z" />
<glyph unicode="W" horiz-adv-x="1748" d="M72 1470h354l371 -1220l-66 -244h-231zM664 1333l75 137h240l358 -1216l-65 -248h-217zM1249 1188l80 282l338 3l-242 -846z" />
<glyph unicode="X" horiz-adv-x="1331" d="M66 0h368l137 236l-190 350zM82 1470h385l801 -1470h-387zM762 1270l108 200h371l-301 -512z" />
<glyph unicode="Y" horiz-adv-x="1378" d="M90 1470h379q8 -16 46 -91.5t89 -181t107.5 -223.5t104.5 -218.5t80 -166t32 -67.5v-518h-359v496q0 2 -32.5 69.5t-84 170t-110.5 223t-112.5 228t-92.5 185.5zM815 1126l135 344h363l-324 -682z" />
<glyph unicode="Z" horiz-adv-x="1320" d="M74 2v309l991 1159h192v-286l-946 -1182h-237zM78 1470l762 3l-281 -334h-479zM539 0l262 330h430v-328z" />
<glyph unicode="\" horiz-adv-x="1523" d="M90 1473h221l1141 -1467h-221z" />
<glyph unicode="_" horiz-adv-x="1538" d="M0 -86h1538v-115h-1538v115z" />
<glyph unicode="a" horiz-adv-x="894" d="M57 258q0 61 30 109.5t76 81t103.5 50t112.5 17.5q41 0 92 -10v-213h-16q-10 0 -27.5 -2t-34 -7t-28 -15.5t-11.5 -24.5q0 -16 13.5 -26.5t33 -15.5t39 -6t31.5 -1v-185q-23 -6 -46.5 -8t-45.5 -2q-55 0 -112.5 16.5t-103.5 49t-76 81t-30 111.5zM72 803q35 35 82 57.5 t100 36.5t107.5 19.5t99.5 5.5h10v-256q-63 -2 -134 -14.5t-120 -53.5zM586 4v891q6 10 15 17.5t22 7.5q63 0 102 -27t63.5 -70t38 -96t23.5 -106v-3l2 -49l2 -49q0 -129 -2 -258t-2 -258h-264z" />
<glyph unicode="b" horiz-adv-x="997" d="M74 0v1477h280v-1477h-280zM514 -6v225q23 -14 41 -14q37 0 62.5 29.5t41 71.5t21.5 86t6 71q0 29 -6 73t-21.5 86t-41 71.5t-62.5 29.5q-18 0 -41 -14v206q29 6 59 7q90 0 160 -43t118 -111t73.5 -150.5t25.5 -162.5t-24.5 -163t-72.5 -150.5t-118.5 -110.5t-161.5 -43 q-31 0 -59 6z" />
<glyph unicode="c" horiz-adv-x="944" d="M68 383v154q0 72 25.5 136t71.5 114.5t107.5 84t130.5 41.5v-225q-41 -23 -61 -52.5t-29.5 -65t-9.5 -74.5v-80q0 -59 23.5 -108.5t76.5 -80.5v-223q-72 10 -133 43t-106 84t-70.5 115.5t-25.5 136.5zM586 6v221q41 25 63.5 63t32.5 83l217 -103q-35 -106 -119 -176.5 t-194 -87.5zM586 688v225q96 -16 175 -73.5t120 -145.5l-203 -133q-10 39 -33.5 72t-58.5 55z" />
<glyph unicode="d" horiz-adv-x="950" d="M84 457q0 80 25.5 162.5t73.5 150.5t119 111t161 43q27 0 57 -6v-207q-10 4 -20.5 9t-20.5 5q-39 0 -63.5 -29.5t-40 -71.5t-21.5 -86t-6 -73q0 -27 6 -71t21.5 -86t40 -71.5t63.5 -29.5q10 0 20.5 5t20.5 9v-225q-31 -6 -57 -6q-92 0 -163 43t-119 110.5t-72.5 150.5 t-24.5 163zM631 2v1471h274v-1471h-274z" />
<glyph unicode="e" horiz-adv-x="972" d="M68 383v154q0 72 25.5 136t71.5 114.5t107.5 84t130.5 41.5v-225q-41 -23 -61 -52.5t-29.5 -65t-9.5 -74.5v-80q0 -59 23.5 -108.5t76.5 -80.5v-223q-72 10 -133 43t-106 84t-70.5 115.5t-25.5 136.5zM459 424l217 143q-10 37 -32.5 69t-57.5 52v225q72 -10 123 -37.5 t90 -67.5t68.5 -91t60.5 -111l-414 -266zM586 6v221q41 25 63.5 63t32.5 83l217 -103q-35 -106 -119 -176.5t-194 -87.5z" />
<glyph unicode="f" horiz-adv-x="647" d="M76 920v268q0 59 22.5 109.5t61.5 89t91 60t109 21.5q80 0 151 -43t107 -114l-92 -162q-37 25 -84 25q-14 0 -35.5 -7.5t-40 -18.5t-31.5 -27.5t-13 -35.5v-239h225v-256h-225v-588h-242z" />
<glyph unicode="g" horiz-adv-x="927" d="M68 383v139q0 74 24.5 139.5t69.5 116.5t105.5 86t131.5 47v-245q-41 -20 -62.5 -47t-30.5 -58t-10 -66.5t-1 -74.5q0 -59 25.5 -105.5t78.5 -72.5v-246q-72 12 -133 47t-105 86t-68.5 116.5t-24.5 137.5zM449 -248q45 0 74.5 25.5t47 63.5t24.5 82t7 79v4 q-27 -8 -59 -12v244q41 16 64.5 43.5t33.5 60.5t12 71t2 74q0 57 -29.5 108.5t-82.5 74.5v243q57 -10 108 -30l68 80l131 -113l-62 -70q41 -47 61.5 -93t28 -93t7.5 -99.5v-111.5q0 -145 -97 -254q57 -109 58 -225q0 -70 -21.5 -140.5t-63.5 -127t-102.5 -92.5t-138.5 -36 q-41 0 -71 9v235z" />
<glyph unicode="h" horiz-adv-x="944" d="M74 2v1468h274v-1468h-274zM504 729v164q20 6 40.5 10t43.5 4h67q51 0 95.5 -19.5t77 -52t52 -77.5t19.5 -94v-664h-254l-4 502q0 72 -36 134t-101 93z" />
<glyph unicode="i" horiz-adv-x="393" d="M51 1225q0 59 42.5 100t101.5 41t102 -41t43 -100t-43 -101.5t-102 -42.5t-101.5 43t-42.5 101zM63 2v932h267v-932h-267z" />
<glyph unicode="j" horiz-adv-x="528" d="M53 -152q66 29 103 91.5t37 134.5l2 504l-2 2v338h256v-338v-2h2v-664q0 -51 -19.5 -95t-53.5 -78t-78 -53.5t-95 -19.5h-68q-41 0 -84 17v163zM176 1202q0 59 42 99t101 40t101.5 -39.5t42.5 -99.5q0 -59 -42 -99t-102 -40q-59 0 -101 40t-42 99z" />
<glyph unicode="k" horiz-adv-x="1124" d="M68 2v1475h264v-1475h-264zM520 457v211l187 317h315l-231 -379l280 -606h-319z" />
<glyph unicode="l" horiz-adv-x="434" d="M78 0v1468h274v-1468h-274z" />
<glyph unicode="m" horiz-adv-x="1480" d="M80 2v916h280v-916h-280zM526 713v200l29 2q55 0 115.5 -4t112 -24.5t84 -62.5t32.5 -117v-705h-250l2 541q0 63 -35.5 104t-89.5 66zM1036 711v196q27 8 60 8h88q43 0 84 -16t72.5 -44t51 -66.5t19.5 -83.5v-705h-250v526q0 66 -32.5 112t-92.5 73z" />
<glyph unicode="n" horiz-adv-x="944" d="M80 2v916h280v-916h-280zM526 713v200l29 2q55 0 115.5 -4t112 -24.5t84 -62.5t32.5 -117v-705h-250l2 541q0 63 -35.5 104t-89.5 66z" />
<glyph unicode="o" horiz-adv-x="925" d="M53 379v153q0 74 25.5 139.5t72 117t107.5 85t135 44.5v-232q-41 -25 -62.5 -54.5t-29.5 -65.5t-8 -74.5v-79.5q0 -12 8 -48t22.5 -71t34 -58.5t39.5 -13.5l-4 -227q-72 8 -134 42t-108.5 86t-72 118.5t-25.5 138.5zM539 221h6q41 18 60.5 50t28.5 70t9 79v78 q0 59 -22.5 108t-75.5 80v232q72 -10 134 -44t107 -85.5t71 -117t26 -139.5v-153q0 -72 -26 -138.5t-72 -118.5t-107.5 -86t-132.5 -42z" />
<glyph unicode="p" horiz-adv-x="950" d="M84 -344v1266h276v-1266h-276zM471 6v207q23 -14 41 -14q37 0 62.5 29.5t40 71.5t20.5 86t6 73t-6 71.5t-20.5 84.5t-40 72t-62.5 30q-18 0 -41 -15v226q14 2 28.5 3t28.5 1q90 0 161 -43t119 -110.5t72.5 -150.5t24.5 -163t-24.5 -163t-72.5 -150.5t-119 -109.5 t-161 -42q-29 0 -57 6z" />
<glyph unicode="q" horiz-adv-x="935" d="M70 465q0 82 24.5 165t72.5 150.5t118.5 109.5t160.5 42q16 0 29.5 -1t28.5 -3v-226q-8 4 -19.5 9.5t-21.5 5.5q-37 0 -62.5 -30t-40 -72t-20.5 -85t-6 -71q0 -29 6 -73t20.5 -86t40 -71.5t62.5 -29.5q10 0 21.5 5t19.5 9v-207q-27 -6 -58 -6q-90 0 -160.5 42 t-118.5 109.5t-72.5 150.5t-24.5 163zM614 -344v1266h277v-1266h-277z" />
<glyph unicode="r" horiz-adv-x="888" d="M68 2v916h280v-916h-280zM477 711q0 76 32 123t82 76.5t111.5 49t118.5 37.5q7 -53 17 -111q8 -48 8 -93v-19l-2 -41q0 -18 -46 -49t-106.5 -63.5t-117 -60.5t-78.5 -38h6q-16 45 -20.5 93.5t-4.5 95.5z" />
<glyph unicode="s" horiz-adv-x="931" d="M61 164q0 10 15.5 28.5t36 39t41 37t28.5 24.5q47 -12 91 -34.5t92 -39.5q33 -10 44 -34.5t11 -55.5v6q0 -33 -12.5 -66.5t-22.5 -64.5q-25 4 -78 16.5t-107.5 33t-96.5 48t-42 62.5zM84 655q0 53 24.5 100.5t63.5 83t88 56t100 20.5q-10 -20 -20 -54t-10 -56 q0 -66 41 -111t103.5 -79.5t135 -65.5t135 -68t103.5 -86t41 -121q0 -61 -26.5 -111t-69.5 -85t-98.5 -53.5t-112.5 -18.5q16 33 27.5 69t11.5 70q0 74 -40 116t-99.5 70.5t-129 50t-129 54.5t-99.5 84t-40 135zM514 838q0 25 6 50t15 48q41 0 85 -16.5t83.5 -43t72.5 -60.5 t51 -71q10 -18 15.5 -32.5t8.5 -28.5t5 -28.5t4 -37.5h-168q-16 16 -29.5 38t-33.5 40q-16 14 -37 28.5t-38 31t-28.5 37t-11.5 45.5z" />
<glyph unicode="t" horiz-adv-x="638" d="M53 705v223h152v303l248 145v-448h135v-223h-135v-400q0 -10 11 -25.5t26.5 -28.5t32 -25.5t24.5 -16.5v-215h-15q-10 -1 -19 -1q-49 -1 -97 17q-58 20 -104 58t-73.5 91.5t-29.5 116.5h-4v429h-152z" />
<glyph unicode="u" horiz-adv-x="944" d="M80 213v705h250l-2 -543q0 -61 35.5 -103.5t89.5 -64.5v-201q-6 0 -13.5 -2t-15.5 -2q-55 0 -115.5 5t-112 25.5t-84 62.5t-32.5 118zM618 2v916h281v-916h-281z" />
<glyph unicode="v" horiz-adv-x="1077" d="M68 918h270l348 -916h-276zM608 645l115 273h303l-274 -611z" />
<glyph unicode="w" horiz-adv-x="1634" d="M57 918h287l131 -367l72 106l127 -350l-148 -303h-166zM575 918h310l131 -406l49 72l154 -289l-142 -293h-178zM1133 690l131 234h292l-282 -512z" />
<glyph unicode="x" horiz-adv-x="1153" d="M57 4l238 348l164 -252l-60 -96h-342zM90 924h336l590 -922h-314zM664 784l98 134h336l-264 -373z" />
<glyph unicode="y" horiz-adv-x="1210" d="M80 918h313l170 -340l-127 -332zM295 -543l567 1461h291l-561 -1461h-297z" />
<glyph unicode="z" horiz-adv-x="1095" d="M74 918h473l-164 -256h-303zM80 4l600 914h362l-643 -914h-319zM526 4l187 248h293v-248h-480z" />
<glyph unicode="|" horiz-adv-x="657" d="M68 606v277q0 45 16 85t45 69.5t68 47t84 17.5h28v-154q-45 -2 -68.5 -45t-23.5 -84v-166q0 -43 22.5 -83t69.5 -48l2 2l-2 -135h-28q-45 0 -85 17.5t-68 46t-44 68.5t-16 85zM295 0v295h115v-295h-115zM295 1174v292h115v-292h-115zM418 389v139q35 14 51 42t20 63h136 v-27q0 -43 -16.5 -82t-44 -68.5t-65.5 -48t-81 -18.5zM418 944v158q86 0 145 -66q35 -37 44 -71.5t18 -81.5l2 -17h-146q-16 57 -63 78z" />
<glyph unicode="&#xa9;" horiz-adv-x="1245" d="M27 836q0 -53 22.5 -95.5t85.5 -42.5q61 0 84 42.5t23 95.5q0 55 -22.5 96t-84.5 41q-63 0 -85.5 -41t-22.5 -96zM51 836q0 41 18.5 73.5t65.5 32.5q45 0 63.5 -32.5t18.5 -73.5q0 -39 -18.5 -72t-63.5 -33q-47 0 -65.5 32t-18.5 73zM80 838q0 -31 12 -55.5t47 -24.5 q27 0 36 17.5t13 39.5h-32q0 -10 -1 -17t-16 -7q-18 0 -27.5 15t-9.5 32q0 18 8.5 32.5t28.5 14.5q12 0 13.5 -7.5l3.5 -17.5h32q-4 23 -13 39t-36 16q-37 0 -48 -23.5t-11 -53.5zM315 684l10.5 31.5t11.5 40t8 40t3 31.5q0 20 -8 59.5t-16 57.5q20 16 39.5 41t35.5 45 q8 -12 9 -20q0 -16 -6.5 -34t-8.5 -34q-2 -23 -3 -45.5t-1 -44.5q0 -90 27 -168h-17h-84zM481 891q0 18 6.5 41.5t18.5 43t29.5 33t39.5 13.5q29 0 49.5 -16.5t34 -41t19.5 -52t6 -52.5q0 -27 -7 -57.5t-21.5 -57t-38 -45t-54.5 -18.5q-27 0 -51 12q-6 -8 -11 -14t-12 -12 v10q0 29 -3 54.5t-1 51.5v27q10 -8 15.5 -19.5t10.5 -22.5t14.5 -18.5t27.5 -7.5q23 0 35 13.5t18 34t8 42t2 35.5q0 23 -11 40.5t-36 17.5q-23 0 -34 -18.5t-11 -39.5q0 -18 9.5 -30.5t29.5 -12.5q10 0 16.5 8.5t8.5 18.5q-6 -8 -11.5 -12t-15.5 -4q-16 0 -21 11t-5 25 t10 24.5t24 10.5q20 0 27.5 -16.5t7.5 -32.5q0 -23 -12 -45t-39 -22q-37 0 -54.5 34.5t-17.5 65.5zM739 891q0 18 6.5 41.5t17.5 43t28.5 33t39.5 13.5q29 0 50.5 -16.5t35 -41t19.5 -52t6 -52.5q0 -27 -7 -57.5t-22.5 -57t-38 -45t-53.5 -18.5q-27 0 -51 12q-6 -8 -11 -14 t-11 -12v10q0 29 -3.5 54.5t-1.5 51.5v27q10 -8 15.5 -19.5t10.5 -22.5t14.5 -18.5t27.5 -7.5q20 0 32.5 13.5t19.5 34t9 42t2 35.5q0 23 -12 40.5t-35 17.5t-35 -18.5t-12 -39.5q0 -18 10.5 -30.5t30.5 -12.5q10 0 16.5 8.5t8.5 18.5q-6 -8 -11.5 -12t-15.5 -4 q-16 0 -22 11t-6 25q0 16 10 25.5t26 9.5q20 0 27.5 -16.5t7.5 -32.5q0 -23 -12 -45t-39 -22q-37 0 -54.5 34.5t-17.5 65.5zM999 891q0 18 6.5 41.5t17.5 43t28.5 33t40.5 13.5q29 0 50 -16.5t34.5 -41t19.5 -52t6 -52.5q0 -27 -7 -57.5t-22.5 -57t-38 -45t-53.5 -18.5 q-27 0 -51 12q-6 -8 -11 -14t-11 -12v10q0 29 -3.5 54.5t-0.5 51.5v27q10 -8 15 -19.5t10 -22.5t14.5 -18.5t27.5 -7.5q20 0 32.5 13.5t19.5 34t9.5 42t2.5 35.5q0 23 -12.5 40.5t-35.5 17.5t-35 -18.5t-12 -39.5q0 -18 10.5 -30.5t30.5 -12.5q10 0 16.5 8.5t8.5 18.5 q-6 -8 -11 -12t-16 -4q-16 0 -22 11t-6 25q0 16 10 25.5t26 9.5q20 0 27.5 -16.5t7.5 -32.5q0 -23 -12 -45t-39 -22q-37 0 -54.5 34.5t-17.5 65.5z" />
<glyph unicode="&#xad;" d="M74 690v266h661v-266h-661z" />
<glyph unicode="&#xae;" horiz-adv-x="1693" d="M33 1055.5q-2 19.5 4 27.5q6 4 32.5 24.5t49.5 31.5q16 0 26.5 -12.5t14.5 -30t6 -37t4 -31.5q4 -20 0 -50t-16 -40l12 -10q25 -25 34 -63t13 -72q4 -31 -6 -58.5t-45 -32.5q-45 -6 -90 -6q2 84 1 166t-12 168l-4 4l-20 -18q-2 20 -4 39.5zM76 498q6 78 6 151 q23 -2 45.5 -3t44.5 -1q-2 -8 -2 -29q-10 2 -20.5 3.5t-20.5 1.5h-14v-9v-18q10 -2 22.5 -1t22.5 1q0 -6 -1 -13.5t1 -13.5q-10 0 -17.5 1t-15.5 1h-10q-4 -18 -2 -36.5t2 -34.5q-10 0 -20.5 1t-20.5 -1zM80 1055q2 -16 2 -31.5t2 -32.5q2 -10 4 -21.5t6 -21.5q25 8 33 14.5 t10 12.5t0 13.5t0 17.5q-2 16 -4 24t-2 19q-4 10 -6 14t-12 6l-15 -8zM100 889l4 -60q4 -37 0 -75l15 -6l24 4q16 2 22.5 14t4.5 27l-4 32q-4 35 -14 62q-12 10 -21.5 8t-19.5 -4zM176 1051.5q-2 17.5 2 25.5q10 6 20.5 8t24.5 5q4 0 16.5 2t16.5 2q12 -4 21.5 -22.5 t14.5 -42t8 -45t3 -32.5q4 -16 -4 -35.5t-23 -29.5q23 -16 30 -30.5t13 -55.5q4 -6 9.5 -12.5t13.5 -8.5l16 2q29 0 62 2t61 -2l17 -57q-10 0 -39 -1t-58.5 -2t-54.5 0t-29 5q-12 16 -19 37.5t-13 41t-13.5 35t-23.5 17.5q0 -10 2 -21.5t4 -21.5q4 -23 10 -45t10 -45v-10 q-10 4 -20 1t-21 -5q-10 78 -26.5 154.5t-26.5 154.5q-2 14 -4 31.5zM178 1098l2 59q14 4 29.5 8t32.5 4l69 2q16 -2 19.5 -2t19.5 -4q16 -94 47 -185t74 -177q-10 4 -23.5 3t-23.5 3q-4 0 -6 9t-5 20.5t-8.5 22.5t-15.5 18l-20 2q4 -12 6 -24.5t4 -27.5q0 -4 1 -8t1 -8v-10 q-6 2 -18.5 -1t-18.5 -5l-2 18q-10 72 -19.5 146.5t-21.5 146.5l-18 10q-29 -2 -53.5 -8t-51.5 -12zM184 569q0 29 15.5 58.5t50.5 29.5q31 0 46 -27.5t15 -56.5q0 -35 -14 -58t-53 -23q-35 0 -47.5 24t-12.5 53zM207 1013.5q4 -14.5 6 -24.5q4 -27 6 -41t8 -43q6 4 13.5 4 t13.5 4l12 17q-2 14 -2 27.5t-2 27.5q-2 18 -5 35.5t-21 26.5l-27 -9q-6 -10 -2 -24.5zM211 575q0 -14 8 -26t23 -12q16 0 23 11t7 27v9q0 12 -7 25.5t-21 13.5q-18 0 -25.5 -15.5t-7.5 -32.5zM325 1064.5q1 -24.5 5 -48.5q2 -20 4 -39t6 -39l16 -4q4 -2 13 0q8 0 12 4 q-8 18 -13.5 43t-10.5 49.5t-9 46t-12 35.5h-10q-2 -23 -1 -47.5zM326 498q4 37 5 75.5t-1 75.5q4 -2 16 -2h16q10 -27 17.5 -55.5t19.5 -54.5q2 29 4.5 56.5t-2.5 53.5q8 -4 23.5 -3t26.5 1q-4 -37 -4.5 -75t-2.5 -76l-57 4q-8 20 -13.5 40.5t-11.5 43.5q0 -23 -2 -43.5 t0 -40.5q-10 0 -18 1t-16 -1zM403 1155q10 -2 22.5 -2t23.5 -6q2 -20 4 -41t12 -39q-4 0 -7 -3t-7 -3q-10 -2 -18.5 2t-18.5 8q-2 6 -4 12.5t-4 10.5q-2 16 -1.5 30.5t-1.5 30.5zM414 1047q16 -2 29.5 -4.5t27.5 -6.5q16 -80 44 -154.5t44 -156.5h-10q-10 -2 -19.5 -2h-19.5 q-23 82 -48.5 162t-47.5 162zM457 1147q16 -2 30.5 -4t26.5 -6q37 -78 79 -152t89 -145q-18 78 -50 151.5t-42 153.5h10q4 4 8 1t8 -7l15 6v-19q0 -51 15.5 -101t34.5 -100.5t38.5 -100.5t30.5 -101q-8 -4 -21 -8q-16 0 -24 2q-23 63 -63 119.5t-75 115.5l-2 -6 q27 -51 37 -110.5t27 -112.5q-10 4 -21.5 3t-23.5 -1q-16 78 -34 134t-32 93q-10 31 -16 58.5t-15 50.5l-10 10l-2 2q-10 16 -13 40t-5 34zM469 621v28q27 -4 53.5 -5t52.5 1q0 -8 -1 -16t-1 -15q-4 0 -10 1t-12 -1h-6q-2 -29 -2 -59v-59q-10 4 -23.5 3t-23.5 -3q2 23 3 44 t1 44v24v10h-8q-6 0 -11.5 1.5t-11.5 1.5zM627 567q0 27 14 58.5t47 31.5q27 0 41 -20.5t14 -42.5h-38q-2 12 -4.5 20.5t-18.5 8.5t-20.5 -15.5t-4.5 -27.5t5.5 -25.5t21.5 -13.5q14 0 16 14q10 0 20.5 -1t20.5 -1q-4 -29 -12 -45t-43 -16q-33 0 -46 23.5t-13 51.5z M731 1116q37 -2 85 1t87 3q10 -12 11.5 -26.5t9.5 -28.5q-20 -8 -37 -5t-35 1q-6 0 -13.5 -2t-13.5 -4q4 -10 10.5 -20.5t8.5 -24.5q2 -18 8 -36t12 -38q20 2 40 -4t40 -2q4 -8 5 -15.5t3 -11.5q2 -6 2 -10l7 -29q-12 0 -33 4t-33 2q-10 -2 -6 -12t4 -20q2 -12 6 -24.5 t2 -25.5q23 -12 50.5 -10t49.5 -14q4 -20 5.5 -37.5t9.5 -38.5q-37 2 -72 9.5t-70 4.5q-10 90 -30.5 165t-44.5 161q-4 12 -9.5 17.5t-7.5 11.5l-18 2q-14 10 -20.5 27.5t-12.5 29.5zM764 569q0 33 15.5 58.5t51.5 25.5q33 0 47.5 -25.5t14.5 -54.5q0 -35 -14.5 -58 t-53.5 -23q-35 0 -48 24t-13 53zM793 575q0 -14 7 -26t23 -12t23.5 11t7.5 27v9q0 12 -7.5 25.5t-21.5 13.5q-18 0 -25 -15.5t-7 -32.5zM907 498q4 39 5 76.5t3 74.5q8 -4 21.5 -3t24.5 1q4 -23 7 -46t7 -48q4 23 7 46.5t7 45.5q31 -4 60 0q-2 -39 -3.5 -76t-1.5 -75 q-10 4 -22 2t-25 0q2 18 3 37.5t4 39.5q-4 -20 -11.5 -38.5t-9.5 -38.5q-6 2 -12 1t-13 -1h-4q-4 20 -9 39.5t-9 37.5q0 -18 -1 -37.5t-1 -37.5q-8 0 -14.5 1t-12.5 -1zM935.5 1079.5q0.5 18.5 0.5 34.5v6l8 2q23 4 46.5 3t45.5 5q35 -109 64.5 -215t52.5 -217 q-25 -2 -51 -14v16l-6 91q-2 10 -13.5 8t-23.5 -8q-2 -2 -3 -15.5t-1 -31t2 -35t2 -23.5q-6 8 -13.5 4t-13.5 -8l-10 6q-4 70 -7 138.5t-14 138.5q-4 23 -6 48t-10 48l-27 2q-23 -2 -22.5 16.5zM1014 1044.5q2 -26.5 6 -58.5t9 -60.5t7 -36.5l11 -41q16 4 24 4l10 8l-2 21 q-2 23 -10 44t-12 44q-4 25 -12.5 49t-16.5 49l-14 6q-2 -2 0 -28.5zM1063 1126l27 4q23 4 39 4.5t40 -4.5l27 7q8 -18 9 -36t5 -38q-10 0 -21 -4t-26 0q23 -66 34 -142.5t15 -144.5l5 -51q-8 -10 -19.5 -5t-19.5 -7q-2 23 -4.5 46t-6.5 46q-2 20 -9 61t-14 85t-13.5 81 t-6.5 47h-10q-10 -4 -21.5 -1t-21.5 -3q-6 10 -6 23zM1067 498q4 37 4 74.5v76.5q14 0 27.5 -1t27.5 -1q47 0 48 -51q0 -35 -20.5 -46t-51.5 -7v-45h-35zM1100 582h20h4q12 0 13 16q0 18 -10.5 19.5t-26.5 3.5v-23v-14v-2zM1165 502q16 35 28.5 72.5t25.5 74.5q10 -2 19 -3 t19 -1q4 -39 13.5 -78t19.5 -75q-10 2 -23.5 2t-23.5 2q-2 6 -2 12t-2 12l-35 2l-6 -24zM1200 1044l14 11l13 2q27 4 42 0t42 6q2 -10 3 -19.5t-1 -19.5q-10 -10 -23.5 -8t-25.5 0q-16 -2 -19.5 -10.5t-1.5 -20.5q0 -8 3 -18.5t9 -14.5q16 2 34 3t32 12q4 -10 6 -22.5 t6 -22.5h-16q-16 -2 -29.5 -6.5t-27.5 -4.5q8 -16 7 -37.5t1 -37.5q2 -10 6 -21.5t16 -9.5q14 2 28.5 12t24.5 17l5 -54q-29 -10 -53.5 -26.5t-53.5 -22.5q-2 35 -5 59.5t-5 40.5q-2 18 -4 31zM1210 555q4 -2 15 -2h6h4q-2 16 -3 30.5t-5 28.5q-4 -14 -8.5 -28.5t-8.5 -28.5 zM1214 1135q29 0 62 5t61.5 7t52 -2t33.5 -23q14 -14 17.5 -26.5t7.5 -34.5q4 -16 0 -41t-14 -41l-11 -12q25 -12 28 -38t7 -50q-2 -6 3 -14.5t20 -12.5q6 -2 18 -3t23.5 -2t19.5 -1h8q12 0 21 2q18 4 22 0l11 6l2 -27q-8 -12 -23 -12q-23 -4 -43 -3t-43 3q-6 -4 -21.5 -4 h-21.5q-12 -2 -17 8t-10 25q-6 29 -9 58.5t-25 31.5l-9 -6q-4 -25 0 -41q2 -8 5 -17q4 -16 8 -30q4 -12 6 -23.5t0 -15.5l-17 -13q-16 0 -24 -4q-10 53 -13 106.5t-12 106.5q-4 45 -18 88q-18 4 -41 -1t-41 -9l-18 -2zM1311 498q4 37 6 75.5t-2 75.5q4 -2 16 -2h19 q10 -27 16 -55.5t18 -54.5q4 29 5.5 56.5t-3.5 53.5q10 -4 24.5 -3t25.5 1q-4 -37 -4 -75v-76l-60 4q-8 20 -13 40.5t-11 43.5q0 -23 -2.5 -43.5t0.5 -40.5q-10 0 -17.5 1t-17.5 -1zM1344 1079.5q4 -12.5 6 -20.5q2 -18 7 -38t7 -38q6 0 13 -1t14 1q18 2 22 23.5t2 35.5 q-2 12 -6 25.5t-14 24.5l-17 2h-28q-10 -2 -6 -14.5zM1452 649q10 0 17.5 -2t15.5 2q4 -18 11 -35.5t13 -33.5q10 16 16.5 33.5t10.5 35.5q8 -4 22.5 -4h24.5q-2 -4 -9 -18.5t-15.5 -30.5t-14.5 -29.5t-6 -15.5v-55l-49 2q2 12 4 26.5t2 28.5q0 4 -5 17.5t-13.5 29.5 t-14.5 30.5t-10 18.5zM1454 1057q-2 16 10.5 30.5t28.5 16.5q35 4 57.5 -23.5t30.5 -58.5l-20 -10q-6 16 -14.5 31.5t-24.5 21.5q-6 2 -11.5 1t-15.5 -11l-4 -19q-4 -12 3 -21t17 -18q35 -10 57.5 -28.5t26.5 -57.5q-4 -37 -20.5 -43t-24.5 -8q-29 -4 -47 11.5t-30 37.5 l-5 29q0 4 2.5 11t-0.5 12l31 -13v-30l6 -17q16 -14 45 -10q14 4 19 24q-16 29 -33.5 33t-34 9.5t-30 23.5t-19.5 76zM1473 1143h14l-2 -25h14l2 25h15l2 14l-43 -2zM1516 1116h10l4 25l8 -25l10 19l4 -21h9l4 43h-13l-12 -20l-6 18l-12 2z" />
<glyph unicode="&#xb6;" horiz-adv-x="1351" d="M41 1016q0 80 24.5 163t72.5 150.5t119 110.5t161 43q31 0 57 -6v-226q-20 14 -41 15q-37 0 -62.5 -30t-40 -72t-20.5 -85t-6 -71q0 -27 6 -71t20.5 -86t40 -71.5t62.5 -29.5q23 0 41 12v-207q-27 -6 -57 -6q-90 0 -161 43t-119 110.5t-72.5 150.5t-24.5 163zM586 -193 v1663h276v-1663h-276zM975 -193v1663h276v-1663h-276z" />
<glyph unicode="&#x2000;" horiz-adv-x="769" />
<glyph unicode="&#x2001;" horiz-adv-x="1538" />
<glyph unicode="&#x2002;" horiz-adv-x="769" />
<glyph unicode="&#x2003;" horiz-adv-x="1538" />
<glyph unicode="&#x2004;" horiz-adv-x="512" />
<glyph unicode="&#x2005;" horiz-adv-x="384" />
<glyph unicode="&#x2006;" horiz-adv-x="256" />
<glyph unicode="&#x2007;" horiz-adv-x="256" />
<glyph unicode="&#x2008;" horiz-adv-x="192" />
<glyph unicode="&#x2009;" horiz-adv-x="307" />
<glyph unicode="&#x200a;" horiz-adv-x="85" />
<glyph unicode="&#x2010;" d="M74 690v266h661v-266h-661z" />
<glyph unicode="&#x2011;" d="M74 690v266h661v-266h-661z" />
<glyph unicode="&#x2012;" d="M74 690v266h661v-266h-661z" />
<glyph unicode="&#x2013;" d="M74 690v266h981v-266h-981z" />
<glyph unicode="&#x2014;" horiz-adv-x="1452" d="M74 690v266h1315v-266h-1315z" />
<glyph unicode="&#x2018;" horiz-adv-x="522" d="M37 1055q0 53 17.5 78.5t43.5 64.5l187 279l116 -84l-86 -146q66 -18 106 -71.5t40 -120.5q0 -43 -17.5 -81t-46 -65.5t-67.5 -44t-82 -16.5t-81 16.5t-66.5 44t-46 65.5t-17.5 81z" />
<glyph unicode="&#x2019;" horiz-adv-x="522" d="M72 1270q0 43 17 81t46 65.5t68 44t82 16.5t80.5 -16.5t67.5 -44t46.5 -65.5t16.5 -81q0 -27 -4.5 -45.5t-12.5 -33.5t-19 -29.5t-26 -35.5l-186 -278l-115 84l86 145q-66 18 -106.5 71.5t-40.5 121.5z" />
<glyph unicode="&#x201c;" horiz-adv-x="1026" d="M37 1055q0 53 17.5 78.5t43.5 64.5l187 279l116 -84l-86 -146q66 -18 106 -71.5t40 -120.5q0 -43 -17.5 -81t-46 -65.5t-67.5 -44t-82 -16.5t-81 16.5t-66.5 44t-46 65.5t-17.5 81zM555 1055q0 53 17.5 78.5t43.5 64.5l187 279l117 -84l-86 -146q66 -18 105.5 -71.5 t39.5 -120.5q0 -43 -17.5 -81t-46 -65.5t-67.5 -44t-82 -16.5t-81 16.5t-66.5 44t-46 65.5t-17.5 81z" />
<glyph unicode="&#x201d;" horiz-adv-x="1034" d="M72 1270q0 43 17 81t46 65.5t68 44t82 16.5t80.5 -16.5t67.5 -44t46.5 -65.5t16.5 -81q0 -27 -4.5 -45.5t-12.5 -33.5t-19 -29.5t-26 -35.5l-186 -278l-115 84l86 145q-66 18 -106.5 71.5t-40.5 121.5zM563 1270q0 43 17.5 81t46 65.5t67.5 44t82 16.5t81 -16.5t66.5 -44 t46 -65.5t17.5 -81q0 -27 -4 -45.5t-12 -33.5t-19.5 -29.5t-25.5 -35.5l-187 -278l-116 84l86 145q-66 18 -106 71.5t-40 121.5z" />
<glyph unicode="&#x2022;" horiz-adv-x="692" d="M43 877q0 63 23.5 116.5t63.5 93t93.5 62t112.5 22.5t111.5 -22.5t92.5 -62t63.5 -94t23.5 -115.5q0 -63 -23.5 -116.5t-63.5 -93.5t-92.5 -62.5t-111.5 -22.5t-112.5 22.5t-93.5 62.5t-63.5 93t-23.5 117z" />
<glyph unicode="&#x202f;" horiz-adv-x="307" />
<glyph unicode="&#x205f;" horiz-adv-x="384" />
<glyph unicode="&#x2122;" horiz-adv-x="4007" d="M115 741q10 4 25.5 5.5t27.5 1.5h22q8 0 25 -5q6 -16 13.5 -41.5t17.5 -52t20 -49t23 -35.5v60q0 35 -9.5 68.5t-35.5 56.5q12 4 23.5 4h23.5l37 -2q-18 -80 -19 -162q0 -37 5.5 -76t25.5 -72q-12 -14 -35 -14q-10 0 -31 4q-14 49 -32.5 97.5t-40.5 95.5l-6 6 q-2 -12 -2 -24.5v-26.5q0 -41 10 -82t39 -70q-16 -2 -32.5 -3t-33.5 -1h-20.5t-20.5 4q23 35 32 73t9 79q0 16 -2 41.5t-8 50t-18.5 45t-32.5 24.5zM365 584q0 20 4 49t14 56.5t27.5 47t44.5 19.5q23 0 37 -20.5t22 -49.5t12 -58.5t4 -45.5q0 -18 -3 -45t-12 -53.5t-25 -45 t-41 -18.5q-23 0 -39.5 19.5t-26.5 45t-14 53t-4 46.5zM416 594q0 -12 1 -30.5t6 -36t14 -31t26 -13.5q10 0 18 9.5t12.5 21.5t6.5 25.5t2 21.5q0 12 -7.5 33.5t-23.5 21.5q-18 0 -23.5 -14t-5.5 -31q0 -12 5.5 -23t15.5 -16q12 4 16 17l-8 -2l-18 8l-4 20q2 8 6 19.5 t16 11.5q16 0 19.5 -15.5t3.5 -27.5q0 -14 -5.5 -31.5t-23.5 -17.5q-23 0 -31 19.5t-8 35.5q0 20 10 45t35 25q12 0 19.5 -7t13.5 -18q0 10 -3 24.5t-7.5 29t-12.5 24.5t-20 10t-21.5 -13t-14.5 -31.5t-7 -36t-2 -27.5zM553 668q0 29 19.5 58.5t50.5 29.5q23 0 46 -3t46 -3 t39 8q4 -12 4 -23l-2 -71q-10 12 -19.5 22t-25.5 10l-11 -6q-2 -14 -2 -29.5v-31.5v-39q0 -41 5.5 -82t21.5 -80q-16 -2 -32.5 -2h-33.5h-24t-25 4q29 49 34 84t5 92v53q0 10 -1 19.5t-5 17.5h-22q-27 0 -37.5 -15t-10.5 -40t25 -31q12 4 14 11l-8 -3l-16 11l-6 20 q2 10 6 21.5t16 11.5q16 0 21.5 -12.5t5.5 -24.5q0 -16 -8.5 -34.5t-28.5 -18.5q-25 0 -33 27.5t-8 48.5zM997 418q23 37 29 75.5t6 79.5v60q0 27 -8 61.5t-23 55.5q23 0 46.5 2t48.5 2q55 0 70.5 -23.5t15.5 -75.5q0 -35 -24.5 -62.5t-61.5 -23.5l-11 -6q-2 -10 -2 -17v-18 q0 -27 5.5 -53t19.5 -49q-27 -4 -54.5 -3t-54.5 -5h-2zM1079 684q-2 -37 11 -76q18 2 27 18.5t9 32.5t-8 31t-24 15l-15 -3v-18zM1100 1212q35 8 70.5 10.5t70.5 2.5h8l4 -76q-20 16 -30.5 22.5t-36.5 6.5q-2 -10 -3 -18.5t-1 -18.5t1 -24.5t5 -24.5h2q12 0 28.5 8t24.5 18 l2 -86q-10 10 -22.5 16.5t-24.5 6.5q-10 0 -16 -8q0 -45 8 -78t24 -74q-27 4 -51 4h-51q16 43 22.5 88t6.5 92q0 31 -6.5 73t-34.5 60zM1210 731l4 12q51 10 101 11l4 -4q-12 -6 -18.5 -23.5t-8.5 -38t-2 -40v-32.5v-33.5t3 -47t11.5 -42t24.5 -18.5q18 0 27.5 16.5t12.5 39 t2 46t-1 35.5q0 31 -6 64t-18 57l4 10q16 2 30.5 5.5t30.5 3.5q10 0 12 -7v-2q-20 -18 -19 -70t1 -108.5t-11.5 -100.5t-56.5 -44q-47 0 -69.5 28.5t-29.5 68.5t-6 83t1 74q0 16 -4 32.5t-19 24.5zM1286 901q16 -4 23 -4q45 0 77 8q-10 8 -16 26.5t-9 41t-4 44t-1 34.5 q0 4 1 8t5 6h2q10 0 14 -13.5t6 -30.5t1 -32.5t-1 -21.5q0 -27 14.5 -49.5t43.5 -22.5t43 23.5t14 48.5q0 14 -7.5 33.5t-25.5 19.5q-16 0 -23 -15.5t-7 -29.5q0 -10 4 -21.5t14 -15.5q14 0 18.5 10t4.5 23q0 16 -7 22l-16 6l10 9q12 -4 16.5 -16.5t4.5 -24.5 q0 -10 -6 -24.5t-19 -14.5q-18 0 -23 14t-6 35.5t-4.5 44t-21.5 41.5q31 10 40 22.5t9 47.5q0 39 -18.5 66.5t-61.5 27.5q-23 0 -43 -2t-43 2q16 -23 21.5 -48.5t5.5 -52.5q0 -57 -3 -114.5t-26 -110.5zM1356 1174q4 14 16 14q16 0 23.5 -13.5t7.5 -27.5q0 -25 -25 -35 l-14 6q-8 25 -8 56zM1448 745q16 4 31.5 7.5t31.5 3.5q43 0 79 -20.5t36 -69.5q0 -51 -41 -76q29 -6 44.5 -27.5t15.5 -52.5q0 -51 -31 -69.5t-78 -18.5q-18 0 -37.5 5t-38.5 9q10 16 14.5 47t6.5 66t2 68.5v54.5q0 18 -3 41.5t-30 23.5q-2 2 -2 8zM1511 1219q39 4 76 6 t76 4q0 -18 2 -36.5t2 -35.5v-4q-14 6 -19.5 12t-10.5 9.5t-12 5.5t-26 2q-4 -10 -5 -22.5t-1 -22.5v-20.5t4 -20.5l7 -2q16 0 28.5 10t26.5 20v-69l-2 -19q-20 20 -43 21q-20 0 -21 -21v-22.5t2 -27.5t9.5 -23.5t19.5 -10.5q23 0 35 23.5t18 40.5l2 -12q0 -23 -2 -47.5 t-4 -47.5l-4 -8q-18 -2 -36.5 -2h-37.5h-43h-36q16 47 27 94t11 97q0 45 -8 69.5t-35 59.5zM1526 559q0 -47 6 -96q18 2 29.5 17.5t11.5 33.5q0 16 -9.5 31.5t-25.5 15.5q-4 0 -6 -1t-6 -1zM1530 627.5q0 -11.5 8 -19.5q16 8 19.5 27.5t3.5 36.5q0 10 -8.5 19t-18.5 9h-4 v-41v-10v-21.5zM1686 745q23 0 47 2.5t47 4.5q-8 -18 -10.5 -46t-2.5 -49v-36.5v-52t3.5 -52.5t9.5 -35q8 -4 14 -4q23 0 36 25.5t23 42.5q0 -4 1 -8.5t1 -8.5q0 -25 -3 -51t-7 -51q-29 2 -58.5 1t-60.5 -1h-18q-14 0 -20 2q39 84 38 184q0 37 -7 72t-33 61zM1718 1219 q39 4 76 6l74 4q2 -18 4 -36.5t2 -35.5v-4q-14 6 -19.5 12t-10.5 9.5t-13 5.5t-27 2q-4 -10 -4 -22.5v-22.5v-20.5t4 -20.5l6 -2q16 0 28.5 10t25.5 20l2 -69l-2 -19q-20 20 -45 21q-18 0 -19 -21v-22.5t2 -27.5t9.5 -23.5t19.5 -10.5q20 0 33.5 23.5t19.5 40.5l2 -12 q0 -23 -2 -47.5t-4 -47.5l-4 -8q-18 -2 -36.5 -2h-39.5h-43h-37q18 47 28.5 94t10.5 97q0 45 -7 69.5t-34 59.5zM1911 1112q0 16 4 35.5t13 37t23.5 30t33.5 12.5q33 0 49 -25.5t22 -60.5t6 -70v-53q8 2 12.5 17.5t5.5 36t1 37.5v21q0 20 -4 41t-19 37l27 2h47q10 0 12 -9 t1 -21.5t-3 -23.5t-2 -17q0 -31 5 -63t16 -60q10 25 14 61.5t4 65.5q0 16 -1 35.5t-11 35.5l10 5l23 2l24 -2q-10 -20 -17 -51t-12.5 -65t-8.5 -65.5t-3 -54.5q0 -35 10 -76q-10 -4 -22 -4h-23h-17t-17 2q4 10 7 21.5t3 21.5q0 6 -1 26.5t-4 42t-7.5 39t-8.5 21.5 q-16 -45 -15 -87t3 -89q-25 -4 -49.5 -5t-48.5 -1q-20 0 -31 2q31 33 44 74t13 84q0 10 -2 28.5t-7 36t-13 30.5t-23 13q-18 0 -30.5 -20.5t-12.5 -36.5t8.5 -34.5t28.5 -18.5q16 4 22.5 17.5t6.5 27.5q0 10 -9.5 23.5t-19.5 13.5t-13 -10.5t-3 -18.5q4 12 14 16 q20 -6 25 -30q-2 -8 -8.5 -18.5t-16.5 -10.5q-16 0 -22.5 16.5t-6.5 28.5q0 10 9.5 25.5t21.5 15.5q16 0 27.5 -15.5t11.5 -31.5q0 -20 -6 -43t-35 -23t-42 25.5t-13 50.5zM1915 428q29 74 29 150q0 63 -23 131q10 2 18.5 3t18.5 1h22q11 -1 15 -11q-6 -29 -8 -58.5 t-2 -57.5q0 -41 9 -80t9 -78q-2 -2 -13.5 -3t-25.5 -1h-26.5h-16.5zM1921 760q29 16 37 45q12 -10 18.5 -23.5t24.5 -19.5q-16 -4 -23.5 -16.5t-15.5 -24.5q-10 33 -41 39zM1952 764l4 -12l10 -2l6 10l-4 12l-8 2zM2060 575q0 23 5.5 53.5t16.5 58.5t30.5 47.5t48.5 19.5 q33 0 47 -27t14 -55q0 -18 -12 -46t-35 -28q-16 0 -26.5 14.5t-10.5 30.5q0 33 31 47q14 -4 17 -13t3 -22l-6 -18l-12 -8q-16 0 -17 18l-2 -10l7 -14l12 -9q16 0 24.5 17.5t8.5 32.5q0 16 -9.5 30.5t-27.5 14.5q-16 0 -26.5 -13.5t-16.5 -31t-8 -37t-2 -31.5q0 -27 9 -59.5 t42 -32.5q29 0 33 25.5t2 43.5q25 -14 24 -49q0 -33 -16.5 -66.5t-55.5 -33.5q-27 0 -44 16.5t-27 39t-15.5 49t-5.5 46.5zM2232 983q0 23 15.5 48.5t42.5 25.5q18 0 27.5 -18.5t9.5 -34.5q0 -14 -9.5 -35t-25.5 -21t-23.5 12.5t-7.5 26.5q0 12 6 23.5t19 15.5q20 -6 20 -33 t-27 -22l15 -6q18 8 18 36q0 10 -4 22.5t-20 12.5q-18 0 -26.5 -18.5t-8.5 -34.5t8 -30.5t27 -14.5q20 0 32.5 24.5t19.5 56.5t9 63.5t2 45.5q0 29 -10 53.5t-39 35.5q23 4 43 7t43 1l35 -2q-2 -14 -3 -27.5t-1 -28.5q0 -20 5 -57t13 -76t19.5 -73t23.5 -50q-14 -12 -42 -12 h-44q-12 0 -22 6q14 8 21 23.5t7 32.5q0 27 -22 26l-13 -2q-6 -14 -10 -32.5t-12 -34t-19.5 -25.5t-31.5 -10q-16 0 -27.5 11t-19 26.5t-10.5 33t-3 29.5zM2367 1034l3 -6q4 -2 16 -2l4 8q-2 16 -5 31.5t-11 30.5q-2 -16 -4.5 -30.5t-2.5 -31.5zM2466 440q23 29 30 64t7 69 v84.5t-25 77.5q4 6 15.5 9.5t24.5 5.5t25.5 3t18.5 1q33 0 53.5 -16.5t32.5 -42t17.5 -56.5t5.5 -57q0 -31 -5.5 -59.5t-18.5 -51t-35.5 -36t-57.5 -13.5q-23 0 -45.5 5t-42.5 13zM2503 901q16 -4 24 -4q18 0 38 2t38 6q-10 8 -16.5 26.5t-9.5 41t-4 44t-1 34.5q0 4 1 8t5 6 h2q10 0 14.5 -13.5t6.5 -30.5t1 -32.5t-1 -21.5q0 -27 14.5 -49.5t42.5 -22.5q29 0 43.5 23.5t14.5 48.5q0 14 -7.5 33.5t-25.5 19.5q-16 0 -23.5 -15.5t-7.5 -29.5q0 -10 4 -21.5t15 -15.5q14 0 19 10t5 23q0 14 -8 22l-16 6l10 9q12 -4 17 -16.5t5 -24.5q0 -10 -7 -24.5 t-19 -14.5q-18 0 -23.5 14t-6.5 35.5t-4 44t-22 41.5q31 10 40.5 22.5t9.5 47.5q0 39 -18.5 66.5t-59.5 27.5q-23 0 -44.5 -2t-43.5 2q16 -23 21 -48.5t5 -52.5q0 -57 -3 -114.5t-25 -110.5zM2556 475l10 -2l17 4q14 20 17 44t3 46q0 10 -1 36t-4 52.5t-10.5 47t-21.5 20.5 l-10 -6v-6q0 -41 5 -79t5 -79q0 -20 -3 -38.5t-7 -39.5zM2572 1174q8 14 17 14q16 0 23 -13.5t7 -27.5q0 -25 -24 -35l-15 6q-8 25 -8 56zM2718 584q0 20 4 49t14 56.5t27.5 47t44.5 19.5q23 0 37 -20.5t22 -49.5t12.5 -58.5t4.5 -45.5q0 -18 -3.5 -45t-12.5 -53.5t-25 -45 t-41 -18.5q-23 0 -39.5 19.5t-26.5 45t-14 53t-4 46.5zM2748 1219q39 4 76 6t76 4q0 -18 2 -36.5t2 -35.5v-4q-14 6 -19.5 12t-10.5 9.5t-13 5.5t-27 2q-4 -10 -4 -22.5v-22.5v-20.5t4 -20.5l7 -2q16 0 28.5 10t24.5 20l2 -69l-2 -19q-20 20 -43 21q-20 0 -21 -21v-22.5 t2 -27.5t9.5 -23.5t19.5 -10.5q23 0 35 23.5t18 40.5l2 -12q0 -23 -2 -47.5t-4 -47.5l-4 -8q-18 -2 -36.5 -2h-37.5h-43h-36q16 47 27 94t11 97q0 45 -8 69.5t-35 59.5zM2769 594q0 -12 1 -30.5t6 -36t14.5 -31t25.5 -13.5q10 0 18.5 9.5t12.5 21.5t6 25.5t2 21.5 q0 12 -7 33.5t-24 21.5q-18 0 -23 -14t-5 -31q0 -12 5 -23t17 -16q10 4 14 17l-8 -2l-18 8l-4 20q2 8 6 19.5t16 11.5q16 0 19.5 -15.5t3.5 -27.5q0 -14 -5.5 -31.5t-23.5 -17.5q-23 0 -30 19.5t-7 35.5q0 20 9.5 45t33.5 25q12 0 19.5 -7t13.5 -18q0 10 -3 24.5t-7 29 t-12.5 24.5t-20.5 10t-21.5 -13t-14.5 -31.5t-7 -36t-2 -27.5zM2916 524q0 -31 14.5 -67.5t51.5 -36.5q31 0 47 26.5t22.5 62.5t7.5 71.5t3 56.5q4 -6 7 -23.5t6 -38t4 -39t1 -26.5v-39.5t-14 -36.5l24 -2l48 -2q10 0 12 10.5t2 22.5t-2 25.5t-2 19.5q0 70 18 133 q4 -8 7 -26.5t6.5 -40t4.5 -41t1 -29.5q0 -16 -1 -35.5t-12 -36.5l13 -4l20 -2l25 2q-10 20 -17.5 52t-12.5 68t-7 68.5t-2 57.5q0 18 1 37.5t9 36.5q-12 2 -23.5 3t-23.5 1l-35 -2q4 -10 7 -21.5t3 -21.5q0 -35 -5 -70t-15 -68q-16 45 -15 87t3 89q-18 4 -38 6.5t-40 0.5 l-31 -2q29 -33 34 -75t5 -83q0 -10 -2 -28.5t-7 -36t-14.5 -31t-23.5 -13.5q-18 0 -30.5 20.5t-12.5 37.5q0 16 9 34.5t30 18.5q14 0 20 -17.5t6 -27.5q0 -12 -8 -24.5t-20 -12.5q-10 0 -13.5 10t-1.5 19q0 -12 15 -17q23 0 22 27q0 8 -6 20.5t-16 12.5q-16 0 -22.5 -16.5 t-6.5 -28.5q0 -10 8 -25.5t23 -15.5q18 0 28.5 18.5t10.5 34.5q0 18 -9.5 38.5t-31.5 20.5q-33 0 -45.5 -30.5t-12.5 -55.5zM3248 510q0 23 16.5 49.5t40.5 26.5q18 0 28.5 -18.5t10.5 -35.5q0 -14 -10 -35.5t-26 -21.5t-23.5 13.5t-7.5 25.5t7 24.5t17 16.5q20 -8 21 -35 q0 -27 -27 -22l15 -6q10 4 14 15t4 21q0 12 -4 23.5t-19 11.5q-20 0 -27 -18.5t-7 -34.5t7 -30.5t25 -14.5q20 0 32.5 24.5t20 56.5t9.5 64.5t2 46.5q0 27 -9.5 51.5t-37.5 34.5q37 12 84 9h35q-2 -14 -3.5 -27.5t-1.5 -28.5q0 -20 5.5 -58t13.5 -77t19.5 -73t23.5 -50 q-12 -10 -40 -11t-44 -1q-12 0 -25 6q14 8 21.5 24.5t7.5 32.5q0 25 -22 25l-13 -2q-6 -14 -10 -31.5t-12 -33t-19.5 -26.5t-31.5 -11q-16 0 -27.5 11t-19 26.5t-10.5 33t-3 29.5zM3383 563l2 -8q4 -2 17 -2l4 8q-2 16 -4 31.5t-13 30.5q-2 -16 -4 -29.5t-2 -30.5zM3545 428 q29 74 29 150q0 63 -23 131q10 2 18.5 3t18.5 1h23q10 -1 14 -11q-8 -29 -9 -58.5t-1 -57.5q0 -41 9 -80t9 -78q-2 -2 -13 -3t-25.5 -1h-27h-16.5zM3551 760q29 16 37 45q12 -10 18.5 -23.5t24.5 -19.5q-16 -4 -23.5 -16.5t-15.5 -24.5q-14 33 -41 39zM3582 764l4 -12l10 -2 l6 10l-4 12l-10 2zM3682 741q10 4 25.5 5.5t28.5 1.5h22q8 0 25 -5q6 -16 14 -41.5t17.5 -52t20.5 -49t23 -35.5v60q0 35 -10 68.5t-37 56.5q12 4 24.5 4h24.5l37 -2q-10 -41 -15 -81t-5 -81q0 -37 6.5 -76t24.5 -72q-12 -14 -35 -14q-10 0 -31 4q-14 49 -32.5 97.5 t-41.5 95.5l-6 6q-2 -12 -2 -24.5v-26.5q0 -41 10.5 -82t38.5 -70q-16 -2 -32.5 -3t-32.5 -1h-19.5t-19.5 4q20 35 29.5 73t9.5 79q0 16 -2 41.5t-8.5 50t-18.5 45t-33 24.5z" />
<glyph unicode="&#x25fc;" horiz-adv-x="921" d="M0 0v922h922v-922h-922z" />
</font>
</defs>
</svg>
