<?xml version="1.0" standalone="no"?>
<!DOCTYPE svg PUBLIC "-//W3C//DTD SVG 1.1//EN" "http://www.w3.org/Graphics/SVG/1.1/DTD/svg11.dtd" >
<svg xmlns="http://www.w3.org/2000/svg">
<metadata></metadata>
<defs>
<font id="microflfregular" horiz-adv-x="1337" >
<font-face units-per-em="2048" ascent="1638" descent="-410" />
<missing-glyph horiz-adv-x="792" />
<glyph horiz-adv-x="0" />
<glyph horiz-adv-x="682" />
<glyph horiz-adv-x="628" d="M57 1270q47 -41 113 -65.5t162 -24.5t159.5 23.5t116.5 66.5l-53 63q-41 -35 -99.5 -52t-123.5 -17q-66 0 -122 17t-101 52z" />
<glyph horiz-adv-x="319" d="M84 1219h160v159h-160v-159z" />
<glyph horiz-adv-x="509" d="M100 1262q0 -47 30 -82t106 -35h53q74 0 103.5 34.5t29.5 82.5v71q0 43 -28.5 80t-104.5 37h-53q-78 0 -107 -37t-29 -80v-71zM145 1264v67q0 41 25 57.5t66 16.5h53q39 0 63.5 -16.5t24.5 -57.5v-67q0 -39 -24.5 -56.5t-63.5 -17.5h-53q-41 0 -66 17.5t-25 56.5z" />
<glyph unicode="&#xa;" horiz-adv-x="749" d="M129 1169l70 -28l245 334l-112 65zM348 1169l68 -28l246 334l-111 65z" />
<glyph horiz-adv-x="454" d="M100 -2v-113q0 -63 25 -100t64.5 -56.5t90 -24.5t99.5 -5v125q-72 0 -109 19.5t-37 72.5v82h-133z" />
<glyph horiz-adv-x="811" d="M82 1401l283 -287h81l291 287h-75l-256 -154l-250 154h-74z" />
<glyph unicode="&#xd;" horiz-adv-x="446" d="M156 0h147v1012h-147v-1012z" />
<glyph horiz-adv-x="1028" d="M16 -182h136l892 1673h-137z" />
<glyph horiz-adv-x="1017" d="M63 877h125v-877h148v877h299v135h-299v94q0 82 29.5 132t113.5 50h387v133h-387q-156 0 -223.5 -80.5t-67.5 -210.5v-118h-125v-135zM719 0h147v1012h-147v-1012z" />
<glyph horiz-adv-x="1030" d="M63 879h125v-879h148v879h299v133h-299v121q0 82 37 118.5t100 36.5h264v-1288h148v1421h-406q-152 0 -221.5 -74.5t-69.5 -207.5v-127h-125v-133z" />
<glyph horiz-adv-x="1183" d="M4 319l154 154v-473h915v147h-768v449l227 227v195l-23.5 -23.5t-56 -56.5t-67.5 -66.5t-57 -55.5l-23 -25v630h-147v-753l-154 -154v-195z" />
<glyph horiz-adv-x="464" d="M8 319l148 148v-467h147v588l156 155v195l-156 -156v639h-147v-759l-148 -148v-195z" />
<glyph horiz-adv-x="1226" d="M96 0h1051v147h-840l840 1162v112h-1051v-147h854l-854 -1159v-115zM373 1729l225 -230h66l233 230h-61l-205 -123l-199 123h-59z" />
<glyph horiz-adv-x="1083" d="M123 0h854v137h-664l664 762v113h-846v-135h641l-649 -762v-115zM225 1401l283 -287h82l291 287h-76l-256 -154l-250 154h-74z" />
<glyph unicode=" "  horiz-adv-x="792" />
<glyph unicode="&#x09;" horiz-adv-x="792" />
<glyph unicode="&#xa0;" horiz-adv-x="792" />
<glyph unicode="!" horiz-adv-x="387" d="M125 0h137v160h-137v-160zM125 342h137v1079h-137v-1079z" />
<glyph unicode="&#x22;" horiz-adv-x="671" d="M147 1450l23 -356h70l22 356h-115zM422 1450l22 -356h68l23 356h-113z" />
<glyph unicode="#" horiz-adv-x="1155" d="M84 700h215l-53 -204h110l54 204h249l-51 -204h111l53 204h199l30 115h-200l47 191h199l26 114h-196l53 211h-111l-55 -211h-250l55 211h-112l-54 -211h-215l-30 -114h217l-49 -191h-217zM436 815l51 191h250l-49 -191h-252z" />
<glyph unicode="$" horiz-adv-x="1329" d="M68 1020q0 -66 11 -130.5t53 -116.5t122 -85t217 -33h107v-505h-62q-147 0 -216 67.5t-73 188.5h-147q0 -207 109.5 -305.5t318.5 -98.5h70v-184h147v184h68q225 0 336.5 95.5t111.5 312.5q0 201 -101.5 297t-324.5 96h-90v471h57q104 0 163 -21.5t86.5 -56.5t33.5 -78 t6 -86h150q0 98 -20.5 172t-71 122t-135.5 71.5t-214 23.5h-55v135h-147v-135h-95q-115 0 -193.5 -27.5t-127.5 -79.5t-71.5 -126t-22.5 -168zM227 1020q0 80 15.5 129t49.5 76.5t89 38t133 10.5h64v-471h-84q-68 0 -118 9t-83 32.5t-49.5 65.5t-16.5 110zM725 150v505h90 q154 0 210 -58t56 -187q0 -59 -10 -107.5t-38.5 -82.5t-84 -52t-143.5 -18h-80z" />
<glyph unicode="%" horiz-adv-x="2029" d="M117 915q0 -109 20.5 -179t63.5 -112t109.5 -59.5t158.5 -17.5h80q92 0 156.5 17.5t106.5 59.5t61.5 112.5t19.5 178.5v127q0 109 -20.5 181.5t-65.5 115.5t-113.5 61.5t-167.5 18.5h-69q-92 0 -156.5 -19.5t-105.5 -63.5t-59.5 -115.5t-18.5 -178.5v-127zM240 911v138 q0 76 9 123t34.5 74.5t69.5 37.5t116 10h53q76 0 124 -10t76 -37.5t38 -75t10 -122.5v-138q0 -74 -11 -121t-38 -72.5t-73 -35.5t-113 -10h-58q-70 0 -116 10t-72.5 36.5t-37.5 74t-11 118.5zM766 -68h102l420 1559h-102zM1153 369q0 -109 20.5 -179.5t63.5 -112.5 t109.5 -59.5t158.5 -17.5h80q92 0 156.5 17.5t106.5 59.5t61.5 112.5t19.5 179.5v127q0 109 -20.5 181.5t-65.5 115.5t-113.5 61t-166.5 18h-70q-92 0 -156.5 -19t-105.5 -63.5t-59.5 -116t-18.5 -177.5v-127zM1276 365v137q0 76 9 123t35 74.5t70 38t115 10.5h54 q76 0 124 -10.5t75.5 -38t37.5 -74.5t10 -123v-137q0 -74 -11 -121t-37.5 -73t-73 -36t-113.5 -10h-58q-70 0 -115.5 10t-72.5 37t-38 74t-11 119z" />
<glyph unicode="&#x26;" horiz-adv-x="1466" d="M102 451q0 -137 35 -225.5t102.5 -138.5t169 -68.5t234.5 -18.5h162q147 0 234 34t141 70l110 -104l101 96l-109 109q16 25 28.5 57.5t19.5 78.5t11.5 109.5t4.5 149.5h-150q0 -115 -4 -184.5t-25 -110.5l-555 551q-25 25 -48 48.5t-41.5 50t-29 59.5t-10.5 76 q0 41 12.5 76.5t40 62t69.5 42t104 15.5h118q76 0 124 -16.5t76 -50t39 -86t13 -123.5h148q-4 201 -94.5 306t-305.5 105h-118q-88 0 -155 -25.5t-113 -68.5t-69.5 -101.5t-23.5 -123.5q0 -72 13.5 -122t50.5 -97q-59 -16 -114.5 -46t-98.5 -81t-70 -126t-27 -179zM238 451 q0 86 21.5 143t57 95t80.5 58.5t95 32.5l575 -575q-37 -27 -101.5 -47.5t-146.5 -20.5h-196q-104 0 -178 14.5t-120 50.5t-66.5 96.5t-20.5 152.5z" />
<glyph unicode="'" horiz-adv-x="409" d="M147 1450l23 -356h70l22 356h-115z" />
<glyph unicode="(" horiz-adv-x="518" d="M76 152q0 -205 91 -303.5t298 -98.5v144q-129 0 -185.5 64.5t-56.5 197.5v989q0 133 56.5 197.5t185.5 64.5v143q-207 0 -298 -98t-91 -303v-997z" />
<glyph unicode=")" horiz-adv-x="518" d="M76 -106v-144q207 0 298 98.5t91 303.5v997q0 205 -91 303t-298 98v-143q129 0 185 -64.5t56 -197.5v-989q0 -133 -56 -197.5t-185 -64.5z" />
<glyph unicode="*" horiz-adv-x="704" d="M78 995q0 -29 21.5 -50t52.5 -21q16 0 35.5 8t37.5 31l125 139l-57 -176q-6 -23 -6 -41q0 -39 21.5 -58.5t47.5 -19.5q29 0 51.5 19.5t22.5 58.5q0 18 -6 41l-51 178l127 -133q39 -41 75 -41q31 0 50.5 22.5t19.5 51.5q0 27 -18.5 48t-61.5 31l-182 39l174 43 q43 10 61.5 33t18.5 45q0 29 -20.5 50.5t-51.5 21.5q-16 0 -35.5 -8.5t-37.5 -30.5l-121 -137l53 176q6 20 6 41q0 41 -21.5 59.5t-50.5 18.5t-50 -19.5t-21 -58.5q0 -20 6 -41l59 -176l-131 131q-23 23 -40 31t-34 8q-31 0 -50 -21.5t-19 -50.5q0 -25 18.5 -46.5 t61.5 -31.5l182 -37l-180 -49q-45 -12 -63.5 -33.5t-18.5 -44.5z" />
<glyph unicode="+" horiz-adv-x="950" d="M109 530h297v-297h135v297h297v138h-297v295h-135v-295h-297v-138z" />
<glyph unicode="," horiz-adv-x="374" d="M121 0h84v-90q0 -41 -23.5 -48t-60.5 -7v-72q29 0 57.5 3t51 13.5t37 30.5t14.5 55v275h-160v-160z" />
<glyph unicode="-" horiz-adv-x="876" d="M109 520h653v150h-653v-150z" />
<glyph unicode="." horiz-adv-x="374" d="M121 0h160v160h-160v-160z" />
<glyph unicode="/" horiz-adv-x="626" d="M16 -182h136l456 1673h-137z" />
<glyph unicode="0" d="M100 518q0 -152 32 -251t94.5 -158.5t154.5 -84t211 -24.5h147q131 0 226.5 23.5t158 83t92 159t29.5 252.5v369q0 156 -30.5 259t-93 164.5t-158 86t-224.5 24.5h-147q-123 0 -215 -26.5t-153.5 -89t-92.5 -165t-31 -253.5v-369zM248 518v369q0 113 17.5 186.5t57 115.5 t106.5 58.5t163 16.5h147q98 0 167 -13.5t111 -54.5t61.5 -114.5t19.5 -194.5v-369q0 -111 -17.5 -183.5t-59.5 -113.5t-110.5 -57.5t-171.5 -16.5h-147q-86 0 -150.5 16.5t-107.5 57.5t-64.5 114t-21.5 183z" />
<glyph unicode="1" d="M264 1012l103 -99l350 361v-1274h147v1421h-196z" />
<glyph unicode="2" d="M80 0h1161v147h-1014v64q0 66 22.5 114t69 82.5t118 57.5t169.5 39l127 20q131 20 228.5 49t161 78t94 128t30.5 204q0 115 -25.5 199t-86 139t-158.5 82t-244 27h-127q-260 0 -388 -95.5t-128 -302.5h160q2 59 18.5 106.5t56.5 79t108.5 48t172.5 16.5h127 q111 0 181.5 -17.5t112.5 -54t57.5 -93t15.5 -134.5q0 -86 -22.5 -140.5t-67.5 -88t-115 -53t-162 -33.5l-127 -21q-121 -18 -218 -48t-165.5 -80t-105.5 -125t-37 -183v-211z" />
<glyph unicode="3" d="M98 358q0 -100 27 -168.5t79 -110.5t130 -60.5t180 -18.5h236q123 0 216 20.5t155.5 68.5t93 128t30.5 199q0 160 -56 234.5t-142 90.5q41 10 77.5 28.5t63 52.5t42 86.5t15.5 131.5q0 201 -114.5 291t-380.5 90h-236q-203 0 -309.5 -83t-106.5 -267v-61h148v47 q0 121 62.5 169t205.5 48h281q152 0 227.5 -49t75.5 -185q0 -133 -82 -183t-234 -50h-188v-148h188q80 0 139.5 -5t98.5 -29.5t58.5 -73.5t19.5 -135q0 -88 -20.5 -141.5t-60.5 -82t-98.5 -38t-136.5 -9.5h-268q-141 0 -204.5 47.5t-63.5 169.5v39h-148v-43z" />
<glyph unicode="4" d="M88 319h832v-319h147v319h195v136h-195v966h-158l-821 -966v-136zM270 455l650 778v-778h-650z" />
<glyph unicode="5" d="M119 403q0 -207 120.5 -305t338.5 -98h176q137 0 228 25.5t146.5 81t78 142.5t22.5 210v84q0 223 -115 331.5t-364 108.5h-154q-84 0 -136 -7t-85 -19.5t-51.5 -30t-32.5 -37.5v385h899v147h-1047v-680h150q23 59 90.5 77t200.5 18h166q98 0 161.5 -19.5t100.5 -57.5 t52 -96.5t15 -134.5v-69q0 -82 -14 -141.5t-51 -97.5t-100.5 -55.5t-163.5 -17.5h-172q-164 0 -236 62.5t-76 193.5h-147z" />
<glyph unicode="6" d="M117 387q0 -106 32.5 -181t91 -122t139.5 -68.5t179 -21.5h281q205 0 319.5 100.5t114.5 323.5q0 133 -28.5 222t-85 143.5t-142.5 78t-201 23.5h-219q-70 0 -120 -6.5t-88 -21.5t-67.5 -39.5t-58.5 -59.5v237q0 84 16.5 139.5t56.5 87t105.5 44t163.5 12.5h144 q111 0 181 -16.5t110 -47t55.5 -76.5t17.5 -106h150q0 207 -127 301t-379 94h-168q-115 0 -203 -21.5t-147.5 -70.5t-91 -130t-31.5 -201v-617zM264 395v72q0 61 15.5 111.5t53.5 85t101.5 54t159.5 19.5h201q186 0 258.5 -66.5t72.5 -195.5v-74q0 -59 -15 -107t-53 -82 t-102.5 -52.5t-160.5 -18.5h-189q-100 0 -165.5 15.5t-104.5 46t-55.5 79t-16.5 113.5z" />
<glyph unicode="7" d="M115 1286h983l-826 -1286h172l783 1241v180h-1112v-135z" />
<glyph unicode="8" d="M121 1020q0 -139 75.5 -213t188.5 -78q-57 -6 -105.5 -26.5t-83 -57.5t-54 -93t-19.5 -134v-70q0 -203 105.5 -283.5t330.5 -80.5h234q225 0 330.5 80.5t105.5 283.5v70q0 78 -19.5 134t-54.5 93t-83 57.5t-105 26.5q113 4 188.5 78t75.5 213v90q0 147 -92 236.5 t-303 89.5h-320q-106 0 -181 -23.5t-123 -65.5t-69.5 -102.5t-21.5 -134.5v-90zM268 385q0 76 15.5 126t51.5 78.5t91 41t135 12.5h230q80 0 135 -12.5t91 -41t51 -78.5t15 -126q0 -80 -15 -130t-51 -77.5t-91.5 -37t-134.5 -9.5h-230q-80 0 -135 9.5t-91 37t-51.5 77.5 t-15.5 130zM268 1049q0 74 14.5 124t48.5 79.5t90 42t140 12.5h230q84 0 140 -12.5t90 -42t48 -79.5t14 -124q0 -70 -18 -115t-55 -72.5t-93.5 -39t-134.5 -11.5h-213q-78 0 -134 11.5t-93 39t-55.5 72.5t-18.5 115z" />
<glyph unicode="9" d="M82 913q0 -201 119.5 -289.5t367.5 -88.5h168q78 0 135.5 7t98.5 22.5t69.5 39t51.5 58.5v-183q0 -102 -17.5 -166.5t-58.5 -103.5t-111.5 -53.5t-175.5 -14.5h-151q-94 0 -158 16.5t-102.5 47.5t-56 77t-19.5 105h-148q0 -205 123 -299t356 -94h172q121 0 214.5 21.5 t156 75.5t94 144.5t31.5 227.5v545q0 223 -131 321t-373 98h-184q-233 0 -352 -99t-119 -316v-99zM229 928v71q0 66 15.5 118t53.5 88t100.5 54.5t158.5 18.5h164q111 0 183.5 -17.5t113.5 -51t57.5 -84t16.5 -117.5v-88q0 -45 -11.5 -88.5t-50.5 -77t-113.5 -54 t-199.5 -20.5h-139q-174 0 -261.5 52t-87.5 196z" />
<glyph unicode=":" horiz-adv-x="374" d="M121 0h160v160h-160v-160zM121 743h160v160h-160v-160z" />
<glyph unicode=";" horiz-adv-x="374" d="M121 0h84v-90q0 -35 -16.5 -45t-67.5 -10v-72q88 0 124 21.5t36 80.5v275h-160v-160zM121 743h160v160h-160v-160z" />
<glyph unicode="&#x3c;" horiz-adv-x="751" d="M63 627l586 -400v160l-346 240l346 237v160z" />
<glyph unicode="=" horiz-adv-x="876" d="M109 350h653v148h-653v-148zM109 680h653v147h-653v-147z" />
<glyph unicode="&#x3e;" horiz-adv-x="739" d="M106 227l586 400l-586 397v-160l347 -237l-347 -240v-160z" />
<glyph unicode="?" horiz-adv-x="1210" d="M84 1032h147q2 70 13.5 121t41 83t84 47t144.5 15h154q94 0 154.5 -15t96 -48t49 -84t13.5 -121q0 -61 -15.5 -102t-45 -67.5t-75.5 -43t-108 -31.5q-72 -16 -126 -38.5t-91 -56.5t-55.5 -84t-18.5 -124v-141h154v123q0 66 35 113t143 75q98 25 165 51.5t108 67.5 t59 101.5t18 156.5q0 100 -20.5 176t-72.5 127t-141 77t-226 26h-166q-125 0 -206 -22.5t-128 -72t-65.5 -126t-18.5 -183.5zM453 0h155v160h-155v-160z" />
<glyph unicode="@" horiz-adv-x="1329" d="M82 877q0 -109 36 -211.5t108.5 -182.5t182 -129t255.5 -49q66 0 128 12.5t114 31t90 42t57 47.5l-45 56q-18 -25 -54 -46.5t-82.5 -38t-98.5 -25.5t-103 -9q-129 0 -225.5 43t-161 114.5t-96 162t-31.5 186.5q0 94 31.5 185t96 161.5t161 114.5t225.5 44 q125 0 221 -40.5t160.5 -109.5t97.5 -158t33 -185q0 -43 -8.5 -86t-28 -79t-51 -57.5t-76.5 -21.5q-49 0 -67.5 33t-18.5 74v26t2 27l43 332h-68l-22 -144q-25 63 -79 109.5t-155 46.5q-78 0 -135 -27.5t-96 -71.5t-58.5 -99.5t-19.5 -110.5q0 -51 16.5 -99.5t49 -86 t83 -60.5t117.5 -23q59 0 101.5 12.5t72 33t48 46t30.5 54.5q6 -66 44 -106t102 -40q72 0 120 28t76.5 73t39.5 100t11 109q0 117 -40.5 221t-117.5 182t-184.5 123t-242.5 45q-147 0 -257 -50t-183.5 -131t-110.5 -185.5t-37 -212.5zM422 848q0 43 14.5 85t43 75.5t71.5 54 t100 20.5q45 0 81 -17t58.5 -46t35 -67t12.5 -76q0 -43 -14.5 -84t-42 -73t-69.5 -52.5t-100 -20.5q-47 0 -82.5 17.5t-59.5 45t-36 63.5t-12 75z" />
<glyph unicode="A" horiz-adv-x="1374" d="M49 0h158l127 342h731l127 -342h154l-533 1421h-233zM391 489l303 828h8l304 -828h-615z" />
<glyph unicode="B" horiz-adv-x="1318" d="M147 0h586q123 0 216 20.5t156.5 69.5t95.5 129t32 199q0 90 -20.5 150.5t-50 98.5t-65.5 57t-67 32q31 16 54.5 37.5t40 57.5t25.5 87t9 129q0 182 -119.5 268t-375.5 86h-517v-1421zM295 147v525h483q160 0 233.5 -56.5t73.5 -199.5q0 -147 -74.5 -208t-222.5 -61h-493 zM295 819v455h426q160 0 225.5 -58.5t65.5 -175.5q0 -68 -18.5 -110.5t-55.5 -67t-91 -34t-124 -9.5h-428z" />
<glyph unicode="C" horiz-adv-x="1447" d="M115 651q0 -201 28.5 -327.5t97 -198.5t185.5 -98.5t295 -26.5h100q141 0 238.5 25.5t158 76t87 125t26.5 174.5h-147q0 -68 -19.5 -115.5t-62.5 -79.5t-113.5 -46.5t-173.5 -14.5h-94q-143 0 -233.5 17.5t-140.5 71t-67.5 152.5t-17.5 265v131q0 162 19.5 261.5 t68.5 153.5t133 72.5t213 18.5h82q119 0 197 -17.5t124 -50t64.5 -80.5t18.5 -108h147q0 205 -133 304.5t-422 99.5h-78q-160 0 -271.5 -29t-180 -102.5t-99 -200.5t-30.5 -324v-129z" />
<glyph unicode="D" horiz-adv-x="1456" d="M158 0h653q133 0 228.5 27.5t155.5 96.5t88 183.5t28 288.5v229q0 141 -21.5 253t-77 187.5t-152.5 115.5t-249 40h-653v-1421zM305 143v1135h506q98 0 164.5 -24.5t108.5 -78t60.5 -140.5t18.5 -210v-229q0 -123 -14 -209t-52 -140t-106.5 -79t-179.5 -25h-506z" />
<glyph unicode="E" horiz-adv-x="1173" d="M147 0h916v143h-768v521h733v143h-733v471h768v143h-916v-1421z" />
<glyph unicode="F" horiz-adv-x="1183" d="M147 0h148v664h733v143h-733v471h768v143h-916v-1421z" />
<glyph unicode="G" horiz-adv-x="1392" d="M106 567q0 -170 32 -280.5t93.5 -174t152.5 -88t212 -24.5h227q125 0 220.5 24.5t158 88t94 174t31.5 280.5v107h-582v-148h435q-4 -119 -24.5 -192.5t-62.5 -115.5t-108.5 -56.5t-161.5 -14.5h-227q-94 0 -158.5 16.5t-105.5 61.5t-59.5 127t-18.5 215v318 q0 117 18.5 193.5t59.5 121.5t106.5 63.5t157.5 18.5h231q160 0 240 -53t102 -197h150q-29 215 -144.5 306.5t-338.5 91.5h-240q-129 0 -221 -30t-152.5 -94.5t-88.5 -169t-28 -251.5v-318z" />
<glyph unicode="H" horiz-adv-x="1347" d="M152 0h149v659h762v-659h147v1421h-147v-614h-762v614h-149v-1421z" />
<glyph unicode="I" horiz-adv-x="464" d="M162 0h147v1421h-147v-1421z" />
<glyph unicode="J" horiz-adv-x="1183" d="M106 360q0 -90 31 -157.5t84 -112.5t127 -67.5t160 -22.5h139q90 0 167 24.5t132 77t87 134t32 196.5v989h-147v-987q0 -160 -77 -225.5t-200 -65.5h-135q-117 0 -184.5 53.5t-67.5 176.5v102h-148v-115z" />
<glyph unicode="K" horiz-adv-x="1456" d="M152 0h149v700h162l696 -700h221l-780 772l655 649h-213l-585 -587h-156v587h-149v-1421z" />
<glyph unicode="L" horiz-adv-x="1183" d="M158 0h915v147h-768v1274h-147v-1421z" />
<glyph unicode="M" horiz-adv-x="1765" d="M129 0h143v1294l564 -1294h102l561 1294v-1294h148v1421h-244l-510 -1198l-518 1198h-246v-1421z" />
<glyph unicode="N" horiz-adv-x="1511" d="M145 0h148v1309l872 -1309h213v1421h-147v-1274l-842 1274h-244v-1421z" />
<glyph unicode="O" horiz-adv-x="1429" d="M106 567q0 -170 32 -280.5t93.5 -174t152.5 -88t212 -24.5h227q125 0 220.5 24.5t158 88t94 174t31.5 280.5v318q0 147 -27.5 251.5t-88 169t-153.5 94.5t-222 30h-240q-129 0 -221 -30t-152.5 -94.5t-88.5 -169t-28 -251.5v-318zM254 567v318q0 117 18.5 193.5 t59.5 121.5t106.5 63.5t157.5 18.5h231q96 0 164 -18.5t110 -63.5t60.5 -122t18.5 -193v-318q0 -133 -18.5 -215t-60.5 -127t-110.5 -61.5t-167.5 -16.5h-227q-94 0 -158.5 16.5t-105.5 61.5t-59.5 127t-18.5 215z" />
<glyph unicode="P" horiz-adv-x="1243" d="M135 0h158v610h475q90 0 163 17.5t123 63.5t77.5 123t27.5 198q0 119 -27.5 197.5t-77.5 125.5t-124 66.5t-166 19.5h-629v-1421zM293 754v524h471q129 0 188.5 -60.5t59.5 -201.5q0 -150 -59.5 -206t-188.5 -56h-471z" />
<glyph unicode="Q" horiz-adv-x="1437" d="M106 567q0 -170 32 -280.5t93.5 -174t152.5 -88t212 -24.5h227q111 0 197 18.5t149 65.5l134 -84l77 123l-118 76q65 129 65 361v7v318q0 147 -27.5 251.5t-88 169t-153.5 94.5t-222 30h-240q-129 0 -221 -30t-152.5 -94.5t-88.5 -169t-28 -251.5v-318zM254 567v318 q0 117 18.5 193.5t59.5 121.5t106.5 63.5t157.5 18.5h231q96 0 164 -18.5t110 -63.5t60.5 -122t18.5 -193v-318q0 -100 -10.5 -170.5t-32.5 -117.5l-398 251l-88 -116l375 -238q-39 -16 -89 -22.5t-114 -6.5h-227q-94 0 -158.5 16.5t-105.5 61.5t-59.5 127t-18.5 215z" />
<glyph unicode="R" horiz-adv-x="1273" d="M147 0h148v676h561q92 0 132 -48t40 -126v-502h148v532q0 102 -48.5 154.5t-111.5 65.5q72 18 116 85.5t44 215.5q0 178 -95.5 273t-285.5 95h-648v-1421zM295 819v459h516q117 0 167 -54.5t50 -166.5q0 -129 -47 -183.5t-170 -54.5h-516z" />
<glyph unicode="S" horiz-adv-x="1273" d="M82 999q0 -176 103.5 -251.5t291.5 -81.5l299 -11q152 -6 214.5 -63t62.5 -186q0 -63 -11.5 -111.5t-44 -81.5t-94 -49.5t-160.5 -16.5h-229q-135 0 -203.5 46.5t-68.5 173.5v36h-148v-41q0 -188 106.5 -275t315.5 -87h229q240 0 348.5 91t108.5 278v69q0 80 -22.5 145.5 t-75.5 112.5t-140 76t-219 33l-278 8q-141 4 -189.5 54.5t-48.5 142.5v45q0 49 12.5 89t42 69.5t81 45t129.5 15.5h274q70 0 121 -11.5t85 -39t50 -77.5t18 -126h148q0 94 -18.5 169t-68.5 127t-140.5 78.5t-233.5 26.5h-221q-231 0 -328.5 -95t-97.5 -263v-64z" />
<glyph unicode="T" horiz-adv-x="1292" d="M63 1278h512v-1278h148v1278h510v143h-1170v-143z" />
<glyph unicode="U" horiz-adv-x="1347" d="M129 432q0 -117 29.5 -199.5t85 -134t135.5 -75t182 -23.5h234q106 0 188 22.5t137.5 73.5t84 134t28.5 206v985h-148v-991q0 -78 -13 -133t-47 -89t-89 -49.5t-141 -15.5h-234q-147 0 -216 64.5t-69 222.5v991h-147v-989z" />
<glyph unicode="V" horiz-adv-x="1265" d="M33 1421l520 -1421h172l520 1421h-155l-451 -1243l-451 1243h-155z" />
<glyph unicode="W" horiz-adv-x="2129" d="M37 1421l467 -1421h166l397 1223l399 -1223h172l469 1421h-155l-400 -1235l-399 1235h-166l-397 -1235l-400 1235h-153z" />
<glyph unicode="X" horiz-adv-x="1374" d="M70 0h170l458 684l455 -684h170l-502 760l441 661h-175l-389 -596l-393 596h-170l438 -663z" />
<glyph unicode="Y" horiz-adv-x="1155" d="M37 1421l471 -759v-662h147v662l473 759h-159l-387 -630l-385 630h-160z" />
<glyph unicode="Z" horiz-adv-x="1226" d="M96 0h1051v147h-840l840 1162v112h-1051v-147h854l-854 -1159v-115z" />
<glyph unicode="[" horiz-adv-x="518" d="M131 -227l295 -2v73l-158 4v1633h150v78h-287v-1786z" />
<glyph unicode="\" horiz-adv-x="612" d="M14 1491l457 -1673h135l-454 1673h-138z" />
<glyph unicode="]" horiz-adv-x="518" d="M102 -156v-73l293 2v1786h-286v-78h151v-1633z" />
<glyph unicode="^" horiz-adv-x="819" d="M78 694h65l275 428l274 -428h68l-301 619h-82z" />
<glyph unicode="_" horiz-adv-x="796" d="M0 -53v-80h825v80h-825z" />
<glyph unicode="`" horiz-adv-x="546" d="M74 1372l344 -229l55 51l-315 279z" />
<glyph unicode="a" horiz-adv-x="1097" d="M90 285q0 -139 85 -212t245 -73h153q72 0 118 9t75 21.5t42 28t19 27.5v-86h146v743q0 119 -82 194t-250 75h-213q-168 0 -240.5 -66.5t-72.5 -179.5v-16h147v16q0 66 41 94.5t133 28.5h201q94 0 141 -37t47 -129v-191q-16 18 -35.5 34t-49 28t-70.5 18t-103 6h-157 q-160 0 -240 -76.5t-80 -205.5v-51zM231 309q0 96 48.5 140.5t169.5 44.5h143q70 0 115 -12.5t70.5 -36t35.5 -58.5t10 -78q0 -90 -48 -137t-167 -47h-157q-123 0 -171.5 44t-48.5 140z" />
<glyph unicode="b" horiz-adv-x="1173" d="M119 0h147v111q16 -20 36 -40t51.5 -36.5t79.5 -26.5t124 -10h119q221 0 317.5 115.5t96.5 324.5v140q0 215 -98.5 326.5t-319.5 111.5h-119q-68 0 -115 -9.5t-80.5 -25.5t-55 -38.5t-36.5 -49.5v528h-147v-1421zM262 451v127q0 72 12.5 130t45 98t88 61.5t141.5 21.5h98 q158 0 226.5 -75t68.5 -236v-136q0 -178 -72.5 -248.5t-210.5 -70.5h-106q-147 0 -219 78t-72 250z" />
<glyph unicode="c" horiz-adv-x="1120" d="M119 438q0 -127 23.5 -212t70.5 -135t116.5 -71.5t162.5 -21.5h149q113 0 183.5 27.5t110.5 74.5t54.5 108.5t14.5 131.5v51h-138v-31q0 -72 -11 -117.5t-40 -72.5t-78 -37t-127 -10h-114q-63 0 -108.5 14.5t-75 52t-44 103t-14.5 166.5v90q0 100 12.5 165.5t41 104.5 t78.5 54.5t126 15.5h106q139 0 193.5 -43t54.5 -141v-48h138v31q0 90 -27 152.5t-77 101.5t-122.5 56.5t-163.5 17.5h-98q-102 0 -177 -21.5t-124 -73t-72.5 -136.5t-23.5 -212v-135z" />
<glyph unicode="d" horiz-adv-x="1173" d="M102 438q0 -209 96.5 -324.5t317.5 -115.5h119q76 0 124 10t79.5 26.5t51 36t36.5 40.5v-111h147v1421h-147v-528q-16 27 -37 49.5t-54.5 38.5t-80.5 25.5t-115 9.5h-119q-221 0 -319.5 -111.5t-98.5 -326.5v-140zM250 442v136q0 162 68.5 236.5t226.5 74.5h98 q86 0 141.5 -21.5t88 -61.5t45 -98t12.5 -130v-127q0 -172 -72 -250t-219 -78h-107q-139 0 -210.5 70.5t-71.5 248.5z" />
<glyph unicode="e" horiz-adv-x="1120" d="M119 418q0 -123 23.5 -204t70.5 -129t115.5 -67.5t158.5 -19.5h131q82 0 152 14.5t121 47t80.5 87t29.5 132.5v43h-137v-31q0 -84 -53 -126t-188 -42h-131q-125 0 -181.5 55t-56.5 178v119h747v193q0 164 -95 256t-288 92h-131q-186 0 -277 -100.5t-91 -321.5v-176z M254 600q0 80 10 134t37 89t73 50.5t118 15.5h131q82 0 130 -16.5t72.5 -51.5t31.5 -89t7 -132h-610z" />
<glyph unicode="f" horiz-adv-x="718" d="M63 877h125v-877h148v877h299v135h-299v114q0 78 30.5 119t112.5 41h154v135h-162q-150 0 -216.5 -83t-66.5 -212v-114h-125v-135z" />
<glyph unicode="g" horiz-adv-x="1191" d="M104 442q0 -219 95.5 -331.5t328.5 -112.5h131q68 0 113 11t75 27.5t48 38t31 42.5v-166q0 -121 -57.5 -189.5t-202.5 -68.5h-136q-131 0 -179 38t-48 107h-147q0 -133 86 -201.5t286 -68.5h138q113 0 191.5 28.5t125.5 80t68.5 121t21.5 153.5v1061h-147v-129 q-12 25 -29.5 48t-47.5 41.5t-77 29t-119 10.5h-116q-225 0 -329 -105.5t-104 -345.5v-119zM252 444v115q0 96 15.5 159.5t49 101.5t89 53.5t135.5 15.5h98q88 0 145.5 -21.5t89 -62.5t44 -101.5t12.5 -136.5v-116q0 -78 -13.5 -139.5t-47 -103.5t-91 -63.5t-143.5 -21.5 h-94q-80 0 -134.5 16.5t-89 54t-50 99t-15.5 151.5z" />
<glyph unicode="h" horiz-adv-x="1202" d="M125 0h154v621q0 129 72.5 200.5t238.5 71.5h63q158 0 220.5 -60.5t62.5 -201.5v-631h147v637q0 82 -20.5 150.5t-69.5 118.5t-132 78t-208 28h-63q-78 0 -132.5 -11.5t-91 -30t-59 -41t-35.5 -44.5v536h-147v-1421z" />
<glyph unicode="i" horiz-adv-x="446" d="M156 0h147v1012h-147v-1012zM156 1274h147v147h-147v-147z" />
<glyph unicode="j" horiz-adv-x="499" d="M43 -299v-135q291 0 291 291v1155h-148v-1147q0 -164 -143 -164zM186 1274h148v147h-148v-147z" />
<glyph unicode="k" horiz-adv-x="1101" d="M139 0h148v535h106l455 -535h178l-520 612l387 400h-180l-324 -330h-102v739h-148v-1421z" />
<glyph unicode="l" horiz-adv-x="464" d="M156 0h147v1421h-147v-1421z" />
<glyph unicode="m" horiz-adv-x="1902" d="M123 0h147v643q0 33 10.5 75t41 80t86 63.5t145.5 25.5h100q74 0 121 -22.5t75 -57.5t38 -75t10 -73v-659h147v659q0 33 13.5 73t45.5 75t86 57.5t136 22.5h102q129 0 186.5 -60.5t57.5 -152.5v-674h148v659q0 74 -23.5 138.5t-73 111.5t-124.5 75t-177 28h-94 q-76 0 -131 -15.5t-94 -39t-64.5 -54.5t-40.5 -61q-12 29 -33.5 59.5t-60.5 55t-99.5 40t-150.5 15.5h-98q-117 0 -184.5 -41t-100.5 -97v138h-147v-1012z" />
<glyph unicode="n" horiz-adv-x="1191" d="M125 0h147v614q0 129 69 204t212 75h100q156 0 219.5 -68.5t63.5 -210.5v-614h147v614q0 190 -99.5 294t-330.5 104h-104q-113 0 -180.5 -41t-96.5 -94v135h-147v-1012z" />
<glyph unicode="o" horiz-adv-x="1056" d="M88 395q0 -100 19.5 -175t63.5 -124t115.5 -73.5t178.5 -24.5h131q104 0 176 24.5t116 73.5t63.5 124t19.5 175v203q0 102 -19.5 181t-63.5 131.5t-116 79t-176 26.5h-131q-104 0 -177 -26.5t-117 -79t-63.5 -131.5t-19.5 -181v-203zM223 395v203q0 86 11.5 142.5t39 89 t75.5 46t120 13.5h123q70 0 117 -13.5t75.5 -46t40 -89t11.5 -142.5v-203q0 -80 -12.5 -132t-41 -82.5t-75.5 -43t-115 -12.5h-123q-70 0 -117 12.5t-75.5 43t-41 82.5t-12.5 132z" />
<glyph unicode="p" horiz-adv-x="1173" d="M119 -410h147v533q14 -27 36 -49.5t55.5 -39t80.5 -25.5t115 -9h119q221 0 319.5 111.5t98.5 326.5v140q0 209 -96.5 324.5t-317.5 115.5h-119q-76 0 -124 -10.5t-79.5 -26.5t-51 -35.5t-36.5 -40.5v107h-147v-1422zM262 438v127q0 172 72 250t219 78h106 q137 0 210 -70.5t73 -249.5v-135q0 -162 -68.5 -236.5t-226.5 -74.5h-98q-86 0 -141.5 21.5t-88 61.5t-45 98t-12.5 130z" />
<glyph unicode="q" horiz-adv-x="1173" d="M109 438q0 -215 98 -326.5t319 -111.5h119q68 0 115 9t80.5 25.5t54 39t37.5 49.5v-533h147v1422h-147v-107q-16 20 -35.5 40t-51.5 36t-80 26.5t-124 10.5h-119q-221 0 -317 -116t-96 -324v-140zM256 438v135q0 178 71.5 249t211.5 71h106q147 0 219 -78t72 -250v-127 q0 -72 -12.5 -130t-46 -98t-91 -61.5t-147.5 -21.5h-92q-154 0 -222.5 74.5t-68.5 236.5z" />
<glyph unicode="r" horiz-adv-x="1120" d="M104 0h148v594q0 141 77 220t230 79h76q88 0 140 -22.5t80 -62.5t36 -93.5t8 -114.5h148q0 76 -12.5 149.5t-55.5 132t-125 94.5t-219 36h-74q-74 0 -126 -11.5t-88 -29t-59.5 -40t-37.5 -42.5v123h-146v-1012z" />
<glyph unicode="s" horiz-adv-x="1110" d="M100 301q0 -137 80 -220t271 -83h221q186 0 265 74.5t79 195.5v37q0 123 -74 193.5t-227 74.5l-314 9q-98 2 -135 33.5t-37 117.5q0 33 7.5 61.5t28 49t56 33t91.5 12.5h225q141 0 193.5 -47t52.5 -129v-19h127v21q0 61 -18.5 116.5t-61.5 96.5t-114 64.5t-177 23.5h-225 q-80 0 -139.5 -21.5t-97.5 -58.5t-56.5 -87t-18.5 -108v-41q0 -117 72 -178t197 -65l340 -8q102 -2 140 -40t38 -122q0 -100 -51.5 -132t-149.5 -32h-239q-221 0 -222 186v13h-127v-21z" />
<glyph unicode="t" horiz-adv-x="978" d="M74 877h125v-562q0 -86 21.5 -145t59 -97t89 -55.5t110.5 -17.5h154q61 0 110.5 14.5t84 48t53 88t18.5 132.5h-147q0 -74 -28 -115t-114 -41h-102q-80 0 -121 41t-41 133v576h485v135h-485v194h-147v-194h-125v-135z" />
<glyph unicode="u" horiz-adv-x="1210" d="M139 395q0 -201 92.5 -299t317.5 -98h92q68 0 115 11t80.5 27.5t55 38t38.5 42.5v-117h143v1012h-147v-627q0 -127 -75 -188.5t-216 -61.5h-88q-145 0 -202.5 58.5t-57.5 191.5v627h-148v-617z" />
<glyph unicode="v" horiz-adv-x="991" d="M43 1012l379 -1012h168l377 1012h-154l-307 -815l-307 815h-156z" />
<glyph unicode="w" horiz-adv-x="1611" d="M29 1012l358 -1012h154l276 817l275 -817h145l360 1012h-151l-279 -774l-264 774h-172l-266 -793l-285 793h-151z" />
<glyph unicode="x" horiz-adv-x="1056" d="M27 0h184l324 428l325 -428h184l-409 547l352 465h-182l-270 -363l-273 363h-182l354 -467z" />
<glyph unicode="y" horiz-adv-x="1003" d="M23 -305v-127q197 0 349 124t240 361l355 959h-152l-309 -822l-307 822h-156l379 -1014h12q-18 -53 -58 -107.5t-94.5 -97.5t-121 -70.5t-137.5 -27.5z" />
<glyph unicode="z" horiz-adv-x="1083" d="M123 0h854v137h-664l664 762v113h-846v-135h641l-649 -762v-115z" />
<glyph unicode="{" horiz-adv-x="579" d="M63 631q49 -27 92.5 -80t43.5 -121v-397q0 -154 79.5 -228.5t227.5 -74.5v110q-102 0 -148.5 47t-46.5 146v397q0 41 -11 74t-28.5 57.5t-37 42t-33.5 27.5q16 8 35.5 22.5t36 37t27.5 56t11 84.5v398q0 104 44 151t151 47v113q-86 0 -144.5 -22.5t-94.5 -61.5t-52 -94 t-16 -119v-412q0 -72 -41 -122t-95 -78z" />
<glyph unicode="|" horiz-adv-x="342" d="M121 -272h112v1785h-112v-1785z" />
<glyph unicode="}" horiz-adv-x="579" d="M94 -160v-110q147 0 227 74.5t80 228.5v397q0 68 43 121t93 80q-53 29 -94.5 79t-41.5 121v412q0 63 -16 118.5t-52 94.5t-94.5 61.5t-144.5 22.5v-113q106 0 150.5 -47t44.5 -151v-398q0 -51 11 -84.5t27.5 -56t36 -37t35.5 -22.5q-16 -10 -34.5 -27.5t-36 -42 t-28.5 -57.5t-11 -74v-397q0 -98 -46 -145.5t-149 -47.5z" />
<glyph unicode="~" horiz-adv-x="856" d="M86 696h111q4 35 26.5 69t71.5 34q47 0 68.5 -13.5t48.5 -35.5q23 -18 58.5 -38t107.5 -20q53 0 88.5 19.5t59.5 50.5t35 67.5t13 71.5h-108q-2 -14 -7.5 -31.5t-15.5 -32t-29.5 -24.5t-52.5 -10q-41 0 -66.5 15.5t-50.5 35.5q-25 18 -56.5 35.5t-84.5 17.5t-92 -20.5 t-64.5 -51t-40 -67.5t-20.5 -72z" />
<glyph unicode="&#xa1;" horiz-adv-x="524" d="M197 -295h137v1079h-137v-1079zM197 967h137v159h-137v-159z" />
<glyph unicode="&#xa2;" horiz-adv-x="1128" d="M127 537q0 -102 22.5 -173t64.5 -116t102.5 -64.5t138.5 -19.5h63v-115h146v115h26q162 0 242 83t80 257v51h-135v-31q0 -72 -11.5 -118t-36 -71.5t-60.5 -35.5t-85 -10h-20v768h20q98 0 145.5 -48t47.5 -157v-31h135v31q0 156 -81 242t-241 86h-26v131h-146v-131h-63 q-160 0 -244 -93.5t-84 -298.5v-251zM264 537v243q0 76 10.5 129.5t35 86t66.5 47t107 14.5h35v-768h-35q-51 0 -92 11t-68.5 40t-43 77t-15.5 120z" />
<glyph unicode="&#xa3;" horiz-adv-x="1165" d="M88 0h983v143h-788q106 63 157.5 166t51.5 228h423v143h-446q-14 63 -36.5 112.5t-45.5 86.5q-27 43 -47.5 92t-20.5 110q0 98 59.5 152.5t188.5 54.5h140q104 0 174.5 -44t74.5 -142h146q-4 76 -36 136t-83 100t-116.5 61.5t-139.5 21.5h-178q-88 0 -157.5 -25.5 t-119 -70.5t-75 -104.5t-25.5 -128.5q0 -90 19.5 -140.5t44.5 -93.5q23 -35 46 -75t37 -103h-210v-143h233q0 -70 -13.5 -120t-43 -93t-77.5 -84t-120 -93v-147z" />
<glyph unicode="&#xa5;" horiz-adv-x="1155" d="M37 1421l463 -759h-228v-113h228v-80h-228v-113h228v-356h162v356h227v113h-227v80h227v113h-227l466 759h-159l-387 -630l-385 630h-160z" />
<glyph unicode="&#xa6;" horiz-adv-x="342" d="M121 0h112v588h-112v-588zM121 926h112v587h-112v-587z" />
<glyph unicode="&#xa7;" horiz-adv-x="1224" d="M53 514q0 -131 78 -200.5t211 -69.5h420q86 0 130 -45t44 -117q0 -88 -46 -126t-134 -38h-318q-86 0 -127 48t-41 130v21h-125v-21q0 -61 20.5 -116.5t60.5 -97.5t96.5 -65.5t130.5 -23.5h290q147 0 232.5 68.5t85.5 197.5v60q0 59 -23.5 99t-52.5 63q92 16 136 89.5 t44 176.5v110q0 123 -86 197t-233 74h-420q-76 0 -115 36.5t-39 122.5q0 80 39 119t131 39h289q115 0 157 -45t42 -131v-20h127v20q0 61 -17.5 116.5t-56.5 96.5t-100.5 64.5t-147.5 23.5h-282q-76 0 -133.5 -21.5t-95.5 -57.5t-57.5 -85t-19.5 -104v-43q0 -90 24 -125 t58 -55q-86 -16 -131 -81t-45 -202v-82zM178 553v39q0 104 36 157.5t136 53.5h506q96 0 140 -48.5t44 -136.5v-45q0 -96 -49 -150t-186 -54h-451q-94 0 -135 46t-41 138z" />
<glyph unicode="&#xa8;" horiz-adv-x="700" d="M100 1274h148v147h-148v-147zM465 1274h147v147h-147v-147z" />
<glyph unicode="&#xa9;" horiz-adv-x="1310" d="M86 743q0 -121 46 -227t126 -186t186.5 -126t227.5 -46t227.5 46t186 126t125.5 186t46 227t-46 227.5t-125.5 186.5t-186 126t-227.5 46t-227.5 -46t-186.5 -126t-126 -186.5t-46 -227.5zM129 745q0 113 42 211.5t115.5 172t172 115.5t211.5 42t211 -42t171.5 -115.5 t115.5 -172t42 -211.5t-42 -211t-115.5 -171.5t-172 -115.5t-210.5 -42q-113 0 -211.5 42t-172 115.5t-115.5 171.5t-42 211zM383 737q0 -53 18.5 -100t55.5 -82t91 -56.5t126 -21.5q90 0 136 23.5t75 46.5v53q-35 -29 -83 -54.5t-128 -25.5q-121 0 -182.5 64.5t-61.5 152.5 q0 45 15.5 89t45 77t75.5 53.5t108 20.5q82 0 132 -27.5t79 -48.5v49q-29 20 -81 46t-130 26q-74 0 -128 -25.5t-90 -65.5t-54.5 -91.5t-18.5 -102.5z" />
<glyph unicode="&#xaa;" horiz-adv-x="600" d="M70 936q0 -70 43 -106.5t123 -36.5h77q72 0 96.5 15t30.5 28v-43h74v374q0 59 -41 97.5t-125 38.5h-108q-86 0 -122 -34t-36 -89v-11h74v11q0 61 88 61h102q47 0 70.5 -18.5t23.5 -65.5v-96q-16 18 -42.5 30.5t-88.5 12.5h-78q-80 0 -120.5 -38t-40.5 -103v-27zM76 639 h438v61h-438v-61zM141 948q0 47 24.5 69.5t84.5 22.5h74q70 0 92 -23.5t22 -68.5t-23.5 -68.5t-82.5 -23.5h-80q-61 0 -86 22.5t-25 69.5z" />
<glyph unicode="&#xab;" horiz-adv-x="1114" d="M96 569l420 -422l70 70l-355 352l357 355l-70 67zM477 569l422 -422l68 70l-353 352l355 355l-68 67z" />
<glyph unicode="&#xac;" horiz-adv-x="882" d="M117 709h620v69h-620v-69zM184 459q0 -61 34 -94t85 -37q-53 -4 -85 -36t-32 -104v-30q0 -92 46.5 -128t148.5 -36h106q102 0 148.5 36t46.5 128v30q0 72 -32 104t-85 36q51 4 85 36.5t34 94.5v41q0 66 -41 106.5t-137 40.5h-144q-96 0 -137 -41t-41 -106v-41zM242 1288 l47 -43l157 162v-573h66v639h-88zM250 174q0 68 30.5 92.5t102.5 24.5h102q72 0 102.5 -24.5t30.5 -92.5q0 -72 -30.5 -93.5t-102.5 -21.5h-102q-72 0 -102.5 21.5t-30.5 93.5zM250 473q0 66 27.5 90.5t105.5 24.5h102q78 0 105.5 -24.5t27.5 -90.5q0 -63 -32.5 -85.5 t-104.5 -22.5h-94q-72 0 -104.5 22.5t-32.5 85.5z" />
<glyph unicode="&#xad;" horiz-adv-x="876" d="M109 520h653v150h-653v-150z" />
<glyph unicode="&#xae;" horiz-adv-x="806" d="M84 1153q0 -68 25.5 -126t69.5 -102t102.5 -70t126.5 -26t126 26t102 70t69.5 102t25.5 126t-25.5 126t-69.5 102t-102.5 70t-125.5 26q-68 0 -126.5 -26t-102.5 -70t-69.5 -102t-25.5 -126zM115 1153q0 61 22.5 114.5t62.5 93.5t93 62.5t115 22.5q61 0 114 -22.5 t93 -62.5t62.5 -93.5t22.5 -114.5t-22.5 -114.5t-62.5 -93.5t-93 -62.5t-114 -22.5t-114.5 22.5t-93.5 62.5t-62.5 93.5t-22.5 114.5zM295 975h29v172h63l119 -172h37l-121 172h16q47 0 76 24.5t29 75.5q0 43 -29 72t-76 29h-143v-373zM324 1176v143h116q37 0 55.5 -21.5 t18.5 -50.5q0 -72 -74 -71h-116z" />
<glyph unicode="&#xaf;" horiz-adv-x="692" d="M76 1237h557v80h-557v-80z" />
<glyph unicode="&#xb0;" horiz-adv-x="557" d="M106 1176q0 -47 30 -82t106 -35h53q74 0 103.5 34.5t29.5 82.5v71q0 43 -28.5 80t-104.5 37h-53q-78 0 -107 -37t-29 -80v-71zM152 1178v67q0 41 24.5 57.5t65.5 16.5h53q39 0 63.5 -16.5t24.5 -57.5v-67q0 -39 -24.5 -56.5t-63.5 -17.5h-53q-41 0 -65.5 17.5t-24.5 56.5 z" />
<glyph unicode="&#xb1;" horiz-adv-x="882" d="M74 721h295v-295h137v295h295v137h-295v295h-137v-295h-295v-137zM109 221h653v148h-653v-148z" />
<glyph unicode="&#xb2;" horiz-adv-x="882" d="M180 836h522v65h-456v29q0 59 40 88t130 45l57 8q59 10 102 22.5t72 35t43.5 58.5t14.5 91q0 104 -49.5 152.5t-182.5 48.5h-57q-117 0 -174.5 -43t-57.5 -136h72q2 53 34 83t126 30h57q100 0 133 -32.5t33 -102.5q0 -39 -10.5 -63.5t-30.5 -40t-51 -23.5t-74 -14 l-57 -11q-111 -16 -173.5 -57t-62.5 -139v-94z" />
<glyph unicode="&#xb3;" horiz-adv-x="882" d="M188 995q0 -92 47.5 -126.5t139.5 -34.5h106q113 0 168.5 38.5t55.5 147.5q0 72 -25 105.5t-66 41.5q39 10 65 36t26 97q0 92 -51.5 132.5t-172.5 40.5h-106q-92 0 -139.5 -37t-47.5 -121v-27h66v21q0 53 28.5 75.5t92.5 22.5h127q68 0 102.5 -22.5t34.5 -84.5 q0 -59 -36.5 -81.5t-106.5 -22.5h-84v-66h84q37 0 63.5 -3t45 -13t26.5 -32.5t8 -61.5q0 -78 -36 -99.5t-107 -21.5h-121q-63 0 -92 21.5t-29 76.5v17h-66v-19z" />
<glyph unicode="&#xb4;" horiz-adv-x="536" d="M76 1194l53 -51l346 229l-84 101z" />
<glyph unicode="&#xb5;" horiz-adv-x="882" d="M135 709h621v69h-621v-69zM180 -2h522v65h-456v29q0 59 40 88t130 45l57 8q59 10 102 22.5t72 35t43.5 58.5t14.5 91q0 104 -49.5 152.5t-182.5 48.5h-57q-117 0 -174.5 -43t-57.5 -135h72q2 53 34 82.5t126 29.5h57q100 0 133 -32.5t33 -102.5q0 -39 -10.5 -63.5 t-30.5 -39.5t-51 -23.5t-74 -14.5l-57 -10q-111 -16 -173.5 -57.5t-62.5 -139.5v-94zM260 1288l47 -43l158 162v-573h65v639h-88z" />
<glyph unicode="&#xb6;" horiz-adv-x="1265" d="M127 1016q0 -197 126 -301.5t335 -104.5h84v-725h159v1536h-243q-209 0 -335 -104.5t-126 -300.5zM971 -115h149v1536h-149v-1536z" />
<glyph unicode="&#xb7;" horiz-adv-x="466" d="M141 774h187v187h-187v-187z" />
<glyph unicode="&#xb8;" horiz-adv-x="428" d="M76 -176v-125q49 0 98 5t89 24.5t65.5 56.5t25.5 100v113h-133v-82q0 -53 -37 -72.5t-108 -19.5z" />
<glyph unicode="&#xb9;" horiz-adv-x="583" d="M139 1288l47 -43l158 162v-573h66v639h-88z" />
<glyph unicode="&#xba;" horiz-adv-x="595" d="M68 991q0 -102 41 -151t147 -49h68q104 0 146 49t42 151v103q0 104 -42 157.5t-146 53.5h-68q-106 0 -147 -53.5t-41 -157.5v-103zM76 639h438v61h-438v-61zM135 991v103q0 88 25.5 117.5t97.5 29.5h64q72 0 96 -29.5t24 -117.5v-103q0 -82 -26 -108.5t-94 -26.5h-64 q-70 0 -96.5 26.5t-26.5 108.5z" />
<glyph unicode="&#xbb;" horiz-adv-x="1114" d="M164 924l354 -355l-352 -350l67 -69l422 419l-424 422zM528 924l355 -355l-353 -350l68 -69l422 419l-424 422z" />
<glyph unicode="&#xbc;" horiz-adv-x="882" d="M117 709h620v69h-620v-69zM145 135h375v-143h66v143h88v62h-88v434h-70l-371 -434v-62zM227 197l293 350v-350h-293zM242 1288l47 -43l157 162v-573h66v639h-88z" />
<glyph unicode="&#xbd;" horiz-adv-x="882" d="M135 709h621v69h-621v-69zM180 -2h522v65h-456v29q0 59 40 88t130 45l57 8q59 10 102 22.5t72 35t43.5 58.5t14.5 91q0 104 -49.5 152.5t-182.5 48.5h-57q-117 0 -174.5 -43t-57.5 -135h72q2 53 34 82.5t126 29.5h57q100 0 133 -32.5t33 -102.5q0 -39 -10.5 -63.5 t-30.5 -39.5t-51 -23.5t-74 -14.5l-57 -10q-111 -16 -173.5 -57.5t-62.5 -139.5v-94zM260 1288l47 -43l158 162v-573h65v639h-88z" />
<glyph unicode="&#xbe;" horiz-adv-x="882" d="M119 692h616v70h-616v-70zM152 141h374v-143h66v143h88v62h-88v434h-70l-370 -434v-62zM188 995q0 -92 47.5 -126.5t139.5 -34.5h106q113 0 168.5 38.5t55.5 147.5q0 72 -25 105.5t-66 41.5q39 10 65 36t26 97q0 92 -51.5 132.5t-172.5 40.5h-106q-92 0 -139.5 -37 t-47.5 -121v-27h66v21q0 53 28.5 75.5t92.5 22.5h127q68 0 102.5 -22.5t34.5 -84.5q0 -59 -36.5 -81.5t-106.5 -22.5h-84v-66h84q37 0 63.5 -3t45 -13t26.5 -32.5t8 -61.5q0 -78 -36 -99.5t-107 -21.5h-121q-63 0 -92 21.5t-29 76.5v17h-66v-19zM233 203l293 350v-350h-293z " />
<glyph unicode="&#xbf;" horiz-adv-x="1202" d="M84 84q0 -100 20.5 -176t72.5 -127t141.5 -77t226.5 -26h166q125 0 205.5 23t128 72t65.5 125.5t18 183.5h-147q-2 -72 -13.5 -122t-41 -82t-84 -47t-144.5 -15h-153q-94 0 -154.5 15t-96.5 48t-49.5 83t-13.5 122q0 61 15.5 102t45.5 68t76 43t107 31q72 16 126 38.5 t91 56.5t55.5 84t18.5 124v141h-154v-123q0 -66 -34.5 -114t-143.5 -74q-98 -25 -164.5 -51.5t-107.5 -67.5t-59.5 -102.5t-18.5 -155.5zM604 954h156v160h-156v-160z" />
<glyph unicode="&#xc0;" horiz-adv-x="1374" d="M49 0h158l127 342h731l127 -342h154l-533 1421h-233zM354 1702l299 -211l49 49l-274 258zM391 489l303 828h8l304 -828h-615z" />
<glyph unicode="&#xc1;" horiz-adv-x="1374" d="M49 0h158l127 342h731l127 -342h154l-533 1421h-233zM391 489l303 828h8l304 -828h-615zM641 1540l51 -49l297 211l-71 96z" />
<glyph unicode="&#xc2;" horiz-adv-x="1374" d="M49 0h158l127 342h731l127 -342h154l-533 1421h-233zM391 489l303 828h8l304 -828h-615zM393 1495h70l229 139l226 -139h65l-252 258h-76z" />
<glyph unicode="&#xc3;" horiz-adv-x="1374" d="M49 0h158l127 342h731l127 -342h154l-533 1421h-233zM367 1505h102q4 33 23.5 66t62.5 33q33 0 51.5 -11.5t40.5 -31.5q25 -23 56.5 -40.5t93.5 -17.5q45 0 77.5 18.5t55 47t34 63.5t13.5 70h-105q-4 -35 -20 -69t-70 -34q-37 0 -57 18.5t-43 39.5q-23 16 -49.5 32.5 t-71.5 16.5q-47 0 -81 -17.5t-57.5 -45t-36.5 -64.5t-19 -74zM391 489l303 828h8l304 -828h-615z" />
<glyph unicode="&#xc4;" horiz-adv-x="1374" d="M49 0h158l127 342h731l127 -342h154l-533 1421h-233zM391 489l303 828h8l304 -828h-615zM444 1522h142v141h-142v-141zM803 1522h141v141h-141v-141z" />
<glyph unicode="&#xc5;" horiz-adv-x="1374" d="M49 0h158l127 342h731l127 -342h154l-533 1421h-233zM391 489l303 828h8l304 -828h-615zM528 1575q0 -47 30 -82t106 -35h53q74 0 103.5 35t29.5 82v72q0 43 -28.5 79.5t-104.5 36.5h-53q-78 0 -107 -36.5t-29 -79.5v-72zM573 1577v68q0 41 25 57t66 16h53q39 0 63.5 -16 t24.5 -57v-68q0 -39 -24.5 -56.5t-63.5 -17.5h-53q-41 0 -66 17.5t-25 56.5z" />
<glyph unicode="&#xc6;" horiz-adv-x="1806" d="M33 0h157l340 664h293v-664h873v143h-725v521h690v143h-690v471h725v143h-922zM614 807l209 444v-444h-209z" />
<glyph unicode="&#xc7;" horiz-adv-x="1447" d="M115 651q0 -195 26.5 -319.5t91 -197.5t175 -102.5t276.5 -31.5v-104q0 -53 -30.5 -74t-135.5 -21v-137q94 0 157.5 10.5t100.5 36t52.5 70.5t15.5 113v106q135 2 227 27.5t150.5 76t84 125t25.5 172.5h-147q0 -68 -19.5 -115.5t-62.5 -79.5t-113.5 -46.5t-173.5 -14.5 h-94q-143 0 -233.5 17.5t-140.5 71t-67.5 152.5t-17.5 265v131q0 162 19.5 261.5t68.5 153.5t133 72.5t213 18.5h82q119 0 197 -17.5t124 -50t64.5 -80.5t18.5 -108h147q0 205 -133 304.5t-422 99.5h-78q-160 0 -271.5 -29t-180 -102.5t-99 -200.5t-30.5 -324v-129z" />
<glyph unicode="&#xc8;" horiz-adv-x="1173" d="M147 0h916v143h-768v521h733v143h-733v471h768v143h-916v-1421zM377 1702l299 -211l49 49l-274 258z" />
<glyph unicode="&#xc9;" horiz-adv-x="1173" d="M147 0h916v143h-768v521h733v143h-733v471h768v143h-916v-1421zM541 1540l51 -49l297 211l-72 96z" />
<glyph unicode="&#xca;" horiz-adv-x="1173" d="M147 0h916v143h-768v521h733v143h-733v471h768v143h-916v-1421zM309 1493h68l231 139l226 -139h65l-252 256h-76z" />
<glyph unicode="&#xcb;" horiz-adv-x="1173" d="M147 0h916v143h-768v521h733v143h-733v471h768v143h-916v-1421zM383 1522h141v141h-141v-141zM741 1522h142v141h-142v-141z" />
<glyph unicode="&#xcc;" horiz-adv-x="464" d="M-86 1702l297 -211l51 49l-276 258zM162 0h147v1421h-147v-1421z" />
<glyph unicode="&#xcd;" horiz-adv-x="464" d="M162 0h147v1421h-147v-1421zM207 1540l51 -49l297 211l-84 88z" />
<glyph unicode="&#xce;" horiz-adv-x="464" d="M-63 1493h67l229 139l226 -139h67l-254 256h-73zM162 0h147v1421h-147v-1421z" />
<glyph unicode="&#xcf;" horiz-adv-x="464" d="M-20 1522h141v141h-141v-141zM162 0h147v1421h-147v-1421zM340 1522h139v141h-139v-141z" />
<glyph unicode="&#xd0;" horiz-adv-x="1456" d="M37 623h121v-623h653q133 0 228.5 27.5t155.5 96.5t88 183.5t28 288.5v229q0 141 -21.5 253t-77 187.5t-152.5 115.5t-249 40h-653v-649h-121v-149zM305 143v480h385v149h-385v506h506q98 0 164.5 -24.5t108.5 -78t60.5 -140.5t18.5 -210v-229q0 -123 -14 -209t-52 -140 t-106.5 -79t-179.5 -25h-506z" />
<glyph unicode="&#xd1;" horiz-adv-x="1511" d="M145 0h148v1309l872 -1309h213v1421h-147v-1274l-842 1274h-244v-1421zM465 1505h102q4 33 23.5 66t62.5 33q33 0 51.5 -11.5t40.5 -31.5q25 -23 57 -40.5t93 -17.5q45 0 78 18.5t55.5 47t33.5 63.5t13 70h-104q-4 -35 -20.5 -69t-69.5 -34q-37 0 -57.5 18.5t-43.5 39.5 q-23 16 -49 32.5t-72 16.5q-47 0 -80.5 -17.5t-57 -45t-37 -64.5t-19.5 -74z" />
<glyph unicode="&#xd2;" horiz-adv-x="1429" d="M106 567q0 -170 32 -280.5t93.5 -174t152.5 -88t212 -24.5h227q125 0 220.5 24.5t158 88t94 174t31.5 280.5v318q0 147 -27.5 251.5t-88 169t-153.5 94.5t-222 30h-240q-129 0 -221 -30t-152.5 -94.5t-88.5 -169t-28 -251.5v-318zM254 567v318q0 117 18.5 193.5 t59.5 121.5t106.5 63.5t157.5 18.5h231q96 0 164 -18.5t110 -63.5t60.5 -122t18.5 -193v-318q0 -133 -18.5 -215t-60.5 -127t-110.5 -61.5t-167.5 -16.5h-227q-94 0 -158.5 16.5t-105.5 61.5t-59.5 127t-18.5 215zM422 1702l297 -211l51 49l-276 258z" />
<glyph unicode="&#xd3;" horiz-adv-x="1429" d="M106 567q0 -170 32 -280.5t93.5 -174t152.5 -88t212 -24.5h227q125 0 220.5 24.5t158 88t94 174t31.5 280.5v318q0 147 -27.5 251.5t-88 169t-153.5 94.5t-222 30h-240q-129 0 -221 -30t-152.5 -94.5t-88.5 -169t-28 -251.5v-318zM254 567v318q0 117 18.5 193.5 t59.5 121.5t106.5 63.5t157.5 18.5h231q96 0 164 -18.5t110 -63.5t60.5 -122t18.5 -193v-318q0 -133 -18.5 -215t-60.5 -127t-110.5 -61.5t-167.5 -16.5h-227q-94 0 -158.5 16.5t-105.5 61.5t-59.5 127t-18.5 215zM641 1540l51 -49l297 211l-84 88z" />
<glyph unicode="&#xd4;" horiz-adv-x="1429" d="M106 567q0 -170 32 -280.5t93.5 -174t152.5 -88t212 -24.5h227q125 0 220.5 24.5t158 88t94 174t31.5 280.5v318q0 147 -27.5 251.5t-88 169t-153.5 94.5t-222 30h-240q-129 0 -221 -30t-152.5 -94.5t-88.5 -169t-28 -251.5v-318zM254 567v318q0 117 18.5 193.5 t59.5 121.5t106.5 63.5t157.5 18.5h231q96 0 164 -18.5t110 -63.5t60.5 -122t18.5 -193v-318q0 -133 -18.5 -215t-60.5 -127t-110.5 -61.5t-167.5 -16.5h-227q-94 0 -158.5 16.5t-105.5 61.5t-59.5 127t-18.5 215zM406 1493h67l229 139l226 -139h67l-254 256h-73z" />
<glyph unicode="&#xd5;" horiz-adv-x="1429" d="M106 567q0 -170 32 -280.5t93.5 -174t152.5 -88t212 -24.5h227q125 0 220.5 24.5t158 88t94 174t31.5 280.5v318q0 147 -27.5 251.5t-88 169t-153.5 94.5t-222 30h-240q-129 0 -221 -30t-152.5 -94.5t-88.5 -169t-28 -251.5v-318zM254 567v318q0 117 18.5 193.5 t59.5 121.5t106.5 63.5t157.5 18.5h231q96 0 164 -18.5t110 -63.5t60.5 -122t18.5 -193v-318q0 -133 -18.5 -215t-60.5 -127t-110.5 -61.5t-167.5 -16.5h-227q-94 0 -158.5 16.5t-105.5 61.5t-59.5 127t-18.5 215zM416 1505h102q4 33 23.5 66t62.5 33q33 0 51.5 -11.5 t40.5 -31.5q25 -23 56.5 -40.5t93.5 -17.5q45 0 77.5 18.5t55 47t34 63.5t13.5 70h-104q-4 -35 -20.5 -69t-70.5 -34q-37 0 -57 18.5t-43 39.5q-23 16 -49.5 32.5t-71.5 16.5q-47 0 -80.5 -17.5t-57 -45t-37 -64.5t-19.5 -74z" />
<glyph unicode="&#xd6;" horiz-adv-x="1429" d="M106 567q0 -170 32 -280.5t93.5 -174t152.5 -88t212 -24.5h227q125 0 220.5 24.5t158 88t94 174t31.5 280.5v318q0 147 -27.5 251.5t-88 169t-153.5 94.5t-222 30h-240q-129 0 -221 -30t-152.5 -94.5t-88.5 -169t-28 -251.5v-318zM254 567v318q0 117 18.5 193.5 t59.5 121.5t106.5 63.5t157.5 18.5h231q96 0 164 -18.5t110 -63.5t60.5 -122t18.5 -193v-318q0 -133 -18.5 -215t-60.5 -127t-110.5 -61.5t-167.5 -16.5h-227q-94 0 -158.5 16.5t-105.5 61.5t-59.5 127t-18.5 215zM463 1522h139v141h-139v-141zM821 1522h142v141h-142v-141z " />
<glyph unicode="&#xd7;" horiz-adv-x="1056" d="M90 86l121 -86l324 428l325 -428l121 86l-346 461l287 377l-117 88l-270 -363l-273 363l-115 -88l287 -379z" />
<glyph unicode="&#xd8;" horiz-adv-x="1429" d="M106 567q0 -213 48.5 -332.5t144.5 -173.5l-106 -225h153l84 178q37 -8 79 -11t87 -3h227q125 0 220.5 24.5t158 88t94 174t31.5 280.5v318q0 213 -57.5 333.5t-182.5 170.5l93 192h-154l-76 -158q-53 6 -114 7h-240q-129 0 -221 -30t-152.5 -94.5t-88.5 -169t-28 -251.5 v-318zM254 567v318q0 117 18.5 193.5t59.5 121.5t106.5 63.5t157.5 18.5h231h29q12 0 27 -2l-518 -1083q-59 41 -85 128t-26 242zM498 152l526 1101q84 -35 120 -120.5t36 -247.5v-318q0 -133 -18.5 -215t-60.5 -127t-110.5 -61.5t-167.5 -16.5h-227q-29 0 -52 1.5t-46 3.5z " />
<glyph unicode="&#xd9;" horiz-adv-x="1347" d="M129 432q0 -117 29.5 -199.5t85 -134t135.5 -75t182 -23.5h234q106 0 188 22.5t137.5 73.5t84 134t28.5 206v985h-148v-991q0 -78 -13 -133t-47 -89t-89 -49.5t-141 -15.5h-234q-147 0 -216 64.5t-69 222.5v991h-147v-989zM401 1702l297 -211l52 49l-277 258z" />
<glyph unicode="&#xda;" horiz-adv-x="1347" d="M129 432q0 -117 29.5 -199.5t85 -134t135.5 -75t182 -23.5h234q106 0 188 22.5t137.5 73.5t84 134t28.5 206v985h-148v-991q0 -78 -13 -133t-47 -89t-89 -49.5t-141 -15.5h-234q-147 0 -216 64.5t-69 222.5v991h-147v-989zM643 1540l51 -49l297 211l-84 88z" />
<glyph unicode="&#xdb;" horiz-adv-x="1347" d="M129 432q0 -117 29.5 -199.5t85 -134t135.5 -75t182 -23.5h234q106 0 188 22.5t137.5 73.5t84 134t28.5 206v985h-148v-991q0 -78 -13 -133t-47 -89t-89 -49.5t-141 -15.5h-234q-147 0 -216 64.5t-69 222.5v991h-147v-989zM391 1493h68l231 139l225 -139h66l-252 256h-76 z" />
<glyph unicode="&#xdc;" horiz-adv-x="1429" d="M129 432q0 -117 29.5 -199.5t85 -134t135.5 -75t182 -23.5h234q106 0 188 22.5t137.5 73.5t84 134t28.5 206v985h-148v-991q0 -78 -13 -133t-47 -89t-89 -49.5t-141 -15.5h-234q-147 0 -216 64.5t-69 222.5v991h-147v-989zM432 1522h141v141h-141v-141zM793 1522h141v141 h-141v-141z" />
<glyph unicode="&#xdd;" horiz-adv-x="1155" d="M37 1421l471 -759v-662h147v662l473 759h-159l-387 -630l-385 630h-160zM541 1540l51 -49l297 211l-72 96z" />
<glyph unicode="&#xde;" horiz-adv-x="1243" d="M135 0h158v322h475q90 0 163 17t123 63.5t77.5 123t27.5 197.5q0 119 -27.5 197.5t-77.5 126t-124 67t-166 19.5h-471v288h-158v-1421zM293 465v524h471q129 0 188.5 -60.5t59.5 -201.5q0 -150 -59.5 -206t-188.5 -56h-471z" />
<glyph unicode="&#xdf;" horiz-adv-x="1273" d="M55 901h80v-901h148v1057q0 123 51 177t176 54h147q119 0 167 -54t48 -163q0 -68 -18 -109.5t-54 -64.5t-88.5 -31t-117.5 -8v-123q106 0 194.5 -7t152 -38t97 -90t33.5 -164q0 -88 -16.5 -145.5t-51 -91t-93 -47t-140.5 -13.5h-242v-139h254q104 0 183 20.5t133.5 69.5 t81 133t26.5 213q0 98 -23.5 169t-64.5 118t-98 71.5t-125 30.5q72 18 98.5 83t26.5 163q0 354 -363 354h-161q-180 0 -270.5 -95t-90.5 -265v-53h-80v-111z" />
<glyph unicode="&#xe0;" horiz-adv-x="1097" d="M90 285q0 -139 85 -212t245 -73h153q72 0 118 9t75 21.5t42 28t19 27.5v-86h146v743q0 119 -82 194t-250 75h-213q-168 0 -240.5 -66.5t-72.5 -179.5v-16h147v16q0 66 41 94.5t133 28.5h201q94 0 141 -37t47 -129v-191q-16 18 -35.5 34t-49 28t-70.5 18t-103 6h-157 q-160 0 -240 -76.5t-80 -205.5v-51zM188 1372l347 -229l55 51l-318 279zM231 309q0 96 48.5 140.5t169.5 44.5h143q70 0 115 -12.5t70.5 -36t35.5 -58.5t10 -78q0 -90 -48 -137t-167 -47h-157q-123 0 -171.5 44t-48.5 140z" />
<glyph unicode="&#xe1;" horiz-adv-x="1097" d="M90 285q0 -139 85 -212t245 -73h153q72 0 118 9t75 21.5t42 28t19 27.5v-86h146v743q0 119 -82 194t-250 75h-213q-168 0 -240.5 -66.5t-72.5 -179.5v-16h147v16q0 66 41 94.5t133 28.5h201q94 0 141 -37t47 -129v-191q-16 18 -35.5 34t-49 28t-70.5 18t-103 6h-157 q-160 0 -240 -76.5t-80 -205.5v-51zM231 309q0 96 48.5 140.5t169.5 44.5h143q70 0 115 -12.5t70.5 -36t35.5 -58.5t10 -78q0 -90 -48 -137t-167 -47h-157q-123 0 -171.5 44t-48.5 140zM477 1194l55 -51l347 229l-84 101z" />
<glyph unicode="&#xe2;" horiz-adv-x="1097" d="M90 285q0 -139 85 -212t245 -73h153q72 0 118 9t75 21.5t42 28t19 27.5v-86h146v743q0 119 -82 194t-250 75h-213q-168 0 -240.5 -66.5t-72.5 -179.5v-16h147v16q0 66 41 94.5t133 28.5h201q94 0 141 -37t47 -129v-191q-16 18 -35.5 34t-49 28t-70.5 18t-103 6h-157 q-160 0 -240 -76.5t-80 -205.5v-51zM203 1153h76l256 156l249 -156h74l-283 287h-81zM231 309q0 96 48.5 140.5t169.5 44.5h143q70 0 115 -12.5t70.5 -36t35.5 -58.5t10 -78q0 -90 -48 -137t-167 -47h-157q-123 0 -171.5 44t-48.5 140z" />
<glyph unicode="&#xe3;" horiz-adv-x="1097" d="M90 285q0 -139 85 -212t245 -73h153q72 0 118 9t75 21.5t42 28t19 27.5v-86h146v743q0 119 -82 194t-250 75h-213q-168 0 -240.5 -66.5t-72.5 -179.5v-16h147v16q0 66 41 94.5t133 28.5h201q94 0 141 -37t47 -129v-191q-16 18 -35.5 34t-49 28t-70.5 18t-103 6h-157 q-160 0 -240 -76.5t-80 -205.5v-51zM223 1198h109q4 35 24.5 68.5t65.5 33.5q35 0 54.5 -11t41.5 -34q27 -25 59.5 -43t98.5 -18q47 0 82 19.5t58.5 50t35.5 67.5t14 72h-110q-2 -18 -6.5 -36.5t-14.5 -34t-27.5 -26t-45.5 -10.5q-39 0 -61.5 19.5t-45.5 40.5 q-23 18 -51.5 35.5t-75.5 17.5q-49 0 -85 -18.5t-60.5 -48t-39 -67.5t-20.5 -77zM231 309q0 96 48.5 140.5t169.5 44.5h143q70 0 115 -12.5t70.5 -36t35.5 -58.5t10 -78q0 -90 -48 -137t-167 -47h-157q-123 0 -171.5 44t-48.5 140z" />
<glyph unicode="&#xe4;" horiz-adv-x="1097" d="M90 285q0 -139 85 -212t245 -73h153q72 0 118 9t75 21.5t42 28t19 27.5v-86h146v743q0 119 -82 194t-250 75h-213q-168 0 -240.5 -66.5t-72.5 -179.5v-16h147v16q0 66 41 94.5t133 28.5h201q94 0 141 -37t47 -129v-191q-16 18 -35.5 34t-49 28t-70.5 18t-103 6h-157 q-160 0 -240 -76.5t-80 -205.5v-51zM231 309q0 96 48.5 140.5t169.5 44.5h143q70 0 115 -12.5t70.5 -36t35.5 -58.5t10 -78q0 -90 -48 -137t-167 -47h-157q-123 0 -171.5 44t-48.5 140zM270 1274h148v147h-148v-147zM635 1274h147v147h-147v-147z" />
<glyph unicode="&#xe5;" horiz-adv-x="1097" d="M90 285q0 -139 85 -212t245 -73h153q72 0 118 9t75 21.5t42 28t19 27.5v-86h146v743q0 119 -82 194t-250 75h-213q-168 0 -240.5 -66.5t-72.5 -179.5v-16h147v16q0 66 41 94.5t133 28.5h201q94 0 141 -37t47 -129v-191q-16 18 -35.5 34t-49 28t-70.5 18t-103 6h-157 q-160 0 -240 -76.5t-80 -205.5v-51zM231 309q0 96 48.5 140.5t169.5 44.5h143q70 0 115 -12.5t70.5 -36t35.5 -58.5t10 -78q0 -90 -48 -137t-167 -47h-157q-123 0 -171.5 44t-48.5 140zM362 1262q0 -47 30 -82t106 -35h53q74 0 103.5 34.5t29.5 82.5v71q0 43 -28.5 80 t-104.5 37h-53q-78 0 -107 -37t-29 -80v-71zM408 1264v67q0 41 24.5 57.5t65.5 16.5h53q39 0 63.5 -16.5t24.5 -57.5v-67q0 -39 -24.5 -56.5t-63.5 -17.5h-53q-41 0 -65.5 17.5t-24.5 56.5z" />
<glyph unicode="&#xe6;" horiz-adv-x="1810" d="M90 285q0 -139 85 -212t245 -73h153q72 0 118 9t75 21.5t42 28t19 27.5v-86h146v53q45 -31 104.5 -43t130.5 -12h131q82 0 152 14.5t121 47t80.5 87t29.5 132.5v43h-137v-31q0 -84 -53 -126t-189 -42h-131q-125 0 -181 55t-56 178v119h747v193q0 164 -95 256t-288 92 h-131q-195 0 -286 -113q-39 51 -109 80t-172 29h-213q-168 0 -240.5 -66.5t-72.5 -179.5v-16h147v16q0 66 41 94.5t133 28.5h201q94 0 141 -37t47 -129v-191q-16 18 -35.5 34t-49 28t-70.5 18t-103 6h-157q-160 0 -240 -76.5t-80 -205.5v-51zM231 309q0 96 48.5 140.5 t169.5 44.5h143q70 0 115 -12.5t70.5 -36t35.5 -58.5t10 -78q0 -90 -48 -137t-167 -47h-157q-123 0 -171.5 44t-48.5 140zM975 600q0 80 10 134t37 89t73 50.5t117 15.5h131q82 0 130.5 -16.5t73 -51.5t31.5 -89t7 -132h-610z" />
<glyph unicode="&#xe7;" horiz-adv-x="1120" d="M119 438q0 -127 23.5 -212t71.5 -135t118.5 -71.5t165.5 -21.5v-117q0 -45 -30 -57t-116 -12v-113q88 0 143.5 8t86 27.5t41 52.5t10.5 82v129q115 0 187.5 27.5t113.5 74.5t55.5 108.5t14.5 131.5v51h-138v-31q0 -72 -11 -117.5t-40 -72.5t-78 -37t-127 -10h-114 q-63 0 -108.5 14.5t-75 52t-44 103t-14.5 166.5v90q0 100 12.5 165.5t41 104.5t78.5 54.5t126 15.5h106q139 0 193.5 -43t54.5 -141v-48h138v31q0 90 -27 152.5t-77 101.5t-122.5 56.5t-163.5 17.5h-98q-102 0 -177 -21.5t-124 -73t-72.5 -136.5t-23.5 -212v-135z" />
<glyph unicode="&#xe8;" horiz-adv-x="1120" d="M119 418q0 -123 23.5 -204t70.5 -129t115.5 -67.5t158.5 -19.5h131q82 0 152 14.5t121 47t80.5 87t29.5 132.5v43h-137v-31q0 -84 -53 -126t-188 -42h-131q-125 0 -181.5 55t-56.5 178v119h747v193q0 164 -95 256t-288 92h-131q-186 0 -277 -100.5t-91 -321.5v-176z M219 1372l346 -229l53 51l-315 279zM254 600q0 80 10 134t37 89t73 50.5t118 15.5h131q82 0 130 -16.5t72.5 -51.5t31.5 -89t7 -132h-610z" />
<glyph unicode="&#xe9;" horiz-adv-x="1120" d="M119 418q0 -123 23.5 -204t70.5 -129t115.5 -67.5t158.5 -19.5h131q82 0 152 14.5t121 47t80.5 87t29.5 132.5v43h-137v-31q0 -84 -53 -126t-188 -42h-131q-125 0 -181.5 55t-56.5 178v119h747v193q0 164 -95 256t-288 92h-131q-186 0 -277 -100.5t-91 -321.5v-176z M254 600q0 80 10 134t37 89t73 50.5t118 15.5h131q82 0 130 -16.5t72.5 -51.5t31.5 -89t7 -132h-610zM487 1194l54 -51l346 229l-84 101z" />
<glyph unicode="&#xea;" horiz-adv-x="1120" d="M119 418q0 -123 23.5 -204t70.5 -129t115.5 -67.5t158.5 -19.5h131q82 0 152 14.5t121 47t80.5 87t29.5 132.5v43h-137v-31q0 -84 -53 -126t-188 -42h-131q-125 0 -181.5 55t-56.5 178v119h747v193q0 164 -95 256t-288 92h-131q-186 0 -277 -100.5t-91 -321.5v-176z M217 1153h74l258 156l250 -156h73l-282 287h-82zM254 600q0 80 10 134t37 89t73 50.5t118 15.5h131q82 0 130 -16.5t72.5 -51.5t31.5 -89t7 -132h-610z" />
<glyph unicode="&#xeb;" horiz-adv-x="1120" d="M119 418q0 -123 23.5 -204t70.5 -129t115.5 -67.5t158.5 -19.5h131q82 0 152 14.5t121 47t80.5 87t29.5 132.5v43h-137v-31q0 -84 -53 -126t-188 -42h-131q-125 0 -181.5 55t-56.5 178v119h747v193q0 164 -95 256t-288 92h-131q-186 0 -277 -100.5t-91 -321.5v-176z M254 600q0 80 10 134t37 89t73 50.5t118 15.5h131q82 0 130 -16.5t72.5 -51.5t31.5 -89t7 -132h-610zM303 1274h148v147h-148v-147zM668 1274h147v147h-147v-147z" />
<glyph unicode="&#xec;" horiz-adv-x="446" d="M-137 1372l346 -229l55 51l-317 279zM156 0h147v1012h-147v-1012z" />
<glyph unicode="&#xed;" horiz-adv-x="446" d="M156 0h147v1012h-147v-1012zM178 1194l53 -51l347 229l-84 101z" />
<glyph unicode="&#xee;" horiz-adv-x="446" d="M-98 1153h75l256 156l252 -156h72l-283 287h-81zM156 0h147v1012h-147v-1012z" />
<glyph unicode="&#xef;" horiz-adv-x="446" d="M-20 1274h147v147h-147v-147zM156 0h147v1012h-147v-1012zM344 1274h148v147h-148v-147z" />
<glyph unicode="&#xf0;" horiz-adv-x="1056" d="M88 395q0 -100 19.5 -175t63.5 -124t115.5 -73.5t178.5 -24.5h131q104 0 176 24.5t116 73.5t63.5 124t19.5 175v551q0 104 -49.5 215t-139.5 193l119 119l-94 96l-137 -137q-94 53 -209 53h-101v-125h101q57 0 112 -25l-112 -112l94 -97l133 134q63 -59 103 -141.5 t45 -164.5q-86 61 -240 62h-131q-104 0 -177 -26.5t-117 -79t-63.5 -131.5t-19.5 -181v-203zM223 395v203q0 86 11.5 142.5t39 89t75.5 46t120 13.5h123q70 0 117 -13.5t75.5 -46t40 -89t11.5 -142.5v-203q0 -80 -12.5 -132t-41 -82.5t-75.5 -43t-115 -12.5h-123 q-70 0 -117 12.5t-75.5 43t-41 82.5t-12.5 132z" />
<glyph unicode="&#xf1;" horiz-adv-x="1191" d="M125 0h147v614q0 129 69 204t212 75h100q156 0 219.5 -68.5t63.5 -210.5v-614h147v614q0 190 -99.5 294t-330.5 104h-104q-113 0 -180.5 -41t-96.5 -94v135h-147v-1012zM281 1198h108q4 35 24.5 68.5t65.5 33.5q35 0 54.5 -11t41.5 -34q27 -25 60 -43t98 -18 q47 0 82 19.5t58.5 50t36 67.5t14.5 72h-111q-2 -18 -6 -36.5t-14.5 -34t-27.5 -26t-46 -10.5q-39 0 -61.5 19.5t-45.5 40.5q-23 18 -51.5 35.5t-75.5 17.5q-49 0 -84.5 -18.5t-60.5 -48t-39 -67.5t-20 -77z" />
<glyph unicode="&#xf2;" horiz-adv-x="1056" d="M88 395q0 -100 19.5 -175t63.5 -124t115.5 -73.5t178.5 -24.5h131q104 0 176 24.5t116 73.5t63.5 124t19.5 175v203q0 102 -19.5 181t-63.5 131.5t-116 79t-176 26.5h-131q-104 0 -177 -26.5t-117 -79t-63.5 -131.5t-19.5 -181v-203zM190 1372l347 -229l55 51l-318 279z M223 395v203q0 86 11.5 142.5t39 89t75.5 46t120 13.5h123q70 0 117 -13.5t75.5 -46t40 -89t11.5 -142.5v-203q0 -80 -12.5 -132t-41 -82.5t-75.5 -43t-115 -12.5h-123q-70 0 -117 12.5t-75.5 43t-41 82.5t-12.5 132z" />
<glyph unicode="&#xf3;" horiz-adv-x="1056" d="M88 395q0 -100 19.5 -175t63.5 -124t115.5 -73.5t178.5 -24.5h131q104 0 176 24.5t116 73.5t63.5 124t19.5 175v203q0 102 -19.5 181t-63.5 131.5t-116 79t-176 26.5h-131q-104 0 -177 -26.5t-117 -79t-63.5 -131.5t-19.5 -181v-203zM223 395v203q0 86 11.5 142.5t39 89 t75.5 46t120 13.5h123q70 0 117 -13.5t75.5 -46t40 -89t11.5 -142.5v-203q0 -80 -12.5 -132t-41 -82.5t-75.5 -43t-115 -12.5h-123q-70 0 -117 12.5t-75.5 43t-41 82.5t-12.5 132zM459 1194l55 -51l346 229l-84 101z" />
<glyph unicode="&#xf4;" horiz-adv-x="1056" d="M88 395q0 -100 19.5 -175t63.5 -124t115.5 -73.5t178.5 -24.5h131q104 0 176 24.5t116 73.5t63.5 124t19.5 175v203q0 102 -19.5 181t-63.5 131.5t-116 79t-176 26.5h-131q-104 0 -177 -26.5t-117 -79t-63.5 -131.5t-19.5 -181v-203zM199 1153h73l258 156l250 -156h74 l-283 287h-82zM223 395v203q0 86 11.5 142.5t39 89t75.5 46t120 13.5h123q70 0 117 -13.5t75.5 -46t40 -89t11.5 -142.5v-203q0 -80 -12.5 -132t-41 -82.5t-75.5 -43t-115 -12.5h-123q-70 0 -117 12.5t-75.5 43t-41 82.5t-12.5 132z" />
<glyph unicode="&#xf5;" horiz-adv-x="1056" d="M88 395q0 -100 19.5 -175t63.5 -124t115.5 -73.5t178.5 -24.5h131q104 0 176 24.5t116 73.5t63.5 124t19.5 175v203q0 102 -19.5 181t-63.5 131.5t-116 79t-176 26.5h-131q-104 0 -177 -26.5t-117 -79t-63.5 -131.5t-19.5 -181v-203zM201 1198h108q4 35 24.5 68.5 t65.5 33.5q35 0 54.5 -11t42.5 -34q27 -25 59.5 -43t97.5 -18q47 0 82 19.5t58.5 50t36 67.5t14.5 72h-111q-2 -18 -6 -36.5t-14.5 -34t-27.5 -26t-46 -10.5q-39 0 -61.5 19.5t-45.5 40.5q-23 18 -51 35.5t-75 17.5q-49 0 -85 -18.5t-60.5 -48t-39 -67.5t-20.5 -77zM223 395 v203q0 86 11.5 142.5t39 89t75.5 46t120 13.5h123q70 0 117 -13.5t75.5 -46t40 -89t11.5 -142.5v-203q0 -80 -12.5 -132t-41 -82.5t-75.5 -43t-115 -12.5h-123q-70 0 -117 12.5t-75.5 43t-41 82.5t-12.5 132z" />
<glyph unicode="&#xf6;" horiz-adv-x="1056" d="M88 395q0 -100 19.5 -175t63.5 -124t115.5 -73.5t178.5 -24.5h131q104 0 176 24.5t116 73.5t63.5 124t19.5 175v203q0 102 -19.5 181t-63.5 131.5t-116 79t-176 26.5h-131q-104 0 -177 -26.5t-117 -79t-63.5 -131.5t-19.5 -181v-203zM223 395v203q0 86 11.5 142.5t39 89 t75.5 46t120 13.5h123q70 0 117 -13.5t75.5 -46t40 -89t11.5 -142.5v-203q0 -80 -12.5 -132t-41 -82.5t-75.5 -43t-115 -12.5h-123q-70 0 -117 12.5t-75.5 43t-41 82.5t-12.5 132zM274 1274h150v147h-150v-147zM639 1274h147v147h-147v-147z" />
<glyph unicode="&#xf7;" horiz-adv-x="886" d="M119 520h653v150h-653v-150zM375 182h160v160h-160v-160zM375 846h160v160h-160v-160z" />
<glyph unicode="&#xf8;" horiz-adv-x="1056" d="M88 395q0 -129 32 -215t107 -131l-59 -123h121l39 84q57 -12 137 -12h131q104 0 176 24.5t116 73.5t63.5 124t19.5 175v203q0 147 -41 243.5t-139 139.5l67 143h-121l-55 -114q-41 6 -86 6h-131q-104 0 -177 -26.5t-117 -79t-63.5 -131.5t-19.5 -181v-203zM223 395v203 q0 86 11.5 142.5t39 89t75.5 46t120 13.5h123h33l-340 -717q-61 55 -62 223zM385 131l350 735q57 -27 79 -89t22 -179v-203q0 -80 -12.5 -132t-41 -82.5t-76 -43t-114.5 -12.5h-123q-47 0 -84 6z" />
<glyph unicode="&#xf9;" horiz-adv-x="1210" d="M139 395q0 -201 92.5 -299t317.5 -98h92q68 0 115 11t80.5 27.5t55 38t38.5 42.5v-117h143v1012h-147v-627q0 -127 -75 -188.5t-216 -61.5h-88q-145 0 -202.5 58.5t-57.5 191.5v627h-148v-617zM238 1372l344 -229l55 51l-315 279z" />
<glyph unicode="&#xfa;" horiz-adv-x="1210" d="M139 395q0 -201 92.5 -299t317.5 -98h92q68 0 115 11t80.5 27.5t55 38t38.5 42.5v-117h143v1012h-147v-627q0 -127 -75 -188.5t-216 -61.5h-88q-145 0 -202.5 58.5t-57.5 191.5v627h-148v-617zM539 1194l55 -51l346 229l-84 101z" />
<glyph unicode="&#xfb;" horiz-adv-x="1210" d="M139 395q0 -201 92.5 -299t317.5 -98h92q68 0 115 11t80.5 27.5t55 38t38.5 42.5v-117h143v1012h-147v-627q0 -127 -75 -188.5t-216 -61.5h-88q-145 0 -202.5 58.5t-57.5 191.5v627h-148v-617zM274 1153h76l258 156l250 -156h72l-281 287h-82z" />
<glyph unicode="&#xfc;" horiz-adv-x="1210" d="M139 395q0 -201 92.5 -299t317.5 -98h92q68 0 115 11t80.5 27.5t55 38t38.5 42.5v-117h143v1012h-147v-627q0 -127 -75 -188.5t-216 -61.5h-88q-145 0 -202.5 58.5t-57.5 191.5v627h-148v-617zM346 1274h148v147h-148v-147zM711 1274h147v147h-147v-147z" />
<glyph unicode="&#xfd;" horiz-adv-x="1003" d="M23 -305v-127q197 0 349 124t240 361l355 959h-152l-309 -822l-307 822h-156l379 -1014h12q-18 -53 -58 -107.5t-94.5 -97.5t-121 -70.5t-137.5 -27.5zM455 1194l53 -51l346 229l-84 101z" />
<glyph unicode="&#xfe;" horiz-adv-x="1173" d="M119 -410h147v533q14 -27 36 -49.5t55.5 -39t80.5 -25.5t115 -9h119q221 0 319.5 111.5t98.5 326.5v140q0 209 -96.5 324.5t-317.5 115.5h-119q-76 0 -124 -10.5t-79.5 -26.5t-51 -35.5t-36.5 -40.5v516h-147v-1831zM262 438v127q0 172 72 250t219 78h106 q137 0 210 -70.5t73 -249.5v-135q0 -162 -68.5 -236.5t-226.5 -74.5h-98q-86 0 -141.5 21.5t-88 61.5t-45 98t-12.5 130z" />
<glyph unicode="&#xff;" horiz-adv-x="1003" d="M23 -305v-127q197 0 349 124t240 361l355 959h-152l-309 -822l-307 822h-156l379 -1014h12q-18 -53 -58 -107.5t-94.5 -97.5t-121 -70.5t-137.5 -27.5zM246 1274h147v147h-147v-147zM610 1274h148v147h-148v-147z" />
<glyph unicode="&#x152;" horiz-adv-x="2193" d="M106 567q0 -170 32 -280.5t93.5 -174t152.5 -88t212 -24.5h227q113 0 199 19.5t149 66.5v-86h928v147h-768v512h733v148h-733v467h768v147h-928v-80q-59 47 -142 68t-193 21h-240q-129 0 -221 -30t-152.5 -94.5t-88.5 -169t-28 -251.5v-318zM254 567v318 q0 117 18.5 193.5t59.5 121.5t106.5 63.5t157.5 18.5h231q96 0 164 -18.5t110 -63.5t60.5 -122t18.5 -193v-318q0 -133 -18.5 -215t-60.5 -127t-110.5 -61.5t-167.5 -16.5h-227q-94 0 -158.5 16.5t-105.5 61.5t-59.5 127t-18.5 215z" />
<glyph unicode="&#x153;" horiz-adv-x="1826" d="M88 395q0 -100 19.5 -175t63.5 -124t115.5 -73.5t178.5 -24.5h131q119 0 193.5 30.5t115.5 90.5q45 -68 121 -94.5t180 -26.5h131q82 0 152 14.5t121 47t80.5 87t29.5 132.5v43h-137v-31q0 -84 -53 -126t-189 -42h-131q-125 0 -181 55t-56 178v119h747v193q0 164 -95 256 t-288 92h-131q-213 0 -299 -131q-43 66 -118.5 98.5t-192.5 32.5h-131q-104 0 -177 -26.5t-117 -79t-63.5 -131.5t-19.5 -181v-203zM223 395v203q0 86 11.5 142.5t39 89t75.5 46t120 13.5h123q70 0 117 -13.5t75.5 -46t40 -89t11.5 -142.5v-203q0 -80 -12.5 -132t-41 -82.5 t-75.5 -43t-115 -12.5h-123q-70 0 -117 12.5t-75.5 43t-41 82.5t-12.5 132zM973 600q0 80 10 134t37 89t73 50.5t117 15.5h131q82 0 130.5 -16.5t73 -51.5t31.5 -89t7 -132h-610z" />
<glyph unicode="&#x178;" horiz-adv-x="1155" d="M37 1421l471 -759v-662h147v662l473 759h-159l-387 -630l-385 630h-160zM326 1522h141v141h-141v-141zM684 1522h141v141h-141v-141z" />
<glyph unicode="&#x2c6;" horiz-adv-x="837" d="M98 1153h74l258 156l250 -156h74l-283 287h-82z" />
<glyph unicode="&#x2dc;" horiz-adv-x="763" d="M76 1198h108q4 35 24.5 68.5t65.5 33.5q35 0 54.5 -11t42.5 -34q27 -25 59.5 -43t97.5 -18q47 0 82 19.5t58.5 50t36 67.5t14.5 72h-111q-4 -35 -20.5 -66.5t-73.5 -31.5q-39 0 -61.5 15t-44.5 36q-23 18 -51.5 35.5t-75.5 17.5q-49 0 -85 -18.5t-60.5 -48t-39 -67.5 t-20.5 -77z" />
<glyph unicode="&#x2000;" horiz-adv-x="899" />
<glyph unicode="&#x2001;" horiz-adv-x="1798" />
<glyph unicode="&#x2002;" horiz-adv-x="899" />
<glyph unicode="&#x2003;" horiz-adv-x="1798" />
<glyph unicode="&#x2004;" horiz-adv-x="599" />
<glyph unicode="&#x2005;" horiz-adv-x="449" />
<glyph unicode="&#x2006;" horiz-adv-x="299" />
<glyph unicode="&#x2007;" horiz-adv-x="299" />
<glyph unicode="&#x2008;" horiz-adv-x="224" />
<glyph unicode="&#x2009;" horiz-adv-x="359" />
<glyph unicode="&#x200a;" horiz-adv-x="99" />
<glyph unicode="&#x2010;" horiz-adv-x="876" d="M109 520h653v150h-653v-150z" />
<glyph unicode="&#x2011;" horiz-adv-x="876" d="M109 520h653v150h-653v-150z" />
<glyph unicode="&#x2012;" horiz-adv-x="876" d="M109 520h653v150h-653v-150z" />
<glyph unicode="&#x2013;" horiz-adv-x="1171" d="M109 520h938v150h-938v-150z" />
<glyph unicode="&#x2014;" horiz-adv-x="1933" d="M188 520h1565v150h-1565v-150z" />
<glyph unicode="&#x2018;" horiz-adv-x="374" d="M111 1118h159v158h-86v104q0 37 13.5 60.5t46.5 52.5h-76q-25 -16 -41 -46t-16 -67v-262z" />
<glyph unicode="&#x2019;" horiz-adv-x="374" d="M111 1264h86v-105q0 -37 -13.5 -60.5t-46.5 -51.5h76q25 16 41 45.5t16 66.5v262h-159v-157z" />
<glyph unicode="&#x201a;" horiz-adv-x="374" d="M121 154h86v-105q0 -37 -13.5 -60.5t-46.5 -51.5h76q25 16 41.5 45.5t16.5 66.5v262h-160v-157z" />
<glyph unicode="&#x201c;" horiz-adv-x="632" d="M119 1118h160v158h-86v104q0 37 13 60.5t46 52.5h-76q-25 -16 -41 -46t-16 -67v-262zM369 1118h159v158h-86v104q0 37 13.5 60.5t46.5 52.5h-76q-25 -16 -41 -46t-16 -67v-262z" />
<glyph unicode="&#x201d;" horiz-adv-x="618" d="M121 1264h86v-105q0 -37 -13.5 -60.5t-46.5 -51.5h76q25 16 41.5 45.5t16.5 66.5v262h-160v-157zM371 1264h86v-105q0 -37 -13.5 -60.5t-46.5 -51.5h76q25 16 41 45.5t16 66.5v262h-159v-157z" />
<glyph unicode="&#x201e;" horiz-adv-x="647" d="M121 154h86v-105q0 -37 -13.5 -60.5t-46.5 -51.5h76q25 16 41.5 45.5t16.5 66.5v262h-160v-157zM371 154h86v-105q0 -37 -13.5 -60.5t-46.5 -51.5h76q25 16 41 45.5t16 66.5v262h-159v-157z" />
<glyph unicode="&#x2022;" horiz-adv-x="956" d="M145 557q0 -70 27 -131t73 -107.5t107.5 -73t130.5 -26.5q70 0 131.5 26.5t107.5 73t72.5 107.5t26.5 131t-26.5 131.5t-72.5 107.5t-107.5 72.5t-131.5 26.5t-131 -26.5t-107 -72.5t-73 -107.5t-27 -131.5z" />
<glyph unicode="&#x2026;" horiz-adv-x="1632" d="M186 0h160v160h-160v-160zM731 0h160v160h-160v-160zM1276 0h160v160h-160v-160z" />
<glyph unicode="&#x202f;" horiz-adv-x="359" />
<glyph unicode="&#x2039;" horiz-adv-x="718" d="M96 569l420 -422l70 70l-355 352l357 355l-70 67z" />
<glyph unicode="&#x203a;" horiz-adv-x="710" d="M127 924l356 -355l-354 -350l70 -69l419 419l-421 422z" />
<glyph unicode="&#x205f;" horiz-adv-x="449" />
<glyph unicode="&#x2122;" horiz-adv-x="819" d="M102 1368h115v-332h27v332h112v27h-254v-27zM346 1040h27l57 269l109 -287l110 287l53 -269h29l-76 359l-116 -303l-113 303z" />
<glyph unicode="&#x25fc;" horiz-adv-x="1013" d="M0 0v1014h1014v-1014h-1014z" />
</font>
</defs>
</svg>
