<?xml version="1.0" standalone="no"?>
<!DOCTYPE svg PUBLIC "-//W3C//DTD SVG 1.1//EN" "http://www.w3.org/Graphics/SVG/1.1/DTD/svg11.dtd" >
<svg xmlns="http://www.w3.org/2000/svg">
<metadata></metadata>
<defs>
<font id="distro_toastregular" horiz-adv-x="1097" >
<font-face units-per-em="2048" ascent="1638" descent="-410" />
<missing-glyph horiz-adv-x="538" />
<glyph horiz-adv-x="0" />
<glyph horiz-adv-x="682" />
<glyph horiz-adv-x="864" d="M63 1380q0 -37 32 -81t85 -81.5t123 -62.5t146 -25t140 24t111.5 60.5t74 80.5t26.5 85q0 27 -4 44.5t-17.5 27.5t-39 14t-68.5 4q-33 0 -51.5 -5t-29.5 -14t-18.5 -20.5t-17.5 -21.5q-29 -29 -48.5 -51.5t-57.5 -22.5q-39 0 -71 23.5t-61 52.5q-16 14 -22 25.5 t-18.5 19.5t-35 11t-67.5 3q-35 0 -56.5 -4t-33.5 -13t-16.5 -27.5t-4.5 -45.5z" />
<glyph horiz-adv-x="1085" d="M295 1386q0 -53 18.5 -98t52 -77.5t80 -52t99.5 -19.5q51 0 97 18.5t79 52t52.5 78.5t19.5 98q0 51 -18.5 96.5t-50.5 79t-78 53t-101 19.5t-101.5 -19.5t-79 -52t-51 -78.5t-18.5 -98zM498 1389q0 16 13 28.5t30 12.5q18 0 30.5 -12.5t12.5 -28.5q0 -20 -12.5 -33 t-30.5 -13q-16 0 -29.5 12.5t-13.5 33.5z" />
<glyph horiz-adv-x="669" d="M106 1335q0 -98 67 -158.5t163 -60.5t161.5 61.5t65.5 159.5q0 49 -17.5 90t-48 70t-72.5 45.5t-89 16.5q-98 0 -164 -62.5t-66 -161.5zM213 1337q0 51 37 85t86 34t86 -34t37 -85t-37 -83.5t-86 -32.5t-86 33.5t-37 82.5z" />
<glyph unicode="&#xa;" horiz-adv-x="1058" d="M88 1272q0 -31 26.5 -43t84.5 -12q84 0 110 34q18 25 51 57.5t66 65.5t57.5 61t24.5 42q0 33 -26.5 51t-61.5 18q-12 0 -31.5 -1t-39 -3t-38 -3t-28.5 -1q-29 0 -46.5 -15.5t-33.5 -41.5q-8 -14 -27.5 -44t-39 -64t-34 -62.5t-14.5 -38.5zM504 1272q0 -31 26.5 -43 t83.5 -12q86 0 109 34q18 25 52 57.5t66.5 65.5t57.5 61t25 42q0 33 -27 51t-61 18q-12 0 -32 -1t-39.5 -3t-37.5 -3t-29 -1q-29 0 -46 -15.5t-34 -41.5q-8 -14 -27.5 -44t-39 -64t-33.5 -62.5t-14 -38.5z" />
<glyph horiz-adv-x="489" d="M16 -254q0 -66 23.5 -115t63.5 -80.5t95.5 -47t116.5 -15.5q20 0 47 3t49.5 12.5t38 25.5t15.5 45q0 16 -3 35.5t-11.5 36t-21.5 28t-34 11.5q-12 0 -23.5 -8.5t-22.5 -17.5t-22.5 -16.5t-25.5 -7.5q-20 0 -39.5 12.5t-36 31t-27 40t-10.5 39.5q0 35 33 68t73 61.5 t72.5 53t32.5 45.5q0 10 -10 17t-23.5 12t-26.5 7.5t-22 2.5q-55 0 -109 -21.5t-97 -59.5t-69 -89.5t-26 -108.5z" />
<glyph horiz-adv-x="1079" d="M164 1417q0 -16 15.5 -40.5t37 -49t44 -48.5t38.5 -40q53 -53 123 -86t123 -33q27 0 58.5 10.5t63 27t59.5 36.5t50 43q14 14 38 40t47.5 52.5t41 51t17.5 34.5q0 39 -21.5 52.5t-101.5 13.5q-76 0 -103.5 -8.5t-40.5 -18.5q-10 -10 -21 -25.5t-23.5 -31t-29 -26.5 t-34.5 -11q-23 0 -39.5 11t-29.5 26.5t-24.5 32t-21.5 26.5q-10 12 -39 18.5t-104 6.5q-80 0 -101.5 -12.5t-21.5 -51.5z" />
<glyph unicode="&#xd;" horiz-adv-x="1024" />
<glyph horiz-adv-x="1032" d="M-119 -115q0 -23 23.5 -48t56.5 -46.5t67.5 -36t55.5 -14.5q35 0 59.5 25.5t44.5 54.5q31 47 82.5 126t113.5 178t133 213t141.5 228.5t139 224t126 201.5t100.5 160t63 100q8 12 19.5 29.5t22 38t17.5 39.5t7 33q0 25 -25.5 51t-59.5 46.5t-69.5 34t-56.5 13.5 q-23 0 -49.5 -20.5t-50.5 -59.5q-41 -68 -112 -181.5t-156 -250.5t-178 -284.5t-177 -282.5t-153.5 -246t-108.5 -174q-6 -10 -19.5 -31.5t-25.5 -44t-21.5 -44t-9.5 -32.5zM76 0q0 14 10 41q2 6 29.5 53t74 122t106.5 171t124.5 199.5t130 208t123 196.5t101.5 164t69 111 q23 35 38 45t29 10q47 0 47 -45v-12q0 -6 -2 -13q-4 -14 -43 -81.5t-101 -168t-141 -224.5t-161 -252t-160 -250.5t-137 -221.5q-6 -10 -15.5 -25.5t-22.5 -29.5t-28.5 -25.5t-29.5 -11.5q-16 0 -28.5 11.5t-12.5 27.5z" />
<glyph horiz-adv-x="1318" d="M49 889q0 -51 9.5 -82t23.5 -46.5t33.5 -20.5t38.5 -5q37 0 63.5 -12t26.5 -59v-502q0 -45 7 -76t26.5 -50.5t55.5 -27.5t95 -8q66 0 102.5 10t54 29.5t21.5 50.5t4 72v508q0 37 22.5 49t49.5 12h92q49 0 79 8.5t46 48.5v-610q0 -63 9.5 -99t33 -54.5t61 -22.5t95.5 -4 q61 0 97 7t54.5 27.5t23.5 54.5t5 87v713q0 33 -4 63.5t-22.5 53t-57.5 37t-109 14.5q-96 0 -133 -25.5t-47 -68.5q-10 35 -18 40q-23 23 -45.5 29t-73.5 6h-147q0 -25 16 -38t36.5 -27.5t37 -32.5t16.5 -53t-32.5 -58.5t-72.5 -59.5t-73 -96.5t-33 -170.5v-250 q0 -45 -24.5 -78t-59.5 -33q-37 0 -64.5 30t-27.5 79v246q0 94 -22.5 151t-48 98t-48 73t-22.5 73q0 37 22.5 72.5t50 76.5t50 91.5t22.5 113.5q0 33 13.5 77t46 84t87 68.5t136.5 28.5q74 0 104.5 -9t30.5 -50q0 -27 -15.5 -45.5t-40 -36t-51 -35.5t-51 -41.5t-40 -56.5 t-15.5 -78q0 -2 2 -16.5t14.5 -36t38.5 -35.5q8 45 9 75l1 29q4 41 35 75t84 34h103q20 0 41 8q4 -41 24.5 -74.5t50 -60.5t66.5 -41t74 -14q39 0 75.5 18t64.5 48t44 69t16 80q0 43 -15 80.5t-43 65.5t-66 44t-81 16q-45 0 -84.5 -14t-70.5 -45v49q0 53 -42 77t-140 24 q-16 0 -51 -1t-64 -1q-119 0 -194.5 -34t-118.5 -86t-59.5 -113.5t-16.5 -117.5v-151q0 -29 -23.5 -47.5t-64.5 -18.5q-16 0 -40 -6t-38 -18q-14 -16 -22.5 -45t-8.5 -76zM993 303v469q0 68 25.5 104.5t66.5 36.5q39 0 68 -33.5t29 -107.5v-469q0 -72 -21.5 -117t-75.5 -45 q-29 0 -47 14.5t-28.5 37t-13.5 51t-3 59.5zM1008 1311q0 31 12 42t63 11q47 0 64.5 -9t17.5 -44t-14 -45.5t-68 -10.5q-49 0 -62 10.5t-13 45.5z" />
<glyph horiz-adv-x="1318" d="M49 889q0 -51 9.5 -82t23.5 -46.5t33.5 -20.5t38.5 -5q37 0 63.5 -12t26.5 -59v-502q0 -45 7 -76t26.5 -50.5t55.5 -27.5t95 -8q66 0 102.5 10t54 29.5t21.5 50.5t4 72v508q0 37 22.5 49t49.5 12h92q82 0 103.5 -6t21.5 -29v-506q0 -61 5 -98t23.5 -57.5t54.5 -27.5 t97 -7t98 6t57.5 26.5t27 55.5t6.5 94v1229q0 45 -5.5 77t-24.5 51.5t-56 28.5t-101 9q-59 0 -100 -5t-59 -22q-33 53 -172 54q-16 0 -51 -1t-64 -1q-119 0 -194.5 -34t-118.5 -86t-59.5 -113.5t-16.5 -117.5v-151q0 -29 -23.5 -47.5t-64.5 -18.5q-16 0 -40 -6t-38 -18 q-14 -16 -22.5 -45t-8.5 -76zM199 889q0 37 22.5 72.5t50 76.5t50 91.5t22.5 113.5q0 33 13.5 77t46 84t87 68.5t136.5 28.5q72 0 122 -9t50 -50q0 -39 -39 -63.5t-86 -52.5t-86 -67.5t-39 -109.5q0 -2 2 -16.5t14.5 -36t38.5 -35.5q8 45 9 75l1 29q4 41 35 75t84 34 q4 0 31 2t56.5 0t54 -11.5t24.5 -33.5v-158q0 -12 1 -19t-10 -11.5t-39 -5.5t-83 -1h-147q0 -25 23.5 -38t51 -27.5t51 -32.5t23.5 -53t-40 -52.5t-87 -48t-87 -94t-40 -190.5v-250q0 -45 -24.5 -78t-59.5 -33q-37 0 -64.5 30t-27.5 79v246q0 94 -22.5 151t-48 98t-48 73 t-22.5 73zM950 872q0 20 7.5 41t15.5 40.5t15 41t7 43.5v279q0 63 27 94t63 31q47 0 66.5 -37t19.5 -84v-1028q0 -57 -16 -104.5t-70 -47.5q-53 0 -71.5 39t-18.5 117v393q0 25 -7 48.5t-15 46t-15.5 44t-7.5 43.5z" />
<glyph horiz-adv-x="1271" d="M57 90q0 -41 34 -64.5t110 -23.5h895q23 0 44 4t37.5 16.5t26.5 37t10 65.5v111q0 31 -5 54t-22.5 38.5t-51 22.5t-88.5 7h-379q-25 0 -38.5 7.5t-13.5 35.5q0 35 83 136.5t231 277.5q90 106 142 170t80 103.5t35 66.5t7 59v117q0 45 -10 73t-30.5 41t-52.5 17t-73 4 h-807q-86 0 -116.5 -29.5t-30.5 -84.5v-138q0 -51 39 -73.5t104 -22.5h367q55 0 55 -53q0 -16 -26.5 -51t-69.5 -85t-97.5 -111.5t-109.5 -129.5q-88 -109 -142.5 -173t-85 -104t-41 -67t-10.5 -59v-195zM160 236q0 57 41 127.5t103.5 147.5t134 157t134 153.5t103.5 138 t41 111.5q0 25 -15.5 46.5t-50.5 56.5q-23 23 -63.5 33t-84.5 13t-87 2t-70 -1q-66 0 -87 23.5t-21 58.5q0 41 36.5 54t85.5 13q39 0 119 2t167 3t164 3t108 2q86 0 127.5 -38t41.5 -93q0 -41 -17 -82t-51 -87t-82 -103t-108 -133q-61 -78 -112 -138.5t-88 -108.5t-58.5 -88 t-21.5 -73q0 -51 25.5 -84t66.5 -52t90 -27.5t96 -10.5t85 -1t57 1q102 0 102 -88q0 -41 -44 -59.5t-103 -18.5h-609q-72 0 -113.5 31t-41.5 109zM229 1780q0 -16 18.5 -40t43 -49.5t51.5 -49t43 -39.5q53 -53 123 -86t121 -33q29 0 60.5 10t63 26.5t59.5 37t50 42.5 q14 14 41 40t54.5 53.5t48 51.5t20.5 34q0 39 -31.5 52t-111.5 13q-76 0 -103.5 -8t-40.5 -18q-20 -20 -45.5 -46t-62.5 -26q-43 0 -68.5 26.5t-46.5 47.5q-12 12 -39.5 18t-103.5 6q-80 0 -112 -12t-32 -51z" />
<glyph horiz-adv-x="1079" d="M70 903q0 -49 7 -79.5t25.5 -47t49 -22.5t77.5 -6h125q39 0 54.5 -10.5t15.5 -32.5q0 -23 -21.5 -48.5t-58.5 -56.5t-84 -69.5t-96 -88.5q-20 -20 -45 -46.5t-31 -47t-11 -65.5t-5 -107q0 -51 5 -85t21.5 -54.5t50 -29.5t91.5 -9h616q49 0 78 9t45 28.5t21.5 51.5t5.5 77 q0 53 -11.5 82.5t-32 45t-49 19.5t-63.5 4h-172q-55 0 -55 43q0 18 32.5 52t79.5 74t98.5 83t90.5 82l34.5 34.5t27.5 39t17.5 55.5t6.5 86q0 63 -8.5 100t-27 57.5t-49 27t-75.5 6.5h-610q-43 0 -75 -4t-53.5 -19.5t-31.5 -45.5t-10 -83zM164 1417q0 -16 15.5 -40.5t37 -49 t44 -48.5t38.5 -40q53 -53 123 -86t123 -33q27 0 58.5 10.5t63 27t59.5 36.5t50 43q14 14 39 40t47.5 52.5t40 51t17.5 34.5q0 39 -21.5 52.5t-101.5 13.5q-76 0 -103.5 -8.5t-40.5 -18.5q-10 -10 -21 -25.5t-23.5 -31t-29 -26.5t-34.5 -11q-23 0 -39.5 11t-29.5 26.5 t-24.5 32t-21.5 26.5q-10 12 -39 18.5t-104 6.5q-80 0 -101.5 -12.5t-21.5 -51.5zM184 233q0 51 24.5 95.5t60.5 83.5t78 73.5t78 68.5t60.5 68.5t24.5 73.5q0 68 -36 94.5t-79 41t-78.5 26.5t-35.5 49q0 35 29.5 44.5t60.5 9.5q35 0 79 2t86 4t76.5 4t53.5 2 q109 0 164 -26.5t55 -110.5q0 -49 -25.5 -91.5t-64.5 -81t-85 -75.5t-85 -73t-64.5 -71.5t-25.5 -74.5q0 -47 19 -75t48 -43t63.5 -21.5t63.5 -12.5t48.5 -16.5t19.5 -30.5q0 -37 -30 -52.5t-95 -15.5h-334q-70 0 -112 33t-42 98z" />
<glyph unicode=" "  horiz-adv-x="538" />
<glyph unicode="&#x09;" horiz-adv-x="538" />
<glyph unicode="&#xa0;" horiz-adv-x="538" />
<glyph unicode="!" horiz-adv-x="589" d="M100 182q0 -98 63.5 -150t155.5 -52q104 0 157.5 55t53.5 153q0 61 -21.5 96t-47 56.5t-47 37t-21.5 42.5q0 29 17.5 37t39 19t39 39t17.5 95v744q0 49 -8.5 79.5t-30 48t-58 23.5t-96.5 6q-59 0 -96 -6t-59.5 -23.5t-30.5 -48t-8 -79.5v-744q0 -66 18.5 -93.5t40 -39.5 t40 -21.5t18.5 -35.5q0 -29 -21.5 -43.5t-46.5 -34.5t-46.5 -56t-21.5 -104zM225 760v448q0 72 18.5 122t69.5 50q53 0 74 -50t21 -122v-448q0 -88 -24 -125t-71 -37q-43 0 -65.5 38t-22.5 124zM242 201q0 41 22.5 59.5t50.5 18.5q35 0 54.5 -18.5t19.5 -59.5t-21.5 -59.5 t-52.5 -18.5t-52 17.5t-21 60.5z" />
<glyph unicode="&#x22;" horiz-adv-x="778" d="M2 1016q0 -45 9 -73t27.5 -42t48.5 -18t71 -4q90 0 128 25.5t38 111.5v348q0 43 -6.5 69.5t-25 43t-51 22.5t-83.5 6t-82 -7t-47.5 -23.5t-21.5 -44t-5 -66.5v-348zM106 1192q0 76 15.5 106.5t46.5 30.5q29 0 44 -30.5t15 -106.5q0 -78 -15 -103.5t-44 -25.5t-45.5 25.5 t-16.5 103.5zM455 1018q0 -45 9 -71.5t27.5 -41t48 -18.5t70.5 -4q88 0 126 25.5t38 109.5v348q0 43 -6 70.5t-24.5 44t-50 22.5t-83.5 6q-51 0 -81.5 -7t-47 -23.5t-21.5 -44t-5 -68.5v-348zM557 1196q0 76 13.5 105.5t43.5 29.5q29 0 46.5 -29.5t17.5 -105.5 q0 -80 -15.5 -104.5t-46.5 -24.5q-29 0 -44 24.5t-15 104.5z" />
<glyph unicode="#" horiz-adv-x="1478" d="M109 446q0 -61 14 -86.5t35.5 -35t46 -14.5t47.5 -25q12 -12 13 -41t-3 -63t-9 -69.5t-5 -66.5q0 -61 48 -80.5t122 -19.5q61 0 87.5 10t47.5 31q14 14 25 61l26 172q6 47 27 68q20 18 84 18q37 0 56.5 -6t25.5 -10q8 -10 10 -30.5t0 -45.5l-6 -172q-4 -59 37 -78.5 t125 -19.5q49 0 79.5 7t51 27.5t32 59.5t17.5 104q4 39 10 71t16.5 52.5t30 31.5t51.5 11q37 0 64.5 4t44 21.5t25 50.5t8.5 92t-13.5 89t-33 42t-43 13.5t-43 5.5t-33 16t-13.5 49q0 53 42 70.5t98 17.5q23 0 43 5t34.5 22.5t22.5 48.5t8 82q0 49 -12 81t-29 48 q-16 14 -38.5 18t-43 8.5t-36 14.5t-15.5 39q0 39 9.5 91t9.5 116q0 55 -28 80.5t-122 25.5q-80 0 -109.5 -10t-46.5 -27q-10 -10 -16 -33.5t-10 -52.5l-17 -145q-6 -47 -22 -75t-49 -28h-82q-63 0 -64 50q0 43 9.5 97t9.5 107q0 41 -10.5 65t-32 36t-52 16t-69.5 4 q-53 0 -85 -8t-50.5 -28.5t-26.5 -54.5t-14 -85q-4 -55 -15.5 -104t-27.5 -66q-14 -14 -26.5 -20t-43.5 -6q-74 0 -102.5 -32t-28.5 -132q0 -84 24.5 -112t54.5 -36t54.5 -17t24.5 -59q0 -47 -26.5 -63t-88.5 -16q-61 0 -85.5 -42t-24.5 -135zM258 457q0 39 19.5 69.5t44 58 t44 58.5t19.5 72q0 37 -10 59.5t-21.5 44t-21.5 46t-10 63.5q0 27 14 51.5t32.5 46t37 37.5t28.5 27q25 25 39 60.5t27.5 68t31 55t50.5 22.5q31 0 46 -19.5t24.5 -47t16.5 -55t21 -46.5q27 -35 62.5 -71.5t83.5 -36.5q35 0 70.5 21.5t72.5 58.5q33 33 49 67.5t27.5 61 t26 44t44.5 17.5q31 0 45.5 -16.5t23.5 -43t16.5 -60t25.5 -66.5q14 -29 26.5 -46.5t19.5 -32.5t11 -31.5t4 -41.5q0 -49 -20.5 -78.5t-44 -54t-44 -50.5t-20.5 -67q0 -27 10.5 -53t24 -54t23.5 -57.5t10 -62.5q0 -20 -15.5 -44.5t-36 -49.5t-42 -46.5l-33.5 -33.5 q-16 -16 -29.5 -47t-28 -61.5t-33 -53t-44.5 -22.5q-27 0 -42 19.5t-26.5 49t-24 63.5t-30.5 63.5t-47 49t-76 19.5q-84 0 -126 -41t-67.5 -90t-48 -90t-69.5 -41q-23 0 -34 16.5t-19.5 41t-16.5 55t-22 59.5q-27 53 -47.5 92t-20.5 74zM621 702q0 -35 28 -34q8 0 13.5 9 t8.5 21.5t7 25.5t12 21q12 12 35 20.5t57 8.5q59 0 78 -15.5t19 -62.5q0 -78 -64 -78h-72q-45 0 -45 -26q0 -10 15.5 -17.5t60.5 -7.5q27 0 54.5 13.5t50 34t37 45t14.5 49.5q0 23 -12.5 47t-32 43.5t-45 33t-49.5 13.5q-35 0 -67 -15.5t-54.5 -38t-35.5 -47t-13 -43.5z" />
<glyph unicode="$" horiz-adv-x="1181" d="M31 174q0 -39 46 -72.5t108.5 -59.5t126 -41t98.5 -15q45 0 61 -22.5t27.5 -50.5t30 -50.5t67.5 -22.5q51 0 73.5 23.5t34 53.5t23.5 53.5t45 23.5q6 0 38 8t76 28.5t93 53.5t91 84t69.5 121t27.5 162q0 90 -23.5 154.5t-61.5 109.5t-82 73.5t-86 45t-75.5 25.5t-47.5 13 q-43 16 -62.5 29.5t-19.5 52.5v88q0 37 14 49.5t43 12.5q20 0 33.5 -5t25 -10.5t23.5 -10.5t33 -5q25 0 61.5 33t72.5 75t61.5 80.5t25.5 53.5q0 41 -40 70.5t-92 49t-100.5 29t-64.5 9.5q-31 0 -48.5 8t-27.5 20q-14 16 -21.5 38t-18.5 40t-32.5 31.5t-62.5 13.5 t-61.5 -14.5t-29.5 -34t-13.5 -42t-14.5 -38.5q-14 -25 -53 -25q-10 0 -68.5 -21.5t-126 -73.5t-122 -137t-54.5 -210q0 -109 35 -182.5t87 -119.5t112.5 -70.5t113.5 -37.5q55 -14 75 -39.5t20 -62.5v-98q0 -27 -11.5 -48.5t-44.5 -21.5q-31 0 -54.5 13.5t-45 29t-42 28.5 t-42.5 13q-16 0 -52 -30.5t-75 -72.5t-67.5 -86t-28.5 -69zM158 1034q0 82 30.5 141.5t72.5 99.5t83 62.5t64 32.5q35 14 58 29.5t44.5 26t43 17.5t52.5 7q27 0 45.5 -4t34.5 -11.5t31.5 -15.5t38.5 -16q18 -6 41.5 -14.5t46 -20.5t38 -29.5t15.5 -42.5q0 -37 -19.5 -55 t-46 -27.5t-52 -13.5t-40.5 -12q-43 -23 -87 -34t-79.5 -24.5t-57 -34t-21.5 -59.5q0 -37 18 -58.5t44 -36.5t56.5 -29.5t55.5 -39.5q49 -49 116.5 -79.5t129 -69.5t103.5 -98.5t42 -165.5q0 -61 -15.5 -114.5t-52.5 -99.5t-97 -89t-151 -82q-29 -12 -43 -21.5t-28.5 -15.5 t-30.5 -9t-47 -3q-37 0 -58.5 4t-37 10t-29.5 14t-39 17q-20 6 -54 16t-67 24.5t-56.5 36t-23.5 50.5q0 49 26 66.5t91 17.5q43 0 79 8t66.5 17t56 17.5t48.5 8.5q61 0 89 26.5t28 55.5q0 25 7 31t16 8t17.5 5t8.5 19q0 25 -24.5 40t-55.5 26.5t-60.5 19.5t-39.5 19 q-55 55 -101.5 84.5t-81 48t-60.5 29t-40 24.5q-10 10 -33.5 27.5t-48 47t-42 76t-17.5 115.5z" />
<glyph unicode="%" horiz-adv-x="2002" d="M90 1051q0 -72 28.5 -146t82 -133t130.5 -98t173 -39q66 0 102.5 8t60 19.5t41 19.5t42.5 8q23 0 30.5 -17.5t7.5 -35.5q0 -10 -14 -37l-256 -473q-14 -29 -14 -43q0 -37 19.5 -61.5t47 -39t57 -20.5t48.5 -6q16 0 37.5 18.5t40.5 53.5l209 364q37 66 65 66 q25 0 33 -20.5t8 -61.5q0 -57 23.5 -127t75 -130.5t130 -101.5t189.5 -41q96 0 175 35t134 93.5t86 134t31 159.5q0 94 -33 173t-89 136.5t-131 89t-161 31.5q-53 0 -91 -8t-66.5 -17t-50 -17.5t-42.5 -8.5q-20 0 -27.5 11.5t-7.5 17.5q0 8 4.5 23.5t8.5 23.5l250 457 q10 20 18 41.5t8 33.5q0 20 -21.5 43t-50 41.5t-60.5 29.5t-50 11q-16 0 -38.5 -19t-43.5 -56l-203 -369q-35 -61 -61 -61q-23 0 -34 29.5t-11 76.5q0 37 -20.5 99.5t-68.5 124t-128 106.5t-197 45q-104 0 -183 -37t-133.5 -98.5t-82 -140t-27.5 -160.5zM375 1061 q0 51 34.5 96t100.5 45q68 0 103.5 -45t35.5 -100q0 -49 -33.5 -91t-99.5 -42q-39 0 -65.5 13t-44 32.5t-24.5 44t-7 47.5zM1352 403q0 51 35.5 96.5t101.5 45.5q68 0 102.5 -45.5t34.5 -100.5q0 -25 -9 -48t-26.5 -43.5t-42 -33t-55.5 -12.5q-63 0 -102 40t-39 101z" />
<glyph unicode="&#x26;" horiz-adv-x="1525" d="M61 414q0 -98 31 -170t79 -122t108.5 -81t119 -48.5t109.5 -23.5t82 -6q96 0 154.5 16.5t96.5 36t66.5 36t67.5 16.5q27 0 40 -5.5t24.5 -13.5t24.5 -17t41 -17.5t74 -13.5t124 -5q31 0 65.5 3t62 9t46 18.5t18.5 30.5q0 31 -37 70t-80 82t-79.5 87t-36.5 83 q0 27 33.5 78t74.5 104t75 98.5t34 61.5q0 31 -29 50.5t-88 19.5h-176q-47 0 -76 -17.5t-49.5 -37t-37.5 -37t-40 -17.5q-18 0 -37.5 14.5t-19.5 48.5q0 23 28.5 51.5t63.5 70.5t63.5 102.5t28.5 148.5q0 98 -35 170t-95 118t-140 67.5t-170 21.5q-94 0 -179 -20.5 t-150 -66.5t-102.5 -120t-37.5 -180q0 -72 12 -107.5t25.5 -60.5t25.5 -49.5t12 -69.5q0 -29 -33.5 -53.5t-73.5 -65t-74 -108.5t-34 -180zM166 416q0 86 30.5 141t66.5 100t66.5 88t30.5 109q0 43 -8 65.5t-17 46t-16.5 57.5t-7.5 97q0 74 31 126t80 85t111.5 47.5 t125.5 14.5t124 -13.5t108 -44t76.5 -80t29.5 -120.5q0 -86 -22.5 -131.5t-49 -79t-49 -69.5t-22.5 -101q0 -37 14.5 -62.5t36 -41t46 -22.5t42.5 -7q49 0 70.5 6t34 14t26 14.5t43.5 6.5q47 0 65.5 -17.5t18.5 -46.5q0 -27 -10 -50.5t-21.5 -48t-21.5 -51t-10 -57.5 q0 -41 7 -63.5t15.5 -41t15.5 -38t7 -53.5q0 -35 -17.5 -49.5t-54.5 -14.5q-47 0 -65.5 4t-31.5 9.5t-30.5 9.5t-62.5 4q-49 0 -87 -13.5t-81 -29t-95.5 -28.5t-127.5 -13q-106 0 -184.5 30.5t-129.5 79.5t-75.5 109.5t-24.5 122.5zM401 438q0 -53 21.5 -89t54.5 -59.5 t68 -33.5t63 -10q33 0 63.5 11t55.5 31.5t39 51.5t14 68t-21.5 73.5t-53 66.5t-69.5 47t-69 17q-74 0 -120 -50t-46 -124zM461 436q0 35 24.5 69t75.5 34q16 0 41 -13.5t48.5 -37t40 -53t16.5 -60.5q0 -35 -31 -51.5t-76 -16.5q-25 0 -50.5 10.5t-45 27.5t-31.5 41t-12 50z M528 1085q0 -31 14.5 -54t35 -39.5t45 -26t45.5 -9.5q20 0 44.5 9.5t44 26t33 39.5t13.5 52q0 37 -14.5 66t-34 48.5t-43 29.5t-41.5 10q-59 0 -100.5 -42t-41.5 -110zM584 1083q0 35 18.5 63t59.5 28q27 0 55 -17.5t28 -54.5q0 -29 -22.5 -61.5t-63.5 -32.5q-39 0 -57 25.5 t-18 49.5z" />
<glyph unicode="'" horiz-adv-x="460" d="M74 1004q0 -86 39 -109t127 -23q90 0 118.5 36t28.5 126v338q0 33 -5 57.5t-20.5 42t-47 25.5t-83.5 8q-47 0 -77.5 -5t-48 -20.5t-24.5 -42t-7 -69.5v-364zM168 1194q0 80 16.5 104.5t40.5 24.5q33 0 52.5 -24.5t19.5 -100.5q0 -82 -16.5 -109.5t-49.5 -27.5 q-12 0 -24 3t-20.5 17.5t-13.5 40t-5 72.5z" />
<glyph unicode="(" horiz-adv-x="667" d="M59 592q0 -170 41 -329t96.5 -281.5t108.5 -197.5t78 -75t61.5 13.5t72.5 35t61.5 48t25.5 51.5q0 37 -36 96t-79 148t-78.5 211t-35.5 282q0 176 37 301t80 212t79.5 141t36.5 87q0 25 -26.5 53.5t-61.5 52t-71.5 39t-57.5 15.5q-37 0 -93 -77t-109.5 -204t-91.5 -289.5 t-38 -332.5zM166 598q0 119 19.5 239.5t50 218t67.5 158t72 60.5q29 0 37 -13t8 -42t-22.5 -77t-50.5 -123t-50.5 -179.5t-22.5 -245.5q0 -131 22.5 -226.5t49.5 -165t49.5 -119.5t22.5 -89v-12t-3 -18.5t-13.5 -17.5t-28.5 -7q-23 0 -58.5 54t-68.5 144t-56.5 210 t-23.5 251z" />
<glyph unicode=")" horiz-adv-x="688" d="M68 1335q0 -33 36.5 -86t80.5 -140t81 -212t37 -301q0 -160 -36 -281.5t-80 -211t-79.5 -148.5t-35.5 -96q0 -25 25.5 -51.5t61.5 -48t73.5 -36t62.5 -14.5t78 75t108.5 197.5t97.5 281.5t42 329q0 172 -38 335t-92.5 289.5t-111.5 203.5t-94 77q-20 0 -57.5 -15.5 t-72 -39t-61 -52t-26.5 -55.5zM256 1219q0 31 9 43t36 12q33 0 71 -60.5t69.5 -158t52 -218t20.5 -239.5q0 -131 -24.5 -251t-58.5 -211t-69.5 -145t-58.5 -54t-34 12t-11 45q0 35 22.5 84t50 120.5t50 169t22.5 228.5q0 141 -23.5 245.5t-51 179.5t-50 122t-22.5 76z" />
<glyph unicode="*" horiz-adv-x="1064" d="M94 1079q0 -35 25.5 -52t57.5 -29.5t57.5 -28t25.5 -47.5q0 -29 -11 -46.5t-24.5 -33t-25 -36t-11.5 -52.5q0 -16 20.5 -40t48.5 -46.5t56.5 -39t44.5 -16.5q29 0 50.5 17.5t40 39t36 40t41.5 18.5q31 0 48.5 -18.5t34 -40t37 -40t56.5 -18.5q18 0 48 15.5t58 38t48.5 48 t20.5 44.5q0 25 -10.5 40t-23 30.5t-22.5 35t-10 49.5q0 45 24.5 59.5t55.5 22.5t55.5 22.5t24.5 57.5q0 35 -9.5 70t-24.5 62.5t-33.5 44t-39.5 16.5q-27 0 -61.5 -11.5t-81.5 -11.5q-29 0 -37 18.5t-8 57.5q0 80 -26.5 110.5t-112.5 30.5q-92 0 -117 -30.5t-25 -92.5 q0 -57 -7 -75.5t-36 -18.5q-25 0 -43 5t-34.5 10.5t-34 10.5t-39.5 5q-18 0 -37 -15.5t-34 -42t-25.5 -62.5t-10.5 -75zM313 1083q0 25 24.5 54.5t58.5 57.5t72 46.5t62 18.5q25 0 64 -21.5t76 -50.5t63.5 -60t26.5 -51q0 -14 -10.5 -57t-25.5 -88t-33.5 -81t-37.5 -36h-227 q-20 0 -40.5 27.5t-36 68.5t-26 88.5t-10.5 83.5z" />
<glyph unicode="+" horiz-adv-x="1300" d="M96 694q0 -47 5 -78.5t19.5 -51t41 -28t69.5 -8.5h207q31 0 46.5 -13t15.5 -64v-187q0 -92 41 -116.5t125 -24.5q94 0 127.5 27.5t33.5 113.5v180q0 47 16.5 66.5t61.5 19.5h193q84 0 110.5 34t26.5 126q0 51 -5 84t-19.5 51.5t-42 25.5t-70.5 7h-215q-35 0 -45.5 10.5 t-10.5 32.5v250q0 70 -34.5 97.5t-126.5 27.5q-90 0 -127 -28.5t-37 -100.5v-223q0 -37 -11.5 -52.5t-52.5 -15.5h-207q-39 0 -65.5 -4t-41.5 -20.5t-21.5 -48t-6.5 -89.5zM279 700q0 35 20 45.5t55 18.5t79 25.5t93 66.5q39 39 55.5 82t24.5 77t17.5 56.5t38.5 22.5 q39 0 49 -18.5t17 -50.5t24.5 -77t70.5 -98q45 -47 88 -62.5t75 -23.5t51.5 -18.5t19.5 -47.5t-22.5 -48t-58.5 -19t-79 -22.5t-86 -57.5q-41 -41 -56.5 -83t-23.5 -77t-19.5 -56.5t-43.5 -21.5q-37 0 -46.5 18.5t-15.5 50.5t-22.5 76t-65.5 95q-45 45 -88 59.5t-77 21.5 t-54 18.5t-20 47.5z" />
<glyph unicode="," horiz-adv-x="503" d="M-6 -150q0 -53 33.5 -69.5t78.5 -16.5q49 0 81 2.5t53.5 6.5t36 10t24.5 16q8 8 29 62l119 375q8 29 11 47t3 26q0 47 -35 62.5t-104 15.5q-53 0 -85 -1t-51.5 -4t-30 -9t-18.5 -15q-6 -8 -15 -24.5t-18 -42.5l-92 -342q-6 -23 -13 -48.5t-7 -50.5zM139 14q0 25 6.5 63 t19.5 71.5t35.5 58t55.5 24.5q29 0 40 -20.5t11 -73.5q0 -27 -9 -61.5t-24.5 -65t-35 -52t-41.5 -21.5q-57 0 -58 77z" />
<glyph unicode="-" horiz-adv-x="1067" d="M76 610q0 -53 9 -84.5t29.5 -49t50.5 -24t73 -6.5h583q57 0 92 8.5t51.5 27t21.5 50t5 78.5q0 82 -32.5 120t-133.5 38h-594q-78 0 -116.5 -30.5t-38.5 -127.5zM293 614q0 49 84 50h309q43 0 67.5 -10.5t24.5 -39.5t-25.5 -39t-66.5 -10h-309q-84 0 -84 49z" />
<glyph unicode="." horiz-adv-x="575" d="M72 203q0 -92 61.5 -154.5t155.5 -62.5q45 0 85 16t69.5 46t46 69t16.5 86q0 90 -59.5 152.5t-157.5 62.5t-157.5 -61.5t-59.5 -153.5zM211 203q0 31 21.5 53.5t54.5 22.5q31 0 52 -22.5t21 -53.5t-21.5 -53.5t-51.5 -22.5q-33 0 -54.5 22.5t-21.5 53.5z" />
<glyph unicode="/" horiz-adv-x="905" d="M51 12q0 -23 24.5 -42t58.5 -34.5t70 -24.5t56 -9q16 0 27.5 4t21.5 8q4 2 12.5 13.5t17.5 26.5t16 28.5t10 17.5l499 1300q12 33 24.5 72t12.5 68q0 33 -30.5 55.5t-70.5 35.5t-77 18t-49 5q-23 0 -47.5 -26.5t-42.5 -73.5l-488 -1286q-4 -10 -11 -30.5t-15.5 -44 t-13.5 -46t-5 -35.5zM217 170q0 8 4 29l402 1069q16 43 34.5 56t34.5 13q43 0 43 -63q0 -8 -5 -28.5t-17 -51.5l-367 -961q-4 -10 -11 -28.5t-18.5 -35.5t-24.5 -30.5t-30 -13.5q-18 0 -31.5 11t-13.5 34z" />
<glyph unicode="0" horiz-adv-x="1302" d="M82 754q0 -172 27.5 -315.5t96 -248t184.5 -162t290 -57.5q162 0 274.5 55.5t181 157t99.5 247t31 323.5q0 164 -33 300t-103.5 233t-184.5 151.5t-275 54.5q-170 0 -284 -58.5t-181.5 -158.5t-95 -235.5t-27.5 -286.5zM180 754q0 207 46 332.5t117 194.5t157 91.5 t166 22.5q88 0 178 -23.5t162.5 -92.5t118.5 -194.5t46 -330.5q0 -184 -32.5 -312.5t-97 -208t-159 -115.5t-216.5 -36q-109 0 -198 31.5t-153.5 108.5t-99.5 207t-35 325zM360 754q0 -152 27 -252.5t72 -159.5t103.5 -84t123.5 -25q55 0 109.5 28t97.5 90.5t68.5 162 t25.5 240.5q0 154 -32.5 249t-81 147t-101.5 70.5t-96 18.5q-53 0 -108.5 -23.5t-101.5 -80t-76 -149.5t-30 -232zM453 754q0 199 53 302t170 103q102 0 162.5 -104t60.5 -301q0 -211 -50 -330t-183 -119q-59 0 -100.5 31t-66 88t-35.5 141t-11 189z" />
<glyph unicode="1" horiz-adv-x="897" d="M45 1042q0 -27 23.5 -62.5t54.5 -68t62.5 -56.5t47.5 -24q31 0 53.5 15.5t43 35t42 35t50.5 15.5t37 -18.5t8 -69.5v-697q0 -80 25.5 -113.5t85.5 -33.5h149q63 0 86 37.5t23 109.5v1168q0 90 -31 117.5t-88 27.5h-160q-37 0 -76 -20.5t-90 -63.5l-246 -207 q-41 -35 -70.5 -68.5t-29.5 -58.5zM240 1083q0 25 38.5 70t95 90t118 78t106.5 33q76 0 110.5 -49.5t34.5 -178.5q0 -55 -5 -111.5t-5 -121.5v-588q0 -145 -78 -145q-45 0 -64.5 30.5t-19.5 108.5v385q0 109 -13 184.5t-52 114.5q-29 29 -58.5 37t-57.5 6t-50.5 -8t-34.5 -6 q-33 0 -49 20.5t-16 50.5z" />
<glyph unicode="2" horiz-adv-x="1171" d="M100 111q0 -39 11.5 -61.5t32 -33t50 -13.5t66.5 -3h733q47 0 77 6t47.5 23.5t24.5 51.5t7 89q0 90 -31 129t-123 39h-250q-57 0 -57 43q0 18 33 52t74 71t80.5 68.5t54.5 48.5q49 49 86 92t61.5 90t37.5 101t13 124q0 129 -40.5 217t-108.5 142.5t-155 78t-181 23.5 q-143 0 -241.5 -40t-159 -101.5t-87 -133t-26.5 -135.5q0 -55 32 -74.5t66 -21.5l152 -6q37 -4 58.5 5t33.5 21.5t24.5 35t30 44t42 37t65.5 15.5q12 0 31.5 -4.5t38 -16.5t30.5 -34.5t12 -57.5q0 -41 -28.5 -81t-75.5 -81l-428 -381q-53 -47 -83 -93t-30 -107v-168z M207 260q0 51 45 110.5t112.5 123t146.5 130t146.5 133t112.5 131t45 122.5q0 37 -13.5 72.5t-38 63.5t-59 44t-75.5 16q-49 0 -83 -15t-63.5 -32.5t-56.5 -33t-59 -15.5q-37 0 -60.5 13.5t-23.5 60.5t31.5 86t84 66.5t117 43t129.5 15.5q66 0 134.5 -18.5t123.5 -61.5 t90 -115t35 -178q0 -82 -31.5 -149.5t-79 -124t-103.5 -104.5t-103 -91t-79 -83t-32 -81q0 -66 59.5 -107.5t163.5 -41.5q66 0 105 -14.5t39 -53.5q0 -29 -26 -50.5t-97 -21.5h-504q-23 0 -46.5 5.5t-43 21.5t-31.5 48t-12 85z" />
<glyph unicode="3" horiz-adv-x="1118" d="M39 336q0 -49 28.5 -112.5t92 -119t165 -93.5t244.5 -38q123 0 220.5 35t165 96.5t104.5 143.5t37 174q0 84 -20.5 136t-44 89t-44 66.5t-20.5 68.5q0 16 15 32.5t33.5 46.5t34 81t15.5 137q0 100 -37 176t-104.5 128.5t-160.5 79t-204 26.5q-41 0 -94 -6t-106.5 -20.5 t-103.5 -38t-85 -58.5q-43 -43 -83 -98.5t-40 -112.5q0 -27 16.5 -47.5t45.5 -30.5q39 -14 76.5 -24.5t71.5 -17.5t60.5 -10t40.5 -3q37 0 57.5 17.5t39 37t43 36.5t69.5 17q39 0 79 -26.5t40 -81.5q0 -29 -17.5 -50.5t-43 -35.5t-54 -21.5t-53.5 -7.5q-37 0 -64.5 -5 t-45 -22.5t-25.5 -49t-8 -85.5q0 -51 8 -83.5t26.5 -51t49 -24.5t78.5 -6q55 0 90 -10.5t53 -27t25.5 -39t7.5 -46.5q0 -39 -14.5 -64.5t-36 -41t-47 -22.5t-48.5 -7q-51 0 -79.5 22.5t-50 50t-43 51t-58.5 23.5q-10 0 -58.5 -7t-101.5 -22.5t-95 -41t-42 -62.5zM203 262 q0 25 22.5 51.5t75.5 26.5q29 0 58.5 -13.5t62.5 -28.5t68.5 -28.5t78.5 -13.5q29 0 66 13.5t68.5 39t53 62.5t21.5 84q0 53 -17.5 88t-45 57.5t-58 36.5t-58.5 30.5t-45 36t-17 52.5q0 39 32.5 63.5t71.5 50t71.5 61.5t32.5 99q0 31 -11 61.5t-34.5 56.5t-59.5 42t-87 16 q-45 0 -72.5 -8t-51 -19.5t-47.5 -19.5t-58 -8q-43 0 -65.5 19.5t-22.5 74.5q0 33 32.5 61.5t81.5 48t107.5 31t111.5 11.5q82 0 155 -22.5t125 -63.5t83 -98.5t31 -129.5q0 -53 -14.5 -99t-31 -86t-31 -75t-14.5 -61q0 -49 17.5 -79t39 -63.5t39 -79.5t17.5 -128 q0 -66 -25.5 -125.5t-79 -105.5t-136 -73.5t-197.5 -27.5q-94 0 -159.5 21.5t-106.5 50t-59.5 60.5t-18.5 50z" />
<glyph unicode="4" horiz-adv-x="1183" d="M39 438q0 -55 7 -88t25.5 -50t49.5 -22.5t78 -5.5h333q63 0 88 -23.5t25 -109.5q0 -41 4 -67.5t21.5 -43t51.5 -23.5t93 -7q63 0 101 8t57.5 29.5t25 58.5t5.5 92q0 59 27.5 74.5t68.5 15.5t58.5 42t17.5 110q0 82 -16.5 124t-69.5 42q-59 0 -74 23.5t-15 80.5v600 q0 35 -3 66t-14 53.5t-34.5 34.5t-62.5 12h-176q-53 0 -80 -12t-49 -37q-25 -25 -150 -221.5t-360 -556.5q-16 -27 -24.5 -79t-8.5 -120zM154 498q0 47 13 87t42 88t72 111.5t104 159.5q72 111 121 190.5t88 130t76 74t86 23.5q78 0 113.5 -48t35.5 -136v-373 q0 -86 20.5 -134t46 -82t46 -67t20.5 -90q0 -35 -28.5 -77t-59.5 -87q-16 -23 -28.5 -45t-25.5 -39.5t-30.5 -28t-44.5 -10.5q-29 0 -48 13.5t-34.5 35t-32 45t-36.5 46.5q-35 35 -60.5 53t-61.5 25.5t-87 8.5t-133 1q-33 0 -65 5t-56.5 18.5t-38.5 38t-14 63.5zM416 678 q0 -14 12 -35.5t30.5 -42t40 -36t40.5 -15.5q59 0 59 22q0 12 -11.5 15.5t-25.5 3.5q-16 0 -30.5 3t-18.5 9q-18 14 -18 43q0 18 10 45t25.5 50.5t34 40t34.5 16.5q35 0 41 -23.5t6 -50.5q0 -55 5 -72.5t16 -17.5q18 0 35.5 33.5t17.5 78.5q0 27 -6 54.5t-21.5 50t-40 37 t-59.5 14.5q-31 0 -62.5 -24.5t-57.5 -60.5t-41 -73.5t-15 -64.5z" />
<glyph unicode="5" horiz-adv-x="1167" d="M80 334q0 -39 14.5 -74t35 -65.5t45 -56t44.5 -46.5q59 -59 153.5 -89t192.5 -30q96 0 196.5 26t183.5 88.5t136.5 165.5t53.5 259q0 117 -32 199t-80 137t-107.5 86t-113.5 47t-97 20.5t-60 4.5h-94q0 -45 36 -60.5t91 -29t122.5 -39t133.5 -89.5q12 -12 28.5 -32.5 t32 -53t25.5 -81t10 -115.5q0 -135 -53 -219t-128 -130t-155 -62.5t-133 -16.5q-68 0 -125 18.5t-97 44t-62.5 56t-22.5 55.5q0 49 21.5 63.5t58.5 14.5q43 0 71.5 -12.5t56 -27t59.5 -26.5t81 -12q43 0 83 18.5t73 49t52 71.5t19 86q0 74 -33.5 127t-85 89t-109.5 52.5 t-109 16.5q-74 0 -118 8t-67.5 24.5t-31 40t-7.5 54.5v323q0 49 13.5 80t36 48.5t51 23.5t57.5 6h365q43 0 67.5 -6t37.5 -15.5t16 -22.5t3 -28q0 -23 -15 -35t-42 -20t-61.5 -10t-73.5 -2q-31 0 -83 -11.5t-85 -43.5q-37 -37 -42 -69t7 -42q10 20 20.5 31.5t14.5 15.5 q8 6 19.5 10t37.5 4h324q43 0 73.5 6.5t50 24t28 50t8.5 87.5q0 61 -11.5 95t-33 51.5t-50 21.5t-65.5 4h-596q-59 0 -94 -12t-53.5 -34.5t-23.5 -56.5t-5 -77v-489q0 -92 17.5 -125t62.5 -33q31 0 51 5t42.5 11.5t57.5 11.5t97 5q117 0 190.5 -52.5t73.5 -138.5 q0 -43 -15.5 -74.5t-39 -51t-51 -30t-52.5 -10.5q-45 0 -72.5 23.5t-50 52.5t-46 52.5t-62.5 23.5q-16 0 -81 -13.5t-145 -39.5q-33 -10 -47 -27.5t-14 -52.5z" />
<glyph unicode="6" horiz-adv-x="1167" d="M43 494q0 -78 24.5 -168t90 -168t178.5 -130.5t291 -52.5q125 0 226 39t172 109t108.5 168t37.5 215q0 78 -16 138.5t-38.5 105.5t-49.5 75.5t-47 51.5q-55 55 -109.5 73.5t-97.5 26.5t-69.5 18.5t-26.5 46.5q0 25 31.5 75t70.5 104.5t71 104.5t32 79q0 25 -14.5 39 t-34 21.5t-41 9.5t-33.5 2h-174q-43 0 -74 -14.5t-65.5 -56.5t-81 -117t-121.5 -195q-31 -51 -73 -112.5t-79 -135.5t-62.5 -161t-25.5 -191zM141 516q0 111 51.5 231.5t120.5 235.5q51 80 93.5 147.5t80 115.5t70.5 76t66 28q53 0 72.5 -12.5t19.5 -55.5q0 -29 -11.5 -52.5 t-24.5 -49t-24.5 -56t-11.5 -73.5q0 -25 21.5 -56.5t44 -54t58.5 -39t75 -35t79 -43t71.5 -65.5t52 -101.5t20.5 -150.5q0 -123 -43 -206t-112.5 -132t-154.5 -69.5t-171 -20.5q-84 0 -164 29.5t-141.5 86t-99.5 138.5t-38 184zM348 504q0 -49 21.5 -95.5t58.5 -81t85 -56 t101 -21.5q45 0 90.5 19.5t82 55t60 84t23.5 107.5q0 57 -24.5 103.5t-62.5 78t-83 49t-84 17.5q-70 0 -120 -25.5t-82.5 -64.5t-49 -85t-16.5 -85zM420 504q0 78 53 131t133 53q43 0 79 -15.5t61.5 -41t40 -58t14.5 -69.5t-15.5 -70t-41 -56.5t-59.5 -37.5t-71 -14 q-92 0 -143 50t-51 128z" />
<glyph unicode="7" horiz-adv-x="1122" d="M-4 1233q0 -66 40 -92.5t116 -26.5h366q88 0 88 -57l-7 -23q-7 -22 -21 -51l-406 -799q-14 -29 -29.5 -66.5t-15.5 -47.5q0 -37 35 -53.5t78 -16.5h184q61 0 95 37t61 92l456 948q12 23 19.5 43.5t13.5 40.5q4 14 7 49t3 74q0 59 -8 95t-24.5 55.5t-44 25.5t-66.5 6h-791 q-80 0 -114.5 -25.5t-34.5 -101.5v-106zM152 1305q0 39 31.5 53t78.5 14h590q43 0 80 -31.5t37 -117.5q0 -35 -14.5 -83t-49.5 -118l-346 -723q-45 -94 -84 -133t-84 -39q-41 0 -60.5 18.5t-19.5 65.5q0 29 28 93.5t67.5 146t88 173t88.5 173.5t67.5 145.5t27.5 89.5 q0 82 -51.5 122t-121 55.5t-143 14.5t-116.5 -1q-55 0 -74.5 21.5t-19.5 60.5z" />
<glyph unicode="8" horiz-adv-x="1210" d="M49 428q0 -217 146.5 -343t420.5 -126q276 0 419 125t143 344q0 94 -22.5 147.5t-49.5 87t-49.5 57t-22.5 58.5q0 27 17.5 48.5t38 54t38 82t17.5 131.5q0 125 -50.5 205.5t-127 128t-169.5 65.5t-182 18q-152 0 -253 -35.5t-163.5 -95t-89 -134.5t-26.5 -150 q0 -88 16.5 -136.5t37 -78t36.5 -52t16 -59.5q0 -29 -22.5 -54.5t-48 -62.5t-48 -90t-22.5 -135zM152 442q0 49 19 92.5t44 84t44.5 82.5t19.5 92q0 49 -13.5 78.5t-30 58t-29.5 67.5t-13 107q0 88 35.5 147.5t95 96t134 52t154.5 15.5q190 0 308 -80t118 -241 q0 -72 -14 -109t-31.5 -65.5t-32 -60.5t-14.5 -89q0 -45 19.5 -75.5t43 -65.5t43 -84t19.5 -129q0 -55 -15.5 -115.5t-62.5 -112t-137 -85t-240 -33.5t-240.5 40t-141 97t-66.5 121.5t-16 113.5zM362 461q0 -45 20.5 -86t54.5 -73t80 -51.5t99 -19.5q51 0 97.5 18.5t81 52.5 t54 78t19.5 97q0 43 -20.5 83t-56 71t-81.5 49t-98 18q-43 0 -88 -16t-80.5 -47t-58.5 -75t-23 -99zM401 1028q0 -43 20.5 -75.5t53.5 -56.5t71 -36t72 -12q43 0 81 16.5t67 44t45 64.5t16 78t-18 76.5t-48 61t-68 40t-77 14.5q-53 0 -93 -19.5t-66.5 -50t-41 -69.5 t-14.5 -76zM432 459q0 41 16.5 69.5t43 47t59.5 26.5t67 8q74 0 127.5 -34.5t53.5 -120.5q0 -43 -16.5 -71t-43 -44t-63.5 -23.5t-76 -7.5q-63 0 -115.5 36t-52.5 114zM467 1049q0 29 14.5 51t37 36.5t51 21.5t57.5 7q68 0 101.5 -35t33.5 -94q0 -35 -13.5 -58.5t-36 -36.5 t-50 -18t-56.5 -5q-72 0 -105.5 40.5t-33.5 90.5z" />
<glyph unicode="9" horiz-adv-x="1193" d="M57 961q0 -115 45 -208.5t99 -146.5q55 -55 107 -76.5t92 -32t64.5 -20.5t24.5 -43q0 -37 -31.5 -85t-68.5 -100t-68.5 -102.5t-31.5 -87.5q0 -23 32.5 -41t84.5 -18h227q31 0 61.5 28.5t64.5 78t72.5 115t86.5 136.5q51 78 97 149t79.5 142.5t53 151.5t19.5 178 q0 102 -28.5 180t-74.5 134.5t-105.5 93t-121 59t-121 32t-104.5 9.5q-35 0 -89 -7t-116.5 -27.5t-124 -57.5t-111.5 -95.5t-82 -141.5t-32 -197zM168 999q0 115 44 190t110.5 120t144.5 62.5t143 17.5q98 0 182.5 -28t146.5 -82t97 -135.5t35 -185.5q0 -57 -17.5 -120.5 t-46 -129t-65.5 -130t-76 -121.5q-35 -53 -70.5 -111.5t-70.5 -107t-69.5 -80t-67.5 -31.5q-35 0 -63.5 16.5t-28.5 65.5q0 25 11 46t24.5 46t24.5 54.5t11 66.5q0 63 -31.5 99t-77.5 61.5t-97.5 48t-90.5 61.5q-20 20 -38.5 45t-33 59.5t-22.5 84t-8 118.5zM367 961 q0 -47 20.5 -91.5t53 -78t75.5 -54t90 -20.5q59 0 107.5 23.5t81 61.5t50 84t17.5 91q0 61 -25.5 106t-64.5 76t-82 46.5t-80 15.5q-53 0 -97 -22.5t-77 -59.5t-51 -84t-18 -94zM438 967q0 27 11.5 56.5t34 54t56 41t76.5 16.5q51 0 85 -16.5t54.5 -43t28 -57t7.5 -57.5 q0 -29 -11.5 -59t-34 -56.5t-54.5 -43t-70 -16.5q-51 0 -86 18.5t-56.5 45.5t-31 58.5t-9.5 58.5z" />
<glyph unicode=":" horiz-adv-x="591" d="M94 823q0 -35 14.5 -71.5t41 -67.5t66.5 -51.5t91 -20.5q98 0 158.5 60.5t60.5 150.5q0 43 -13 83t-40 71t-69 49t-97 18q-94 0 -153.5 -62t-59.5 -159zM96 195q0 -35 14.5 -72t41 -67.5t65.5 -51t90 -20.5q98 0 159.5 60.5t61.5 150.5q0 43 -13 81.5t-41 68.5t-70 47.5 t-97 17.5q-92 0 -151.5 -59.5t-59.5 -155.5zM240 199q0 45 22.5 63.5t48.5 18.5q35 0 53.5 -20.5t18.5 -55.5q0 -41 -22.5 -56.5t-53.5 -15.5q-29 0 -48 16.5t-19 49.5zM240 827q0 45 21.5 63.5t47.5 18.5q35 0 53.5 -20t18.5 -55q0 -41 -21.5 -56.5t-52.5 -15.5 q-29 0 -48 16.5t-19 48.5z" />
<glyph unicode=";" horiz-adv-x="618" d="M62 -173.5q6 -23.5 22 -37.5t39.5 -20.5t50.5 -6.5q53 0 86 2.5t53.5 6.5t32.5 11t23 17q6 6 20 42t32.5 87.5t37 110.5t35 114.5t26.5 97.5t10 58q0 27 -12 43.5t-31.5 25.5t-44 12t-51.5 3h-49q-25 0 -50.5 -3t-48 -11t-36.5 -23q-16 -16 -32.5 -63t-35 -113.5 t-37 -142.5t-36.5 -150q-10 -37 -4 -60.5zM125 823q0 -35 14.5 -71.5t42 -67.5t66.5 -51.5t90 -20.5q98 0 159.5 60.5t61.5 150.5q0 41 -12 80t-40 68.5t-70 48t-99 18.5q-100 0 -156.5 -59t-56.5 -156zM215 49q0 92 36 137t71 45q29 0 41 -20.5t12 -73.5q0 -27 -9.5 -61.5 t-24.5 -66.5t-35.5 -53.5t-41.5 -21.5q-35 0 -42 25t-7 90zM270 827q0 43 21.5 61.5t50.5 18.5q35 0 53.5 -19t18.5 -54t-13.5 -54.5t-62.5 -19.5q-35 0 -51.5 19.5t-16.5 47.5z" />
<glyph unicode="&#x3c;" horiz-adv-x="1359" d="M150 635q0 -51 7 -93t29 -65q20 -23 54 -39t84.5 -35.5t121 -45t164.5 -64.5q88 -37 176 -73t161 -63.5t122 -45t61 -17.5q25 0 41.5 15.5t24.5 41t11 60.5t3 74q0 41 -6 71.5t-35 59.5q-16 14 -52 30.5t-83 34t-96 36t-90 36.5t-67.5 37.5t-26.5 38.5q0 31 55 58.5 t127 53t139.5 50t89.5 47.5q10 10 17.5 22t12.5 31.5t7 48.5t2 76q0 90 -20.5 117.5t-46.5 27.5q-12 0 -59.5 -15.5t-116 -42t-153.5 -59t-171 -69.5q-115 -47 -191.5 -76t-129 -49.5t-83 -35.5t-51.5 -36q-14 -14 -23 -47t-9 -96zM270 633q0 49 28 82t74 58.5t104.5 46 t117.5 43t115.5 45t105.5 41t88 29.5t62 11q29 0 51 -10t22 -35q0 -29 -27.5 -50.5t-68.5 -40.5t-90 -39.5t-90 -45.5t-68.5 -57.5t-27.5 -77.5t27.5 -76t67.5 -55.5t88 -43t88 -38t67.5 -42t27.5 -52.5q0 -35 -23.5 -44.5t-50.5 -9.5q-12 0 -46.5 11.5t-84 31t-110 43 t-123.5 48.5q-59 23 -116.5 43t-103.5 44.5t-75 57.5t-29 82z" />
<glyph unicode="=" horiz-adv-x="1318" d="M121 377q0 -53 9 -85t29.5 -49.5t50.5 -23.5t73 -6h75h136q78 0 166 1t165 1h136h75q59 0 93 8t50.5 27.5t20.5 52.5t4 80q0 84 -31.5 118t-132.5 34h-764q-78 0 -116.5 -31t-38.5 -127zM121 928q0 -104 39 -134t123 -30h75h136q78 0 166 1t165 1h136h75q59 0 93 8 t50.5 27.5t20.5 52.5t4 80q0 84 -31.5 117.5t-132.5 33.5h-764q-78 0 -116.5 -29.5t-38.5 -127.5zM338 383q0 27 25.5 37t70.5 10h457q49 0 74.5 -10t25.5 -39t-25.5 -39t-66.5 -10h-479q-45 0 -63.5 13t-18.5 38zM338 936q0 25 25.5 35t70.5 10h457q49 0 74.5 -9t25.5 -38 t-25.5 -40t-66.5 -11h-479q-45 0 -63.5 13t-18.5 40z" />
<glyph unicode="&#x3e;" horiz-adv-x="1353" d="M143 285q0 -78 16.5 -135.5t67.5 -57.5q12 0 61.5 17.5t121 45t159.5 63.5t179 73q94 39 164.5 64.5t120.5 46t84 37t54 36.5q23 23 31 65t8 93q0 63 -10 96t-24 47q-20 20 -51 36.5t-83.5 36t-130 49.5t-190.5 77q-86 35 -171 68.5t-155.5 60t-119 43t-60.5 16.5 q-29 0 -50.5 -29.5t-21.5 -119.5q0 -47 4.5 -76t10.5 -48.5t15 -31.5t20 -22q23 -23 90 -47.5t139 -50t127 -53.5t55 -58q0 -20 -26.5 -39t-67.5 -37.5t-90 -36.5t-96.5 -35.5t-84 -34t-51.5 -30.5q-29 -29 -37 -58.5t-8 -70.5zM317 942q0 25 24 35t52 10q23 0 61 -11 t87 -29.5t106.5 -41t116.5 -45t117.5 -43t104.5 -46.5t73.5 -58.5t27.5 -81.5t-28.5 -82t-74.5 -57.5t-104.5 -45t-115.5 -43.5q-63 -25 -123.5 -48t-110 -42.5t-84 -31t-47.5 -11.5h-32t-25 4q-8 6 -12 16.5t-4 33.5q0 31 27.5 53t67.5 41.5t88 38t88 43t67.5 55.5t27.5 76 t-27.5 77.5t-69.5 57.5t-90 45t-90 39.5t-70 41t-28 50.5z" />
<glyph unicode="?" horiz-adv-x="1067" d="M41 1079q0 -39 14.5 -56t40.5 -24q59 -10 113.5 -14t71.5 -4q61 0 91.5 24.5t52 55.5t45.5 55.5t73 24.5q35 0 67.5 -16.5t32.5 -73.5q0 -27 -11 -48.5t-30.5 -43t-45.5 -45t-54 -52.5q-10 -8 -36 -27.5t-53.5 -52t-49 -82t-21.5 -118.5q0 -57 14.5 -82t33 -36 t32.5 -17.5t14 -28.5q0 -12 -19.5 -22.5t-42 -32t-42 -60.5t-19.5 -108q0 -53 18.5 -92.5t49.5 -65t71 -37.5t85 -12q35 0 71.5 14t66.5 41t48 65.5t18 86.5q0 63 -18 102t-39.5 61.5t-40 36t-18.5 27.5t13 22.5t29.5 19.5t31 30.5t18.5 58.5q2 23 25.5 53.5t56 64.5 t67.5 65.5t60 56.5q8 8 24.5 28.5t33.5 56t29.5 85.5t12.5 120q0 117 -43 196t-112.5 127t-158.5 68.5t-180 20.5q-98 0 -187 -31.5t-156.5 -87t-107.5 -131.5t-40 -166zM199 1196q0 39 26.5 75t72.5 64.5t110.5 46t138.5 17.5q70 0 136.5 -18.5t118.5 -56.5t85 -96.5 t33 -140.5q0 -53 -10.5 -94t-33 -81t-59.5 -83t-90 -98q-16 -16 -34.5 -40.5t-40 -48.5t-46 -41t-49.5 -17q-23 0 -44 15t-21 75q0 41 33.5 81t74.5 83t75 91t34 105q0 31 -12.5 63.5t-35 58.5t-52 42t-66.5 16q-51 0 -84 -15t-59.5 -32.5t-54.5 -33t-69 -15.5h-22 q-12 0 -24.5 7.5t-21.5 23.5t-9 47zM432 205q0 27 9.5 43t22.5 25.5t29.5 12.5t30.5 3q39 0 68 -14.5t29 -69.5q0 -74 -91 -74q-98 0 -98 74z" />
<glyph unicode="@" horiz-adv-x="1945" d="M80 684q0 -158 63.5 -313.5t184.5 -281.5t295 -204t397 -78q154 0 287 44.5t231 104.5t154.5 120.5t56.5 91.5q0 27 -15.5 38t-34 19t-33.5 18.5t-15 35.5q0 20 16 38.5t40 43t51.5 58.5t51 87t40 128.5t16.5 184.5q0 217 -82 369.5t-208 249t-275.5 140.5t-286.5 44 q-170 0 -306.5 -41t-239.5 -110.5t-177 -163t-121 -197.5t-68.5 -214t-21.5 -212zM186 725q0 145 44 260t101.5 193.5t114 120.5t82.5 42q33 0 33 -20q0 -12 -38 -53t-84 -112t-84 -171t-38 -235q0 -119 30 -214.5t75 -170t100.5 -131t107.5 -97.5t94 -67.5t62 -42.5 q6 -4 13.5 -13.5t5.5 -17.5q-4 -12 -20.5 -10t-47.5 2q-25 0 -75 18.5t-111.5 57t-126 98t-117.5 141.5t-87 187.5t-34 234.5zM446 922q0 37 34 105.5t102.5 138t173 120.5t245.5 51q47 0 105.5 -9t109 -24.5t84 -36.5t33.5 -46q0 -20 -12 -31.5t-30.5 -16t-42 -5.5 t-46.5 -1q-31 0 -54.5 6.5t-49 12.5t-55 12t-70.5 6q-100 0 -173 -23.5t-124 -59.5t-85 -78t-56.5 -77.5t-37 -59t-26.5 -23.5t-18.5 8t-6.5 31zM549 635q0 94 29.5 175t79 140.5t114 94t135.5 34.5q31 0 48.5 -3t29.5 -6t23.5 -6t31.5 -3q41 0 84 -2t123 -2q49 0 76 -21.5 t27 -89.5q0 -39 -7.5 -83t-16.5 -84t-16 -72.5t-7 -47.5q0 -47 15 -77.5t56 -71.5q16 -16 30.5 -25.5t29.5 -15.5q16 -8 39.5 -11t37.5 -5q12 -2 18.5 -8.5t6.5 -26.5q0 -33 -16.5 -53.5t-40 -31.5t-51 -15.5t-50.5 -4.5q-47 0 -99 9.5t-97 26t-75 38t-30 45.5 q0 29 18.5 58.5t40 64.5t40 76t18.5 94q0 49 -21.5 101.5t-53.5 94.5t-67.5 68.5t-66.5 26.5q-35 0 -83 -22.5t-93 -63.5t-76 -101.5t-31 -136.5q0 -84 29 -131t63.5 -76.5t63.5 -49t29 -48.5t-29 -45t-63 -16q-29 0 -71 10t-81 43t-66.5 94.5t-27.5 161.5zM784 668 q0 29 9.5 69.5t33 78.5t61.5 64.5t93 26.5q53 0 89 -46t36 -128q0 -92 -48 -160.5t-140 -68.5q-39 0 -65 14t-41 38t-21.5 53.5t-6.5 58.5zM803 176q0 16 18.5 23.5t43 11.5t51 7t45.5 9q45 16 70.5 24.5t60.5 8.5q14 0 44.5 -8t62.5 -20.5t56.5 -27t24.5 -28.5 q0 -41 -60.5 -56.5t-181.5 -15.5q-104 0 -169.5 14.5t-65.5 57.5zM1397 584q0 6 3 39.5t9 79t14.5 95.5t19.5 93t23.5 70.5t24.5 27.5q37 0 55.5 -45t18.5 -162q0 -41 -9.5 -85t-26 -80.5t-39 -61.5t-48.5 -25q-20 0 -32.5 11.5t-12.5 42.5zM1427 1319q0 43 15 43 q39 0 93 -39t102.5 -109.5t82 -169t33.5 -217.5q0 -25 -5 -67.5t-16.5 -84.5t-27.5 -74t-41 -32t-25 43q0 14 3.5 29.5t8.5 39.5t8 58.5t3 87.5q0 98 -37 179t-80 144.5t-80 105.5t-37 63z" />
<glyph unicode="A" horiz-adv-x="1411" d="M-41 70q0 -33 32 -52.5t83 -19.5h178q66 0 103.5 48t60.5 112q10 31 17 54.5t19.5 40.5t32 26.5t54.5 9.5h344q31 0 49 -16.5t30.5 -40t20.5 -50t18 -49.5q12 -25 21.5 -48.5t26 -42.5t47 -31.5t86.5 -12.5h170q53 0 76.5 26.5t23.5 51.5q0 14 -13.5 49t-45.5 108 l-389 912q-41 98 -71 159.5t-54.5 96.5t-48 48t-56.5 13h-133q-39 0 -65.5 -18.5t-50 -56t-48 -95t-57.5 -135.5l-379 -878q-37 -86 -59.5 -144.5t-22.5 -64.5zM135 240q0 16 19.5 68t52.5 129t75 171t87 193q47 106 82.5 203.5t71.5 171t79 117.5t107 44q55 0 98 -45 t81 -119.5t75.5 -171t83.5 -198.5q43 -100 86 -193.5t76.5 -172.5t54 -139t20.5 -97q0 -27 -15.5 -50.5t-66.5 -23.5q-45 0 -70.5 19.5t-48 49t-46 64.5t-64.5 64.5t-105.5 49t-167.5 19.5q-94 0 -155.5 -19.5t-103.5 -48t-69.5 -63.5t-50 -63.5t-47 -48t-63.5 -19.5 q-27 0 -42 5t-22.5 17.5t-9.5 33t-2 53.5zM547 723q0 -43 20.5 -59.5t38.5 -34.5q16 -16 24.5 -27.5t20.5 -21.5q8 -4 20.5 -8.5t30.5 -4.5t44 17.5t48.5 43t38 54.5t15.5 49q0 31 -13.5 62.5t-35 57.5t-47 43t-50.5 17t-51 -15t-49.5 -42t-39 -60.5t-15.5 -70.5zM625 684 q0 20 5 43t14 42t22.5 32.5t29.5 13.5q35 0 56.5 -41t21.5 -102q0 -29 -16 -39q-10 -4 -23.5 -7t-34.5 -3q-25 0 -42 3t-21 9q-12 12 -12 49z" />
<glyph unicode="B" horiz-adv-x="1214" d="M59 139q0 -84 37 -111.5t119 -27.5h467q139 0 241.5 33t169 91t99.5 137t33 173q0 86 -27 141.5t-58.5 93.5t-58 64.5t-26.5 54.5q0 29 16 48.5t34.5 47t35 76t16.5 134.5q0 106 -41 177.5t-109.5 116t-161.5 62.5t-198 18h-448q-47 0 -74 -9t-42 -29.5t-19.5 -52 t-4.5 -77.5v-1161zM152 295v909q0 92 45 130t129 38h370q172 0 262.5 -77.5t90.5 -194.5q0 -59 -13.5 -99t-29 -73t-28.5 -65t-13 -72q0 -57 23.5 -90t52 -67t52 -82t23.5 -136q0 -94 -48 -153.5t-114.5 -94.5t-138.5 -48.5t-117 -13.5h-395q-51 0 -80.5 18.5t-45 46.5 t-20.5 60.5t-5 63.5zM369 455q0 -47 20.5 -84t55 -64.5t79.5 -42t94 -14.5q68 0 118 19.5t84 51t50.5 71.5t16.5 81q0 49 -25.5 86t-66.5 62.5t-93.5 38t-105.5 12.5q-43 0 -84 -14.5t-72.5 -42t-51 -68.5t-19.5 -92zM371 1028q0 -29 19.5 -62.5t50 -63.5t67.5 -49t72 -19 q39 0 82 14t77.5 39.5t57 61.5t22.5 79q0 37 -17.5 72t-48 62.5t-74.5 44t-99 16.5q-45 0 -84 -17.5t-67 -45t-43 -62.5t-15 -70zM446 406v112q0 29 16.5 42t41.5 13h174q18 0 44 -5t49.5 -19t40.5 -36.5t17 -55.5q0 -37 -15 -59.5t-37.5 -36t-47 -18.5t-43.5 -5h-184 q-35 0 -45.5 19.5t-10.5 48.5zM446 963v108q0 35 20.5 47t59.5 12h119q16 0 36.5 -6t39 -20t31 -34.5t12.5 -51.5t-17.5 -51.5t-40 -32.5t-48 -17.5t-40.5 -5.5h-131q-16 0 -28.5 11.5t-12.5 40.5z" />
<glyph unicode="C" horiz-adv-x="1251" d="M-20 721q0 -190 64.5 -333.5t172 -238t249.5 -141.5t296 -47q106 0 200.5 28.5t165 70.5t111.5 89t41 84q0 20 -34 58.5t-79 75t-89 63.5t-64 27q-31 0 -52.5 -20.5t-51 -46t-73.5 -46t-120 -20.5q-55 0 -114.5 23.5t-110 73.5t-83 128t-32.5 186q0 106 36 183t90 126.5 t118.5 72t119.5 22.5q53 0 88 -14.5t62 -33t50.5 -33t55.5 -14.5q27 0 70 27t84 63.5t70.5 74.5t29.5 59q0 25 -34.5 64.5t-99 76.5t-158 63.5t-207.5 26.5q-74 0 -159 -14.5t-171 -48t-166 -91t-141.5 -143.5t-98 -204.5t-36.5 -276.5zM74 752q0 137 46 255.5t133 205.5 t214 137.5t291 50.5q29 0 77 -4t94 -17.5t78.5 -39t32.5 -66.5q0 -35 -18 -57.5t-76 -22.5q-29 0 -48 4t-41.5 10t-53.5 10.5t-78 4.5q-59 0 -134 -29t-141.5 -89.5t-112.5 -155.5t-46 -228q0 -96 37 -181t96 -149.5t137 -102.5t158 -38q43 0 76.5 7t63.5 16.5t59.5 17.5 t64.5 8q41 0 70.5 -14.5t29.5 -67.5q0 -37 -29.5 -65.5t-78.5 -47t-112.5 -27.5t-133.5 -9q-47 0 -112.5 10t-139.5 37.5t-145.5 77t-129 125t-93 182t-35.5 252.5z" />
<glyph unicode="D" horiz-adv-x="1396" d="M59 145q0 -49 11.5 -77.5t32 -44t51 -19.5t71.5 -4h457q37 0 105.5 11.5t150.5 42t166 82.5t153.5 134t113.5 197.5t44 271.5q0 174 -50 297t-129 204t-174 127t-186.5 69.5t-165 28.5t-108.5 5h-405q-78 0 -108 -34.5t-30 -106.5v-1184zM154 324v870q0 35 8 67.5 t26.5 57t50 39t80.5 14.5h361q37 0 98.5 -9t133 -33.5t143 -68.5t131 -115t96.5 -172.5t37 -240.5q0 -137 -41 -237.5t-104.5 -170t-140.5 -112.5t-148.5 -67.5t-129 -33t-81.5 -8.5h-385q-45 0 -72 18.5t-41 49.5t-18 70t-4 82zM352 561q0 -63 21.5 -115.5t58.5 -89.5 t84 -57t98 -20q98 0 186.5 35.5t155 97t106.5 144.5t40 179q0 121 -49 209t-123 144.5t-158 84t-154 27.5q-43 0 -90 -13t-86 -44t-64.5 -82t-25.5 -127v-373zM453 436v613q0 31 15 46t60 15h109q43 0 107.5 -18.5t126 -62.5t105.5 -116t44 -178q0 -80 -29.5 -148.5 t-83 -118.5t-131.5 -79t-172 -29l-100 -4q-31 0 -41 17.5t-10 62.5z" />
<glyph unicode="E" horiz-adv-x="1081" d="M59 125q0 -31 4.5 -53.5t19.5 -39t44 -24.5t76 -8h749q76 0 113 20.5t37 92.5v137q0 59 -38 83.5t-118 24.5h-418q-31 0 -50 -3t-19 -13q0 -25 29.5 -40t82 -24.5t121 -12.5t146.5 -3q51 0 83.5 -17.5t32.5 -60.5q0 -27 -12 -43t-30.5 -24t-40 -10.5t-40.5 -2.5l-532 -2 q-74 0 -107.5 36t-33.5 85v1010q0 70 37.5 105.5t140.5 35.5h471q70 0 91.5 -23.5t21.5 -64.5q0 -47 -41 -60.5t-93 -13.5h-61q-78 0 -127 -6t-80 -16t-47 -22.5t-29 -24.5q-16 -16 -39.5 -47t-23.5 -74q0 -29 14.5 -46.5t24.5 -17.5q8 0 8 17v49q0 53 24.5 70.5t84.5 17.5 h393q45 0 71.5 10.5t41 25.5t19.5 34.5t5 38.5v122q0 25 -5 48.5t-20.5 40t-44 26.5t-75.5 10h-697q-57 0 -90 -9t-49 -27.5t-20.5 -46t-4.5 -62.5v-1198zM371 469q0 -29 16 -56.5t29 -27.5q8 0 14 22.5t6 49.5v37q0 43 21.5 58t66.5 15h375q53 0 95 22t42 75v155 q0 66 -42 84.5t-103 18.5l-342 6q-14 0 -46 -5t-40 -18q0 -14 18.5 -27.5t46 -22.5t62.5 -14t65 -5q131 0 180.5 -15.5t49.5 -66.5q0 -55 -45 -70.5t-109 -15.5h-90q-68 0 -119 -19.5t-85 -48.5t-50 -64.5t-16 -66.5z" />
<glyph unicode="F" horiz-adv-x="1038" d="M59 166q0 -88 22.5 -127t98.5 -39h139q43 0 68 9t38 28.5t17 50.5t4 74v295q0 49 21.5 68.5t103.5 19.5h310q80 0 109.5 26.5t29.5 83.5v136q0 70 -42 89t-108 19h-346q-47 0 -62.5 22.5t-15.5 88.5q0 63 19.5 79.5t87.5 16.5h371q47 0 75.5 9t44 26.5t20.5 39t5 46.5 v125q0 72 -43 93t-119 21h-717q-66 0 -98.5 -31.5t-32.5 -121.5v-1147zM160 295v915q0 96 53 129t145 33h457q57 0 81 -23.5t24 -58.5q0 -47 -61.5 -63.5t-178.5 -16.5q-92 0 -151.5 -23.5t-93.5 -55t-46 -64.5t-12 -49q0 -35 16.5 -73t52 -68.5t94 -51t142.5 -20.5 q92 0 139 -13.5t47 -68.5q0 -59 -57 -71.5t-162 -12.5q-109 0 -169 -38t-89 -91t-34 -112.5t-5 -102.5q0 -31 -5 -58.5t-16.5 -50t-31.5 -36t-51 -13.5q-33 0 -51.5 17.5t-26.5 43t-9 52t-1 45.5z" />
<glyph unicode="G" horiz-adv-x="1423" d="M0 727q0 -203 68.5 -348.5t181 -238.5t253 -136t285.5 -43q29 0 86.5 4t126 13.5t140 27t130 42t96.5 58t38 78.5v568q0 47 -8 75.5t-26.5 45t-48.5 22.5t-73 6h-305q-86 0 -123 -21.5t-37 -97.5v-120q0 -33 4.5 -55.5t18.5 -36t42 -18.5t75 -5q53 0 80.5 -14.5 t27.5 -71.5q0 -43 -22.5 -71t-57 -43t-78 -20t-86.5 -5q-68 0 -138 24.5t-126.5 75.5t-92.5 130t-36 187q0 104 37 180t93.5 125.5t126 73t136.5 23.5q80 0 129.5 -18.5t83 -40t59 -40t56.5 -18.5q20 0 60.5 33t78 73.5t66.5 80.5t29 55q0 53 -52.5 96t-133.5 72.5t-181 46 t-199 16.5q-82 0 -172 -15.5t-177 -51t-166 -94t-138 -144.5t-95 -200.5t-36 -264.5zM98 743q0 143 47.5 265t135.5 210.5t211.5 137.5t275.5 49q57 0 127 -5t129 -20.5t100 -42t41 -71.5t-35.5 -61.5t-66.5 -16.5q-47 0 -73.5 6t-53.5 14.5t-60.5 14.5t-91.5 6 q-88 0 -173 -36t-151.5 -100.5t-107.5 -155.5t-41 -204q0 -119 46 -211t117 -154.5t154 -95t156 -32.5q61 0 116.5 16t95.5 46t63.5 70t23.5 89q0 51 -24.5 81.5t-53 55.5t-53 52.5t-24.5 72.5q0 43 29.5 60.5t66.5 17.5h147q18 0 42 -5t44.5 -28t35 -67t14.5 -123v-211 q0 -80 -23.5 -136.5t-81 -92.5t-153 -53t-238.5 -17q-145 0 -274 35.5t-226.5 116.5t-155 210t-57.5 313z" />
<glyph unicode="H" horiz-adv-x="1398" d="M59 139q0 -63 23.5 -101t85.5 -38h151q72 0 97.5 33t25.5 123v338q0 53 15.5 76.5t62.5 23.5h352q43 0 62.5 -24.5t19.5 -86.5v-350q0 -74 28 -103.5t105 -29.5h115q45 0 73 11.5t41 33t17 54t4 75.5v1165q0 80 -33.5 103.5t-91.5 23.5h-127q-78 0 -104.5 -35.5 t-26.5 -107.5v-289q0 -39 -12 -60.5t-65 -21.5h-351q-53 0 -68.5 28t-15.5 75v258q0 49 -9 79.5t-24.5 47t-37 21.5t-45.5 5h-146q-59 0 -90 -29.5t-31 -119.5v-1178zM154 307v918q0 47 21.5 80.5t72.5 33.5q37 0 57.5 -20.5t29.5 -50t11 -64.5t2 -63q0 -102 40 -159.5 t95.5 -86.5t113.5 -36t93 -7q39 0 99.5 5t117 35t96 93.5t39.5 177.5q0 29 3.5 60.5t13.5 57.5t28.5 42t49.5 16q72 0 88 -56t16 -148v-818q0 -23 -3 -53.5t-13.5 -58t-29.5 -47t-52 -19.5q-63 0 -82 57.5t-19 204.5q0 145 -86 223t-260 78q-180 0 -262 -80.5t-82 -226.5 q0 -47 -3 -93t-13 -81t-29.5 -56.5t-52.5 -21.5q-66 0 -83 36t-17 128z" />
<glyph unicode="I" horiz-adv-x="516" d="M66 158q0 -90 24.5 -124t104.5 -34h149q70 0 88.5 43t18.5 121v1153q0 31 -3.5 56.5t-16.5 46t-41 31.5t-75 11h-125q-82 0 -103 -38t-21 -117v-1149zM162 274v893q0 90 22.5 127t77.5 37q61 0 77.5 -47t16.5 -127v-872q0 -63 -21.5 -104.5t-74.5 -41.5q-63 0 -80.5 38 t-17.5 97z" />
<glyph unicode="J" horiz-adv-x="962" d="M-20 293q0 -49 27.5 -107.5t83.5 -108.5t142 -83t201 -33q135 0 220 38t139 97q39 43 61.5 103.5t34.5 125t15 124t3 102.5v766q0 90 -29.5 117.5t-89.5 27.5h-139q-70 0 -100.5 -32.5t-30.5 -124.5v-822q0 -29 -5 -57.5t-16.5 -51t-31 -36.5t-47.5 -14q-29 0 -47.5 14 t-33.5 32.5t-31.5 33t-43.5 14.5q-20 0 -67.5 -6t-94.5 -21.5t-83.5 -39t-36.5 -58.5zM156 215q0 74 90 74q29 0 59.5 -11.5t83.5 -11.5q78 0 123 43t68.5 102.5t30.5 122t7 99.5v541q0 84 20.5 124.5t80.5 40.5q27 0 43 -16t26.5 -42t14.5 -57.5t4 -62.5v-565q0 -41 1 -104 v-9q0 -58 -11 -118q-10 -55 -32 -108.5t-62.5 -94.5t-105.5 -65.5t-159 -24.5q-74 0 -128 13t-88 34.5t-50 46t-16 49.5z" />
<glyph unicode="K" horiz-adv-x="1357" d="M59 139q0 -53 10.5 -80.5t30 -41t46 -15.5t57.5 -2h133q63 0 86.5 33t23.5 110v281q0 33 8.5 54.5t32.5 21.5q29 0 60 -35t90 -107l188 -225q41 -47 67 -74.5t47.5 -41t46 -16.5t63.5 -3h237q49 0 86 17.5t37 50.5q0 10 -22.5 40.5t-59.5 71.5l-432 481q-35 39 -54.5 68 t-19.5 51q0 20 18.5 50t51.5 63l313 326q61 66 105.5 115.5t44.5 72.5q0 35 -34 46t-106 11h-243q-29 0 -76 -36.5t-98 -92.5l-195 -215q-35 -39 -61.5 -62.5t-38.5 -23.5q-47 0 -51.5 31t-4.5 78v194q0 61 -19 93t-95 32h-172q-63 0 -82 -42t-19 -105v-1174zM160 338v811 q0 57 7 94t20.5 57.5t32 27.5t40.5 7q53 0 75.5 -40t22.5 -144q0 -53 17.5 -89t42 -58.5t52.5 -31.5t48 -9q31 0 68 28.5t79 71.5t86 93t90 93t91 72t88 29q23 0 45 -13.5t22 -52.5q0 -47 -52 -103.5t-115.5 -121t-115.5 -133t-52 -138.5q0 -49 29.5 -103t74.5 -110.5 t96.5 -110.5t96.5 -103.5t74.5 -92t29.5 -73.5q0 -27 -15.5 -58t-62.5 -31t-98 36t-102.5 89.5t-102.5 116t-99 115.5t-93 89t-82 36q-57 0 -87 -39t-43.5 -91t-14.5 -105.5t-1 -84.5q0 -23 -4 -45t-14 -41.5t-28.5 -32t-47.5 -12.5q-59 0 -78.5 48t-19.5 153z" />
<glyph unicode="L" horiz-adv-x="1026" d="M59 139q0 -47 10.5 -74.5t30 -42t48 -18.5t65.5 -4h678q76 0 96.5 31t20.5 86v129q0 74 -36 91t-98 17h-350q-41 0 -58 21.5t-17 73.5v864q0 47 -8.5 76.5t-25 46t-41 21.5t-59.5 5h-135q-70 0 -95.5 -34.5t-25.5 -122.5v-1166zM158 305v875q0 66 22.5 109.5t73.5 43.5 q53 0 76.5 -45t23.5 -104v-635q0 -41 18.5 -97.5t65.5 -103.5q51 -53 126 -70.5t171 -17.5q29 0 55.5 -4t45.5 -20q22 -19 22 -58q0 -53 -40 -63.5t-103 -10.5h-418q-88 0 -113.5 55.5t-25.5 145.5z" />
<glyph unicode="M" horiz-adv-x="1757" d="M59 143q0 -86 27 -114.5t66 -28.5h167q72 0 96.5 38t24.5 124v422q0 29 6.5 51t34.5 22q16 0 38 -49t46 -127l86 -262q29 -90 46.5 -135t43.5 -66q20 -14 52 -17t75 -3q41 0 75 4t54 18q29 20 47.5 64.5t47.5 128.5l98 297q25 72 44 117t42 45q29 0 34 -20.5t5 -67.5 v-451q0 -80 30.5 -106.5t102.5 -26.5h123q43 0 67.5 12.5t38 35t17.5 51t4 63.5v1143q0 53 -10.5 84.5t-30 48t-47 20.5t-64.5 4h-274q-41 0 -64.5 -8t-40 -27.5t-31 -54.5t-32.5 -88l-133 -385q-29 -82 -45.5 -119t-48.5 -37q-27 0 -44.5 37t-44.5 113l-126 375 q-18 53 -34 90t-36.5 60.5t-49 33.5t-73.5 10h-276q-49 0 -76 -12t-39 -34.5t-15.5 -54.5t-3.5 -73v-1145zM158 285v948q0 63 48 104t146 41q78 0 125 -30.5t77 -80.5t48.5 -112.5t40.5 -124.5q47 -133 78 -207.5t54.5 -111.5t46 -46.5t52.5 -9.5q37 0 65 14.5t54.5 59.5 t58 127t76.5 215q31 90 55.5 149.5t53.5 93.5t67.5 47t98.5 13q98 0 146 -34.5t48 -139.5v-895q0 -76 -19 -119t-75 -43q-29 0 -47 12.5t-28.5 34t-13.5 49t-3 60.5v135q0 76 -5 150.5t-18.5 134t-36 95.5t-57.5 36t-63.5 -33t-53 -85t-47 -118.5t-45.5 -136.5 q-23 -66 -44 -126t-46.5 -108t-55.5 -77t-65 -29q-39 0 -68.5 28t-54 74t-46 106.5t-39.5 123.5q-23 68 -44.5 134.5t-46 118.5t-54 85t-68.5 33q-31 0 -52.5 -37t-35 -94.5t-18.5 -127t-5 -132.5v-189q0 -20 -3 -40.5t-12.5 -38t-27.5 -28t-47 -10.5q-59 0 -76.5 42 t-17.5 100z" />
<glyph unicode="N" horiz-adv-x="1511" d="M59 129q0 -84 34 -106.5t87 -22.5h150q78 0 98.5 44t20.5 112v540q0 16 8 38t35 22t49 -33t69 -113l244 -403q49 -84 76.5 -127t62.5 -62q18 -10 42 -14t59 -4h233q70 0 96.5 36t26.5 126v1157q0 74 -24.5 108.5t-110.5 34.5h-123q-61 0 -95 -25.5t-34 -103.5v-516 q0 -49 -7 -72.5t-30 -23.5q-25 0 -54.5 39t-70.5 106l-244 412q-39 63 -64.5 100t-47 55.5t-46 23.5t-59.5 5h-233q-49 0 -79 -9t-45 -27.5t-19.5 -46t-4.5 -62.5v-1188zM158 285v927q0 57 17.5 89t44 47.5t58 17.5t60.5 2q45 0 81 -6t67.5 -26.5t63.5 -61.5t73 -111 l196 -336q53 -90 107.5 -148t109.5 -58q33 0 54.5 17t35.5 44q18 35 25.5 82t7.5 88v328q0 23 5 48t15.5 47.5t29 37t44.5 14.5q53 0 74 -42t21 -111v-881q0 -51 -7.5 -88t-27 -59.5t-53 -34t-86.5 -11.5q-57 0 -101 19q-41 16 -75.5 54t-75.5 103l-203 338 q-33 55 -65.5 103.5t-63.5 85.5t-58.5 58.5t-52.5 21.5q-49 0 -88 -60.5t-39 -152.5v-375q0 -66 -23.5 -109t-76.5 -43q-41 0 -67.5 36t-26.5 106z" />
<glyph unicode="O" horiz-adv-x="1589" d="M10 727q0 -207 72 -352.5t186.5 -237.5t256 -134t280.5 -42q154 0 294 48t246.5 144.5t170 241.5t63.5 340q0 203 -67.5 347.5t-178 237.5t-250 137t-282.5 44q-172 0 -317.5 -53t-251 -153.5t-164 -244t-58.5 -323.5zM113 745q0 147 50 269.5t141 208.5t217 134t280 48 q168 0 296 -51t214 -142.5t129 -213.5t43 -263t-46 -263t-133 -212t-215 -142t-292 -52q-180 0 -309.5 57t-212 152.5t-122.5 218t-40 251.5zM328 733q0 -117 42 -208t109.5 -153.5t151.5 -95t170 -32.5q94 0 178 37.5t148.5 105.5t102.5 158t38 194t-39 193.5t-104.5 156 t-150.5 103.5t-175 37q-86 0 -170 -34t-150.5 -97.5t-108.5 -155.5t-42 -209zM410 743q0 88 32.5 161t87 125t124 81t141.5 29q78 0 148.5 -28t123.5 -80t85 -129t32 -175q0 -113 -41 -189.5t-100.5 -124.5t-128 -69.5t-123.5 -21.5q-70 0 -137.5 26.5t-122 79.5t-88 132 t-33.5 183z" />
<glyph unicode="P" horiz-adv-x="1185" d="M70 131q0 -84 35.5 -108.5t101.5 -24.5h125q74 0 99.5 40t25.5 116v315q0 39 16 57.5t62 18.5h151q66 0 152 14t163.5 63.5t131 140.5t53.5 245q0 156 -58.5 245.5t-140.5 137t-172 60.5t-151 13h-455q-45 0 -71.5 -7t-42 -23.5t-20.5 -46t-5 -72.5v-1184zM168 301v911 q0 156 139 156h373q51 0 120.5 -13.5t133 -51t107.5 -108t44 -185.5q0 -78 -24.5 -144.5t-75.5 -116t-128 -77t-181 -27.5q-98 0 -159.5 -28.5t-95.5 -74.5t-46.5 -105.5t-12.5 -123.5q0 -80 -24.5 -127t-81.5 -47q-53 0 -70.5 45t-17.5 117zM375 1008q0 -43 19.5 -81 t50 -67t70.5 -45t81 -16q57 0 102 18.5t76 49t47.5 69.5t16.5 78t-17.5 75.5t-50.5 65.5t-81 46.5t-107 17.5q-41 0 -78 -17.5t-65.5 -46.5t-46 -66.5t-17.5 -80.5zM457 942v117q0 39 17.5 53t66.5 14h82q29 0 57.5 -5t51 -20.5t35.5 -42t13 -67.5q0 -23 -13 -42 t-34.5 -34.5t-47.5 -24.5t-50 -9h-125q-53 0 -53 61z" />
<glyph unicode="Q" horiz-adv-x="1576" d="M10 729q0 -182 66.5 -321.5t176 -233.5t248 -143t283.5 -49q37 0 59.5 3t44 7t45 7t60.5 3q45 0 69.5 -21.5t43 -47t39 -47t57.5 -21.5q27 0 68 19.5t80 47t67.5 57t28.5 52.5q0 20 -10.5 35.5t-21.5 31t-21.5 35t-10.5 47.5q0 37 29 75t63.5 98.5t63.5 154t29 240.5 q0 190 -73 330.5t-185.5 232.5t-250.5 137t-270 45q-129 0 -267 -43t-251.5 -137t-186.5 -240.5t-73 -353.5zM111 752q0 127 33.5 226t88 172t125 122t145.5 78.5t145.5 43t127.5 13.5q174 0 303 -54.5t215 -146.5t129 -213t43 -252q0 -119 -26.5 -195.5t-58 -138 t-58.5 -118t-27 -135.5q0 -16 -2 -37t-11 -39.5t-30.5 -30.5t-58.5 -12q-39 0 -66.5 10t-66.5 27q-47 16 -90 20q-17 1 -36 1t-40 -1q-41 -2 -100 -2q-106 0 -227.5 33t-222.5 109.5t-167.5 203.5t-66.5 316zM324 735q0 -90 36.5 -170t92 -140t120 -96t121.5 -36 q23 0 44.5 11t38 25.5t29.5 30t19 21.5q14 14 22.5 37.5t19 46t27.5 39t50 16.5q18 0 28.5 -2l21 -4t24.5 -4t39 -2q27 0 59.5 9t62 37t50 76t20.5 128q0 115 -49 203t-118.5 148t-145.5 91t-131 31q-106 0 -194.5 -41t-152 -108.5t-99 -157.5t-35.5 -189zM406 752 q0 102 40.5 175.5t100 122t127 71t121.5 22.5q74 0 141.5 -34t119.5 -90t83.5 -128t31.5 -148q0 -29 -3 -57.5t-12 -52t-25.5 -38.5t-43.5 -15t-42 16t-28 34.5t-31.5 35t-53.5 16.5q-16 0 -53 -15.5t-76 -37t-67.5 -47t-28.5 -45.5q0 -33 7 -50.5t14 -30t14.5 -25.5 t7.5 -36q0 -20 -17.5 -28.5t-34.5 -8.5q-20 0 -68 22.5t-98.5 71t-88 122t-37.5 178.5z" />
<glyph unicode="R" horiz-adv-x="1214" d="M59 129q0 -41 12.5 -66.5t31 -39t41 -17.5t42.5 -4h146q72 0 93 33t21 119v276q0 18 1.5 37.5t5.5 36t11 28t21 11.5q25 0 40.5 -8.5t35 -39t48 -90t81.5 -161.5q41 -80 67.5 -128t50 -74t48.5 -33t64 -7h206q16 0 35 2t35 9t27.5 21t11.5 34q0 18 -20.5 56t-50 86 t-64.5 101.5t-64.5 103.5t-50 92t-20.5 66q0 25 36.5 50.5t79.5 70.5t80 120t37 202q0 141 -50 229t-130 137.5t-176.5 66.5t-188.5 17h-450q-49 0 -77 -10t-43 -31.5t-19.5 -56.5t-4.5 -82v-1157zM158 352v822q0 115 39 155.5t120 40.5h365q51 0 123 -13.5t136.5 -49 t109.5 -100.5t45 -167q0 -80 -15.5 -134t-39 -93t-50 -67.5t-50 -55t-39 -59.5t-15.5 -78q0 -37 23.5 -85t51 -97t51 -94.5t23.5 -75.5q0 -35 -21.5 -56.5t-56.5 -21.5q-49 0 -85.5 35t-68.5 86t-61.5 111.5t-61.5 111.5t-71 86t-90 35q-25 0 -58.5 -19.5t-55.5 -42.5 q-29 -29 -41.5 -89t-12.5 -146q0 -53 -9 -83t-23.5 -46.5t-32 -20.5t-33.5 -4q-29 0 -48.5 18.5t-29.5 49.5t-14 68.5t-4 78.5zM371 1010q0 -31 20.5 -66t53 -64.5t72.5 -49t79 -19.5q57 0 105.5 17.5t83 47t54 66.5t19.5 76t-20.5 74.5t-57.5 64.5t-87 46.5t-109 17.5 q-41 0 -80 -16.5t-68.5 -46.5t-47 -67.5t-17.5 -80.5zM451 946v117q0 39 21.5 53t68.5 14h84q29 0 59.5 -7t55 -21.5t41 -37.5t16.5 -56q0 -29 -15.5 -51.5t-38 -37t-48 -21.5t-46.5 -7q-25 0 -67.5 -2t-69.5 -2t-44 13t-17 46z" />
<glyph unicode="S" horiz-adv-x="1099" d="M20 176q0 -29 35 -64.5t98.5 -69.5t153.5 -56.5t199 -22.5q49 0 111.5 8.5t126 30t125 57t108.5 92t75.5 134.5t28.5 180q0 121 -46 197.5t-114.5 125t-149.5 76t-149.5 51t-114.5 51t-46 76.5q0 29 15.5 47.5t39 29.5t51 16.5t49.5 5.5q43 0 74 -12.5t53.5 -27t42 -26.5 t37.5 -12q25 0 65 32.5t76.5 74.5t64.5 82t28 53q0 43 -41 79.5t-103.5 63.5t-140.5 41t-151 14q-84 0 -183.5 -22.5t-187.5 -80t-146.5 -155.5t-58.5 -248q0 -111 47 -183.5t117 -119.5t152.5 -75.5t152.5 -53t117 -52.5t47 -73q0 -39 -18.5 -61.5t-44 -34.5t-54.5 -15 t-49 -3q-45 0 -81 17t-65.5 38.5t-55 40t-50.5 18.5q-23 0 -62.5 -32.5t-78.5 -75.5t-69 -87t-30 -69zM154 1024q0 94 36.5 165t100 117t148.5 68.5t182 22.5q25 0 65.5 -1t79.5 -10.5t67.5 -31t28.5 -62.5q0 -47 -50 -57t-134 -10q-31 0 -76 -4t-87 -22.5t-72.5 -55.5 t-30.5 -101q0 -76 41 -118.5t103 -71.5t135 -54.5t135.5 -64.5t103.5 -103.5t41 -170.5q0 -115 -43 -189.5t-113 -120t-155 -62.5t-166 -17q-84 0 -138.5 13t-87 33.5t-46 46t-13.5 50.5q0 72 113 72q45 0 83.5 -15.5t104.5 -15.5q43 0 83 12.5t70.5 37t49 61t18.5 88.5 q0 68 -43 109.5t-106.5 73.5t-139 60.5t-139 69.5t-106.5 101.5t-43 156.5z" />
<glyph unicode="T" horiz-adv-x="1232" d="M14 1227q0 -63 30 -87t114 -24h186q51 0 65.5 -23.5t14.5 -82.5v-856q0 -88 28.5 -121t88.5 -33h166q57 0 81.5 39t24.5 115v878q0 53 21.5 68.5t66.5 15.5h191q68 0 96.5 29t28.5 80v129q0 70 -42 89t-118 19h-903q-29 0 -53.5 -4t-44 -16t-31 -37t-11.5 -66v-112z M174 1294q0 41 31 56.5t114 15.5q16 0 50 2t76 5t87.5 6t85.5 3q35 0 78 -3t85 -6t76 -5t52 -2q29 0 56.5 -2t48 -9t33 -21.5t12.5 -41.5q0 -37 -26.5 -51t-66.5 -23.5t-84 -22.5t-77 -46q-6 -6 -21.5 -19.5t-31 -40t-26.5 -69.5t-11 -111v-614q0 -92 -28 -125t-73 -33 q-43 0 -69.5 33t-26.5 119v622q0 68 -13 112t-29.5 72.5t-33 43t-24.5 22.5q-25 25 -66 34t-81 18.5t-68.5 26.5t-28.5 54z" />
<glyph unicode="U" horiz-adv-x="1361" d="M59 553q0 -115 36 -220.5t111 -187.5t193.5 -131t284.5 -49q133 0 231.5 32t167 84t111.5 117.5t67.5 134t33 134.5t8.5 115v747q0 80 -32 107.5t-97 27.5h-144q-51 0 -84 -25.5t-33 -113.5v-729q0 -51 -16 -99t-46 -85t-73 -59.5t-98 -22.5q-109 0 -171.5 77.5 t-62.5 196.5v701q0 55 -9 87.5t-28.5 48t-48 19.5t-67.5 4h-117q-76 0 -96.5 -40t-20.5 -111v-760zM154 629v583q0 59 23.5 91t70.5 32q100 0 100 -159v-519q0 -82 24.5 -154.5t67.5 -126.5t103.5 -86t132.5 -32q76 0 138.5 36t107.5 96.5t68.5 139t23.5 166.5v486 q0 70 17.5 111.5t76.5 41.5q51 0 74.5 -41t23.5 -106v-547q0 -111 -26.5 -213t-88 -182t-163 -128t-252.5 -48q-147 0 -247.5 45t-162 121.5t-87 178t-25.5 214.5z" />
<glyph unicode="V" horiz-adv-x="1325" d="M-41 1391q0 -20 11.5 -56.5t41 -112t81.5 -205.5t136 -339q80 -203 129.5 -333t84 -207t63.5 -106.5t65 -29.5h168q35 0 61.5 29.5t59.5 102.5t80 197t127 312q90 215 147.5 356.5t91 227.5t46 124t12.5 46q0 41 -37 54t-90 13h-139q-55 0 -85 -15t-53.5 -57t-49 -116 t-70.5 -191q-37 -98 -60.5 -166.5t-41 -111.5t-34 -62.5t-40.5 -19.5q-20 0 -37 22.5t-33 66.5t-37.5 108.5t-52.5 148.5q-47 125 -75 202t-49.5 118t-45 55t-60.5 14h-217q-47 0 -72.5 -13t-25.5 -56zM123 1264q0 39 17.5 63.5t68.5 24.5q53 0 92 -52.5t72 -132.5 t63.5 -171t63 -171t73.5 -132t97 -52q51 0 91 52t74.5 130t66.5 169t63.5 169t67.5 130t79 52q8 0 23.5 -3t29 -11t23.5 -23t10 -40q0 -27 -20.5 -87.5t-54 -145.5t-76.5 -187.5t-89 -212.5q-39 -94 -71.5 -184.5t-67.5 -160t-74.5 -111.5t-91.5 -42q-55 0 -94 41 t-72.5 108.5t-65.5 156.5t-71 188q-55 139 -98 241.5t-71.5 178t-43 127t-14.5 88.5z" />
<glyph unicode="W" horiz-adv-x="1941" d="M-31 1380q0 -14 16.5 -72.5t43 -147.5t60.5 -198.5t69 -224.5q72 -242 110.5 -386t66 -222t53.5 -102.5t69 -24.5h143q43 0 69.5 16.5t46 57.5t40 111.5t55.5 179.5q39 123 61.5 197.5t38 116.5t28.5 56.5t34 14.5q25 0 40 -27t30.5 -76t34 -119.5t46.5 -158.5 q39 -121 60.5 -193t42 -110.5t50.5 -51t85 -12.5h119q51 0 79.5 24.5t55 98.5t62.5 209t102 356q51 172 87 294t59.5 203t34.5 124t11 57q0 59 -33.5 76.5t-76.5 17.5h-133q-57 0 -88 -18.5t-49.5 -59t-32 -105t-35.5 -157.5q-27 -104 -42.5 -169.5t-26.5 -103.5 t-22.5 -52.5t-29.5 -14.5q-23 0 -36 15.5t-26.5 54.5t-32 106.5t-51.5 174.5q-35 106 -55 171.5t-40.5 99.5t-46 45t-68.5 11h-136q-55 0 -84.5 -22.5t-49 -63.5t-35 -101.5t-40.5 -133.5q-31 -92 -49 -155.5t-32.5 -104.5t-26.5 -59.5t-33 -18.5q-20 0 -35.5 26.5t-29 72.5 t-26.5 107.5t-30 131.5q-23 92 -38 154.5t-34.5 100.5t-51 53t-87.5 15h-159q-55 0 -78 -21.5t-23 -62.5zM113 1251q0 39 18.5 65.5t65.5 26.5q53 0 85.5 -47t55 -118.5t39 -154.5t40 -154.5t57.5 -119t89 -47.5q53 0 88 49.5t60.5 122t47 157.5t50.5 158t69 122t101 49 t100 -50t68 -126t50.5 -164t48 -164t62 -126t93.5 -50q49 0 83 48t58.5 122t44 158t40 157.5t47 121.5t67.5 48q61 0 72.5 -27.5t11.5 -80.5q0 -23 -9.5 -60t-26.5 -96t-44 -147t-62 -213q-39 -135 -66.5 -243t-56 -183.5t-64.5 -115.5t-87 -40q-59 0 -98 54.5t-69 136 t-55.5 177t-55 177.5t-68.5 136t-96 54q-55 0 -92 -54t-66 -135t-53.5 -175t-54 -175t-68.5 -135.5t-98 -54.5q-45 0 -72 19.5t-54.5 85t-63.5 187.5t-97 329q-39 133 -65.5 221t-42 143.5t-21.5 85t-6 45.5z" />
<glyph unicode="X" horiz-adv-x="1349" d="M-41 70q0 -49 27.5 -59.5t81.5 -10.5h182q43 0 71.5 11.5t52 37t49.5 67.5t62 103q41 68 65.5 112t42 69.5t32 37t37.5 11.5q20 0 32.5 -9.5t27.5 -34t38.5 -68.5t68.5 -114q39 -63 67 -106t53.5 -70t54 -38t71.5 -11h221q35 0 65 18.5t30 53.5q0 18 -32 70.5t-81 120 t-104.5 144t-104.5 148.5t-81 129t-32 86t28 80t71 114.5t91 132t91 129t70.5 107.5t27.5 68q0 33 -24.5 50t-87.5 17h-222q-41 0 -73.5 -27.5t-61 -70.5t-52 -91t-47.5 -91t-47.5 -71t-49.5 -28q-29 0 -53.5 28t-48 71t-48 91t-52.5 91t-60.5 70.5t-73.5 27.5h-228 q-66 0 -94 -17t-28 -58q0 -14 29.5 -60.5t72.5 -109t95 -134t95 -137t73 -117t30 -71.5t-31 -73.5t-78 -124t-101 -148.5t-101.5 -148.5t-78 -124t-30.5 -73.5zM168 197q0 31 21.5 72.5t52 91t68.5 102.5t69 106.5t52.5 104.5t21.5 96q0 61 -41 134t-90.5 143.5t-90.5 132 t-41 100.5q0 47 31 60.5t60 13.5q41 0 73.5 -24.5t61 -62.5t55.5 -82t55.5 -82t62.5 -62.5t79 -24.5t79.5 24.5t63.5 60.5t52.5 79t50 78.5t56 60t70.5 24.5q43 0 63.5 -13t20.5 -54q0 -45 -38.5 -102.5t-85 -124t-84 -140t-37.5 -149.5q0 -39 22.5 -87t56 -102.5 t72.5 -109.5t73 -104.5t56.5 -91t22.5 -68.5q0 -33 -22.5 -54.5t-69.5 -21.5q-45 0 -81 30.5t-68 76.5t-62.5 99.5t-64.5 99.5t-71.5 77t-85.5 31q-47 0 -84.5 -30t-70.5 -75t-61.5 -98t-59.5 -98.5t-64.5 -75t-74.5 -29.5q-29 0 -51.5 10.5t-22.5 57.5z" />
<glyph unicode="Y" horiz-adv-x="1292" d="M-41 1397q0 -14 37 -74.5t92 -143.5t120.5 -179.5t121 -181.5t92.5 -150.5t37 -85.5v-430q0 -88 27.5 -119t66.5 -31h186q68 0 87.5 50t19.5 118v416q0 23 36 86t90 146t116.5 176t117 175t90 143t35.5 81q0 37 -24.5 54t-104.5 17h-190q-43 0 -79 -29.5t-66.5 -75.5 t-58.5 -98.5t-54.5 -98.5t-51 -75.5t-49.5 -29.5t-49 29.5t-49 75.5t-51.5 98.5t-56 98.5t-63.5 75.5t-75 29.5h-217q-63 0 -98 -15t-35 -52zM168 1274q0 43 26.5 60.5t67.5 17.5t74 -28t60.5 -67.5t53 -88t56.5 -88.5t66.5 -67.5t84.5 -27.5q43 0 78 26.5t64.5 66.5 t58.5 86t57.5 86t60.5 66.5t71 26.5q35 0 58 -12t23 -61q0 -39 -27.5 -88t-69.5 -109.5t-91 -129.5t-91 -146.5t-69.5 -163.5t-27.5 -178v-162q0 -63 -18.5 -107.5t-82.5 -44.5q-98 0 -98 146v170q0 82 -28.5 166t-71.5 163.5t-92.5 154.5t-92.5 138.5t-71.5 113.5t-28.5 81 z" />
<glyph unicode="Z" horiz-adv-x="1196" d="M20 90q0 -41 34 -64.5t110 -23.5h895q20 0 41.5 4t38 16.5t27 37t10.5 65.5v111q0 31 -5.5 54t-21.5 38.5t-50 22.5t-89 7h-379q-25 0 -39 7.5t-14 35.5q0 35 83.5 136.5t231.5 277.5q90 106 142 170t79 103.5t34 66.5t7 59v117q0 45 -10 73t-30.5 41t-52.5 17t-73 4 h-807q-86 0 -115.5 -29.5t-29.5 -84.5v-138q0 -51 39 -73.5t104 -22.5h365q55 0 55 -53q0 -16 -26.5 -51t-69.5 -85t-96.5 -111.5t-108.5 -129.5q-88 -109 -142.5 -173t-85 -104t-41 -67t-10.5 -59v-195zM121 236q0 57 41 127.5t103.5 147.5t134 157t134 153.5t103.5 138 t41 111.5q0 25 -15.5 46.5t-50.5 56.5q-23 23 -62.5 33t-84.5 13q-34 2 -66 2h-21q-42 -1 -69 -1q-66 0 -88 23.5t-22 58.5q0 41 37.5 54t85.5 13q39 0 118.5 2t166.5 3t164 3t108 2q86 0 128 -38t42 -93q0 -41 -17.5 -82t-51.5 -87t-82 -103t-107 -133 q-61 -78 -112.5 -138.5t-88.5 -108.5t-58.5 -88t-21.5 -73q0 -51 25.5 -84t66.5 -52t90 -28q48 -8 96 -10q32 -1 60 -1h26q38 1 58 1q100 0 100 -88q0 -41 -43 -59.5t-102 -18.5h-611q-72 0 -113.5 31t-41.5 109z" />
<glyph unicode="[" horiz-adv-x="501" d="M4 -184q0 -72 29.5 -100.5t120.5 -28.5h225q63 0 91 33.5t28 82.5q0 57 -13.5 85t-33 39.5t-42 13.5t-42 8t-32.5 21.5t-13 56.5v1157q0 23 11 37t26.5 22t31 11t25.5 3q39 0 60.5 29t21.5 103q0 72 -39 95t-101 23h-204q-90 0 -120 -37.5t-30 -123.5v-1530zM111 -35 v1290q0 61 25.5 97.5t76.5 36.5q41 0 54.5 -21.5t13.5 -62.5q0 -31 -9.5 -52.5t-20.5 -48t-20.5 -65.5t-9.5 -107v-866q0 -72 9.5 -109t21.5 -63.5t21.5 -52t9.5 -70.5q0 -23 -11.5 -38t-52.5 -15q-66 0 -87 43t-21 104z" />
<glyph unicode="\" horiz-adv-x="972" d="M37 1422.5q-2 -17.5 1 -37t8 -37t11 -29.5q33 -74 79 -175.5t98.5 -219t107.5 -240.5t107.5 -238.5t96.5 -215t75 -167.5q8 -18 18 -44.5t24.5 -51t33 -42t40.5 -17.5q23 0 51.5 9t55 21.5t49 27t35.5 26.5q10 10 15 21.5t9 21.5v4q0 6 -3 20.5t-7 29.5t-7 28.5t-5 17.5 q-29 70 -76 177.5t-103.5 233.5t-117 259t-113.5 251t-95 211t-60 140q-8 18 -18.5 43t-25 47.5t-33 37.5t-42.5 15q-29 0 -59.5 -13t-59.5 -29.5t-50.5 -34t-27.5 -23.5q-10 -10 -12 -27.5zM200 1263.5q-5 24.5 17 47.5q18 20 37.5 11t36.5 -26q10 -10 34.5 -59t60.5 -127 t79 -176t91 -208t98.5 -222.5t97.5 -216.5q6 -12 13 -30.5t11 -38t4 -38.5q0 -18 -12 -30q-25 -25 -44 -10.5t-34 34.5q-6 6 -35.5 69.5t-73.5 161t-97.5 215t-104.5 231.5t-95 210t-69 151q-10 27 -15 51.5z" />
<glyph unicode="]" horiz-adv-x="720" d="M119 -195q0 -49 27.5 -84.5t91.5 -35.5h225q45 0 71.5 7t42 23.5t20.5 42t5 60.5v1528q0 84 -25.5 123.5t-113.5 39.5h-205q-61 0 -100 -23.5t-39 -94.5q0 -74 20.5 -102.5t59.5 -28.5q10 0 25.5 -3.5t30.5 -11.5t25.5 -22.5t10.5 -36.5v-1157q0 -45 -12.5 -62.5 t-32 -23.5t-42 -7.5t-42 -10.5t-31.5 -35.5t-12 -84.5zM326 -127q0 45 9 70.5t19.5 52.5t19.5 63.5t9 108.5v866q0 68 -8 107t-18.5 65.5t-18.5 48t-8 52.5q0 41 12 62.5t55 21.5q51 0 76 -36t25 -98v-1290q0 -31 -3 -57.5t-13.5 -47t-32 -31.5t-58.5 -11q-66 0 -65 53z" />
<glyph unicode="^" horiz-adv-x="1228" d="M102 743q0 -27 15.5 -41t40 -21t54.5 -9t58 -2q49 0 79 4t46.5 10t24.5 13.5t14 13.5q29 29 50.5 78t41 95t41 79.5t49.5 33.5q29 0 52.5 -36.5t44 -85t38 -93.5t33.5 -61q39 -39 87.5 -46t99.5 -7q25 0 52.5 3t51 10t37.5 22t14 40q0 18 -18 62.5t-45 97.5t-55.5 108.5 t-46.5 92.5q-35 68 -63 132t-56.5 113.5t-62.5 80t-83 30.5h-182q-43 0 -70.5 -28.5t-53 -77.5t-53.5 -116t-71 -144q-23 -41 -51.5 -95.5t-53 -106.5t-42 -93t-17.5 -56zM299 907q0 29 24.5 85.5t59.5 129.5q20 43 41.5 86t48.5 77t61.5 54.5t81.5 20.5q49 0 84 -22.5 t61.5 -59.5t48 -83t44.5 -91q29 -66 55.5 -124.5t26.5 -74.5q0 -37 -14.5 -46t-34.5 -9q-41 0 -65.5 37t-51.5 81t-61.5 80.5t-96.5 36.5q-55 0 -90 -37.5t-61.5 -81.5t-50 -82t-56.5 -38q-55 0 -55 61z" />
<glyph unicode="_" horiz-adv-x="954" d="M-45 -244v-98h1042v98h-1042zM-45 -446v-99h1042v99h-1042z" />
<glyph unicode="`" horiz-adv-x="872" d="M133 1405q0 -16 33 -47t77 -66t91 -71.5t76 -65.5q41 -39 174 -39q88 0 130 13.5t42 48.5q0 12 -17.5 43.5t-42 68.5t-49 71t-39.5 50q-25 29 -51.5 46.5t-73.5 17.5q-16 0 -44.5 1t-59.5 3t-60.5 3t-50.5 1q-53 0 -94 -20.5t-41 -57.5z" />
<glyph unicode="a" horiz-adv-x="1064" d="M31 309q0 -102 37.5 -166.5t95 -101.5t125 -51.5t127.5 -14.5q37 0 68.5 7.5t59 15.5t54.5 15t55 7q43 0 62.5 -3t37 -8t39 -8t66.5 -3q51 0 85 7t52.5 25.5t25.5 50.5t7 81v383q0 156 -31.5 258t-92 162.5t-148.5 84t-201 23.5q-102 0 -186 -20.5t-142.5 -50 t-90.5 -61.5t-32 -54q0 -20 23 -52t51.5 -63t56 -52.5t37.5 -21.5q12 0 34 14.5t52.5 31t69.5 30.5t86 14q72 0 91.5 -19t19.5 -48q0 -8 -7.5 -16.5t-27 -14.5t-55 -9t-91.5 -3q-47 0 -117.5 -15.5t-136 -55.5t-112.5 -112.5t-47 -185.5zM141 338q0 39 20.5 78t55.5 69.5 t81 50t99 19.5q47 0 47 -29q0 -14 -13 -30.5t-28.5 -38t-29 -52t-13.5 -71.5q0 -29 15.5 -56.5t35 -52t35 -43t15.5 -26.5q0 -20 -24.5 -38t-78.5 -18q-92 0 -154.5 63.5t-62.5 174.5zM416 326q0 47 46 69.5t109 22.5q33 0 60.5 -5t27.5 -48q0 -23 -14 -41.5t-36.5 -33 t-49.5 -21.5t-51 -7q-41 0 -66.5 14.5t-25.5 49.5zM543 911q0 14 2 23.5t12 13.5t31.5 6t60.5 2q76 0 118 -23.5t60 -41.5q33 -33 53.5 -81t33 -100.5t16.5 -101.5t4 -84q0 -164 -5 -250t-34 -114q-35 -37 -109 -37q-63 0 -89.5 28.5t-26.5 57.5q0 18 5 31.5t12 27 t12.5 30.5t5.5 44q0 51 -19.5 86t-44.5 59.5t-44 41t-19 32.5q0 18 13 29.5t30.5 28t31 47t13.5 90.5q0 35 -19.5 57.5t-42 39.5t-42 30.5t-19.5 27.5z" />
<glyph unicode="b" horiz-adv-x="1169" d="M41 143q0 -53 14.5 -82.5t39 -43t56 -15.5t64.5 -2q47 0 75.5 4t49 9t38 9.5t42.5 4.5t48.5 -8.5t51 -17.5t60 -16.5t79.5 -7.5q119 0 212.5 40t157 111t97 167t33.5 211q0 152 -41 258t-108.5 173t-153.5 97.5t-174 30.5q-39 0 -66.5 -4t-50 -9t-43 -9.5t-41.5 -4.5 q-45 0 -56 14.5t-11 69.5v316q0 80 -28 106.5t-99 26.5h-123q-41 0 -65.5 -8.5t-37 -27.5t-16.5 -53t-4 -83v-1256zM135 315v934q0 92 17.5 141.5t72.5 49.5q63 0 78.5 -49.5t15.5 -141.5q0 -137 52.5 -218t148.5 -81q37 0 50.5 2t21.5 4t24.5 4.5t59.5 2.5q82 0 151.5 -28 t120.5 -84t81 -145t30 -212q0 -100 -34 -175t-88 -125.5t-120.5 -76t-130.5 -25.5q-66 0 -106.5 7t-71.5 15.5t-56.5 15.5t-58.5 7q-14 0 -19 -2t-14.5 -5t-31 -5t-68.5 -2q-43 0 -67.5 17.5t-37 45t-16.5 61.5t-4 68zM322 532q0 -59 21.5 -112t58 -92t85 -61.5t99.5 -22.5 t101 23.5t88 63.5t61.5 91t23.5 104t-21.5 104.5t-58.5 91.5t-88 64.5t-110 24.5q-45 0 -91.5 -21.5t-84 -58.5t-61 -88t-23.5 -111zM397 520q0 49 16.5 86t43 62.5t60.5 39t71 13.5q100 0 147 -61.5t47 -153.5q0 -45 -20.5 -80t-49 -59.5t-61.5 -38t-57 -13.5 q-33 0 -67.5 13.5t-63.5 40t-47.5 64.5t-18.5 87z" />
<glyph unicode="c" horiz-adv-x="944" d="M20 510q0 -154 55.5 -258.5t138.5 -168t180.5 -90t180.5 -26.5q86 0 156 17.5t120 43t76.5 54t26.5 51.5q0 18 -26.5 57t-63.5 77t-74.5 68t-58.5 30q-29 0 -43 -8.5t-27.5 -18.5t-33 -18.5t-56.5 -8.5q-31 0 -61.5 16.5t-57 43t-43 62.5t-16.5 77q0 98 55.5 154.5 t126.5 56.5q35 0 55.5 -8t36 -17.5t32 -16.5t44.5 -7q16 0 51 27.5t71 64.5t62.5 75t26.5 56q0 23 -26.5 52.5t-74.5 55t-113.5 44t-145.5 18.5q-88 0 -188.5 -24.5t-186.5 -88t-142.5 -170t-56.5 -272.5zM121 526q0 121 45 205t112.5 136.5t146.5 76t146 23.5q-2 0 24 -1 t57.5 -8.5t58 -23.5t26.5 -47q0 -35 -24.5 -53.5t-85.5 -18.5q-16 0 -65.5 -9t-102.5 -40t-95 -90.5t-42 -159.5q0 -84 35.5 -138t83.5 -86t97.5 -45.5t77.5 -13.5q57 0 89 -15t32 -68q0 -23 -33.5 -48.5t-136.5 -25.5q-82 0 -161.5 28.5t-143 85t-102.5 140.5t-39 196z" />
<glyph unicode="d" horiz-adv-x="1169" d="M10 506q0 -115 34 -211t97.5 -167t156.5 -111t212 -40q45 0 79 7.5t61.5 16.5t51 17.5t48.5 8.5t42 -4.5t37.5 -9.5t49 -9t75.5 -4q33 0 64 2t55.5 15.5t39.5 43t15 82.5v1256q0 49 -4 81.5t-16 53t-36.5 29t-65.5 8.5h-123q-74 0 -101.5 -26.5t-27.5 -106.5v-316 q0 -55 -11.5 -69.5t-54.5 -14.5q-23 0 -40 4.5t-37.5 8.5t-49.5 8t-74 4q-84 0 -169 -28.5t-153.5 -95.5t-111.5 -173.5t-43 -259.5zM111 494q0 123 29.5 212t80.5 145t121 84t152 28q43 0 59 -2.5t24.5 -4.5t21.5 -4t50 -2q96 0 148.5 81t52.5 218q0 90 13.5 140.5 t80.5 50.5q55 0 71.5 -49.5t16.5 -141.5v-934q0 -35 -3 -68.5t-16.5 -61t-38 -45t-67.5 -17.5q-47 0 -68.5 2t-30.5 5t-14.5 5t-19.5 2q-33 0 -57.5 -7t-55 -15.5t-72.5 -15.5t-106 -7q-66 0 -131 25.5t-119.5 76t-88 125t-33.5 175.5zM309 526q0 -53 23.5 -104t61.5 -91 t87 -63.5t103 -23.5q51 0 99 22.5t85 61.5t58.5 92t21.5 112t-23.5 109.5t-61.5 87.5t-84 57.5t-91 20.5q-59 0 -110.5 -23.5t-88.5 -63.5t-58.5 -90t-21.5 -104zM387 506q0 92 47 153.5t148 61.5q37 0 70.5 -13.5t60 -39t43 -63.5t16.5 -87t-18.5 -86t-48 -63.5t-64.5 -40 t-68 -13.5q-25 0 -56.5 12.5t-60 37t-49 60.5t-20.5 81z" />
<glyph unicode="e" d="M20 506q0 -145 50.5 -247.5t132.5 -167t182 -94.5t203 -30q109 0 189.5 28t134 64.5t80 72.5t26.5 50q0 23 -17.5 44.5t-39 42t-39 38t-17.5 33.5q0 33 17.5 43t44.5 10q70 0 90 37t20 113q0 156 -47 259t-118.5 163.5t-155.5 85t-158 24.5q-127 0 -232.5 -34.5 t-182.5 -105.5t-120 -178.5t-43 -250.5zM121 539q0 117 44 197.5t111.5 131t149.5 73t158 22.5q109 0 181.5 -34t117.5 -84t63.5 -108.5t18.5 -109.5q0 -49 -19.5 -78t-47.5 -43t-61.5 -18.5t-60.5 -4.5q-76 0 -119 15.5t-43 46.5q0 18 8.5 30.5t19.5 22.5t19.5 23.5 t8.5 31.5l-1 13q-1 12 -12 16q-37 -10 -73 -12l-35 -2l-36 1q-36 1 -69 11q-4 -10 -5 -20l-1 -9q0 -25 14.5 -38t31 -24t30.5 -23.5t14 -30.5q0 -27 -17 -36.5t-36.5 -25.5t-37 -51t-17.5 -115q0 -14 11 -32.5t32.5 -35t52.5 -27.5t72 -11q47 0 71.5 8t47.5 8q29 0 53 -6 t24 -41t-55 -61.5t-154 -26.5q-80 0 -161.5 26.5t-146 82t-105.5 141.5t-41 207zM399 754q0 -20 12.5 -32.5t22.5 -19.5q10 6 16.5 18.5t17.5 25t30.5 20.5t56.5 8t55.5 -8t27.5 -19.5t15 -22.5t19 -17q20 8 20 49q0 18 -12 37.5t-33.5 35t-48.5 24.5t-53 9q-29 0 -55.5 -12 t-47 -29.5t-32 -36t-11.5 -30.5zM451 352q0 14 17 25.5t30 11.5q33 0 76.5 -1t70.5 -1q23 0 35 -8t12 -35q0 -33 -37 -49t-77 -16q-53 0 -90 22.5t-37 50.5z" />
<glyph unicode="f" horiz-adv-x="862" d="M-10 889q0 -51 9 -82t23.5 -46.5t34 -20.5t37.5 -5q35 0 61.5 -12t26.5 -59v-502q0 -45 7.5 -76t28 -50.5t56 -27.5t93.5 -8q66 0 102.5 10t55 29.5t22.5 50.5t4 72v508q0 37 22.5 49t49.5 12h92q35 0 60.5 4t43 20.5t25.5 49.5t8 92q0 39 -8 67.5t-17 36.5 q-23 23 -45 29t-73 6h-150q0 -25 17.5 -38t37 -27.5t37 -32.5t17.5 -53t-33 -58.5t-73 -59.5t-72.5 -96.5t-32.5 -170.5v-250q0 -45 -24.5 -78t-59.5 -33q-39 0 -65.5 30t-26.5 79v246q0 94 -22.5 151t-48.5 98t-48.5 73t-22.5 73q0 37 22.5 72.5t50.5 76.5t50.5 91.5 t22.5 113.5q0 33 13 77t45 84t86 68.5t136 28.5q74 0 105.5 -9t31.5 -50q0 -27 -15 -45.5t-39.5 -36t-51.5 -35.5t-51.5 -41.5t-40 -56.5t-15.5 -78q0 -2 2.5 -16.5t14.5 -36t39 -35.5q8 45 9 75l1 29q4 41 35 75t84 34h102q57 0 76.5 30.5t19.5 57.5v141q0 53 -43 77 t-139 24q-18 0 -53 -1t-62 -1q-119 0 -194.5 -34t-118.5 -86t-59.5 -113.5t-16.5 -117.5v-151q0 -29 -24.5 -47.5t-65.5 -18.5q-14 0 -37.5 -6t-38.5 -18q-14 -16 -22 -45t-8 -76z" />
<glyph unicode="g" horiz-adv-x="1173" d="M10 518q0 -43 9.5 -98t31 -113.5t58 -116t92 -101.5t132.5 -71.5t177 -27.5q41 0 69.5 7t73.5 7q29 0 45.5 -9t16.5 -38q0 -27 -18.5 -46.5t-47 -32.5t-63.5 -19t-68 -6q-59 0 -101 17t-75 38.5t-59.5 39t-55.5 17.5q-25 0 -57.5 -33.5t-62 -77.5t-50 -88.5t-20.5 -62.5 q0 -23 27.5 -55.5t89 -62t160 -51t239.5 -21.5q162 0 273.5 46t179 130t97.5 202t30 261v737q0 86 -35 119.5t-131 33.5q-72 0 -116 -13t-93 -13q-33 0 -60.5 8t-59.5 17.5t-70 17.5t-89 8q-68 0 -148.5 -28.5t-152.5 -93t-120 -170t-48 -257.5zM117 539q0 117 34.5 197.5 t89 129.5t120 72t124.5 23q53 0 89 -7.5t63 -16.5t48.5 -16.5t49.5 -7.5q16 0 29.5 2.5t30 3.5t40 3t60.5 2q35 0 61.5 -8.5t44 -30t25.5 -60.5t8 -102v-559q0 -293 -133 -420t-381 -127q-147 0 -225 32t-78 87q0 45 31 58t59 13q14 0 38 -4t53.5 -10t60 -10t61.5 -4 q45 0 92 14t85 40t61.5 65t23.5 88q0 31 -12 55.5t-30.5 40.5t-40 24.5t-40.5 8.5q-37 0 -86 -3t-98 -3q-72 0 -137.5 24.5t-114.5 76.5t-77.5 134t-28.5 195zM319 524q0 -41 18.5 -87t53.5 -85t85 -64.5t114 -25.5q63 0 111.5 30t81 72t49 89t16.5 82q0 53 -24.5 103 t-61.5 88t-80 60.5t-78 22.5q-59 0 -110.5 -21.5t-90 -59.5t-61.5 -90t-23 -114zM389 524q0 35 15.5 70t40 62.5t58.5 45t70 17.5q43 0 80 -17.5t64.5 -45t43 -61.5t15.5 -69q0 -31 -15.5 -64.5t-42 -63t-60 -49t-72.5 -19.5t-75 16t-62.5 44t-43 62.5t-16.5 71.5z" />
<glyph unicode="h" horiz-adv-x="1169" d="M41 193q0 -61 4 -99.5t22.5 -59t55.5 -27.5t102 -7q59 0 97 6t59.5 24.5t30 50.5t8.5 83v405q0 63 38 108.5t130 45.5t126 -39t34 -109v-430q0 -45 9 -73.5t30.5 -44t58.5 -21.5t92 -6t92 4t58.5 19.5t30.5 43t9 74.5v465q0 152 -37.5 243t-95 139t-126 63.5t-132.5 15.5 q-57 0 -97 -5t-68.5 -10t-52 -10.5t-48.5 -5.5q-33 0 -44 28t-11 75v274q0 51 -7.5 83t-28 50.5t-57 24.5t-98.5 6q-57 0 -93 -7t-56.5 -25.5t-27.5 -52.5t-7 -87v-1212zM139 328v923q0 33 2 68t11.5 61.5t26 44t44.5 17.5q61 0 77.5 -53.5t16.5 -157.5q0 -49 12.5 -101.5 t37 -93.5t61.5 -67.5t86 -26.5q25 0 45.5 4t45 8t56 8.5t76.5 4.5q166 0 241 -113t75 -307v-244q0 -70 -24.5 -118t-78.5 -48q-61 0 -81.5 61.5t-20.5 213.5q0 16 -1 40.5t-3 51t-5 50.5t-8 40q-10 37 -24 71.5t-41 61.5q-31 29 -74 57.5t-108 28.5q-37 0 -63.5 -9 t-47 -21.5t-33 -26t-20.5 -21.5q-29 -29 -47.5 -62.5t-30.5 -80.5t-17.5 -109.5t-5.5 -146.5q0 -86 -15 -140.5t-71 -54.5q-49 0 -71.5 41t-22.5 146z" />
<glyph unicode="i" horiz-adv-x="516" d="M49 1296q0 -43 19.5 -79.5t50.5 -64.5t69.5 -44t77.5 -16t76 18t64.5 48t44 69t16.5 80q0 43 -15.5 80.5t-43 65.5t-65.5 44t-81 16q-41 0 -80 -12t-68.5 -38.5t-47 -67.5t-17.5 -99zM72 178q0 -63 10 -99t32.5 -54.5t61.5 -22.5t94 -4q61 0 97 7t54.5 27.5t24 54.5 t5.5 87v713q0 33 -4.5 63.5t-22.5 53t-57 37t-109 14.5q-66 0 -102.5 -12.5t-55 -36t-23.5 -55t-5 -68.5v-705zM166 303v469q0 68 25.5 104.5t66.5 36.5t68.5 -33.5t27.5 -107.5v-469q0 -72 -21.5 -117t-74.5 -45q-29 0 -47 14.5t-28.5 37t-13.5 51t-3 59.5zM180 1311 q0 31 12.5 42t63.5 11q49 0 65.5 -9t16.5 -44t-13.5 -45.5t-66.5 -10.5q-51 0 -64.5 10.5t-13.5 45.5z" />
<glyph unicode="j" horiz-adv-x="538" d="M-166 -326q0 -45 7 -74.5t31 -48t69 -26.5t118 -8q209 0 299 90q82 82 105.5 202.5t23.5 284.5v785q0 33 -7 65.5t-28.5 58t-59.5 41t-99 15.5q-111 0 -147.5 -45t-36.5 -137v-838q0 -72 -9.5 -101.5t-25.5 -46.5q-18 -18 -53 -22t-82 -4q-25 0 -44.5 -7.5t-33 -27.5 t-20.5 -58t-7 -98zM-8 -287q0 23 17.5 46.5t41.5 47.5q23 20 40.5 36t33.5 32q43 43 61.5 134t18.5 210v492q0 104 21.5 150t68.5 46q59 0 76.5 -49t17.5 -147v-502q0 -154 -7 -242t-20 -139q-10 -43 -25 -67.5t-36 -43.5q-23 -25 -71 -57.5t-130 -32.5q-59 0 -83.5 23.5 t-24.5 62.5zM84 1307q0 -45 18.5 -84t48 -69t66.5 -46t76 -16t77 16t66.5 45t46 68t17.5 84q0 90 -55.5 149t-153.5 59q-47 0 -85 -17t-64.5 -46t-42 -65.5t-15.5 -77.5zM211 1311q0 27 13.5 40t66.5 13q47 0 63.5 -8t16.5 -43t-15.5 -48.5t-66.5 -13.5q-45 0 -61.5 16.5 t-16.5 43.5z" />
<glyph unicode="k" horiz-adv-x="1052" d="M41 166q0 -49 5 -81t24.5 -51.5t57.5 -27.5t103 -8q61 0 97.5 7t57 22.5t26.5 42t6 63.5q0 18 -2 44t2 50q2 23 11 40.5t32 17.5q35 0 64.5 -44t61 -96.5t73.5 -96.5t102 -44h233q43 0 70 19.5t27 48.5q0 16 -24 53t-59.5 84t-76.5 101.5t-77 103.5t-59.5 90t-23.5 63 q0 18 22.5 52t56.5 74t73 82t72.5 81t56 69.5t22.5 47.5q0 33 -30.5 50t-86.5 17h-184q-63 0 -109.5 -34.5t-81 -75.5t-62 -76t-56.5 -35q-27 0 -37 19q-10 20 -10 67v516q0 53 -10.5 84t-33 46.5t-58 19.5t-89.5 4q-53 0 -89 -5t-57.5 -22.5t-30.5 -50.5t-9 -88v-1243z M137 365v905q0 31 5 61.5t15.5 55t29 40t42.5 15.5q59 0 77 -52.5t18 -119.5v-277q0 -109 39.5 -179.5t111.5 -70.5q39 0 74 28t68.5 59.5t69.5 59.5t79 28q35 0 47 -19.5t12 -42.5q0 -25 -19.5 -56.5t-44 -68.5t-44 -80t-19.5 -88q0 -53 28 -101t59.5 -94t59 -88t27.5 -81 q0 -37 -17 -52.5t-64 -15.5q-53 0 -95.5 41t-80 89t-74.5 89t-80 41q-29 0 -51.5 -21.5t-34.5 -31.5q-14 -14 -25.5 -47t-26 -67t-35 -59.5t-52.5 -25.5q-51 0 -75 52.5t-24 173.5z" />
<glyph unicode="l" horiz-adv-x="466" d="M49 190q0 -61 5 -98t23.5 -57.5t54.5 -27.5t97 -7t98.5 6t58 26.5t26.5 55.5t6 94v1229q0 45 -5 77t-24.5 51.5t-56.5 28.5t-101 9q-61 0 -97 -7t-54.5 -25.5t-24.5 -50.5t-6 -79v-1225zM145 297v1020q0 63 27 94t64 31q47 0 66.5 -37t19.5 -84v-1028q0 -57 -16.5 -104.5 t-69.5 -47.5t-72 39t-19 117z" />
<glyph unicode="m" horiz-adv-x="1730" d="M41 156q0 -45 7 -75t25.5 -48.5t52.5 -25.5t89 -7q66 0 105.5 5t61 21.5t29 50.5t7.5 89v375q0 90 28.5 135t100.5 45q31 0 52.5 -6t35.5 -24.5t21.5 -51.5t7.5 -86v-387q0 -47 5 -79t24.5 -51.5t56 -27.5t100.5 -8q66 0 103.5 7t57 26.5t24.5 54.5t5 92v373q0 78 44 124 t104 46q66 0 96.5 -29.5t30.5 -128.5v-413q0 -53 8 -83t29.5 -45.5t60.5 -19.5t100 -4t96.5 5t53.5 22.5t23.5 51.5t5.5 89v469q0 92 -22.5 172t-71 137.5t-122 90t-178.5 32.5q-90 0 -138 -13.5t-77.5 -29.5t-53 -29.5t-64.5 -13.5q-35 0 -58.5 12.5t-52.5 27.5t-71 28.5 t-113 13.5q-61 0 -95 -7t-56.5 -15.5t-43 -15.5t-55.5 -7q-23 0 -41.5 4t-41 8t-54 8t-78.5 4q-49 0 -81 -9t-50.5 -29.5t-25.5 -56.5t-7 -87v-706zM135 328v444q0 78 37 119t94 41q47 0 82 -8.5t62 -8.5q20 0 44.5 7.5t55.5 14.5t69.5 14t86.5 7q57 0 100 -10t80 -23.5 t70.5 -23.5t76.5 -10t73 12t60.5 26.5t69.5 27t102 12.5q137 0 218 -93.5t81 -310.5v-268q0 -25 -3 -51.5t-13 -49t-29.5 -38t-52.5 -15.5q-47 0 -66.5 44t-19.5 108q0 35 -1 78t-1 100t-13.5 116.5t-42 106.5t-74.5 77t-112 30q-74 0 -117.5 -47t-68.5 -115t-33 -140.5 t-8 -123.5q0 -115 -16.5 -175.5t-79.5 -60.5q-55 0 -69.5 63.5t-14.5 198.5q0 68 -10.5 138.5t-36 127t-68.5 92.5t-110 36q-41 0 -79 -21.5t-69 -73t-49 -136.5t-18 -210q0 -102 -17.5 -157.5t-77.5 -55.5q-29 0 -47 15.5t-28.5 42t-13.5 59.5t-3 68z" />
<glyph unicode="n" horiz-adv-x="1138" d="M41 166q0 -55 9 -89t30.5 -50.5t59.5 -21.5t98 -5q57 0 93 6t54 22.5t24.5 48.5t6.5 85v370q0 35 8 70t28.5 62.5t53.5 45t80 17.5q63 0 104 -44t41 -132v-399q0 -51 7 -81t28.5 -45.5t61.5 -20.5t104 -5q55 0 89 9t50 26.5t21.5 42t5.5 57.5v518q0 203 -99.5 307.5 t-281.5 104.5q-78 0 -119 -7t-67.5 -15.5t-50 -15.5t-64.5 -7q-23 0 -40.5 3t-40 7t-55 7t-81.5 3t-81 -10t-48.5 -30.5t-22.5 -51t-6 -74.5v-708zM137 346v404q0 184 133 184q41 0 70 -7t74 -7q37 0 68.5 7t65.5 15t72.5 15.5t88.5 7.5q152 0 224.5 -93.5t72.5 -253.5v-339 q0 -72 -24 -104t-67 -32q-37 0 -62.5 27t-25.5 68q0 45 -1 97t-1 66q0 123 -23.5 202t-61.5 125t-85 63.5t-92 17.5q-59 0 -91 -25.5t-54 -48.5q-59 -59 -75.5 -153.5t-16.5 -200.5q0 -127 -17.5 -183.5t-72.5 -56.5q-57 0 -78 55.5t-21 149.5z" />
<glyph unicode="o" horiz-adv-x="1161" d="M10 516q0 -147 53.5 -250.5t136.5 -169t183 -95.5t195 -30q104 0 206.5 33t184.5 100.5t132 169t50 238.5q0 150 -53.5 254t-135 169.5t-183 96.5t-195.5 31q-96 0 -197.5 -29.5t-185.5 -96.5t-137.5 -170t-53.5 -251zM115 514q0 127 44 214t113.5 139.5t151.5 75 t160 22.5q86 0 169 -26t148.5 -81t105.5 -141t40 -205q0 -127 -49.5 -210t-121 -132t-153.5 -69.5t-145 -20.5q-76 0 -158 24.5t-149.5 76.5t-111.5 135t-44 198zM311 516q0 -55 22.5 -104.5t60.5 -86t89.5 -59t106.5 -22.5q49 0 96 23.5t84 62.5t59.5 89t22.5 103 q0 51 -20.5 101.5t-56.5 90.5t-84 64.5t-103 24.5q-70 0 -122 -27.5t-86 -69.5t-51.5 -92.5t-17.5 -97.5zM389 522q0 47 18.5 84t47 62.5t63.5 39t68 13.5q27 0 59.5 -12.5t61 -37t49 -62.5t20.5 -89q0 -53 -19.5 -91t-48 -64.5t-64.5 -39t-69 -12.5t-66.5 15.5t-60 43 t-43 65.5t-16.5 85z" />
<glyph unicode="p" horiz-adv-x="1181" d="M41 -289q0 -53 8 -86t29.5 -52t57.5 -26.5t91 -7.5q61 0 99.5 6t59 24.5t27.5 52.5t7 89v209q0 39 13 60.5t52 21.5q25 0 43.5 -5t38 -10t45 -10.5t68.5 -5.5q78 0 164 31t156.5 96.5t116.5 171t46 252.5q0 127 -38 227.5t-105.5 170t-159.5 106.5t-198 37q-51 0 -87 -8 t-64 -17.5t-51.5 -17.5t-47.5 -8q-25 0 -43.5 4t-39 9t-48 9t-70.5 4q-51 0 -84 -6t-52.5 -24.5t-26.5 -50t-7 -83.5v-1163zM141 -158v928q0 160 150 160q23 0 37 -3t25.5 -6t22.5 -5.5t27 -2.5q35 0 63 7.5t56.5 15.5t62 15t83.5 7q70 0 139.5 -22.5t124.5 -73.5t90 -134 t35 -204q0 -123 -38 -208t-96.5 -137t-126 -74.5t-124.5 -22.5q-25 0 -41.5 3t-31.5 6t-34.5 6t-50.5 3q-55 0 -92 -26.5t-60.5 -67.5t-33 -88t-9.5 -86q0 -61 -22.5 -103t-67.5 -42q-29 0 -45 13t-26.5 34.5t-13.5 50.5t-3 57zM319 514q0 -39 19.5 -86t55.5 -88t84 -68.5 t106 -27.5q57 0 107 22.5t88 61.5t59.5 92t21.5 112q0 53 -23.5 103.5t-61.5 88.5t-88 60.5t-101 22.5q-66 0 -116 -28.5t-84 -71.5t-50.5 -94.5t-16.5 -98.5zM397 518q0 33 12.5 70t36 65.5t59.5 48t83 19.5q55 0 93 -23.5t61.5 -56.5t34.5 -67.5t11 -59.5q0 -39 -16 -75 t-44 -63.5t-61.5 -45t-70.5 -17.5q-41 0 -77 16.5t-63.5 44t-43 64.5t-15.5 80z" />
<glyph unicode="q" horiz-adv-x="1175" d="M20 522q0 -96 27 -193.5t84 -176t149.5 -129t225.5 -50.5q39 0 67.5 4.5t51 9.5t45 9t51.5 4q25 0 37 -21.5t12 -52.5v-245q0 -45 8 -73t29.5 -42.5t56.5 -19.5t90 -5q57 0 92 6.5t55.5 23.5t28 50t7.5 88v1168q0 47 -4.5 78.5t-22.5 50t-53 25.5t-96 7t-102.5 -12 t-82.5 -12q-33 0 -57.5 7t-50 16.5t-58 16.5t-80.5 7q-102 0 -194 -33t-162 -99.5t-112 -168t-42 -238.5zM121 537q0 111 33.5 190.5t89 129.5t125 74.5t141.5 24.5q47 0 83 -6t66.5 -14t58 -14.5t58.5 -6.5q23 0 33 2.5t21.5 4.5t27.5 4t51 2q72 0 100.5 -37t28.5 -109 v-913q0 -90 -14 -134t-66 -44q-100 0 -100 174q0 49 -15.5 93t-41 76t-57 50t-62.5 18q-47 0 -85 -9t-85 -9q-68 0 -136.5 24.5t-125.5 78t-93 140.5t-36 210zM319 514q0 -39 19.5 -85t55.5 -87t84 -68.5t106 -27.5q57 0 108 22.5t88 61.5t58.5 91.5t21.5 113.5 q0 53 -22.5 102t-59.5 86t-83 59.5t-93 22.5q-49 0 -99 -19.5t-91 -56.5t-67 -91t-26 -124zM397 518q0 35 12.5 71t36 65.5t59.5 49t83 19.5q55 0 93 -23.5t61.5 -56.5t34.5 -67.5t11 -59.5q0 -39 -16 -74.5t-44 -63.5t-61.5 -45.5t-70.5 -17.5q-41 0 -77 16.5t-63.5 44 t-43 64.5t-15.5 78z" />
<glyph unicode="r" horiz-adv-x="792" d="M41 145q0 -47 6 -76.5t25.5 -46t56.5 -21.5t96 -5t95 8t56.5 26.5t27 46t6.5 68.5v295q0 100 18 155.5t50 82.5t76 33t93 6q29 0 49.5 -2t36.5 -2q31 0 58 26q14 16 21 50.5t7 97.5q0 47 -4 79.5t-19.5 54t-48 32t-88.5 10.5q-41 0 -74.5 -8t-62 -17.5t-55.5 -16.5 t-53 -7q-16 0 -31.5 4t-37 8t-53.5 8t-81 4q-53 0 -86 -7t-51.5 -25.5t-25.5 -52t-7 -85.5v-723zM135 283v485q0 90 35 121t111 31q43 0 77.5 -5.5t63.5 -5.5q25 0 39 3t29.5 8.5t36 8.5t57.5 3q25 0 40 -9t15 -42q0 -18 -13.5 -31.5t-34 -24t-41 -16.5t-36.5 -14 q-41 -16 -62.5 -40t-31.5 -34q-35 -33 -55.5 -81t-31.5 -104.5t-15.5 -121t-4.5 -127.5q0 -49 -8 -78t-21.5 -44t-29.5 -20.5t-35 -5.5q-35 0 -59.5 33t-24.5 111z" />
<glyph unicode="s" horiz-adv-x="907" d="M20 150q0 -37 37 -70t95.5 -56.5t129 -37t138.5 -13.5q117 0 220 31t163 92q29 27 61.5 84.5t32.5 157.5q0 74 -19.5 130t-64.5 101q-37 37 -92 62.5t-111.5 42t-106.5 27t-77 16.5v-25q0 -23 17.5 -39t48.5 -32q29 -16 69.5 -33t89.5 -39q68 -31 101.5 -86t33.5 -123 q0 -121 -92 -186.5t-272 -65.5q-92 0 -133 16.5t-41 53.5t33.5 46t70.5 9q49 0 86 12.5t37 36.5q-10 16 -45 17q-35 0 -98 24q-47 16 -78 36.5t-57 20.5q-10 0 -39 -24.5t-59.5 -58t-54.5 -69.5t-24 -58zM25 717q0 -94 29.5 -143.5t56.5 -75.5q35 -33 83 -64t119 -41 q57 -10 91 -19t59 -18q39 0 39 27q0 25 -28 45.5t-62.5 36.5t-70.5 28.5t-50 20.5q-23 12 -50.5 28.5t-50 43t-38 63.5t-15.5 86q0 129 89 194.5t233 65.5q74 0 105.5 -12t31.5 -53q0 -25 -25.5 -38t-56.5 -22.5t-56.5 -20.5t-25.5 -32q0 -18 13.5 -24.5t41.5 -6.5 q18 0 38 -10t39.5 -21.5t36.5 -21.5t34 -10q16 0 51 24.5t70 59.5t61.5 69.5t26.5 57.5q0 31 -28 60.5t-79 53t-120.5 38t-151.5 14.5q-117 0 -202 -33t-140 -82q-47 -41 -72.5 -114.5t-25.5 -153.5z" />
<glyph unicode="t" horiz-adv-x="876" d="M0 885q0 -33 3 -61.5t14.5 -49t34 -32t63.5 -11.5t55 -21.5t14 -93.5v-276q0 -197 101.5 -281t294.5 -84q70 0 121 4.5t82.5 20.5t47 52t15.5 102q0 55 -8.5 90t-18.5 45q-4 4 -9 7t-17.5 6t-35 4t-59.5 1q-25 0 -49 3t-43.5 15.5t-32 35t-12.5 63.5v229q0 45 22.5 61.5 t100.5 16.5q55 0 87 7t47.5 24.5t19.5 47.5t4 77t-6.5 76.5t-24.5 46t-53 21.5t-92 5q-72 0 -88 17q-8 8 -12.5 32.5t-4.5 71.5q0 51 -4 84t-22.5 53.5t-57.5 28.5t-106 8q-66 0 -103 -8t-55 -27.5t-23.5 -52.5t-5.5 -82q0 -59 -6 -78.5t-14 -27.5q-10 -10 -25.5 -14.5 t-25.5 -4.5q-72 0 -92.5 -35.5t-20.5 -115.5zM145 891q0 47 28 84t50 72q14 23 29.5 49t33 48.5t38 37t45.5 14.5q31 0 51 -14.5t37.5 -36t33 -46t37.5 -46.5q25 -35 49.5 -54.5t44 -35t32 -33t12.5 -45.5q0 -33 -31 -57.5t-68 -59.5t-67.5 -88t-30.5 -143q0 -104 31.5 -163 t70.5 -93.5t71 -60t32 -64.5q0 -35 -26.5 -53.5t-94.5 -18.5q-66 0 -115 19.5t-84 54.5q-20 20 -34.5 43.5t-23.5 59.5t-13 90.5t-4 133.5q0 109 -20.5 168.5t-46.5 96t-46.5 64.5t-20.5 77z" />
<glyph unicode="u" horiz-adv-x="1136" d="M41 406q0 -127 29.5 -210t82 -132.5t122 -70t151.5 -20.5q66 0 107.5 7.5t71.5 14.5t54.5 14t57.5 7q31 0 52.5 -3t43 -7t46 -7t65.5 -3q57 0 92 10t53 30.5t23.5 53.5t5.5 80v709q0 57 -10.5 88.5t-33 47t-59.5 19.5t-90 4q-61 0 -97 -7t-56.5 -23.5t-26.5 -46t-6 -72.5 v-371q0 -115 -42 -160t-122 -45q-47 0 -75.5 17.5t-44 45t-21.5 64.5t-6 78v381q0 37 -5.5 62.5t-26 43t-60.5 25.5t-107 8q-61 0 -95 -9t-50.5 -31.5t-19.5 -60.5t-3 -95v-436zM135 412v381q0 47 19.5 79.5t70.5 32.5q33 0 50.5 -13t25.5 -43t9 -78t1 -116t10.5 -140.5 t39 -132.5t77.5 -99t127 -39q70 0 118 34.5t78 97t42 148.5t12 189q0 66 7 104.5t20.5 58t32 24.5t38.5 5q47 0 66.5 -48t19.5 -175v-356q0 -117 -28.5 -164t-116.5 -47q-47 0 -72.5 8t-56.5 8q-39 0 -64.5 -8t-54 -17.5t-67.5 -16.5t-107 -7q-94 0 -152.5 34t-90 84 t-43 107.5t-11.5 104.5z" />
<glyph unicode="v" horiz-adv-x="1079" d="M-20 956q0 -10 12 -43.5t31.5 -84t44 -108.5t49 -115.5t46 -109t36.5 -83.5q63 -154 103 -254.5t60 -122.5q27 -25 81.5 -32t125.5 -7q47 0 99.5 9t79.5 36q10 10 26.5 47t36.5 87t40.5 107.5t41.5 106.5q35 88 71.5 179t66.5 170t49.5 137t19.5 81q0 53 -42 67.5 t-138 14.5q-80 0 -112 -11t-56.5 -35.5t-47 -94.5t-45 -143.5t-47 -131t-55.5 -57.5q-18 0 -35.5 28t-35 71t-35 94t-34 99t-32.5 85t-33 53q-12 12 -26.5 21.5t-38 13.5t-58 6t-88.5 2q-86 0 -123.5 -19.5t-37.5 -62.5zM141 825q0 37 18.5 60.5t63.5 23.5q39 0 66.5 -31.5 t50 -79.5t42 -103.5t44.5 -103.5t56.5 -80t78.5 -32t79 31t54.5 78t41 100t38 100.5t43 78t60.5 30.5q39 0 52 -23.5t13 -60.5q0 -18 -12 -56t-32.5 -90.5t-47.5 -117t-53 -137.5q-23 -59 -42.5 -113.5t-45 -95.5t-62.5 -66.5t-94 -25.5q-55 0 -91 22.5t-61.5 61t-48 93 t-49.5 118.5q-31 76 -59.5 146.5t-52 127.5t-37 96t-13.5 49z" />
<glyph unicode="w" horiz-adv-x="1658" d="M-20 958q0 -12 13 -53t34.5 -102.5t51.5 -141t62 -167.5q25 -72 52.5 -148t52 -141.5t43 -110.5t26.5 -53q14 -14 56.5 -30.5t130.5 -16.5q86 0 123 10t53 27q14 14 26.5 48t22.5 76t20.5 87t22.5 82.5t26.5 61.5t32.5 24q37 0 57.5 -49.5t37 -113t32 -126t41.5 -88.5 q18 -16 64.5 -27.5t124.5 -11.5t113.5 14.5t52.5 30.5q12 12 31.5 57t42 105.5t45 126t40.5 118.5q31 88 61 174.5t53.5 157t38.5 118.5t15 62q0 18 -6 33t-24.5 26t-52 16t-89.5 5q-96 0 -131 -15t-45 -26q-25 -25 -41 -82t-31.5 -114.5t-32 -101.5t-42.5 -44 q-27 0 -48.5 48.5t-38 109.5t-30.5 116.5t-29 69.5q-23 23 -68.5 31t-123.5 8q-90 0 -130 -9t-61 -30q-27 -25 -42 -82t-29.5 -115.5t-29.5 -103.5t-42 -45q-29 0 -48.5 46t-37.5 106.5t-35.5 117t-38.5 78.5q-20 20 -63 28.5t-137 8.5q-92 0 -132 -19.5t-40 -60.5zM141 825 q0 47 14.5 65.5t57.5 18.5q41 0 67.5 -26.5t45 -66.5t35 -87t36 -87t48 -66.5t71.5 -26.5t68.5 28.5t42 71.5t31 94.5t36 94.5t55 71.5t91.5 28.5q61 0 96 -28.5t57.5 -70.5t36.5 -92.5t32.5 -92.5t47.5 -70.5t80 -28.5q37 0 62.5 25.5t44 63.5t34 82t32.5 82t42 63.5 t61 25.5q35 0 44.5 -26.5t9.5 -67.5q0 -16 -10.5 -55t-26 -86.5t-31.5 -94.5t-29 -78q-23 -57 -42 -122.5t-44.5 -122t-61.5 -93t-91 -36.5q-59 0 -95 30.5t-57.5 76.5t-37 99.5t-34 99.5t-48 76.5t-78.5 30.5q-53 0 -81 -30.5t-45.5 -76.5t-29.5 -99.5t-33.5 -99.5 t-56.5 -76.5t-99 -30.5q-53 0 -91 41t-65.5 100t-49 128t-43.5 122q-23 51 -40.5 101t-30.5 93t-20.5 76t-7.5 49z" />
<glyph unicode="x" horiz-adv-x="1077" d="M-41 63q0 -35 45 -51t152 -16q176 0 223 47q12 12 28.5 42t38 60.5t45 54t50.5 23.5q31 0 49 -18.5t34.5 -46t33 -58t40.5 -55.5q12 -12 27.5 -22.5t40.5 -16.5t62.5 -9t95.5 -3q66 0 103.5 6t58 16.5t25.5 22.5t5 24q0 18 -22.5 57.5t-56 87.5t-73.5 101t-74 101.5 t-56.5 87.5t-22.5 59q0 27 39 87.5t86 127t86 122.5t39 75q0 41 -49 56t-148 15q-53 0 -88 -4t-56.5 -10t-33.5 -15.5t-24.5 -21.5t-24.5 -31.5t-24.5 -37t-28 -30.5t-33.5 -13q-16 0 -31.5 13t-29 30.5t-25.5 36t-23 28.5q-16 16 -31.5 26.5t-39 16.5t-62.5 8t-102 2 q-106 0 -145 -18.5t-39 -54.5q0 -25 38.5 -80.5t87 -116.5t87 -120.5t38.5 -94.5q0 -23 -23.5 -62.5t-58 -90t-75.5 -103.5t-76 -100t-58.5 -83t-23.5 -51zM188 201q0 29 26 70.5t56.5 90t56 98.5t25.5 95q0 53 -17.5 90t-36.5 70t-36.5 64.5t-17.5 74.5q0 23 13 42t54 19 q31 0 55.5 -16t51 -36.5t58.5 -37t77 -16.5q43 0 72.5 14.5t54.5 32.5t47.5 32.5t50.5 14.5q35 0 45.5 -17.5t10.5 -51.5q0 -29 -15.5 -57.5t-33 -61.5t-33 -72t-15.5 -86q0 -53 24.5 -103.5t54.5 -96.5t54.5 -85.5t24.5 -70.5q0 -37 -18.5 -50.5t-53.5 -13.5 q-37 0 -68.5 26.5t-65.5 59.5t-69.5 59.5t-78.5 26.5q-51 0 -86 -26.5t-66 -59.5t-62.5 -59.5t-74.5 -26.5q-39 0 -51.5 19.5t-12.5 44.5z" />
<glyph unicode="y" horiz-adv-x="1021" d="M-49 961q0 -16 17.5 -60.5t47 -110t66.5 -149.5t78 -178q29 -70 58.5 -134.5t53 -120.5t39 -104.5t15.5 -87.5q0 -55 -15.5 -80.5t-36.5 -46.5q-23 -23 -46 -29.5t-52 -6.5q-18 0 -45 4t-45 4q-41 0 -64.5 -27t-36 -61.5t-15.5 -68.5t-3 -46q0 -41 13.5 -67.5t44 -42 t81 -21.5t123.5 -6q111 0 187 28.5t131 83.5q20 20 52 86t70 160t82 210t91 237q18 49 42.5 113.5t51.5 132t53.5 134t47 120t32.5 88t12 40.5q0 88 -188 88q-59 0 -103.5 -7t-70.5 -36q-18 -16 -32.5 -54t-28 -84t-27 -95t-27.5 -90t-31.5 -66.5t-37.5 -25.5 q-31 0 -55.5 54t-48 125t-48.5 138.5t-53.5 96t-74.5 36.5t-120 8q-76 0 -130 -14t-54 -67zM125 827q0 43 12.5 60.5t52.5 17.5q47 0 77 -29.5t52.5 -74.5t40 -98.5t41 -98.5t56 -74.5t84.5 -29.5q49 0 78.5 29.5t50 74.5t36 97.5t34 97.5t44 74.5t68.5 29.5q39 0 50 -27.5 t11 -60.5q0 -18 -18 -72.5t-47 -131t-64.5 -171t-72.5 -194.5q-49 -135 -87 -227.5t-67 -152t-48.5 -92t-33.5 -46.5q-12 -12 -32.5 -29.5t-47 -32t-59.5 -25t-72 -10.5q-51 0 -81.5 15.5t-30.5 52.5q0 25 19 43t46 33.5t56.5 32t48.5 34.5q41 43 66.5 88t25.5 103 q0 39 -21.5 106.5t-53.5 146.5t-70 162.5t-69.5 158.5t-53 133.5t-21.5 86.5z" />
<glyph unicode="z" horiz-adv-x="997" d="M31 176q0 -51 5 -85t21.5 -54.5t50 -29.5t91.5 -9h616q49 0 79 9t45 28.5t20.5 51.5t5.5 77q0 53 -11.5 82.5t-32 45t-49 19.5t-63.5 4h-172q-55 0 -55 43q0 18 32.5 52t79.5 74t98.5 83t90.5 82l34.5 34.5t27.5 39t17.5 55.5t6.5 86q0 63 -7.5 100t-25.5 57.5t-49 27 t-78 6.5h-610q-43 0 -74 -4t-52.5 -19.5t-31.5 -45.5t-10 -83q0 -49 7 -79.5t25.5 -47t49 -22.5t77.5 -6h123q72 0 72 -43q0 -23 -22.5 -48.5t-58.5 -56.5t-83 -69.5t-96 -88.5q-23 -20 -47.5 -46.5t-30.5 -47t-11 -65.5t-5 -107zM143 233q0 51 25 95.5t60.5 83.5t77.5 73.5 t78 68.5t60.5 68.5t24.5 73.5q0 45 -16.5 71t-42 41t-55 23.5t-55.5 16.5t-42 21.5t-16 37.5q0 35 29.5 44.5t58.5 9.5q35 0 79 2t86 4t76.5 4t53.5 2q109 0 165 -26.5t56 -110.5q0 -49 -25.5 -91.5t-65.5 -81t-85 -75.5t-85 -73t-65.5 -71.5t-25.5 -74.5q0 -47 19 -75 t48 -43t63.5 -21.5t63.5 -12.5t48.5 -16.5t19.5 -30.5q0 -37 -30 -52.5t-95 -15.5h-334q-70 0 -112 33t-42 98z" />
<glyph unicode="{" horiz-adv-x="894" d="M74 600q0 -59 15 -90t38 -46t50.5 -22.5t50 -17.5t38 -30.5t15.5 -63.5q0 -78 -1 -153t-1 -114q0 -70 11 -137t48 -120.5t107.5 -86t191.5 -32.5q61 0 97 10t54.5 28.5t24.5 45t6 59.5t-4 63.5t-16.5 53t-36 36t-62.5 13.5q-57 0 -79.5 28.5t-22.5 67.5v299q0 43 -7 67.5 t-16.5 44t-16.5 42t-7 61.5q0 31 7 52.5t16.5 43t16.5 47t7 64.5q0 74 1 142.5t1 138.5q0 59 33 92t112 33q33 0 54.5 38.5t21.5 83.5q0 53 -7 87t-26.5 52.5t-56.5 24.5t-94 6q-82 0 -147.5 -14t-111.5 -52t-71.5 -103.5t-25.5 -165.5v-62t-1 -79t-1 -85v-78 q0 -39 -15.5 -57t-38 -29.5t-49 -20.5t-49.5 -26.5t-38 -49.5t-15 -89zM219 604q0 39 12.5 63.5t31 45t39 44t38.5 62.5t30.5 101.5t12.5 158.5q0 98 15.5 161t40 96.5t55 46t63.5 12.5t52.5 -10.5t19.5 -51.5q0 -33 -10.5 -51t-24.5 -34.5t-32.5 -37t-33 -57.5t-24.5 -97.5 t-10 -154.5q0 -61 -8.5 -102t-17.5 -72t-16.5 -59.5t-7.5 -67.5q0 -37 7.5 -57.5t16.5 -51t17.5 -83t8.5 -154.5q0 -100 21.5 -157.5t47 -93.5t47 -60.5t21.5 -59.5q0 -39 -19.5 -52t-42.5 -13q-63 0 -100 28.5t-55.5 78.5t-23.5 119t-5 149q0 111 -25.5 168t-57.5 92.5 t-57.5 65.5t-25.5 85z" />
<glyph unicode="|" horiz-adv-x="575" d="M125 106q0 -31 4 -58.5t20.5 -47.5t51.5 -32.5t94 -12.5q55 0 86 13.5t46 35t19.5 47.5t4.5 55v1283q0 55 -6.5 87.5t-22.5 50t-49 23.5t-84 6q-53 0 -85 -6t-49.5 -24.5t-23.5 -51t-6 -83.5v-1285zM233 240v1042q0 43 9.5 67.5t46.5 24.5q39 0 48 -28.5t9 -65.5v-1040 q0 -37 -11 -67t-46 -30t-45.5 30t-10.5 67z" />
<glyph unicode="}" horiz-adv-x="921" d="M86 1337q0 -45 21.5 -81.5t56.5 -36.5q86 0 115.5 -35t29.5 -92v-281q0 -39 7.5 -65.5t15.5 -48t15 -43t7 -52.5q0 -39 -7 -57.5t-14 -35.5t-14.5 -43t-7.5 -77v-301q0 -37 -23.5 -66.5t-78.5 -29.5q-41 0 -64.5 -10.5t-36 -31t-15.5 -51t-3 -73.5q0 -33 5 -58.5 t24.5 -44t55.5 -28.5t97 -10q121 0 190.5 32.5t105.5 86t46.5 121t10.5 136.5v265q0 43 15 64.5t38.5 31.5t50.5 17t50.5 22.5t39 45.5t15.5 89q0 61 -15.5 94t-40 49.5t-51.5 22.5t-51.5 16t-39.5 29.5t-15 60.5v306q0 100 -24 165.5t-69 103.5t-109.5 53t-146.5 15 q-59 0 -95 -7t-56.5 -26.5t-27.5 -53t-7 -87.5zM272 -121q0 37 22.5 63.5t49.5 63.5t49.5 93.5t22.5 152.5q0 100 7 153.5t16.5 83t17.5 50t8 59.5q0 31 -8 58.5t-17.5 60.5t-16.5 76t-7 104q0 94 -10.5 154.5t-25.5 98.5t-32.5 58.5t-33 37t-25.5 33.5t-10 50q0 39 19 51.5 t52 12.5q80 0 127 -76t47 -242q0 -102 12.5 -164.5t31 -100.5t39 -59.5t39 -40t30.5 -43t12 -67.5q0 -45 -25.5 -73.5t-56.5 -66.5t-56.5 -99.5t-25.5 -172.5q0 -70 -4 -137t-22.5 -119.5t-55 -85t-102.5 -32.5q-23 0 -45.5 14t-22.5 51z" />
<glyph unicode="~" horiz-adv-x="1222" d="M133 637q0 -23 7 -59.5t21.5 -70.5t35 -58.5t49.5 -24.5q18 0 34.5 14.5t36 32.5t43 32.5t56.5 14.5t80 -18.5t99 -41t109.5 -41t112.5 -18.5q51 0 100.5 17.5t87 46.5t61.5 68.5t24 86.5q0 29 -9.5 66t-23 68.5t-30.5 53t-32 21.5q-31 0 -49 -13t-34.5 -30.5t-41 -31 t-67.5 -13.5q-41 0 -84 17.5t-90 39t-101.5 40t-117.5 18.5q-41 0 -90.5 -14.5t-90.5 -42t-68.5 -68.5t-27.5 -92zM326 670q0 45 35.5 57t76.5 12q61 0 103.5 -13t82.5 -28.5t85 -28t108 -12.5q10 0 25.5 -4t29 -12t22.5 -20.5t9 -28.5q0 -29 -22.5 -47.5t-85.5 -18.5 q-41 0 -85 6.5t-116 36.5q-76 33 -136.5 36t-95.5 13q-37 10 -36 52z" />
<glyph unicode="&#xa1;" horiz-adv-x="694" d="M131 897q0 -55 14.5 -88t33 -54.5t32.5 -38t14 -36.5q0 -31 -11 -39t-23.5 -21.5t-23.5 -45t-11 -107.5v-705q0 -45 9 -71.5t30.5 -39.5t59.5 -17.5t93 -4.5q57 0 95 6.5t60.5 23.5t31 48t8.5 80v702q0 59 -12.5 86t-25.5 41.5t-25.5 25.5t-12.5 38t14.5 42t32.5 35.5 t32.5 52.5t14.5 93q0 98 -64.5 150.5t-156.5 52.5q-53 0 -92 -17.5t-64.5 -46t-39 -66.5t-13.5 -79zM254 -82v422q0 88 27.5 125t66.5 37q88 0 88 -168q0 -94 -1 -192.5t-1 -209.5q0 -70 -17.5 -120t-68.5 -50q-53 0 -73.5 48.5t-20.5 107.5zM272 885q0 41 21.5 59.5 t52.5 18.5t52.5 -17.5t21.5 -60.5q0 -41 -22.5 -59.5t-51.5 -18.5q-35 0 -54.5 18.5t-19.5 59.5z" />
<glyph unicode="&#xa2;" horiz-adv-x="1024" d="M76 791q0 -92 17.5 -161t41 -118t48 -79t38.5 -44q39 -39 75 -59.5t66.5 -34.5t57 -25.5t45.5 -29.5q20 -20 24.5 -41t4.5 -60q0 -14 1 -34.5t3 -40t7 -38t13 -26.5q27 -31 103 -31q41 0 64.5 11.5t35.5 29.5q8 12 11 34t4 44.5t0 40.5t-1 27q0 20 10 37q6 10 15.5 19 t19.5 19q14 14 52 27.5t77 32t70 44t31 62.5q0 23 -18.5 52.5t-45 59.5t-55.5 57.5t-49 47.5q-12 12 -23.5 18.5t-23 9.5t-20.5 6t-15 11q-10 12 -14.5 39t-4.5 80t8.5 80t22.5 41q16 18 36.5 24.5t37.5 22.5q14 14 41.5 39t54.5 53.5t46.5 59t19.5 55.5q0 35 -20.5 58.5 t-50.5 41t-64.5 31.5t-64.5 31.5t-50.5 41t-20.5 58.5q0 72 -27.5 91.5t-91.5 19.5q-37 0 -61.5 -3t-37.5 -15.5t-19 -36t-6 -62.5q0 -16 -7.5 -52t-23.5 -52q-12 -12 -33.5 -19.5t-50.5 -21t-67 -38t-83 -69.5q-18 -18 -43.5 -48t-50 -75t-42 -105.5t-17.5 -137.5zM176 778 q0 33 7 76t21.5 85t34 78t42.5 56q45 39 96 81t99 77t87 58.5t62 23.5q25 0 58.5 -17.5t64 -44t52 -58t21.5 -58.5t-17.5 -55.5t-43 -57.5t-54 -56.5t-49.5 -52.5q-16 -18 -32.5 -28.5t-38.5 -10.5q-74 0 -112 -18t-38 -82q0 -53 36 -70.5t116 -17.5q29 0 53.5 -24.5 t46.5 -49.5q20 -20 43 -40.5t42.5 -43t32.5 -50t13 -60.5q0 -27 -23.5 -57.5t-54 -57.5t-63.5 -44t-51 -17q-31 0 -66 21.5t-75 54t-86 72.5t-99 77q-45 53 -85 129t-40 182z" />
<glyph unicode="&#xa3;" horiz-adv-x="1208" d="M96 133q0 -45 12.5 -72.5t34 -42t53 -18.5t68.5 -4h737q45 0 74 11t44.5 31.5t20.5 48.5t5 58q0 88 -37 123q-12 12 -42 18.5t-71 8.5t-88 2h-96q-59 0 -91 1t-46 17q-12 16 -13.5 49t-1.5 95q0 55 3.5 88t13.5 43t29.5 15t70.5 5q63 0 98 9.5t52.5 29t21.5 50t4 75.5 q0 49 -9 77t-31.5 41t-58.5 15t-87 2q-35 0 -56.5 3t-32.5 12.5t-14.5 25t-3.5 37.5q0 33 12.5 65.5t36 58.5t54.5 41t67 15q39 0 64 -10t43 -21.5t35.5 -21.5t42.5 -10q23 0 60.5 28.5t73.5 66.5t61.5 77t25.5 57q0 33 -35 63.5t-93 55.5t-135 40t-161 15 q-117 0 -200 -27.5t-141 -71.5t-94 -99.5t-55.5 -109.5t-26.5 -103t-7 -82q0 -51 -13.5 -71.5t-35 -28t-45 -8.5t-45 -12t-35 -40t-13.5 -90q0 -88 31 -119t66 -31q29 0 47 -7t27.5 -28.5t12.5 -60.5t3 -102q0 -53 -11.5 -77t-27.5 -34q-27 -12 -58.5 -10t-56.5 -21 q-16 -16 -26.5 -47.5t-10.5 -93.5zM274 780q0 35 14.5 63.5t33 60.5t37 72t28.5 101q6 31 29.5 95.5t83.5 123.5q47 47 119.5 79t181.5 32q78 0 122 -8t66.5 -22.5t27.5 -33t5 -36.5q0 -29 -28.5 -39.5t-75.5 -10.5q-88 0 -149.5 -23.5t-100.5 -60t-56.5 -79.5t-17.5 -80 t19.5 -70t44 -62.5t44 -58t19.5 -59.5q0 -20 -23.5 -47t-51.5 -63t-51.5 -84t-23.5 -111q0 -49 12.5 -83t30 -57.5t36 -38t30.5 -26.5q25 -25 49.5 -34t48 -12t47 -5t47.5 -15q18 -10 19 -34q0 -20 -26.5 -29.5t-60.5 -14t-67 -4.5h-45q-33 0 -73.5 -1t-83.5 -1t-85 -1 t-75 -1q-61 0 -78.5 26t-17.5 62q0 37 15 63t32.5 53.5t33 67.5t15.5 107q0 39 -15.5 74t-35 71t-35 73.5t-15.5 80.5z" />
<glyph unicode="&#xa4;" horiz-adv-x="1431" d="M-70 600q0 -41 9.5 -66.5t30 -39t50 -17.5t72.5 -4h101q37 -129 111.5 -225t174 -159.5t218 -95.5t245.5 -32q106 0 200.5 28.5t165 70.5t111.5 89.5t41 83.5q0 20 -33.5 58.5t-78.5 75t-89.5 63.5t-64.5 27q-31 0 -52.5 -20.5t-51 -46t-73.5 -46t-120 -20.5 q-68 0 -142.5 35.5t-127.5 115.5h219q59 0 93 6t50.5 21.5t20.5 40t4 61.5q0 66 -32 91.5t-132 25.5h-293v14v25q0 12 2 22h115q55 0 101 1t77 1h45q59 0 93 6.5t50.5 21.5t20.5 40t4 61q0 66 -32 91.5t-132 25.5h-233q57 55 125.5 82t128.5 27q53 0 87.5 -14.5t61.5 -33 t50.5 -33t56.5 -14.5q27 0 69.5 27t83.5 63.5t71 74.5t30 59q0 25 -35 64.5t-99.5 76.5t-157.5 63.5t-208 26.5q-88 0 -194.5 -21.5t-208 -74.5t-187.5 -143.5t-135 -229.5h-70q-78 0 -116.5 -22.5t-38.5 -98.5q0 -82 37.5 -104.5t123.5 -22.5h19q0 -16 -1 -30.5t-1 -30.5 h-74q-78 0 -117 -23.5t-39 -97.5zM61 879q7 40 19 75h14l793 9q-8 -18 -14.5 -37t-12.5 -39l-780 -8h-19zM150 602q0 12 16 23q2 -14 3 -28t3 -26q-23 8 -22 31zM254 721v31v30h219q-2 -16 -2 -30v-31h-217zM260 639h479q4 -20 9.5 -38.5t11.5 -37.5h-488q-4 18 -7 37t-5 39 zM299 473h242q59 -100 156.5 -161.5t201.5 -61.5q43 0 77 7t63.5 16.5t59 17.5t64.5 8q41 0 71 -14.5t30 -67.5q0 -37 -30 -65.5t-79 -47t-112.5 -27.5t-133.5 -9q-55 0 -141 16t-175 60t-169 123t-125 206zM309 1030q72 166 231.5 268.5t397.5 102.5q29 0 77 -4t94 -17.5 t79 -39t33 -66.5q0 -35 -18.5 -57.5t-76.5 -22.5q-29 0 -48 4t-41.5 10t-53.5 10.5t-78 4.5q-37 0 -82 -11.5t-91 -35t-90 -60.5t-79 -86h-254z" />
<glyph unicode="&#xa5;" horiz-adv-x="1361" d="M16 1386q0 -14 18.5 -46.5t46.5 -74.5t60.5 -88.5t60 -90.5t46 -80.5t18.5 -57.5q0 -31 -17.5 -47t-36.5 -31.5t-36.5 -37t-17.5 -64.5q0 -39 11 -61.5t23.5 -39t23.5 -33t11 -42.5q0 -23 -9 -30t-21.5 -19.5t-21.5 -37t-9 -79.5q0 -59 39 -89t155 -30q41 0 66 -4t39 -18 q25 -25 24 -117q0 -55 9.5 -91t38.5 -57q43 -29 151 -28q63 0 100 12t58 35q23 27 28 64.5t5 84.5v50q0 29 16 45t52 20t106 4q31 0 58.5 3t49 15.5t33.5 37t12 67.5q0 61 -10 86t-22.5 34t-22.5 16t-10 38q0 16 9 25.5t21.5 23t21.5 40t9 75.5q0 57 -17.5 81.5t-38 37 t-37.5 22t-17 39.5q0 14 18 48t47 78t61.5 93.5t61.5 94.5t47.5 80t18.5 51q0 14 -7.5 26.5t-30 21.5t-65.5 14t-115 5h-43t-54 -3t-53 -9t-38 -18q-31 -33 -65.5 -94.5t-68.5 -122t-65.5 -105.5t-60.5 -45q-18 0 -40 23.5t-45.5 59.5t-47 80t-45 84t-40 72.5t-32.5 47 t-46 21.5t-68.5 10t-71.5 3h-54q-72 0 -123 -14t-51 -64zM227 1270q0 41 21.5 54t58.5 13q43 0 74 -25.5t55.5 -63.5t48 -83t50 -83t61.5 -63.5t84 -25.5t84 25.5t63.5 63.5t53 83t51 83t59.5 63.5t78 25.5q41 0 56.5 -17t15.5 -44q0 -31 -20.5 -75t-46 -90t-46 -89 t-20.5 -70q0 -20 2 -35.5t5 -31t6 -33.5t3 -45q0 -33 -18.5 -56.5t-40 -47t-40 -49t-18.5 -64.5q0 -23 5.5 -41.5t11.5 -34.5t11 -32.5t5 -35.5q0 -10 -15.5 -30.5t-36 -43t-40 -46t-27.5 -41.5q-10 -25 -26.5 -52.5t-35 -52t-38 -40t-37.5 -15.5q-29 0 -69 46t-68 103 q-16 31 -37 56.5t-39 46t-30.5 37t-12.5 26.5q0 41 11.5 76t11.5 80q0 39 -16.5 64.5t-37 46t-37 40t-16.5 44.5q0 47 6 84.5t6 70.5q0 31 -20.5 77t-44 94t-44 90t-20.5 63z" />
<glyph unicode="&#xa6;" horiz-adv-x="489" d="M76 295q0 -70 11 -133.5t32.5 -112.5t52.5 -78.5t72 -29.5q51 0 84.5 28.5t52 77.5t26 113.5t7.5 134.5t-6.5 133.5t-24.5 112.5t-52 77.5t-87 28.5q-49 0 -82 -28.5t-51.5 -77.5t-26.5 -112.5t-8 -133.5zM76 1325q0 -70 6 -133.5t24.5 -112.5t51 -78.5t86.5 -29.5 q57 0 91 29.5t51 78.5t22.5 112.5t5.5 133.5t-7.5 134.5t-27 113.5t-52 77.5t-83.5 28.5q-59 0 -92 -28.5t-50.5 -77.5t-21.5 -113.5t-4 -134.5z" />
<glyph unicode="&#xa7;" horiz-adv-x="1329" d="M109 461q0 -109 47 -179.5t117.5 -116.5t153.5 -77t153.5 -56.5t117.5 -55t47 -76.5q0 -25 -12 -42.5t-31.5 -28.5t-43 -15t-44.5 -4q-72 0 -113.5 15t-69.5 33.5t-47 34t-48 15.5q-18 0 -54 -30t-72 -67.5t-62.5 -76.5t-26.5 -58q0 -33 23.5 -58.5t45.5 -45.5 q70 -57 154 -86t174 -29q119 0 228.5 17.5t193.5 65.5t135 136t51 230q0 37 -6 87t-26 83q16 45 37.5 70.5t42 51t34 60t13.5 102.5q0 143 -44 233.5t-110 146t-142.5 84t-142 51t-109.5 49t-44 73.5q0 51 43 79t88 28q39 0 72.5 -12.5t60.5 -26.5t44 -26.5t26 -12.5 q27 0 65.5 27.5t74.5 66.5t61.5 79t25.5 65q0 51 -52.5 86.5t-123 57.5t-141 32t-109.5 10q-104 0 -199.5 -27.5t-169 -83t-118 -140.5t-44.5 -198q0 -47 8.5 -90t24.5 -90q8 -23 -15.5 -47t-55 -63t-59 -98.5t-27.5 -151.5zM211 473q0 39 16.5 74t39 65.5t46 57t37.5 49.5 q18 27 19 49q0 23 -6.5 53.5t-15.5 72.5t-9 110q0 96 38 162.5t100.5 108.5t142 60.5t163.5 18.5q29 0 68 -3t73.5 -14.5t59.5 -35t25 -64.5q0 -20 -12.5 -32.5t-30 -18.5t-38 -8t-34.5 -2q-154 0 -234.5 -36t-80.5 -110q0 -78 40.5 -125t102 -80.5t133.5 -62.5t133.5 -70 t102 -102.5t40.5 -159.5q0 -59 -11 -96t-27.5 -60.5t-37 -37t-37 -25.5t-27.5 -27.5t-11 -42.5t6 -45t14.5 -39.5t14.5 -50.5t6 -78q0 -102 -33 -173.5t-90 -116t-137 -64.5t-172 -20q-27 0 -75 5t-95 19t-82 38t-35 60q0 35 24.5 60.5t59.5 25.5q53 0 103.5 -12t103.5 -12 q33 0 69.5 12t67.5 33.5t51.5 52.5t20.5 70q0 47 -29 89t-65 68q-49 33 -104.5 54.5t-111 41t-105.5 41t-89 56.5t-62.5 87t-23.5 130zM440 487q0 -43 32 -81.5t76 -68.5t94 -47.5t87 -17.5q31 0 64.5 11.5t62.5 32t47.5 48t18.5 62.5q0 45 -30 78t-74 54.5t-93 31.5t-86 10 q-27 0 -60.5 -6t-64.5 -19.5t-52.5 -35t-21.5 -52.5zM524 465q0 45 33 53t72 8q23 0 59.5 -3t72.5 -12t61.5 -27.5t25.5 -49.5q0 -51 -34 -70.5t-75 -19.5q-23 0 -58.5 8t-70.5 24.5t-60.5 38t-25.5 50.5z" />
<glyph unicode="&#xa8;" horiz-adv-x="1206" d="M207 1296q0 -84 48 -136t140 -52q49 0 80 12.5t52.5 26.5t40 26.5t40.5 12.5q23 0 40.5 -13.5t37 -29t47 -27.5t70.5 -12q37 0 73.5 11t65.5 35t47.5 57.5t18.5 76.5q0 51 -18.5 90t-47.5 65.5t-65.5 40t-73.5 13.5q-43 0 -70.5 -12.5t-48 -27.5t-37 -27.5t-41.5 -12.5 q-23 0 -40 12.5t-38.5 26.5t-52.5 26.5t-80 12.5q-92 0 -140 -56.5t-48 -138.5zM362 1296q0 12 9.5 22.5t25.5 10.5q35 0 35 -33q0 -16 -10 -24t-27 -8q-14 0 -23.5 10t-9.5 22zM772 1296q0 12 7 22.5t24 10.5q16 0 26.5 -8.5t10.5 -24.5t-10.5 -24t-26.5 -8t-23.5 10 t-7.5 22z" />
<glyph unicode="&#xa9;" horiz-adv-x="1873" d="M127 721q0 -176 64.5 -323.5t176 -254t260 -165t318.5 -58.5q168 0 314.5 59.5t254 166t170 256t62.5 327.5q0 180 -63.5 328.5t-174 256t-259 167t-316.5 59.5q-182 0 -330.5 -66.5t-254 -179t-164 -261t-58.5 -312.5zM260 756q0 66 12.5 106.5t30.5 40.5q10 0 12 -12 t0 -32.5t-5 -49t-3 -59.5q0 -35 3 -66t5 -54.5t-2 -36.5t-18 -13q-6 0 -13.5 16t-11.5 41t-7 56.5t-3 62.5zM422 733q0 35 3 68t10 57.5t19.5 38.5t32.5 14q14 0 20.5 -12t6.5 -22q0 -25 -4 -59t-4 -91q0 -18 3 -45t8 -52.5t8 -47t3 -33.5q0 -39 -24 -39q-16 0 -30.5 21.5 t-26 55.5t-18.5 72.5t-7 73.5zM618 748q0 66 17.5 122t42 96t53.5 62.5t51 22.5q23 0 34 -11.5t11 -23.5q0 -14 -17 -37t-38.5 -56.5t-39 -78.5t-17.5 -105q0 -51 15 -94t32.5 -75.5t33 -55t15.5 -33.5q0 -14 -7 -25.5t-30 -11.5q-35 0 -63.5 28t-49 72t-32 98t-11.5 106z M813 733q0 57 15.5 97t39 66t52 37t55.5 11t52.5 -18.5t53 -42t61.5 -42t77 -18.5q51 0 75.5 10.5t40 22.5t26.5 22.5t34 10.5q25 0 35 -18.5t14 -46t3 -57t-1 -54.5q0 -23 -1 -49.5t-6 -48t-13.5 -36t-22.5 -14.5t-29.5 14.5t-37 33t-50.5 32.5t-67 14q-39 0 -71 -21.5 t-59.5 -48t-56 -48t-61.5 -21.5q-66 0 -112 61.5t-46 151.5z" />
<glyph unicode="&#xaa;" horiz-adv-x="2097" d="M37 1348h100l8 118h224v-641h-285v-833h1688q68 0 121 17.5t89.5 48t56 70.5t19.5 85q0 88 -46 139t-122 76q51 25 83 71t32 109q0 35 -8 64.5t-31 56.5h6v287h-96l-8 -191h-598v385h-473v256h108v99h-850zM184 90v639h287v737h221v-354h475v-285h-108v-98h4l154 -381 h-394l-41 -96h471l66 -162h-1135zM692 829l27 -364h98l25 364h-150zM1163 729h545q61 0 98 -13.5t58.5 -32.5t29 -40.5t7.5 -38.5q0 -57 -51.5 -95t-123.5 -38h-233v-98h211q16 0 57 -3t83 -16.5t75 -43t33 -83.5q0 -53 -25.5 -80.5t-65.5 -41t-86 -15.5t-89 -2h-254v2h-7z M1358 1110h313v-104h96v309h-96v-107h-211v256h395l17 -188h94l-6 287h-602v-453z" />
<glyph unicode="&#xab;" horiz-adv-x="1628" d="M72 627q0 53 36.5 109.5t95 107.5t130.5 94t139 72q76 31 149.5 64.5t132 60t98.5 44t50 17.5q27 0 44.5 -24.5t17.5 -106.5q0 -78 -7 -111q66 39 123 64q76 31 150 64.5t132 60t98 44t50 17.5q27 0 44.5 -24.5t17.5 -106.5q0 -43 -2 -69.5t-6 -44t-11.5 -27.5t-15.5 -21 q-14 -14 -48 -34.5t-78 -46t-91 -53t-85 -54.5t-63.5 -51.5t-25.5 -42.5t25.5 -42t64.5 -51.5t86 -56t91 -54.5t78 -47.5t48 -35.5q27 -29 33 -54.5t6 -62.5q0 -72 -14.5 -123t-59.5 -51q-10 0 -51 18.5t-102.5 47t-138 63.5t-156.5 70q-25 10 -49.5 21.5t-49.5 25.5 q10 -18 11.5 -37.5t1.5 -42.5q0 -72 -14.5 -123t-59.5 -51q-10 0 -51 18.5t-102.5 47t-138.5 63.5t-156 70q-70 29 -137.5 68.5t-121 89t-86 107t-32.5 120.5zM201 625q0 -35 19.5 -73t53 -74t77.5 -67.5t91 -52.5q55 -27 105.5 -53t89.5 -49t65.5 -37t38.5 -14q25 0 46.5 7 t21.5 40q0 43 -54.5 83t-120 85t-119.5 94t-54 111q0 41 26.5 76.5t65.5 68.5t85 63.5t85 58.5t65.5 54.5t26.5 52.5q0 23 -19.5 32t-47.5 9q-20 0 -52 -13t-72 -34.5t-87.5 -47t-98.5 -50.5q-53 -25 -96 -56.5t-74.5 -67.5t-49 -73.5t-17.5 -72.5zM539 621q0 -16 20.5 -37 t52 -45.5t72.5 -49t82 -49.5q-39 43 -62.5 92.5t-23.5 102.5q0 39 19.5 78t54.5 80q-39 -23 -78 -47.5t-70 -47t-49 -43t-18 -34.5zM809 633q0 -35 19.5 -73t53 -73.5t78 -67.5t91.5 -52q55 -27 105 -53.5t89 -49t65.5 -37t39.5 -14.5q25 0 46 7t21 40q0 43 -54 83 t-119.5 85t-120 94t-54.5 111q0 41 26.5 76.5t65.5 68.5t85 63.5t85 58.5t65.5 54.5t26.5 53.5q0 23 -19.5 32t-47.5 9q-20 0 -52 -13.5t-72 -35t-87 -47t-98 -50.5q-53 -25 -96.5 -56.5t-75 -67.5t-49 -73.5t-17.5 -72.5z" />
<glyph unicode="&#xac;" horiz-adv-x="1288" d="M53 948q0 -68 28 -100.5t122 -32.5h592q53 0 72.5 -14.5t19.5 -59.5v-180q0 -63 17.5 -87.5t90.5 -24.5h129q27 0 49.5 1t37 9t22.5 28.5t8 57.5v508q0 37 -4 64.5t-18.5 47t-42 29.5t-74.5 10h-889q-88 0 -123 -25.5t-35 -93.5v-38q0 -14 -1 -28.5t-1 -31.5v-39z M184 1010q0 53 43 75.5t109 22.5h600q90 0 145.5 -25.5t55.5 -113.5v-250q0 -63 -10.5 -102t-63.5 -39q-29 0 -45.5 11t-24.5 29.5t-10 40t-2 41.5q0 57 -25.5 87t-56.5 61q-12 10 -37.5 21.5t-56.5 20.5t-61.5 14t-51.5 5h-358q-61 0 -105.5 23.5t-44.5 77.5z" />
<glyph unicode="&#xad;" horiz-adv-x="1067" d="M76 610q0 -53 9 -84.5t29.5 -49t50.5 -24t73 -6.5h583q57 0 92 8.5t51.5 27t21.5 50t5 78.5q0 82 -32.5 120t-133.5 38h-594q-78 0 -116.5 -30.5t-38.5 -127.5zM293 614q0 49 84 50h309q43 0 67.5 -10.5t24.5 -39.5t-25.5 -39t-66.5 -10h-309q-84 0 -84 49z" />
<glyph unicode="&#xae;" horiz-adv-x="1945" d="M162 721q0 -176 64.5 -323.5t176 -254t261 -165t317.5 -58.5t314.5 59.5t255 166t171 256t62.5 327.5q0 180 -64.5 328.5t-175 256t-259 167t-316.5 59.5q-182 0 -331 -66.5t-254 -179t-163.5 -261t-58.5 -312.5zM457 735q0 70 14 129.5t35.5 102.5t46.5 67.5t47 24.5 q18 0 30.5 -22.5t12.5 -55.5q0 -29 -3 -52.5t-6 -51t-5 -64.5t-2 -92q0 -39 3 -76t7 -69.5t7 -58.5t3 -40q0 -29 -11 -53.5t-44 -24.5q-25 0 -49.5 32t-43 81t-30.5 108.5t-12 114.5zM731 772q0 164 21.5 229.5t74.5 65.5q33 0 50.5 -7t24.5 -18.5t7 -25.5v-29q0 -55 68 -55 q25 -8 42 -10t28 -2q10 10 16 25.5t13 29.5t18.5 24.5t31.5 10.5q12 0 28.5 -5.5t30 -19.5t23 -38.5t9.5 -63.5q0 -20 -12.5 -64.5t-31 -92.5t-39 -90t-34.5 -56q-4 -4 -10.5 -8.5t-18.5 -6.5t-33.5 -3t-56.5 -1q-43 0 -61.5 -8t-32 -18.5t-29.5 -18.5t-55 -8q-12 0 -24.5 5 t-24 30.5t-17.5 79t-6 149.5zM799 250q0 18 11 27.5t26.5 15.5t33 12t27.5 16.5t17.5 28t13.5 34.5t14 29.5t23 12.5q14 0 27.5 -10t26.5 -26.5t28.5 -36t31.5 -36.5q6 -6 18.5 -11t25 -11t21.5 -15.5t9 -25.5q0 -29 -48 -50.5t-132 -21.5q-86 0 -130 20.5t-44 47.5z M848 1225q0 16 13 25.5t33.5 13.5t44.5 5t44 1q14 0 40 -2t51.5 -8.5t44 -19t18.5 -32.5q0 -18 -35 -21t-107 -3q-84 0 -115.5 7t-31.5 34zM1225 612q0 25 18.5 44.5t40 43t39.5 54t18 77.5t-2 85t-2 61q0 49 33 49q23 0 44.5 -27.5t37.5 -70.5t25.5 -98.5t9.5 -110.5 q0 -45 -9.5 -97.5t-25.5 -97.5t-42 -74.5t-58 -29.5q-20 0 -43 21.5t-41.5 51t-30.5 62.5t-12 57z" />
<glyph unicode="&#xaf;" horiz-adv-x="925" d="M70 1315q0 -47 4 -75t17 -43t37 -20.5t60 -5.5h93t137 1.5t135 1.5h92q39 0 63.5 6t39 23.5t19.5 46t5 71.5q0 84 -28.5 116.5t-94.5 32.5h-467q-35 0 -57.5 -6t-34.5 -23.5t-16 -47t-4 -78.5zM244 1329q0 27 25.5 37t68.5 10h162q49 0 74.5 -10t25.5 -39t-25.5 -40 t-68.5 -11q-41 0 -88 1t-92 1t-63.5 12.5t-18.5 38.5z" />
<glyph unicode="&#xb0;" horiz-adv-x="917" d="M113 1229q0 -72 26.5 -135.5t73.5 -111.5t110.5 -76.5t135.5 -28.5t135 28.5t110.5 76.5t75 111.5t27.5 135.5q0 70 -27.5 134t-75 111.5t-111 76t-134.5 28.5q-72 0 -134.5 -27.5t-109.5 -76t-74.5 -112t-27.5 -134.5zM281 1229q0 37 14 69.5t38.5 56t56.5 38t69 14.5 t69.5 -14.5t56 -39t38 -56t14.5 -68.5q0 -74 -52.5 -127t-125.5 -53q-74 0 -126 52t-52 128z" />
<glyph unicode="&#xb1;" horiz-adv-x="1331" d="M96 375q0 -96 36 -129t130 -33h805q51 0 84 6t51.5 23.5t25.5 48.5t7 82t-5 83.5t-19.5 51t-41 26t-71.5 7.5h-195q-29 0 -52.5 21.5t-23.5 49.5v86q0 29 23.5 47.5t54.5 18.5h232q53 0 75.5 29.5t22.5 130.5q0 45 -4 77.5t-18.5 52t-42 29t-72.5 9.5h-215q-55 0 -56 43 v249q0 41 -11 66t-32.5 37t-51.5 16t-66 4q-72 0 -118 -23.5t-46 -103.5v-223q0 -37 -12.5 -52t-51.5 -15h-207q-47 0 -73.5 -8.5t-41 -27t-17.5 -50t-3 -78.5q0 -43 4 -74t17.5 -50.5t40 -29.5t73.5 -10h207q41 0 51.5 -20.5t10.5 -57.5v-78q0 -37 -10.5 -52t-51.5 -15 h-207q-47 0 -73.5 -8.5t-41 -28t-17.5 -51t-3 -76.5zM279 383q0 25 15 38t36.5 20.5t46 12.5t43.5 13q57 23 106 72q23 23 44.5 53.5t21.5 64.5q0 37 -24.5 71t-49.5 58q-43 41 -100 64q-18 6 -43 10t-46.5 11.5t-35.5 20.5t-14 42q0 25 15 38t36.5 20t46 12.5t43.5 13.5 q57 23 106 72q35 35 58 86q6 18 11 43.5t13 49t20.5 41t33.5 17.5q29 0 42 -13.5t20 -33.5t11 -45t15 -45q12 -31 31.5 -57.5t41.5 -49.5q45 -47 105 -69q18 -6 40.5 -10.5t42 -11.5t33 -20t13.5 -40t-16.5 -41t-39 -21.5t-48 -12.5t-44.5 -11q-53 -20 -98 -62 q-23 -23 -44.5 -53.5t-21.5 -64.5q0 -39 26 -74t52 -60q39 -39 88 -63q20 -10 46 -14t47.5 -11.5t36 -21.5t14.5 -41q0 -37 -33 -44t-74 -7q-70 0 -135 -20.5t-137 -20.5q-35 0 -68 6t-65.5 14t-65.5 14.5t-69 6.5q-20 0 -43 2t-42.5 8t-31.5 16.5t-12 26.5z" />
<glyph unicode="&#xb4;" horiz-adv-x="1206" d="M332 1174q0 -35 42 -48.5t130 -13.5q133 0 172 41q29 29 76 65.5t92 71.5t77.5 65t32.5 46q0 37 -41 57.5t-94 20.5q-20 0 -50 -1t-60.5 -3t-59 -3.5t-45.5 -1.5q-47 0 -74.5 -17t-50.5 -46q-14 -16 -38.5 -50t-49 -71t-42 -68.5t-17.5 -43.5z" />
<glyph unicode="&#xb5;" horiz-adv-x="1206" d="M74 59q0 -68 1 -143.5t1 -148.5v-127q0 -45 9 -72t30.5 -40t59.5 -17.5t93 -4.5q57 0 95 6.5t60.5 24t31 48t8.5 79.5v299q0 18 7 33.5t28 15.5q33 0 50 -6t39.5 -13t57.5 -13.5t100 -6.5q41 0 82 11.5t76 21.5q18 6 39 4t41.5 -3t38.5 2t33 18q27 27 42 82t23 113.5 t10.5 111t2.5 72.5v436q0 57 -3.5 95t-20.5 60.5t-51 31.5t-95 9q-68 0 -108 -8t-60.5 -25.5t-25.5 -43t-5 -62.5v-381q0 -41 -6 -78t-21.5 -64.5t-45 -45t-75.5 -17.5q-80 0 -121.5 45t-41.5 160v371q0 43 -6.5 72.5t-27 46t-56 23.5t-97.5 7q-53 0 -90 -4t-59.5 -19.5 t-32.5 -47t-10 -88.5v-709v-111zM172 135v547q0 127 19.5 175t66.5 48q20 0 38.5 -5t32 -24.5t20.5 -58.5t7 -104q0 -102 12.5 -188.5t42 -149t77 -97t118.5 -34.5q78 0 127 39t78 99t39 133t10 140q0 68 1 116t9.5 78t25.5 43t50 13q51 0 70.5 -32.5t19.5 -79.5v-381 q0 -12 -1 -51t-6 -86.5t-16.5 -91.5t-33.5 -66q-10 -10 -27 -11q-14 0 -31.5 2.5t-35 4.5t-33.5 -4q-23 -6 -52.5 -16.5t-60.5 -10.5q-66 0 -105.5 7t-68 16.5t-54.5 17.5t-65 8q-49 0 -69.5 -22.5t-20.5 -45.5v-71q0 -27 -1 -48.5t-1 -49.5v-84q0 -72 -17.5 -121t-68.5 -49 q-53 0 -74.5 47t-21.5 106v342z" />
<glyph unicode="&#xb6;" horiz-adv-x="1306" d="M113 1126q0 -113 36.5 -186.5t94 -117.5t127 -61.5t135.5 -17.5q20 0 32.5 -12t18.5 -29.5t8 -38t2 -34.5v-811q0 -104 105 -105q37 0 65.5 35t28.5 70v1372q0 49 37 86t86 37q20 0 38.5 -12.5t34 -31t24.5 -40t9 -39.5v-1372q0 -59 20.5 -82t80.5 -23q37 0 56 9.5 t28.5 27t11.5 40.5t2 54v1579q0 66 -44 97.5t-106 31.5h-419q-152 0 -250.5 -22.5t-156.5 -72.5t-81.5 -131t-23.5 -200zM319 1130q0 25 9.5 56t27 56.5t41 43t54.5 17.5t52 -17.5t36.5 -44.5t22.5 -56.5t7 -54.5q0 -27 -8 -54t-24.5 -48.5t-39 -36t-53.5 -14.5 q-29 0 -52 14.5t-39.5 36t-25 49t-8.5 53.5z" />
<glyph unicode="&#xb7;" horiz-adv-x="696" d="M127 643q0 -35 14.5 -71.5t41 -67.5t66.5 -51.5t91 -20.5q98 0 158.5 59.5t60.5 151.5q0 41 -13.5 81t-41 70.5t-68.5 50t-96 19.5q-94 0 -153.5 -62.5t-59.5 -158.5zM270 647q0 43 22.5 58.5t49.5 15.5q72 0 72 -68q0 -41 -22.5 -56t-51.5 -15t-49.5 15t-20.5 50z" />
<glyph unicode="&#xb8;" horiz-adv-x="825" d="M106 -430q0 -16 17.5 -36.5t51.5 -38t83 -30t113 -12.5q84 0 144 15.5t98 40t56.5 57t18.5 67.5q0 49 -23.5 81t-52 54.5t-52 40t-23.5 37.5q0 23 7 35.5t16 22.5t17.5 21.5t8.5 29.5q0 12 -5.5 21.5t-20.5 15.5t-44 9t-76 3q-41 0 -75.5 -20.5t-60 -49t-41 -59.5 t-15.5 -53q0 -29 10 -42t21.5 -22.5t21.5 -19.5t10 -31q0 -41 -131 -41q-20 0 -47 -21.5t-27 -74.5zM395 -356q0 18 13.5 28.5t31.5 10.5t33.5 -11.5t15.5 -29.5t-17 -26.5t-34 -8.5q-18 0 -30.5 10t-12.5 27z" />
<glyph unicode="&#xba;" horiz-adv-x="933" d="M102 1255q0 -76 30 -135t80 -101t114.5 -64.5t136.5 -22.5q70 0 136.5 22.5t117.5 64.5t82.5 101t31.5 135t-30.5 136.5t-81.5 101.5t-117.5 63.5t-138.5 22.5t-137.5 -22.5t-114.5 -63.5t-79 -101.5t-30 -136.5zM281 1255q0 37 15 67t40.5 51.5t58.5 33.5t68 12 t68.5 -12t59 -33.5t42 -51.5t16.5 -67t-16.5 -67.5t-42 -52t-59 -33.5t-68.5 -12q-37 0 -70 11t-57.5 32.5t-39.5 52.5t-15 69z" />
<glyph unicode="&#xbb;" horiz-adv-x="1628" d="M72 225q0 -35 3 -66.5t11 -55t22.5 -38t36.5 -14.5q10 0 51.5 18.5t102.5 47t138 63.5t157 70q25 10 49.5 21.5t48.5 25.5q-10 -18 -11 -37.5t-1 -42.5q0 -35 3 -66.5t11 -55t22.5 -38t37.5 -14.5q10 0 51 18.5t102.5 47t138 63.5t156.5 70q70 29 137.5 68.5t120.5 89 t86 107t33 120.5q0 53 -37 109.5t-95 107.5t-130 94t-139 72q-78 31 -151 64.5t-131 60t-98 44t-50 17.5q-27 0 -44.5 -24.5t-17.5 -106.5q0 -78 6 -111q-66 39 -123 64q-78 31 -150.5 64.5t-131 60t-98 44t-50.5 17.5q-27 0 -44 -24.5t-17 -106.5q0 -43 2 -69.5t6 -44 t10 -27.5t17 -21q14 -14 48 -34.5t78 -46t91 -53t85 -54.5t63.5 -51.5t25.5 -42.5t-25.5 -42t-64.5 -51.5t-86 -56t-91 -54.5t-78 -47.5t-48 -35.5q-27 -29 -33 -54.5t-6 -62.5zM227 1008q0 23 19.5 32t48.5 9q20 0 52 -13.5t72 -35t87 -47t98 -50t95 -56.5t76 -68 t49.5 -73.5t17.5 -72.5t-19.5 -73t-53.5 -73.5t-78 -67.5t-91 -52q-55 -27 -105.5 -53.5t-89 -49t-65.5 -37t-39 -14.5q-25 0 -46.5 7t-21.5 40q0 43 54.5 83t120 85t120 94t54.5 111q0 41 -27 76.5t-65.5 68.5t-85 63.5t-85 58.5t-65.5 54.5t-27 53.5zM836 999q0 23 19 32 t48 9q20 0 52 -13t72 -34.5t87 -47t98.5 -50.5t95.5 -56.5t75.5 -67.5t49 -73.5t17.5 -72.5t-19.5 -73t-53.5 -74t-78 -67.5t-91 -52.5q-55 -27 -105 -53t-89 -49t-65.5 -37t-39.5 -14q-25 0 -46 7t-21 40q0 43 54 83t119.5 85t120 94t54.5 111q0 41 -26.5 76.5t-65.5 68.5 t-85 63.5t-85 58.5t-65.5 54.5t-26.5 52.5zM885 440q39 43 62.5 92.5t23.5 102.5q0 39 -19.5 78t-54.5 80q39 -23 78 -47.5t69.5 -47t49 -43t18.5 -34.5q0 -16 -20.5 -37t-52 -45.5t-72.5 -49t-82 -49.5z" />
<glyph unicode="&#xbc;" horiz-adv-x="1347" d="M109 342q-2 -29 8 -53.5t28.5 -44t43 -29.5t51.5 -6q20 2 32.5 15.5t21.5 29.5t20.5 33.5t31.5 27.5q45 23 83 8.5t75 -40t78 -50t92 -24.5q49 0 90 24.5t79 50t75.5 40t82.5 -8.5q18 -10 29.5 -27.5t21 -33.5t21.5 -29.5t35 -15.5q27 -2 51.5 8t43 28.5t28.5 43t6 53.5 q-2 20 -15.5 32.5t-30.5 22t-33.5 20.5t-27.5 29q-16 31 -13 77t14.5 94.5t30 92.5t35.5 70.5t28.5 29.5t11.5 -32t-12.5 -31.5t-28.5 31t-34.5 71.5t-31 92t-14.5 93t14 76q10 20 28 31.5t34 20.5t29.5 21.5t15.5 35.5q4 53 -36 92t-93 35q-23 -2 -35 -14.5t-21.5 -30 t-20.5 -34t-30 -26.5q-45 -23 -82.5 -9.5t-75.5 39t-79 50.5t-90 25q-51 0 -92 -25t-78 -50.5t-75 -38.5t-83 9q-20 10 -31.5 26.5t-20.5 34t-21.5 29.5t-32.5 15q-27 2 -51.5 -7.5t-43 -28t-29 -42t-7.5 -49.5q2 -23 15 -35.5t29.5 -21.5t34 -20.5t27.5 -31.5 q23 -45 9.5 -83t-39 -77t-51 -80t-25.5 -92t25.5 -92t51 -79t39 -76.5t-9.5 -84.5q-10 -18 -27.5 -29t-34 -20.5t-29.5 -22t-15 -32.5zM356 778q0 68 25 128.5t66.5 105.5t100 71.5t126.5 26.5t125 -26.5t99 -71.5t66.5 -105.5t24.5 -128.5t-23.5 -127t-66.5 -105 t-100.5 -74t-124.5 -28q-68 0 -126.5 27t-100 73t-66.5 106.5t-25 127.5z" />
<glyph unicode="&#xbf;" d="M55 379q0 -117 43 -196t114 -127t160 -68.5t179 -20.5q98 0 187 32t157 87t107.5 132t39.5 167q0 37 -14 55.5t-43 22.5q-57 12 -111.5 16t-70.5 4q-63 0 -93 -25.5t-51.5 -55t-46 -55t-73.5 -25.5q-35 0 -68 17t-33 73q0 53 42 92t102 96q8 8 33.5 27.5t53 53.5t49 83 t21.5 119q0 57 -14 80.5t-31.5 35t-32 17.5t-14.5 28q0 12 19.5 22.5t42 32t42 60.5t19.5 109q0 55 -18.5 94t-49 63.5t-71.5 37t-84 12.5q-35 0 -72 -14.5t-66.5 -41t-48 -65.5t-18.5 -86q0 -63 18.5 -101.5t40 -62t40 -36.5t18.5 -26q0 -16 -13.5 -24t-31 -18.5t-31.5 -30 t-16 -58.5q-2 -23 -26 -54.5t-57.5 -65t-68.5 -65.5t-57 -54q-10 -10 -26.5 -30.5t-34 -56.5t-30 -86t-12.5 -120zM162 377q0 51 10 93t33.5 82t60.5 83t90 98q14 14 34 40t41.5 48.5t46 40t48.5 17.5q23 0 44.5 -15.5t21.5 -75.5q0 -41 -34 -80.5t-75 -82.5t-74.5 -91.5 t-33.5 -105.5q0 -31 12 -62.5t33.5 -57t51.5 -42t67 -16.5q51 0 83.5 14.5t59.5 32.5t54.5 32.5t68.5 14.5h20q14 0 26.5 -7t22 -23.5t9.5 -47.5q0 -37 -27 -73.5t-73 -64.5t-109.5 -45t-136.5 -17q-70 0 -136.5 18t-120 56t-86 96.5t-32.5 140.5zM461 1260q0 74 92 73 q96 1 96 -73q0 -53 -30.5 -69.5t-59.5 -16.5q-41 0 -69.5 14t-28.5 72z" />
<glyph unicode="&#xc0;" horiz-adv-x="1490" d="M-41 70q0 -33 32 -52.5t83 -19.5h178q66 0 103.5 48t60.5 112q16 51 29.5 76.5t27.5 39.5q6 8 24.5 11.5t41.5 3.5h344q37 0 55 -19q20 -20 30.5 -55t32.5 -82q12 -25 21.5 -48.5t26 -42.5t47 -31.5t86.5 -12.5h170q53 0 76.5 26.5t23.5 51.5q0 14 -15.5 53t-50 120 t-94 215t-145.5 337q-80 190 -131 314t-86 197.5t-62.5 106.5t-62.5 41q0 4 -1 6t-1 7q0 18 11 26t23.5 15.5t23.5 19.5t11 37q0 12 -22.5 50t-51 79t-56 75.5t-35.5 45.5q-16 16 -55.5 26.5t-86.5 10.5q-16 0 -39.5 1t-49 2t-49.5 2t-38 1t-36.5 -2t-44 -10.5t-38 -21.5 t-16.5 -34q0 -14 21.5 -36.5t52 -48t63.5 -53.5t55 -50q16 -14 44 -35t51 -37q20 -14 33.5 -26.5t13.5 -28.5q0 -14 -5 -19.5t-11.5 -9.5t-12.5 -9t-8 -18q-27 -27 -49.5 -74.5t-51 -116.5t-65.5 -161t-90 -207q-20 -45 -53 -118.5t-71 -160.5t-75 -176t-67.5 -163t-50 -123 t-19.5 -55zM135 240q0 16 19.5 68t52.5 129t75 171t87 193q47 106 82.5 203.5t71.5 171t79 117.5t107 44q55 0 98 -45t81 -119.5t75.5 -171t83.5 -198.5q43 -100 86 -193.5t76.5 -172.5t54 -139t20.5 -97q0 -27 -15.5 -50.5t-66.5 -23.5q-45 0 -70.5 19.5t-48 49t-46 64.5 t-64.5 64.5t-105.5 49t-167.5 19.5q-94 0 -155.5 -19.5t-103.5 -48t-69.5 -63.5t-50 -63.5t-47 -48t-63.5 -19.5q-27 0 -42 5t-22.5 17.5t-9.5 33t-2 53.5zM547 723q0 -43 20.5 -59.5t38.5 -34.5q16 -16 24.5 -27.5t20.5 -21.5q8 -4 20.5 -8.5t30.5 -4.5t44 17.5t48.5 43 t38 54.5t15.5 49q0 31 -13.5 62.5t-35 57.5t-47 43t-50.5 17t-51 -15t-49.5 -42t-39 -60.5t-15.5 -70.5zM625 684q0 20 5 43t14 42t22.5 32.5t29.5 13.5q35 0 56.5 -41t21.5 -102q0 -29 -16 -39q-10 -4 -22.5 -7t-35.5 -3q-25 0 -42 3t-21 9q-12 12 -12 49z" />
<glyph unicode="&#xc1;" horiz-adv-x="1490" d="M-41 70q0 -33 32 -52.5t83 -19.5h178q66 0 103.5 48t60.5 112q16 51 29.5 76.5t27.5 39.5q6 8 24.5 11.5t41.5 3.5h344q37 0 55 -19q20 -20 30.5 -55t32.5 -82q12 -25 21.5 -48.5t26 -42.5t47 -31.5t86.5 -12.5h170q53 0 76.5 26.5t23.5 51.5q0 14 -15.5 53t-50 120 t-94 215t-145.5 337q-57 135 -98 236.5t-73 174t-55.5 120.5t-43.5 77q-6 16 -18.5 26.5t-27 18.5t-25.5 14.5t-13 14.5q6 18 58 60t111.5 91t108.5 94.5t49 69.5q0 18 -11 28.5t-29.5 16.5t-39 8t-39.5 2q-53 0 -105 1t-105 1q-29 0 -63 -8t-58 -35q-12 -12 -40 -45.5 t-55.5 -73.5t-48 -77t-20.5 -53t9 -27.5t22.5 -20t28 -16.5t22.5 -18q4 -23 -8.5 -36t-28.5 -20q-27 -27 -49.5 -74.5t-51 -116.5t-65.5 -161t-90 -207q-20 -45 -53 -118.5t-71 -160.5t-75 -176t-67.5 -163t-50 -123t-19.5 -55zM135 240q0 16 19.5 68t52.5 129t75 171 t87 193q47 106 82.5 203.5t71.5 171t79 117.5t107 44q55 0 98 -45t81 -119.5t75.5 -171t83.5 -198.5q43 -100 86 -193.5t76.5 -172.5t54 -139t20.5 -97q0 -27 -15.5 -50.5t-66.5 -23.5q-45 0 -70.5 19.5t-48 49t-46 64.5t-64.5 64.5t-105.5 49t-167.5 19.5 q-94 0 -155.5 -19.5t-103.5 -48t-69.5 -63.5t-50 -63.5t-47 -48t-63.5 -19.5q-27 0 -42 5t-22.5 17.5t-9.5 33t-2 53.5zM547 723q0 -43 20.5 -59.5t38.5 -34.5q16 -16 24.5 -27.5t20.5 -21.5q8 -4 20.5 -8.5t30.5 -4.5t44 17.5t48.5 43t38 54.5t15.5 49q0 31 -13.5 62.5 t-35 57.5t-47 43t-50.5 17t-51 -15t-49.5 -42t-39 -60.5t-15.5 -70.5zM625 684q0 20 5 43t14 42t22.5 32.5t29.5 13.5q35 0 56.5 -41t21.5 -102q0 -29 -16 -39q-10 -4 -23.5 -7t-34.5 -3q-25 0 -42 3t-21 9q-12 12 -12 49z" />
<glyph unicode="&#xc2;" horiz-adv-x="1490" d="M-41 70q0 -33 32 -52.5t83 -19.5h178q66 0 103.5 48t60.5 112q16 51 29.5 76.5t27.5 39.5q6 8 24.5 11.5t41.5 3.5h344q37 0 55 -19q20 -20 30.5 -55t32.5 -82q12 -25 21.5 -48.5t26 -42.5t47 -31.5t86.5 -12.5h170q53 0 76.5 26.5t23.5 51.5q0 14 -15.5 53t-50 120 t-94 215t-145.5 337q-76 178 -125 297t-83 194.5t-60.5 112.5t-55.5 49q-14 10 -14 21q0 10 14.5 17t35 11t42 5t35.5 1q51 0 88 11.5t37 50.5q0 16 -15.5 43.5t-37 56.5t-44 55.5t-38.5 42.5q-12 12 -27.5 29t-37 32t-48.5 26.5t-63 11.5h-154q-29 0 -50.5 -4t-43 -14.5 t-44 -29t-50.5 -46.5q-14 -14 -39 -44t-47.5 -61t-40 -58.5t-17.5 -37.5q0 -39 43 -52.5t123 -13.5q74 0 102.5 5.5t38.5 15.5q23 23 47.5 37t43.5 14q16 0 37.5 -11.5t42 -27.5t33.5 -32.5t13 -24.5q0 -10 -24 -21q-31 0 -59.5 1t-63.5 1q-53 0 -87 -34.5t-66.5 -108.5 t-75.5 -186.5t-117 -268.5q-20 -45 -53 -118.5t-71 -160.5t-75 -176t-67.5 -163t-50 -123t-19.5 -55zM135 240q0 16 19.5 68t52.5 129t75 171t87 193q47 106 82.5 203.5t71.5 171t79 117.5t107 44q55 0 98 -45t81 -119.5t75.5 -171t83.5 -198.5q43 -100 86 -193.5 t76.5 -172.5t54 -139t20.5 -97q0 -27 -15.5 -50.5t-66.5 -23.5q-45 0 -70.5 19.5t-48 49t-46 64.5t-64.5 64.5t-105.5 49t-167.5 19.5q-94 0 -155.5 -19.5t-103.5 -48t-69.5 -63.5t-50 -63.5t-47 -48t-63.5 -19.5q-27 0 -42 5t-22.5 17.5t-9.5 33t-2 53.5zM547 723 q0 -43 20.5 -59.5t38.5 -34.5q16 -16 24.5 -27.5t20.5 -21.5q8 -4 20.5 -8.5t30.5 -4.5t44 17.5t48.5 43t38 54.5t15.5 49q0 31 -13.5 62.5t-35 57.5t-47 43t-50.5 17t-51 -15t-49.5 -42t-39 -60.5t-15.5 -70.5zM625 684q0 20 5 43t14 42t22.5 32.5t29.5 13.5q35 0 56.5 -41 t21.5 -102q0 -29 -16 -39q-10 -4 -22.5 -7t-35.5 -3q-25 0 -42 3t-21 9q-12 12 -12 49z" />
<glyph unicode="&#xc3;" horiz-adv-x="1490" d="M-41 70q0 -33 32 -52.5t83 -19.5h178q66 0 103.5 48t60.5 112q16 51 29.5 76.5t27.5 39.5q6 8 24.5 11.5t41.5 3.5h344q37 0 55 -19q20 -20 30.5 -55t32.5 -82q12 -25 21.5 -48.5t26 -42.5t47 -31.5t86.5 -12.5h170q53 0 76.5 26.5t23.5 51.5q0 14 -15.5 53t-50 120 t-94 215t-145.5 337q-90 211 -142.5 340t-89 200.5t-67.5 96t-74 24.5q-35 0 -65.5 1t-67.5 1q-53 0 -87 -34.5t-66.5 -108.5t-75.5 -186.5t-117 -268.5q-20 -45 -53 -118.5t-71 -160.5t-75 -176t-67.5 -163t-50 -123t-19.5 -55zM135 240q0 16 19.5 68t52.5 129t75 171 t87 193q47 106 82.5 203.5t71.5 171t79 117.5t107 44q55 0 98 -45t81 -119.5t75.5 -171t83.5 -198.5q43 -100 86 -193.5t76.5 -172.5t54 -139t20.5 -97q0 -27 -15.5 -50.5t-66.5 -23.5q-45 0 -70.5 19.5t-48 49t-46 64.5t-64.5 64.5t-105.5 49t-167.5 19.5 q-94 0 -155.5 -19.5t-103.5 -48t-69.5 -63.5t-50 -63.5t-47 -48t-63.5 -19.5q-27 0 -42 5t-22.5 17.5t-9.5 33t-2 53.5zM258 1606q0 -47 32 -64.5t79 -17.5q45 0 70.5 12t44 26.5t39 27t57.5 12.5q23 0 49 -13.5t57 -29t68 -28.5t82 -13q68 0 123 26.5t95 66.5t62.5 85 t22.5 82q0 47 -34 64.5t-75 17.5q-37 0 -64.5 -11.5t-52 -25t-47 -24.5t-49.5 -11t-49.5 12t-50 25.5t-65.5 26t-93 12.5q-86 0 -144.5 -38t-93 -84t-49 -87t-14.5 -49zM547 723q0 -43 20.5 -59.5t38.5 -34.5q16 -16 24.5 -27.5t20.5 -21.5q8 -4 20.5 -8.5t30.5 -4.5 t44 17.5t48.5 43t38 54.5t15.5 49q0 31 -13.5 62.5t-35 57.5t-47 43t-50.5 17t-51 -15t-49.5 -42t-39 -60.5t-15.5 -70.5zM625 684q0 20 5 43t14 42t22.5 32.5t29.5 13.5q35 0 56.5 -41t21.5 -102q0 -29 -16 -39q-10 -4 -22.5 -7t-35.5 -3q-25 0 -42 3t-21 9q-12 12 -12 49z " />
<glyph unicode="&#xc4;" horiz-adv-x="1490" d="M-41 70q0 -33 32 -52.5t83 -19.5h178q66 0 103.5 48t60.5 112q16 51 29.5 76.5t27.5 39.5q6 8 24.5 11.5t41.5 3.5h344q37 0 55 -19q20 -20 30.5 -55t32.5 -82q12 -25 21.5 -48.5t26 -42.5t47 -31.5t86.5 -12.5h170q53 0 76.5 26.5t23.5 51.5q0 14 -15.5 53t-50 120 t-94 215t-145.5 337q-53 125 -92 221t-70 168t-53.5 121t-42.5 80q-4 10 -6 21t-2 24q0 25 33.5 35t74.5 30.5t75 61.5t34 125q0 43 -17.5 77.5t-45 59t-63.5 38t-73 13.5q-43 0 -71.5 -12.5t-49 -27.5t-38 -27.5t-42.5 -12.5q-23 0 -40 12.5t-38.5 25.5t-52 25.5 t-80.5 12.5q-92 0 -141 -59.5t-49 -141.5q0 -51 23.5 -89t50.5 -64q20 -20 47.5 -27.5t52.5 -12.5t42 -12.5t17 -25.5q0 -29 -8 -51q-41 -68 -88 -196t-139 -327q-20 -45 -53 -118.5t-71 -160.5t-75 -176t-67.5 -163t-50 -123t-19.5 -55zM135 240q0 16 19.5 68t52.5 129 t75 171t87 193q47 106 82.5 203.5t71.5 171t79 117.5t107 44q55 0 98 -45t81 -119.5t75.5 -171t83.5 -198.5q43 -100 86 -193.5t76.5 -172.5t54 -139t20.5 -97q0 -27 -15.5 -50.5t-66.5 -23.5q-45 0 -70.5 19.5t-48 49t-46 64.5t-64.5 64.5t-105.5 49t-167.5 19.5 q-94 0 -155.5 -19.5t-103.5 -48t-69.5 -63.5t-50 -63.5t-47 -48t-63.5 -19.5q-27 0 -42 5t-22.5 17.5t-9.5 33t-2 53.5zM469 1679q0 29 37 29q31 0 31 -29q0 -33 -33 -32q-35 0 -35 32zM547 723q0 -43 20.5 -59.5t38.5 -34.5q16 -16 24.5 -27.5t20.5 -21.5q8 -4 20.5 -8.5 t30.5 -4.5t44 17.5t48.5 43t38 54.5t15.5 49q0 31 -13.5 62.5t-35 57.5t-47 43t-50.5 17t-51 -15t-49.5 -42t-39 -60.5t-15.5 -70.5zM592 1460q0 10 9 26.5t24.5 32t35 26.5t39.5 11q29 0 43.5 -22t14.5 -47q0 -16 -14.5 -20.5t-33 -3.5t-38 4t-31.5 3q-10 0 -24.5 -6 t-24.5 -4zM625 684q0 20 5 43t14 42t22.5 32.5t29.5 13.5q35 0 56.5 -41t21.5 -102q0 -29 -16 -39q-10 -4 -22.5 -7t-35.5 -3q-25 0 -42 3t-21 9q-12 12 -12 49zM864 1677q0 29 31 29q33 0 33 -27q0 -33 -33 -32q-16 0 -23.5 9t-7.5 21z" />
<glyph unicode="&#xc5;" horiz-adv-x="1490" d="M-41 70q0 -33 32 -52.5t83 -19.5h178q66 0 103.5 48t60.5 112q16 51 29.5 76.5t27.5 39.5q6 8 24.5 11.5t41.5 3.5h344q37 0 55 -19q20 -20 30.5 -55t32.5 -82q12 -25 21.5 -48.5t26 -42.5t47 -31.5t86.5 -12.5h170q53 0 76.5 26.5t23.5 51.5q0 14 -15.5 53t-50 120 t-94 215t-145.5 337q-63 150 -107.5 257t-77 181t-57 119t-47.5 69q6 20 23.5 36t36 39.5t33 60t14.5 98.5q0 59 -20.5 105t-55.5 78t-80 48.5t-92 16.5q-51 0 -97.5 -16.5t-82 -48.5t-57 -79t-21.5 -108q0 -49 12 -84t29.5 -59.5t35 -43t29.5 -32.5q-31 -23 -54.5 -69 t-53 -116.5t-67.5 -167t-95 -219.5q-20 -45 -53 -118.5t-71 -160.5t-75 -176t-67.5 -163t-50 -123t-19.5 -55zM135 240q0 16 19.5 68t52.5 129t75 171t87 193q47 106 82.5 203.5t71.5 171t79 117.5t107 44q55 0 98 -45t81 -119.5t75.5 -171t83.5 -198.5q43 -100 86 -193.5 t76.5 -172.5t54 -139t20.5 -97q0 -27 -15.5 -50.5t-66.5 -23.5q-45 0 -70.5 19.5t-48 49t-46 64.5t-64.5 64.5t-105.5 49t-167.5 19.5q-94 0 -155.5 -19.5t-103.5 -48t-69.5 -63.5t-50 -63.5t-47 -48t-63.5 -19.5q-27 0 -42 5t-22.5 17.5t-9.5 33t-2 53.5zM547 723 q0 -43 20.5 -59.5t38.5 -34.5q16 -16 24.5 -27.5t20.5 -21.5q8 -4 20.5 -8.5t30.5 -4.5t44 17.5t48.5 43t38 54.5t15.5 49q0 31 -13.5 62.5t-35 57.5t-47 43t-50.5 17t-51 -15t-49.5 -42t-39 -60.5t-15.5 -70.5zM625 684q0 20 5 43t14 42t22.5 32.5t29.5 13.5q35 0 56.5 -41 t21.5 -102q0 -29 -16 -39q-10 -4 -22.5 -7t-35.5 -3q-25 0 -42 3t-21 9q-12 12 -12 49zM655 1647q0 23 16.5 37t39.5 14t38 -14t15 -37t-15.5 -38.5t-37.5 -15.5q-23 0 -40.5 15.5t-15.5 38.5z" />
<glyph unicode="&#xc6;" horiz-adv-x="2009" d="M-55 80q0 -33 29.5 -56.5t88.5 -23.5q41 0 90.5 1t84.5 1q47 0 78.5 11.5t55 30.5t42 46t39.5 57q31 45 46 72t38 49q12 12 36.5 18.5t54 7.5t60.5 1h60q137 0 186 -14.5t49 -59.5q0 -20 3 -47t6 -51.5t7.5 -43t4.5 -20.5q10 -29 39.5 -43t95.5 -14h661q78 0 112 20.5 t34 92.5v137q0 59 -36 83.5t-116 24.5h-381q-18 0 -18 -16q0 -39 68.5 -59.5t224.5 -20.5q14 0 33.5 -1t37 -8t29.5 -23.5t12 -45.5q0 -27 -11 -43t-28.5 -24t-39 -10.5t-40.5 -2.5h-446q-49 0 -80 22t-55.5 54.5t-48 70.5t-59.5 70.5t-90 54t-138 21.5q-94 0 -157.5 -20.5 t-109.5 -51t-77 -65.5t-58.5 -65.5t-55 -51t-64.5 -20.5q-53 0 -74 22.5t-21 51.5q0 25 37 94t93.5 161.5t122 195t122.5 194.5q41 63 89 140t92.5 144.5t76 115.5t41.5 59q18 18 37 31.5t44.5 23.5t64.5 15t100 5h600q47 0 80 -16t33 -51q0 -27 -19.5 -45.5t-50.5 -29.5 t-65.5 -16.5t-65.5 -5.5q-20 0 -48 -4t-56.5 -13t-54 -22.5t-42 -30t-41 -47t-24.5 -73.5q0 -29 15 -46t26 -17q12 0 10 21.5t-2 43.5q0 55 31.5 71.5t66.5 16.5h314q53 0 83.5 10.5t46 26.5t18.5 35.5t3 38.5v121q0 25 -5 47t-20.5 39.5t-44 26.5t-75.5 9h-891 q-57 0 -105 -51q-29 -29 -73.5 -99.5t-100 -162.5t-117 -194.5t-122.5 -192.5q-29 -41 -71 -105.5t-89 -139t-94 -151.5t-86 -139.5t-62.5 -104.5t-23.5 -48zM696 723q0 -45 23.5 -67.5t42.5 -41.5q12 -12 20.5 -23t17.5 -19.5t22.5 -12.5t35.5 -4q27 0 66 15.5t73.5 47 t59 82.5t24.5 123q0 102 -34.5 167t-83.5 65q-35 0 -81 -38t-87 -91.5t-70 -109.5t-29 -93zM768 676q0 18 21.5 63t51 91.5t60.5 81t47 34.5t25.5 -17.5t13.5 -45t4 -60.5v-63q0 -8 -2 -24.5t-5 -34t-7 -33t-10 -21.5q-8 -6 -42 -11t-57 -5q-43 0 -71.5 8t-28.5 37z M1305 471q0 -14 6 -30.5t15 -30t19.5 -22.5t16.5 -9q6 10 9 26.5t4 34t1 31.5v21q0 41 24.5 59t80.5 18h268q66 0 98.5 22t32.5 75v155q0 66 -40 84.5t-101 18.5h-307q-10 0 -19.5 -4.5t-13.5 -12.5q0 -14 14 -27.5t35.5 -22.5t46.5 -15t43 -6q109 0 152 -15.5t43 -64.5 q0 -55 -46.5 -71.5t-134.5 -16.5q-68 0 -115.5 -22.5t-76.5 -53.5t-42 -64.5t-13 -56.5z" />
<glyph unicode="&#xc7;" horiz-adv-x="1251" d="M-20 721q0 -158 44 -281t119.5 -215t178 -151.5t219.5 -87.5q4 -6 14 -9.5t10 -19.5q0 -10 -12 -27.5t-25.5 -36t-26 -38t-12.5 -33.5q0 -29 10.5 -42t21.5 -22.5t21.5 -19.5t10.5 -31q0 -41 -131 -41q-20 0 -47 -21.5t-27 -74.5q0 -16 17.5 -36.5t51.5 -38t83 -30 t112 -12.5q84 0 144.5 15.5t98.5 40t56.5 57.5t18.5 67q0 49 -23.5 81t-52.5 54.5t-52.5 40t-23.5 37.5q0 23 8.5 37.5t19.5 25.5t19.5 24.5t8.5 31.5q94 10 175 41t141 71t95 81.5t35 74.5q0 20 -34 58.5t-79 75t-89 63.5t-64 27q-31 0 -52.5 -20.5t-51 -46t-73.5 -46 t-120 -20.5q-55 0 -114.5 23.5t-110 73.5t-83 128t-32.5 186q0 106 36 183t90 126.5t118.5 72t119.5 22.5q53 0 88 -14.5t62 -33t50.5 -33t55.5 -14.5q27 0 70 27t84 63.5t70.5 74.5t29.5 59q0 25 -34.5 64.5t-99 76.5t-158 63.5t-207.5 26.5q-74 0 -159 -14.5t-171 -48 t-166 -91t-141.5 -143.5t-98 -204.5t-36.5 -276.5zM74 752q0 137 46 255.5t133 205.5t214 137.5t291 50.5q29 0 77 -4t94 -17.5t78.5 -39t32.5 -66.5q0 -35 -18 -57.5t-76 -22.5q-29 0 -48 4t-41.5 10t-53.5 10.5t-78 4.5q-59 0 -134 -29t-141.5 -89.5t-112.5 -155.5 t-46 -228q0 -96 37 -181t96 -149.5t137 -102.5t158 -38q43 0 76.5 7t63.5 16.5t59.5 17.5t64.5 8q41 0 70.5 -14.5t29.5 -67.5q0 -37 -29.5 -65.5t-78.5 -47t-112.5 -27.5t-133.5 -9q-47 0 -112.5 10t-139.5 37.5t-145.5 77t-129 125t-93 182t-35.5 252.5zM637 -356 q0 18 13.5 28.5t31.5 10.5q16 0 32.5 -11.5t16.5 -29.5t-17.5 -26.5t-33.5 -8.5q-18 0 -30.5 10t-12.5 27z" />
<glyph unicode="&#xc8;" horiz-adv-x="1105" d="M59 125q0 -31 4.5 -53.5t19.5 -39t43 -24.5t77 -8h749q76 0 113 20.5t37 92.5v137q0 59 -38 83.5t-118 24.5h-418q-70 0 -69 -16q0 -25 29.5 -40t82 -24.5t121 -12.5t146.5 -3q51 0 83.5 -17.5t32.5 -60.5q0 -27 -12 -43t-30.5 -24t-40 -10.5t-40.5 -2.5l-532 -2 q-39 0 -65.5 13.5t-44 32t-24.5 39t-7 36.5v1010q0 70 37.5 105.5t140.5 35.5h471q72 0 92.5 -25.5t20.5 -62.5q0 -31 -19.5 -46t-48.5 -21.5t-64 -6.5h-63q-78 0 -127 -6t-80 -16t-47 -22.5t-29 -24.5q-16 -16 -39.5 -47t-23.5 -74q0 -29 14.5 -46.5t24.5 -17.5t10 17 q0 10 -1 23.5t-1 25.5q0 57 30.5 72.5t84.5 15.5h372q53 0 84 10.5t45.5 26.5t18.5 35.5t4 38.5v120q0 25 -5 48.5t-20.5 40t-44 26.5t-75.5 10h-224q-10 10 -10 27q0 18 10.5 25.5t23.5 14.5t23.5 19.5t10.5 36.5q0 14 -22.5 51t-50.5 78t-55.5 76t-35.5 45 q-16 16 -56 26.5t-85 10.5q-16 0 -40 1t-49.5 2t-49 2t-38.5 1q-14 0 -36.5 -2t-44 -10t-38 -21.5t-16.5 -33.5q0 -12 21.5 -35t52.5 -49.5t63.5 -53t55.5 -49.5q16 -16 43.5 -36.5t48.5 -37.5q20 -14 34.5 -25t14.5 -28q0 -18 -7 -23t-15 -12h-226q-57 0 -90 -9t-49 -27.5 t-20.5 -46t-4.5 -62.5v-1198zM371 469q0 -29 16 -56.5t29 -27.5q6 0 9 11.5t4 27.5t2 34.5t1 35.5q0 43 23.5 58t68.5 15h375q66 0 101.5 22t35.5 75v155q0 66 -42 84.5t-103 18.5q-37 0 -85 1t-95 2t-91.5 2t-70.5 1q-14 0 -46 -5t-40 -18q0 -14 18.5 -27.5t46 -22.5 t62.5 -14t65 -5q131 0 180.5 -15.5t49.5 -66.5q0 -37 -21.5 -55.5t-56.5 -24.5t-80 -6h-86q-68 0 -119 -19.5t-85 -48.5t-50 -64.5t-16 -66.5z" />
<glyph unicode="&#xc9;" horiz-adv-x="1105" d="M59 125q0 -31 4.5 -53.5t19.5 -39t43 -24.5t77 -8h749q76 0 113 20.5t37 92.5v137q0 59 -38 83.5t-118 24.5h-418q-70 0 -69 -16q0 -25 29.5 -40t82 -24.5t121 -12.5t146.5 -3q51 0 83.5 -17.5t32.5 -60.5q0 -27 -12 -43t-30.5 -24t-40 -10.5t-40.5 -2.5l-532 -2 q-39 0 -65.5 13.5t-44 32t-24.5 39t-7 36.5v1010q0 70 37.5 105.5t140.5 35.5h471q72 0 92.5 -25.5t20.5 -62.5q0 -31 -19.5 -46t-48.5 -21.5t-64 -6.5h-63q-78 0 -127 -6t-80 -16t-47 -22.5t-29 -24.5q-16 -16 -39.5 -47t-23.5 -74q0 -29 14.5 -46.5t24.5 -17.5t10 17 q0 10 -1 23.5t-1 25.5q0 57 30.5 72.5t84.5 15.5h372q53 0 84 10.5t45.5 26.5t18.5 35.5t4 38.5v120q0 25 -5 48.5t-20.5 40t-44 26.5t-75.5 10h-287q-20 10 -21 33q0 10 25 32.5t60.5 52.5t77.5 63.5t78 65.5t60.5 60t24.5 44q0 18 -11.5 29.5t-28.5 17.5t-38.5 8t-40.5 2 h-209q-29 0 -62.5 -8t-60.5 -33q-12 -12 -38.5 -47t-54 -75t-48 -75.5t-20.5 -52.5q0 -20 14 -33.5t30.5 -22.5t31 -19.5t14.5 -24.5q0 -8 -4 -17h-189q-57 0 -90 -9t-49 -27.5t-20.5 -46t-4.5 -62.5v-1198zM371 469q0 -29 16 -56.5t29 -27.5q6 0 9 11.5t4 27.5t2 34.5 t1 35.5q0 43 23.5 58t68.5 15h375q66 0 101.5 22t35.5 75v155q0 66 -42 84.5t-103 18.5q-37 0 -85 1t-95 2t-91.5 2t-70.5 1q-14 0 -46 -5t-40 -18q0 -14 18.5 -27.5t46 -22.5t62.5 -14t65 -5q131 0 180.5 -15.5t49.5 -66.5q0 -37 -21.5 -55.5t-56.5 -24.5t-80 -6h-86 q-68 0 -119 -19.5t-85 -48.5t-50 -64.5t-16 -66.5z" />
<glyph unicode="&#xca;" horiz-adv-x="1105" d="M59 125q0 -31 4.5 -53.5t19.5 -39t43 -24.5t77 -8h749q76 0 113 20.5t37 92.5v137q0 59 -38 83.5t-118 24.5h-418q-70 0 -69 -16q0 -25 29.5 -40t82 -24.5t121 -12.5t146.5 -3q51 0 83.5 -17.5t32.5 -60.5q0 -27 -12 -43t-30.5 -24t-40 -10.5t-40.5 -2.5l-532 -2 q-39 0 -65.5 13.5t-44 32t-24.5 39t-7 36.5v1010q0 70 37.5 105.5t140.5 35.5h471q72 0 92.5 -25.5t20.5 -62.5q0 -31 -19.5 -46t-48.5 -21.5t-64 -6.5h-63q-78 0 -127 -6t-80 -16t-47 -22.5t-29 -24.5q-16 -16 -39.5 -47t-23.5 -74q0 -29 14.5 -46.5t24.5 -17.5t10 17 q0 10 -1 23.5t-1 25.5q0 57 30.5 72.5t84.5 15.5h372q53 0 84 10.5t45.5 26.5t18.5 35.5t4 38.5v120q0 25 -5 48.5t-20.5 40t-44 26.5t-75.5 10h-185q-4 14 11.5 22.5t39 12.5t45 5t29.5 1q53 0 90 11.5t37 50.5q0 16 -15.5 43.5t-37 56.5t-44 55.5t-38.5 42.5 q-12 12 -27.5 29t-37 32t-49 26.5t-64.5 11.5h-152q-29 0 -51 -4t-42.5 -14.5t-43.5 -29t-51 -46.5q-14 -14 -39 -44t-48.5 -61t-41 -58.5t-17.5 -37.5q0 -39 43 -52.5t123 -13.5q76 0 103.5 5.5t40.5 15.5q20 23 45.5 45t52.5 22q16 0 36.5 -14t38 -32.5t30 -38t12.5 -27.5 t-11 -15h-479q-57 0 -90 -9t-49 -27.5t-20.5 -46t-4.5 -62.5v-1198zM371 469q0 -29 16 -56.5t29 -27.5q6 0 9 11.5t4 27.5t2 34.5t1 35.5q0 43 23.5 58t68.5 15h375q66 0 101.5 22t35.5 75v155q0 66 -42 84.5t-103 18.5q-37 0 -85 1t-95 2t-91.5 2t-70.5 1q-14 0 -46 -5 t-40 -18q0 -14 18.5 -27.5t46 -22.5t62.5 -14t65 -5q131 0 180.5 -15.5t49.5 -66.5q0 -37 -21.5 -55.5t-56.5 -24.5t-80 -6h-86q-68 0 -119 -19.5t-85 -48.5t-50 -64.5t-16 -66.5z" />
<glyph unicode="&#xcb;" horiz-adv-x="1105" d="M59 125q0 -31 4.5 -53.5t19.5 -39t43 -24.5t77 -8h749q76 0 113 20.5t37 92.5v137q0 59 -38 83.5t-118 24.5h-418q-70 0 -69 -16q0 -25 29.5 -40t82 -24.5t121 -12.5t146.5 -3q51 0 83.5 -17.5t32.5 -60.5q0 -27 -12 -43t-30.5 -24t-40 -10.5t-40.5 -2.5l-532 -2 q-39 0 -65.5 13.5t-44 32t-24.5 39t-7 36.5v1010q0 70 37.5 105.5t140.5 35.5h471q72 0 92.5 -25.5t20.5 -62.5q0 -31 -19.5 -46t-48.5 -21.5t-64 -6.5h-63q-78 0 -127 -6t-80 -16t-47 -22.5t-29 -24.5q-16 -16 -39.5 -47t-23.5 -74q0 -29 14.5 -46.5t24.5 -17.5t10 17 q0 10 -1 23.5t-1 25.5q0 57 30.5 72.5t84.5 15.5h372q53 0 84 10.5t45.5 26.5t18.5 35.5t4 38.5v120q0 25 -5 48.5t-20.5 40t-44 26.5t-75.5 10h-138q4 20 36 29.5t68 29t65.5 59.5t29.5 122q0 43 -17.5 77t-46 56.5t-63.5 33.5t-72 11q-43 0 -71.5 -12t-49 -27.5t-39 -28 t-40.5 -12.5q-23 0 -40.5 12.5t-39 27t-52 26.5t-79.5 12q-92 0 -141.5 -54t-49.5 -138q0 -51 23.5 -88t50.5 -66q18 -18 44 -26.5t49.5 -12.5t41 -10t21.5 -21h-187q-57 0 -90 -9t-49 -27.5t-20.5 -46t-4.5 -62.5v-1198zM354 1692q0 29 37 28q31 1 31 -28q0 -33 -33 -33 q-35 0 -35 33zM371 469q0 -29 16 -56.5t29 -27.5q6 0 9 11.5t4 27.5t2 34.5t1 35.5q0 43 23.5 58t68.5 15h375q66 0 101.5 22t35.5 75v155q0 66 -42 84.5t-103 18.5q-37 0 -85 1t-95 2t-91.5 2t-70.5 1q-14 0 -46 -5t-40 -18q0 -14 18.5 -27.5t46 -22.5t62.5 -14t65 -5 q131 0 180.5 -15.5t49.5 -66.5q0 -37 -21.5 -55.5t-56.5 -24.5t-80 -6h-86q-68 0 -119 -19.5t-85 -48.5t-50 -64.5t-16 -66.5zM477 1468q-6 14 3 33t25.5 35t38 28.5t40.5 12.5q14 0 31.5 -9t33 -22.5t25.5 -29t10 -27.5q0 -10 -10 -21h-197zM750 1690q0 29 32 28 q31 1 31 -28q0 -31 -33 -31q-16 0 -23 9t-7 22z" />
<glyph unicode="&#xcc;" horiz-adv-x="542" d="M-98 1786q0 -12 21.5 -34.5t52 -49.5t64.5 -54.5t56 -50.5q8 -6 25.5 -23.5t36 -35.5t33 -34.5t14.5 -22.5q0 -12 -4 -21q-61 -8 -78 -45t-17 -108v-1149q0 -90 25 -124t105 -34h149q70 0 88.5 43t18.5 121v1153q0 47 -10.5 83t-53.5 52q-6 6 -6 21q0 18 10 26t23.5 15.5 t23.5 19.5t10 37q0 12 -22.5 50t-51 79t-56 75.5t-35.5 45.5q-16 16 -55.5 26.5t-84.5 10.5q-31 0 -73.5 -2.5t-71.5 -2.5q-14 0 -36.5 -2t-45.5 -10t-39 -21.5t-16 -33.5zM203 274v893q0 96 22.5 130t77.5 34q61 0 77.5 -47t16.5 -127v-872q0 -63 -21.5 -104.5t-74.5 -41.5 q-33 0 -52.5 10.5t-29.5 29t-13 43t-3 52.5z" />
<glyph unicode="&#xcd;" horiz-adv-x="497" d="M23 1563q0 -20 14 -32.5t30.5 -23t31 -20.5t14.5 -25q0 -12 -14.5 -15t-28.5 -22q-8 -6 -12.5 -22.5t-6.5 -34.5t-3 -35.5t-1 -25.5v-1149q0 -90 24.5 -124t104.5 -34h150q70 0 88 43t18 121v1153q0 29 -3 54.5t-15.5 45t-36 31.5t-64.5 14q-4 4 -4 17q0 10 21.5 33.5 t54.5 53t70 62.5t69.5 64.5t54 59.5t21.5 44q0 35 -40 45t-79 10q-53 0 -88 2t-86 2q-29 0 -62.5 -8t-60.5 -35q-12 -12 -38.5 -45.5t-54.5 -73.5t-48 -77t-20 -53zM143 274v893q0 96 22.5 130t78.5 34q61 0 77.5 -47t16.5 -127v-872q0 -63 -21.5 -104.5t-74.5 -41.5 q-63 0 -81 38t-18 97z" />
<glyph unicode="&#xce;" horiz-adv-x="559" d="M-80 1573q0 -39 32 -52.5t111 -13.5q37 0 55.5 1t27 4.5t10.5 6.5t8 9q20 23 46 37t42 14t36.5 -14.5t39 -34t32 -38.5t13.5 -28q-41 0 -83 -1t-83 -1t-66.5 -9t-39 -28.5t-17.5 -49t-4 -68.5v-1149q0 -90 24.5 -124t104.5 -34h149q70 0 88.5 43t18.5 121v1153 q0 47 -9.5 83t-54.5 52q0 12 12.5 23.5t31 18.5t36 11t25.5 4q53 0 78.5 11.5t25.5 50.5q0 16 -11 40.5t-28.5 49.5t-37 48.5t-35.5 39.5q-12 12 -24.5 28.5t-30 32t-42 26.5t-59.5 11l-154 -2q-29 0 -44 -4t-28.5 -14t-28.5 -28.5t-44 -47.5q-14 -14 -35.5 -39.5t-41 -52.5 t-33 -51.5t-13.5 -34.5zM178 274v893q0 96 21.5 130t76.5 34q61 0 78 -47t17 -127v-872q0 -63 -21.5 -104.5t-75.5 -41.5q-63 0 -79.5 38t-16.5 97z" />
<glyph unicode="&#xcf;" horiz-adv-x="559" d="M-98 1628q0 -51 23.5 -77.5t49.5 -53.5q20 -20 44 -28.5t44.5 -12.5t34 -11t13.5 -26q-10 -20 -14.5 -48t-4.5 -64v-1149q0 -90 25.5 -124t105.5 -34h150q70 0 88 43t18 121v1153q0 25 -2 47t-10 41q0 4 -1 9t4 11.5t17.5 13.5t36.5 15q18 6 43 15.5t45.5 29t35 53.5 t14.5 93q0 88 -53.5 138t-125.5 50q-43 0 -71.5 -12.5t-49 -27.5t-39 -27.5t-40.5 -12.5q-23 0 -40.5 12.5t-39 26.5t-52 26.5t-79.5 12.5q-92 0 -131 -59.5t-39 -143.5zM53 1636q0 12 9.5 21.5t25.5 9.5q31 0 31 -31t-31 -30q-16 0 -25.5 9t-9.5 21zM180 1473q0 14 11.5 25 t29 19.5t34.5 13.5t30 5q12 0 28.5 -5t31.5 -13.5t26.5 -19.5t11.5 -23q0 -10 -17.5 -11.5t-21.5 -1.5h-125q-6 0 -22.5 1t-16.5 10zM190 274v893q0 96 21.5 130t79.5 34q61 0 77.5 -47t16.5 -127v-872q0 -63 -22.5 -104.5t-75.5 -41.5q-63 0 -80 38t-17 97zM449 1636 q0 29 30 29q31 0 31 -29q0 -33 -33 -32q-29 0 -28 32z" />
<glyph unicode="&#xd1;" horiz-adv-x="1511" d="M59 129q0 -84 34 -106.5t87 -22.5h150q45 0 69.5 17.5t35.5 42t12.5 52t1.5 50.5v534q0 16 7 38t36 22q18 0 35.5 -17.5t42 -58.5t62.5 -107.5t101 -166.5q84 -133 128 -213t77 -123t64.5 -56.5t91.5 -13.5h233q70 0 96.5 36t26.5 126v1116q0 72 -24.5 106.5t-110.5 34.5 h-123q-61 0 -95 -25.5t-34 -103.5v-473q0 -49 -7 -72.5t-30 -23.5q-18 0 -38.5 21.5t-49.5 65.5t-69 112.5t-95 160.5q-82 135 -127 206t-75.5 100.5t-58.5 31.5t-73 2h-233q-49 0 -79 -10t-45 -28.5t-19.5 -46t-4.5 -62.5v-1145zM158 285v886q0 57 17.5 89t44 46.5t58 17.5 t60.5 3q55 0 94 -3t77 -29.5t82 -88t111 -176.5q43 -74 84 -147.5t83 -132t83 -94t84 -35.5q45 0 69.5 31.5t37 71.5t14.5 78t2 50v287q0 20 5 45.5t15.5 48t29 37t44.5 14.5q53 0 74 -42t21 -109v-840q0 -51 -7.5 -88t-27 -59.5t-53 -34t-86.5 -11.5q-57 0 -97.5 16.5 t-78 57.5t-79.5 108.5t-104 170.5q-45 76 -91 152.5t-89 138t-83 100.5t-73 39q-49 0 -88 -60.5t-39 -152.5v-375q0 -66 -23.5 -109t-76.5 -43q-41 0 -67.5 36t-26.5 106zM248 1718q0 -23 7 -59.5t21.5 -70.5t35 -58.5t48.5 -24.5q18 0 38 14.5t42.5 33t50 32.5t60.5 14 t80 -25.5t99 -55t109.5 -55t112.5 -25.5q51 0 103.5 23.5t94.5 61.5t69.5 84t27.5 93q0 29 -9 65.5t-23.5 68.5t-32 53.5t-31.5 21.5q-31 0 -51.5 -13.5t-42 -31t-49 -30.5t-70.5 -13q-41 0 -83 17t-90 38.5t-102.5 40t-117.5 18.5q-41 0 -93.5 -14t-97.5 -42t-75.5 -69 t-30.5 -92zM440 1751q0 23 13.5 36t33 21.5t43 10.5t43.5 2q61 0 103.5 -13.5t82.5 -29t85 -27.5t108 -12q10 0 28.5 -4t36 -12.5t30 -21t12.5 -28.5q0 -29 -33 -48t-96 -19q-41 0 -85 7t-116 38q-37 16 -75 23t-71.5 11.5t-60 6.5t-45.5 8q-37 8 -37 51z" />
<glyph unicode="&#xd2;" horiz-adv-x="1597" d="M10 727q0 -207 72 -352.5t186.5 -237.5t256 -134t280.5 -42q154 0 294 48t246.5 144.5t170 241.5t63.5 340q0 178 -53 312.5t-142.5 226.5t-206 145.5t-241.5 71.5q-4 4 -6 9t-2 16q0 18 10 25t23.5 15.5t23.5 19.5t10 36q0 14 -22.5 48t-50 70.5t-55 68.5t-36.5 42 q-16 16 -56 26.5t-85 10.5q-16 0 -42.5 1t-56.5 2t-56.5 2t-40.5 1t-37 -2t-45.5 -10t-39 -21.5t-16.5 -33.5q0 -6 17.5 -23.5t45 -41t61.5 -50.5t66 -51.5t58.5 -44t38.5 -27.5q20 -14 45 -26.5t25 -28.5q0 -12 -4 -17.5t-9 -9.5q-154 -16 -280.5 -75.5t-217.5 -158 t-141.5 -234.5t-50.5 -302zM113 745q0 147 50 269.5t141 208.5t217 134t280 48q168 0 296 -51t214 -142.5t129 -213.5t43 -263t-46 -263t-133 -212t-215 -142t-292 -52q-180 0 -309.5 57t-212 152.5t-122.5 218t-40 251.5zM328 733q0 -117 42 -208t109.5 -153.5t151.5 -95 t170 -32.5q94 0 178 37.5t148.5 105.5t102.5 158t38 194t-39 193.5t-104.5 156t-150.5 103.5t-175 37q-86 0 -170 -34t-150.5 -97.5t-108.5 -155.5t-42 -209zM410 743q0 88 32.5 161t87 125t124 81t141.5 29q78 0 148.5 -28t123.5 -80t85 -129t32 -175q0 -113 -41 -189.5 t-100.5 -124.5t-128 -69.5t-123.5 -21.5q-70 0 -137.5 26.5t-122 79.5t-88 132t-33.5 183z" />
<glyph unicode="&#xd3;" horiz-adv-x="1597" d="M10 727q0 -207 72 -352.5t186.5 -237.5t256 -134t280.5 -42q154 0 294 48t246.5 144.5t170 241.5t63.5 340q0 184 -56.5 320.5t-149.5 228.5t-215 144.5t-251 66.5q-12 12 -12 27q0 10 24.5 33.5t60.5 53t79 62.5t79 64.5t60.5 59.5t24.5 44q0 18 -11.5 29.5t-29 17.5 t-39 8t-39.5 2q-53 0 -105.5 1t-105.5 1q-29 0 -61.5 -8t-59.5 -35q-12 -12 -39.5 -45.5t-55.5 -73.5t-48.5 -77t-20.5 -53q0 -20 15.5 -31.5t33 -21t33 -19.5t15.5 -25q0 -8 -3.5 -9t-3.5 -3q-152 -16 -278.5 -75.5t-217.5 -159t-141.5 -234.5t-50.5 -301zM113 745 q0 147 49 269.5t138 208.5t216 134t285 48q168 0 296 -51t214 -142.5t129 -213.5t43 -263t-46 -263t-133 -212t-215 -142t-292 -52q-180 0 -309.5 57t-212 152.5t-122.5 218t-40 251.5zM328 733q0 -117 42 -208t109.5 -153.5t151.5 -95t170 -32.5q94 0 178 37.5t148.5 105.5 t102.5 158t38 194t-39 193.5t-104.5 156t-150.5 103.5t-175 37q-86 0 -170 -34t-150.5 -97.5t-108.5 -155.5t-42 -209zM410 743q0 88 32.5 161t87 125t124 81t141.5 29q78 0 148.5 -28t123.5 -80t85 -129t32 -175q0 -113 -41 -189.5t-100.5 -124.5t-128 -69.5t-123.5 -21.5 q-70 0 -137.5 26.5t-122 79.5t-88 132t-33.5 183z" />
<glyph unicode="&#xd4;" horiz-adv-x="1597" d="M10 727q0 -207 72 -352.5t186.5 -237.5t256 -134t280.5 -42q154 0 294 48t246.5 144.5t170 241.5t63.5 340q0 174 -51 305t-136 223.5t-197 147.5t-232 76q8 6 23 11t32.5 7t34 3t28.5 1q51 0 88 11.5t37 50.5q0 16 -15 43.5t-36.5 56.5t-44.5 55.5t-39 42.5 q-12 12 -27.5 29t-37 32t-48 26.5t-63.5 11.5h-154q-29 0 -50 -4t-42.5 -14.5t-44 -29t-51.5 -46.5q-14 -14 -39 -44t-47.5 -61t-39.5 -58.5t-17 -37.5q0 -39 43 -52.5t122 -13.5q74 0 103 5.5t39 15.5q23 23 47 37t43 14q14 0 32.5 -9t37 -22.5t33 -29t20.5 -25.5 q-33 4 -64.5 6t-64.5 2q-172 0 -317.5 -53t-251 -153.5t-164 -244t-58.5 -323.5zM113 745q0 147 49 269.5t140 208.5t218 134t281 48q168 0 296 -51t214 -142.5t129 -213.5t43 -263t-46 -263t-133 -212t-215 -142t-292 -52q-180 0 -309.5 57t-212 152.5t-122.5 218 t-40 251.5zM328 733q0 -117 42 -208t109.5 -153.5t151.5 -95t170 -32.5q94 0 178 37.5t148.5 105.5t102.5 158t38 194t-39 193.5t-104.5 156t-150.5 103.5t-175 37q-86 0 -170 -34t-150.5 -97.5t-108.5 -155.5t-42 -209zM410 743q0 88 32.5 161t87 125t124 81t141.5 29 q78 0 148.5 -28t123.5 -80t85 -129t32 -175q0 -113 -41 -189.5t-100.5 -124.5t-128 -69.5t-123.5 -21.5q-70 0 -137.5 26.5t-122 79.5t-88 132t-33.5 183z" />
<glyph unicode="&#xd5;" horiz-adv-x="1597" d="M10 727q0 -207 72 -352.5t186.5 -237.5t256 -134t280.5 -42q154 0 294 48t246.5 144.5t170 241.5t63.5 340q0 150 -38 267.5t-103.5 205.5t-152.5 148.5t-187 95.5q41 14 80 41t68.5 60.5t47 71.5t17.5 75q0 29 -9.5 65.5t-22.5 68.5t-30.5 53.5t-31.5 21.5 q-31 0 -52.5 -13.5t-42 -31t-48 -30.5t-70.5 -13q-41 0 -84 17t-91.5 38.5t-102.5 40t-118 18.5q-41 0 -92 -14t-96 -42t-76 -69t-31 -92q0 -23 7.5 -59.5t21.5 -70.5t34.5 -58.5t47.5 -24.5q18 0 37.5 13.5t43 31t50.5 30.5t59 13q18 0 49 -11t62 -26.5t53.5 -31 t22.5 -23.5q-172 0 -317.5 -53t-251 -153.5t-164 -244t-58.5 -323.5zM113 745q0 147 51 269.5t143 208.5t218 134t276 48q164 0 291 -51t214 -142.5t132 -213.5t45 -263t-46 -263t-133 -212t-215 -142t-292 -52q-180 0 -309.5 57t-212 152.5t-122.5 218t-40 251.5zM328 733 q0 -117 42 -208t109.5 -153.5t151.5 -95t170 -32.5q94 0 178 37.5t148.5 105.5t102.5 158t38 194t-39 193.5t-104.5 156t-150.5 103.5t-175 37q-86 0 -170 -34t-150.5 -97.5t-108.5 -155.5t-42 -209zM410 743q0 88 32.5 161t87 125t124 81t141.5 29q78 0 148.5 -28 t123.5 -80t85 -129t32 -175q0 -113 -41 -189.5t-100.5 -124.5t-128 -69.5t-123.5 -21.5q-70 0 -137.5 26.5t-122 79.5t-88 132t-33.5 183zM504 1751q0 23 13 36t32.5 21.5t43 10.5t44.5 2q61 0 104 -13.5t83 -29t85 -27.5t109 -12q10 0 28.5 -4t36 -12.5t29.5 -21t12 -28.5 q0 -29 -33.5 -48t-95.5 -19q-41 0 -86 7t-116 38q-37 16 -74 23t-71 11.5t-61.5 6.5t-43.5 8q-39 10 -39 51z" />
<glyph unicode="&#xd6;" horiz-adv-x="1597" d="M10 727q0 -207 72 -352.5t186.5 -237.5t256 -134t280.5 -42q154 0 294 48t246.5 144.5t170 241.5t63.5 340q0 154 -40 274.5t-109.5 211t-161.5 150t-197 91.5q27 10 59.5 23.5t62.5 40t50.5 70.5t20.5 118q0 53 -21.5 95t-55.5 72t-77 46.5t-88 16.5q-53 0 -86 -15.5 t-58.5 -34t-47 -34t-50.5 -15.5t-49 14.5t-46 33t-62.5 32.5t-96.5 14q-55 0 -99 -19t-72.5 -53t-44 -79t-15.5 -94q0 -59 28.5 -105.5t61.5 -79.5q27 -29 62.5 -37t66.5 -14q-115 -37 -208 -103.5t-158.5 -159.5t-101.5 -211t-36 -257zM113 745q0 154 53 277t146.5 209 t218 131t270.5 43q168 -4 296 -55.5t214 -141.5t129 -211t43 -262t-46 -263t-133 -212t-215 -142t-292 -52q-180 0 -309.5 57t-212 152.5t-122.5 218t-40 251.5zM328 733q0 -117 42 -208t109.5 -153.5t151.5 -95t170 -32.5q94 0 178 37.5t148.5 105.5t102.5 158t38 194 t-39 193.5t-104.5 156t-150.5 103.5t-175 37q-86 0 -170 -34t-150.5 -97.5t-108.5 -155.5t-42 -209zM410 743q0 88 32.5 161t87 125t124 81t141.5 29q78 0 148.5 -28t123.5 -80t85 -129t32 -175q0 -113 -41 -189.5t-100.5 -124.5t-128 -69.5t-123.5 -21.5q-70 0 -137.5 26.5 t-122 79.5t-88 132t-33.5 183zM498 1704q0 16 12 28.5t35 12.5q41 0 41 -41t-43 -41q-23 0 -34 12.5t-11 28.5zM678 1495q20 23 48 42t58 19q23 0 50 -18t47 -41q-20 4 -41 4h-39q-61 0 -123 -6zM981 1704q0 37 41 37t41 -37q0 -43 -43 -43q-20 0 -29.5 13.5t-9.5 29.5z" />
<glyph unicode="&#xd7;" horiz-adv-x="1275" d="M59 231q0 -35 45.5 -51t151.5 -16q90 0 144.5 13t76.5 36q12 12 29.5 42t39 60.5t45 54t50.5 23.5q29 0 48.5 -18.5t35.5 -46t32.5 -58t41.5 -55.5q12 -12 27.5 -22.5t40 -16.5t61.5 -9t96 -3q63 0 102 6t58.5 16.5t26 22.5t6.5 24q0 18 -23 57.5t-56.5 87.5t-73.5 100 t-74 100.5t-56.5 88.5t-22.5 60q0 27 39 87t86 127t86 123t39 75q0 41 -49 56t-149 15q-53 0 -87 -4t-55.5 -11t-35 -16.5t-23.5 -19.5q-12 -12 -24.5 -31.5t-26 -37t-28.5 -30.5t-34 -13q-16 0 -31.5 13t-29 30.5t-25.5 36t-22 28.5q-16 16 -30.5 26.5t-38 16.5t-62.5 8 t-103 2q-106 0 -145 -19.5t-39 -53.5q0 -27 39 -81.5t86 -117t86 -121.5t39 -94q0 -23 -23.5 -63t-58.5 -90t-75 -103t-75 -100.5t-58.5 -83t-23.5 -50.5zM287 371q0 29 25.5 70.5t56 90t56.5 98.5t26 95q0 53 -16.5 90t-37 68.5t-37 63.5t-16.5 75q0 25 13.5 43t54.5 18 q31 0 55.5 -16t50 -35.5t58 -36t77.5 -16.5q43 0 73 14.5t53.5 32.5t46 32.5t51.5 14.5q35 0 45 -17.5t10 -51.5q0 -29 -14.5 -57.5t-33 -61.5t-32.5 -72t-14 -86q0 -53 24.5 -104.5t53 -97.5t53 -84.5t24.5 -69.5q0 -37 -18.5 -50.5t-52.5 -13.5q-37 0 -69 26.5t-65.5 59.5 t-68.5 59.5t-78 26.5q-51 0 -87 -26.5t-66.5 -59.5t-61.5 -59.5t-74 -26.5q-39 0 -52 19.5t-13 44.5z" />
<glyph unicode="&#xd8;" horiz-adv-x="1589" d="M10 727q0 -203 67.5 -345t178.5 -235q-8 -14 -19.5 -34.5t-22.5 -41t-18.5 -39t-7.5 -26.5q0 -23 24 -48.5t56.5 -47t67.5 -35.5t55 -14q35 0 59.5 25.5t45.5 54.5q8 12 18 27.5t21 31.5q66 -20 134 -29.5t136 -9.5q154 0 294 48t246.5 144.5t170 242t63.5 339.5 q0 195 -62.5 335t-164.5 235q12 18 23 37.5t20 29.5q8 12 19 29.5t21.5 38t17.5 39t7 32.5q0 25 -25.5 51.5t-59.5 47t-69.5 34t-56.5 13.5q-23 0 -49 -20.5t-51 -59.5q-16 -25 -33.5 -54.5t-40.5 -64.5q-133 43 -274 43q-172 0 -317.5 -53t-251 -153.5t-164 -244 t-58.5 -323.5zM113 745q0 147 50 269.5t141 208.5t217 134t280 48q31 0 87 -13.5t122.5 -16.5t133 15.5t118.5 79.5q-8 -39 5 -95t37.5 -122.5t55.5 -138.5t58.5 -140.5t46 -130t18.5 -108.5q0 -141 -46 -263t-133 -212t-215 -142t-292 -52q-29 0 -93.5 -6.5t-136 -12.5 t-135 -9t-90.5 1l-4 -4q0 4 2 6h-2q0 2 6 8q12 39 -1 93.5t-38.5 117t-58.5 128t-62.5 130t-50 122.5t-20.5 105zM328 733q0 -31 4 -74t17 -87t37 -81.5t62.5 -55t95 -8.5t136.5 58q10 12 23.5 35t25.5 46.5t21.5 42t13.5 22.5q0 -23 -11.5 -62t-24.5 -85t-22.5 -93t-5 -83 t27 -54t73.5 -10q92 16 176 56t148.5 103.5t103.5 147.5t39 188q0 27 -3 79t-14.5 102.5t-37 87t-69.5 31.5t-111.5 -62t-166.5 -195q66 111 88.5 188t18.5 127t-27.5 76.5t-53.5 39t-56.5 14.5t-36.5 2q-86 0 -170 -34t-150.5 -97.5t-108.5 -155.5t-42 -209zM410 743 q0 88 32.5 161t87 125t124 81t141.5 29q43 0 77 -9q-98 -156 -201.5 -321.5t-195.5 -312.5q-31 49 -48 110t-17 137zM741 324q92 147 193.5 312t193.5 312q27 -45 41.5 -100t14.5 -121q0 -113 -41 -189.5t-100.5 -124.5t-128 -69.5t-123.5 -21.5h-25q-12 0 -25 2z" />
<glyph unicode="&#xd9;" horiz-adv-x="1341" d="M59 553q0 -115 36 -220.5t111 -187.5t193.5 -131t284.5 -49q133 0 231.5 32t167 84t111.5 117.5t67.5 134t33 134.5t8.5 115v747q0 80 -32 107.5t-97 27.5h-144q-51 0 -84 -25.5t-33 -113.5v-729q0 -51 -16 -99t-46 -85t-73 -59.5t-98 -22.5q-109 0 -171.5 77.5 t-62.5 196.5v701q0 55 -9 87.5t-28.5 48t-48 19.5t-67.5 4h-117q-76 0 -96.5 -40t-20.5 -111v-760zM154 629v583q0 59 23.5 91t70.5 32q100 0 100 -159v-519q0 -82 24.5 -154.5t67.5 -126.5t103.5 -86t132.5 -32q76 0 138.5 36t107.5 96.5t68.5 139t23.5 166.5v486 q0 70 17.5 111.5t76.5 41.5q51 0 74.5 -41t23.5 -106v-547q0 -111 -26.5 -213t-88 -182t-163 -128t-252.5 -48q-147 0 -247.5 45t-162 121.5t-87 178t-25.5 214.5zM295 1800q0 -14 32.5 -44t77 -66.5t91.5 -73.5t75 -66q41 -39 174 -39q88 0 130.5 13.5t42.5 48.5 q0 12 -18.5 44t-43.5 68.5t-50.5 70.5t-39.5 48q-29 29 -52.5 46.5t-72.5 17.5h-244q-39 0 -70.5 -16.5t-31.5 -51.5z" />
<glyph unicode="&#xda;" horiz-adv-x="1341" d="M59 553q0 -115 36 -220.5t111 -187.5t193.5 -131t284.5 -49q133 0 231.5 32t167 84t111.5 117.5t67.5 134t33 134.5t8.5 115v747q0 80 -32 107.5t-97 27.5h-144q-51 0 -84 -25.5t-33 -113.5v-729q0 -51 -16 -99t-46 -85t-73 -59.5t-98 -22.5q-109 0 -171.5 77.5 t-62.5 196.5v701q0 55 -9 87.5t-28.5 48t-48 19.5t-67.5 4h-117q-76 0 -96.5 -40t-20.5 -111v-760zM154 629v583q0 59 23.5 91t70.5 32q100 0 100 -159v-519q0 -82 24.5 -154.5t67.5 -126.5t103.5 -86t132.5 -32q76 0 138.5 36t107.5 96.5t68.5 139t23.5 166.5v486 q0 70 17.5 111.5t76.5 41.5q51 0 74.5 -41t23.5 -106v-547q0 -111 -26.5 -213t-88 -182t-163 -128t-252.5 -48q-147 0 -247.5 45t-162 121.5t-87 178t-25.5 214.5zM485 1573q0 -35 42 -48.5t130 -13.5q133 0 172 39q29 29 76 66t92 73.5t78 66.5t33 44q0 35 -32 51.5 t-72 16.5h-244q-47 0 -71.5 -17.5t-53.5 -46.5q-14 -14 -40 -48t-50.5 -70.5t-42 -68.5t-17.5 -44z" />
<glyph unicode="&#xdb;" horiz-adv-x="1341" d="M59 553q0 -115 36 -220.5t111 -187.5t193.5 -131t284.5 -49q133 0 231.5 32t167 84t111.5 117.5t67.5 134t33 134.5t8.5 115v747q0 80 -32 107.5t-97 27.5h-144q-12 0 -27.5 4.5t-21.5 8.5q0 12 15.5 16t35 8t34.5 13.5t15 33.5q0 16 -15 44t-36.5 57.5t-44 56.5 t-39.5 43q-12 12 -27.5 28.5t-37 32t-48 26.5t-63.5 11l-154 -2q-29 0 -50 -4t-42.5 -14t-44 -28.5t-51.5 -47.5q-14 -14 -38.5 -43t-47.5 -59.5t-40 -58t-17 -38.5q0 -39 43 -52t121 -13q76 0 104.5 4t38.5 16q20 20 52 36t48 16q33 0 56.5 -20.5t39.5 -35.5 q10 -10 25.5 -13t32 -4l33 -2t28.5 -7q27 -10 27 -54q-20 -29 -21 -98v-729q0 -51 -16 -99t-46 -85t-73 -59.5t-98 -22.5q-109 0 -171.5 77.5t-62.5 196.5v701q0 55 -9 87.5t-28.5 48t-48 19.5t-67.5 4h-117q-76 0 -96.5 -40t-20.5 -111v-760zM154 629v583q0 59 23.5 91 t70.5 32q100 0 100 -159v-519q0 -82 24.5 -154.5t67.5 -126.5t103.5 -86t132.5 -32q76 0 138.5 36t107.5 96.5t68.5 139t23.5 166.5v486q0 70 17.5 111.5t76.5 41.5q51 0 74.5 -41t23.5 -106v-547q0 -111 -26.5 -213t-88 -182t-163 -128t-252.5 -48q-147 0 -247.5 45 t-162 121.5t-87 178t-25.5 214.5z" />
<glyph unicode="&#xdc;" horiz-adv-x="1341" d="M59 553q0 -115 36 -220.5t111 -187.5t193.5 -131t284.5 -49q133 0 231.5 32t167 84t111.5 117.5t67.5 134t33 134.5t8.5 115v747q0 80 -32 107.5t-97 27.5h-152q45 23 80 73t35 136q0 47 -19.5 86t-50.5 65.5t-70 41t-79 14.5q-72 0 -109 -13.5t-57.5 -30.5t-35 -30.5 t-38.5 -13.5q-27 0 -41 13.5t-36.5 29.5t-61.5 29.5t-115 13.5q-51 0 -90 -17.5t-65.5 -48t-40 -71.5t-13.5 -86q0 -55 25.5 -97t54.5 -71l-2 -23h-117q-76 0 -96.5 -40t-20.5 -111v-760zM154 629v583q0 59 23.5 91t70.5 32q100 0 100 -159v-519q0 -82 24.5 -154.5 t67.5 -126.5t103.5 -86t132.5 -32q76 0 138.5 36t107.5 96.5t68.5 139t23.5 166.5v486q0 70 17.5 111.5t76.5 41.5q51 0 74.5 -41t23.5 -106v-547q0 -111 -26.5 -213t-88 -182t-163 -128t-252.5 -48q-147 0 -247.5 45t-162 121.5t-87 178t-25.5 214.5zM399 1665q0 35 43 35 q37 0 37 -35q0 -39 -39 -39q-41 0 -41 39zM410 1440q16 -2 30 -2h31q39 0 68.5 14t53 31.5t44 32t43.5 14.5q14 0 25.5 -14.5t33 -32t64.5 -31.5t123 -14h8l14 2q-35 -29 -35 -115v-729q0 -51 -16 -99t-46 -85t-73 -59.5t-98 -22.5q-109 0 -171.5 77.5t-62.5 196.5v701 q0 55 -9 86.5t-27 48.5zM877 1663q0 35 38 35q37 0 37 -35q0 -37 -39 -37q-18 0 -27 10.5t-9 26.5z" />
<glyph unicode="&#xdd;" horiz-adv-x="1265" d="M-41 1397q0 -14 37 -74.5t92 -143.5t120.5 -179.5t121 -181.5t92.5 -150.5t37 -85.5v-430q0 -88 27.5 -119t66.5 -31h186q68 0 87.5 50t19.5 118v416q0 23 36 86t90 146t116.5 176t117 175t90 143t35.5 81q0 37 -24.5 54t-104.5 17h-190q-43 0 -79 -29.5t-66.5 -75.5 t-58.5 -98.5t-54.5 -98.5t-51 -75.5t-49.5 -29.5t-49 29.5t-49 75.5t-51.5 98.5t-56 98.5t-63.5 75.5t-75 29.5h-217q-63 0 -98 -15t-35 -52zM168 1274q0 43 26.5 60.5t67.5 17.5t74 -28t60.5 -67.5t53 -88t56.5 -88.5t66.5 -67.5t84.5 -27.5q43 0 78 26.5t64.5 66.5 t58.5 86t57.5 86t60.5 66.5t71 26.5q35 0 58 -12t23 -61q0 -39 -27.5 -88t-69.5 -109.5t-91 -129.5t-91 -146.5t-69.5 -163.5t-27.5 -178v-162q0 -63 -18.5 -107.5t-82.5 -44.5q-98 0 -98 146v170q0 82 -28.5 166t-71.5 163.5t-92.5 154.5t-92.5 138.5t-71.5 113.5t-28.5 81 zM434 1550q0 -35 42 -48t130 -13q131 0 172 41q29 29 76 65.5t92 72.5t78 66t33 44q0 37 -32 52t-73 15h-243q-47 0 -72 -17.5t-53 -45.5q-14 -14 -40 -48t-50.5 -71t-42 -68.5t-17.5 -44.5z" />
<glyph unicode="&#xde;" horiz-adv-x="1701" d="M66 88q0 -35 40.5 -58.5t135.5 -23.5q63 0 98 8.5t51.5 31t19.5 59t3 96.5v123q20 14 52 20t65.5 7t66.5 0t59 -1q94 0 175 41t139.5 107.5t92.5 151.5t34 175t-34 176t-92.5 154t-139 110t-175.5 42q-53 0 -97 -7.5t-120 -7.5q-12 8 -18 12.5t-8 9.5t-3 14t-3 32v188 q0 47 -34 74t-132 27q-20 0 -50 -2t-58 -10.5t-48 -26t-20 -45.5v-1477zM150 336v63v871v59q0 39 7 76t23.5 63.5t48.5 26.5q25 0 45.5 -24.5t34 -56.5t22.5 -62.5t13 -44.5q16 -51 45 -89t94 -38q35 0 71 8t71 8q74 0 139 -29.5t114.5 -80t78 -117t28.5 -142.5 q0 -74 -28.5 -141.5t-78 -117.5t-115 -79.5t-138.5 -29.5q-35 0 -71 8t-71 8q-41 0 -65.5 -14.5t-41 -39t-25.5 -54t-17 -60.5q-6 -18 -13.5 -42.5t-19.5 -48t-29.5 -39t-42.5 -15.5q-33 0 -49 28.5t-23 67.5t-7 78zM322 825q0 -43 18 -80.5t48 -66.5t69 -45.5t82 -16.5 t88 15.5t81.5 43t60.5 66.5t24 88q0 47 -24 86t-59.5 67t-80.5 43t-88 15t-83 -17t-70 -46t-48 -69t-18 -83zM397 825q0 61 31 103.5t98 42.5q31 0 65 -8.5t63.5 -25.5t48 -44t18.5 -64t-18.5 -64.5t-48 -46t-64.5 -26.5t-66 -8q-66 0 -96.5 40t-30.5 101z" />
<glyph unicode="&#xdf;" horiz-adv-x="1329" d="M70 96q0 -45 5 -86t19.5 -71.5t40 -48t66.5 -17.5h147q20 0 37.5 6t30 24.5t19.5 50.5t7 83q23 -35 92.5 -52.5t155.5 -17.5q137 0 241.5 43t174.5 116t105.5 170t35.5 206q0 94 -31.5 158.5t-69.5 111.5t-70 80t-32 63q0 27 13.5 40.5t30 36t29.5 63.5t13 125 q0 125 -48 210t-123.5 137t-167 74.5t-179.5 22.5q-74 0 -168 -21.5t-177 -69.5t-140 -124t-57 -186v-1127zM168 170v977q0 104 36 177t96 118t140 65.5t168 20.5q193 0 303.5 -92.5t110.5 -255.5q0 -72 -13.5 -102.5t-28.5 -50t-27.5 -45.5t-12.5 -83q0 -45 32 -84 t68.5 -85t68.5 -103.5t32 -137.5q0 -55 -14.5 -125.5t-61.5 -134t-136 -107.5t-239 -44q-41 0 -65.5 19.5t-24.5 60.5q0 33 18.5 57.5t69.5 24.5q53 0 98 23.5t78 63.5t51.5 89t18.5 102q0 43 -20.5 90t-55.5 86t-81 63.5t-97 24.5q-23 0 -45.5 13.5t-22.5 58.5 q0 23 11.5 37t27 22.5t31.5 11.5t25 7q29 8 50 31.5t34.5 56.5t20.5 73t7 81q0 84 -55 140t-160 56q-111 0 -176.5 -58.5t-65.5 -174.5v-957q0 -63 -22.5 -115.5t-75.5 -52.5q-31 0 -50 13.5t-29.5 36t-13.5 51t-3 57.5zM457 211v928q0 78 42 114.5t105 36.5q51 0 91 -35.5 t40 -97.5q0 -70 -26.5 -115t-67.5 -45q-37 0 -59.5 -6t-33.5 -21.5t-14.5 -44t-3.5 -73.5q0 -51 5.5 -84t16.5 -51.5t30.5 -24.5t48.5 -6q104 0 167.5 -51t63.5 -139q0 -86 -54 -132.5t-134 -46.5q-33 0 -59.5 17.5t-55.5 17.5q-39 0 -63.5 -43t-38.5 -98z" />
<glyph unicode="&#xe0;" d="M31 309q0 -102 37.5 -166.5t95 -101.5t125 -51.5t127.5 -14.5q37 0 68.5 7.5t59 15.5t54.5 15t55 7q43 0 62.5 -3t37 -8t39 -8t66.5 -3q51 0 85 7t52.5 25.5t25.5 50.5t7 81v383q0 135 -23.5 228t-67.5 154.5t-109.5 94.5t-149.5 45q-10 6 -10 25q0 18 10 25t23.5 15.5 t23.5 19.5t10 36q0 14 -22.5 51t-51 78t-56 75.5t-36.5 45.5q-16 16 -55 27.5t-84 11.5q-16 0 -39.5 1t-50.5 1q-25 0 -48.5 1t-37.5 1t-36.5 -2t-45 -9.5t-39 -20.5t-16.5 -34q0 -14 21.5 -36.5t52 -48t64.5 -53.5t56 -50q16 -16 43 -37t49 -35q20 -14 34 -26.5t14 -28.5 q0 -20 -7.5 -24.5l-17.5 -10.5q-76 -12 -135.5 -33.5t-101.5 -47.5t-63.5 -52.5t-21.5 -44.5q0 -20 23 -52t51.5 -63t56 -52.5t37.5 -21.5q12 0 34 14.5t52.5 31t69.5 30.5t86 14q72 0 91.5 -19t19.5 -48q0 -8 -7.5 -16.5t-27 -14.5t-55 -9t-91.5 -3q-47 0 -117.5 -15.5 t-136 -55.5t-112.5 -112.5t-47 -185.5zM141 338q0 39 20.5 78t55.5 69.5t81 50t99 19.5q47 0 47 -29q0 -14 -13 -30.5t-28.5 -38t-29 -52t-13.5 -71.5q0 -29 15.5 -56.5t35 -52t35 -43t15.5 -26.5q0 -20 -24.5 -38t-78.5 -18q-92 0 -154.5 63.5t-62.5 174.5zM416 326 q0 47 46 69.5t109 22.5q33 0 60.5 -5t27.5 -48q0 -23 -14 -41.5t-36.5 -33t-49.5 -21.5t-51 -7q-41 0 -66.5 14.5t-25.5 49.5zM543 911q0 14 2 23.5t12 13.5t31.5 6t60.5 2q76 0 118 -23.5t60 -41.5q33 -33 53.5 -81t33 -100.5t16.5 -101.5t4 -84q0 -164 -5 -250t-34 -114 q-35 -37 -109 -37q-63 0 -89.5 28.5t-26.5 57.5q0 18 5 31.5t12 27t12.5 30.5t5.5 44q0 51 -19.5 86t-44.5 59.5t-44 41t-19 32.5q0 18 13 29.5t30.5 28t31 47t13.5 90.5q0 35 -19.5 57.5t-42 39.5t-42 30.5t-19.5 27.5z" />
<glyph unicode="&#xe1;" d="M31 309q0 -102 37.5 -166.5t95 -101.5t125 -51.5t127.5 -14.5q37 0 68.5 7.5t59 15.5t54.5 15t55 7q43 0 62.5 -3t37 -8t39 -8t66.5 -3q51 0 85 7t52.5 25.5t25.5 50.5t7 81v383q0 145 -27.5 243.5t-80 160t-128 89t-174.5 33.5q-16 10 -16 31q0 10 24.5 33.5t60.5 53.5 t78 62.5t78 64.5t60.5 59.5t24.5 43.5q0 18 -11.5 29.5t-29 18t-39 8.5t-39.5 2q-53 0 -104.5 1t-104.5 1q-29 0 -62.5 -8.5t-60.5 -34.5q-12 -12 -38.5 -46t-54.5 -74t-48.5 -77t-20.5 -53q0 -20 14.5 -32.5t31 -23t31 -20.5t14.5 -25q0 -16 -11.5 -21t-21.5 -9 q-63 -14 -112.5 -36t-84.5 -45.5t-53.5 -47t-18.5 -39.5q0 -20 23 -52t51.5 -63t56 -52.5t37.5 -21.5q12 0 34 14.5t52.5 31t69.5 30.5t86 14q72 0 91.5 -19t19.5 -48q0 -8 -7.5 -16.5t-27 -14.5t-55 -9t-91.5 -3q-47 0 -117.5 -15.5t-136 -55.5t-112.5 -112.5t-47 -185.5z M141 338q0 39 20.5 78t55.5 69.5t81 50t99 19.5q47 0 47 -29q0 -14 -13 -30.5t-28.5 -38t-29 -52t-13.5 -71.5q0 -29 15.5 -56.5t35 -52t35 -43t15.5 -26.5q0 -20 -24.5 -38t-78.5 -18q-92 0 -154.5 63.5t-62.5 174.5zM416 326q0 47 46 69.5t109 22.5q33 0 60.5 -5t27.5 -48 q0 -23 -14 -41.5t-36.5 -33t-49.5 -21.5t-51 -7q-41 0 -66.5 14.5t-25.5 49.5zM543 911q0 14 2 23.5t12 13.5t31.5 6t60.5 2q76 0 118 -23.5t60 -41.5q33 -33 53.5 -81t33 -100.5t16.5 -101.5t4 -84q0 -164 -5 -250t-34 -114q-35 -37 -109 -37q-63 0 -89.5 28.5t-26.5 57.5 q0 18 5 31.5t12 27t12.5 30.5t5.5 44q0 51 -19.5 86t-44.5 59.5t-44 41t-19 32.5q0 18 13 29.5t30.5 28t31 47t13.5 90.5q0 35 -19.5 57.5t-42 39.5t-42 30.5t-19.5 27.5z" />
<glyph unicode="&#xe2;" d="M31 309q0 -102 37.5 -166.5t95 -101.5t125 -51.5t127.5 -14.5q37 0 68.5 7.5t59 15.5t54.5 15t55 7q43 0 62.5 -3t37 -8t39 -8t66.5 -3q51 0 85 7t52.5 25.5t25.5 50.5t7 81v383q0 123 -19.5 212t-57.5 149.5t-93 96t-125 54.5q-10 6 -21.5 13t-11.5 20q0 10 14.5 16 t35 10t42 5t35.5 1q51 0 88 11.5t37 50.5q0 16 -15 43.5t-36.5 56.5t-44 55.5t-39.5 42.5q-12 12 -27.5 30t-37 33t-48 25.5t-63.5 10.5h-154q-29 0 -50 -4t-42.5 -14.5t-44 -29t-51.5 -47.5q-14 -14 -37.5 -42.5t-47.5 -60.5t-41 -58.5t-17 -38.5q0 -37 43 -51.5t123 -14.5 q74 0 102.5 5t40.5 18q20 20 45 45.5t43 25.5q16 0 37.5 -8t40 -23.5t32 -36t13.5 -42.5q0 -20 -29 -25.5t-92 -5.5q-102 0 -186 -20.5t-142.5 -50t-90.5 -61.5t-32 -54q0 -20 23 -52t51.5 -63t56 -52.5t37.5 -21.5q12 0 34 14.5t52.5 31t69.5 30.5t86 14q72 0 91.5 -19 t19.5 -48q0 -8 -7.5 -16.5t-27 -14.5t-55 -9t-91.5 -3q-47 0 -117.5 -15.5t-136 -55.5t-112.5 -112.5t-47 -185.5zM141 338q0 39 20.5 78t55.5 69.5t81 50t99 19.5q47 0 47 -29q0 -14 -13 -30.5t-28.5 -38t-29 -52t-13.5 -71.5q0 -29 15.5 -56.5t35 -52t35 -43t15.5 -26.5 q0 -20 -24.5 -38t-78.5 -18q-92 0 -154.5 63.5t-62.5 174.5zM416 326q0 47 46 69.5t109 22.5q33 0 60.5 -5t27.5 -48q0 -23 -14 -41.5t-36.5 -33t-49.5 -21.5t-51 -7q-41 0 -66.5 14.5t-25.5 49.5zM543 911q0 14 2 23.5t12 13.5t31.5 6t60.5 2q76 0 118 -23.5t60 -41.5 q33 -33 53.5 -81t33 -100.5t16.5 -101.5t4 -84q0 -164 -5 -250t-34 -114q-35 -37 -109 -37q-63 0 -89.5 28.5t-26.5 57.5q0 18 5 31.5t12 27t12.5 30.5t5.5 44q0 51 -19.5 86t-44.5 59.5t-44 41t-19 32.5q0 18 13 29.5t30.5 28t31 47t13.5 90.5q0 35 -19.5 57.5t-42 39.5 t-42 30.5t-19.5 27.5z" />
<glyph unicode="&#xe3;" d="M31 309q0 -102 37.5 -166.5t95 -101.5t125 -51.5t127.5 -14.5q37 0 68.5 7.5t59 15.5t54.5 15t55 7q43 0 62.5 -3t37 -8t39 -8t66.5 -3q51 0 85 7t52.5 25.5t25.5 50.5t7 81v383q0 156 -31.5 258t-92 162.5t-148.5 84t-201 23.5q-102 0 -186 -20.5t-142.5 -50 t-90.5 -61.5t-32 -54q0 -20 23 -52t51.5 -63t56 -52.5t37.5 -21.5q12 0 34 14.5t52.5 31t69.5 30.5t86 14q72 0 91.5 -19t19.5 -48q0 -8 -7.5 -16.5t-27 -14.5t-55 -9t-91.5 -3q-47 0 -117.5 -15.5t-136 -55.5t-112.5 -112.5t-47 -185.5zM111 1219q0 -47 31.5 -64.5 t78.5 -17.5q45 0 69.5 12t44 26.5t40 26.5t57.5 12q23 0 49.5 -13t57 -28.5t67.5 -29t82 -13.5q68 0 123 27t95 67t62.5 84t22.5 81q0 47 -33.5 64t-74.5 17q-37 0 -66 -11t-52.5 -23.5t-46 -23.5t-48.5 -11q-27 0 -49.5 12t-50 25.5t-65.5 26t-93 12.5q-88 0 -145.5 -38 t-92.5 -84t-49 -88t-14 -48zM141 338q0 39 20.5 78t55.5 69.5t81 50t99 19.5q47 0 47 -29q0 -14 -13 -30.5t-28.5 -38t-29 -52t-13.5 -71.5q0 -29 15.5 -56.5t35 -52t35 -43t15.5 -26.5q0 -20 -24.5 -38t-78.5 -18q-92 0 -154.5 63.5t-62.5 174.5zM416 326q0 47 46 69.5 t109 22.5q33 0 60.5 -5t27.5 -48q0 -23 -14 -41.5t-36.5 -33t-49.5 -21.5t-51 -7q-41 0 -66.5 14.5t-25.5 49.5zM543 911q0 14 2 23.5t12 13.5t31.5 6t60.5 2q76 0 118 -23.5t60 -41.5q33 -33 53.5 -81t33 -100.5t16.5 -101.5t4 -84q0 -164 -5 -250t-34 -114 q-35 -37 -109 -37q-63 0 -89.5 28.5t-26.5 57.5q0 18 5 31.5t12 27t12.5 30.5t5.5 44q0 51 -19.5 86t-44.5 59.5t-44 41t-19 32.5q0 18 13 29.5t30.5 28t31 47t13.5 90.5q0 35 -19.5 57.5t-42 39.5t-42 30.5t-19.5 27.5z" />
<glyph unicode="&#xe4;" d="M31 309q0 -102 37.5 -166.5t95 -101.5t125 -51.5t127.5 -14.5q37 0 68.5 7.5t59 15.5t54.5 15t55 7q43 0 62.5 -3t37 -8t39 -8t66.5 -3q51 0 85 7t52.5 25.5t25.5 50.5t7 81v383q0 240 -72.5 355.5t-207.5 152.5q-12 8 -13 24q0 25 31 34t68.5 28.5t68.5 59.5t31 124 q0 43 -17.5 78t-46 59.5t-63.5 37.5t-72 13q-43 0 -71.5 -12t-49 -27.5t-39 -27.5t-40.5 -12q-23 0 -40.5 12t-39 26.5t-52 26.5t-79.5 12q-92 0 -141.5 -59t-49.5 -143q0 -51 23.5 -89t50.5 -65q20 -20 48 -27.5t53.5 -12.5t43 -12t17.5 -26q0 -10 -3.5 -14t-5.5 -10 q-59 -14 -107 -36t-81 -44.5t-50.5 -45t-17.5 -38.5q0 -20 23 -52t51.5 -63t56 -52.5t37.5 -21.5q12 0 34 14.5t52.5 31t69.5 30.5t86 14q72 0 91.5 -19t19.5 -48q0 -8 -7.5 -16.5t-27 -14.5t-55 -9t-91.5 -3q-47 0 -117.5 -15.5t-136 -55.5t-112.5 -112.5t-47 -185.5z M141 338q0 39 20.5 78t55.5 69.5t81 50t99 19.5q47 0 47 -29q0 -14 -13 -30.5t-28.5 -38t-29 -52t-13.5 -71.5q0 -29 15.5 -56.5t35 -52t35 -43t15.5 -26.5q0 -20 -24.5 -38t-78.5 -18q-92 0 -154.5 63.5t-62.5 174.5zM305 1315q0 29 35 28q31 1 31 -28q0 -33 -33 -33 t-33 33zM416 326q0 47 46 69.5t109 22.5q33 0 60.5 -5t27.5 -48q0 -23 -14 -41.5t-36.5 -33t-49.5 -21.5t-51 -7q-41 0 -66.5 14.5t-25.5 49.5zM426 1096q0 10 10 26.5t25.5 31.5t35 26.5t40.5 11.5q14 0 31.5 -9t32.5 -22.5t25.5 -29t10.5 -27.5q0 -18 -25.5 -24.5 t-56.5 -6.5h-45q-23 0 -41 1t-30.5 6t-12.5 16zM543 911q0 14 2 23.5t12 13.5t31.5 6t60.5 2q76 0 118 -23.5t60 -41.5q33 -33 53.5 -81t33 -100.5t16.5 -101.5t4 -84q0 -164 -5 -250t-34 -114q-35 -37 -109 -37q-63 0 -89.5 28.5t-26.5 57.5q0 18 5 31.5t12 27t12.5 30.5 t5.5 44q0 51 -19.5 86t-44.5 59.5t-44 41t-19 32.5q0 18 13 29.5t30.5 28t31 47t13.5 90.5q0 35 -19.5 57.5t-42 39.5t-42 30.5t-19.5 27.5zM700 1313q0 29 31 28q31 1 31 -26q0 -33 -33 -33q-16 0 -22.5 9t-6.5 22z" />
<glyph unicode="&#xe5;" d="M31 309q0 -102 37.5 -166.5t95 -101.5t125 -51.5t127.5 -14.5q37 0 68.5 7.5t59 15.5t54.5 15t55 7q43 0 62.5 -3t37 -8t39 -8t66.5 -3q51 0 85 7t52.5 25.5t25.5 50.5t7 81v383q0 129 -21.5 221t-63.5 153.5t-103.5 95.5t-141.5 48q-12 8 -12 29q0 27 17.5 43t37 39.5 t37 61.5t17.5 105q0 59 -20.5 105.5t-55.5 78t-80 48t-92 16.5q-49 0 -96.5 -16.5t-83 -48t-57 -78.5t-21.5 -109q0 -61 18.5 -100t41 -65.5t41 -44t18.5 -35.5t-21 -35q-66 -14 -118 -36t-89 -45.5t-56.5 -47t-19.5 -41.5q0 -20 23 -52t51.5 -63t56 -52.5t37.5 -21.5 q12 0 34 14.5t52.5 31t69.5 30.5t86 14q72 0 91.5 -19t19.5 -48q0 -8 -7.5 -16.5t-27 -14.5t-55 -9t-91.5 -3q-47 0 -117.5 -15.5t-136 -55.5t-112.5 -112.5t-47 -185.5zM141 338q0 39 20.5 78t55.5 69.5t81 50t99 19.5q47 0 47 -29q0 -14 -13 -30.5t-28.5 -38t-29 -52 t-13.5 -71.5q0 -29 15.5 -56.5t35 -52t35 -43t15.5 -26.5q0 -20 -24.5 -38t-78.5 -18q-92 0 -154.5 63.5t-62.5 174.5zM416 326q0 47 46 69.5t109 22.5q33 0 60.5 -5t27.5 -48q0 -23 -14 -41.5t-36.5 -33t-49.5 -21.5t-51 -7q-41 0 -66.5 14.5t-25.5 49.5zM485 1329 q0 23 17.5 37t40.5 14q23 -2 37 -15t14 -36t-15.5 -38t-37.5 -15q-23 0 -40.5 15.5t-15.5 37.5zM543 911q0 14 2 23.5t12 13.5t31.5 6t60.5 2q76 0 118 -23.5t60 -41.5q33 -33 53.5 -81t33 -100.5t16.5 -101.5t4 -84q0 -164 -5 -250t-34 -114q-35 -37 -109 -37 q-63 0 -89.5 28.5t-26.5 57.5q0 18 5 31.5t12 27t12.5 30.5t5.5 44q0 51 -19.5 86t-44.5 59.5t-44 41t-19 32.5q0 18 13 29.5t30.5 28t31 47t13.5 90.5q0 35 -19.5 57.5t-42 39.5t-42 30.5t-19.5 27.5z" />
<glyph unicode="&#xe6;" horiz-adv-x="1736" d="M57 317q0 -86 32 -149.5t85 -105.5t125 -61t152 -19q82 0 136 12t95 25.5t73.5 25.5t71.5 12q37 0 76 -13t83 -28.5t97.5 -28t116.5 -12.5q109 0 219.5 40t182.5 126q6 10 18 27.5t12 30.5q0 23 -21.5 46t-46 44.5t-46 41t-21.5 36.5q0 33 27.5 40t52.5 7q74 0 94.5 31.5 t20.5 101.5q0 113 -31 209t-92.5 167.5t-151.5 112.5t-207 41q-41 0 -78.5 -8t-74.5 -17.5t-73 -16.5t-73 -7q-45 0 -85 7t-79.5 15.5t-79.5 15.5t-83 7q-55 0 -132 -12t-145.5 -36t-118 -60.5t-49.5 -85.5q0 -35 22.5 -61.5t50.5 -51.5t50.5 -50.5t22.5 -56.5 q-43 -39 -83 -66.5t-73 -61t-52.5 -83t-19.5 -131.5zM168 348q0 47 25.5 85t64.5 64.5t85 42t87 15.5q8 0 25.5 -1t34 -5t28.5 -10.5t12 -16.5q0 -12 -21.5 -28.5t-46 -38t-46 -51t-21.5 -70.5q0 -29 14.5 -54.5t33 -48t32.5 -40t14 -25.5q0 -37 -28.5 -49.5t-59.5 -12.5 q-51 0 -94 19.5t-73.5 52.5t-48 78t-17.5 94zM412 709q0 45 36.5 63.5t73.5 18.5q47 0 84 -15q8 -4 25.5 -15t21.5 -11q27 0 27 22q0 33 -14.5 54.5t-33 34.5t-32.5 24.5t-14 25.5q0 12 13 19.5t30.5 10.5t35 4t25.5 1q27 0 50.5 -6t50 -12t57.5 -12.5t70 -6.5 q35 0 68.5 8.5t68.5 18.5t71.5 18.5t79.5 8.5q70 0 136.5 -21.5t117.5 -62.5t82 -100.5t31 -135.5q0 -45 -15.5 -71.5t-40 -41t-58.5 -18.5t-70 -4q-14 0 -40 1t-51.5 7t-44 18.5t-18.5 34.5q0 18 6 26.5t12.5 15.5t12.5 15.5t6 26.5t-19 37q-35 -20 -82 -20q-20 0 -49.5 5 t-46.5 17q-4 -10 -6 -20t-2 -21q0 -25 11.5 -35t23.5 -16t23.5 -14t11.5 -27q0 -25 -16.5 -38t-36 -34.5t-36 -60.5t-16.5 -115q0 -27 18.5 -46t45 -32.5t55.5 -20.5t49 -7q31 0 60.5 8t60.5 8q29 0 47 -9t18 -44q0 -25 -29.5 -40t-69.5 -22.5t-78 -10.5t-54 -3 q-35 0 -68.5 5t-68.5 18q-27 8 -47.5 18t-40 17.5t-42 12.5t-52.5 5q-10 0 -34 2t-47.5 7t-41 14.5t-17.5 25.5q0 29 8.5 52.5t8.5 49.5q0 23 -10.5 49.5t-27 52t-35.5 47t-38 32.5q-12 6 -34.5 14t-22.5 25q0 6 15 18t32.5 26.5t33 31t15.5 34.5q0 23 -36 27t-79 5t-78.5 4 t-35.5 24zM440 309q0 29 14.5 47.5t36 29.5t47 15.5t48.5 4.5q25 0 50.5 -9.5t25.5 -40.5q0 -25 -13.5 -42t-33 -29.5t-43 -18.5t-44.5 -6q-29 0 -58.5 5t-29.5 44zM1030 766q0 -18 10.5 -29.5t26.5 -13.5q12 8 15 17.5t9.5 17.5t22.5 14t53 6t53.5 -4t23.5 -10t12.5 -13.5 t19.5 -13.5q29 0 29 31q0 25 -15.5 43t-38 30.5t-48 18.5t-46.5 6q-18 0 -40.5 -8t-41 -21.5t-32 -32t-13.5 -38.5zM1049 365q0 14 24.5 29.5t38.5 15.5h148q23 0 44 -14.5t21 -39.5q0 -18 -15.5 -32.5t-37 -23.5t-45 -14t-37.5 -5q-16 0 -40 5t-46.5 16t-38.5 26.5 t-16 36.5z" />
<glyph unicode="&#xe7;" horiz-adv-x="948" d="M20 510q0 -119 34 -208t89.5 -152.5t125 -102.5t141.5 -57q-23 -27 -35.5 -54.5t-12.5 -50.5q0 -29 9.5 -42t22 -22t21.5 -19.5t9 -30.5q0 -41 -129 -41q-23 0 -48.5 -21.5t-25.5 -75.5q0 -16 17.5 -36.5t51.5 -38t82 -29.5t111 -12q84 0 144.5 15t99.5 40t57.5 57.5 t18.5 67.5q0 49 -23.5 81t-52.5 54.5t-52.5 39.5t-23.5 38q0 29 11.5 41t21.5 24q127 20 198.5 69.5t71.5 88.5q0 18 -26.5 57t-63.5 77t-74.5 68t-58.5 30q-29 0 -43 -8.5t-27.5 -18.5t-33 -18.5t-56.5 -8.5q-31 0 -61.5 16.5t-57 43t-43 62.5t-16.5 77q0 98 55.5 154.5 t126.5 56.5q35 0 55.5 -8t36 -17.5t32 -16.5t44.5 -7q16 0 51 27.5t71 64.5t62.5 75t26.5 56q0 23 -26.5 52.5t-74.5 55t-113.5 44t-145.5 18.5q-88 0 -188.5 -24.5t-186.5 -88t-142.5 -170t-56.5 -272.5zM121 526q0 121 45 205t112.5 136.5t146.5 76t146 23.5l26 -1 t57.5 -8.5t57 -23.5t25.5 -47q0 -35 -24.5 -53.5t-85.5 -18.5q-16 0 -65.5 -9t-102.5 -40t-95 -90.5t-42 -159.5q0 -84 35.5 -138t83.5 -86t97.5 -45.5t77.5 -13.5q57 0 89 -15t32 -68q0 -23 -33.5 -48.5t-136.5 -25.5q-82 0 -161.5 28.5t-143 85t-102.5 140.5t-39 196z M508 -291q0 16 14.5 26.5t30.5 10.5q18 0 33.5 -11.5t15.5 -29.5t-16.5 -26.5t-34.5 -8.5q-16 0 -29.5 10.5t-13.5 28.5z" />
<glyph unicode="&#xe8;" horiz-adv-x="1112" d="M20 506q0 -145 50.5 -247.5t132.5 -167t182 -94.5t203 -30q109 0 189.5 28t134 64.5t80 72.5t26.5 50q0 23 -17.5 44.5t-39 42t-39 38t-17.5 33.5q0 33 17.5 43t44.5 10q70 0 90 37t20 113q0 131 -34.5 225t-89 155.5t-123 95.5t-136.5 46q-12 8 -12 27q0 18 10 25 t23.5 15.5t24 19.5t10.5 36q0 14 -22.5 51t-50.5 78t-55.5 75.5t-35.5 45.5q-18 16 -57.5 27.5t-84.5 11.5q-16 0 -39.5 1t-50.5 1q-25 0 -48 1t-38 1q-14 0 -36.5 -2t-44 -9.5t-38 -20.5t-16.5 -34q0 -14 21.5 -36.5t52.5 -48t63.5 -53.5t55.5 -50q16 -16 43.5 -37t48 -35 t35 -26.5t14.5 -28.5q0 -25 -11.5 -27t-21.5 -14q-186 -41 -300 -178.5t-114 -374.5zM121 539q0 117 44 197.5t111.5 131t149.5 73t158 22.5q109 0 181.5 -34t117.5 -84t63.5 -108.5t18.5 -109.5q0 -49 -19.5 -78t-47.5 -43t-61.5 -18.5t-60.5 -4.5q-76 0 -119 15.5 t-43 46.5q0 18 8.5 30.5t19.5 22.5t19.5 23.5t8.5 31.5l-1 13q-1 12 -12 16q-37 -10 -73 -12l-35 -2l-36 1q-36 1 -69 11q-4 -10 -5 -20l-1 -9q0 -25 14.5 -38t31 -24t30.5 -23.5t14 -30.5q0 -27 -17 -36.5t-36.5 -25.5t-37 -51t-17.5 -115q0 -14 11 -32.5t32.5 -35 t52.5 -27.5t72 -11q47 0 71.5 8t47.5 8q29 0 53 -6t24 -41t-55 -61.5t-154 -26.5q-80 0 -161.5 26.5t-146 82t-105.5 141.5t-41 207zM399 754q0 -20 12.5 -32.5t22.5 -19.5q10 6 16.5 18.5t17.5 25t30.5 20.5t56.5 8t55.5 -8t27.5 -19.5t15 -22.5t19 -17q20 8 20 49 q0 18 -12 37.5t-33.5 35t-48.5 24.5t-53 9q-29 0 -55.5 -12t-47 -29.5t-32 -36t-11.5 -30.5zM451 352q0 14 17 25.5t30 11.5q33 0 76.5 -1t70.5 -1q23 0 35 -8t12 -35q0 -33 -37 -49t-77 -16q-53 0 -90 22.5t-37 50.5z" />
<glyph unicode="&#xe9;" horiz-adv-x="1112" d="M20 506q0 -145 50.5 -247.5t132.5 -167t182 -94.5t203 -30q109 0 189.5 28t134 64.5t80 72.5t26.5 50q0 23 -17.5 44.5t-39 42t-39 38t-17.5 33.5q0 33 17.5 43t44.5 10q70 0 90 37t20 113q0 141 -39 238.5t-100 158.5t-136 92t-145 39q-20 10 -20 31q0 10 24.5 33.5 t60.5 53.5t79 62.5t78.5 64.5t60.5 59.5t25 43.5q0 18 -11.5 29.5t-29 18t-39 8.5t-39.5 2q-53 0 -105.5 1t-103.5 1q-29 0 -62.5 -8.5t-60.5 -34.5q-12 -12 -40 -46t-55.5 -74t-48 -77t-20.5 -53q0 -20 14.5 -32.5t31 -23t30.5 -20.5t14 -25q0 -20 -14 -23t-25 -11 q-172 -47 -276.5 -182.5t-104.5 -362.5zM121 539q0 117 44 197.5t111.5 131t149.5 73t158 22.5q109 0 181.5 -34t117.5 -84t63.5 -108.5t18.5 -109.5q0 -49 -19.5 -78t-47.5 -43t-61.5 -18.5t-60.5 -4.5q-76 0 -119 15.5t-43 46.5q0 18 8.5 30.5t19.5 22.5t19.5 23.5 t8.5 31.5l-1 13q-1 12 -12 16q-37 -10 -73 -12l-35 -2l-36 1q-36 1 -69 11q-4 -10 -5 -20l-1 -9q0 -25 14.5 -38t31 -24t30.5 -23.5t14 -30.5q0 -27 -17 -36.5t-36.5 -25.5t-37 -51t-17.5 -115q0 -14 11 -32.5t32.5 -35t52.5 -27.5t72 -11q47 0 71.5 8t47.5 8q29 0 53 -6 t24 -41t-55 -61.5t-154 -26.5q-80 0 -161.5 26.5t-146 82t-105.5 141.5t-41 207zM399 754q0 -20 12.5 -32.5t22.5 -19.5q10 6 16.5 18.5t17.5 25t30.5 20.5t56.5 8t55.5 -8t27.5 -19.5t15 -22.5t19 -17q20 8 20 49q0 18 -12 37.5t-33.5 35t-48.5 24.5t-53 9q-29 0 -55.5 -12 t-47 -29.5t-32 -36t-11.5 -30.5zM451 352q0 14 17 25.5t30 11.5q33 0 76.5 -1t70.5 -1q23 0 35 -8t12 -35q0 -33 -37 -49t-77 -16q-53 0 -90 22.5t-37 50.5z" />
<glyph unicode="&#xea;" horiz-adv-x="1112" d="M20 506q0 -145 50.5 -247.5t132.5 -167t182 -94.5t203 -30q109 0 189.5 28t134 64.5t80 72.5t26.5 50q0 23 -17.5 44.5t-39 42t-39 38t-17.5 33.5q0 33 17.5 43t44.5 10q70 0 90 37t20 113q0 117 -27.5 202.5t-71.5 146t-101.5 98.5t-118.5 59q-10 10 -25.5 17t-15.5 24 q0 10 14 16t33.5 10t41 5t36.5 1q53 0 90 11.5t37 50.5q0 16 -15.5 43.5t-37 56.5t-44 55.5t-38.5 42.5q-12 12 -27.5 30t-37 33t-49.5 25.5t-65 10.5h-151q-29 0 -51.5 -4t-44 -14.5t-44 -29t-51.5 -47.5q-14 -14 -37.5 -42.5t-47 -60.5t-41 -58.5t-17.5 -38.5 q0 -37 43 -51.5t123 -14.5q76 0 103.5 5t39.5 18q20 20 46 45.5t42 25.5t37 -10t39.5 -25.5t30.5 -34t12 -36.5q0 -16 -26.5 -24.5t-61.5 -8.5q-127 0 -232.5 -34.5t-182.5 -105.5t-120 -178.5t-43 -250.5zM121 539q0 117 44 197.5t111.5 131t149.5 73t158 22.5 q109 0 181.5 -34t117.5 -84t63.5 -108.5t18.5 -109.5q0 -49 -19.5 -78t-47.5 -43t-61.5 -18.5t-60.5 -4.5q-76 0 -119 15.5t-43 46.5q0 18 8.5 30.5t19.5 22.5t19.5 23.5t8.5 31.5l-1 13q-1 12 -12 16q-37 -10 -73 -12l-35 -2l-36 1q-36 1 -69 11q-4 -10 -5 -20l-1 -9 q0 -25 14.5 -38t31 -24t30.5 -23.5t14 -30.5q0 -27 -17 -36.5t-36.5 -25.5t-37 -51t-17.5 -115q0 -14 11 -32.5t32.5 -35t52.5 -27.5t72 -11q47 0 71.5 8t47.5 8q29 0 53 -6t24 -41t-55 -61.5t-154 -26.5q-80 0 -161.5 26.5t-146 82t-105.5 141.5t-41 207zM399 754 q0 -20 12.5 -32.5t22.5 -19.5q10 6 16.5 18.5t17.5 25t30.5 20.5t56.5 8t55.5 -8t27.5 -19.5t15 -22.5t19 -17q20 8 20 49q0 18 -12 37.5t-33.5 35t-48.5 24.5t-53 9q-29 0 -55.5 -12t-47 -29.5t-32 -36t-11.5 -30.5zM451 352q0 14 17 25.5t30 11.5q33 0 76.5 -1t70.5 -1 q23 0 35 -8t12 -35q0 -33 -37 -49t-77 -16q-53 0 -90 22.5t-37 50.5z" />
<glyph unicode="&#xeb;" horiz-adv-x="1112" d="M20 506q0 -145 50.5 -247.5t132.5 -167t182 -94.5t203 -30q109 0 189.5 28t134 64.5t80 72.5t26.5 50q0 23 -17.5 44.5t-39 42t-39 38t-17.5 33.5q0 33 17.5 43t44.5 10q70 0 90 37t20 113q0 113 -25.5 197.5t-67.5 145t-97.5 98.5t-114.5 60q-23 14 -22 33q0 25 30.5 34 t68.5 28.5t68.5 59.5t30.5 124q0 43 -17.5 78t-45 59.5t-63.5 37.5t-72 13q-43 0 -72 -12t-49.5 -27.5t-39 -27.5t-40.5 -12q-23 0 -40 12t-38.5 26.5t-52.5 26.5t-80 12q-92 0 -141.5 -59t-49.5 -143q0 -51 24 -89t50 -65q20 -20 48 -27.5t53.5 -12.5t43 -12t17.5 -26 q0 -16 -4 -20t-4 -13q-162 -53 -258.5 -185t-96.5 -351zM121 539q0 117 44 197.5t111.5 131t149.5 73t158 22.5q109 0 181.5 -34t117.5 -84t63.5 -108.5t18.5 -109.5q0 -49 -19.5 -78t-47.5 -43t-61.5 -18.5t-60.5 -4.5q-76 0 -119 15.5t-43 46.5q0 18 8.5 30.5t19.5 22.5 t19.5 23.5t8.5 31.5l-1 13q-1 12 -12 16q-37 -10 -73 -12l-35 -2l-36 1q-36 1 -69 11q-4 -10 -5 -20l-1 -9q0 -25 14.5 -38t31 -24t30.5 -23.5t14 -30.5q0 -27 -17 -36.5t-36.5 -25.5t-37 -51t-17.5 -115q0 -14 11 -32.5t32.5 -35t52.5 -27.5t72 -11q47 0 71.5 8t47.5 8 q29 0 53 -6t24 -41t-55 -61.5t-154 -26.5q-80 0 -161.5 26.5t-146 82t-105.5 141.5t-41 207zM319 1315q0 29 35 28q33 1 33 -28q0 -33 -33 -33q-35 0 -35 33zM399 754q0 -20 12.5 -32.5t22.5 -19.5q10 6 16.5 18.5t17.5 25t30.5 20.5t56.5 8t55.5 -8t27.5 -19.5t15 -22.5 t19 -17q20 8 20 49q0 18 -12 37.5t-33.5 35t-48.5 24.5t-53 9q-29 0 -55.5 -12t-47 -29.5t-32 -36t-11.5 -30.5zM442 1096q0 10 9.5 26.5t25 31.5t34.5 26.5t40 11.5q14 0 31.5 -9t33 -22.5t25.5 -29t10 -27.5q0 -20 -28.5 -27.5t-67.5 -7.5q-57 0 -85 4t-28 23zM451 352 q0 14 17 25.5t30 11.5q33 0 76.5 -1t70.5 -1q23 0 35 -8t12 -35q0 -33 -37 -49t-77 -16q-53 0 -90 22.5t-37 50.5zM715 1313q0 29 30 28q31 1 31 -26q0 -33 -31 -33q-16 0 -23 9t-7 22z" />
<glyph unicode="&#xec;" horiz-adv-x="591" d="M-53 1415q0 -14 18.5 -36.5t45 -48t56 -53.5t52.5 -50q10 -10 30.5 -28.5t40 -40t34 -42t14.5 -35.5q0 -23 -11.5 -30t-13.5 -11q-53 -20 -64.5 -62t-11.5 -95v-705q0 -63 9.5 -99t33 -54.5t61.5 -22.5t95 -4q61 0 97 7t54.5 27.5t23.5 54.5t5 87v713q0 49 -12 91t-72 62 q-6 10 -13 14.5t-7 20.5q0 18 13 28.5t30.5 22t31 24.5t13.5 38q0 14 -22.5 51t-50.5 78t-55.5 75.5t-35.5 45.5q-16 16 -45 27.5t-74 11.5q-33 0 -80 2t-76 2q-14 0 -33.5 -2t-38 -9.5t-30.5 -20.5t-12 -34zM231 303v469q0 68 26 104.5t67 36.5q39 0 67.5 -33.5 t28.5 -107.5v-469q0 -72 -21.5 -117t-74.5 -45q-29 0 -47.5 14.5t-28.5 37t-13.5 51t-3.5 59.5z" />
<glyph unicode="&#xed;" horiz-adv-x="573" d="M66 1186q0 -20 15 -33.5t32.5 -26t33 -23.5t15.5 -26q0 -18 -8.5 -27.5t-18.5 -19.5q-39 -23 -47 -61.5t-8 -85.5v-705q0 -63 9 -99t32.5 -54.5t61.5 -22.5t96 -4q61 0 97 7t54.5 27.5t23.5 54.5t5 87v713q0 51 -12.5 93t-73.5 62q-20 10 -42 22.5t-22 37.5 q0 10 22.5 33.5t57.5 53.5t74 62.5t73.5 64.5t57 59.5t22.5 43.5q0 37 -29.5 47.5t-68.5 10.5q-53 0 -95 1t-93 1q-29 0 -52.5 -8.5t-48.5 -34.5q-12 -12 -39.5 -46t-55.5 -74t-48 -77t-20 -53zM174 303v469q0 68 25.5 104.5t66.5 36.5q39 0 67.5 -33.5t28.5 -107.5v-469 q0 -72 -21.5 -117t-74.5 -45q-29 0 -47 14.5t-28.5 37t-13.5 51t-3 59.5z" />
<glyph unicode="&#xee;" horiz-adv-x="595" d="M-53 1165q0 -39 31.5 -52t111.5 -13q37 0 58.5 1t34 4t17.5 6t11 9q23 23 38 47.5t50 24.5q33 0 65.5 -33t32.5 -69q0 -35 -92 -35q-66 0 -102.5 -12.5t-55 -36t-23.5 -55t-5 -68.5v-705q0 -63 10 -99t33.5 -54.5t61.5 -22.5t95 -4q59 0 95.5 7t54.5 27.5t23.5 54.5 t5.5 87v713q0 31 -2 59.5t-19 50.5q-12 10 -30.5 25.5t-18.5 44.5q0 10 11.5 17.5t27.5 11.5t33.5 5t31.5 1q53 0 79 11t26 50q0 16 -12.5 44t-28.5 56.5t-36.5 55.5t-35.5 43q-12 12 -25.5 28.5t-29.5 32t-41 26.5t-59 11h-133q-29 0 -47.5 -4t-36 -14t-37 -28.5 t-47.5 -47.5q-14 -14 -35 -44t-40.5 -60.5t-32.5 -58t-13 -38.5zM215 303v469q0 68 24.5 104.5t65.5 36.5t68.5 -33.5t27.5 -107.5v-469q0 -72 -21.5 -117t-74.5 -45q-29 0 -47 14.5t-27.5 37t-12.5 51t-3 59.5z" />
<glyph unicode="&#xef;" horiz-adv-x="776" d="M-2 1305q0 -45 20.5 -79t42.5 -57q27 -27 54.5 -37t50 -16t38 -11t15.5 -22q0 -23 -1 -35t-3 -38q-23 -23 -27 -55.5t-4 -71.5v-705q0 -63 10.5 -99t33 -54.5t61.5 -22.5t94 -4q61 0 97 7t54.5 27.5t23.5 54.5t5 87v713q0 41 -6 75.5t-39 59.5q-8 10 -12 22.5t-4 34.5 q0 23 33.5 40.5t68.5 33.5q35 18 64.5 54t29.5 112q0 37 -15 67.5t-40 52t-55.5 33t-63.5 11.5q-39 0 -63.5 -14.5t-43 -31t-33.5 -30.5t-36 -14q-20 0 -35.5 13t-34 30.5t-45 31t-69.5 13.5q-82 0 -124 -52.5t-42 -123.5zM145 1307q0 29 35 28q31 1 31 -28q0 -31 -33 -31 q-16 0 -24.5 9t-8.5 22zM254 1118q0 8 8 22.5t22.5 29t31 23.5t34.5 9q12 0 27.5 -9t29 -22.5t22.5 -26t9 -18.5q0 -33 -15 -52t-69 -19q-55 0 -77.5 8t-22.5 55zM279 303v469q0 68 25.5 104.5t66.5 36.5t68.5 -33.5t27.5 -107.5v-469q0 -72 -21.5 -117t-74.5 -45 q-29 0 -47.5 14.5t-28.5 37t-13 51t-3 59.5zM494 1307q0 27 30 26q31 1 31 -26q0 -31 -33 -31q-16 0 -22 9t-6 22z" />
<glyph unicode="&#xf1;" horiz-adv-x="1169" d="M41 166q0 -55 9 -89t30.5 -50.5t59.5 -21.5t98 -5q57 0 93 6t54 22.5t24.5 48.5t6.5 85v370q0 35 8 70t28.5 62.5t53.5 45t80 17.5q63 0 104 -44t41 -132v-399q0 -51 7 -81t28.5 -45.5t61.5 -20.5t104 -5q55 0 89 9t50 26.5t21.5 42t5.5 57.5v518q0 203 -99.5 307.5 t-281.5 104.5q-78 0 -119 -7t-67.5 -15.5t-50 -15.5t-64.5 -7q-23 0 -40.5 3t-40 7t-55 7t-81.5 3t-81 -10t-48.5 -30.5t-22.5 -51t-6 -74.5v-708zM119 1239q0 -47 32.5 -64.5t79.5 -17.5q45 0 70 12.5t44.5 26.5t40 26.5t56.5 12.5q23 0 48.5 -13.5t56.5 -28.5t67.5 -28.5 t81.5 -13.5q68 0 123 26.5t95 66.5t62.5 85t22.5 82q0 47 -33.5 64.5t-74.5 17.5q-37 0 -64.5 -11.5t-52 -24.5t-47 -24.5t-49.5 -11.5q-25 0 -47.5 12.5t-51 26t-66.5 25.5t-93 12q-86 0 -144.5 -38t-93.5 -84t-49 -87t-14 -49zM137 346v404q0 184 133 184q41 0 70 -7 t74 -7q37 0 68.5 7t65.5 15t72.5 15.5t88.5 7.5q152 0 224.5 -93.5t72.5 -253.5v-339q0 -72 -24 -104t-67 -32q-37 0 -62.5 27t-25.5 68q0 45 -1 97t-1 66q0 123 -23.5 202t-61.5 125t-85 63.5t-92 17.5q-59 0 -91 -25.5t-54 -48.5q-59 -59 -75.5 -153.5t-16.5 -200.5 q0 -127 -17.5 -183.5t-72.5 -56.5q-57 0 -78 55.5t-21 149.5z" />
<glyph unicode="&#xf2;" horiz-adv-x="1185" d="M10 516q0 -147 53.5 -250.5t136.5 -169t183 -95.5t195 -30q104 0 206.5 33t184.5 100.5t132 169t50 238.5q0 115 -33 203t-86 152.5t-123.5 105.5t-146.5 63q-4 10 -11.5 14.5t-14.5 9.5t-13 11t-6 21q0 18 10 25t23.5 15.5t23.5 19.5t10 36q0 14 -22.5 51t-51 78 t-56 75.5t-36.5 45.5q-16 16 -55 27.5t-84 11.5q-16 0 -39.5 1t-50.5 1q-25 0 -48.5 1t-37.5 1t-36.5 -2t-45 -9.5t-39 -20.5t-16.5 -34q0 -14 21.5 -36.5t52 -48t63.5 -53.5t57 -50q16 -16 43 -37t50 -35q20 -14 33.5 -26.5t13.5 -28.5q0 -12 -4 -18.5t-9.5 -9.5t-11.5 -7 t-10 -14q-84 -14 -166 -53.5t-146.5 -104t-103.5 -158.5t-39 -219zM115 514q0 127 44 214t113.5 139.5t151.5 75t160 22.5q86 0 169 -26t148.5 -81t105.5 -141t40 -205q0 -127 -49.5 -210t-121 -132t-153.5 -69.5t-145 -20.5q-76 0 -158 24.5t-149.5 76.5t-111.5 135 t-44 198zM311 516q0 -55 22.5 -104.5t60.5 -86t89.5 -59t106.5 -22.5q49 0 96 23.5t84 62.5t59.5 89t22.5 103q0 51 -20.5 101.5t-56.5 90.5t-84 64.5t-103 24.5q-70 0 -122 -27.5t-86 -69.5t-51.5 -92.5t-17.5 -97.5zM389 522q0 47 18.5 84t47 62.5t63.5 39t68 13.5 q27 0 59.5 -12.5t61 -37t49 -62.5t20.5 -89q0 -53 -19.5 -91t-48 -64.5t-64.5 -39t-69 -12.5t-66.5 15.5t-60 43t-43 65.5t-16.5 85z" />
<glyph unicode="&#xf3;" horiz-adv-x="1185" d="M10 516q0 -147 53.5 -250.5t136.5 -169t183 -95.5t195 -30q104 0 206.5 33t184.5 100.5t132 169t50 238.5q0 119 -35 210t-93 156.5t-132 106.5t-154 59q-6 8 -19 11.5t-28.5 8.5t-27 12t-11.5 26q0 10 24.5 33.5t60.5 53.5t78 62.5t78 64.5t60.5 59.5t24.5 43.5 q0 18 -11.5 29.5t-28.5 18t-38.5 8.5t-40.5 2q-53 0 -104.5 1t-104.5 1q-29 0 -62.5 -8.5t-60.5 -34.5q-12 -12 -38.5 -46t-54 -74t-48 -77t-20.5 -53q0 -20 14 -32.5t30.5 -23t31 -20.5t14.5 -25q0 -12 -6.5 -17t-15.5 -9t-17 -8t-13 -15q-78 -20 -148.5 -61t-124.5 -104.5 t-87 -151.5t-33 -203zM115 514q0 127 44 214t113.5 139.5t151.5 75t160 22.5q86 0 169 -26t148.5 -81t105.5 -141t40 -205q0 -127 -49.5 -210t-121 -132t-153.5 -69.5t-145 -20.5q-76 0 -158 24.5t-149.5 76.5t-111.5 135t-44 198zM311 516q0 -55 22.5 -104.5t60.5 -86 t89.5 -59t106.5 -22.5q49 0 96 23.5t84 62.5t59.5 89t22.5 103q0 51 -20.5 101.5t-56.5 90.5t-84 64.5t-103 24.5q-70 0 -122 -27.5t-86 -69.5t-51.5 -92.5t-17.5 -97.5zM389 522q0 47 18.5 84t47 62.5t63.5 39t68 13.5q27 0 59.5 -12.5t61 -37t49 -62.5t20.5 -89 q0 -53 -19.5 -91t-48 -64.5t-64.5 -39t-69 -12.5t-66.5 15.5t-60 43t-43 65.5t-16.5 85z" />
<glyph unicode="&#xf4;" horiz-adv-x="1185" d="M10 516q0 -147 53.5 -250.5t136.5 -169t183 -95.5t195 -30q104 0 206.5 33t184.5 100.5t132 169t50 238.5q0 111 -30.5 198t-81 150.5t-118 105.5t-141.5 66q-18 16 -34.5 26.5t-16.5 31.5q0 10 14.5 16t34 10t41 5t35.5 1q53 0 90 11.5t37 50.5q0 16 -15.5 43.5 t-37 56.5t-44 55.5t-38.5 42.5q-12 12 -27.5 30t-37 33t-49 25.5t-62.5 10.5h-154q-29 0 -51.5 -4t-43 -14.5t-43 -29t-50.5 -47.5q-14 -14 -39 -42.5t-47.5 -60.5t-40 -58.5t-17.5 -38.5q0 -37 42 -51.5t122 -14.5q76 0 104.5 5t39.5 18q20 20 45.5 34.5t42.5 14.5 q16 0 37.5 -11.5t42 -26.5t34 -31.5t13.5 -24.5q0 -14 -15.5 -21.5t-37 -10.5t-42.5 -3h-28q-96 0 -197.5 -29.5t-185.5 -96.5t-137.5 -170t-53.5 -251zM115 514q0 127 44 214t113.5 139.5t151.5 75t160 22.5q86 0 169 -26t148.5 -81t105.5 -141t40 -205q0 -127 -49.5 -210 t-121 -132t-153.5 -69.5t-145 -20.5q-76 0 -158 24.5t-149.5 76.5t-111.5 135t-44 198zM311 516q0 -55 22.5 -104.5t60.5 -86t89.5 -59t106.5 -22.5q49 0 96 23.5t84 62.5t59.5 89t22.5 103q0 51 -20.5 101.5t-56.5 90.5t-84 64.5t-103 24.5q-70 0 -122 -27.5t-86 -69.5 t-51.5 -92.5t-17.5 -97.5zM389 522q0 47 18.5 84t47 62.5t63.5 39t68 13.5q27 0 59.5 -12.5t61 -37t49 -62.5t20.5 -89q0 -53 -19.5 -91t-48 -64.5t-64.5 -39t-69 -12.5t-66.5 15.5t-60 43t-43 65.5t-16.5 85z" />
<glyph unicode="&#xf5;" horiz-adv-x="1185" d="M10 516q0 -147 53.5 -250.5t136.5 -169t183 -95.5t195 -30q104 0 206.5 33t184.5 100.5t132 169t50 238.5q0 150 -53.5 254t-135 169.5t-183 96.5t-195.5 31q-96 0 -197.5 -29.5t-185.5 -96.5t-137.5 -170t-53.5 -251zM115 514q0 127 44 214t113.5 139.5t151.5 75 t160 22.5q86 0 169 -26t148.5 -81t105.5 -141t40 -205q0 -127 -49.5 -210t-121 -132t-153.5 -69.5t-145 -20.5q-76 0 -158 24.5t-149.5 76.5t-111.5 135t-44 198zM137 1219q0 -47 33 -64.5t80 -17.5q45 0 69.5 12t44 26.5t39 26.5t56.5 12q23 0 49.5 -13t57 -28.5t67.5 -29 t82 -13.5q68 0 123 27t95 67t62.5 84t22.5 81q0 47 -34 64t-75 17q-37 0 -64.5 -11t-52 -23.5t-47 -23.5t-49.5 -11q-25 0 -47 12t-51 25.5t-66.5 26t-93.5 12.5q-86 0 -144 -38t-93 -84t-49.5 -88t-14.5 -48zM311 516q0 -55 22.5 -104.5t60.5 -86t89.5 -59t106.5 -22.5 q49 0 96 23.5t84 62.5t59.5 89t22.5 103q0 51 -20.5 101.5t-56.5 90.5t-84 64.5t-103 24.5q-70 0 -122 -27.5t-86 -69.5t-51.5 -92.5t-17.5 -97.5zM389 522q0 47 18.5 84t47 62.5t63.5 39t68 13.5q27 0 59.5 -12.5t61 -37t49 -62.5t20.5 -89q0 -53 -19.5 -91t-48 -64.5 t-64.5 -39t-69 -12.5t-66.5 15.5t-60 43t-43 65.5t-16.5 85z" />
<glyph unicode="&#xf6;" horiz-adv-x="1185" d="M10 516q0 -147 53.5 -250.5t136.5 -169t183 -95.5t195 -30q104 0 206.5 33t184.5 100.5t132 169t50 238.5q0 102 -26.5 184t-70.5 143.5t-103.5 105.5t-125.5 71q-4 2 -15 8t-21.5 14.5t-18.5 18.5t-8 20q0 16 15.5 24.5t37 17.5t48 20.5t48 34t37 57.5t15.5 92 q0 43 -17.5 78t-46.5 59.5t-64.5 37.5t-72.5 13q-43 0 -70.5 -12t-48 -27.5t-39 -27.5t-41.5 -12q-25 0 -42 12t-38.5 26.5t-51.5 26.5t-79 12q-94 0 -142 -59t-48 -143q0 -51 22.5 -89t48.5 -65q20 -20 48 -28.5t53.5 -13.5t43 -12t17.5 -26q0 -16 -3 -23.5l-7 -17.5 q-74 -23 -141.5 -64.5t-119.5 -105t-83 -149.5t-31 -197zM115 514q0 127 44 214t113.5 139.5t151.5 75t160 22.5q86 0 169 -26t148.5 -81t105.5 -141t40 -205q0 -127 -49.5 -210t-121 -132t-153.5 -69.5t-145 -20.5q-76 0 -158 24.5t-149.5 76.5t-111.5 135t-44 198z M311 516q0 -55 22.5 -104.5t60.5 -86t89.5 -59t106.5 -22.5q49 0 96 23.5t84 62.5t59.5 89t22.5 103q0 51 -20.5 101.5t-56.5 90.5t-84 64.5t-103 24.5q-70 0 -122 -27.5t-86 -69.5t-51.5 -92.5t-17.5 -97.5zM332 1315q0 29 37 28q30 1 30 -28q0 -33 -32 -33q-35 0 -35 33z M389 522q0 47 18.5 84t47 62.5t63.5 39t68 13.5q27 0 59.5 -12.5t61 -37t49 -62.5t20.5 -89q0 -53 -19.5 -91t-48 -64.5t-64.5 -39t-69 -12.5t-66.5 15.5t-60 43t-43 65.5t-16.5 85zM455 1096q0 10 9 26.5t24.5 31.5t35 26.5t39.5 11.5q14 0 32.5 -9t33 -22.5t25 -29 t10.5 -27.5q0 -20 -31 -34.5t-70 -14.5q-41 0 -74.5 7t-33.5 34zM727 1313q0 29 33 28q31 1 31 -26q0 -33 -33 -33q-16 0 -23.5 9t-7.5 22z" />
<glyph unicode="&#xf7;" horiz-adv-x="1067" d="M55 631q0 -53 9.5 -85t30 -48.5t50 -22.5t72.5 -6h176l13 -4q12 -4 12 -12q-43 -25 -67.5 -68t-24.5 -98q0 -82 55 -138.5t141 -56.5q84 0 139.5 55.5t55.5 139.5q0 53 -24.5 97t-67.5 71q0 6 11 10l11 4h197q59 0 93 5t51.5 20.5t21.5 45t4 76.5q0 51 -7.5 85 t-25.5 53.5t-51 26.5t-82 7h-191l-12 4q-12 3 -12 13q39 25 61.5 66.5t22.5 95.5q0 39 -14.5 73.5t-40 61t-61.5 42t-79 15.5q-88 0 -142 -55t-54 -137q0 -53 22.5 -95.5t61.5 -68.5q0 -6 -12 -11l-11 -4h-176q-78 0 -117 -29.5t-39 -127.5zM272 639q0 25 26 35t71 10h329 q49 0 75 -9t26 -38t-25.5 -40t-66.5 -11h-351q-47 0 -65.5 13t-18.5 40zM453 289q0 29 19.5 47t47.5 18q29 0 47.5 -18t18.5 -47t-18.5 -49.5t-47.5 -20.5t-48 20.5t-19 49.5zM453 967q0 29 19.5 48t47.5 19q29 0 47.5 -19t18.5 -48t-18.5 -49.5t-47.5 -20.5t-48 20.5 t-19 49.5z" />
<glyph unicode="&#xf9;" horiz-adv-x="1171" d="M41 406q0 -127 29.5 -210t82 -132.5t122 -70t151.5 -20.5q66 0 107.5 7.5t71.5 14.5t54.5 14t57.5 7q31 0 52.5 -3t43 -7t46 -7t65.5 -3q57 0 92 10t53 30.5t23.5 53.5t5.5 80v709q0 57 -10.5 88.5t-33 47t-59.5 19.5t-90 4q-61 0 -97 -7t-56.5 -23.5t-26.5 -46t-6 -72.5 v-371q0 -115 -42 -160t-122 -45q-47 0 -75.5 17.5t-44 45t-21.5 64.5t-6 78v381q0 37 -5.5 62.5t-26 43t-60.5 25.5t-107 8q-61 0 -95 -9t-50.5 -31.5t-19.5 -60.5t-3 -95v-436zM135 412v381q0 47 19.5 79.5t70.5 32.5q33 0 50.5 -13t25.5 -43t9 -78t1 -116t10.5 -140.5 t39 -132.5t77.5 -99t127 -39q70 0 118 34.5t78 97t42 148.5t12 189q0 66 7 104.5t20.5 58t32 24.5t38.5 5q47 0 66.5 -48t19.5 -175v-356q0 -117 -28.5 -164t-116.5 -47q-47 0 -72.5 8t-56.5 8q-39 0 -64.5 -8t-54 -17.5t-67.5 -16.5t-107 -7q-94 0 -152.5 34t-90 84 t-43 107.5t-11.5 104.5zM141 1405q0 -16 33 -47t78 -66t92 -71.5t76 -65.5q39 -39 172 -39q88 0 130 13.5t42 48.5q0 12 -17.5 43.5t-42 68.5t-49 71t-39.5 50q-23 29 -50 46.5t-74 17.5q-16 0 -45 1t-60 3t-60.5 3t-47.5 1q-53 0 -95.5 -20.5t-42.5 -57.5z" />
<glyph unicode="&#xfa;" horiz-adv-x="1171" d="M41 406q0 -127 29.5 -210t82 -132.5t122 -70t151.5 -20.5q66 0 107.5 7.5t71.5 14.5t54.5 14t57.5 7q31 0 52.5 -3t43 -7t46 -7t65.5 -3q57 0 92 10t53 30.5t23.5 53.5t5.5 80v709q0 57 -10.5 88.5t-33 47t-59.5 19.5t-90 4q-61 0 -97 -7t-56.5 -23.5t-26.5 -46t-6 -72.5 v-371q0 -115 -42 -160t-122 -45q-47 0 -75.5 17.5t-44 45t-21.5 64.5t-6 78v381q0 37 -5.5 62.5t-26 43t-60.5 25.5t-107 8q-61 0 -95 -9t-50.5 -31.5t-19.5 -60.5t-3 -95v-436zM135 412v381q0 47 19.5 79.5t70.5 32.5q33 0 50.5 -13t25.5 -43t9 -78t1 -116t10.5 -140.5 t39 -132.5t77.5 -99t127 -39q70 0 118 34.5t78 97t42 148.5t12 189q0 66 7 104.5t20.5 58t32 24.5t38.5 5q47 0 66.5 -48t19.5 -175v-356q0 -117 -28.5 -164t-116.5 -47q-47 0 -72.5 8t-56.5 8q-39 0 -64.5 -8t-54 -17.5t-67.5 -16.5t-107 -7q-94 0 -152.5 34t-90 84 t-43 107.5t-11.5 104.5zM340 1174q0 -35 42 -48.5t130 -13.5q133 0 172 41q29 29 76 65.5t92 71.5t78 65t33 46q0 37 -42 57.5t-96 20.5q-18 0 -47.5 -1t-60.5 -3t-59.5 -3.5t-45.5 -1.5q-47 0 -74.5 -17t-50.5 -46q-14 -16 -38.5 -50t-49 -71t-42 -68.5t-17.5 -43.5z" />
<glyph unicode="&#xfb;" horiz-adv-x="1171" d="M41 406q0 -127 29.5 -210t82 -132.5t122 -70t151.5 -20.5q66 0 107.5 7.5t71.5 14.5t54.5 14t57.5 7q31 0 52.5 -3t43 -7t46 -7t65.5 -3q57 0 92 10t53 30.5t23.5 53.5t5.5 80v709q0 57 -10.5 88.5t-33 47t-59.5 19.5t-90 4q-45 0 -79.5 -3t-58.5 -17t-36 -44t-12 -85 v-371q0 -115 -42 -160t-122 -45q-47 0 -75.5 17.5t-44 45t-21.5 64.5t-6 78v381q0 37 -5.5 62.5t-26 43t-60.5 25.5t-107 8q-61 0 -95 -9t-50.5 -31.5t-19.5 -60.5t-3 -95v-436zM135 412v381q0 47 19.5 79.5t70.5 32.5q33 0 50.5 -13t25.5 -43t9 -78t1 -116t10.5 -140.5 t39 -132.5t77.5 -99t127 -39q70 0 118 34.5t78 97t42 148.5t12 189q0 66 7 104.5t20.5 58t32 24.5t38.5 5q47 0 66.5 -48t19.5 -175v-356q0 -117 -28.5 -164t-116.5 -47q-47 0 -72.5 8t-56.5 8q-39 0 -64.5 -8t-54 -17.5t-67.5 -16.5t-107 -7q-94 0 -152.5 34t-90 84 t-43 107.5t-11.5 104.5zM162 1186q0 -37 42 -51.5t122 -14.5q76 0 103.5 5t39.5 18q20 20 39.5 44.5t58.5 24.5q35 0 55.5 -27.5t32.5 -47.5q4 -10 50.5 -13.5t117.5 -3.5q53 0 94 12.5t41 51.5q0 16 -15 43.5t-36.5 56.5t-44 55.5t-39.5 42.5q-12 12 -27.5 30t-37 33 t-49 25.5t-62.5 10.5h-153q-29 0 -51.5 -4t-43 -14.5t-43 -29t-51.5 -47.5q-14 -14 -38.5 -42.5t-47 -60.5t-40 -58.5t-17.5 -38.5z" />
<glyph unicode="&#xfc;" horiz-adv-x="1171" d="M41 406q0 -127 29.5 -210t82 -132.5t122 -70t151.5 -20.5q66 0 107.5 7.5t71.5 14.5t54.5 14t57.5 7q31 0 52.5 -3t43 -7t46 -7t65.5 -3q57 0 92 10t53 30.5t23.5 53.5t5.5 80v709q0 57 -10.5 88.5t-33 47t-59.5 19.5t-90 4q-61 0 -97 -7t-56.5 -23.5t-26.5 -46t-6 -72.5 v-371q0 -115 -42 -160t-122 -45q-47 0 -75.5 17.5t-44 45t-21.5 64.5t-6 78v381q0 37 -5.5 62.5t-26 43t-60.5 25.5t-107 8q-61 0 -95 -9t-50.5 -31.5t-19.5 -60.5t-3 -95v-436zM135 412v381q0 47 19.5 79.5t70.5 32.5q33 0 50.5 -13t25.5 -43t9 -78t1 -116t10.5 -140.5 t39 -132.5t77.5 -99t127 -39q70 0 118 34.5t78 97t42 148.5t12 189q0 66 7 104.5t20.5 58t32 24.5t38.5 5q47 0 66.5 -48t19.5 -175v-356q0 -117 -28.5 -164t-116.5 -47q-47 0 -72.5 8t-56.5 8q-39 0 -64.5 -8t-54 -17.5t-67.5 -16.5t-107 -7q-94 0 -152.5 34t-90 84 t-43 107.5t-11.5 104.5zM172 1296q0 -84 48 -136t142 -52q49 0 79 12.5t51.5 26.5t40 26.5t40.5 12.5q23 0 40.5 -13.5t37 -29t47 -27.5t70.5 -12q37 0 74 11t65.5 35t47 57.5t18.5 76.5q0 51 -18.5 90t-47 65.5t-65.5 40t-74 13.5q-43 0 -70.5 -12.5t-47 -27.5t-37 -27.5 t-40.5 -12.5q-25 0 -42 12.5t-38.5 26.5t-51 26.5t-79.5 12.5q-94 0 -142 -56.5t-48 -138.5zM330 1296q0 12 8 22.5t24 10.5q35 0 35 -33t-35 -32q-16 0 -24 10t-8 22zM737 1296q0 12 7.5 22.5t23.5 10.5t26.5 -8.5t10.5 -24.5t-10.5 -24t-26.5 -8t-23.5 10t-7.5 22z" />
<glyph unicode="&#xfd;" horiz-adv-x="1030" d="M-49 961q0 -16 17.5 -60.5t47 -110t66.5 -149.5t78 -178q29 -70 58.5 -134.5t53 -120.5t39 -104.5t15.5 -87.5q0 -55 -15.5 -80.5t-36.5 -46.5q-23 -23 -46 -29.5t-52 -6.5q-18 0 -45 4t-45 4q-41 0 -64.5 -27t-36 -61.5t-15.5 -68.5t-3 -46q0 -41 13.5 -67.5t44 -42 t81 -21.5t123.5 -6q111 0 187 28.5t131 83.5q20 20 52 86t70 160t82 210t91 237q18 49 42.5 113.5t51.5 132t53.5 134t47 120t32.5 88t12 40.5q0 88 -188 88q-59 0 -103.5 -7t-70.5 -36q-18 -16 -32.5 -54t-28 -84t-27 -95t-27.5 -90t-31.5 -66.5t-37.5 -25.5 q-31 0 -55.5 54t-48 125t-48.5 138.5t-53.5 96t-74.5 36.5t-120 8q-76 0 -130 -14t-54 -67zM125 827q0 43 12.5 60.5t52.5 17.5q47 0 77 -29.5t52.5 -74.5t40 -98.5t41 -98.5t56 -74.5t84.5 -29.5q49 0 78.5 29.5t50 74.5t36 97.5t34 97.5t44 74.5t68.5 29.5q39 0 50 -27.5 t11 -60.5q0 -18 -18 -72.5t-47 -131t-64.5 -171t-72.5 -194.5q-49 -135 -87 -227.5t-67 -152t-48.5 -92t-33.5 -46.5q-12 -12 -32.5 -29.5t-47 -32t-59.5 -25t-72 -10.5q-51 0 -81.5 15.5t-30.5 52.5q0 25 19 43t46 33.5t56.5 32t48.5 34.5q41 43 66.5 88t25.5 103 q0 39 -21.5 106.5t-53.5 146.5t-70 162.5t-69.5 158.5t-53 133.5t-21.5 86.5zM268 1174q0 -35 42 -48.5t130 -13.5q133 0 172 41q29 29 76 65.5t92 71.5t78 65t33 46q0 37 -42 57.5t-95 20.5q-18 0 -48 -1t-61 -3t-59.5 -3.5t-44.5 -1.5q-47 0 -75 -17t-50 -46 q-14 -16 -39 -50t-49.5 -71t-42 -68.5t-17.5 -43.5z" />
<glyph unicode="&#xfe;" horiz-adv-x="1234" d="M90 -438q0 -45 42 -58.5t108 -13.5q68 0 107.5 10.5t61 38t28.5 72.5t7 117q0 59 1 118.5t-1 118.5q23 8 45.5 13.5t45.5 5.5q39 0 77.5 -4.5t77.5 -5.5t77 2.5t75 17.5q74 27 131 80t98 120.5t62.5 145.5t21.5 152q0 162 -48 248.5t-122 127.5q-66 35 -142.5 46.5 t-151.5 16.5t-141.5 14t-111.5 38v393q0 51 -14 81t-41 45.5t-63.5 19.5t-81.5 4q-23 0 -48.5 -2t-48 -10.5t-37 -24.5t-14.5 -45v-1882zM178 -154v1246q0 20 1 66t8.5 94t24.5 84t48 36q45 0 62.5 -39t23.5 -98t8 -127t15.5 -127t47.5 -98t101 -39q94 0 187.5 -16.5 t167 -57.5t119.5 -113.5t46 -185.5q0 -78 -25.5 -147.5t-73.5 -124t-114.5 -86t-146.5 -31.5q-41 0 -79 7t-79 7q-66 0 -97.5 -32.5t-46 -82t-18.5 -105.5t-11 -105.5t-25.5 -82t-61.5 -32.5q-29 0 -45 22.5t-24.5 53t-10.5 62.5t-2 52zM352 469q0 -47 21.5 -88t56.5 -73 t79 -50t89 -18t90 18t80 50t56.5 74t21.5 89q0 49 -21.5 91t-56.5 73t-80 49t-90 18t-89 -19t-79 -52t-56.5 -75t-21.5 -87zM430 469q0 68 43 117t115 49q33 0 66.5 -12.5t60 -34t43 -51t16.5 -66.5t-16.5 -67.5t-43 -52t-60 -33t-68.5 -11.5q-70 0 -113 47t-43 115z" />
<glyph unicode="&#xff;" horiz-adv-x="1030" d="M-49 961q0 -16 17.5 -60.5t47 -110t66.5 -149.5t78 -178q29 -70 58.5 -134.5t53 -120.5t39 -104.5t15.5 -87.5q0 -55 -15.5 -80.5t-36.5 -46.5q-23 -23 -46 -29.5t-52 -6.5q-18 0 -45 4t-45 4q-41 0 -64.5 -27t-36 -61.5t-15.5 -68.5t-3 -46q0 -41 13.5 -67.5t44 -42 t81 -21.5t123.5 -6q111 0 187 28.5t131 83.5q20 20 52 86t70 160t82 210t91 237q18 49 42.5 113.5t51.5 132t53.5 134t47 120t32.5 88t12 40.5q0 88 -188 88q-59 0 -103.5 -7t-70.5 -36q-18 -16 -32.5 -54t-28 -84t-27 -95t-27.5 -90t-31.5 -66.5t-37.5 -25.5 q-31 0 -55.5 54t-48 125t-48.5 138.5t-53.5 96t-74.5 36.5t-120 8q-76 0 -130 -14t-54 -67zM117 1339q0 -84 48 -136t140 -52q49 0 80 12.5t52.5 26.5t40 26.5t40.5 12.5q23 0 40 -13.5t36.5 -29t47.5 -27.5t71 -12q37 0 73.5 11t65.5 35t47.5 57.5t18.5 76.5q0 51 -18.5 90 t-47.5 65.5t-65.5 40t-73.5 13.5q-43 0 -71 -12.5t-48.5 -27.5t-36.5 -27.5t-41 -12.5q-23 0 -40 12.5t-38.5 26.5t-52.5 26.5t-80 12.5q-92 0 -140 -56.5t-48 -138.5zM125 827q0 43 12.5 60.5t52.5 17.5q47 0 77 -29.5t52.5 -74.5t40 -98.5t41 -98.5t56 -74.5t84.5 -29.5 q49 0 78.5 29.5t50 74.5t36 97.5t34 97.5t44 74.5t68.5 29.5q39 0 50 -27.5t11 -60.5q0 -18 -18 -72.5t-47 -131t-64.5 -171t-72.5 -194.5q-49 -135 -87 -227.5t-67 -152t-48.5 -92t-33.5 -46.5q-12 -12 -32.5 -29.5t-47 -32t-59.5 -25t-72 -10.5q-51 0 -81.5 15.5 t-30.5 52.5q0 25 19 43t46 33.5t56.5 32t48.5 34.5q41 43 66.5 88t25.5 103q0 39 -21.5 106.5t-53.5 146.5t-70 162.5t-69.5 158.5t-53 133.5t-21.5 86.5zM272 1339q0 12 9.5 22.5t25.5 10.5q35 0 35 -33q0 -16 -10 -24t-27 -8q-33 0 -33 32zM682 1339q0 12 7 22.5t24 10.5 q16 0 26.5 -8.5t10.5 -24.5t-10.5 -24t-26.5 -8q-31 0 -31 32z" />
<glyph unicode="&#x152;" horiz-adv-x="2000" d="M27 741q0 -231 66.5 -381.5t171 -238.5t233.5 -124t254 -36q63 0 108 6t86 14.5t85 14.5t108 6h661q78 0 112 20.5t34 92.5v137q0 59 -36 83.5t-116 24.5h-381q-18 0 -18 -16q0 -39 68.5 -59.5t224.5 -20.5q14 0 33.5 -1t37 -8t29.5 -23.5t12 -45.5q0 -27 -11 -43 t-28.5 -24t-39 -10.5t-40.5 -2.5h-446q-111 0 -173.5 -6t-108.5 -14t-90 -14t-118 -6q-162 0 -278.5 57t-191 152.5t-110.5 218t-36 251.5q0 147 45 269.5t127 210.5t195.5 135t253.5 45q82 -2 156.5 -14.5t160.5 -12.5h600q47 0 80 -16t33 -51q0 -27 -19.5 -45.5 t-50.5 -29.5t-65.5 -16.5t-65.5 -5.5q-20 0 -48 -4t-56.5 -13t-54 -22.5t-42 -30t-41 -47t-24.5 -73.5q0 -29 15 -46t26 -17q12 0 10 21.5t-2 43.5q0 55 31.5 71.5t66.5 16.5h314q53 0 83.5 10.5t46 26.5t18.5 35.5t3 38.5v121q0 25 -5 47t-20.5 39.5t-44 26.5t-75.5 9h-678 q-43 0 -92 5.5t-96.5 11.5t-90.5 11t-73 5q-156 0 -288 -51t-229.5 -148.5t-151.5 -238.5t-54 -322zM324 733q0 -117 36.5 -208t95 -153.5t133.5 -95t150 -32.5q111 0 177.5 40t103.5 107.5t49 155.5t12 186q0 256 -78.5 376t-263.5 120q-76 0 -150.5 -34t-133 -97.5 t-95 -155.5t-36.5 -209zM395 733q0 88 30 162t78 128t109.5 85t126.5 31q72 0 123 -30t83 -85t46.5 -132t14.5 -169q0 -86 -13.5 -158.5t-44 -127t-82 -85t-127.5 -30.5q-61 0 -122.5 25.5t-110.5 76.5t-80 128t-31 181zM1305 471q0 -14 6 -30.5t15 -30t19.5 -22.5t16.5 -9 q6 10 9 26.5t4 34t1 31.5v21q0 41 24.5 59t80.5 18h268q66 0 98.5 22t32.5 75v155q0 66 -40 84.5t-101 18.5h-307q-10 0 -19.5 -4.5t-13.5 -12.5q0 -14 14 -27.5t35.5 -22.5t46.5 -15t43 -6q109 0 152 -15.5t43 -64.5q0 -55 -46.5 -71.5t-134.5 -16.5q-68 0 -115.5 -22.5 t-76.5 -53.5t-42 -64.5t-13 -56.5z" />
<glyph unicode="&#x153;" horiz-adv-x="2011" d="M70 516q0 -147 46 -250.5t120.5 -169t169 -95.5t188.5 -30q96 0 160.5 20.5t108.5 46t74 46t58 20.5q33 0 72 -21.5t91 -47t121 -47t161 -21.5q109 0 189.5 28t134 64.5t80 72.5t26.5 50q0 23 -17.5 44.5t-39 42t-39 38t-17.5 33.5q0 33 17.5 43t44.5 10q68 0 89 37 t21 113q0 156 -48 259t-119.5 163.5t-155.5 85t-158 24.5q-115 0 -190.5 -23.5t-126 -51t-81 -50t-51.5 -22.5q-20 0 -45.5 21.5t-68.5 46t-110.5 46t-174.5 21.5q-96 0 -190.5 -29.5t-170 -96.5t-122.5 -170t-47 -251zM174 514q0 127 38 214t99.5 139.5t137 75t151.5 22.5 q98 0 157.5 -23.5t99.5 -52.5t69.5 -52.5t68.5 -23.5q51 0 90 23.5t85.5 51t107.5 51.5t158 24q109 0 181.5 -34t116.5 -84t62.5 -108.5t18.5 -109.5q0 -49 -18.5 -78t-47.5 -43t-61.5 -18.5t-61.5 -4.5q-76 0 -119 15.5t-43 46.5q0 18 9.5 30.5t19.5 22.5t19.5 23.5 t9.5 31.5l-1 13q-1 12 -12 16q-37 -10 -73 -12l-35 -2l-36 1q-36 1 -69 11q-4 -10 -5 -20l-1 -9q0 -25 13.5 -38t31 -24t30.5 -23.5t13 -30.5q0 -27 -17.5 -36.5t-36.5 -25.5t-36.5 -51t-17.5 -115q0 -14 11 -32.5t33.5 -35t53.5 -27.5t72 -11q47 0 70.5 8t48.5 8 q29 0 53 -6t24 -41t-56 -61.5t-155 -26.5q-98 0 -159.5 24.5t-105.5 53t-80 53.5t-85 25q-35 0 -65.5 -25t-72.5 -54.5t-103.5 -54t-159.5 -24.5q-76 0 -150.5 24.5t-135 76.5t-97.5 135t-37 198zM348 516q0 -55 19.5 -104.5t53.5 -86t82 -59t103 -22.5q49 0 96.5 23.5 t85 62.5t60 89t22.5 103q0 51 -20.5 101.5t-57 90.5t-85 64.5t-103.5 24.5q-70 0 -118 -27.5t-78.5 -69.5t-45 -92.5t-14.5 -97.5zM426 522q0 47 15.5 84t40 62.5t56 39t64.5 13.5q27 0 59.5 -12.5t62.5 -37t49.5 -62.5t19.5 -89q0 -53 -19.5 -91t-48.5 -64.5t-64.5 -39 t-68.5 -12.5t-62.5 15.5t-53 43t-37 65.5t-13.5 85zM1251 754q0 -20 11.5 -32.5t21.5 -19.5q12 6 18.5 18.5t16.5 25t30.5 20.5t57.5 8t55.5 -8t27.5 -19.5t15 -22.5t19 -17q18 8 18 49q0 39 -45 72.5t-102 33.5q-29 0 -54.5 -12t-46 -29.5t-32 -36t-11.5 -30.5zM1303 352 q0 14 17 25.5t30 11.5q33 0 76.5 -1t70.5 -1q20 0 32.5 -8t12.5 -35q0 -33 -36 -49t-76 -16q-53 0 -90 22.5t-37 50.5z" />
<glyph unicode="&#x178;" horiz-adv-x="1271" d="M-35 1397q0 -14 37 -74.5t92.5 -143.5t121 -179.5t120.5 -181.5t92 -150.5t37 -85.5v-430q0 -88 27.5 -119t66.5 -31h184q68 0 87.5 50t19.5 118v416q0 23 36 86t90 146t117.5 176t118 175t90 143t35.5 81q0 37 -24.5 54t-106.5 17h-147q-29 0 -33 5.5t-4 15.5q0 4 9 13 l9 9q25 29 41.5 69t16.5 97q0 47 -19.5 86t-50.5 65.5t-70.5 41t-80.5 14.5q-72 0 -108 -13.5t-57.5 -30.5t-35.5 -30.5t-39 -13.5t-40 13.5t-37.5 28.5t-61.5 28.5t-115 13.5q-51 0 -90 -17.5t-65.5 -48t-40 -70.5t-13.5 -85q0 -55 25.5 -97t54.5 -71q0 -6 -15.5 -10 t-39 -7.5t-50 -4.5t-51.5 -1q-63 0 -98 -15t-35 -52zM172 1274q0 43 26.5 60.5t67.5 17.5q43 0 75 -28t59.5 -67.5t54 -88t56.5 -88.5t65.5 -67.5t85.5 -27.5q43 0 77.5 26.5t64.5 66.5t58.5 86t57 86t60.5 66.5t71 26.5q35 0 58.5 -12t23.5 -61q0 -39 -28 -88t-70 -109.5 t-91 -129.5t-91 -146.5t-69.5 -163.5t-27.5 -178v-162q0 -63 -18.5 -107.5t-82.5 -44.5q-96 0 -96 146v170q0 82 -28.5 166t-71.5 163.5t-93.5 154.5t-93.5 138.5t-71.5 113.5t-28.5 81zM358 1663q0 16 10.5 26.5t32.5 10.5q37 0 37 -37q0 -39 -39 -39q-18 0 -29.5 11.5 t-11.5 27.5zM395 1430l9 4q8 4 26 4q39 0 68.5 14t53 30.5t44 31t43.5 14.5q14 0 25.5 -14.5t33 -31t64.5 -30.5t123 -14l19 -4q18 -3 22 -11q-43 -39 -78 -100t-67.5 -120.5t-61.5 -102.5t-60 -43t-60.5 44t-60 105.5t-65.5 124t-78 99.5zM838 1663q0 16 7 25.5t29 9.5 q37 0 37 -35q0 -39 -39 -39q-18 0 -26 11.5t-8 27.5z" />
<glyph unicode="&#x2c6;" horiz-adv-x="1206" d="M195 1186q0 -37 43 -51.5t122 -14.5q76 0 104 5t40 18q20 20 39.5 44.5t58.5 24.5q35 0 55.5 -27.5t32.5 -47.5q4 -10 50 -13.5t118 -3.5q51 0 93 12.5t42 51.5q0 16 -15 43.5t-36.5 56.5t-44.5 55.5t-39 42.5q-12 12 -27.5 30t-37 33t-49 25.5t-64.5 10.5h-152 q-29 0 -51 -4t-42.5 -14.5t-43 -29t-51.5 -47.5q-14 -14 -39 -42.5t-48.5 -60.5t-40.5 -58.5t-17 -38.5z" />
<glyph unicode="&#x2dc;" horiz-adv-x="1138" d="M150 1219q0 -47 32.5 -64.5t77.5 -17.5t70.5 12t44 26.5t39 26.5t57.5 12q23 0 49.5 -13t57 -28.5t67.5 -29t82 -13.5q68 0 123 27t95 67t62.5 84t22.5 81q0 47 -33.5 64t-74.5 17q-37 0 -65 -11t-52.5 -23.5t-47 -23.5t-48.5 -11q-27 0 -49.5 12t-50 25.5t-65.5 26 t-93 12.5q-86 0 -144.5 -38t-93.5 -84t-49 -88t-14 -48z" />
<glyph unicode="&#x2000;" horiz-adv-x="972" />
<glyph unicode="&#x2001;" horiz-adv-x="1944" />
<glyph unicode="&#x2002;" horiz-adv-x="972" />
</font>
</defs>
</svg>
