<?xml version="1.0" standalone="no"?>
<!DOCTYPE svg PUBLIC "-//W3C//DTD SVG 1.1//EN" "http://www.w3.org/Graphics/SVG/1.1/DTD/svg11.dtd" >
<svg xmlns="http://www.w3.org/2000/svg">
<metadata></metadata>
<defs>
<font id="distro_batsregular" horiz-adv-x="1828" >
<font-face units-per-em="2048" ascent="1638" descent="-410" />
<missing-glyph horiz-adv-x="872" />
<glyph horiz-adv-x="0" />
<glyph unicode="&#xd;" horiz-adv-x="1024" />
<glyph unicode=" "  horiz-adv-x="872" />
<glyph unicode="&#x09;" horiz-adv-x="872" />
<glyph unicode="&#xa0;" horiz-adv-x="872" />
<glyph unicode="!" horiz-adv-x="1742" d="M145 922q0 -43 39 -72t89.5 -50.5t100.5 -40t72 -40.5q51 -53 65.5 -115.5t14.5 -138.5q0 -41 -20.5 -76t-44 -69.5t-44 -72.5t-20.5 -85t19.5 -64.5t66.5 -17.5q33 0 65 22.5t62.5 53t58 63.5t50.5 55q29 29 66.5 42.5t78.5 13.5q57 0 98.5 -18.5t72 -46t56 -60.5 t51 -60.5t57.5 -46t75 -18.5q47 0 60.5 23.5t13.5 64.5q0 55 -19.5 90t-44 65.5t-44 64.5t-19.5 83q0 39 1 73t9 62.5t24.5 56t47.5 56.5q23 20 71.5 39.5t98 42t87 52.5t37.5 73q0 51 -29.5 67.5t-76.5 16.5q-57 0 -111.5 -12.5t-111.5 -12.5q-37 0 -84 11.5t-90 35t-72 57 t-29 78.5q0 31 -2 84.5t-13 105.5t-37 91t-73 39q-43 0 -67.5 -41t-36.5 -96.5t-16.5 -110.5t-4.5 -82q0 -45 -24.5 -77.5t-61 -54t-81 -32t-80.5 -10.5q-59 0 -116.5 13.5t-115.5 13.5q-47 0 -83 -16.5t-36 -71.5zM444 840q0 47 25 69.5t59.5 33.5t73.5 18.5t68 23.5 q27 14 42 45t33.5 59.5t45 51t75.5 22.5q57 0 85 -17.5t43.5 -43t27.5 -57t41 -60.5q25 -25 66.5 -27t81.5 -7t69 -25.5t29 -83.5q0 -53 -22.5 -88t-49.5 -65t-49.5 -59.5t-22.5 -68.5q0 -27 14.5 -59.5t14.5 -67.5q0 -27 -13.5 -49.5t-33 -37.5t-45 -24.5t-49.5 -9.5 q-29 0 -51.5 12.5t-44 26t-43 25.5t-48.5 12t-48 -11t-41.5 -25.5t-43 -26t-51.5 -11.5q-51 0 -90 31t-39 84q0 41 15.5 80t15.5 63q0 37 -21.5 66t-48.5 57.5t-48.5 62.5t-21.5 81z" />
<glyph unicode="&#x22;" horiz-adv-x="1464" d="M152 764q0 -18 12 -29.5t31 -11.5q16 0 28.5 14.5t12.5 30.5t-12.5 25.5t-28.5 9.5t-29.5 -10.5t-13.5 -28.5zM233 489q0 -18 13.5 -29t29.5 -11q18 0 29.5 14.5t11.5 30.5t-12 24t-29 8q-16 0 -29.5 -9t-13.5 -28zM233 1022q0 -18 13.5 -29.5t29.5 -11.5q18 0 29.5 14.5 t11.5 30.5q0 18 -12 26.5t-29 8.5q-16 0 -29.5 -10.5t-13.5 -28.5zM426 297q0 -18 13.5 -29.5t31.5 -11.5q16 0 27.5 14.5t11.5 30.5t-11.5 24.5t-27.5 8.5q-18 0 -31.5 -9.5t-13.5 -27.5zM426 1219q0 -18 13.5 -29.5t31.5 -11.5q16 0 27.5 14.5t11.5 30.5q0 18 -11.5 26 t-27.5 8q-18 0 -31.5 -9t-13.5 -29zM659 1280q0 -25 16.5 -38t41.5 -13q23 0 39 14t16 39t-16.5 41t-40.5 16q-25 0 -40.5 -18t-15.5 -41zM664 225q0 -25 16 -38t41 -13q23 0 39 13t16 38q0 27 -16.5 43.5t-40.5 16.5q-25 0 -40 -18.5t-15 -41.5zM971 295q0 -18 13 -28.5 t32 -10.5q16 0 27.5 14.5t11.5 30.5t-11.5 24.5t-27.5 8.5q-18 0 -31.5 -9.5t-13.5 -29.5zM971 1221q0 -18 13 -29.5t32 -11.5q16 0 27.5 14.5t11.5 30.5t-13.5 26.5t-29.5 10.5t-28.5 -11.5t-12.5 -29.5zM1147 483q0 -18 13.5 -29.5t31.5 -11.5q16 0 27.5 14.5t11.5 30.5 t-11.5 25.5t-27.5 9.5q-18 0 -31.5 -10t-13.5 -29zM1153 1032q0 -16 13.5 -28.5t29.5 -12.5q18 0 29.5 14.5t11.5 30.5q0 18 -12.5 26.5t-28.5 8.5t-29.5 -9t-13.5 -30zM1231 764q0 -18 12 -29.5t31 -11.5q16 0 28.5 14.5t12.5 30.5t-12.5 25.5t-28.5 9.5t-29.5 -10.5 t-13.5 -28.5z" />
<glyph unicode="#" horiz-adv-x="1640" d="M80 766q0 -61 48 -111.5t114.5 -93.5t134 -81t106.5 -77q37 -37 71 -98t73 -120.5t85 -102.5t105 -43q61 0 113.5 46t97.5 108.5t85 128t79 102.5q33 33 95.5 72t122.5 80.5t105.5 89t45.5 100.5q0 61 -43 107.5t-101.5 85t-120 72.5t-98.5 71q-37 33 -81 98.5t-93 130 t-101.5 112.5t-105.5 48q-59 0 -108.5 -45t-93.5 -105.5t-83.5 -123t-76.5 -99.5t-100.5 -73.5t-125 -78.5t-105.5 -91.5t-44 -108.5zM634 376.5q-9 26.5 1 102.5l94 692q4 31 15.5 69t22.5 69.5t19 52.5l9 22q37 0 52 -17t21 -40.5t10.5 -50.5t16.5 -45q18 -27 37.5 -31 t36 -12t27 -34.5t10.5 -98.5t-9.5 -167t-22.5 -188.5t-27.5 -177.5t-24 -131t-9.5 -51q-4 -35 -11 -71t-16 -64.5t-19.5 -47t-22.5 -18.5q-16 0 -28.5 19.5t-23 46t-19.5 51.5t-15 37q-23 33 -48.5 38t-46 12t-29.5 33.5z" />
<glyph unicode="$" horiz-adv-x="1853" d="M174 735q0 -152 59.5 -288t161 -238.5t236.5 -163.5t287 -61q158 0 296 58t241.5 159.5t163.5 238.5t60 295t-60 296t-163.5 239.5t-243 160t-294.5 58.5q-154 0 -289 -60.5t-236.5 -164t-160 -240.5t-58.5 -289zM369 721q0 117 43 220t117.5 181t177 123t221.5 45 q117 0 218 -44t178 -119.5t121 -177t44 -218.5q0 -121 -45 -222t-123 -177t-181.5 -118t-221.5 -42q-111 0 -210.5 45t-174 121t-119.5 175t-45 208zM553 748q0 -82 27.5 -153t77 -123t118 -83t152.5 -31q82 0 150.5 32t118.5 87t78 127t28 152q0 86 -30 152.5t-82 112.5 t-123 69.5t-153 23.5q-80 0 -147.5 -26.5t-114.5 -75.5t-73.5 -117t-26.5 -147zM733 739q0 84 52.5 138.5t138.5 54.5t143 -56.5t57 -144.5q0 -86 -54 -138t-140 -52t-141.5 56t-55.5 142z" />
<glyph unicode="%" horiz-adv-x="1558" d="M72 598q0 -12 25.5 -32.5t58 -39t64.5 -32t44 -13.5q35 0 47.5 26.5t12.5 59.5q0 29 -5.5 64t-16.5 65.5t-28.5 52t-40.5 21.5q-16 0 -43.5 -20.5t-54 -48t-45 -57.5t-18.5 -46zM287 893q0 -16 9 -40t24.5 -45.5t34 -37.5t36.5 -16q20 0 35.5 17t26 42t16.5 49.5t6 40.5 q0 51 -47 51q-10 0 -32.5 -6t-47 -15t-43 -19.5t-18.5 -20.5zM309 365q0 -35 26.5 -44.5t55.5 -9.5h31q14 0 31.5 1t34 7.5t27.5 17t11 28.5t-16 46.5t-38.5 55.5t-48.5 45t-46 18q-18 0 -31.5 -16t-22 -42t-11.5 -54.5t-3 -52.5zM340 643q0 -10 14.5 -21.5t35 -21.5 t38.5 -17.5t29 -7.5q25 0 34 16.5t9 39.5q0 12 -3 32.5t-9.5 39t-16.5 33t-27 14.5q-10 0 -28.5 -12.5t-34.5 -30t-28.5 -36t-12.5 -28.5zM365 1096q0 -47 16 -83t47 -36q20 0 48 15.5t52.5 37t42 46t17.5 44.5t-18.5 35.5t-46 24t-59.5 12.5t-58 4q-23 0 -32 -33t-9 -67z M481 831q0 -8 6.5 -23t15.5 -30.5t19 -27t21 -11.5q6 0 17 13.5t23.5 31t20.5 34t8 20.5t-10 7t-22.5 6t-23.5 5t-15 2q-10 0 -35 -5t-25 -22zM487 492q0 -16 15.5 -21.5t29.5 -5.5q8 0 23.5 1t30 6t26 13.5t11.5 20.5t-9.5 28.5t-22.5 32t-29.5 26.5t-29.5 11 q-14 0 -23 -13t-13 -31.5t-6.5 -38t-2.5 -29.5zM512 680q0 -6 9 -14.5t21.5 -16.5t25 -13t18.5 -5q14 0 18 10.5t4 20.5v18q0 14 -3 27.5t-8 23.5t-13 10q-6 0 -18.5 -7t-25 -16t-20.5 -20.5t-8 -17.5zM530 930q0 -12 3.5 -24.5t9.5 -20.5t18 -8t30.5 10t37 25.5t31 33 t12.5 29.5q0 14 -12.5 23.5t-30 13.5t-34.5 5t-28 1q-27 0 -32 -23.5t-5 -44.5v-20zM543 1245q0 -41 26.5 -55t63.5 -14q18 0 51 4t64.5 15t55 28.5t23.5 42.5q0 16 -20.5 44.5t-48 56.5t-57 48.5t-46.5 20.5q-16 0 -36.5 -25t-37 -56.5t-27.5 -63t-11 -46.5zM545 371 q0 -8 6 -31t15 -46.5t19.5 -42t18.5 -18.5q14 0 39 9.5t48.5 24t41 32t17.5 33.5q0 18 -18.5 33.5t-44 26.5t-52.5 17.5t-41 6.5q-23 0 -36 -11.5t-13 -33.5zM635 1034q0 -23 15.5 -29t33.5 -6q10 0 31.5 1t44 4.5t40 11.5t17.5 22q0 8 -13 27.5t-29.5 40t-34 35t-25.5 14.5 q-10 0 -23.5 -15.5t-26 -36t-21.5 -41t-9 -28.5zM637 504q0 -6 3 -19.5t8 -29t11.5 -26.5t12.5 -11q10 0 24.5 6t28.5 15.5t23.5 20.5t9.5 21q0 12 -10.5 22.5t-25.5 16.5t-30.5 10.5t-25.5 4.5q-29 0 -29 -31zM692 918q0 -14 10.5 -18.5t20.5 -4.5q6 0 19.5 2t25.5 6 t21.5 10.5t9.5 16.5q0 6 -7.5 16t-18.5 19.5t-22.5 16.5t-17.5 7q-4 0 -11 -9t-13.5 -21.5t-11.5 -24.5t-5 -16zM727 166q0 -18 20.5 -46t49 -53.5t58.5 -43t48 -17.5q12 0 30.5 25.5t36 58.5t30 65t12.5 44q0 35 -27 47t-55 12q-18 0 -53 -5t-68 -15.5t-57.5 -27.5 t-24.5 -44zM748 385q0 -10 13 -27.5t30.5 -33t35 -26.5t27.5 -11q8 0 20.5 15t23.5 35.5t19.5 40.5t8.5 28q0 23 -17.5 28.5t-36.5 5.5q-18 0 -39.5 -4t-40 -12t-31.5 -17.5t-13 -21.5zM762 514q0 -6 7 -16.5t18.5 -21.5t21.5 -18t16 -7t14.5 9t14.5 21.5t10 23.5t4 17 q0 16 -10 21.5t-24 5.5q-6 0 -18.5 -2t-25 -6t-20.5 -10.5t-8 -16.5zM803 961q0 -12 11 -21.5t26.5 -15.5t31 -9.5t25.5 -3.5q29 0 29 27q0 4 -4 18.5t-9.5 28.5t-11.5 25.5t-10 11.5q-10 0 -24.5 -6t-29 -15.5t-24.5 -19.5t-10 -20zM811 1106q0 -14 9 -25.5t23.5 -18.5 t29 -13.5t24.5 -10.5q16 -8 43 -27.5t39 -19.5q6 0 10 16.5t7 37t5.5 40t2.5 25.5q0 8 -2.5 24.5t-7.5 32t-13 26.5t-20 11q-14 0 -39 -9t-49.5 -23.5t-43 -32t-18.5 -33.5zM895 473q0 -14 13.5 -22.5t30.5 -12.5t35.5 -5t29.5 -1q10 0 15 9.5t8 20.5t3 23v19q0 16 -5 38.5 t-28 22.5q-12 0 -29.5 -10t-33.5 -23.5t-27.5 -30t-11.5 -28.5zM940 938q0 -12 10.5 -28.5t23.5 -33t28.5 -27.5t27.5 -11q10 0 17.5 11t12.5 25.5t8 29t3 20.5q0 14 -26.5 30.5t-38.5 16.5q-16 0 -41 -5t-25 -28zM950 778q0 -8 2 -20.5t6.5 -24.5t10.5 -21.5t16 -9.5 q6 0 16.5 7.5t20.5 18.5t17.5 21.5t7.5 16.5t-10.5 13t-23 14.5t-24.5 12.5t-16 5q-14 0 -18.5 -11.5t-4.5 -21.5zM967 606q0 -29 26 -28q4 0 18.5 4t29 9t25.5 11t11 10q0 8 -5 23.5t-14 30t-19.5 25.5t-20.5 11q-12 0 -21.5 -11t-15.5 -27.5t-10 -33t-4 -24.5zM971 309 q0 -18 15 -31.5t38 -20.5t51 -10t53 -3q45 0 55.5 27.5t10.5 66.5q0 53 -13.5 87t-47.5 34q-18 0 -46 -16.5t-53.5 -39t-44 -48t-18.5 -46.5zM1034 1075q0 -31 17.5 -54.5t33.5 -45.5q4 -6 11.5 -21.5t16.5 -32t17.5 -28.5t12.5 -12q18 0 38.5 23.5t38 55t30 62.5t12.5 47 q0 23 -15.5 34t-37 16t-44 6t-37.5 1q-27 0 -60.5 -9t-33.5 -42zM1063 813q0 -12 3 -33.5t9 -41t17.5 -35t27.5 -15.5q12 0 28.5 12.5t32 30t26 36t10.5 30.5q0 6 -15.5 17t-36 22.5t-39 18.5t-26.5 7q-23 0 -30 -16.5t-7 -32.5zM1090 530q0 -23 11 -36t34 -13q8 0 30.5 6.5 t46 15.5t42 19.5t18.5 18.5q0 14 -10.5 37.5t-25.5 47t-33.5 41t-33.5 17.5q-18 0 -32.5 -18.5t-25.5 -44t-16 -51t-5 -40.5zM1235 870l2 -174q0 -6 3 -17t13 -11q27 0 67 13t77 35.5t63.5 51t26.5 59.5q0 14 -24.5 37t-58.5 43.5t-66.5 34.5t-47.5 14q-35 0 -46 -28.5 t-9 -57.5z" />
<glyph unicode="&#x26;" horiz-adv-x="1869" d="M182 733q0 -152 58.5 -289t160 -239.5t236.5 -162.5t289 -60q156 0 295 58t242.5 159.5t164 238.5t60.5 295t-60.5 295t-165 239.5t-243 161t-293.5 58.5q-154 0 -289 -60.5t-236.5 -164t-160 -240.5t-58.5 -289zM311 453q0 61 36 108t97 62l189 -293q-27 -23 -57.5 -37 t-65.5 -14q-37 0 -73 12t-63.5 34.5t-45 54.5t-17.5 73zM315 973q0 74 52.5 122t126.5 48q59 0 104 -41l-158 -295q-57 16 -91 61t-34 105zM741 737q0 37 15.5 72t41 61.5t60.5 42t74 15.5q84 0 142.5 -57.5t58.5 -141.5q0 -39 -16.5 -73.5t-43 -60.5t-61.5 -41t-74 -15 q-84 0 -140.5 57t-56.5 141zM750 262q47 -23 94 -30t100 -7q45 0 89 8.5t85 26.5q0 -41 -9 -83t-30.5 -75.5t-57.5 -54t-89 -20.5q-49 0 -84 20.5t-56.5 54t-31.5 75.5t-10 85zM762 1200q0 37 10 73t30.5 64.5t51.5 46t74 17.5q47 0 81.5 -16.5t56 -44t32 -63.5t10.5 -75 q-43 16 -84 23.5t-88 7.5q-90 0 -174 -33zM1241 328l189 286q57 -16 89.5 -61t32.5 -104q0 -39 -16 -71t-44 -53.5t-62.5 -33.5t-71.5 -12q-63 0 -117 49zM1272 1106q47 37 100 37q74 0 127 -47t53 -123q0 -59 -30.5 -103.5t-85.5 -62.5z" />
<glyph unicode="'" horiz-adv-x="1138" d="M113 575q0 -68 24.5 -154.5t70.5 -165.5t110.5 -132t144.5 -53q35 0 77 16t78.5 43t61.5 62.5t25 74.5q0 49 -24 91t-51.5 84t-51 84t-23.5 91q0 47 35 81t87 65t113.5 61.5t113.5 70.5t87 94t35 130q0 90 -46 171t-119 142.5t-161 97.5t-174 36q-61 0 -132.5 -16.5 t-131 -51.5t-99.5 -88t-40 -127q0 -53 33.5 -85t74.5 -61.5t75 -66.5t34 -98t-36 -107.5t-78 -89.5t-77.5 -89t-35.5 -110z" />
<glyph unicode="(" horiz-adv-x="1794" d="M145 741q0 -152 58.5 -288t160 -239t236.5 -164.5t289 -61.5q158 0 296 58t241.5 159.5t164 238.5t60.5 297q0 158 -60.5 295.5t-164 238.5t-243 159.5t-294.5 58.5q-154 0 -289 -60.5t-236.5 -164t-160 -239.5t-58.5 -288zM340 725q0 117 43 221.5t117.5 181t176 121.5 t220.5 45q117 0 218.5 -44t178 -119.5t120.5 -177t44 -218.5q0 -121 -45 -222t-122 -177t-180 -118t-222 -42q-111 0 -210 45t-174 121t-120 175t-45 208zM702 743q0 -86 55.5 -142t143.5 -56q86 0 139.5 52t53.5 138q0 88 -56.5 144.5t-144.5 56.5q-86 0 -138.5 -53.5 t-52.5 -139.5z" />
<glyph unicode=")" horiz-adv-x="1695" d="M61 713q0 -8 19.5 -19.5t46.5 -20.5t50.5 -15.5t33.5 -6.5q66 0 125.5 23.5t118.5 46.5q-59 23 -117.5 47.5t-122.5 24.5q-12 0 -37.5 -6.5t-51.5 -17.5t-45.5 -25.5t-19.5 -30.5zM162 1104q2 -51 41 -85t94 -54.5t112.5 -33t96.5 -20.5q-31 37 -64.5 75t-72.5 68.5 t-83 51t-96 20.5zM164 332l29 -23q57 0 102 19.5t83 51.5t71.5 70.5t66.5 77.5q-41 -8 -101.5 -18t-115.5 -30.5t-95 -55.5t-40 -92zM440 1384q0 -57 18.5 -104t47.5 -86t66.5 -73.5t78.5 -67.5q-8 33 -20.5 92t-34 116.5t-52 100.5t-73.5 45zM442 70l31 -41q49 2 81 44 t51.5 99t30.5 116.5t19 96.5q-41 -31 -78.5 -63.5t-67.5 -69.5t-48.5 -82t-18.5 -100zM774 82q0 -12 6 -38t16.5 -51.5t25 -45t30.5 -19.5q12 0 23.5 19.5t20.5 46t14 51.5t5 35q0 66 -23.5 125t-45.5 119q-23 -59 -47.5 -118t-24.5 -124zM780 1343q0 -59 21.5 -115.5 t44.5 -111.5q20 57 41.5 114t21.5 118q0 8 -5 34.5t-13 54t-18.5 49t-20.5 21.5q-14 0 -27.5 -21.5t-22.5 -49t-15.5 -54t-6.5 -39.5zM1036 385q8 -43 18.5 -102.5t31 -114.5t55.5 -95t92 -40l22 28q0 57 -19 102.5t-50 83.5t-71 71.5t-79 66.5zM1040 1059q37 31 75 64.5 t70 72.5t52 83t20 97l-22 27q-53 0 -86 -40t-54.5 -94.5t-33.5 -112.5t-21 -97zM1180 524q33 -41 64.5 -79.5t67.5 -68.5t80 -47.5t103 -17.5l41 31q0 49 -43 81t-100.5 51.5t-116.5 30.5t-96 19zM1182 913q33 8 92 21.5t117.5 35t102.5 52.5t46 74l-24 28q-59 0 -105.5 -17 t-86.5 -46t-73.5 -67t-68.5 -81zM1249 723q55 -20 112.5 -40.5t119.5 -20.5q10 0 35.5 3t51 10t46 16.5t20.5 21.5q0 14 -20.5 26.5t-48 21.5t-54 14t-36.5 5q-59 0 -115.5 -17.5t-110.5 -39.5z" />
<glyph unicode="*" horiz-adv-x="1601" d="M82 946q0 -25 14.5 -44t36 -33.5t47 -22.5t45.5 -8q35 0 56.5 25.5t21.5 60.5q0 25 -14.5 41t-36 27.5t-46 15.5t-44.5 4q-29 0 -54.5 -15.5t-25.5 -50.5zM350 186q0 -29 17.5 -47t44.5 -18q23 0 46 12t42.5 30.5t32 42t12.5 46.5q0 31 -26.5 54.5t-55.5 23.5 q-23 0 -43.5 -15.5t-35.5 -37t-24.5 -47t-9.5 -44.5zM721 1333q0 -41 17.5 -71.5t64.5 -30.5q43 0 62.5 27.5t19.5 68.5q0 18 -4 42t-13.5 43.5t-25 32.5t-39.5 13q-23 0 -38 -13t-24.5 -32.5t-14.5 -41t-5 -38.5zM1063 246q0 -20 12 -44t31.5 -44.5t42 -33.5t45.5 -13 q29 0 45 20t16 49q0 20 -8 46t-23.5 47.5t-35 36t-43.5 14.5q-29 0 -55.5 -24t-26.5 -54zM1296 918q0 -35 22.5 -59.5t57.5 -24.5q20 0 46 8t47.5 22.5t36 34.5t14.5 43q0 35 -27 50.5t-57 15.5q-20 0 -44 -4.5t-45.5 -15.5t-36 -28.5t-14.5 -41.5z" />
<glyph unicode="+" horiz-adv-x="1728" d="M104 692q0 -23 6.5 -65.5t17.5 -95t27.5 -106.5t37 -98t44 -73t52.5 -29q25 0 39 15.5t14 35.5q0 10 -8 27q-61 86 -95 186.5t-34 206.5q0 141 55 265t150.5 216.5t221.5 145.5t265 53q131 0 245.5 -50t198.5 -136t133.5 -201t49.5 -246q0 -123 -47 -228t-127 -183 t-186.5 -122t-227.5 -44q-113 0 -210 43t-169 115.5t-113 171t-41 209.5q0 102 39 191t106.5 153.5t158 101.5t190.5 37q92 0 173 -35t139.5 -95.5t92 -141t33.5 -173.5q0 -84 -31.5 -154.5t-86 -123.5t-127 -83t-154.5 -30q-74 0 -136.5 29t-108.5 77t-72.5 112.5 t-26.5 136.5q0 63 24.5 116.5t66.5 93t98.5 62t117.5 22.5q51 0 97 -21.5t80 -57t53.5 -82.5t19.5 -99q0 -43 -17.5 -79.5t-47 -64.5t-68.5 -43t-82 -15q-33 0 -61.5 14t-49 37.5t-33 53.5t-12.5 63q0 47 37 78.5t82 31.5q25 0 45.5 -21.5t20.5 -45.5q0 -10 -7.5 -17.5 t-16.5 -13.5t-18.5 -14.5t-13.5 -20.5l37 -47q41 2 65.5 38t24.5 75q0 27 -11 51t-29.5 42.5t-43 30t-51.5 11.5q-37 0 -71.5 -14.5t-60.5 -39t-42 -58.5t-16 -71q0 -47 17 -91t48 -77.5t73 -53t91 -19.5q57 0 110.5 21.5t93.5 59.5t63.5 89t23.5 110q0 68 -24.5 129.5 t-68.5 107.5t-104.5 73.5t-130.5 27.5q-80 0 -150.5 -28.5t-124 -78.5t-84 -120t-30.5 -150q0 -90 33 -168.5t90 -138t136 -94.5t169 -35q98 0 187.5 37t156 100.5t105 150.5t38.5 187q0 111 -40.5 208.5t-112.5 170t-168 114.5t-207 42q-121 0 -227.5 -44t-186 -121 t-126 -182.5t-46.5 -226.5q0 -131 49.5 -245.5t133.5 -200.5t198.5 -136t245.5 -50q141 0 265 52t217.5 142t147.5 213t54 264q0 152 -56.5 285t-154.5 232.5t-230 157t-284 57.5q-160 0 -304 -61.5t-254 -167t-173.5 -248t-63.5 -304.5zM322 162q0 -23 16 -38t39 -15t38 15 t15 38t-15.5 38t-37.5 15q-23 0 -39 -15.5t-16 -37.5zM475 45q0 -16 13.5 -29.5t29.5 -13.5q18 0 30.5 13.5t12.5 29.5q0 18 -12 30.5t-31 12.5q-16 0 -29.5 -12.5t-13.5 -30.5zM614 -14q0 -14 10.5 -24.5t24.5 -10.5t24.5 10.5t10.5 24.5t-10 24t-25 10q-14 0 -24.5 -10 t-10.5 -24z" />
<glyph unicode="," horiz-adv-x="1519" d="M55 203q0 -59 7.5 -105.5t29 -78t58 -48t96.5 -16.5q29 0 114.5 41t198.5 102.5t236 134t225 134t168 102.5l67 41q33 18 69 39.5t66.5 49.5t51 62.5t20.5 77.5t-20.5 78t-51 63.5t-67.5 50t-70 40.5l-67 41q-68 41 -172.5 102.5t-228 132t-236.5 132t-198 102.5t-111 41 q-63 0 -100.5 -27t-55.5 -70t-23.5 -94t-5.5 -100v-1028z" />
<glyph unicode="-" horiz-adv-x="1667" d="M111 739q0 -29 28.5 -53t67.5 -41.5t79 -28t62 -10.5q10 0 20.5 2.5t10.5 14.5q0 29 -11.5 52t-11.5 52q0 31 9.5 60.5t9.5 60.5q0 23 -29 22q-27 0 -66.5 -8t-77.5 -23.5t-64.5 -41t-26.5 -58.5zM694 1200q0 -14 17 -14q31 0 59.5 9t58.5 9q33 0 62 -13t59 -13 q10 0 13.5 7t3.5 15q0 25 -9.5 67t-26 83t-42 70.5t-55.5 29.5q-31 0 -56.5 -29.5t-44 -69.5t-29 -83t-10.5 -68zM698 276q0 -27 7.5 -69.5t22.5 -83.5t40 -70.5t59 -29.5q35 0 60.5 28.5t42 68.5t25 81.5t8.5 70.5q0 14 -19 15q-29 0 -57.5 -9.5t-57.5 -9.5 q-31 0 -60.5 12.5t-57.5 12.5q-12 0 -13 -17zM1282 631q0 -10 5 -17.5t18 -7.5q25 0 66.5 8.5t83.5 23.5t71.5 38.5t29.5 56.5q0 39 -28.5 64.5t-69.5 41t-85 21.5t-75 6q-16 0 -16 -20q0 -27 8 -51.5t8 -53.5t-8 -55.5t-8 -54.5z" />
<glyph unicode="." horiz-adv-x="1738" d="M166 735q0 -43 20.5 -77.5t51 -62.5t66.5 -49.5t69 -39.5l65 -41q66 -41 168.5 -102.5t224 -134t234.5 -134t200 -102.5t119 -41q61 0 99.5 18.5t58 51t25.5 78t6 98.5v1030q0 59 -7 112.5t-27.5 93.5t-56.5 62.5t-93 22.5q-23 0 -89.5 -31t-156.5 -79t-195.5 -107.5 t-206 -117t-184.5 -107.5t-132 -78.5t-50 -30.5q-33 -18 -70 -40t-67.5 -50.5t-51 -63.5t-20.5 -78z" />
<glyph unicode="/" horiz-adv-x="1953" d="M100 967q0 -141 78 -273.5t198 -235t263 -164t276 -61.5q106 0 193.5 27t157 66t125 86t98.5 86t75.5 65.5t57.5 26.5t53.5 -1t55.5 -1t47 4t30 14q16 18 30.5 44t14.5 73t-20.5 124t-55 149.5t-85 126t-107.5 53.5q-47 0 -118.5 -33t-140.5 -83t-118 -108.5t-49 -109.5 q0 -25 14.5 -40.5t31 -26.5t30.5 -22.5t14 -27.5q0 -39 -40 -71.5t-95 -57.5t-111.5 -38t-87.5 -13q-137 0 -225 46t-143 115.5t-88 150.5t-59.5 150.5t-56.5 115.5t-81 46q-47 0 -77.5 -16t-49 -44t-27 -64.5t-8.5 -77.5z" />
<glyph unicode="0" d="M129 739q0 -47 32 -78.5t76 -55t92 -42t81 -37.5q92 -51 169.5 -129t129.5 -170q18 -35 34.5 -78t38 -80.5t53 -64.5t78.5 -27q39 0 63.5 12.5t42 34t30 48t24.5 57.5q59 127 147.5 232.5t211.5 173.5q31 16 75.5 33.5t87.5 40t74 53t31 71.5t-12.5 66.5t-34 43t-49 29 t-60.5 23.5q-170 66 -278.5 177.5t-186.5 275.5q-14 31 -26.5 58.5t-30.5 49t-43 34.5t-64 13q-51 0 -83.5 -25.5t-56 -64.5t-40 -82t-37.5 -80q-74 -133 -176 -213t-237 -141q-27 -12 -54.5 -25.5t-50 -31t-37 -42t-14.5 -59.5zM508 739q0 14 25.5 49t65.5 79t88 91.5 t93 86t80 64.5t49 26t51 -26t83.5 -64.5t95.5 -87t90 -91.5t67.5 -78t26.5 -49t-26.5 -48t-67.5 -78t-90 -91t-95.5 -87t-83 -65.5t-51.5 -25.5q-14 0 -50 24.5t-80 63.5t-92 85t-88 90t-65.5 80t-25.5 52z" />
<glyph unicode="1" d="M279 563q0 -27 10 -57.5t28.5 -58t44 -46t56.5 -18.5q25 0 41 16.5t27.5 40t15.5 50.5t4 45q0 27 -15.5 53t-40 45.5t-54 32t-56.5 12.5q-23 0 -35 -11.5t-18 -28.5t-7 -36.5t-1 -38.5zM279 952q0 -16 1 -38.5t7 -43t19 -34t38 -13.5t52.5 12.5t52 33t41 46t16.5 50.5 q0 16 -6 41.5t-16.5 49t-28 41t-37.5 17.5q-29 0 -53.5 -15.5t-44 -39t-30.5 -52t-11 -55.5zM547 256q0 -29 19.5 -54.5t48 -44t61.5 -29.5t57 -11q16 0 34.5 3t35 11t27 21.5t10.5 33.5q0 25 -11.5 53.5t-30 51t-43 38t-50.5 15.5q-20 0 -47 -4t-51.5 -13.5t-42 -26.5 t-17.5 -44zM551 1239q0 -20 16.5 -35.5t39 -27t46 -16.5t39.5 -5q29 0 54.5 14.5t46 38t32 51t11.5 54.5q0 37 -36 51t-67 14q-27 0 -58.5 -10t-59 -28.5t-46 -44t-18.5 -56.5zM987 184q0 -41 36 -55t71 -14q27 0 58.5 12t59 31.5t46 46t18.5 57.5q0 18 -17.5 33.5t-42 27 t-50 17.5t-40.5 6q-29 0 -53 -15.5t-43.5 -39t-31 -52t-11.5 -55.5zM987 1305q0 -25 12.5 -52.5t32 -49t44 -36t50.5 -14.5q18 0 45 6t50.5 17.5t41 28.5t17.5 40q0 27 -20.5 52.5t-49 45t-60.5 30.5t-56 11q-47 0 -77 -13t-30 -66zM1317 535q0 -16 6 -43t16.5 -51.5 t26.5 -42t39 -17.5q31 0 57.5 21.5t46 52t30.5 65.5t11 64q0 35 -15 62.5t-56 27.5q-25 0 -53.5 -11.5t-53 -31t-40 -45t-15.5 -51.5zM1317 965q0 -25 15.5 -50.5t39 -45t51 -32t52.5 -12.5q39 0 57 36t18 69q0 20 -13 52t-32.5 59.5t-44 48t-47.5 20.5q-29 0 -47 -14.5 t-28.5 -37t-15.5 -48t-5 -45.5z" />
<glyph unicode="2" d="M313 743q0 -35 22.5 -48t57.5 -17t74 -4t73.5 -9.5t57.5 -33t23 -74.5q0 -39 -23 -66.5t-49.5 -50t-49 -46t-22.5 -54.5q0 -23 15.5 -38t37.5 -15q29 0 52.5 22.5t49 50t55.5 50t71 22.5q35 0 50 -23.5t21.5 -59.5t6.5 -79q0 -41 5 -76.5t19 -59t47 -23.5q25 0 39.5 14 t22.5 33.5t11 42t3 41.5v69q0 37 8 69t30.5 53.5t70.5 21.5q41 0 65.5 -23.5t46 -51.5t45 -50.5t62.5 -22.5q18 0 25 12.5t7 28.5q0 33 -24.5 54.5t-54 42t-54 47t-24.5 69.5q0 45 24.5 66.5t61.5 32t79 12.5t78.5 7t61.5 18t25 44q0 33 -24 48.5t-59.5 21.5t-76.5 8 t-77 11.5t-59.5 32t-23.5 65.5q0 25 24.5 48t53.5 47t53.5 48.5t24.5 50.5q0 23 -14.5 40.5t-37.5 17.5q-20 0 -39.5 -25t-46 -53.5t-62.5 -53t-87 -24.5q-31 0 -46 22.5t-23.5 54.5t-9.5 64.5t-1 53.5v47t-7 50t-22.5 38.5t-46.5 15.5q-25 0 -39 -11t-22 -28.5t-10 -39 t-2 -40.5q0 -25 1 -63.5t-5.5 -75.5t-25 -62.5t-56.5 -25.5q-51 0 -85 21.5t-56.5 48t-39 48t-32.5 21.5q-20 0 -31.5 -14t-11.5 -33q0 -23 21.5 -43t46 -43.5t46 -52.5t21.5 -64q0 -41 -23.5 -59t-58.5 -25.5t-76 -9.5t-76 -7t-58.5 -19.5t-23.5 -49.5z" />
<glyph unicode="3" d="M227 725q0 -102 18.5 -170t53.5 -121t88 -101t123 -110q51 -45 95 -76.5t89 -52t98.5 -31t122.5 -10.5q70 0 123.5 8.5t97.5 26.5t87 49t96 78q70 61 123 109.5t89 100.5t53.5 119t17.5 169q0 53 -17.5 127.5t-45.5 150.5t-64.5 143.5t-73.5 104.5q-55 55 -113.5 89 t-120 51.5t-128 22.5t-140.5 5q-133 0 -228.5 -21.5t-166 -71.5t-120.5 -134t-91 -209q-20 -59 -43 -119.5t-23 -126.5zM449 887q0 35 36.5 52t84.5 29.5t96.5 25t72.5 34.5q20 18 39 52t39.5 67t44 57.5t53.5 24.5q31 0 54.5 -23.5t45 -55.5t41 -63.5t38.5 -50.5 q31 -31 80 -44t94 -24.5t77.5 -27.5t32.5 -53q0 -39 -24.5 -70t-55 -59.5t-55 -58t-24.5 -66.5t4 -74t4 -76q0 -49 -14.5 -89t-57.5 -40q-33 0 -63.5 10.5t-60.5 22.5t-61.5 22.5t-64.5 10.5q-39 0 -68.5 -11.5t-57 -24.5t-56.5 -24.5t-61 -11.5q-33 0 -53.5 15.5 t-20.5 50.5q0 47 8 93t8 93q0 49 -24.5 86t-53 69.5t-53 63.5t-24.5 68z" />
<glyph unicode="4" d="M250 741q0 -41 20.5 -63.5t51 -33.5t66.5 -16t66.5 -11.5t51 -18.5t20.5 -37t-16 -47t-34.5 -47t-35 -54.5t-16.5 -68.5q0 -41 23.5 -73.5t70.5 -32.5q31 0 62.5 17t60.5 37.5t54.5 38t47.5 17.5q25 0 36.5 -19.5t17.5 -49t10 -63.5t16.5 -63.5t37 -49t69.5 -19.5 q39 0 60.5 20.5t32.5 50t15 65.5t10.5 65.5t16.5 50t33 20.5q33 0 55.5 -16t45 -34.5t49 -35t67.5 -16.5q43 0 72.5 21.5t29.5 68.5q0 35 -16.5 64.5t-37 57.5t-36.5 54.5t-16 54.5q0 23 19.5 33t50 16.5t64.5 10.5t64.5 16.5t50 34t19.5 62.5q0 45 -20.5 68.5t-50 34.5 t-65.5 15t-65.5 9.5t-50 18.5t-20.5 42q0 25 16 49.5t34.5 49t35 53t16.5 63.5q0 41 -22.5 68.5t-65.5 27.5q-47 0 -79 -17.5t-57.5 -38t-48 -37.5t-49.5 -17q-25 0 -35 20.5t-16 50t-11 65.5t-16.5 65.5t-35 50t-66.5 20.5q-39 0 -61.5 -20.5t-33.5 -51t-17.5 -67.5 t-11.5 -68t-13 -51.5t-27 -20.5q-29 0 -53 17.5t-50 37t-55.5 37t-66.5 17.5q-51 0 -76.5 -22.5t-25.5 -75.5q0 -41 16.5 -70t36.5 -53.5t36.5 -49t16.5 -55.5q0 -20 -20.5 -30.5t-50 -16.5t-65.5 -12t-65.5 -17.5t-50 -34t-20.5 -61.5z" />
<glyph unicode="5" d="M162 741q0 -152 58.5 -289t159.5 -239t236.5 -162.5t288.5 -60.5q158 0 297 57t242.5 158.5t163 238.5t59.5 297t-60.5 297.5t-164 238.5t-241.5 158.5t-296 57.5q-152 0 -287 -60.5t-236 -163t-160.5 -238.5t-59.5 -290zM397 756q0 104 20.5 172.5t64.5 108.5t114 55.5 t168 15.5h278q100 0 176 -14.5t127.5 -54.5t76 -110t24.5 -181q0 -129 -33 -201t-94.5 -106.5t-147.5 -42t-192 -7.5h-141q-113 0 -196 8.5t-137 45t-81 109.5t-27 202zM721 745q0 -86 54 -142t143 -56q86 0 140 52t54 138q0 88 -56.5 144.5t-144.5 56.5q-86 0 -138 -53.5 t-52 -139.5z" />
<glyph unicode="6" d="M338 725q0 -16 9 -24.5t22.5 -13.5t29 -6t25.5 -1t30.5 2t41 7t36 14.5t15.5 23.5q0 10 -17.5 18.5t-39 14.5t-42 9t-28.5 3q-25 0 -53.5 -8t-28.5 -39zM485 1092q0 -29 29 -49.5t63.5 -40t63.5 -44t29 -61.5q0 -27 -11.5 -54.5t-23.5 -51t-23.5 -42t-11.5 -24.5 q0 -4 11.5 -19.5t25.5 -42t25.5 -61.5t11.5 -76q0 -20 -29 -39.5t-62.5 -41t-62 -47t-28.5 -56.5q0 -33 32 -33q49 0 73 28t40 61.5t35.5 62t60.5 28.5q39 0 68.5 -9t50 -21.5t36 -21.5t27.5 -9t27.5 11.5t37 24.5t51.5 24.5t73 11.5q29 0 48 -29t36.5 -64.5t40 -64.5 t57.5 -29q25 0 34 10t9 33q0 41 -28.5 62.5t-62.5 39t-62.5 40t-28.5 65.5q0 29 11 56.5t25.5 50t26 39t11.5 26.5q0 6 -12.5 21.5t-27 38t-26.5 53.5t-12 70q0 31 28.5 51t63.5 38.5t63.5 41t28.5 57.5q0 43 -45 43q-37 0 -58.5 -28.5t-41 -62.5t-43 -62.5t-66.5 -28.5 q-33 0 -59.5 11t-48 23.5t-37 23.5t-27.5 11q-10 0 -23.5 -11t-33 -25.5t-46 -25.5t-65.5 -11q-35 0 -57.5 27.5t-42 60t-40 60.5t-50.5 28q-35 0 -46.5 -6.5t-11.5 -40.5zM854 1210q0 -8 4 -26.5t10 -37t15.5 -32.5t19.5 -14q12 0 21.5 14t15.5 34.5t8 39.5t2 29 q0 25 -9 56.5t-38 31.5t-39 -31t-10 -64zM864 231q0 -27 8.5 -50t40.5 -23q31 0 41.5 21t10.5 48q0 12 -2 34t-7.5 41.5t-15.5 34.5t-27 15q-12 0 -21 -15t-15.5 -35.5t-9.5 -41t-3 -29.5zM1268 731q0 -10 17.5 -18t41 -13.5t45 -8.5t29.5 -3q10 0 25.5 2t29.5 7t24.5 14.5 t10.5 23.5t-11.5 24.5t-26.5 14.5t-32.5 6t-27.5 2q-8 0 -29 -4t-42.5 -11t-37.5 -16.5t-16 -19.5z" />
<glyph unicode="7" d="M121 727q0 -72 30.5 -112t66.5 -64.5t66.5 -40.5t30.5 -43q0 -41 -9 -81t-9 -81q0 -84 58.5 -141.5t144.5 -57.5q41 0 78.5 14.5t78.5 14.5q25 0 42.5 -29.5t43 -64.5t66.5 -64.5t113 -29.5q76 0 116.5 29.5t65 65.5t41 65.5t45.5 29.5q39 0 76 -10t77 -10q86 0 142.5 58 t56.5 142q0 43 -11 84t-11 84q0 18 29.5 35t64.5 42.5t64.5 66t29.5 110.5q0 74 -29.5 115t-66.5 66.5t-66.5 44t-29.5 49.5q0 35 10 69.5t10 69.5q0 43 -16.5 81t-44 67.5t-64.5 47t-80 17.5q-41 0 -77.5 -15.5t-77.5 -15.5q-23 0 -39.5 30t-42 65.5t-66.5 65.5t-110 30 q-80 0 -122 -31t-68 -66.5t-43 -66.5t-46 -31q-39 0 -75 11.5t-75 11.5q-37 0 -72.5 -15.5t-63 -42t-45 -62.5t-17.5 -75q0 -41 9 -80t9 -80q0 -29 -29.5 -47t-64.5 -44.5t-64.5 -67.5t-29.5 -113z" />
<glyph unicode="8" d="M326 471q0 -55 32.5 -80.5t85.5 -25.5q37 0 70 13t64.5 30.5t63.5 31t69 13.5q31 0 45 -27t20 -68t9 -88t15.5 -88t39 -67.5t75.5 -26.5q47 0 72 26.5t36 67.5t14 88t10.5 88t21.5 68t49 27q37 0 72 -14.5t68.5 -32t66.5 -32t68 -14.5q47 0 78.5 32t31.5 79q0 53 -38 88 t-82 64.5t-81.5 59.5t-37.5 73q0 35 37.5 63.5t81.5 58t82 63.5t38 79q0 53 -31.5 84t-85.5 31q-39 0 -74.5 -14.5t-67.5 -32t-62.5 -32t-59.5 -14.5q-35 0 -50 28t-21.5 68t-9.5 88t-14 88t-36.5 67.5t-75.5 27.5q-53 0 -77.5 -26.5t-34.5 -67.5t-12.5 -87t-8.5 -87 t-21.5 -67.5t-53.5 -26.5q-39 0 -70 13t-60.5 30.5t-63.5 31t-81 13.5t-74.5 -28t-27.5 -75q0 -55 35.5 -91t79.5 -66.5t80 -60.5t36 -69q0 -35 -37 -63.5t-81 -58t-80.5 -65.5t-36.5 -87zM702 756q0 18 14.5 50t36 62.5t46 54t45.5 23.5h141q20 0 44 -23.5t45.5 -54 t35.5 -62.5t14 -50t-13 -52t-32.5 -68t-42 -59.5t-43.5 -25.5h-166q-16 0 -37.5 26.5t-41 61.5t-33 68.5t-13.5 48.5z" />
<glyph unicode="9" d="M397 891q0 -55 40 -92t87 -70t87 -67.5t40 -86.5q0 -41 -9 -78.5t-21.5 -75.5t-21.5 -77t-9 -80q0 -29 20.5 -52.5t51.5 -23.5q43 0 87 27t84.5 59.5t79.5 59t72 26.5q45 0 89 -27.5t86 -61t85 -61.5t90 -28q43 0 58.5 36t15.5 71q0 39 -11.5 76.5t-24.5 74.5t-24.5 74 t-11.5 78q0 18 20.5 40.5t51.5 47.5t67.5 49.5t67.5 50t51.5 50t20.5 47.5q0 37 -25.5 56t-66.5 26.5t-92 7.5h-97q-47 0 -86 5t-59 23q-27 25 -41 83.5t-31.5 118.5t-47.5 106.5t-85 46.5q-47 0 -73.5 -46.5t-46 -105.5t-36 -116.5t-41.5 -82.5q-18 -16 -53 -22t-79 -8 t-90 -3t-83 -8.5t-61.5 -21.5t-24.5 -45zM791 688q0 51 7 94t27.5 74t57.5 48.5t96 17.5q68 0 111 -13.5t67.5 -43t34.5 -75t10 -108.5q0 -23 -23.5 -53.5t-57.5 -59t-68.5 -49t-55.5 -20.5q-29 0 -63.5 18.5t-67 47t-54 61t-21.5 61.5z" />
<glyph unicode=":" horiz-adv-x="1568" d="M70 618q0 -63 34.5 -98t98.5 -35q6 0 17 1t22.5 4.5t20.5 8.5t9 11q0 8 -11 21.5t-26.5 25.5t-31 23.5t-21.5 17.5t-16 20.5t-22.5 29t-23.5 25.5t-22 11q-18 0 -23 -26.5t-5 -39.5zM74 860q0 -12 5 -38.5t23 -26.5q8 0 20.5 11t24 25.5t22.5 28.5t17.5 20.5t21.5 17.5 t30.5 23.5t26.5 25t11 22.5q0 6 -9 11t-20 8t-22.5 4t-17.5 1q-63 0 -98 -33.5t-35 -99.5zM377 508q0 -10 11 -22.5t26.5 -24.5t30 -23.5t20.5 -17.5t17.5 -20.5t22.5 -29t23.5 -25.5t22.5 -11q16 0 22.5 25.5t6.5 37.5q0 66 -35 100.5t-101 34.5q-6 0 -17 -1t-22.5 -4 t-19.5 -8t-8 -11zM381 973q0 -6 8 -11.5t19.5 -8.5t22.5 -5t18 -2q63 0 99 34.5t36 100.5q0 12 -6.5 39t-24.5 27q-10 0 -21.5 -11.5t-22.5 -25.5t-21.5 -28.5t-16.5 -20.5t-21.5 -18.5t-31 -24.5t-26.5 -24.5t-11 -20.5zM528 164q0 -66 35 -99.5t101 -33.5q6 0 17 1t22.5 4 t19.5 8t8 11q0 8 -11 21.5t-26.5 26t-31 23.5t-21.5 17.5t-16.5 20.5t-22.5 28.5t-23.5 25.5t-21.5 11q-18 0 -23.5 -26.5t-5.5 -38.5zM532 1317q0 -12 5.5 -38t23.5 -26q8 0 20.5 10.5t23.5 25t22.5 28.5t17.5 22q6 6 21.5 17.5t30 24t25.5 24.5t11 22q0 6 -8 11.5 t-19.5 8.5t-21.5 4t-16 1q-66 0 -101 -35t-35 -100zM840 55q0 -6 8 -11t19.5 -8t22.5 -4t17 -1q63 0 98 33.5t35 99.5q0 12 -5 38.5t-23 26.5q-10 0 -21.5 -11t-23 -25.5t-22.5 -28.5t-17 -20.5t-21.5 -17.5t-30 -23.5t-25.5 -26t-11 -21.5zM840 1425q0 -10 11 -22 t25.5 -24.5t30 -22.5t21.5 -16.5t17 -20.5t22.5 -28.5t22.5 -26t22 -11.5q18 0 23 26t5 38q0 63 -34.5 99t-98.5 36q-6 0 -17 -2t-22.5 -5t-19.5 -8t-8 -12zM991 401q0 -12 5 -38.5t24 -26.5q8 0 20.5 11t23.5 25.5t22.5 29t17.5 20.5t21.5 17.5t29.5 23.5t25.5 24.5 t11.5 22.5q0 6 -8 11t-19.5 8t-23 4.5t-17.5 1.5q-63 0 -98 -34t-35 -100zM991 1081q0 -66 35 -100.5t98 -34.5q6 0 17.5 2t23 5t19.5 8.5t8 11.5q0 8 -11.5 21.5t-25.5 25.5t-29.5 23.5t-21.5 17.5t-17.5 20.5t-22.5 28.5t-23.5 25.5t-20.5 11.5q-18 0 -23.5 -26.5 t-5.5 -39.5zM1292 510q0 -6 9.5 -11t20.5 -8.5t22.5 -4.5t17.5 -1q63 0 98 33.5t35 99.5q0 12 -5 39t-24 27q-10 0 -21 -11t-22.5 -25.5t-22.5 -29t-17.5 -20.5t-21.5 -17.5t-30.5 -23.5t-27 -25.5t-11.5 -21.5zM1296 969q0 -10 11.5 -22.5t27 -25t30.5 -22.5t21.5 -16 t17.5 -21.5t22.5 -30t22.5 -25.5t21 -11q18 0 23.5 26.5t5.5 38.5q0 66 -34.5 100.5t-98.5 34.5q-6 0 -17.5 -2t-22.5 -5t-20.5 -8t-9.5 -11z" />
<glyph unicode=";" horiz-adv-x="1742" d="M96 735q0 -72 7.5 -128t30 -95t63.5 -60.5t108 -21.5q55 0 101.5 -3t79 -20.5t51 -53.5t18.5 -103q0 -96 15.5 -153.5t55.5 -86t108.5 -37t174.5 -8.5q86 0 139.5 13.5t84 47t42 89t11.5 139.5q0 94 57 136t146 42q88 0 138 15.5t76.5 51.5t34 93t7.5 141t-6.5 145.5 t-30 101.5t-70.5 59.5t-131 19.5q-57 0 -98 6t-68 25.5t-39 56.5t-12 100q0 84 -13.5 136.5t-50 82t-101 40t-165.5 10.5q-92 0 -150.5 -9.5t-91 -36t-44 -72.5t-11.5 -122q0 -61 -10 -102t-34.5 -67t-65.5 -37t-103 -11q-90 0 -140 -16.5t-75.5 -54.5t-32 -100.5 t-6.5 -152.5zM281 733q0 66 21.5 98.5t55 45t74.5 12.5q43 0 87 1t84 9t69 39q29 29 39 71t13 86t5 87t14.5 77.5t42 56t86.5 21.5q59 0 90 -20.5t43.5 -55t14.5 -76.5t4 -85t10 -82t35 -68q33 -35 76 -47t88 -14t86 -2q43 0 75.5 -12.5t53 -42.5t20.5 -91 q0 -59 -21.5 -87.5t-55 -41t-76.5 -13.5t-87 -4t-85 -13.5t-70 -38.5q-31 -31 -40 -71t-11 -84t-3 -87t-12.5 -77t-41 -55.5t-86.5 -21.5t-87 20.5t-43.5 54.5t-15.5 77t-6 87t-14.5 85t-40.5 70q-29 29 -69 39t-84 12t-86 4t-75.5 13.5t-55 40t-21.5 83.5z" />
<glyph unicode="&#x3c;" horiz-adv-x="1626" d="M31 231q0 -61 18.5 -99t50 -57.5t76.5 -25.5t98 -6h1029q49 0 101 4t95 22.5t69.5 55.5t26.5 100q0 23 -30.5 89.5t-78.5 157.5t-106.5 196.5t-117 205t-107.5 184.5t-77.5 133t-30.5 50q-18 33 -41 70t-51.5 67.5t-63.5 51t-78 20.5q-41 0 -76 -20.5t-62.5 -51 t-50 -67.5t-38.5 -68q-2 -2 -31 -49t-79 -130t-108.5 -182.5t-119 -204t-108.5 -195.5t-78.5 -158.5t-30.5 -92.5z" />
<glyph unicode="=" horiz-adv-x="1738" d="M117 735q0 -152 59.5 -288t160.5 -238.5t236.5 -163.5t286.5 -61q158 0 296 58t241.5 159.5t164 238.5t60.5 295q0 160 -60.5 297t-164 238.5t-241.5 160t-296 58.5q-154 0 -289 -60.5t-236.5 -164t-159.5 -240.5t-58 -289zM676 739q0 84 52 138.5t138 54.5t142.5 -56.5 t56.5 -144.5q0 -86 -54.5 -138t-138.5 -52q-86 0 -141 56t-55 142z" />
<glyph unicode="&#x3e;" horiz-adv-x="1605" d="M20 1239q0 -33 41 -120t102.5 -199.5t133.5 -234.5t133.5 -223.5t101.5 -167.5l41 -67q18 -31 41 -66.5t50.5 -66.5t62.5 -51t76 -20q43 0 77.5 20t63.5 51t51.5 68t40.5 69l41 68t101.5 172t132 228t132 237t101.5 197.5t41 111.5q0 57 -22.5 94t-63.5 56.5t-98.5 27 t-126.5 7.5h-987q-70 0 -120 -7.5t-83 -28t-48.5 -57.5t-15.5 -98z" />
<glyph unicode="?" horiz-adv-x="2021" d="M135 817q0 -47 20.5 -124t55.5 -149.5t84 -124.5t106 -52q31 0 74 15t91 41t94.5 59.5t84 70.5t60 75t22.5 70q0 25 -14 40.5t-30.5 26.5t-31 22.5t-14.5 27.5q0 39 40 73t94.5 57.5t110.5 36.5t89 13q137 0 224 -46t143.5 -115.5t88.5 -149.5t59.5 -149.5t57 -115.5 t80.5 -46q47 0 78 15t49.5 43t26.5 64.5t8 77.5q0 53 -25.5 121t-50.5 115q-55 109 -129.5 200t-169 157.5t-205 103.5t-235.5 37q-104 0 -190 -27t-157 -65.5t-127 -85t-99 -85t-76 -65.5t-57 -27q-23 0 -46.5 1t-48.5 1q-72 0 -103.5 -30.5t-31.5 -106.5z" />
<glyph unicode="@" horiz-adv-x="1990" d="M94 604q0 -4 4 -14t6 -17q47 0 90.5 13.5t90.5 13.5q23 0 34 -8t20 -17.5t18.5 -16.5t27.5 -7q35 0 65.5 11t65.5 11q31 0 45 -7t24.5 -15t20.5 -15.5t31 -7.5q35 0 66.5 18.5t66.5 18.5q39 0 57.5 -22.5t31.5 -48t29.5 -48t51.5 -22.5q25 0 38 9t21.5 19.5t14.5 19.5 t18 9q18 0 30.5 -8t25 -17.5t31 -16.5t52.5 -7q12 0 22.5 5t10.5 22q0 31 -18.5 57.5t-20.5 56.5l19 17q29 0 58.5 -8.5t57.5 -8.5q25 0 38.5 7.5t22.5 14.5t19.5 14t32.5 7q27 0 44.5 -6t30.5 -12t24.5 -12t25.5 -6q37 0 55.5 9t31.5 19t26.5 19.5t38.5 9.5t46 -8 t41.5 -19.5t38 -19.5t35.5 -8t31.5 12.5t13.5 32.5q0 29 -24.5 85t-64.5 124.5t-89 140.5t-97 130t-91 96t-72 38q-35 0 -72.5 -20.5t-75.5 -51t-76 -67.5t-73 -67.5t-66.5 -51t-58.5 -20.5q-12 0 -25.5 9t-13.5 23q0 6 7.5 21.5t16.5 36t17.5 45t8.5 51.5q0 43 -19.5 70.5 t-19.5 58.5q0 16 5 29.5t5 27.5q0 27 -27 27q-23 0 -42 -10.5t-38.5 -21.5t-39 -21.5t-42.5 -10.5q-14 0 -24 9.5t-19.5 20.5t-21.5 20.5t-29 9.5q-16 0 -21 -21.5t-5 -44.5q0 -20 -6.5 -33.5t-13.5 -27.5t-13 -31.5t-6 -46.5q0 -37 10 -66.5t22.5 -53t23.5 -42t11 -33.5 l-30 -12q-37 0 -73 35t-79 76t-99.5 74.5t-136.5 33.5q-27 0 -53 -34.5t-52 -89t-47.5 -121t-37.5 -129t-25.5 -113.5t-9.5 -74zM725 1159q0 20 15.5 30.5t33.5 10.5t34.5 -11.5t16.5 -31.5q0 -23 -16 -33t-35 -10q-20 0 -34.5 12.5t-14.5 32.5zM866 1157q0 20 15.5 29.5 t33.5 9.5t36 -10t18 -33t-17.5 -32t-36.5 -9q-18 0 -33.5 12.5t-15.5 32.5z" />
<glyph unicode="A" horiz-adv-x="1765" d="M119 743q0 -162 57 -304t159.5 -247.5t243 -167t306.5 -61.5q164 0 303 58.5t241.5 162t161 244.5t58.5 305q0 166 -60.5 307.5t-166 246t-248 163.5t-308.5 59q-162 0 -299 -59t-236.5 -162.5t-155.5 -244t-56 -300.5zM254 551q0 35 14.5 64.5t39 51t56 34t64.5 12.5 q20 0 38.5 -24.5t41 -61.5t52.5 -79t73 -79t102.5 -61.5t141.5 -24.5t145 24.5t110.5 61.5t82 79t61.5 79t47 61.5t39 24.5q33 0 64.5 -10.5t56 -31t40 -48t15.5 -64.5q0 -33 -25.5 -75t-44.5 -68q-51 -72 -116.5 -132.5t-141 -104.5t-160.5 -69.5t-173 -25.5 q-82 0 -189.5 38t-204 102.5t-163 149.5t-66.5 177zM408 1026q0 78 49 129t127 51q82 0 129 -55t47 -133q0 -35 -14.5 -66.5t-38 -56.5t-55 -39t-68.5 -14q-78 0 -127 54t-49 130zM1008 1018q0 78 49 128t129 50t127 -54t47 -132q0 -72 -51.5 -125.5t-122.5 -53.5 q-78 0 -128 54.5t-50 132.5z" />
<glyph unicode="B" horiz-adv-x="1853" d="M127 760q0 -53 26.5 -99.5t64.5 -89.5t82 -81.5t79 -73.5q33 -33 73 -77t84 -85t92 -69.5t97 -28.5q90 0 138 49t48 137q0 49 -13 81t-28.5 54.5t-29 37.5t-13.5 30q0 20 26 23t38 3h590q53 0 99 8.5t79 30t51.5 59.5t18.5 99q0 57 -20.5 93t-55.5 56.5t-79 27.5t-93 7 h-582q-10 0 -22.5 -1t-23.5 1t-19.5 9.5t-8.5 23.5q0 12 13.5 26.5t30 36t29.5 55.5t13 87q0 80 -47 128t-127 48q-41 0 -73.5 -12.5t-61.5 -33t-55.5 -46t-52.5 -51.5l-250 -248q-47 -47 -82 -95.5t-35 -119.5z" />
<glyph unicode="C" horiz-adv-x="1798" d="M100 758q0 -35 32 -80t75 -89t87 -84t68 -65q18 -18 56.5 -58t81.5 -82t83 -73.5t62 -31.5q43 0 69.5 15t26.5 64q0 37 -27.5 74t-60 73t-60.5 70.5t-28 67.5q0 37 19.5 58.5t47 33t60.5 15.5t62 4h802q20 0 46 4t47.5 14t36 27.5t14.5 46.5q0 27 -13.5 44t-33 26.5 t-44 13.5t-44.5 4h-795q-27 0 -61.5 2t-65.5 12t-52.5 30.5t-21.5 57.5q0 45 27 80t58.5 68t58 66.5t26.5 74.5t-26.5 63.5t-65.5 22.5q-20 0 -65 -37t-94.5 -84t-94.5 -93t-63 -64q-25 -25 -64 -60t-75.5 -75t-63.5 -80.5t-27 -75.5z" />
<glyph unicode="D" horiz-adv-x="1619" d="M63 498q0 -121 38 -223.5t109 -177t171 -116.5t223 -42q121 0 224.5 37.5t178 108.5t116.5 171t42 223q0 47 -4 95.5t-20 95.5q-10 27 -19.5 48t-16.5 41.5t-12.5 44t-5.5 54.5q0 14 27 51t62.5 76t69.5 68.5t48 29.5q29 0 38 -26.5t18.5 -57t30 -57.5t71.5 -27 q31 0 48.5 17.5t27.5 43t13 54.5t3 51v242q0 27 -1 56.5t-9 56t-26.5 44t-53.5 17.5h-350q-47 0 -79 -23.5t-32 -72.5q0 -43 17.5 -60.5t39 -27.5t39 -22.5t17.5 -43.5q0 -16 -31 -56t-71.5 -82t-79.5 -73.5t-56 -31.5q-25 0 -46 5t-52 10t-74 10t-108 5q-115 0 -211 -42 t-166 -113.5t-109 -170t-39 -210.5zM268 500q0 74 25.5 137t72 110.5t109 75t135.5 27.5q84 0 149.5 -26.5t109.5 -76t66.5 -118t22.5 -150.5q0 -74 -24.5 -138.5t-69.5 -112.5t-108.5 -74.5t-139.5 -26.5q-86 0 -150.5 27.5t-108.5 77t-66.5 118t-22.5 150.5z" />
<glyph unicode="E" horiz-adv-x="1490" d="M123 487q0 -72 42 -122t118 -50q43 0 78.5 19.5t63.5 50.5t43 71t15 81q0 37 -18.5 59t-47 34.5t-61 17.5t-59.5 5q-33 0 -64.5 -13t-56 -35.5t-39 -53.5t-14.5 -64zM125 1006q0 -84 54 -126t132 -42q25 0 55.5 5t57.5 17t44 32.5t17 53.5q0 37 -15 77t-41 71.5t-61.5 52 t-74.5 20.5q-78 0 -123 -42t-45 -119zM586 1274q0 -29 13 -63.5t34.5 -67.5t50.5 -54.5t59 -21.5q31 0 62 21.5t53.5 53.5t36.5 67.5t14 64.5q0 33 -12 62.5t-33.5 53t-51.5 38t-62 14.5q-74 0 -119 -47t-45 -121zM588 209q0 -33 13 -62.5t34.5 -53t51.5 -38t63 -14.5 q35 0 64.5 15.5t51 40t33.5 56t12 64.5q0 25 -14 59.5t-36.5 66.5t-51.5 53.5t-57 21.5q-35 0 -65 -20.5t-52.5 -52.5t-34.5 -68.5t-12 -67.5zM592 739q0 -68 46 -109.5t112 -41.5q63 0 108 45t45 108q0 70 -47 114t-115 44t-108.5 -47t-40.5 -113zM1008 543q0 -41 14 -81 t39.5 -72t61.5 -51.5t79 -19.5q68 0 117 39t49 111q0 33 -12.5 65.5t-34 58t-51 41t-64.5 15.5q-33 0 -67.5 -4t-64.5 -15.5t-48 -33t-18 -53.5zM1008 952q0 -35 18 -57.5t45 -34.5t58.5 -17t60.5 -5q74 0 126 48t52 124q0 72 -46 114.5t-116 42.5q-43 0 -79.5 -18.5 t-62.5 -48t-41 -68.5t-15 -80z" />
<glyph unicode="F" horiz-adv-x="1378" d="M129 958q0 -193 92 -322.5t262 -207.5q37 -16 66 -35.5t29 -66.5v-90q0 -61 -17.5 -88t-45.5 -37.5t-58.5 -12.5t-58 -9t-45 -29.5t-17.5 -73.5t33.5 -80t83.5 -29q55 0 82.5 -17.5t40 -43t15.5 -56t11 -56.5t28.5 -43t67.5 -17q45 0 66.5 17t30 43t11.5 56.5t13 56 t35 43t76 17.5q55 0 91 24.5t36 84.5q0 53 -18.5 74.5t-45 28.5t-59.5 7t-59.5 10.5t-45 38t-18.5 91.5v90q0 31 16.5 51t41 34.5t52 26t50.5 23.5q135 78 206.5 204.5t71.5 280.5q0 123 -42 225.5t-116.5 176t-178 114.5t-226.5 41q-115 0 -216 -41t-177 -114.5t-120 -173 t-44 -216.5zM348 946q0 72 23.5 137.5t66.5 116.5t104.5 81t137.5 30q78 0 143.5 -27t112.5 -74t73.5 -112.5t26.5 -143.5q0 -74 -23.5 -140t-67.5 -116.5t-106.5 -80t-140.5 -29.5q-80 0 -144.5 26.5t-110.5 73.5t-70.5 113.5t-24.5 144.5z" />
<glyph unicode="G" horiz-adv-x="1601" d="M137 1147q0 -115 31 -210t81 -181t114.5 -165t134.5 -161q29 -35 57.5 -68.5t54.5 -70.5q8 -12 33 -49t53.5 -77t53 -71t32.5 -31q14 0 33 16.5t36 40t31.5 46t24.5 35.5q43 59 92.5 114.5t102.5 108.5q74 78 140.5 155.5t115.5 162.5t77.5 180.5t28.5 210.5 q0 57 -14 109t-43 91t-75 61.5t-109 22.5q-80 0 -136.5 -18.5t-95.5 -46t-65.5 -59t-47 -59.5t-40 -46.5t-45.5 -18.5q-29 0 -48.5 18.5t-40 46.5t-45 59.5t-61.5 59t-91 46t-134 18.5q-59 0 -104.5 -21.5t-74 -58.5t-43 -86t-14.5 -104z" />
<glyph unicode="H" horiz-adv-x="1896" d="M61 723q0 -33 20.5 -48.5t48.5 -26.5t57.5 -23.5t50.5 -38.5q12 -18 22 -45t18.5 -57.5t17.5 -60.5t21.5 -52.5t33 -50t40 -56t32.5 -57.5t13 -55q0 -25 -8 -47.5t-17.5 -45t-17.5 -45t-8 -47.5q0 -31 19.5 -43t48.5 -12q33 0 49 24.5t30.5 54t35 54.5t59.5 25 q41 0 81 -9.5t79.5 -19.5t79.5 -19.5t81 -9.5t80 8.5t78 19.5t78 19.5t80 8.5q45 0 63.5 -24t31.5 -51.5t31.5 -51t61.5 -23.5q53 0 53 55q0 51 -21.5 96.5t-21.5 96.5q0 27 7.5 45t17.5 32.5t24.5 29t26.5 34.5q14 23 32.5 67t37 90t36 85t29.5 49q18 18 45 27.5t53.5 19.5 t45 27.5t18.5 48.5q0 39 -17.5 56.5t-44 25.5t-55 15t-49.5 26q-8 6 -20.5 33.5t-24.5 60.5t-23.5 64.5t-17.5 46.5q-39 80 -83 130t-96 85.5t-114.5 62.5t-138.5 59q-31 12 -52.5 34t-42 42.5t-45 34.5t-61.5 14q-35 0 -56.5 -12t-38.5 -28.5t-33.5 -37t-43.5 -34.5 q-25 -14 -53.5 -19.5t-54.5 -15.5q-59 -20 -117.5 -57t-109 -85t-89.5 -104.5t-59 -116.5q-12 -31 -20.5 -65.5t-24.5 -63.5q-25 -37 -56.5 -49t-61.5 -20t-50.5 -22.5t-20.5 -57.5zM438 549q0 74 70 74q31 0 46 -20.5t15 -49.5q0 -27 -15 -58.5t-48 -31.5t-50.5 28.5 t-17.5 57.5zM442 891q0 55 27 112.5t71 103.5t99 75.5t111 29.5q20 0 25 -15.5t5 -31.5q0 -47 -17.5 -100t-33.5 -96q-10 -29 -22.5 -58.5t-31 -53t-43 -39t-61.5 -15.5q-45 0 -87 17.5t-42 70.5zM649 295q0 14 7.5 46t18.5 65.5t22.5 64.5t17.5 47q39 78 95 101.5t138 23.5 q43 0 76 -4t60.5 -17.5t49 -37t42.5 -62.5l10 -24q10 -25 23.5 -58.5t23.5 -71.5t10 -65q0 -53 -31.5 -83t-78 -44t-97.5 -16t-90 -2q-35 0 -85 3t-97 17.5t-81 41t-34 75.5zM854 887q0 14 7 41.5t19.5 54.5t28 47.5t33.5 20.5q20 0 37.5 -19.5t31 -45t21.5 -53.5t8 -44 q0 -45 -26.5 -64.5t-67.5 -19.5t-66.5 19.5t-25.5 62.5zM1118 1159q0 16 5 38t28 22q45 0 98.5 -32t98.5 -78t74.5 -101.5t29.5 -100.5q0 -70 -28.5 -87t-92.5 -17q-53 0 -92 40t-66.5 96t-41 117.5t-13.5 102.5zM1325 547q0 35 15.5 56.5t54.5 21.5q29 0 45 -20.5t16 -49.5 t-16.5 -59.5t-48.5 -30.5q-25 0 -45.5 29.5t-20.5 52.5z" />
<glyph unicode="I" horiz-adv-x="1456" d="M117 494q0 -12 1 -32t6 -37t15.5 -30.5t28.5 -13.5q37 0 58.5 38t40 88t35.5 102.5t46 82.5q23 23 47.5 52.5t59.5 29.5q23 0 22 -16q0 -16 -11 -45t-15 -45q-25 -84 -25 -170q0 -43 7 -84t20 -82q10 -35 32.5 -82t53 -90t69.5 -73t82 -30q16 0 43 8.5t27 32.5 q0 16 -15.5 42t-37 53.5t-43 53t-33.5 38.5q-31 33 -57.5 90t-26.5 102q0 10 3 22.5t19 12.5q8 0 27.5 -15.5t40 -35t40 -37.5t28.5 -25q37 -31 86 -57q68 -35 141.5 -51.5t148.5 -16.5q25 0 64 7.5t73.5 21.5t60.5 38t26 58q0 55 -60 56q-29 0 -57.5 -7.5t-58 -14.5 t-58.5 -14t-59 -7q-14 0 -44 2t-60.5 8t-53.5 18.5t-23 34.5q0 12 11.5 18.5t27 11.5t30.5 7t24 4q78 16 136.5 50t117.5 89q70 68 114.5 137.5t46.5 172.5q0 37 -10 68.5t-57 31.5q-23 0 -41.5 -28.5t-34.5 -70.5t-34.5 -92.5t-42 -92.5t-53.5 -70.5t-69 -28.5 q-18 0 -18 16q0 8 4 21.5t9 29t10.5 29t7.5 23.5q10 37 17 74.5t7 78.5q0 53 -10 109.5t-31.5 110t-54.5 99.5t-78 81q-23 16 -49.5 28.5t-54.5 12.5q-18 0 -36 -6.5t-18 -28.5q0 -39 33 -80t72 -87t71.5 -99.5t32.5 -116.5q0 -10 -4 -26.5t-20 -16.5q-14 0 -48 38t-91.5 84 t-140.5 85t-193 39q-27 0 -71 -4.5t-86 -17.5t-72.5 -36.5t-30.5 -62.5q0 -31 27.5 -40t49.5 -9q59 0 117 17t119 17q14 0 39.5 -2t51.5 -8t44.5 -18t18.5 -35q0 -10 -11.5 -17.5t-27 -12.5t-30.5 -9t-24 -6q-80 -23 -142 -53.5t-122 -89.5q-57 -55 -102 -136.5t-45 -162.5z M590 731q0 55 38 87t91 32t91 -35t38 -90t-38 -86t-91 -31t-91 34t-38 89z" />
<glyph unicode="J" horiz-adv-x="1640" d="M80 735q0 -59 48 -109.5t114.5 -93.5t134 -82.5t104.5 -76.5q29 -29 53.5 -63t47.5 -68q20 -35 41.5 -75t49 -75t62.5 -58.5t82 -23.5q51 0 87 22.5t62.5 56.5t49 74t47.5 77q53 78 120.5 146.5t147.5 121.5q31 20 71 41.5t74.5 48.5t59.5 60.5t25 76.5q0 59 -43 105.5 t-101.5 85.5t-121 73.5t-99.5 71.5q-68 68 -123 148q-23 31 -49.5 72.5t-57 79.5t-67.5 64.5t-82 26.5q-55 0 -105 -45t-95.5 -106.5t-86.5 -125t-75 -98.5q-55 -53 -127 -98q-35 -23 -78 -46t-81 -54t-63.5 -68t-25.5 -86z" />
<glyph unicode="K" horiz-adv-x="1396" d="M61 737q0 -16 9.5 -27.5t24 -17.5t30.5 -9t29 -3q27 0 54.5 12t27.5 43q0 35 -30 47.5t-56 12.5q-29 0 -59 -13.5t-30 -44.5zM236 1151q0 -43 35.5 -72.5t76.5 -29.5q18 0 30.5 10.5t12.5 30.5q0 41 -34.5 72.5t-75.5 31.5q-45 0 -45 -43zM238 309q0 -14 7 -24.5 t23 -10.5q45 0 80 31t35 78q0 14 -7 28.5t-26 14.5q-20 0 -40.5 -10t-36 -27.5t-25.5 -38t-10 -41.5zM494 743q0 -92 55 -151.5t147 -59.5q88 0 148.5 56.5t60.5 146.5q0 92 -56 148.5t-149 56.5q-86 0 -146 -54.5t-60 -142.5zM641 195q0 -29 12.5 -60t44.5 -31 q33 0 46.5 30t13.5 59q0 27 -13.5 56.5t-46.5 29.5t-45 -29t-12 -55zM641 1286q0 -27 12.5 -57.5t44.5 -30.5q33 0 46.5 29.5t13.5 56.5t-13.5 56.5t-46.5 29.5t-45 -28.5t-12 -55.5zM1004 381q0 -41 35.5 -71.5t76.5 -30.5q18 0 30.5 10t12.5 30q0 41 -34.5 73t-75.5 32 q-45 0 -45 -43zM1010 1083q0 -14 7 -24t23 -10q45 0 80 29.5t35 76.5q0 16 -7 30.5t-26 14.5q-20 0 -40.5 -10t-36 -27.5t-25.5 -38t-10 -41.5zM1159 737q0 -16 9.5 -27.5t23.5 -17.5t30.5 -9t28.5 -3q27 0 54.5 12t27.5 43q0 35 -29.5 47.5t-56.5 12.5q-29 0 -58.5 -13.5 t-29.5 -44.5z" />
<glyph unicode="L" horiz-adv-x="1597" d="M117 485q0 -31 16.5 -71.5t44 -78.5t60 -64.5t67.5 -26.5q18 0 40 8t44.5 17.5t47 17.5t50.5 8q66 0 92.5 -19.5t35 -49t9.5 -64.5t13 -64.5t48 -49t114 -19.5q74 0 108.5 19.5t49 49t16.5 64.5t11 64.5t36 49t88 19.5q27 0 50.5 -8t47 -17.5t47 -16.5t47.5 -7 q31 0 63 31.5t58.5 75.5t43 89t16.5 72q0 20 -27 43t-58.5 48.5t-58 58t-26.5 75.5q0 39 25.5 67t57 52.5t57.5 52t26 66.5q0 25 -17.5 67.5t-43 84.5t-57.5 72t-61 30q-25 0 -47 -9.5t-44.5 -19.5t-45 -19t-49.5 -9q-66 0 -92.5 20t-34.5 51t-9 67t-15.5 66.5t-51.5 51 t-118 20.5q-72 0 -105 -20.5t-46 -51t-14 -65.5t-11.5 -65.5t-37 -51t-90.5 -20.5q-25 0 -47 7t-44.5 16t-45 17.5t-47.5 8.5q-33 0 -66.5 -28t-60 -67.5t-43 -81.5t-16.5 -73q0 -41 25.5 -63.5t55 -45t55.5 -53.5t26 -90q0 -43 -26 -68.5t-55.5 -47t-55 -48.5t-25.5 -74z M264 1001q0 47 35 66.5t74 19.5q37 0 61.5 -15t47 -33.5t48 -34t64.5 -15.5q49 0 70.5 26.5t21.5 71.5q0 39 -9 76t-9 76q0 20 12 40.5t31.5 36t42 26t43.5 10.5q23 0 45 -9.5t40.5 -26t30 -36.5t11.5 -45q0 -37 -8.5 -73t-8.5 -70q0 -102 103 -103q35 0 58.5 15.5t45 34 t46 33.5t63.5 15q47 0 74.5 -25.5t27.5 -72.5q0 -39 -17.5 -63.5t-43 -40t-56 -27.5t-56.5 -28.5t-43 -39t-17 -61.5q0 -49 35.5 -72.5t78.5 -43t79 -47t36 -87.5q0 -53 -26.5 -74.5t-77.5 -21.5q-31 0 -54.5 15.5t-47 34t-49.5 33.5t-62 15q-98 0 -99 -98q0 -35 7.5 -69.5 t7.5 -69.5q0 -47 -37 -83t-84 -36q-51 0 -88 39t-37 90q0 35 6 66.5t6 64.5q0 98 -98 98q-37 0 -61.5 -15t-46 -33.5t-45 -34t-60.5 -15.5q-47 0 -77 19.5t-30 70.5q0 41 17.5 65.5t43 41t56.5 29t56.5 27.5t43 38.5t17.5 62.5q0 55 -37 79t-82 43.5t-82 48t-37 91.5z" />
<glyph unicode="M" horiz-adv-x="2138" d="M125 750q0 -61 51 -100.5t122 -65t143.5 -43t115.5 -33.5q37 -14 69.5 -36.5t65.5 -43t68 -35t76 -14.5q47 0 65.5 17.5t24.5 44t7 57t12 57.5t40 44t90 17h692q35 0 78 6.5t80 24t62.5 46t25.5 73.5q0 49 -24.5 80t-62.5 48t-82 22.5t-83 5.5h-694q-55 0 -80.5 17 t-36 44t-12.5 58.5t-10 58t-29.5 44t-73.5 17.5q-16 0 -57 -18.5t-87 -43t-90 -48t-69 -31.5q-57 -23 -125.5 -36t-129 -36.5t-101.5 -68.5t-41 -129z" />
<glyph unicode="N" horiz-adv-x="1947" d="M154 768q0 -20 32.5 -66.5t85 -104.5t115 -120.5t119.5 -114t103 -85t67 -33.5q47 0 66.5 29.5t19.5 70.5q0 37 -23.5 69.5t-53.5 62.5t-53.5 56.5t-23.5 53.5q0 41 23.5 54t53.5 24.5t53.5 32t23.5 75.5q0 53 -23.5 74.5t-53.5 31t-53.5 17.5t-23.5 35q0 45 24.5 77.5 t53.5 61.5t53.5 60.5t24.5 74.5q0 51 -19.5 71.5t-70.5 20.5q-20 0 -66.5 -33.5t-104 -85t-119.5 -115t-113.5 -121.5t-84 -105.5t-32.5 -67.5zM872 768q0 -47 17.5 -62.5t62.5 -15.5q43 0 58.5 18.5t15.5 59.5q0 39 -12.5 57.5t-55.5 18.5q-47 0 -66.5 -14.5t-19.5 -61.5z M1155 764q0 -70 68 -70q71 0 71 68q0 37 -13 55.5t-52 18.5q-74 0 -74 -72zM1434 770q0 -29 18 -46t47 -17q25 0 41 19t16 42q0 29 -19 44t-46 15q-25 0 -41 -16t-16 -41zM1688 762q0 -23 16 -34t37 -11q23 0 39 14t16 37t-16.5 35t-36.5 12q-23 0 -39 -15.5t-16 -37.5z" />
<glyph unicode="O" horiz-adv-x="1613" d="M109 545q0 -23 14 -66t35.5 -86t49.5 -75.5t52 -32.5q25 0 37 20.5t20.5 45t16.5 45t24 20.5q35 0 59.5 -29t45 -72t45 -94t59.5 -94t87.5 -71.5t131.5 -28.5h29q23 0 44.5 3t37.5 9t16 18q0 29 -12 47.5t-25.5 33t-25.5 26.5t-12 29q0 12 10 19t23.5 10t27.5 3h23 q74 0 147.5 -11t147.5 -11q43 0 89 22.5t83.5 57t63.5 80t26 88.5q0 29 -19.5 39t-44.5 10q-20 0 -39.5 -4t-40.5 -4q-16 0 -31.5 6t-15.5 28q0 31 34 76t75 98.5t74.5 113t33.5 122.5q0 25 -12 66.5t-32.5 82.5t-47.5 71t-53 30q-33 0 -46.5 -21.5t-21.5 -48t-17 -48 t-34 -21.5q-27 0 -45 29.5t-36.5 74.5t-43 96t-61.5 96.5t-92.5 75t-135.5 29.5q-10 0 -27.5 -1t-33.5 -4t-28.5 -12.5t-12.5 -23.5q0 -18 15.5 -38.5t33 -41t32.5 -38t15 -32.5q0 -10 -13 -13t-22 -3q-94 0 -186 16.5t-188 16.5q-41 0 -86 -24.5t-83 -61.5t-62.5 -81 t-24.5 -85q0 -18 16 -23.5t31 -5.5q23 0 46 4t46 4q14 0 34.5 -4t20.5 -24q0 -27 -38 -74t-83 -105.5t-82.5 -123t-37.5 -125.5zM219 580q0 80 34 143t89 110.5t125 78t139 46.5q8 2 23.5 5.5t32 8.5t28.5 13t12 19q0 25 -23.5 39t-59 22t-76.5 11t-77 7t-59.5 12.5 t-23.5 24.5q0 29 18.5 44.5t44 23.5t54 9t49.5 1q94 0 166.5 -35t125 -75.5t87.5 -75.5t53 -35q12 0 17.5 13.5t5.5 21.5q0 43 -20.5 78.5t-45.5 69.5t-45.5 68t-20.5 75q0 32 35 32h2q68 0 114 -39t73.5 -96t39 -122.5t11.5 -121.5q0 -55 -11.5 -109t-13.5 -108l13 -14 q43 0 72.5 36t52 80t41 79.5t42.5 35.5q29 0 40.5 -23t11.5 -48q0 -61 -32 -118.5t-80 -105t-106.5 -83t-111.5 -54.5q-12 -4 -33.5 -10t-44 -14t-39 -20.5t-16.5 -26.5q0 -20 24.5 -29.5t62.5 -12.5t81 -4t81 -5.5t62.5 -14.5t24.5 -31q0 -18 -20.5 -33.5t-47 -25.5 t-53.5 -16.5t-41 -6.5q-72 0 -132.5 15.5t-115.5 40t-108.5 57.5t-110.5 70l-6 -11q0 -53 20.5 -92t44 -68.5t44 -55t20.5 -52.5q0 -20 -11.5 -33.5t-33.5 -13.5q-55 0 -102.5 39t-83 96.5t-55 120t-19.5 111.5q0 53 10 105t10 106q0 8 -3 17t-13 9q-43 0 -65.5 -32.5 t-41 -71.5t-39 -72t-57.5 -33q-23 0 -31 17.5t-8 36.5z" />
<glyph unicode="P" horiz-adv-x="1505" d="M133 479q0 -74 43 -122t119 -48q27 0 49.5 7.5t46 16.5t46 17t48.5 8q37 0 56.5 -22.5t32 -56t21.5 -73.5t25.5 -74t47 -56.5t86.5 -22.5q57 0 87.5 22.5t48 56.5t26 74t19.5 73.5t29.5 56t55.5 22.5q27 0 52.5 -7t50 -16t50 -16.5t52.5 -7.5q31 0 57.5 15.5t47 39 t31.5 52t11 57.5q0 49 -27.5 81t-61.5 58.5t-61.5 54t-27.5 70.5q0 33 27.5 61.5t61.5 57.5t61.5 62.5t27.5 78.5q0 31 -12 61t-32.5 54.5t-48.5 38.5t-60 14q-33 0 -58.5 -8t-47 -18.5t-43 -18.5t-46.5 -8q-41 0 -59.5 23.5t-27.5 58.5t-16.5 75t-23.5 74.5t-50 58 t-97 23.5q-55 0 -86 -22.5t-47.5 -57t-24.5 -73.5t-18.5 -74t-29 -57.5t-57.5 -22.5q-27 0 -49 7.5t-45.5 16.5t-46 17t-49.5 8q-76 0 -118 -49t-42 -121q0 -53 28 -83.5t61.5 -55t61 -51.5t27.5 -70q0 -41 -28.5 -68.5t-62.5 -53t-62.5 -57.5t-28.5 -81z" />
<glyph unicode="Q" horiz-adv-x="1722" d="M82 905q0 -51 25.5 -88t64.5 -65.5t84 -55t84 -55.5t64.5 -64.5t25.5 -84.5q0 -53 -15.5 -102.5t-35 -96.5t-34.5 -94t-15 -97q0 -51 33.5 -83.5t85.5 -32.5q63 0 112 33.5t94 75.5t93.5 76t113.5 34q63 0 110.5 -34t92.5 -76t92 -75.5t111 -33.5q55 0 86.5 27.5 t31.5 84.5q0 51 -15 97.5t-34.5 92.5t-35 93t-15.5 96q0 53 26.5 93t65.5 72t85 58.5t85 56t65.5 65.5t26.5 83q0 39 -17 61.5t-45 33t-59.5 13.5t-62.5 3q-37 0 -75 -2t-76 -2q-47 0 -97.5 8t-87.5 41q-31 27 -49 70t-31.5 91t-27 97t-31.5 89t-48 64.5t-77 24.5 q-43 0 -71.5 -25.5t-48 -66.5t-34 -91t-29 -99.5t-33.5 -91.5t-48 -66q-37 -31 -87 -36t-97 -5q-31 0 -62 2t-59 2q-31 0 -67 -3t-66.5 -14.5t-51 -35t-20.5 -62.5zM518 797q0 14 19.5 25.5t45 19.5t50 14t37.5 10q27 10 52.5 35t49 50.5t46 45t44.5 19.5q12 0 34 -20.5 t48.5 -47t56 -52.5t54.5 -34q16 -6 41.5 -10t49 -11t41 -20.5t17.5 -38.5q0 -29 -19.5 -52t-43 -51t-43 -60.5t-19.5 -79.5q0 -20 2 -40t2 -42q0 -29 -9 -50.5t-44 -21.5q-45 0 -85 20.5t-85 20.5q-47 0 -91 -20.5t-91 -20.5q-23 0 -31 18.5t-8 38.5q0 25 2 49.5t2 51.5 q0 55 -19.5 85.5t-43 54.5t-43 47.5t-19.5 66.5z" />
<glyph unicode="R" horiz-adv-x="1570" d="M74 864q0 -29 23.5 -53.5t56 -42.5t68.5 -29.5t59 -11.5q41 0 59 34.5t18 69.5q0 27 -22.5 46.5t-54 30t-64.5 15.5t-53 5q-31 0 -60.5 -13.5t-29.5 -50.5zM315 121q0 -27 16.5 -46.5t43.5 -19.5q25 0 55.5 19.5t58 48.5t47 59.5t19.5 55.5q0 31 -35 58.5t-65 27.5 q-25 0 -49.5 -24t-44 -56.5t-33 -67.5t-13.5 -55zM389 676q0 -16 9.5 -55t22.5 -79t30.5 -71t35.5 -31t37 4.5t37 4.5q41 0 54.5 -15.5t16.5 -37t5 -44t20 -39.5q6 -6 24.5 -9t41 -4t42 -2t30.5 -1q53 0 77.5 11t35 29.5t10.5 37.5q0 20 3 38.5t14 30t42 11.5 q18 0 36.5 -4.5t39.5 -4.5q18 0 34 7q10 4 23.5 33.5t26 65.5t21.5 69t9 45q0 14 -16 25t-36.5 21.5t-37 25t-16.5 34.5q0 23 9 45.5t9 46.5q0 12 -25.5 39t-58 53.5t-64.5 47t-46 20.5t-25.5 -9t-25 -19.5t-27.5 -19.5t-35 -9q-16 0 -28.5 8t-24.5 19.5t-25.5 19.5t-31.5 8 t-50 -18.5t-63 -43t-54.5 -51t-23.5 -45.5q0 -25 7 -47t7 -45q0 -16 -15 -26.5t-32.5 -19.5t-33 -20.5t-15.5 -29.5zM629 690q0 23 16.5 46.5t39 44t49 32.5t48.5 12q16 0 41 -13t48.5 -31.5t41 -40.5t17.5 -38q0 -92 -35 -135t-131 -43q-82 0 -108.5 47t-26.5 119z M686 1233q0 -49 15.5 -80t72.5 -31q55 0 72.5 28t17.5 79q0 20 -3 51t-12 60.5t-25.5 51t-45.5 21.5t-46 -20.5t-27.5 -49t-14.5 -59.5t-4 -51zM1008 238q0 -23 18 -54.5t46 -60.5t58.5 -48.5t55.5 -19.5q27 0 43 20.5t16 47.5q0 20 -12 55t-32.5 68t-45.5 56.5t-49 23.5 q-14 0 -31.5 -8.5t-32 -20.5t-24.5 -27.5t-10 -31.5zM1212 829q0 -35 18.5 -70.5t57.5 -35.5q23 0 58.5 11t69.5 29.5t57.5 43t23.5 51.5q0 39 -30.5 52.5t-63.5 13.5q-20 0 -53 -5.5t-64 -15.5t-52.5 -28.5t-21.5 -45.5z" />
<glyph unicode="S" horiz-adv-x="1798" d="M113 729q0 -166 61.5 -308t169 -246.5t250.5 -163t309 -58.5q162 0 303.5 60.5t248 165t167.5 245.5t61 305q0 168 -60 313.5t-165.5 252t-251 167t-315.5 60.5q-172 0 -315.5 -60.5t-246 -166t-159.5 -251t-57 -315.5zM315 743q0 82 27 181.5t77 187.5t125 147.5 t171 59.5q35 0 55.5 -19.5t29.5 -47t11 -59.5t2 -56q0 -31 1 -68v-19q0 -28 -2 -55q-3 -37 -11 -70.5t-27 -58.5q-12 -16 -64.5 -62t-113.5 -94t-114.5 -86t-67.5 -38q-37 0 -56.5 14t-29 38t-11.5 51.5t-2 53.5zM463 344q0 25 33.5 66t77.5 79.5t89 66.5t70 28 q27 0 42.5 -17.5t22.5 -43t9 -52.5t2 -45v-139q0 -23 -2 -47.5t-11.5 -44t-27.5 -31.5t-47 -12q-31 0 -75 17t-85 45t-69.5 61.5t-28.5 68.5zM979 1118q0 25 1 60.5t10 67.5t28.5 54.5t56.5 22.5q94 0 169 -59.5t126 -145.5t78 -185t27 -179q0 -25 -1 -53.5t-9.5 -54 t-27 -43t-51.5 -17.5q-12 0 -41.5 18.5t-68.5 46t-81 62.5t-79 66.5t-64.5 57t-33.5 37.5q-12 20 -20.5 51t-12.5 66t-5 69t-1 58zM983 338v59q0 16 1 47t8 62t20.5 54.5t38.5 23.5q27 0 72.5 -27t92 -64.5t80 -78.5t33.5 -68q0 -35 -27.5 -69.5t-67.5 -62.5t-84 -45 t-75 -17q-35 0 -53 19t-26.5 49t-10.5 61.5t-2 56.5z" />
<glyph unicode="T" horiz-adv-x="1454" d="M137 1001q0 -35 11.5 -67.5t23.5 -66t23.5 -68.5t11.5 -72q0 -35 -10.5 -65.5t-23.5 -61.5t-23.5 -61.5t-10.5 -63.5q0 -39 20.5 -62.5t51.5 -37t65.5 -17.5t63.5 -4q80 0 129 -42t88 -92t77 -92t93 -42q35 0 62.5 19.5t50 48t43 58.5t43.5 52q43 41 108.5 59.5t129 34 t108.5 38t45 73.5q0 37 -12.5 69.5t-25.5 66.5t-25.5 70t-12.5 77q0 39 11.5 70.5t25.5 61t25.5 60.5t11.5 66q0 39 -19.5 64.5t-48 39.5t-63.5 20.5t-68 6.5q-61 0 -103 19.5t-72 49t-53.5 63.5t-47 63.5t-51 49t-66.5 19.5q-51 0 -86 -41t-74 -91t-89 -91t-132 -41 q-35 0 -70.5 -5.5t-65.5 -20.5t-49.5 -43t-19.5 -71zM504 733q0 47 15.5 91t45 78t70.5 54.5t90 20.5q45 0 86 -17.5t72.5 -48t50 -71.5t18.5 -86t-16 -88t-45 -76t-69 -52.5t-87 -19.5q-98 0 -164.5 56.5t-66.5 158.5z" />
<glyph unicode="U" horiz-adv-x="1570" d="M125 510q0 -57 22.5 -104.5t60.5 -82t87 -54t104 -19.5q68 0 123 31q2 -55 23.5 -104.5t58.5 -87.5t85 -59.5t106 -21.5q45 0 91 18.5t82 50.5t58.5 74t22.5 91v37q59 -33 118 -33q55 0 104.5 19.5t87.5 53t60.5 82t22.5 103.5q0 72 -32 135t-93 100q61 37 95 100.5 t34 135.5q0 53 -22.5 101t-59.5 84t-86 56.5t-102 20.5q-68 0 -129 -31q-2 53 -21.5 103.5t-53.5 88.5t-81 60.5t-103 22.5q-53 0 -100 -42t-83 -91.5t-57 -91.5l-22 -42q-4 0 -24.5 6.5t-54 12.5t-56.5 6q-57 0 -106 -22.5t-84 -60.5t-55.5 -88t-20.5 -105q0 -68 36 -126.5 t93 -93.5q-59 -35 -94 -98t-35 -135zM379 797q0 49 38 85t85 36q12 0 25.5 -8.5t28.5 -17.5t29.5 -18.5t30.5 -9.5l9 15q0 20 -8.5 38.5t-19.5 35t-19.5 35t-8.5 38.5q0 45 30 82t77 37q29 0 45 -17.5t24.5 -44t12.5 -58.5t10 -58.5t17.5 -44t33.5 -17.5q20 0 35.5 28 t32 61.5t37 62t51.5 28.5q47 0 82 -35.5t35 -82.5q0 -25 -29 -46.5t-62.5 -42t-62.5 -37t-29 -30.5l33 -16q23 0 43.5 1t42.5 1q29 0 57.5 -3t51 -14.5t37 -33t14.5 -56.5q0 -47 -36 -83t-83 -36q-14 0 -26.5 9.5t-25.5 20.5t-26.5 20.5t-29.5 9.5q-14 0 -23.5 -10.5 t-13.5 -20.5q0 -20 13 -37.5t27.5 -35t27 -33t12.5 -31.5q0 -45 -32 -81t-79 -36q-43 0 -53.5 37t-14.5 81t-14 81t-49 37t-57.5 -28t-32 -61.5t-29.5 -61.5t-49 -28q-47 0 -82 35t-35 82q0 25 31 47.5t67.5 43t67.5 38t33 33.5l-45 16q-29 0 -56.5 -2t-56.5 -2 q-27 0 -52.5 4t-45 15.5t-30.5 31t-11 52.5z" />
<glyph unicode="V" horiz-adv-x="1830" d="M111 754q0 -29 34.5 -82.5t90 -119t123 -133t132 -122.5t119 -91t82.5 -36q59 0 94 34t35 93q0 45 -23.5 80t-52 65.5t-52 60t-23.5 66.5q0 14 14 22.5t32.5 11.5t37.5 3h28h611q57 0 116.5 4t105.5 19.5t75.5 46.5t29.5 82q0 53 -28.5 82.5t-74.5 45t-101.5 19.5 t-108.5 4h-592q-16 0 -40.5 -2t-47 1t-38 14.5t-15.5 35.5q0 29 22.5 55.5t50 57.5t51 69t23.5 93q0 47 -36.5 78.5t-84.5 31.5q-31 0 -87 -34.5t-121.5 -89t-133 -122t-123 -133t-90 -122t-34.5 -88.5z" />
<glyph unicode="W" horiz-adv-x="1677" d="M94 891q0 -74 45 -124t100.5 -91t100.5 -80t45 -90q0 -45 -10 -89t-22.5 -87t-23 -87t-10.5 -89q0 -37 15.5 -62.5t41 -42t57.5 -25t63 -8.5q43 0 87 27t87 58.5t85 58t81 26.5q47 0 84.5 -25.5t79.5 -56t92.5 -56t121.5 -25.5q76 0 113 47t37 116q0 41 -10.5 80 t-22.5 77t-22.5 77t-10.5 80q0 49 44 88t98.5 83t98.5 100t44 138q0 55 -42 87t-100.5 46.5t-119.5 17.5t-100 3q-61 0 -96 29.5t-59 74.5t-39 96.5t-36.5 96.5t-55.5 74.5t-93 29.5t-95 -29.5t-59.5 -74.5t-41 -96.5t-38 -96.5t-49.5 -74.5t-76 -29.5t-113.5 -2t-128 -17.5 t-104.5 -50.5t-43 -102z" />
<glyph unicode="X" horiz-adv-x="1585" d="M100 764q0 -31 31 -75t78 -93t102.5 -97t105.5 -87t86 -62.5t44 -23.5q2 0 2 4t2 4q-2 18 -26.5 49t-54.5 64.5t-53.5 68.5t-23.5 64q0 37 16.5 65.5t43 48t59.5 30.5t66 11h813q12 0 28.5 1t30.5 4t24.5 9.5t10.5 16.5q0 18 -32 22.5t-62 4.5h-789q-31 0 -66.5 6 t-67.5 21.5t-53.5 41t-21.5 62.5q0 45 23.5 85t53.5 74.5t53.5 61t23.5 45.5q0 4 -1 8t-5 4q-10 0 -47 -24.5t-86.5 -64.5t-102.5 -89t-99 -97t-76 -92t-30 -71z" />
<glyph unicode="Y" horiz-adv-x="1851" d="M123 760q0 -180 56.5 -333t160.5 -263.5t252.5 -172t333.5 -61.5q176 0 323.5 61.5t255 170t167 257t59.5 324.5q0 162 -63.5 307.5t-172.5 254t-254 172t-307 63.5q-160 0 -306.5 -61.5t-259 -167t-179 -247.5t-66.5 -304zM313 647q0 35 13.5 63.5t54.5 28.5 q29 0 56.5 -15t49 -37.5t35 -52t13.5 -56.5q0 -23 -6.5 -50.5t-18.5 -51t-31.5 -40t-46.5 -16.5q-31 0 -52.5 26.5t-36.5 63.5t-22.5 75t-7.5 62zM465 1110q0 31 24.5 62.5t60.5 57t74 42t66 16.5q41 0 53.5 -22.5t12.5 -57.5t-14.5 -65.5t-38 -54t-54.5 -38t-65 -14.5 q-18 0 -39 3t-38.5 10.5t-29.5 21.5t-12 39zM705 799q0 14 28.5 41.5t66.5 53.5t74.5 45t51.5 19q12 0 48 -19t73.5 -46t66.5 -52.5t29 -37.5q0 -10 -11.5 -46t-25.5 -77t-28.5 -76t-20.5 -39q-10 -8 -29.5 -13t-41 -7t-44.5 -2h-35h-26t-35 2t-34 4t-24 8q-6 14 -19 50 t-27.5 76t-25.5 72.5t-11 43.5zM748 199q0 29 18 52t44 40.5t56.5 28t55.5 10.5t55.5 -11.5t57 -30t45 -44t18.5 -54.5t-18.5 -45t-45 -24t-55.5 -11.5t-49 -3.5q-25 0 -55.5 2.5t-59.5 11.5t-48 27.5t-19 51.5zM1096 1217q0 37 14 54t53 17q25 0 63 -16.5t72.5 -41t59 -54 t24.5 -56.5q0 -51 -36.5 -67.5t-77.5 -16.5q-78 0 -125 52.5t-47 128.5zM1303 557q0 31 12 62.5t33.5 58.5t50 44t61.5 17q41 0 61.5 -27.5t20.5 -64.5q0 -25 -10 -66.5t-27.5 -82.5t-42 -71t-55.5 -30q-25 0 -44.5 17.5t-32.5 42t-20 52.5t-7 48z" />
<glyph unicode="Z" horiz-adv-x="1712" d="M45 754q0 -29 40 -84.5t100.5 -123t134 -138t140 -129t117 -95.5t66.5 -37q29 0 59.5 13.5t55 36t41 50t16.5 58.5q0 45 -15.5 70.5t-32.5 44t-32.5 39t-15.5 55.5q0 68 40 90.5t99 22.5h498q52 -1 112 -9q26 -4 50 -3q30 0 57 6q41 8 66.5 37.5t25.5 99.5t-30.5 106.5 t-102.5 36.5q-39 0 -76 -5t-76 -5h-518q-25 0 -51.5 4t-48 15.5t-34.5 31t-13 49.5q0 37 16.5 62.5t35.5 47t35.5 44t16.5 51.5q0 33 -16.5 64.5t-42 57t-57 41t-62.5 15.5q-10 0 -57 -35.5t-113.5 -93t-141.5 -127t-138.5 -139.5t-105.5 -129t-42 -96zM168 764 q0 23 27.5 64.5t69.5 90t93.5 98.5t99.5 91t86 66.5t54 25.5q29 0 39 -20.5t10 -44.5q0 -27 -27.5 -47.5t-60.5 -44t-60.5 -52t-27.5 -71.5q0 -53 39 -86t90 -33q61 0 121.5 18.5t122.5 18.5h508q18 0 42.5 -3.5t47 -10.5t38 -22t15.5 -40t-14.5 -41t-35 -25.5t-44 -13.5 t-41.5 -4h-522q-59 0 -116.5 20.5t-117.5 20.5q-23 0 -47.5 -8.5t-43.5 -21.5t-31.5 -33.5t-12.5 -45.5q0 -47 27.5 -77.5t59.5 -55t59.5 -49.5t27.5 -61q0 -18 -7 -31.5t-30 -13.5q-20 0 -60 24.5t-89 64.5t-100.5 89t-93.5 98t-68.5 93t-26.5 73z" />
<glyph unicode="[" horiz-adv-x="1779" d="M109 733q0 -53 49 -132t123.5 -165t167 -173t178.5 -155.5t156.5 -111.5t101.5 -43q45 0 121.5 44t163.5 114.5t176.5 158.5t162 175t117.5 163t45 125q0 51 -45 129t-117.5 165t-162 174t-176.5 156.5t-163.5 112.5t-121.5 43q-43 0 -118 -43t-161 -112.5t-175 -155.5 t-160.5 -173t-116.5 -165t-45 -131z" />
<glyph unicode="\" horiz-adv-x="1480" d="M74 47q0 -45 17.5 -87t47 -73.5t70.5 -51t90 -19.5q63 0 113.5 30.5t90.5 77.5t71.5 100.5t59.5 100.5t54.5 77.5t54.5 30.5q29 0 61 -33.5t67.5 -73.5t77.5 -73t91 -33q41 0 83 16.5t75 44.5t53.5 66.5t20.5 81.5q0 90 -25.5 156t-56.5 121t-56.5 107.5t-25.5 115.5 q0 41 22.5 77t55.5 72.5t71.5 73.5t71.5 78t55.5 89.5t22.5 105.5q0 98 -56.5 150t-160.5 52q-82 0 -135.5 -37.5t-95 -82.5t-77.5 -83t-81 -38q-31 0 -58.5 43t-65.5 95t-95.5 95t-147.5 43q-111 0 -146.5 -57t-35.5 -158q0 -76 27.5 -136t59.5 -117.5t59.5 -120 t27.5 -144.5q0 -41 -25.5 -83t-65.5 -89t-85 -100.5t-85 -115.5t-65.5 -135t-25.5 -159z" />
<glyph unicode="]" horiz-adv-x="1835" d="M150 326q0 -68 12 -127.5t40.5 -103.5t79 -69.5t128.5 -25.5h999q119 0 182.5 68.5t63.5 185.5v946q0 131 -65.5 211t-203.5 80h-954q-129 0 -205.5 -62.5t-76.5 -197.5v-905z" />
<glyph unicode="^" horiz-adv-x="1832" d="M147 301q0 -66 12.5 -125t43 -104t81 -71t126.5 -26h1030q113 0 178 71.5t65 182.5v988q0 125 -68.5 207.5t-199.5 82.5h-985q-127 0 -205 -62.5t-78 -197.5v-946zM340 860q0 29 43 74t110.5 95t148.5 101.5t159 92.5t140.5 66.5t90.5 25.5q31 0 77 -43t97 -109.5 t102.5 -148.5t92.5 -159t66.5 -140t25.5 -94q0 -27 -43 -71t-110.5 -95.5t-150.5 -102.5t-160 -92t-139.5 -67.5t-90.5 -26.5q-29 0 -74 43t-96 110.5t-102.5 149.5t-93.5 159t-67.5 140t-25.5 92zM571 666q0 -18 27 -45t67 -56.5t90 -59.5t96 -53.5t84 -39t56 -15.5 q16 0 43 26t56.5 66.5t61.5 90t56.5 95.5t40 84t15.5 54q0 18 -26 45t-67 56.5t-90 60.5t-95 54.5t-84 38.5t-56 15t-46 -25.5t-58.5 -66.5t-60.5 -89t-54.5 -95t-40 -85t-15.5 -56z" />
<glyph unicode="_" horiz-adv-x="1034" d="M-68 -66q0 -18 11.5 -34.5t31.5 -16.5h1084q16 0 30.5 16.5t14.5 32.5q0 18 -11.5 40t-33.5 22h-1084q-23 0 -33 -19.5t-10 -40.5zM-68 -285q0 -18 11.5 -37.5t31.5 -19.5h1084q20 0 31.5 20.5t11.5 36.5t-12.5 38t-30.5 22h-1084q-20 0 -31.5 -21.5t-11.5 -38.5z M-68 -510q0 -20 11.5 -37.5t31.5 -17.5h1084q20 0 31.5 18.5t11.5 36.5q0 16 -12.5 34.5t-30.5 18.5h-1084q-20 0 -31.5 -18.5t-11.5 -34.5z" />
<glyph unicode="`" horiz-adv-x="987" d="M160 698q0 -14 29.5 -41.5t70.5 -60.5t83 -65.5t69 -59.5q35 -35 155 -35q80 0 118 12.5t38 43.5q0 10 -16.5 39.5t-38 62.5t-44 63.5t-34.5 44.5q-23 27 -47.5 42.5t-65.5 15.5q-16 0 -41.5 1t-53.5 3t-54.5 3t-44.5 1q-47 0 -85 -18.5t-38 -51.5z" />
<glyph unicode="a" horiz-adv-x="1771" d="M119 721q0 -154 62.5 -292t168 -244.5t244.5 -169t293 -62.5q166 0 306 60.5t243.5 167t161 248.5t57.5 306q0 170 -61.5 313.5t-169 248t-254 164t-314.5 59.5q-166 0 -302 -65.5t-232.5 -175.5t-149.5 -254t-53 -304zM182 752q0 141 54.5 268t147.5 224t219 153.5 t269 56.5q150 0 281 -57.5t226.5 -155.5t150.5 -229t55 -281t-50 -278.5t-141 -224t-217 -149.5t-278 -54q-154 0 -285 56t-227 154.5t-150.5 230.5t-54.5 286zM336 580q0 -55 27.5 -106.5t73.5 -96.5t105.5 -83t121 -65.5t122 -43t107.5 -15.5q45 0 105.5 16.5t123 46 t124 70.5t108.5 87t76.5 97.5t29.5 102.5q0 23 -13 44t-32.5 37.5t-44 27t-45.5 10.5q-18 0 -35.5 -22.5t-41 -57.5t-55.5 -74t-75 -74t-101.5 -57.5t-133.5 -22.5q-74 0 -128.5 24t-95.5 57.5t-69.5 74.5t-49 75t-36 57.5t-29.5 23.5q-20 0 -44.5 -13.5t-45 -33t-35 -43 t-14.5 -43.5zM434 551q0 25 29 24q12 0 28.5 -18t40 -45t55 -59.5t73.5 -59t97.5 -45t125.5 -18.5q104 0 183 39t133 85t85 85t41 39q16 0 19.5 -11.5t3.5 -23.5q0 -51 -53.5 -104.5t-127 -96.5t-149.5 -70.5t-121 -27.5q-53 0 -132 24.5t-152.5 66.5t-126 98t-52.5 118z M475 1004q0 -63 37 -108.5t102 -45.5q59 0 101.5 43t42.5 100q0 68 -41 108t-107 40q-57 0 -96 -40t-39 -97zM553 997q0 29 16.5 49.5t44.5 20.5q31 0 49.5 -21.5t18.5 -50.5t-18.5 -49t-47.5 -20q-31 0 -47 21.5t-16 49.5zM1014 993q0 -63 39 -107t104 -44q59 0 100 42 t41 101q0 66 -39.5 107t-107.5 41q-57 0 -97 -41t-40 -99zM1094 989q0 29 16 49.5t45 20.5q31 0 49.5 -21.5t18.5 -50.5t-18.5 -50.5t-47.5 -21.5t-46 23t-17 51z" />
<glyph unicode="b" horiz-adv-x="1853" d="M127 768q0 -61 18.5 -99t51 -59.5t77.5 -30t99 -8.5h592h16t20.5 -3t18.5 -8t8 -15q0 -14 -13.5 -29.5t-29.5 -38t-29.5 -54.5t-13.5 -81q0 -88 49 -137t137 -49q49 0 97.5 28.5t93.5 69.5t84 85t72 77q35 35 78.5 73.5t82.5 81.5t66 89.5t27 99.5q0 72 -36 120t-83 95 l-250 248q-29 27 -54.5 52t-53 45.5t-60.5 33t-76 12.5q-80 0 -127 -48t-47 -128q0 -53 13.5 -87t31 -55.5t30.5 -36t13 -26.5q0 -16 -8 -23.5t-19.5 -9.5t-24.5 -1t-24 1h-581q-49 0 -93 -7t-78 -27.5t-54.5 -56.5t-20.5 -93z" />
<glyph unicode="c" horiz-adv-x="1798" d="M100 762q0 -29 14.5 -46.5t35 -27.5t45 -14t47.5 -4h805q27 0 59.5 -4t60 -15.5t47 -33t19.5 -58.5q0 -33 -27.5 -67.5t-60.5 -70.5t-60.5 -73t-27.5 -74q0 -49 26.5 -64t69.5 -15q20 0 61 31.5t84 73.5t81 82t57 58q25 25 68.5 65t87.5 84t76 89t32 80t-26.5 75.5 t-64.5 80.5t-77 75t-64 60q-18 18 -63 64t-94 93t-93 84t-65 37q-41 0 -66.5 -22.5t-25.5 -63.5t26.5 -74.5t57.5 -66.5t57.5 -68t26.5 -80q0 -37 -21.5 -57.5t-52.5 -30.5t-65.5 -12t-61.5 -2h-792q-23 0 -46.5 -4t-44 -13.5t-33 -26.5t-12.5 -44z" />
<glyph unicode="d" horiz-adv-x="1675" d="M53 461q0 -131 40 -233.5t114 -172t179.5 -106.5t236.5 -37q125 0 227 39t176 111.5t115 174t41 226.5q0 53 -8.5 106.5t-27 104.5t-44 100t-25.5 105q0 14 19.5 45.5t50.5 68.5t67.5 76t72.5 72t65.5 53t44.5 20q37 0 55 -15t26.5 -38.5t9.5 -50.5t5 -50.5t12 -38.5 t31 -15q14 0 24.5 10t16.5 25.5t8 32t2 26.5v295q0 41 -6 65.5t-21.5 38.5t-42 18.5t-69.5 4.5h-252q-37 0 -64.5 -9.5t-27.5 -44.5q0 -23 22.5 -33t48 -21t48 -27.5t22.5 -49.5q0 -37 -27.5 -81t-67.5 -88t-82 -82.5t-71 -65.5q-20 -20 -40.5 -31.5t-51.5 -11.5 q-61 0 -135 20.5t-158 20.5q-125 0 -227 -40t-176 -113.5t-115 -176t-41 -227.5zM164 467q0 98 32.5 184t93 150.5t143.5 101.5t183 37q104 0 189.5 -39t145 -105.5t92 -155.5t32.5 -189t-33.5 -185.5t-94 -147t-145.5 -96t-186 -34.5q-109 0 -193.5 35.5t-142 99t-87 151.5 t-29.5 193z" />
<glyph unicode="e" horiz-adv-x="1349" d="M90 475q0 -59 33 -92t92 -33q27 0 51.5 13.5t44 35t31.5 47t12 52.5q0 49 -35.5 75.5t-82.5 26.5q-53 0 -99.5 -32.5t-46.5 -92.5zM90 995q0 -59 44 -94t99 -35q43 0 83 28t40 77q0 25 -13 51.5t-33.5 48t-47 35.5t-51.5 14q-51 0 -86 -36.5t-35 -88.5zM549 205 q0 -59 33.5 -94t93.5 -35q47 0 84 39t37 86q0 25 -10.5 50t-28 45.5t-41 34t-49.5 13.5q-27 0 -49.5 -13.5t-38 -32.5t-23.5 -44t-8 -49zM549 1255q0 -25 10 -48t27.5 -41.5t40 -30t47.5 -11.5q20 0 41.5 12.5t39 32t29 42t11.5 42.5q0 66 -30 104t-99 38q-57 0 -87 -44 t-30 -96zM600 733q0 -33 21.5 -51t52.5 -18t50 18t19 49q0 33 -20.5 52.5t-52.5 19.5q-29 0 -49.5 -20.5t-20.5 -49.5zM989 492q0 -66 44 -105t108 -39q47 0 79.5 39t32.5 86q0 61 -45 93t-100 32q-51 0 -85 -26.5t-34 -79.5zM989 971q0 -61 44 -81t95 -20q23 0 46.5 10.5 t42 27t31 37.5t12.5 46q0 55 -37 92t-93 37q-59 0 -100 -46t-41 -103z" />
<glyph unicode="f" horiz-adv-x="1366" d="M135 918q0 -133 36 -217.5t90 -138.5t116.5 -90t117 -71.5t90.5 -83t36 -124.5q0 -23 -1.5 -49.5t-6.5 -54.5t-14 -52.5t-26 -40.5q-20 -20 -55 -27.5t-68.5 -13.5t-58 -17.5t-24.5 -35.5q0 -37 25.5 -50.5t60 -19.5t70.5 -11t57 -26q27 -27 37 -61.5t16 -66.5 t17.5 -54.5t41.5 -22.5q27 0 39 24t20.5 56.5t16.5 67.5t29 55q23 23 59.5 29t71.5 12t60.5 18.5t25.5 47.5q0 29 -25.5 38t-60.5 13t-73 12t-64 33q-16 16 -25.5 43t-13.5 56.5t-4 58.5v53q0 78 35.5 123t89 77.5t117 66.5t116.5 90.5t89 146.5t36 237q0 115 -43 210 t-117 164t-173 106.5t-212 37.5q-123 0 -224.5 -40t-174 -111.5t-112.5 -173t-40 -223.5zM242 926q0 92 32.5 176t91 148.5t139.5 102.5t177 38q98 0 181 -36t141.5 -98.5t91 -147.5t32.5 -181q0 -98 -31.5 -183.5t-90 -147.5t-141.5 -98t-183 -36q-98 0 -180 36 t-139.5 99.5t-89 147t-31.5 180.5z" />
<glyph unicode="g" horiz-adv-x="1714" d="M127 1100q0 -90 23.5 -180.5t64.5 -174t95.5 -161.5t113.5 -142q37 -41 72.5 -80.5t68.5 -82.5q18 -27 52 -81.5t72 -108.5t78 -95t73 -41q25 0 54.5 24.5t57 57.5t52 66.5t38.5 52.5q63 86 133 164.5t144 156.5q117 123 192.5 278.5t75.5 327.5q0 88 -20.5 163 t-64.5 128t-112.5 83t-162.5 30q-74 0 -134.5 -21.5t-106.5 -46t-79 -46t-53 -21.5q-18 0 -53 21.5t-84 46t-113.5 46t-140.5 21.5q-80 0 -142.5 -33t-105.5 -86t-65.5 -122.5t-22.5 -143.5zM293 1092q0 96 47 163.5t152 67.5q72 0 117.5 -20.5t74.5 -51t46.5 -65.5 t33.5 -65.5t34.5 -51t51.5 -20.5q27 0 44 19t34.5 49t38 65t50.5 64.5t75 49t110 19.5q117 0 169 -51t52 -168q0 -78 -20.5 -151t-54 -140.5t-78.5 -130t-96 -117.5q-18 -18 -65.5 -74.5t-102 -116t-100.5 -106.5t-60 -47q-10 0 -30.5 19.5t-47.5 51t-56.5 68.5t-56 72 t-48 61.5t-32.5 38.5q-53 57 -103 123t-90 137.5t-64.5 148.5t-24.5 159z" />
<glyph unicode="h" horiz-adv-x="1890" d="M57 721q0 -18 13.5 -29.5t31 -19.5t37 -14.5t31.5 -14.5q18 -10 31.5 -22.5t25.5 -28.5q18 -27 30.5 -58.5t22 -63.5t19.5 -64.5t27 -61.5q18 -29 37.5 -54.5t36 -51t26.5 -54t10 -65.5q0 -43 -15 -83t-15 -81q0 -27 20 -27q14 0 24 22.5t27 49.5t44.5 49.5t76.5 22.5 q45 0 89 -9.5t88 -20.5t88 -20.5t91 -9.5q41 0 81 9.5t80 21.5t81 21.5t82 9.5q55 0 84 -22.5t44 -50.5t25.5 -50.5t28.5 -22.5q23 0 23 21q0 45 -19.5 86t-19.5 86q0 59 26.5 101t57.5 89q14 23 34.5 71t40 97t38 91t30.5 52.5t38 20.5t53.5 22.5t48 25t20.5 26.5 t-21.5 28.5t-50 28.5t-55.5 26.5t-39 24.5q-8 8 -19.5 35t-22.5 58.5t-22.5 61.5t-17.5 46q-43 92 -91 147.5t-106.5 94.5t-127 67.5t-154.5 65.5q-25 10 -43.5 28.5t-36.5 37t-39.5 31.5t-48.5 13q-25 0 -42 -12t-31.5 -29.5t-28 -35t-31.5 -27.5q-29 -16 -60.5 -24.5 t-60.5 -18.5q-66 -23 -127 -59.5t-114.5 -85t-95.5 -107.5t-64 -125q-10 -31 -16.5 -62.5t-22.5 -60.5q-27 -49 -59.5 -68.5t-60.5 -27.5t-46.5 -15.5t-18.5 -31.5zM352 549q0 53 34 86t85 33q59 0 91 -34t32 -91q0 -27 -8 -55.5t-24.5 -53t-39 -40t-53.5 -15.5 q-29 0 -50.5 17.5t-36.5 44t-22.5 55t-7.5 53.5zM352 891q0 57 35 128t89 132t118.5 102t126.5 41q47 0 70.5 -25.5t23.5 -72.5q0 -59 -18.5 -116.5t-40.5 -110.5q-18 -49 -37 -88t-46.5 -66t-66.5 -41t-96 -14q-59 0 -108.5 32.5t-49.5 98.5zM584 258q0 25 7 59.5t17 70.5 t21.5 68.5t21.5 57.5q25 57 49.5 90t57.5 50.5t73.5 21.5t100.5 4q35 0 70.5 -1t70.5 -8t64.5 -22.5t52.5 -46.5q16 -23 35.5 -69t36 -97t27.5 -100t11 -76q0 -66 -38.5 -102.5t-94 -55t-118 -23.5t-109.5 -5t-108.5 4t-117 22.5t-93 55.5t-37.5 102zM795 899q0 27 10 66 t29.5 74.5t46 61t59.5 25.5t61.5 -24.5t48 -60t31 -74.5t11.5 -68q0 -70 -42 -102.5t-108 -32.5t-106.5 32.5t-40.5 102.5zM1067 1196q0 45 20.5 71.5t67.5 26.5q63 0 130 -40t119 -100t86 -131t34 -132q0 -41 -15.5 -66.5t-40 -41t-56.5 -21.5t-64 -6q-66 0 -118 48 t-88 117.5t-55.5 145.5t-19.5 129zM1288 553q0 53 34 84t85 31q59 0 91 -38t32 -95q0 -27 -8.5 -54.5t-24.5 -49t-38.5 -35t-53.5 -13.5q-29 0 -51.5 17.5t-36.5 43t-21.5 55t-7.5 54.5z" />
<glyph unicode="i" horiz-adv-x="1320" d="M72 430q0 -29 50 -50.5t114.5 -37.5t127 -24.5t87.5 -8.5q61 0 131.5 17.5t131 52.5t100.5 88t40 127q0 31 -9 60.5t-9 60.5q0 45 51 45q45 0 82 -31t61.5 -76t37.5 -95t13 -87q0 -66 -20.5 -123t-45 -102t-45 -76t-20.5 -45q2 -2 8 -2q14 0 42 20.5t54.5 64.5t46 112.5 t19.5 164.5q0 70 -21.5 139.5t-63.5 125t-102.5 89t-137.5 33.5q-35 0 -67 -7t-66 -7q-16 0 -27.5 10.5t-11.5 44.5q0 39 30.5 71t73.5 53.5t89 33.5t77 12q53 0 104.5 -5t100.5 -21q25 -8 61.5 -24.5t59.5 -16.5q4 0 17 7t13 13q0 23 -51 38.5t-116.5 25.5t-127 15t-82.5 5 q-68 0 -138 -20.5t-128.5 -61.5t-95.5 -100t-37 -135q0 -18 4 -36.5t4 -39.5q0 -47 -53 -47q-41 0 -69.5 31.5t-46 75.5t-25.5 91.5t-8 79.5q0 70 27.5 134.5t59 118t59.5 91t28 54.5q-16 12 -29 12q-25 0 -49.5 -26.5t-47 -67.5t-42 -91t-32.5 -97.5t-21.5 -87.5t-8.5 -58 q0 -68 28 -139.5t75 -130t110.5 -96t134.5 -37.5q57 0 78 -12.5t21 -43.5q0 -29 -28 -51t-66.5 -37.5t-77.5 -24t-62 -8.5q-57 0 -112.5 13.5t-100.5 31t-77.5 31t-47.5 13.5q-8 0 -17 -4.5t-9 -14.5z" />
<glyph unicode="j" horiz-adv-x="1546" d="M49 735q0 -41 49 -73.5t118 -63.5t142.5 -65.5t120.5 -81.5q57 -57 92 -133t64 -144t57.5 -115t75.5 -47q35 0 53.5 14.5t29.5 36t16 49t14 52.5q49 164 174 282q49 49 123.5 85t145.5 67t121 60.5t50 66.5q0 45 -49 77t-120 62.5t-147.5 66.5t-129.5 89 q-49 49 -84 120.5t-65 138.5t-59.5 114t-70.5 47t-77 -50.5t-69.5 -120t-70.5 -141t-80 -114.5q-29 -31 -72 -55.5t-90 -46t-94 -42t-84 -41t-60.5 -44t-23.5 -50.5zM301 727q0 61 34 100t75 78q29 27 71.5 75t92 93t97.5 79t87 34q45 0 95 -33t99 -78t93.5 -93t78.5 -79 q25 -23 43.5 -40t31.5 -35.5t19.5 -42t6.5 -58.5q0 -43 -36 -95t-86 -102.5t-102.5 -96.5t-82.5 -79q-20 -23 -36 -37t-32 -22t-36.5 -12t-51.5 -4q-59 0 -97 32.5t-75 73.5q-29 29 -77 72t-95 91t-82 95t-35 84z" />
<glyph unicode="k" horiz-adv-x="1376" d="M88 1036q0 -51 24.5 -80.5t62.5 -48t82 -31t82 -27.5t62.5 -40t24.5 -68q0 -33 -24.5 -53t-62.5 -35.5t-81 -29t-81 -31.5t-62.5 -48t-24.5 -75q0 -59 33 -83t88 -24t93 28t73 61.5t70.5 61.5t87.5 28q41 0 55 -29t14 -63q0 -55 -16.5 -109.5t-16.5 -110.5q0 -51 27 -87 t86 -36q72 0 95.5 33t23.5 92q0 53 -11.5 104.5t-11.5 104.5q0 35 14.5 65t55.5 30q47 0 81 -27t67.5 -58.5t72.5 -58t98 -26.5q45 0 82 18t37 72q0 53 -24.5 84.5t-62.5 52t-81 34t-81 28t-62.5 37t-24.5 59.5q0 39 24.5 62.5t62.5 38.5t81 27.5t81 32t62.5 48t24.5 77.5 q0 47 -33.5 76t-80.5 28q-53 0 -94.5 -27.5t-76 -61t-67.5 -61t-72 -27.5q-47 0 -64.5 30.5t-17.5 71.5q0 51 13.5 101.5t13.5 101.5q0 61 -27.5 107t-97.5 46q-33 0 -54.5 -13t-34.5 -34.5t-19.5 -49.5t-6.5 -54q0 -53 15.5 -104.5t15.5 -104.5q0 -43 -18.5 -68.5 t-63.5 -25.5q-49 0 -84 27.5t-67.5 59t-69.5 59.5t-90 27q-47 0 -83 -26.5t-36 -77.5zM561 750q0 59 42 89.5t95 30.5q59 0 89 -36t30 -93q0 -59 -33.5 -91t-93.5 -32q-59 0 -94 36t-35 96z" />
<glyph unicode="l" horiz-adv-x="1286" d="M41 721q0 -23 16.5 -37t40 -21.5t49 -8.5t41.5 -1l93 6q35 2 58 -15t23 -75q0 -31 -25.5 -57.5t-55 -53t-55 -54t-25.5 -58.5q0 -23 17.5 -44t41.5 -21q41 0 68.5 26.5t53.5 59t54.5 59.5t73.5 27q27 0 41 -13.5t22.5 -33t9.5 -42t1 -42.5l-2 -80v-11q0 -36 11 -68 q13 -36 60 -36q43 -1 53 31q9 26 10 56q0 6 -1 11l-4 97q0 25 2 48t11 41.5t25.5 30t43.5 11.5q43 0 70.5 -25t52 -54.5t52 -54t72.5 -24.5q20 0 37 12t17 35q0 49 -26 76.5t-57.5 49t-57 45.5t-25.5 67q0 50 20 70q19 18 61 18h9h67q27 0 55.5 2t52.5 9t39 20t15 36 q0 25 -15 39t-36.5 21.5t-46.5 8.5t-43 1l-88 -4h-8q-36 -1 -60 15q-28 18 -28 73q0 23 26.5 52.5t57 61t57.5 61.5t27 54q0 23 -16.5 42.5t-39.5 19.5q-49 0 -75.5 -26t-50 -57.5t-55.5 -57t-91 -25.5q-20 0 -31.5 10t-16.5 24.5t-6 32t-1 33.5l4 92v12q1 40 -11 76 q-14 41 -59 41q-27 0 -42 -15t-21.5 -36.5t-7.5 -46.5t-1 -45l4 -94q4 -35 -12 -59.5t-65 -24.5q-41 0 -69 24.5t-52.5 54t-51 54t-67.5 24.5q-31 0 -45 -9t-14 -42q0 -45 25.5 -73.5t55 -53t55 -54.5t25.5 -79q0 -44 -32 -58q-26 -12 -54 -12q-6 0 -12 1l-110 6q-8 1 -16 1 q-33 0 -60 -14q-33 -16 -33 -63z" />
<glyph unicode="m" horiz-adv-x="2138" d="M125 766q0 -45 25.5 -73.5t62.5 -46t80 -24t78 -6.5h692q61 0 91 -17t41 -44t11 -57q0 -31 6.5 -57.5t24.5 -44t66 -17.5q39 0 74.5 14.5t69.5 35t66.5 43t69.5 36.5q43 16 116 33.5t142.5 43t120.5 64.5t51 101q0 84 -41 129t-100.5 68.5t-129 36.5t-126.5 36 q-25 8 -68 31.5t-90 48t-87 43t-58 18.5q-51 0 -72.5 -17.5t-30 -44t-9.5 -58t-11 -58.5t-37 -44t-82 -17h-692q-39 0 -84 -5.5t-83 -22.5t-62.5 -48t-24.5 -80z" />
<glyph unicode="n" horiz-adv-x="1947" d="M154 768q0 -23 16 -37t39 -14q20 0 36.5 11t16.5 34t-17.5 38t-39.5 15q-20 0 -35.5 -12t-15.5 -35zM393 768q0 -23 15.5 -42t42.5 -19t45 17t18 46q0 25 -16.5 41t-40.5 16q-27 0 -45.5 -15t-18.5 -44zM655 762q0 -68 70 -68t70 70q0 72 -74 72q-41 0 -53.5 -18.5 t-12.5 -55.5zM924 768q0 -41 14 -59.5t57 -18.5q47 0 64.5 15.5t17.5 62.5t-20.5 61.5t-67.5 14.5q-43 0 -54 -18.5t-11 -57.5zM1184 1204q0 -43 24.5 -74.5t54 -60.5t54 -61.5t24.5 -77.5q0 -27 -23.5 -35t-53 -17.5t-53 -31t-23.5 -74.5q0 -55 23.5 -75.5t53 -32t53 -24.5 t23.5 -54q0 -27 -24.5 -53.5t-53 -56.5t-53 -62.5t-24.5 -69.5q0 -41 20.5 -70.5t65.5 -29.5q18 0 65 33.5t105.5 85t121 114t114 120.5t85 104.5t33.5 66.5t-32.5 67.5t-84 105.5t-114 121.5t-119.5 115t-104.5 85t-67.5 33.5q-51 0 -70.5 -20.5t-19.5 -71.5z" />
<glyph unicode="o" horiz-adv-x="1583" d="M147 909q0 -111 40 -211t110 -176t166 -121t211 -45q72 0 126 9.5t96 21.5t76 27.5t64 27.5q0 -45 -46 -81.5t-108.5 -63.5t-128 -42t-102.5 -15q-66 0 -130 14t-130 14q-23 0 -22 -28q0 -29 35.5 -44.5t83 -23.5t93.5 -9t66 -1q100 0 204.5 32.5t189.5 95t139.5 151.5 t54.5 202q0 86 -28.5 149.5t-62.5 109.5t-61.5 76t-27.5 44q66 0 122 -43t97 -107.5t64.5 -138.5t23.5 -133q0 -61 -14.5 -110.5t-32 -91.5t-32.5 -76.5t-17 -65.5l24 -27q37 0 63.5 46.5t45 108.5t28 124.5t9.5 93.5q0 106 -43 201.5t-117 168t-170 115.5t-201 43 q-82 0 -162.5 -19t-146.5 -73q-12 -10 -27.5 -30.5t-32 -41t-32 -36t-29.5 -15.5q0 76 49 139.5t120 109.5t152 73t146 27q57 0 112.5 -11.5t112.5 -11.5q6 0 18.5 4t12.5 15q0 27 -32.5 41t-77 21t-88.5 8t-64 1q-111 0 -217.5 -34.5t-190.5 -100.5t-136 -160t-52 -215 q0 -59 20.5 -111.5t43 -93.5t38 -68.5t4.5 -39.5q-51 0 -93 46t-72.5 110.5t-48 131t-17.5 107.5q0 78 32 150.5t69.5 133t69.5 104.5t32 63q0 10 -11.5 13t-19.5 3q-35 0 -66.5 -26.5t-58 -67.5t-47 -93.5t-36 -103.5t-24 -96t-8.5 -74z" />
<glyph unicode="p" horiz-adv-x="1558" d="M117 457q0 -74 46 -115t113 -51q33 -6 65 -7t62.5 -5.5t59.5 -15.5t57 -38q31 -31 55.5 -69.5t53 -73.5t65.5 -58.5t90 -23.5t84 21.5t54.5 53t46 69.5t59.5 70t94.5 53.5t149.5 21.5q27 0 57.5 13t56 34.5t42 50t16.5 57.5q0 41 -12.5 79t-27.5 76t-27.5 76t-12.5 81 q0 31 12.5 60.5t27.5 61t27.5 65.5t12.5 75q0 51 -20.5 87t-54.5 56.5t-78 29.5t-89 9q-61 0 -102 20.5t-72 51.5t-54.5 67.5t-50 67.5t-59.5 51.5t-80 20.5q-51 0 -84.5 -20.5t-60.5 -51.5t-50.5 -65.5t-53 -65.5t-71.5 -51.5t-106 -20.5q-47 0 -90 -9t-76.5 -30.5 t-54 -57.5t-20.5 -89q0 -47 12 -76t25.5 -55.5t26 -60t12.5 -91.5q0 -39 -12.5 -72.5t-26 -66.5t-25.5 -66.5t-12 -72.5zM616 741q0 33 12.5 63t34 53.5t50 36.5t63.5 13q70 0 117 -48t47 -118q0 -66 -48 -111.5t-114 -45.5q-33 0 -61.5 12t-51 33.5t-36 50.5t-13.5 61z" />
<glyph unicode="q" horiz-adv-x="1644" d="M84 891q0 -49 26.5 -76t67.5 -44t87 -34.5t87 -47.5t67.5 -82t26.5 -138q0 -53 -18 -93t-42 -75t-42 -70.5t-18 -83.5q0 -41 14 -68.5t61 -27.5q35 0 65 19.5t57.5 48t55 62.5t59.5 62.5t71 48t90 19.5q90 0 143 -40t94 -88t82 -88t109 -40q33 0 55.5 22.5t22.5 57.5 q0 49 -21.5 90t-48.5 81t-48.5 81t-21.5 90q0 80 30 129t73 80t95 49.5t95 39t73 48t30 76.5q0 23 -13.5 37t-33 21.5t-42 9.5t-38.5 2q-33 0 -64 -8.5t-60.5 -19.5t-60 -19.5t-63.5 -8.5q-43 0 -89 24t-84 61.5t-63.5 82.5t-25.5 88q0 29 -2 76t-13.5 92t-35 78t-64.5 33 q-45 0 -69.5 -32t-36 -76t-13.5 -92t-2 -79q0 -33 -26.5 -75.5t-65.5 -81.5t-82 -65.5t-76 -26.5q-31 0 -59.5 7t-58 16t-59.5 16.5t-60 7.5q-18 0 -39 -3t-38.5 -11.5t-28.5 -24t-11 -37.5zM674 694q0 47 37 85t84 38q55 0 97 -33t42 -90q0 -53 -36 -92t-89 -39 q-59 0 -97 35t-38 96z" />
<glyph unicode="r" horiz-adv-x="1650" d="M193 887q0 -20 27.5 -34.5t43.5 -14.5l31 20q0 23 -22.5 37t-41.5 14q-8 0 -23 -6t-15 -16zM424 170l20 -23q12 0 23.5 8.5t21 20.5t15.5 25.5t6 23.5q0 25 -27 25q-25 0 -42 -30t-17 -50zM518 629q0 -25 20.5 -47.5t47.5 -22.5t40 16t13 43q0 23 -11.5 51.5t-39.5 28.5 q-29 0 -49.5 -20.5t-20.5 -48.5zM606 893q0 -23 12.5 -41t34.5 -18q14 0 29.5 7t29 19t21.5 26.5t8 28.5q0 51 -53 52q-31 0 -56.5 -21.5t-25.5 -52.5zM754 449q0 -25 24.5 -43.5t48.5 -18.5q27 0 48.5 15t21.5 44q0 27 -21.5 41.5t-46.5 14.5t-50 -10.5t-25 -42.5z M788 1317q0 -16 6.5 -35.5t26.5 -19.5t27.5 24.5t7.5 40.5t-7 34.5t-28 18.5q-20 0 -26.5 -20.5t-6.5 -42.5zM905 909q0 -12 9.5 -25.5t23.5 -23.5t28.5 -17t26.5 -7q27 0 41.5 16t14.5 43q0 29 -29 53.5t-55 24.5q-59 0 -60 -64zM1014 629q0 -20 11 -47t36 -27 q29 0 47 19.5t18 48.5q0 23 -15 49t-42 26t-41 -23.5t-14 -45.5zM1153 227q2 -23 22.5 -52.5t47.5 -29.5l24 23q0 25 -22.5 53.5t-48.5 28.5zM1384 860q0 -10 10.5 -16t18.5 -6q18 0 47 13t29 36q0 12 -9.5 19t-21.5 7q-18 0 -46 -15t-28 -38z" />
<glyph unicode="s" horiz-adv-x="1720" d="M117 725q0 -152 59.5 -286t160.5 -233.5t235.5 -156.5t285.5 -57q152 0 288 56t237.5 155.5t161 233.5t59.5 288q0 162 -53.5 299t-150.5 237.5t-233.5 157t-300.5 56.5q-170 0 -308 -54.5t-236.5 -153t-151.5 -236.5t-53 -306zM242 739q0 82 17 165t52 158t88.5 139.5 t124.5 109.5q39 25 82 41t90 16t71 -34t34 -81t11 -97t1 -81q0 -63 -5 -129.5t-50 -118.5q-12 -16 -42 -44.5t-69 -62.5t-82 -69t-84 -62.5t-73.5 -46t-51.5 -18.5q-43 0 -66.5 22.5t-33.5 54.5t-12 70t-2 68zM371 340q0 33 42 82t98 95t113.5 80t88.5 34q41 0 62.5 -32 t30.5 -76t9 -91v-72v-67q0 -31 -3 -67t-14.5 -64.5t-35 -48t-64.5 -19.5q-35 0 -90 24.5t-108.5 61.5t-91 80t-37.5 80zM910 1121q1 50 1 73q0 33 3.5 63.5t15.5 55t35.5 40t64.5 15.5q43 0 87 -17.5t79 -39.5q70 -47 124 -109.5t89 -136.5t53.5 -156t18.5 -164 q0 -37 -2 -76.5t-14.5 -71.5t-39 -53.5t-75.5 -21.5q-10 0 -43 21.5t-77 54.5t-93.5 74t-92.5 77.5t-73.5 66.5t-38.5 42q-10 14 -14.5 60.5t-6.5 99.5q-1 35 -1 69v34zM911 375v71q0 45 9.5 85t32 69t65.5 29q35 0 91 -33t109.5 -80t92.5 -98t39 -88q0 -41 -38 -83 t-91.5 -76t-109.5 -54.5t-93 -20.5q-41 0 -62.5 34t-32 79t-11.5 92t-1 74z" />
<glyph unicode="t" horiz-adv-x="1327" d="M84 719q0 -23 35 -41.5t77 -40t76.5 -49t34.5 -70.5q0 -27 -10 -51.5t-21.5 -48t-21.5 -43t-10 -37.5q0 -16 13 -24.5t30 -8.5q25 0 49 7t47 16.5t47.5 17.5t48.5 8q51 0 79 -30.5t44 -66.5t27.5 -66.5t34.5 -30.5q35 0 55 34.5t38.5 75.5t43 76t67.5 35q27 0 51.5 -8 t48 -18.5t44 -18.5t39.5 -8q18 0 27 13t9 30q0 45 -21.5 89t-21.5 91q0 55 31 81.5t69 42t68.5 28.5t30.5 40q0 31 -33.5 48.5t-74.5 36t-75 46t-34 78.5q0 25 9 48.5t21.5 46t21.5 43t9 38.5q0 16 -8 26.5t-24 10.5q-20 0 -43 -8t-49.5 -19.5t-54 -19.5t-58.5 -8 q-43 0 -66.5 32t-41 68.5t-34 68.5t-42.5 32q-29 0 -49.5 -34t-40 -74t-42 -73.5t-55.5 -33.5t-62.5 8t-56 19.5t-49 19.5t-37.5 8q-16 0 -24 -10.5t-8 -24.5q0 -27 9 -52.5t19.5 -52t19.5 -53t9 -55.5q0 -45 -34 -69.5t-73.5 -41t-73.5 -32t-34 -41.5z" />
<glyph unicode="u" horiz-adv-x="1513" d="M98 432q0 -33 14.5 -58.5t37 -43t51 -26.5t59.5 -9q70 0 119 29.5t87 64.5t67.5 64.5t58.5 29.5q41 0 41 -34q0 -31 -7.5 -61t-16.5 -60.5t-16 -62.5t-7 -64q0 -80 49 -138.5t133 -58.5q39 0 69.5 17.5t51 46t31 63.5t10.5 70q0 33 -7.5 63.5t-16.5 61t-16 60.5t-7 60 q0 37 39 37q37 0 68.5 -30.5t67.5 -66.5t82 -66.5t113 -30.5q72 0 116 45t44 117q0 57 -26.5 94t-65.5 60.5t-85 37.5t-85 27.5t-65.5 28t-26.5 38.5q0 25 26.5 40.5t66.5 27.5t86 25.5t86 39t66.5 65t26.5 105.5q0 70 -44 106t-109 36q-76 0 -125 -29t-86 -64.5t-67 -64.5 t-64 -29q-16 0 -27.5 6.5t-11.5 24.5q0 31 7 60.5t15 59.5t15.5 60.5t7.5 63.5q0 39 -9.5 75.5t-30 65.5t-52 46.5t-76.5 17.5q-47 0 -80 -16.5t-53.5 -45.5t-28.5 -66.5t-8 -80.5q0 -61 22.5 -120t22.5 -116q0 -23 -13.5 -29t-31.5 -6q-31 0 -62.5 30t-70.5 65.5t-83 65.5 t-100 30q-33 0 -64.5 -7.5t-56 -23.5t-40 -42t-15.5 -64q0 -68 27 -109t67.5 -66.5t88 -41t88.5 -28.5t67.5 -29.5t26.5 -47.5q0 -18 -26.5 -29.5t-67.5 -23.5t-88.5 -27.5t-88 -42t-67.5 -68.5t-27 -104z" />
<glyph unicode="v" horiz-adv-x="1830" d="M111 758q0 -51 29.5 -82t75.5 -46.5t104.5 -19.5t117.5 -4h611h28t37 -3t33 -11t14 -23q0 -37 -23.5 -66.5t-52 -60t-52 -65.5t-23.5 -80q0 -59 33.5 -93t93.5 -34q29 0 83 36t118.5 91t133 122.5t124 133t90 119t34.5 82.5q0 33 -34.5 89t-90 121.5t-123 133t-133 122 t-122 89t-87.5 34.5q-47 0 -83.5 -31.5t-36.5 -78.5q0 -55 22.5 -93t50 -69t51 -57.5t23.5 -55.5q0 -25 -15.5 -36t-38 -14t-47 -1t-40.5 2h-592q-53 0 -108.5 -4t-101.5 -19.5t-74.5 -45t-28.5 -82.5z" />
<glyph unicode="w" horiz-adv-x="1628" d="M78 891q0 -43 26.5 -71.5t66.5 -54.5t87 -50.5t87 -57t66.5 -79t26.5 -111.5q0 -53 -17.5 -97t-39 -85t-38.5 -82t-17 -86q0 -47 24.5 -74t71.5 -27q57 0 96 35t79 78t89 78t127 35q82 0 133 -35t91 -78t79 -78t98 -35q41 0 68 28t27 69q0 51 -17.5 91t-38 79t-38 83 t-17.5 105t25.5 105.5t65.5 78t85 59t85 51.5t65.5 53.5t25.5 64.5q0 59 -41 78.5t-92 19.5q-57 0 -111.5 -18.5t-111.5 -18.5q-78 0 -124 38t-71.5 94.5t-40 122t-31 121.5t-40 94t-70.5 38q-49 0 -74.5 -38t-41 -93t-29 -121.5t-39 -122t-70.5 -93.5t-125 -38 q-59 0 -115.5 16.5t-113.5 16.5q-23 0 -45.5 -4t-42 -13.5t-31.5 -26.5t-12 -44zM399 793q0 59 28 77.5t67 22.5q41 4 85 6t72 31q18 18 34.5 44.5t35 53.5t41 45.5t53.5 18.5t51.5 -18.5t38 -43t31.5 -51.5t33 -45q18 -16 44.5 -22.5t57.5 -8.5t61.5 -4t55.5 -14 q23 -10 35 -33t12 -64q0 -43 -26.5 -70.5t-56.5 -51.5t-54 -52q-19 -22 -18 -55q0 -8 1 -18q0 -4 5.5 -28t10.5 -61.5t5 -62.5q0 -43 -25.5 -62.5t-66.5 -19.5q-31 0 -53.5 9.5t-44 21.5t-43 21.5t-52.5 9.5q-27 0 -51.5 -9.5t-48 -21.5t-49 -21.5t-52.5 -9.5 q-45 0 -63 25.5t-18 66.5q0 23 4 58t8 56.5t4 25.5q1 10 1 20q0 35 -18 57q-22 28 -52.5 51t-56.5 49.5t-26 76.5z" />
<glyph unicode="x" horiz-adv-x="1585" d="M100 766q0 -10 10.5 -16.5t25 -9.5t30.5 -4t29 -1h813q33 0 65.5 -11t59 -30.5t43 -48.5t16.5 -65q0 -29 -24.5 -64t-53.5 -68.5t-54.5 -64.5t-25.5 -49l1 -4t3 -4q8 0 44 23.5t85.5 62.5t105.5 87t103 97t78 93t31 75q0 27 -30 71t-76 92t-100 97t-103.5 89t-85 64.5 t-46.5 24.5q-4 0 -5 -4t-3 -8q0 -18 24.5 -45t54.5 -61.5t53.5 -74.5t23.5 -85q0 -37 -21.5 -62.5t-53.5 -41t-67.5 -21.5t-66.5 -6h-788q-33 0 -64 -4.5t-31 -22.5z" />
<glyph unicode="y" horiz-adv-x="1748" d="M125 870q0 -88 13.5 -195.5t42 -213t76.5 -199.5t116 -156q41 -37 105.5 -59t135 -34.5t141 -16.5t124.5 -4q63 0 129.5 4t132 18.5t125 41t108.5 71.5q63 61 110.5 151.5t78 190.5t45 202.5t14.5 188.5q0 76 -36 151.5t-95 144.5t-137 128t-161 103.5t-165 69t-151 24.5 q-68 0 -150 -24.5t-165 -69t-161.5 -102.5t-140 -125.5t-98.5 -141.5t-37 -148zM184 649q0 53 33 87t86 34q45 0 87 -17.5t74 -48t51.5 -71.5t19.5 -86q0 -29 -14.5 -66t-37 -69.5t-53.5 -56t-61 -23.5q-35 0 -69 38t-59.5 90t-41 105t-15.5 84zM346 1100q0 39 32 82 t78 77.5t96 57t87 22.5q29 0 49.5 -14t33.5 -35.5t19.5 -47t6.5 -50.5q0 -43 -13.5 -84t-39 -74t-62.5 -53t-82 -20q-31 0 -66.5 8t-66.5 25.5t-51.5 43t-20.5 62.5zM578 811q0 14 45 47t100 65.5t100 58.5l45 26q16 0 64.5 -30t98.5 -67t70 -51l60 -45q0 -47 -23.5 -85 t-39.5 -79q-8 -20 -19.5 -59t-17.5 -65.5t-8 -30.5q-12 -12 -58.5 -17.5t-96.5 -8.5t-91 -3h-41q-23 0 -43.5 3t-36.5 19q-4 2 -20.5 52.5t-37 111t-35.5 109.5zM641 164q0 39 21.5 75.5t55.5 64.5t75 44.5t77 16.5q39 0 79 -18.5t72 -49.5t52.5 -69.5t20.5 -77.5 q0 -37 -23.5 -60.5t-57.5 -37t-71 -19.5t-63 -6q-31 0 -72 7t-78 22.5t-62.5 42t-25.5 65.5zM993 1214q0 45 28 86t77 41q37 0 88 -22.5t98 -58t80 -78.5t33 -82q0 -37 -21.5 -62.5t-54.5 -43t-68.5 -25.5t-66.5 -8q-47 0 -83 24.5t-60.5 61t-37 82t-12.5 85.5zM1196 543 q0 45 19.5 86t52 72.5t74.5 50t85 18.5q61 0 96.5 -31t35.5 -94q0 -35 -15.5 -91t-41 -110.5t-61.5 -93.5t-79 -39q-29 0 -58.5 27t-53 63.5t-39 76.5t-15.5 65z" />
<glyph unicode="z" horiz-adv-x="1712" d="M45 758q0 -70 26.5 -99.5t67.5 -37.5q26 -6 56 -6q23 0 49 4q58 8 112 8h500q59 0 98 -22.5t39 -90.5q0 -35 -15 -55.5t-32.5 -39t-33 -44t-15.5 -70.5q0 -31 16.5 -58.5t41 -50t55 -36t59.5 -13.5q16 0 66.5 37t117 95.5t140 129t134 138t100.5 123t40 84.5q0 37 -42 96 t-105.5 129t-138 139.5t-141 127t-115 93t-56.5 35.5q-31 0 -62.5 -15.5t-57 -41t-42 -57t-16.5 -64.5q0 -29 16.5 -51.5t36 -44t35.5 -47t16 -62.5q0 -31 -14 -50t-35.5 -30.5t-47.5 -15.5t-50 -4h-518q-39 0 -76 5t-76 5q-72 0 -102.5 -36.5t-30.5 -106.5zM217 762 q0 25 15.5 40t38 22t47 10.5t42.5 3.5h508q63 0 123 -18.5t121 -18.5q51 0 90 32.5t39 86.5q0 43 -27.5 71.5t-60.5 52t-60.5 44t-27.5 47.5q0 25 10 45t39 20q16 0 54 -25.5t86.5 -66.5t99.5 -91t93 -98.5t69.5 -90.5t27.5 -64q0 -29 -26.5 -73t-68.5 -93t-93 -98 t-100.5 -89t-89.5 -64.5t-60 -24.5q-23 0 -30 13t-7 32q0 37 27.5 61.5t59.5 49t59.5 55t27.5 77.5q0 25 -12 45.5t-31.5 33.5t-43 21.5t-46.5 8.5q-59 0 -117.5 -20.5t-118.5 -20.5h-522q-18 0 -41.5 4t-44 13.5t-35 25.5t-14.5 41z" />
<glyph unicode="{" horiz-adv-x="1638" d="M74 745q0 -49 24.5 -84.5t61.5 -63.5t79 -51.5t76 -45.5q158 -102 265 -267q20 -31 41.5 -70.5t48 -76.5t60.5 -61.5t77 -24.5q35 0 61.5 13.5t48 34t39 46t33.5 49.5q74 111 154 205t194 170q31 20 70 41t75 46.5t59.5 58t23.5 75.5q0 47 -24.5 83t-61.5 63.5t-79 49 t-75 42.5q-80 51 -150.5 134t-134 163t-120 138t-109.5 58q-55 0 -104.5 -44t-94.5 -104t-86 -123.5t-77 -100.5q-35 -35 -73 -66t-79 -59q-31 -20 -70 -42t-72.5 -48.5t-57 -59t-23.5 -78.5zM676 737q0 51 36 91t89 40t96 -35t43 -88q0 -27 -11 -52t-30.5 -44.5t-45.5 -32 t-52 -12.5q-49 0 -87 42t-38 91z" />
<glyph unicode="|" horiz-adv-x="1540" d="M47 651q0 -49 11.5 -120.5t35 -152.5t56 -161t76.5 -143.5t97.5 -103.5t114.5 -40q84 0 141.5 32t100.5 83t77 112.5t72 123.5q88 141 204 263t219.5 229.5t175 202.5t71.5 187q0 39 -13 79t-36 73t-53.5 54.5t-67.5 21.5q-94 0 -184 -67t-174 -167t-159 -217 t-139.5 -217t-117.5 -167t-92 -67q-49 0 -76 45.5t-53.5 98.5t-62 98t-103.5 45q-121 0 -121 -125z" />
<glyph unicode="}" horiz-adv-x="1794" d="M158 182q0 -86 50 -135t136 -49h1133q51 0 82.5 18.5t48 49t22.5 70.5t6 83v1018q0 106 -51 171t-164 65h-1042q-115 0 -168 -52.5t-53 -167.5v-1071zM432 414v633q0 88 39 115.5t121 27.5h620q76 0 109 -35t33 -108v-639q0 -78 -41 -98.5t-111 -20.5h-627 q-70 0 -106.5 24.5t-36.5 100.5z" />
<glyph unicode="~" horiz-adv-x="1802" d="M158 205q0 -61 10 -101.5t35.5 -65t66.5 -33.5t103 -9h1083q59 0 96 12t56.5 42t26.5 76t7 114v974q0 80 -9 130.5t-35.5 80t-72.5 40t-122 10.5h-997q-74 0 -122 -10.5t-76 -37t-39 -74.5t-11 -124v-1024zM346 324v806q0 82 35 118t117 36h809q86 0 119.5 -33.5 t33.5 -120.5v-808q0 -76 -43 -111t-114 -35h-807q-150 0 -150 148z" />
<glyph unicode="&#xa3;" horiz-adv-x="1841" d="M127 770q0 -160 61.5 -304t168 -253t249 -173.5t303.5 -64.5q166 0 313.5 61.5t257 168t173 252t63.5 313.5t-63.5 312.5t-173 252t-257 169t-313.5 61.5q-162 0 -304 -64.5t-248.5 -173t-168 -253t-61.5 -304.5zM385 823q0 82 34 149.5t90 117t129 77t150 27.5 q88 0 171 -33t147.5 -90t103.5 -135t39 -170q0 -88 -33.5 -159.5t-91 -122t-133.5 -78t-160 -27.5q-88 0 -168.5 36t-142 97t-98.5 142t-37 169z" />
<glyph unicode="&#xa5;" horiz-adv-x="1536" d="M178 1487q0 -41 27.5 -85t68.5 -90t90.5 -94.5t90.5 -96.5t68.5 -94t27.5 -89q0 -35 -29.5 -52.5t-60.5 -17.5q-41 0 -77 16.5t-77 16.5t-61.5 -37t-20.5 -71q0 -18 5.5 -42t15.5 -44.5t26.5 -34t38.5 -13.5q31 0 57.5 10.5t53.5 21.5t53.5 21.5t54.5 10.5 q29 0 50.5 -15.5t36 -39t21.5 -51t7 -52.5q0 -29 -14.5 -62.5t-48.5 -33.5q-37 0 -69 12.5t-64.5 27.5t-64.5 27.5t-69 12.5q-23 0 -39 -12.5t-26 -32t-14.5 -42t-4.5 -40.5t4.5 -42t14.5 -43.5t26.5 -32.5t40.5 -13q33 0 64 11t60.5 23.5t60 23.5t63.5 11q41 0 72 -30.5 t31 -71.5q0 -35 -11.5 -65.5t-25 -61.5t-24.5 -62.5t-11 -64.5t17.5 -55.5t44 -36.5t57 -20.5t57.5 -6.5q25 0 55.5 7.5t56 21.5t44 36.5t18.5 53.5q0 33 -11 64.5t-24.5 62.5t-25 61.5t-11.5 65.5q0 41 31 71.5t72 30.5q33 0 63.5 -11t60 -23.5t60.5 -23.5t64 -11 q25 0 41 13t26.5 32.5t14.5 43t4 42.5q0 18 -4 40.5t-14.5 42t-27 32t-38.5 12.5q-37 0 -69 -12.5t-63.5 -27.5t-64.5 -27.5t-67 -12.5q-39 0 -52.5 34t-13.5 62q0 25 7 52.5t22.5 51t36 39t49.5 15.5t56.5 -10.5t53 -21.5t53 -21.5t56.5 -10.5q25 0 41 13.5t26.5 34 t14.5 44t4 42.5q0 37 -21.5 72.5t-64.5 35.5q-41 0 -76 -16.5t-76 -16.5q-29 0 -58.5 20.5t-29.5 53.5q0 45 28 93t67.5 97.5t88 99.5t88.5 98t67.5 93t27.5 84q0 20 -12.5 31.5t-31 17t-38 6.5t-33.5 1q-86 0 -138 -28t-81 -75q-33 -49 -45 -110.5t-19.5 -127t-12.5 -128 t-21.5 -112.5t-49 -80t-92.5 -30q-61 0 -94 29t-49 76t-22.5 107.5t-12.5 124t-17 124t-40 109.5q-29 53 -82 83.5t-145 30.5q-16 0 -41 -3t-47.5 -10t-39 -21.5t-16.5 -34.5z" />
<glyph unicode="&#xa6;" horiz-adv-x="442" d="M66 236q0 -63 10 -121t28.5 -102t47 -70.5t65.5 -26.5q47 0 77 26.5t47 70.5t23.5 102t6.5 121t-6.5 120.5t-22.5 102.5t-46 71.5t-79 26.5q-45 0 -73.5 -26.5t-46 -71.5t-24.5 -102.5t-7 -120.5zM66 1155q0 -61 10 -119.5t28.5 -102.5t47 -70.5t65.5 -26.5q47 0 77 26.5 t47 70.5t23.5 102.5t6.5 119.5q0 63 -6.5 120.5t-22.5 102.5t-46 72t-79 27q-45 0 -73.5 -27t-46 -72t-24.5 -102t-7 -121z" />
<glyph unicode="&#xa7;" horiz-adv-x="1320" d="M131 -215q0 -57 57.5 -107.5t135 -87t157.5 -57t127 -20.5q96 0 191.5 24.5t170 76.5t121 131t46.5 189q0 39 -22.5 68t-50.5 53.5t-50.5 51t-22.5 61.5q0 43 31 66.5t68.5 53t68.5 76t31 134.5q0 111 -50 183.5t-125 121.5t-163 83t-163 68.5t-125 77.5t-50 111 q0 39 15.5 66.5t42 46t59.5 27.5t67 9q72 0 106 -24.5t55.5 -55t44 -55t73.5 -24.5q27 0 56.5 9t55 25.5t42 42t16.5 56.5q0 59 -52.5 109t-124 86t-148.5 55.5t-126 19.5q-82 0 -164.5 -25.5t-149.5 -75t-109 -120t-42 -162.5q0 -43 18.5 -74.5t42 -58.5t42 -53.5 t18.5 -59.5q0 -27 -29.5 -52.5t-65.5 -63t-65.5 -94t-29.5 -142.5q0 -119 48 -191.5t120.5 -118.5t157.5 -74t158 -59.5t121 -73.5t48 -118q0 -37 -16.5 -65.5t-42 -49t-59 -31t-66.5 -10.5q-61 0 -98 13.5t-60.5 34t-38 43t-30 43t-37 34t-60.5 13.5q-31 0 -62.5 -12.5 t-57 -34t-41 -51t-15.5 -62.5zM449 594q0 59 32.5 102t98.5 43q20 0 58 -11t81 -30.5t87 -45t80 -53.5t58.5 -55t22.5 -52q0 -29 -18.5 -59t-46.5 -54.5t-59.5 -39.5t-58.5 -15q-20 0 -53 14t-69.5 36.5t-74.5 52.5t-69 59.5t-50 58t-19 49.5z" />
<glyph unicode="&#xac;" horiz-adv-x="2097" d="M37 1348h100l8 118h224v-641h-285v-833h1688q68 0 121 17.5t89.5 48t56 70.5t19.5 85q0 88 -46 139t-122 76q51 25 83 71t32 109q0 35 -8 64.5t-31 56.5h6v287h-96l-8 -191h-598v385h-473v256h108v99h-850zM184 90v639h287v737h221v-354h475v-285h-108v-98h4l154 -381 h-394l-41 -96h471l66 -162h-1135zM692 829l27 -364h98l25 364h-150zM1163 729h545q61 0 98 -13.5t58.5 -32.5t29 -40.5t7.5 -38.5q0 -57 -51.5 -95t-123.5 -38h-233v-98h211q16 0 57 -3t83 -16.5t75 -43t33 -83.5q0 -53 -25.5 -80.5t-65.5 -41t-86 -15.5t-89 -2h-254v2h-7z M1358 1110h313v-104h96v309h-96v-107h-211v256h395l17 -188h94l-6 287h-602v-453z" />
<glyph unicode="&#xad;" horiz-adv-x="1667" d="M111 739q0 -29 28.5 -53t67.5 -41.5t79 -28t62 -10.5q10 0 20.5 2.5t10.5 14.5q0 29 -11.5 52t-11.5 52q0 31 9.5 60.5t9.5 60.5q0 23 -29 22q-27 0 -66.5 -8t-77.5 -23.5t-64.5 -41t-26.5 -58.5zM694 1200q0 -14 17 -14q31 0 59.5 9t58.5 9q33 0 62 -13t59 -13 q10 0 13.5 7t3.5 15q0 25 -9.5 67t-26 83t-42 70.5t-55.5 29.5q-31 0 -56.5 -29.5t-44 -69.5t-29 -83t-10.5 -68zM698 276q0 -27 7.5 -69.5t22.5 -83.5t40 -70.5t59 -29.5q35 0 60.5 28.5t42 68.5t25 81.5t8.5 70.5q0 14 -19 15q-29 0 -57.5 -9.5t-57.5 -9.5 q-31 0 -60.5 12.5t-57.5 12.5q-12 0 -13 -17zM1282 631q0 -10 5 -17.5t18 -7.5q25 0 66.5 8.5t83.5 23.5t71.5 38.5t29.5 56.5q0 39 -28.5 64.5t-69.5 41t-85 21.5t-75 6q-16 0 -16 -20q0 -27 8 -51.5t8 -53.5t-8 -55.5t-8 -54.5z" />
<glyph unicode="&#xb6;" horiz-adv-x="1347" d="M162 1167q0 -193 110.5 -294t298.5 -101q20 0 33.5 -12t20 -30.5t8.5 -39t2 -37.5v-841q0 -109 106 -109q39 0 69 36t30 73v1290q0 25 2 57.5t9 61t21.5 48t40.5 19.5q20 0 34 -21.5t22 -51t11 -61.5t3 -52v-1290q0 -59 20.5 -84t81.5 -25q37 0 57.5 9t30 27.5t11.5 44 t2 56.5v1549q0 35 -12.5 73.5t-38 71.5t-64.5 54.5t-92 21.5h-287q-131 0 -230.5 -15.5t-166 -62.5t-100 -134t-33.5 -231zM377 1174q0 27 9 57.5t27.5 57t43 45t55.5 18.5t54.5 -18.5t39 -45t23.5 -58t8 -56.5q0 -29 -9.5 -56.5t-25.5 -51.5t-39.5 -38t-54.5 -14t-55.5 14 t-41 38t-25.5 51.5t-9 56.5z" />
<glyph unicode="&#xb7;" horiz-adv-x="776" d="M164 756q0 -45 17.5 -85t48 -70t70.5 -47t83 -17q47 0 89 15t72.5 45t49 70t18.5 89q0 100 -63.5 163.5t-165.5 63.5q-98 0 -158.5 -65.5t-60.5 -161.5zM313 758q0 35 18.5 57.5t55.5 22.5q35 0 54.5 -18.5t19.5 -53.5q0 -37 -21.5 -56.5t-56.5 -19.5q-31 0 -50.5 18.5 t-19.5 49.5z" />
<glyph unicode="&#x2c6;" horiz-adv-x="1091" d="M176 500q0 -35 39 -47.5t111 -12.5q68 0 94 4.5t37 14.5q18 18 35.5 41.5t52.5 23.5q33 0 51 -26.5t29 -42.5q4 -10 45 -12.5t106 -2.5q47 0 85 11.5t38 46.5q0 14 -13.5 39.5t-32.5 51t-40.5 50.5t-36.5 39q-10 12 -24.5 26.5t-34 29t-44 23.5t-57.5 9h-139 q-25 0 -45 -3t-38.5 -12.5t-39 -26.5t-47.5 -44q-12 -12 -34.5 -38t-44 -54.5t-37 -53t-15.5 -34.5z" />
<glyph unicode="&#x2dc;" horiz-adv-x="837" d="M61 614q0 -43 4.5 -67.5t16.5 -37.5t32.5 -17.5t55.5 -4.5h414q72 0 93 27t21 107q0 76 -25.5 106.5t-84.5 30.5h-422q-33 0 -53.5 -6.5t-31.5 -21.5t-15.5 -43t-4.5 -73zM219 629q0 23 23.5 33t64.5 10h146q45 0 68.5 -9t23.5 -36t-23.5 -36t-62.5 -9h-164q-76 0 -76 47 z" />
<glyph unicode="&#x2000;" horiz-adv-x="805" />
<glyph unicode="&#x2001;" horiz-adv-x="1610" />
<glyph unicode="&#x2002;" horiz-adv-x="805" />
<glyph unicode="&#x2003;" horiz-adv-x="1610" />
<glyph unicode="&#x2004;" horiz-adv-x="536" />
<glyph unicode="&#x2005;" horiz-adv-x="402" />
<glyph unicode="&#x2006;" horiz-adv-x="268" />
<glyph unicode="&#x2007;" horiz-adv-x="268" />
<glyph unicode="&#x2008;" horiz-adv-x="201" />
<glyph unicode="&#x2009;" horiz-adv-x="322" />
<glyph unicode="&#x200a;" horiz-adv-x="89" />
<glyph unicode="&#x2010;" horiz-adv-x="1667" d="M111 739q0 -29 28.5 -53t67.5 -41.5t79 -28t62 -10.5q10 0 20.5 2.5t10.5 14.5q0 29 -11.5 52t-11.5 52q0 31 9.5 60.5t9.5 60.5q0 23 -29 22q-27 0 -66.5 -8t-77.5 -23.5t-64.5 -41t-26.5 -58.5zM694 1200q0 -14 17 -14q31 0 59.5 9t58.5 9q33 0 62 -13t59 -13 q10 0 13.5 7t3.5 15q0 25 -9.5 67t-26 83t-42 70.5t-55.5 29.5q-31 0 -56.5 -29.5t-44 -69.5t-29 -83t-10.5 -68zM698 276q0 -27 7.5 -69.5t22.5 -83.5t40 -70.5t59 -29.5q35 0 60.5 28.5t42 68.5t25 81.5t8.5 70.5q0 14 -19 15q-29 0 -57.5 -9.5t-57.5 -9.5 q-31 0 -60.5 12.5t-57.5 12.5q-12 0 -13 -17zM1282 631q0 -10 5 -17.5t18 -7.5q25 0 66.5 8.5t83.5 23.5t71.5 38.5t29.5 56.5q0 39 -28.5 64.5t-69.5 41t-85 21.5t-75 6q-16 0 -16 -20q0 -27 8 -51.5t8 -53.5t-8 -55.5t-8 -54.5z" />
<glyph unicode="&#x2011;" horiz-adv-x="1667" d="M111 739q0 -29 28.5 -53t67.5 -41.5t79 -28t62 -10.5q10 0 20.5 2.5t10.5 14.5q0 29 -11.5 52t-11.5 52q0 31 9.5 60.5t9.5 60.5q0 23 -29 22q-27 0 -66.5 -8t-77.5 -23.5t-64.5 -41t-26.5 -58.5zM694 1200q0 -14 17 -14q31 0 59.5 9t58.5 9q33 0 62 -13t59 -13 q10 0 13.5 7t3.5 15q0 25 -9.5 67t-26 83t-42 70.5t-55.5 29.5q-31 0 -56.5 -29.5t-44 -69.5t-29 -83t-10.5 -68zM698 276q0 -27 7.5 -69.5t22.5 -83.5t40 -70.5t59 -29.5q35 0 60.5 28.5t42 68.5t25 81.5t8.5 70.5q0 14 -19 15q-29 0 -57.5 -9.5t-57.5 -9.5 q-31 0 -60.5 12.5t-57.5 12.5q-12 0 -13 -17zM1282 631q0 -10 5 -17.5t18 -7.5q25 0 66.5 8.5t83.5 23.5t71.5 38.5t29.5 56.5q0 39 -28.5 64.5t-69.5 41t-85 21.5t-75 6q-16 0 -16 -20q0 -27 8 -51.5t8 -53.5t-8 -55.5t-8 -54.5z" />
<glyph unicode="&#x2012;" horiz-adv-x="1667" d="M111 739q0 -29 28.5 -53t67.5 -41.5t79 -28t62 -10.5q10 0 20.5 2.5t10.5 14.5q0 29 -11.5 52t-11.5 52q0 31 9.5 60.5t9.5 60.5q0 23 -29 22q-27 0 -66.5 -8t-77.5 -23.5t-64.5 -41t-26.5 -58.5zM694 1200q0 -14 17 -14q31 0 59.5 9t58.5 9q33 0 62 -13t59 -13 q10 0 13.5 7t3.5 15q0 25 -9.5 67t-26 83t-42 70.5t-55.5 29.5q-31 0 -56.5 -29.5t-44 -69.5t-29 -83t-10.5 -68zM698 276q0 -27 7.5 -69.5t22.5 -83.5t40 -70.5t59 -29.5q35 0 60.5 28.5t42 68.5t25 81.5t8.5 70.5q0 14 -19 15q-29 0 -57.5 -9.5t-57.5 -9.5 q-31 0 -60.5 12.5t-57.5 12.5q-12 0 -13 -17zM1282 631q0 -10 5 -17.5t18 -7.5q25 0 66.5 8.5t83.5 23.5t71.5 38.5t29.5 56.5q0 39 -28.5 64.5t-69.5 41t-85 21.5t-75 6q-16 0 -16 -20q0 -27 8 -51.5t8 -53.5t-8 -55.5t-8 -54.5z" />
<glyph unicode="&#x2013;" horiz-adv-x="1226" d="M190 754q0 -16 12.5 -24.5t29 -12.5t34 -5t27.5 -1h600q10 0 33.5 1t48 5t43 12.5t18.5 24.5q0 20 -17.5 31.5t-42 16.5t-49 6t-38.5 1h-555q-14 0 -38 -1t-47.5 -6t-41 -16.5t-17.5 -31.5z" />
<glyph unicode="&#x2014;" horiz-adv-x="1394" d="M39 596q0 -53 55.5 -76.5t136.5 -23.5h918q104 0 154.5 22.5t50.5 77.5q0 59 -47 81.5t-158 22.5h-918q-88 0 -140 -22.5t-52 -81.5z" />
<glyph unicode="&#x2018;" horiz-adv-x="604" d="M109 1174q0 -45 9 -87.5t30.5 -74t56.5 -51t86 -19.5q37 0 73.5 7t66.5 24.5t48.5 45.5t18.5 71q0 61 -30 92.5t-64.5 53t-64.5 42t-30 61.5q0 20 9.5 41t21.5 41.5t22.5 41t10.5 38.5l-21 19q-39 0 -82 -42t-78.5 -98.5t-59 -115t-23.5 -90.5zM336 1147q0 18 13 31.5 t32 13.5q18 0 32.5 -13.5t14.5 -31.5t-14.5 -32.5t-32.5 -14.5t-31.5 14t-13.5 33z" />
<glyph unicode="&#x2019;" horiz-adv-x="585" d="M98 1096q0 -43 18.5 -72t48.5 -46t66.5 -24.5t71.5 -7.5q51 0 87 19.5t57.5 51.5t30.5 74t9 87q0 33 -23.5 91t-60 115.5t-79.5 98.5t-82 41q-18 0 -19 -17q0 -16 9.5 -36.5t21.5 -42t21.5 -43t9.5 -39.5q0 -41 -29 -62.5t-64.5 -43t-64.5 -52.5t-29 -92zM168 1151 q0 18 13.5 31.5t31.5 13.5t31.5 -13.5t13.5 -31.5t-13.5 -31.5t-31.5 -13.5t-31.5 13.5t-13.5 31.5z" />
<glyph unicode="&#x201c;" horiz-adv-x="1005" d="M104 1237q0 -45 9.5 -87t31 -74t57.5 -51t87 -19q35 0 71.5 7t66.5 24.5t48.5 46t18.5 71.5q0 61 -29 93t-64.5 53.5t-64.5 42t-29 61.5q0 20 9.5 40.5t20.5 41t21.5 41t10.5 39.5l-19 16q-39 0 -82 -41t-79.5 -97t-60.5 -114.5t-24 -93.5zM332 1210q0 18 14 32.5 t33 14.5q18 0 31.5 -14.5t13.5 -32.5t-13.5 -31.5t-31.5 -13.5t-32.5 13.5t-14.5 31.5zM528 1237q0 -43 6.5 -85t25 -73.5t51 -52t83.5 -20.5q37 0 74 7t66.5 24.5t48 45t18.5 70.5q0 61 -29.5 93t-64.5 53.5t-64.5 42t-29.5 61.5q0 20 9 40.5t21.5 42t22.5 42t10 39.5 l-20 16q-43 0 -84 -40t-73 -96t-51.5 -114.5t-19.5 -95.5zM739 1210q0 18 13.5 31.5t31.5 13.5t32.5 -13.5t14.5 -31.5t-14 -31.5t-33 -13.5q-18 0 -31.5 13.5t-13.5 31.5z" />
<glyph unicode="&#x201d;" horiz-adv-x="985" d="M94 1153q0 -43 18.5 -70.5t48 -45t66.5 -24.5t74 -7q51 0 84 20.5t51.5 52t24.5 73.5t6 85q0 37 -19.5 95.5t-51 114.5t-72.5 96t-84 40l-21 -16q0 -18 10.5 -39t21.5 -42.5t20.5 -42t9.5 -40.5q0 -41 -29 -61.5t-64.5 -42t-64.5 -53.5t-29 -93zM164 1210q0 18 13 31.5 t34 13.5q18 0 31.5 -13.5t13.5 -31.5t-13.5 -31.5t-31.5 -13.5q-20 0 -33.5 13.5t-13.5 31.5zM502 1155q0 -43 18.5 -71.5t48 -46t66.5 -24.5t72 -7q51 0 86.5 19t57 51t31 74t9.5 87q0 35 -23.5 93.5t-60.5 114.5t-80 97t-82 41l-18 -16q0 -18 10 -39t21.5 -41.5t20.5 -41 t9 -40.5q0 -41 -28.5 -61.5t-64.5 -42t-64.5 -53t-28.5 -93.5zM571 1210q0 18 13.5 32.5t31.5 14.5t33 -14.5t15 -32.5t-14.5 -31.5t-33.5 -13.5q-18 0 -31.5 13.5t-13.5 31.5z" />
<glyph unicode="&#x2022;" horiz-adv-x="1841" d="M127 770q0 -160 61.5 -304t168 -253t249 -173.5t303.5 -64.5q166 0 313.5 61.5t257 168t173 252t63.5 313.5t-63.5 313.5t-173 252t-257 168t-313.5 61.5q-160 0 -302 -63.5t-248.5 -172t-169 -253t-62.5 -306.5z" />
<glyph unicode="&#x202f;" horiz-adv-x="322" />
<glyph unicode="&#x205f;" horiz-adv-x="402" />
<glyph unicode="&#x25fc;" horiz-adv-x="1198" d="M0 0v1198h1198v-1198h-1198z" />
</font>
</defs>
</svg>
